<svg width="48" height="48" viewBox="0 0 48 48" fill="none" xmlns="http://www.w3.org/2000/svg">
<rect x="6" y="6" width="36" height="36" rx="8" fill="#001E36"/>
<path fill-rule="evenodd" clip-rule="evenodd" d="M13.1699 31.6601V16.0835C13.1699 15.9775 13.2149 15.917 13.3199 15.917C13.5749 15.917 13.8149 15.917 14.1599 15.9019C14.3453 15.8941 14.5347 15.8903 14.7301 15.8864C14.9141 15.8827 15.1035 15.8789 15.2999 15.8716C15.5094 15.8638 15.7269 15.86 15.9524 15.8561C16.1629 15.8524 16.3804 15.8486 16.6049 15.8413C17.0699 15.8262 17.5199 15.8262 17.9699 15.8262C19.1999 15.8262 20.2199 15.9775 21.0599 16.2954C21.8099 16.5528 22.4999 16.9766 23.0699 17.5367C23.5499 18.0211 23.9249 18.6115 24.1649 19.2624C24.3899 19.8982 24.5099 20.5491 24.5099 21.2303C24.5099 22.5321 24.2099 23.6069 23.6099 24.4546C23.0099 25.3023 22.1699 25.9381 21.1949 26.3014C20.1749 26.6798 19.0499 26.8161 17.8199 26.8161C17.4599 26.8161 17.2199 26.8161 17.0699 26.8009C16.9199 26.7858 16.7099 26.7858 16.425 26.7858L16.4249 31.645C16.4399 31.7509 16.3649 31.8418 16.2599 31.8569H13.3499C13.2299 31.8569 13.1699 31.7964 13.1699 31.6601ZM16.4399 18.8386V23.9248L16.4849 23.9281C16.6778 23.942 16.8579 23.9551 17.0249 23.9551H17.8199C18.4049 23.9551 18.9899 23.8642 19.5449 23.6826C20.0249 23.5464 20.4449 23.2587 20.7749 22.8803C21.0899 22.5019 21.2399 21.9872 21.2399 21.3211C21.2549 20.8519 21.1349 20.3826 20.8949 19.9739C20.6399 19.5803 20.2799 19.2775 19.8449 19.111C19.2899 18.884 18.6899 18.7931 18.0749 18.8083C17.6849 18.8083 17.3399 18.8083 17.0549 18.8234C16.7549 18.8083 16.5449 18.8234 16.4399 18.8386Z" fill="#31A8FF"/>
<path d="M32.4298 22.4867C32.9398 22.5927 33.4198 22.7592 33.8698 23.0014C33.9298 23.0317 34.0048 23.0317 34.1398 23.0014C34.1848 22.9711 34.2148 22.9106 34.2148 22.85V20.3826C34.2148 20.322 34.1998 20.2615 34.1848 20.2009C34.1548 20.1404 34.0948 20.0798 34.0348 20.0647C33.6298 19.8982 33.1948 19.7771 32.7448 19.7165C32.1298 19.6257 31.4998 19.5803 30.8848 19.5803C29.8198 19.5803 28.9348 19.7468 28.2298 20.1101C27.5848 20.4129 27.0298 20.8973 26.6548 21.5028C26.3248 22.0629 26.1448 22.6835 26.1448 23.3344C26.1298 23.8642 26.2498 24.3941 26.4898 24.8785C26.7748 25.3931 27.1648 25.8321 27.6298 26.1652C28.2898 26.6193 28.9948 26.9826 29.7598 27.2551C30.4948 27.5427 30.9898 27.7697 31.2298 27.9665C31.4698 28.1633 31.5898 28.3601 31.5898 28.572C31.5898 28.8445 31.4248 29.1019 31.1848 29.2078C30.9148 29.3441 30.5098 29.4197 29.9398 29.4197C29.3398 29.4197 28.7398 29.3441 28.1698 29.1927C27.5098 29.0413 26.8948 28.7991 26.3098 28.4509C26.2648 28.4207 26.2198 28.4055 26.1748 28.4358C26.1298 28.4661 26.1148 28.5266 26.1148 28.572V31.206C26.0998 31.3271 26.1748 31.433 26.2798 31.4936C26.7598 31.7207 27.2848 31.8872 27.8098 31.978C28.4848 32.1142 29.1598 32.1748 29.8498 32.1748C30.9298 32.1748 31.8298 32.0083 32.5648 31.6904C33.2398 31.4179 33.8248 30.9486 34.2448 30.3431C34.6348 29.7528 34.8448 29.0413 34.8298 28.3298C34.8448 27.7849 34.7248 27.2551 34.4848 26.7707C34.1998 26.256 33.7948 25.8321 33.2998 25.5142C32.5798 25.0601 31.7998 24.6817 30.9898 24.4092C30.6298 24.2578 30.2698 24.0913 29.9248 23.9096C29.7298 23.8037 29.5498 23.6674 29.4148 23.5009C29.3248 23.3798 29.2648 23.2436 29.2648 23.1074C29.2648 22.9711 29.3098 22.8197 29.3848 22.6986C29.4898 22.5473 29.6548 22.4413 29.8498 22.3959C30.1348 22.3202 30.4498 22.2748 30.7498 22.2899C31.3198 22.2899 31.8748 22.3656 32.4298 22.4867Z" fill="#31A8FF"/>
</svg>
