<svg width="45" height="45" viewBox="0 0 45 45" fill="none" xmlns="http://www.w3.org/2000/svg">
<rect x="0.792969" y="0.4375" width="44" height="44" rx="8" fill="#111111"/>
<path fill-rule="evenodd" clip-rule="evenodd" d="M32.283 32.9535C30.9421 32.9717 29.6012 32.6991 28.3871 32.1356C27.2455 31.6085 26.3033 30.7361 25.651 29.6638C24.9805 28.5551 24.6544 27.1738 24.6544 25.5198C24.6362 24.1748 24.9805 22.848 25.651 21.6848C26.3395 20.5034 27.3361 19.522 28.5321 18.8677C29.8005 18.1588 31.3226 17.8135 33.1165 17.8135C33.2071 17.8135 33.3339 17.8135 33.497 17.8317C33.5846 17.8414 33.6775 17.846 33.7784 17.8509C33.8653 17.8551 33.9581 17.8596 34.0587 17.868V12.1246C34.0587 11.9974 34.1131 11.9247 34.2399 11.9247H37.9183C38.0089 11.9065 38.0814 11.9792 38.0995 12.0519V29.3912C38.0995 29.6882 38.1145 30.0153 38.1308 30.3724L38.1358 30.4817C38.1664 30.8045 38.1841 31.1143 38.1998 31.3892L38.2082 31.5358C38.2082 31.6631 38.1539 31.7721 38.027 31.8266C37.0848 32.2265 36.0882 32.5173 35.0735 32.6991C34.1493 32.8626 33.2252 32.9535 32.283 32.9535ZM34.0587 29.3185V21.3213C33.8957 21.285 33.7326 21.2486 33.5695 21.2304C33.3702 21.2123 33.1708 21.1941 32.9715 21.1941C32.2648 21.1941 31.5581 21.3395 30.9239 21.6667C30.3079 21.9756 29.7824 22.43 29.3837 23.0116C28.9851 23.5932 28.7858 24.3748 28.7858 25.3199C28.7676 25.956 28.8764 26.5922 29.0938 27.1919C29.275 27.6827 29.5468 28.1189 29.9092 28.4824C30.2535 28.8095 30.6703 29.064 31.1414 29.2094C31.6306 29.373 32.138 29.4457 32.6454 29.4457C32.9172 29.4457 33.1708 29.4275 33.4064 29.4093C33.642 29.4275 33.8413 29.3912 34.0587 29.3185Z" fill="white"/>
<path d="M18.4755 22.7754L23.9116 13.7786C23.9478 13.7422 23.9841 13.6695 23.966 13.6514C23.9478 13.5605 23.8572 13.506 23.7666 13.5241H19.9433C19.8527 13.506 19.7802 13.5241 19.7077 13.5605C19.6534 13.5968 19.6171 13.6695 19.599 13.7422C19.4363 14.0464 19.2736 14.3565 19.1097 14.669C18.872 15.1223 18.6316 15.5805 18.3849 16.0323C17.9682 16.7957 17.5514 17.559 17.1528 18.3224C16.7541 19.0858 16.3555 19.8673 15.975 20.667H15.9387C15.5582 19.8855 15.1596 19.1221 14.7247 18.3588C14.3539 17.734 14.0075 17.1093 13.6555 16.4745C13.5774 16.3337 13.499 16.1924 13.42 16.0505C13.0033 15.269 12.6046 14.4874 12.2603 13.7059C12.206 13.6332 12.1516 13.5787 12.0791 13.5423C12.0067 13.5241 11.9161 13.506 11.8255 13.506H7.71218C7.6397 13.506 7.56722 13.5241 7.53098 13.5787C7.49474 13.615 7.51286 13.6877 7.56722 13.7604L13.0576 23.0843L7.42226 32.3537C7.38601 32.4083 7.36789 32.481 7.38601 32.5537C7.38601 32.6224 7.41711 32.6183 7.46363 32.6123C7.47861 32.6103 7.4952 32.6082 7.51286 32.6082H11.4993C11.6986 32.6082 11.8436 32.59 11.9161 32.4083C12.1939 31.9115 12.4717 31.3986 12.7496 30.8856C12.8885 30.6291 13.0274 30.3726 13.1663 30.1182C13.565 29.3548 13.9818 28.5733 14.3985 27.7917C14.8153 27.0102 15.232 26.2286 15.6126 25.4471H15.6488C16.0837 26.2468 16.5186 27.0284 16.9535 27.8099C17.3883 28.5914 17.8051 29.3548 18.1856 30.1C18.3759 30.4817 18.5707 30.8588 18.7655 31.236C18.9603 31.6131 19.1551 31.9902 19.3453 32.3719C19.4722 32.5537 19.6715 32.5718 19.9614 32.5718H24.1109C24.1529 32.5648 24.1895 32.5686 24.2196 32.5718C24.2675 32.5768 24.2991 32.5801 24.3102 32.5355C24.3284 32.4628 24.3102 32.3901 24.274 32.3174L18.4755 22.7754Z" fill="white"/>
</svg>
