<svg width="48" height="48" viewBox="0 0 48 48" fill="none" xmlns="http://www.w3.org/2000/svg">
<rect x="6" y="6" width="36" height="36" rx="8" fill="#330000"/>
<path d="M32.1308 19.4587C31.6321 19.4731 31.1485 19.2866 30.7858 18.9566C30.4382 18.5979 30.2569 18.1244 30.272 17.6366C30.2569 17.1487 30.4533 16.6896 30.816 16.3596C31.1787 16.0296 31.6623 15.8574 32.161 15.8574C32.7504 15.8574 33.2037 16.0296 33.5362 16.3596C33.8686 16.7039 34.05 17.1631 34.0349 17.6366C34.05 18.1244 33.8686 18.5979 33.5059 18.9566C33.1584 19.3009 32.6446 19.4874 32.1308 19.4587Z" fill="#FF9A00"/>
<path d="M30.4382 31.9126V20.8648C30.4382 20.7213 30.4987 20.6639 30.6347 20.6639H33.6269C33.7629 20.6639 33.8233 20.7357 33.8233 20.8648V31.9126C33.8233 32.0705 33.7629 32.1422 33.6269 32.1422H30.6649C30.5138 32.1422 30.4382 32.0561 30.4382 31.9126Z" fill="#FF9A00"/>
<path fill-rule="evenodd" clip-rule="evenodd" d="M24.046 28.5552H18.4243L17.2758 31.927C17.2456 32.0561 17.1247 32.1422 16.9887 32.1279H14.1476C13.9814 32.1279 13.9361 32.0418 13.9814 31.8696L18.8474 18.5692C18.8607 18.5274 18.8739 18.4843 18.8875 18.4401C18.9205 18.3325 18.9557 18.2177 18.9986 18.0957C19.059 17.7944 19.0892 17.4787 19.0892 17.1631C19.0741 17.0913 19.1346 17.0196 19.2101 17.0052H23.1241C23.245 17.0052 23.3055 17.0483 23.3206 17.12L28.8364 31.8983C28.8818 32.0561 28.8364 32.1279 28.6853 32.1279H25.5269C25.4211 32.1422 25.3154 32.0705 25.2851 31.97L24.046 28.5552ZM19.3008 25.6426H23.1392C23.0486 25.3413 22.9277 24.9826 22.7917 24.6096C22.6556 24.2222 22.5196 23.8061 22.3836 23.3757C22.3081 23.1533 22.2363 22.9345 22.1645 22.7157C22.0927 22.4969 22.0209 22.2781 21.9454 22.0557C21.7943 21.6109 21.6583 21.1948 21.5374 20.7787C21.4839 20.6009 21.4333 20.4287 21.3844 20.2622C21.3228 20.0524 21.2639 19.8515 21.2049 19.6596H21.1747C21.0387 20.2766 20.8724 20.8935 20.6609 21.5105C20.5746 21.7727 20.4882 22.0391 20.4011 22.3081C20.2594 22.7454 20.1154 23.1898 19.9657 23.6339C19.7542 24.3657 19.5275 25.04 19.3008 25.6426Z" fill="#FF9A00"/>
</svg>
