<svg width="48" height="48" viewBox="0 0 48 48" fill="none" xmlns="http://www.w3.org/2000/svg">
<rect x="6" y="6" width="36" height="36" rx="8" fill="#470137"/>
<path fill-rule="evenodd" clip-rule="evenodd" d="M31.7647 32.6032C30.6676 32.6181 29.5705 32.395 28.5772 31.934C27.6432 31.5028 26.8723 30.789 26.3385 29.9116C25.79 29.0045 25.5231 27.8743 25.5231 26.5211C25.5083 25.4207 25.79 24.3351 26.3385 23.3834C26.9019 22.4168 27.7173 21.6138 28.6958 21.0784C29.7336 20.4985 30.979 20.2159 32.4467 20.2159C32.5208 20.2159 32.6246 20.2159 32.758 20.2308C32.8297 20.2388 32.9057 20.2425 32.9882 20.2465C33.0593 20.25 33.1353 20.2537 33.2176 20.2605V15.5614C33.2176 15.4573 33.2621 15.3978 33.3659 15.3978H36.3755C36.4496 15.3829 36.5089 15.4424 36.5237 15.5019V29.6886C36.5237 29.9316 36.5359 30.1992 36.5493 30.4914L36.5534 30.5808C36.5785 30.8449 36.5929 31.0984 36.6058 31.3233L36.6127 31.4433C36.6127 31.5474 36.5682 31.6366 36.4644 31.6812C35.6935 32.0084 34.8781 32.2463 34.0478 32.395C33.2917 32.5289 32.5356 32.6032 31.7647 32.6032ZM33.2176 29.6291V23.086C33.0842 23.0562 32.9507 23.0265 32.8173 23.0116C32.6543 22.9967 32.4912 22.9819 32.3281 22.9819C31.7499 22.9819 31.1717 23.1008 30.6528 23.3685C30.1487 23.6213 29.7188 23.9931 29.3926 24.4689C29.0665 24.9448 28.9034 25.5842 28.9034 26.3575C28.8885 26.878 28.9775 27.3985 29.1554 27.8892C29.3037 28.2907 29.526 28.6476 29.8226 28.945C30.1042 29.2127 30.4452 29.4209 30.8307 29.5398C31.231 29.6737 31.6461 29.7332 32.0612 29.7332C32.2836 29.7332 32.4912 29.7183 32.6839 29.7034C32.8766 29.7183 33.0397 29.6886 33.2176 29.6291Z" fill="#FF61F6"/>
<path d="M20.4677 24.2756L24.9154 16.9146C24.9451 16.8849 24.9747 16.8254 24.9599 16.8105C24.9451 16.7362 24.8709 16.6916 24.7968 16.7064H21.6686C21.5945 16.6916 21.5352 16.7064 21.4759 16.7362C21.4314 16.7659 21.4018 16.8254 21.3869 16.8849C21.2538 17.1337 21.1207 17.3875 20.9866 17.6432C20.7921 18.014 20.5954 18.3889 20.3936 18.7586C20.0526 19.3832 19.7116 20.0077 19.3855 20.6323C19.0593 21.2569 18.7332 21.8963 18.4218 22.5506H18.3922C18.0808 21.9112 17.7547 21.2866 17.3988 20.662C17.0955 20.1509 16.812 19.6397 16.524 19.1204C16.4601 19.0052 16.396 18.8896 16.3314 18.7735C15.9904 18.134 15.6643 17.4946 15.3826 16.8552C15.3381 16.7957 15.2936 16.7511 15.2343 16.7213C15.175 16.7064 15.1009 16.6916 15.0268 16.6916H11.6613C11.602 16.6916 11.5427 16.7064 11.5131 16.7511C11.4834 16.7808 11.4983 16.8403 11.5427 16.8998L16.0349 24.5284L11.4241 32.1125C11.3945 32.1571 11.3797 32.2166 11.3945 32.2761C11.3945 32.3323 11.4199 32.329 11.458 32.324C11.4702 32.3224 11.4838 32.3207 11.4983 32.3207H14.7599C14.923 32.3207 15.0416 32.3058 15.1009 32.1571C15.3282 31.7506 15.5555 31.331 15.7828 30.9113C15.8965 30.7014 16.0102 30.4916 16.1238 30.2834C16.45 29.6588 16.791 29.0194 17.132 28.3799C17.473 27.7405 17.814 27.101 18.1253 26.4616H18.155C18.5108 27.1159 18.8666 27.7554 19.2224 28.3948C19.5782 29.0342 19.9192 29.6588 20.2305 30.2685C20.3862 30.5808 20.5456 30.8894 20.705 31.1979C20.8643 31.5065 21.0237 31.8151 21.1794 32.1273C21.2832 32.2761 21.4462 32.2909 21.6834 32.2909H25.0785C25.1129 32.2852 25.1428 32.2883 25.1674 32.2909C25.2066 32.295 25.2325 32.2977 25.2416 32.2612C25.2564 32.2017 25.2416 32.1422 25.2119 32.0827L20.4677 24.2756Z" fill="#FF61F6"/>
</svg>
