<svg width="45" height="45" viewBox="0 0 45 45" fill="none" xmlns="http://www.w3.org/2000/svg">
<rect x="0.394531" y="0.0429688" width="44" height="44" rx="8" fill="#111111"/>
<path d="M18.7818 26.4881H12.4387L11.1481 30.4499C11.1123 30.5968 10.9716 30.7008 10.8186 30.6936H7.60584C7.42262 30.6936 7.35855 30.5943 7.41362 30.3957L12.9055 14.8602C12.9604 14.6977 13.0153 14.5389 13.0703 14.3311C13.1421 13.9697 13.1789 13.6025 13.1801 13.2342C13.1644 13.1254 13.262 13.0291 13.3723 13.0446H17.7383C17.8662 13.0446 17.9394 13.0898 17.958 13.1801L24.1913 30.4228C24.2462 30.6035 24.1913 30.6938 24.0265 30.6936H20.4568C20.3316 30.7073 20.212 30.6248 20.1822 30.5041L18.7818 26.4881ZM13.4272 23.1477H17.7658C17.053 20.8053 16.2485 18.4937 15.5965 16.1331C14.8577 18.5818 14.1755 20.8528 13.4272 23.1477Z" fill="white"/>
<path d="M28.8272 24.9584C29.0797 26.97 30.8362 27.9291 32.7814 27.8882C33.8782 27.8674 35.0504 27.7037 36.0752 27.3049C36.1666 27.233 36.2126 27.2778 36.2126 27.4403V30.0132C36.2212 30.1471 36.1631 30.2667 36.0478 30.3382C34.774 30.8947 33.3116 31.0625 31.9301 31.0412C27.8107 31.0412 24.9817 28.25 24.9829 24.1891C24.9721 20.3408 27.5683 17.0941 31.6006 17.0941C35.0186 17.0089 37.385 19.6406 37.3945 22.9162C37.3945 23.5128 37.3599 24.1115 37.2847 24.7037C37.2701 24.8257 37.1621 24.9204 37.0375 24.9204C34.3077 24.9204 31.5645 24.9584 28.8272 24.9584ZM28.8272 22.4912C30.3486 22.4912 31.8787 22.5429 33.3991 22.4776C33.6277 22.4551 33.7974 22.4135 33.7974 22.1849C33.7656 20.9705 32.7 19.9718 31.4633 20.0183C29.9692 19.9292 29.0129 21.1421 28.8272 22.4912Z" fill="white"/>
</svg>
