<svg width="33" height="33" viewBox="0 0 33 33" fill="none" xmlns="http://www.w3.org/2000/svg">
<path d="M12.4451 14.2959C10.0695 14.5126 8.10249 16.1245 7.35547 18.303H14.6606C13.6749 16.8545 12.4593 14.9417 12.4451 14.2959H12.4451Z" fill="#202020"/>
<path d="M19.6896 14.2959C19.6749 14.9421 18.3426 16.855 17.2617 18.3035H24.7781C24.0309 16.1247 22.0637 14.5128 19.6895 14.2959H19.6896Z" fill="#202020"/>
<path d="M16.4736 16.7161C16.8932 16.4992 17.2177 16.0483 17.2177 15.5898C17.2177 15.5898 16.5938 15.8656 15.9585 15.8656C15.3231 15.8656 14.6992 15.5898 14.6992 15.5898C14.6992 16.0482 15.0237 16.4992 15.4433 16.7161L15.3324 18.3016H16.5846L16.4736 16.7161Z" fill="#202020"/>
<path d="M25.0328 30.4102H7.09954C6.92503 30.4102 6.7832 30.5517 6.7832 30.7263C6.7832 30.9008 6.92502 31.0417 7.09954 31.0417H25.0328C25.2078 31.0417 25.349 30.9008 25.349 30.7263C25.3492 30.5518 25.2078 30.4102 25.0328 30.4102Z" fill="#202020"/>
<path d="M8.16592 30.1514H23.9664C24.7073 30.1514 25.3096 29.5491 25.3082 28.8213L26.8892 19.6437C26.8892 18.9028 26.287 18.301 25.5468 18.301H24.7775L17.2611 18.3008H6.58615C5.84525 18.3008 5.24282 18.9026 5.24414 19.657L6.8231 28.8081C6.82287 29.5487 7.42536 30.151 8.1658 30.151L8.16592 30.1514ZM6.58604 18.4589H25.5468C26.1997 18.4589 26.7318 18.9905 26.733 19.6307L25.152 28.8083C25.152 29.4612 24.6198 29.9936 23.9664 29.9936H8.16592C7.51229 29.9936 6.98062 29.4612 6.97969 28.795L5.40091 19.6433C5.40069 18.9905 5.93212 18.4587 6.58598 18.4587L6.58604 18.4589Z" fill="#202020"/>
<path d="M16.0662 24.6379C16.3803 24.6379 16.6344 24.3842 16.6344 24.0692C16.6344 23.7567 16.3803 23.502 16.0662 23.502C15.7524 23.502 15.498 23.7567 15.498 24.0692C15.4983 24.3842 15.7526 24.6379 16.0662 24.6379Z" fill="#202020"/>
<path d="M10.5112 10.97C10.6496 10.97 10.7802 10.8881 10.8965 10.747C11.1707 11.0629 11.519 11.3368 11.9402 11.5515C11.9887 11.5763 12.0414 11.5939 12.091 11.6169C12.864 13.6642 14.3536 15.0528 16.0675 15.0528C18.3576 15.0528 20.2468 12.5742 20.5575 9.35514C20.6604 10.2857 21.0013 10.9704 21.4071 10.9704C21.8942 10.9704 22.2892 9.98557 22.2892 8.77112C22.2892 7.73803 22.0028 6.87378 21.6177 6.63747C20.8326 3.92032 18.5948 1.95215 15.9595 1.95215C13.3235 1.95215 11.0855 3.92032 10.2999 6.63747C9.91525 6.87377 9.62891 7.73797 9.62891 8.77158C9.62913 9.98488 10.0244 10.9699 10.5112 10.9699L10.5112 10.97ZM20.0293 9.17433C19.8104 12.0877 18.1207 14.3545 16.0673 14.3545C14.7179 14.3545 13.5281 13.3721 12.8068 11.8735C13.2192 11.9831 13.6537 12.0451 14.1023 12.0451C14.2178 12.0451 14.3343 12.0376 14.4511 12.03C14.6004 12.2318 14.8531 12.3454 15.1174 12.2998C15.4908 12.2351 15.7406 11.8802 15.6764 11.5073C15.6116 11.134 15.2567 10.8841 14.8838 10.9488C14.6485 10.9897 14.4629 11.1457 14.3734 11.3486C13.6949 11.3874 13.0418 11.2823 12.4745 11.0413C12.2991 10.5053 12.1741 9.92675 12.1175 9.31555C12.2952 9.36019 12.5135 9.4461 12.7507 9.61204C12.7507 9.61204 12.2995 6.93501 13.2517 6.55936C13.2517 6.55936 16.4065 8.09346 18.528 6.55936C18.528 6.55936 19.787 8.55142 19.4337 9.33423L20.0742 8.59829C20.0711 8.794 20.0567 8.98633 20.0294 9.17437L20.0293 9.17433ZM15.9596 2.97972C18.2602 2.97972 20.1926 4.84099 20.7357 7.34602C20.6807 7.50701 20.6345 7.68739 20.6002 7.88332C20.5934 7.81861 20.5885 7.75367 20.5792 7.69009C20.2458 5.38304 18.3525 3.61603 16.0676 3.61603C13.7819 3.61603 11.8884 5.38443 11.5549 7.69165C11.5207 7.92952 11.5028 8.17326 11.5028 8.42084C11.5028 8.52207 11.5067 8.62128 11.5123 8.72071C11.5207 8.86547 11.5346 9.00909 11.5549 9.15001C11.5585 9.19308 11.5617 9.23592 11.5655 9.27876C11.6079 9.75586 11.6884 10.2145 11.7964 10.6539C11.563 10.4771 11.3714 10.2751 11.2269 10.0516C11.331 9.69066 11.393 9.24897 11.393 8.77029C11.393 8.22668 11.3135 7.73016 11.1829 7.34644C11.7252 4.841 13.6581 2.97974 15.9595 2.97974L15.9596 2.97972Z" fill="#202020"/>
</svg>
