<svg width="28" height="28" viewBox="0 0 28 28" fill="none" xmlns="http://www.w3.org/2000/svg">
<path d="M19.2711 14.5313C19.2628 13.0018 19.9546 11.8475 21.3548 10.9973C20.5714 9.87627 19.3878 9.25949 17.825 9.13864C16.3456 9.02195 14.7286 10.0013 14.1369 10.0013C13.5118 10.0013 12.0782 9.18031 10.953 9.18031C8.62753 9.21782 6.15625 11.0348 6.15625 14.7313C6.15625 15.8232 6.35629 16.9512 6.75636 18.1153C7.28979 19.6447 9.21514 23.3954 11.2238 23.3329C12.274 23.3079 13.0158 22.5869 14.3827 22.5869C15.708 22.5869 16.3956 23.3329 17.5667 23.3329C19.592 23.3037 21.334 19.8948 21.8424 18.3612C19.1253 17.0818 19.2711 14.6105 19.2711 14.5313V14.5313ZM16.9124 7.68838C18.0501 6.33813 17.9459 5.10874 17.9126 4.66699C16.9082 4.72534 15.7455 5.35045 15.0829 6.12142C14.3536 6.94657 13.9243 7.96759 14.016 9.1178C15.1037 9.20115 16.0956 8.64272 16.9124 7.68838V7.68838Z" fill="black"/>
</svg>
