<svg width="172" height="137" viewBox="0 0 172 137" fill="none" xmlns="http://www.w3.org/2000/svg">
<path d="M99.3851 1.82045C100.388 0.817445 102.023 0.817444 103.026 1.82045C104.035 2.82965 104.029 4.45798 103.026 5.46098C102.023 6.46399 100.388 6.46399 99.3851 5.46099C98.3821 4.45798 98.3821 2.82345 99.3851 1.82045Z" fill="#C0C0C0"/>
<path d="M110.276 12.7111C111.279 11.7081 112.913 11.7081 113.916 12.7111C114.926 13.7203 114.919 15.3486 113.916 16.3516C112.913 17.3546 111.279 17.3546 110.276 16.3516C109.273 15.3486 109.273 13.7141 110.276 12.7111Z" fill="#C0C0C0"/>
<path d="M121.166 23.6018C122.169 22.5987 123.804 22.5987 124.807 23.6018C125.816 24.6109 125.816 26.2455 124.807 27.2423C123.804 28.2453 122.169 28.2453 121.166 27.2423C120.163 26.2393 120.163 24.6048 121.166 23.6018Z" fill="#C0C0C0"/>
<path d="M132.063 34.4986C133.066 33.4956 134.701 33.4956 135.704 34.4986C136.707 35.5016 136.707 37.1361 135.704 38.1391C134.701 39.1421 133.066 39.1421 132.063 38.1391C131.06 37.1361 131.06 35.5016 132.063 34.4986Z" fill="#C0C0C0"/>
<path d="M142.954 45.3892C143.957 44.3862 145.591 44.3862 146.594 45.3892C147.597 46.3923 147.597 48.0268 146.594 49.0298C145.591 50.0328 143.957 50.0328 142.954 49.0298C141.951 48.0268 141.951 46.3923 142.954 45.3892Z" fill="#C0C0C0"/>
<path d="M88.4883 12.7173C89.4913 11.7143 91.1258 11.7143 92.1288 12.7173C93.138 13.7265 93.138 15.3486 92.1288 16.3578C91.1258 17.3608 89.4913 17.3608 88.4883 16.3578C87.4853 15.3548 87.4853 13.7203 88.4883 12.7173Z" fill="#C0C0C0"/>
<path d="M99.3789 23.6079C100.382 22.6049 102.016 22.6049 103.019 23.6079C104.029 24.6171 104.029 26.2393 103.019 27.2485C102.016 28.2515 100.382 28.2515 99.3789 27.2485C98.3759 26.2455 98.3759 24.6109 99.3789 23.6079Z" fill="#C0C0C0"/>
<path d="M110.27 34.4986C111.273 33.4956 112.907 33.4956 113.91 34.4986C114.919 35.5078 114.926 37.1361 113.91 38.1391C112.907 39.1421 111.273 39.1421 110.27 38.1391C109.267 37.1361 109.267 35.5016 110.27 34.4986Z" fill="#C0C0C0"/>
<path d="M121.166 45.3954C122.169 44.3924 123.804 44.3924 124.807 45.3954C125.81 46.3984 125.816 48.0268 124.807 49.036C123.804 50.039 122.169 50.039 121.166 49.036C120.163 48.033 120.163 46.3984 121.166 45.3954Z" fill="#C0C0C0"/>
<path d="M132.057 56.2861C133.06 55.2831 134.695 55.2831 135.698 56.2861C136.701 57.2891 136.707 58.9174 135.698 59.9266C134.695 60.9296 133.06 60.9296 132.057 59.9266C131.054 58.9236 131.054 57.2891 132.057 56.2861Z" fill="#C0C0C0"/>
<path d="M77.5976 23.6079C78.6006 22.6049 80.2352 22.6049 81.2382 23.6079C82.2474 24.6171 82.2474 26.2393 81.2382 27.2485C80.2352 28.2515 78.6007 28.2515 77.5977 27.2484C76.5947 26.2454 76.5946 24.611 77.5976 23.6079Z" fill="#C0C0C0"/>
<path d="M88.4883 34.4986C89.4913 33.4956 91.1258 33.4956 92.1288 34.4986C93.138 35.5078 93.138 37.1299 92.1288 38.1391C91.1258 39.1421 89.4913 39.1421 88.4883 38.1391C87.4853 37.1361 87.4853 35.5016 88.4883 34.4986Z" fill="#C0C0C0"/>
<path d="M99.3789 45.3892C100.382 44.3862 102.016 44.3862 103.019 45.3893C104.029 46.3984 104.035 48.0268 103.019 49.0298C102.016 50.0328 100.382 50.0328 99.379 49.0298C98.376 48.0267 98.3759 46.3923 99.3789 45.3892Z" fill="#C0C0C0"/>
<path d="M110.276 56.2861C111.279 55.2831 112.913 55.2831 113.916 56.2861C114.919 57.2891 114.926 58.9174 113.916 59.9266C112.913 60.9296 111.279 60.9296 110.276 59.9266C109.273 58.9236 109.273 57.2891 110.276 56.2861Z" fill="#C0C0C0"/>
<path d="M121.166 67.1767C122.169 66.1737 123.804 66.1737 124.807 67.1767C125.81 68.1797 125.816 69.8081 124.807 70.8173C123.804 71.8203 122.169 71.8203 121.166 70.8172C120.163 69.8142 120.163 68.1798 121.166 67.1767Z" fill="#C0C0C0"/>
<path d="M66.707 34.4986C67.71 33.4956 69.3445 33.4956 70.3475 34.4986C71.3567 35.5078 71.3505 37.1361 70.3475 38.1391C69.3445 39.1421 67.71 39.1421 66.707 38.1391C65.704 37.1361 65.704 35.5016 66.707 34.4986Z" fill="#C0C0C0"/>
<path d="M77.5976 45.3892C78.6006 44.3862 80.2352 44.3862 81.2382 45.3892C82.2474 46.3984 82.2412 48.0268 81.2382 49.0298C80.2352 50.0328 78.6006 50.0328 77.5976 49.0298C76.5946 48.0268 76.5946 46.3922 77.5976 45.3892Z" fill="#C0C0C0"/>
<path d="M88.4883 56.2799C89.4913 55.2769 91.1258 55.2769 92.1288 56.2799C93.138 57.2891 93.1318 58.9174 92.1288 59.9204C91.1258 60.9234 89.4913 60.9234 88.4883 59.9204C87.4853 58.9174 87.4853 57.2829 88.4883 56.2799Z" fill="#C0C0C0"/>
<path d="M99.3851 67.1767C100.388 66.1737 102.023 66.1737 103.026 67.1767C104.029 68.1797 104.029 69.8143 103.026 70.8173C102.023 71.8203 100.388 71.8203 99.3851 70.8173C98.3821 69.8143 98.3821 68.1797 99.3851 67.1767Z" fill="#C0C0C0"/>
<path d="M110.276 78.0674C111.279 77.0644 112.913 77.0644 113.916 78.0674C114.919 79.0704 114.919 80.7049 113.916 81.7079C112.913 82.7109 111.279 82.7109 110.276 81.7079C109.273 80.7049 109.273 79.0704 110.276 78.0674Z" fill="#C0C0C0"/>
<path d="M156.498 55.2921C155.495 54.2891 153.861 54.2891 152.858 55.2921C151.855 56.2951 151.855 57.9297 152.858 58.9327C153.861 59.9357 155.495 59.9357 156.498 58.9327C157.501 57.9297 157.508 56.3013 156.498 55.2921ZM167.389 66.1828C166.386 65.1798 164.751 65.1798 163.748 66.1828C162.745 67.1858 162.745 68.8203 163.748 69.8233C164.751 70.8263 166.386 70.8263 167.389 69.8233C168.392 68.8203 168.398 67.192 167.389 66.1828ZM178.28 77.0734C177.277 76.0704 175.642 76.0704 174.639 77.0734C173.636 78.0764 173.636 79.711 174.639 80.714C175.642 81.717 177.277 81.717 178.28 80.714C179.289 79.7172 179.289 78.0826 178.28 77.0734ZM189.176 87.9703C188.173 86.9673 186.539 86.9673 185.536 87.9703C184.533 88.9733 184.533 90.6078 185.536 91.6108C186.539 92.6138 188.173 92.6138 189.176 91.6108C190.179 90.6078 190.179 88.9733 189.176 87.9703ZM200.067 98.8609C199.064 97.8579 197.43 97.8579 196.427 98.8609C195.424 99.8639 195.424 101.498 196.427 102.501C197.43 103.504 199.064 103.504 200.067 102.501C201.07 101.498 201.07 99.8639 200.067 98.8609ZM145.601 66.189C144.598 65.186 142.964 65.186 141.961 66.189C140.958 67.192 140.958 68.8265 141.961 69.8295C142.964 70.8325 144.598 70.8325 145.601 69.8295C146.611 68.8203 146.611 67.1982 145.601 66.189ZM156.492 77.0796C155.489 76.0766 153.855 76.0766 152.852 77.0796C151.849 78.0826 151.849 79.7171 152.852 80.7201C153.855 81.7232 155.489 81.7232 156.492 80.7201C157.501 79.711 157.501 78.0888 156.492 77.0796ZM167.383 87.9703C166.38 86.9673 164.745 86.9673 163.742 87.9703C162.739 88.9733 162.739 90.6078 163.742 91.6108C164.745 92.6138 166.38 92.6138 167.383 91.6108C168.398 90.6078 168.392 88.9795 167.383 87.9703ZM178.28 98.8671C177.277 97.8641 175.642 97.8641 174.639 98.8671C173.636 99.8701 173.636 101.505 174.639 102.508C175.642 103.511 177.277 103.511 178.28 102.508C179.289 101.498 179.283 99.8701 178.28 98.8671ZM189.17 109.758C188.167 108.755 186.533 108.755 185.53 109.758C184.527 110.761 184.527 112.395 185.53 113.398C186.533 114.401 188.167 114.401 189.17 113.398C190.179 112.389 190.173 110.761 189.17 109.758ZM134.711 77.0796C133.708 76.0766 132.073 76.0766 131.07 77.0796C130.067 78.0826 130.067 79.7171 131.07 80.7201C132.073 81.7231 133.708 81.7232 134.711 80.7202C135.72 79.711 135.72 78.0888 134.711 77.0796ZM145.601 87.9703C144.598 86.9673 142.964 86.9673 141.961 87.9703C140.958 88.9733 140.958 90.6078 141.961 91.6108C142.964 92.6138 144.598 92.6138 145.601 91.6108C146.611 90.6016 146.611 88.9795 145.601 87.9703ZM156.492 98.8609C155.489 97.8579 153.855 97.8579 152.852 98.8609C151.849 99.8639 151.849 101.498 152.852 102.501C153.855 103.504 155.489 103.504 156.492 102.501C157.508 101.498 157.501 99.8701 156.492 98.8609ZM167.389 109.758C166.386 108.755 164.751 108.755 163.748 109.758C162.745 110.761 162.745 112.395 163.748 113.398C164.751 114.401 166.386 114.401 167.389 113.398C168.398 112.389 168.392 110.761 167.389 109.758ZM178.28 120.648C177.277 119.645 175.642 119.645 174.639 120.648C173.636 121.651 173.636 123.286 174.639 124.289C175.642 125.292 177.277 125.292 178.28 124.289C179.289 123.28 179.283 121.651 178.28 120.648ZM123.82 87.9703C122.817 86.9673 121.183 86.9673 120.18 87.9703C119.177 88.9733 119.177 90.6078 120.18 91.6108C121.183 92.6138 122.817 92.6138 123.82 91.6108C124.823 90.6078 124.829 88.9795 123.82 87.9703ZM134.711 98.8609C133.708 97.8579 132.073 97.8579 131.07 98.8609C130.067 99.8639 130.067 101.498 131.07 102.501C132.073 103.504 133.708 103.504 134.711 102.501C135.714 101.498 135.72 99.8701 134.711 98.8609ZM145.601 109.752C144.598 108.749 142.964 108.749 141.961 109.752C140.958 110.755 140.958 112.389 141.961 113.392C142.964 114.395 144.598 114.395 145.601 113.392C146.604 112.389 146.611 110.761 145.601 109.752ZM156.498 120.648C155.495 119.645 153.861 119.645 152.858 120.648C151.855 121.651 151.855 123.286 152.858 124.289C153.861 125.292 155.495 125.292 156.498 124.289C157.501 123.286 157.501 121.651 156.498 120.648ZM167.389 131.539C166.386 130.536 164.751 130.536 163.748 131.539C162.745 132.542 162.745 134.177 163.748 135.18C164.751 136.183 166.386 136.183 167.389 135.18C168.392 134.177 168.392 132.542 167.389 131.539Z" fill="#C0C0C0"/>
<path d="M135.971 34.4984C136.974 35.5014 136.974 37.1359 135.971 38.1389C134.962 39.1481 133.334 39.1419 132.331 38.1389C131.328 37.1359 131.328 35.5014 132.331 34.4984C133.334 33.4954 134.968 33.4954 135.971 34.4984Z" fill="#C0C0C0"/>
<path d="M125.08 45.3891C126.083 46.3921 126.083 48.0266 125.08 49.0296C124.071 50.0388 122.443 50.0326 121.44 49.0296C120.437 48.0266 120.437 46.3921 121.44 45.389C122.443 44.386 124.077 44.386 125.08 45.3891Z" fill="#C0C0C0"/>
<path d="M114.19 56.2797C115.193 57.2827 115.193 58.9172 114.19 59.9202C113.181 60.9294 111.546 60.9294 110.549 59.9202C109.546 58.9172 109.546 57.2827 110.549 56.2797C111.552 55.2767 113.187 55.2767 114.19 56.2797Z" fill="#C0C0C0"/>
<path d="M103.293 67.1765C104.296 68.1796 104.296 69.8141 103.293 70.8171C102.29 71.8201 100.655 71.8201 99.6524 70.8171C98.6494 69.8141 98.6494 68.1795 99.6524 67.1765C100.655 66.1735 102.29 66.1735 103.293 67.1765Z" fill="#C0C0C0"/>
<path d="M92.4023 78.0672C93.4053 79.0702 93.4053 80.7047 92.4023 81.7077C91.3993 82.7107 89.7647 82.7107 88.7617 81.7077C87.7587 80.7047 87.7587 79.0702 88.7617 78.0672C89.7647 77.0642 91.3992 77.0642 92.4023 78.0672Z" fill="#C0C0C0"/>
<path d="M125.074 23.6016C126.077 24.6046 126.077 26.2391 125.074 27.2421C124.065 28.2513 122.443 28.2513 121.434 27.2421C120.431 26.2391 120.431 24.6046 121.434 23.6016C122.437 22.5986 124.071 22.5986 125.074 23.6016Z" fill="#C0C0C0"/>
<path d="M114.184 34.4922C115.187 35.4952 115.187 37.1298 114.184 38.1328C113.174 39.142 111.552 39.142 110.543 38.1328C109.54 37.1298 109.54 35.4952 110.543 34.4922C111.546 33.4892 113.181 33.4892 114.184 34.4922Z" fill="#C0C0C0"/>
<path d="M103.293 45.3829C104.296 46.3859 104.296 48.0204 103.293 49.0234C102.284 50.0326 100.655 50.0388 99.6524 49.0234C98.6494 48.0204 98.6494 46.3859 99.6524 45.3829C100.655 44.3799 102.29 44.3799 103.293 45.3829Z" fill="#C0C0C0"/>
<path d="M92.3961 56.2797C93.3991 57.2827 93.3991 58.9173 92.3961 59.9203C91.3931 60.9233 89.7647 60.9295 88.7555 59.9203C87.7525 58.9173 87.7525 57.2827 88.7555 56.2797C89.7585 55.2767 91.3931 55.2767 92.3961 56.2797Z" fill="#C0C0C0"/>
<path d="M81.5054 67.1704C82.5084 68.1734 82.5084 69.8079 81.5054 70.8109C80.5024 71.8139 78.8741 71.8201 77.8649 70.8109C76.8619 69.8079 76.8619 68.1734 77.8649 67.1704C78.8679 66.1674 80.5024 66.1674 81.5054 67.1704Z" fill="#C0C0C0"/>
<path d="M114.184 12.7109C115.187 13.7139 115.187 15.3484 114.184 16.3514C113.174 17.3606 111.552 17.3606 110.543 16.3514C109.54 15.3484 109.54 13.7139 110.543 12.7109C111.546 11.7079 113.181 11.7079 114.184 12.7109Z" fill="#C0C0C0"/>
<path d="M103.293 23.6016C104.296 24.6046 104.296 26.2391 103.293 27.2421C102.284 28.2513 100.662 28.2513 99.6524 27.2421C98.6494 26.2391 98.6494 24.6046 99.6524 23.6016C100.655 22.5986 102.29 22.5986 103.293 23.6016Z" fill="#C0C0C0"/>
<path d="M92.4023 34.4922C93.4053 35.4952 93.4053 37.1297 92.4023 38.1327C91.3931 39.1419 89.7647 39.1481 88.7617 38.1327C87.7587 37.1297 87.7587 35.4952 88.7618 34.4922C89.7648 33.4892 91.3992 33.4892 92.4023 34.4922Z" fill="#C0C0C0"/>
<path d="M81.5054 45.3891C82.5084 46.3921 82.5084 48.0266 81.5054 49.0296C80.5024 50.0326 78.8741 50.0388 77.8649 49.0296C76.8619 48.0266 76.8619 46.3921 77.8649 45.3891C78.8679 44.3861 80.5024 44.386 81.5054 45.3891Z" fill="#C0C0C0"/>
<path d="M70.6148 56.2797C71.6178 57.2827 71.6178 58.9172 70.6148 59.9202C69.6118 60.9232 67.9834 60.9294 66.9742 59.9202C65.9712 58.9172 65.9713 57.2827 66.9743 56.2797C67.9773 55.2767 69.6118 55.2767 70.6148 56.2797Z" fill="#C0C0C0"/>
<path d="M103.293 1.82027C104.296 2.82327 104.296 4.4578 103.293 5.46081C102.284 6.47001 100.655 6.46381 99.6524 5.4608C98.6494 4.4578 98.6494 2.82327 99.6524 1.82027C100.655 0.817265 102.29 0.817265 103.293 1.82027Z" fill="#C0C0C0"/>
<path d="M92.4023 12.7109C93.4053 13.7139 93.4053 15.3485 92.4023 16.3515C91.3931 17.3607 89.7647 17.3545 88.7617 16.3515C87.7587 15.3485 87.7587 13.7139 88.7617 12.7109C89.7647 11.7079 91.3993 11.7079 92.4023 12.7109Z" fill="#C0C0C0"/>
<path d="M81.5116 23.6016C82.5146 24.6046 82.5146 26.2391 81.5116 27.2421C80.5024 28.2513 78.8741 28.2451 77.8711 27.2421C76.8681 26.2391 76.8681 24.6046 77.8711 23.6016C78.8741 22.5986 80.5086 22.5986 81.5116 23.6016Z" fill="#C0C0C0"/>
<path d="M70.6148 34.4984C71.6178 35.5014 71.6178 37.136 70.6148 38.139C69.6118 39.142 67.9772 39.142 66.9742 38.139C65.9712 37.136 65.9712 35.5014 66.9742 34.4984C67.9772 33.4954 69.6118 33.4954 70.6148 34.4984Z" fill="#C0C0C0"/>
<path d="M59.7241 45.3891C60.7271 46.3921 60.7271 48.0266 59.7241 49.0296C58.7211 50.0326 57.0866 50.0326 56.0836 49.0296C55.0806 48.0266 55.0806 46.3921 56.0836 45.3891C57.0866 44.3861 58.7211 44.3861 59.7241 45.3891Z" fill="#C0C0C0"/>
<path d="M82.4984 91.6106C83.5014 90.6076 83.5014 88.9731 82.4984 87.9701C81.4954 86.9671 79.8609 86.9671 78.8579 87.9701C77.8549 88.9731 77.8549 90.6076 78.8579 91.6106C79.8609 92.6136 81.4892 92.6198 82.4984 91.6106ZM71.6077 102.501C72.6107 101.498 72.6107 99.8637 71.6077 98.8607C70.6047 97.8577 68.9702 97.8577 67.9672 98.8607C66.9642 99.8637 66.9642 101.498 67.9672 102.501C68.9702 103.504 70.5985 103.51 71.6077 102.501ZM60.7171 113.392C61.7201 112.389 61.7201 110.754 60.7171 109.751C59.7141 108.748 58.0796 108.748 57.0766 109.751C56.0735 110.754 56.0736 112.389 57.0766 113.392C58.0734 114.401 59.7079 114.401 60.7171 113.392ZM49.8202 124.289C50.8233 123.286 50.8233 121.651 49.8202 120.648C48.8172 119.645 47.1827 119.645 46.1797 120.648C45.1767 121.651 45.1767 123.286 46.1797 124.289C47.1827 125.292 48.8172 125.292 49.8202 124.289ZM38.9296 135.179C39.9326 134.176 39.9326 132.542 38.9296 131.539C37.9266 130.536 36.2921 130.536 35.2891 131.539C34.2861 132.542 34.2861 134.176 35.2891 135.179C36.2921 136.182 37.9266 136.182 38.9296 135.179ZM71.6016 80.7138C72.6046 79.7108 72.6046 78.0763 71.6016 77.0732C70.5986 76.0702 68.964 76.0702 67.961 77.0732C66.958 78.0763 66.958 79.7108 67.961 80.7138C68.9702 81.723 70.5924 81.723 71.6016 80.7138ZM60.7109 91.6044C61.7139 90.6014 61.7139 88.9669 60.7109 87.9639C59.7079 86.9609 58.0734 86.9609 57.0704 87.9639C56.0674 88.9669 56.0674 90.6014 57.0704 91.6044C58.0796 92.6136 59.7017 92.6136 60.7109 91.6044ZM49.8203 102.495C50.8233 101.492 50.8233 99.8576 49.8203 98.8546C48.8173 97.8515 47.1827 97.8515 46.1797 98.8546C45.1767 99.8576 45.1767 101.492 46.1797 102.495C47.1827 103.51 48.8111 103.504 49.8203 102.495ZM38.9234 113.392C39.9264 112.389 39.9264 110.754 38.9234 109.751C37.9204 108.748 36.2859 108.748 35.2829 109.751C34.2799 110.754 34.2799 112.389 35.2829 113.392C36.2921 114.401 37.9204 114.395 38.9234 113.392ZM28.0328 124.283C29.0358 123.28 29.0358 121.645 28.0328 120.642C27.0298 119.639 25.3952 119.639 24.3922 120.642C23.3892 121.645 23.3892 123.28 24.3922 124.283C25.4014 125.292 27.0298 125.286 28.0328 124.283ZM60.7109 69.8231C61.7139 68.8201 61.7139 67.1856 60.7109 66.1826C59.7079 65.1796 58.0734 65.1796 57.0704 66.1826C56.0674 67.1856 56.0674 68.8201 57.0704 69.8231C58.0796 70.8323 59.7017 70.8323 60.7109 69.8231ZM49.8202 80.7138C50.8233 79.7108 50.8232 78.0762 49.8202 77.0732C48.8172 76.0702 47.1828 76.0703 46.1797 77.0733C45.1767 78.0763 45.1767 79.7108 46.1797 80.7138C47.1889 81.723 48.8111 81.723 49.8202 80.7138ZM38.9296 91.6044C39.9326 90.6014 39.9326 88.9669 38.9296 87.9639C37.9266 86.9609 36.2921 86.9609 35.2891 87.9639C34.2861 88.9669 34.2861 90.6014 35.2891 91.6044C36.2921 92.6198 37.9204 92.6136 38.9296 91.6044ZM28.0328 102.501C29.0358 101.498 29.0358 99.8637 28.0328 98.8607C27.0297 97.8577 25.3953 97.8578 24.3923 98.8608C23.3892 99.8638 23.3892 101.498 24.3922 102.501C25.4014 103.51 27.0297 103.504 28.0328 102.501ZM17.1421 113.392C18.1451 112.389 18.1451 110.754 17.1421 109.751C16.1391 108.748 14.5046 108.748 13.5016 109.751C12.4986 110.754 12.4986 112.389 13.5016 113.392C14.5108 114.401 16.1391 114.395 17.1421 113.392ZM49.8203 58.9325C50.8233 57.9295 50.8233 56.295 49.8203 55.2919C48.8173 54.2889 47.1827 54.2889 46.1797 55.2919C45.1767 56.295 45.1767 57.9295 46.1797 58.9325C47.1827 59.9355 48.8111 59.9417 49.8203 58.9325ZM38.9296 69.8231C39.9326 68.8201 39.9326 67.1856 38.9296 66.1826C37.9266 65.1796 36.2921 65.1796 35.2891 66.1826C34.2861 67.1856 34.2861 68.8201 35.2891 69.8231C36.2921 70.8261 37.9204 70.8323 38.9296 69.8231ZM28.039 80.7138C29.042 79.7108 29.042 78.0763 28.039 77.0733C27.036 76.0703 25.4014 76.0703 24.3984 77.0733C23.3954 78.0763 23.3954 79.7108 24.3984 80.7138C25.4014 81.7168 27.0298 81.723 28.039 80.7138ZM17.1421 91.6106C18.1451 90.6076 18.1451 88.9731 17.1421 87.9701C16.1391 86.9671 14.5046 86.9671 13.5016 87.9701C12.4986 88.9731 12.4986 90.6076 13.5016 91.6106C14.5046 92.6136 16.1391 92.6136 17.1421 91.6106ZM6.25147 102.501C7.25448 101.498 7.25447 99.8638 6.25147 98.8607C5.24846 97.8577 3.61394 97.8577 2.61093 98.8607C1.60793 99.8638 1.60793 101.498 2.61093 102.501C3.61394 103.504 5.24847 103.504 6.25147 102.501Z" fill="#C0C0C0"/>
</svg>
