<svg width="182" height="124" viewBox="0 0 182 124" fill="none" xmlns="http://www.w3.org/2000/svg">
<g opacity="0.5">
<path d="M89.5336 1.63874C90.4364 0.73596 91.9076 0.735959 92.8104 1.63874C93.7187 2.54709 93.7132 4.01272 92.8104 4.9155C91.9076 5.81828 90.4364 5.81829 89.5336 4.91551C88.6308 4.01273 88.6308 2.54152 89.5336 1.63874Z" fill="#C0C0C0"/>
<path d="M99.336 11.4412C100.239 10.5384 101.71 10.5384 102.613 11.4412C103.521 12.3495 103.516 13.8151 102.613 14.7179C101.71 15.6207 100.239 15.6207 99.336 14.7179C98.4333 13.8151 98.4333 12.3439 99.336 11.4412Z" fill="#C0C0C0"/>
<path d="M109.138 21.2436C110.041 20.3408 111.512 20.3408 112.415 21.2436C113.324 22.1519 113.324 23.6231 112.415 24.5203C111.512 25.4231 110.041 25.4231 109.138 24.5204C108.236 23.6176 108.236 22.1464 109.138 21.2436Z" fill="#C0C0C0"/>
<path d="M118.946 31.0516C119.849 30.1488 121.32 30.1488 122.223 31.0516C123.126 31.9544 123.126 33.4256 122.223 34.3283C121.32 35.2311 119.849 35.2311 118.946 34.3283C118.044 33.4256 118.044 31.9544 118.946 31.0516Z" fill="#C0C0C0"/>
<path d="M128.749 40.854C129.652 39.9512 131.123 39.9512 132.026 40.854C132.928 41.7568 132.928 43.228 132.026 44.1308C131.123 45.0335 129.652 45.0335 128.749 44.1308C127.846 43.228 127.846 41.7568 128.749 40.854Z" fill="#C0C0C0"/>
<path d="M79.7256 11.4467C80.6284 10.5439 82.0996 10.5439 83.0024 11.4467C83.9108 12.3551 83.9108 13.8151 83.0024 14.7235C82.0996 15.6263 80.6284 15.6263 79.7256 14.7235C78.8229 13.8207 78.8229 12.3495 79.7256 11.4467Z" fill="#C0C0C0"/>
<path d="M89.5281 21.2491C90.4308 20.3464 91.902 20.3464 92.8048 21.2491C93.7132 22.1575 93.7132 23.6176 92.8048 24.5259C91.902 25.4287 90.4308 25.4287 89.5281 24.5259C88.6253 23.6231 88.6253 22.1519 89.5281 21.2491Z" fill="#C0C0C0"/>
<path d="M99.3305 31.0516C100.233 30.1488 101.704 30.1488 102.607 31.0516C103.516 31.9599 103.521 33.4255 102.607 34.3283C101.704 35.2311 100.233 35.2311 99.3305 34.3283C98.4277 33.4255 98.4277 31.9543 99.3305 31.0516Z" fill="#C0C0C0"/>
<path d="M109.138 40.8596C110.041 39.9568 111.512 39.9568 112.415 40.8596C113.318 41.7623 113.324 43.228 112.415 44.1363C111.512 45.0391 110.041 45.0391 109.138 44.1363C108.236 43.2335 108.236 41.7623 109.138 40.8596Z" fill="#C0C0C0"/>
<path d="M118.941 50.662C119.844 49.7592 121.315 49.7592 122.218 50.662C123.12 51.5648 123.126 53.0304 122.218 53.9387C121.315 54.8415 119.844 54.8415 118.941 53.9387C118.038 53.036 118.038 51.5648 118.941 50.662Z" fill="#C0C0C0"/>
<path d="M69.9232 21.2492C70.826 20.3464 72.2972 20.3464 73.2 21.2492C74.1083 22.1575 74.1083 23.6176 73.2 24.5259C72.2972 25.4287 70.826 25.4287 69.9232 24.5259C69.0205 23.6231 69.0204 22.1519 69.9232 21.2492Z" fill="#C0C0C0"/>
<path d="M79.7256 31.0516C80.6284 30.1488 82.0996 30.1488 83.0024 31.0516C83.9107 31.9599 83.9107 33.42 83.0024 34.3283C82.0996 35.2311 80.6284 35.2311 79.7257 34.3283C78.8229 33.4255 78.8228 31.9544 79.7256 31.0516Z" fill="#C0C0C0"/>
<path d="M89.528 40.854C90.4308 39.9512 91.902 39.9512 92.8048 40.854C93.7132 41.7624 93.7187 43.228 92.8048 44.1308C91.902 45.0335 90.4309 45.0335 89.5281 44.1307C88.6253 43.228 88.6253 41.7568 89.528 40.854Z" fill="#C0C0C0"/>
<path d="M99.336 50.662C100.239 49.7592 101.71 49.7592 102.613 50.662C103.516 51.5648 103.521 53.0304 102.613 53.9388C101.71 54.8415 100.239 54.8415 99.3361 53.9387C98.4333 53.0359 98.4333 51.5648 99.336 50.662Z" fill="#C0C0C0"/>
<path d="M109.138 60.4644C110.041 59.5616 111.512 59.5616 112.415 60.4644C113.318 61.3672 113.324 62.8328 112.415 63.7412C111.512 64.644 110.041 64.6439 109.138 63.7411C108.236 62.8384 108.236 61.3672 109.138 60.4644Z" fill="#C0C0C0"/>
<path d="M60.1208 31.0516C61.0236 30.1488 62.4948 30.1488 63.3976 31.0516C64.3059 31.9599 64.3003 33.4255 63.3976 34.3283C62.4948 35.2311 61.0236 35.2311 60.1208 34.3283C59.218 33.4255 59.218 31.9543 60.1208 31.0516Z" fill="#C0C0C0"/>
<path d="M69.9232 40.854C70.826 39.9512 72.2972 39.9512 73.2 40.854C74.1083 41.7623 74.1028 43.228 73.2 44.1307C72.2972 45.0335 70.826 45.0335 69.9232 44.1307C69.0204 43.228 69.0204 41.7568 69.9232 40.854Z" fill="#C0C0C0"/>
<path d="M79.7256 50.6564C80.6284 49.7536 82.0996 49.7536 83.0024 50.6564C83.9108 51.5648 83.9052 53.0304 83.0024 53.9332C82.0996 54.8359 80.6284 54.8359 79.7256 53.9332C78.8229 53.0304 78.8229 51.5592 79.7256 50.6564Z" fill="#C0C0C0"/>
<path d="M89.5336 60.4644C90.4364 59.5616 91.9076 59.5616 92.8104 60.4644C93.7132 61.3672 93.7132 62.8384 92.8104 63.7412C91.9076 64.6439 90.4364 64.6439 89.5336 63.7412C88.6309 62.8384 88.6309 61.3672 89.5336 60.4644Z" fill="#C0C0C0"/>
<path d="M99.3361 70.2668C100.239 69.364 101.71 69.364 102.613 70.2668C103.516 71.1696 103.516 72.6408 102.613 73.5436C101.71 74.4464 100.239 74.4464 99.3361 73.5436C98.4333 72.6408 98.4333 71.1696 99.3361 70.2668Z" fill="#C0C0C0"/>
<path d="M140.939 49.7672C140.037 48.8644 138.565 48.8644 137.663 49.7672C136.76 50.6699 136.76 52.1411 137.663 53.0439C138.565 53.9467 140.037 53.9467 140.939 53.0439C141.842 52.1411 141.848 50.6755 140.939 49.7672ZM150.742 59.5696C149.839 58.6668 148.368 58.6668 147.465 59.5696C146.562 60.4724 146.562 61.9436 147.465 62.8463C148.368 63.7491 149.839 63.7491 150.742 62.8463C151.644 61.9436 151.65 60.4779 150.742 59.5696ZM160.544 69.372C159.641 68.4692 158.17 68.4692 157.267 69.372C156.365 70.2748 156.365 71.746 157.267 72.6488C158.17 73.5515 159.641 73.5515 160.544 72.6488C161.452 71.7516 161.452 70.2804 160.544 69.372ZM170.352 79.18C169.449 78.2772 167.978 78.2772 167.075 79.18C166.173 80.0828 166.173 81.554 167.075 82.4568C167.978 83.3595 169.449 83.3595 170.352 82.4568C171.255 81.554 171.255 80.0828 170.352 79.18ZM180.155 88.9824C179.252 88.0796 177.781 88.0796 176.878 88.9824C175.975 89.8852 175.975 91.3564 176.878 92.2592C177.781 93.162 179.252 93.162 180.155 92.2592C181.057 91.3564 181.057 89.8852 180.155 88.9824ZM131.131 59.5751C130.229 58.6724 128.757 58.6724 127.855 59.5751C126.952 60.4779 126.952 61.9491 127.855 62.8519C128.757 63.7547 130.229 63.7547 131.131 62.8519C132.04 61.9435 132.04 60.4835 131.131 59.5751ZM140.934 69.3776C140.031 68.4748 138.56 68.4748 137.657 69.3776C136.754 70.2803 136.754 71.7515 137.657 72.6543C138.56 73.5571 140.031 73.5571 140.934 72.6543C141.842 71.746 141.842 70.2859 140.934 69.3776ZM150.736 79.18C149.833 78.2772 148.362 78.2772 147.459 79.18C146.557 80.0828 146.557 81.554 147.459 82.4567C148.362 83.3595 149.833 83.3595 150.736 82.4567C151.65 81.554 151.645 80.0883 150.736 79.18ZM160.544 88.988C159.641 88.0852 158.17 88.0852 157.267 88.988C156.365 89.8908 156.365 91.362 157.267 92.2647C158.17 93.1675 159.641 93.1675 160.544 92.2647C161.453 91.3564 161.447 89.8908 160.544 88.988ZM170.347 98.7904C169.444 97.8876 167.973 97.8876 167.07 98.7904C166.167 99.6932 166.167 101.164 167.07 102.067C167.973 102.97 169.444 102.97 170.347 102.067C171.255 101.159 171.249 99.6932 170.347 98.7904ZM121.329 69.3776C120.426 68.4748 118.955 68.4748 118.052 69.3776C117.149 70.2804 117.149 71.7515 118.052 72.6543C118.955 73.5571 120.426 73.5571 121.329 72.6543C122.237 71.746 122.237 70.2859 121.329 69.3776ZM131.131 79.18C130.229 78.2772 128.757 78.2772 127.855 79.18C126.952 80.0828 126.952 81.5539 127.855 82.4567C128.757 83.3595 130.229 83.3595 131.131 82.4568C132.04 81.5484 132.04 80.0883 131.131 79.18ZM140.934 88.9824C140.031 88.0796 138.56 88.0796 137.657 88.9824C136.754 89.8852 136.754 91.3564 137.657 92.2592C138.56 93.1619 140.031 93.162 140.934 92.2592C141.848 91.3564 141.842 89.8908 140.934 88.9824ZM150.742 98.7904C149.839 97.8876 148.368 97.8876 147.465 98.7904C146.562 99.6932 146.562 101.164 147.465 102.067C148.368 102.97 149.839 102.97 150.742 102.067C151.65 101.159 151.644 99.6932 150.742 98.7904ZM160.544 108.593C159.641 107.69 158.17 107.69 157.267 108.593C156.365 109.496 156.365 110.967 157.267 111.87C158.17 112.772 159.641 112.772 160.544 111.87C161.452 110.961 161.447 109.496 160.544 108.593ZM111.526 79.18C110.624 78.2772 109.152 78.2772 108.25 79.18C107.347 80.0828 107.347 81.554 108.25 82.4567C109.152 83.3595 110.624 83.3595 111.526 82.4567C112.429 81.554 112.435 80.0883 111.526 79.18ZM121.329 88.9824C120.426 88.0796 118.955 88.0796 118.052 88.9824C117.149 89.8852 117.149 91.3564 118.052 92.2592C118.955 93.1619 120.426 93.1619 121.329 92.2592C122.232 91.3564 122.237 89.8908 121.329 88.9824ZM131.131 98.7848C130.229 97.882 128.757 97.882 127.855 98.7848C126.952 99.6876 126.952 101.159 127.855 102.062C128.757 102.964 130.229 102.964 131.131 102.062C132.034 101.159 132.04 99.6932 131.131 98.7848ZM140.939 108.593C140.037 107.69 138.565 107.69 137.663 108.593C136.76 109.496 136.76 110.967 137.663 111.87C138.565 112.772 140.037 112.772 140.939 111.87C141.842 110.967 141.842 109.496 140.939 108.593ZM150.742 118.395C149.839 117.492 148.368 117.492 147.465 118.395C146.562 119.298 146.562 120.769 147.465 121.672C148.368 122.575 149.839 122.575 150.742 121.672C151.645 120.769 151.645 119.298 150.742 118.395Z" fill="#C0C0C0"/>
<path d="M122.463 31.0512C123.366 31.954 123.366 33.4252 122.463 34.328C121.555 35.2363 120.089 35.2307 119.187 34.328C118.284 33.4252 118.284 31.954 119.187 31.0512C120.089 30.1484 121.561 30.1484 122.463 31.0512Z" fill="#C0C0C0"/>
<path d="M112.661 40.8536C113.564 41.7564 113.564 43.2276 112.661 44.1304C111.753 45.0387 110.287 45.0332 109.384 44.1304C108.481 43.2276 108.481 41.7564 109.384 40.8536C110.287 39.9508 111.758 39.9508 112.661 40.8536Z" fill="#C0C0C0"/>
<path d="M102.858 50.656C103.761 51.5588 103.761 53.03 102.858 53.9328C101.95 54.8412 100.479 54.8412 99.5817 53.9328C98.6789 53.03 98.6789 51.5588 99.5817 50.656C100.484 49.7533 101.956 49.7533 102.858 50.656Z" fill="#C0C0C0"/>
<path d="M93.0505 60.464C93.9533 61.3668 93.9533 62.838 93.0505 63.7408C92.1477 64.6436 90.6765 64.6436 89.7737 63.7408C88.8709 62.838 88.8709 61.3668 89.7737 60.464C90.6765 59.5613 92.1477 59.5613 93.0505 60.464Z" fill="#C0C0C0"/>
<path d="M83.2481 70.2665C84.1508 71.1692 84.1508 72.6404 83.2481 73.5432C82.3453 74.446 80.8741 74.446 79.9713 73.5432C79.0685 72.6404 79.0685 71.1692 79.9713 70.2665C80.8741 69.3637 82.3453 69.3637 83.2481 70.2665Z" fill="#C0C0C0"/>
<path d="M112.655 21.2432C113.558 22.146 113.558 23.6172 112.655 24.52C111.747 25.4283 110.287 25.4283 109.379 24.52C108.476 23.6172 108.476 22.146 109.379 21.2432C110.281 20.3404 111.753 20.3404 112.655 21.2432Z" fill="#C0C0C0"/>
<path d="M102.853 31.0456C103.756 31.9484 103.756 33.4196 102.853 34.3224C101.945 35.2308 100.484 35.2308 99.5761 34.3224C98.6734 33.4196 98.6734 31.9484 99.5761 31.0456C100.479 30.1429 101.95 30.1429 102.853 31.0456Z" fill="#C0C0C0"/>
<path d="M93.0505 40.8481C93.9533 41.7508 93.9533 43.222 93.0505 44.1248C92.1421 45.0332 90.6765 45.0388 89.7737 44.1248C88.8709 43.222 88.8709 41.7508 89.7737 40.8481C90.6765 39.9453 92.1477 39.9453 93.0505 40.8481Z" fill="#C0C0C0"/>
<path d="M83.2425 50.6561C84.1453 51.5588 84.1453 53.03 83.2425 53.9328C82.3397 54.8356 80.8741 54.8412 79.9657 53.9328C79.0629 53.03 79.0629 51.5588 79.9657 50.6561C80.8685 49.7533 82.3397 49.7533 83.2425 50.6561Z" fill="#C0C0C0"/>
<path d="M73.4401 60.4585C74.3429 61.3613 74.3429 62.8325 73.4401 63.7352C72.5373 64.638 71.0717 64.6436 70.1633 63.7352C69.2605 62.8325 69.2605 61.3613 70.1633 60.4585C71.0661 59.5557 72.5373 59.5557 73.4401 60.4585Z" fill="#C0C0C0"/>
<path d="M102.853 11.4408C103.756 12.3436 103.756 13.8148 102.853 14.7175C101.945 15.6259 100.484 15.6259 99.5761 14.7175C98.6734 13.8148 98.6734 12.3436 99.5762 11.4408C100.479 10.538 101.95 10.538 102.853 11.4408Z" fill="#C0C0C0"/>
<path d="M93.0505 21.2432C93.9533 22.146 93.9533 23.6172 93.0505 24.52C92.1421 25.4283 90.6821 25.4283 89.7737 24.52C88.8709 23.6172 88.871 22.146 89.7737 21.2432C90.6765 20.3405 92.1477 20.3404 93.0505 21.2432Z" fill="#C0C0C0"/>
<path d="M83.2481 31.0456C84.1508 31.9484 84.1508 33.4196 83.248 34.3224C82.3397 35.2307 80.8741 35.2363 79.9713 34.3224C79.0685 33.4196 79.0685 31.9484 79.9713 31.0457C80.8741 30.1429 82.3453 30.1428 83.2481 31.0456Z" fill="#C0C0C0"/>
<path d="M73.4401 40.8536C74.3428 41.7564 74.3428 43.2276 73.4401 44.1304C72.5373 45.0332 71.0716 45.0387 70.1633 44.1304C69.2605 43.2276 69.2605 41.7564 70.1633 40.8537C71.0661 39.9509 72.5373 39.9508 73.4401 40.8536Z" fill="#C0C0C0"/>
<path d="M63.6376 50.656C64.5404 51.5588 64.5404 53.03 63.6376 53.9328C62.7349 54.8356 61.2692 54.8412 60.3609 53.9328C59.4581 53.03 59.4581 51.5589 60.3609 50.6561C61.2637 49.7533 62.7349 49.7533 63.6376 50.656Z" fill="#C0C0C0"/>
<path d="M93.0505 1.63838C93.9533 2.54116 93.9533 4.01236 93.0505 4.91515C92.1421 5.8235 90.6765 5.81792 89.7737 4.91514C88.8709 4.01236 88.8709 2.54116 89.7737 1.63838C90.6765 0.735601 92.1477 0.735601 93.0505 1.63838Z" fill="#C0C0C0"/>
<path d="M83.2481 11.4408C84.1508 12.3436 84.1509 13.8148 83.2481 14.7176C82.3397 15.6259 80.8741 15.6203 79.9713 14.7176C79.0685 13.8148 79.0685 12.3436 79.9713 11.4408C80.8741 10.538 82.3453 10.538 83.2481 11.4408Z" fill="#C0C0C0"/>
<path d="M73.4456 21.2432C74.3484 22.146 74.3484 23.6172 73.4456 24.52C72.5373 25.4283 71.0717 25.4228 70.1689 24.52C69.2661 23.6172 69.2661 22.146 70.1689 21.2432C71.0717 20.3404 72.5429 20.3404 73.4456 21.2432Z" fill="#C0C0C0"/>
<path d="M63.6377 31.0512C64.5404 31.954 64.5404 33.4252 63.6377 34.328C62.7349 35.2308 61.2637 35.2308 60.3609 34.328C59.4581 33.4252 59.4581 31.954 60.3609 31.0512C61.2637 30.1484 62.7349 30.1484 63.6377 31.0512Z" fill="#C0C0C0"/>
<path d="M53.8352 40.8536C54.738 41.7564 54.738 43.2276 53.8352 44.1304C52.9325 45.0332 51.4612 45.0332 50.5585 44.1304C49.6557 43.2276 49.6557 41.7564 50.5585 40.8536C51.4613 39.9509 52.9325 39.9509 53.8352 40.8536Z" fill="#C0C0C0"/>
<path d="M74.3344 82.4564C75.2372 81.5536 75.2372 80.0824 74.3344 79.1796C73.4316 78.2768 71.9604 78.2768 71.0576 79.1796C70.1549 80.0824 70.1549 81.5536 71.0576 82.4564C71.9604 83.3592 73.426 83.3647 74.3344 82.4564ZM64.532 92.2588C65.4348 91.356 65.4348 89.8848 64.532 88.982C63.6292 88.0793 62.158 88.0793 61.2552 88.982C60.3524 89.8848 60.3524 91.356 61.2552 92.2588C62.158 93.1616 63.6236 93.1672 64.532 92.2588ZM54.7296 102.061C55.6323 101.158 55.6323 99.6872 54.7296 98.7845C53.8268 97.8817 52.3556 97.8817 51.4528 98.7845C50.55 99.6872 50.55 101.158 51.4528 102.061C52.35 102.97 53.8212 102.97 54.7296 102.061ZM44.9216 111.869C45.8243 110.966 45.8243 109.495 44.9216 108.592C44.0188 107.69 42.5476 107.69 41.6448 108.592C40.742 109.495 40.742 110.966 41.6448 111.869C42.5476 112.772 44.0188 112.772 44.9216 111.869ZM35.1191 121.672C36.0219 120.769 36.0219 119.298 35.1191 118.395C34.2164 117.492 32.7452 117.492 31.8424 118.395C30.9396 119.298 30.9396 120.769 31.8424 121.672C32.7452 122.574 34.2164 122.574 35.1191 121.672ZM64.5264 72.6484C65.4292 71.7456 65.4292 70.2744 64.5264 69.3716C63.6236 68.4689 62.1524 68.4689 61.2497 69.3716C60.3469 70.2744 60.3469 71.7456 61.2497 72.6484C62.158 73.5568 63.6181 73.5568 64.5264 72.6484ZM54.724 82.4508C55.6268 81.548 55.6268 80.0768 54.724 79.1741C53.8212 78.2713 52.35 78.2713 51.4472 79.1741C50.5445 80.0768 50.5445 81.548 51.4472 82.4508C52.3556 83.3592 53.8156 83.3592 54.724 82.4508ZM44.9216 92.2532C45.8244 91.3505 45.8244 89.8793 44.9216 88.9765C44.0188 88.0737 42.5476 88.0737 41.6448 88.9765C40.742 89.8793 40.742 91.3505 41.6448 92.2532C42.5476 93.1672 44.0132 93.1616 44.9216 92.2532ZM35.1136 102.061C36.0164 101.158 36.0164 99.6873 35.1136 98.7845C34.2108 97.8817 32.7396 97.8817 31.8368 98.7845C30.934 99.6873 30.934 101.158 31.8368 102.061C32.7452 102.97 34.2108 102.964 35.1136 102.061ZM25.3112 111.864C26.2139 110.961 26.2139 109.49 25.3112 108.587C24.4084 107.684 22.9372 107.684 22.0344 108.587C21.1316 109.49 21.1316 110.961 22.0344 111.864C22.9428 112.772 24.4084 112.766 25.3112 111.864ZM54.724 62.846C55.6268 61.9432 55.6268 60.472 54.724 59.5692C53.8212 58.6664 52.35 58.6665 51.4473 59.5692C50.5445 60.472 50.5444 61.9432 51.4472 62.846C52.3556 63.7543 53.8156 63.7543 54.724 62.846ZM44.9216 72.6484C45.8243 71.7456 45.8243 70.2744 44.9216 69.3716C44.0188 68.4688 42.5476 68.4689 41.6448 69.3717C40.7421 70.2744 40.742 71.7456 41.6448 72.6484C42.5532 73.5567 44.0132 73.5567 44.9216 72.6484ZM35.1191 82.4508C36.0219 81.548 36.0219 80.0768 35.1191 79.174C34.2164 78.2713 32.7452 78.2713 31.8424 79.1741C30.9396 80.0769 30.9396 81.548 31.8424 82.4508C32.7452 83.3647 34.2108 83.3592 35.1191 82.4508ZM25.3112 92.2588C26.2139 91.356 26.2139 89.8848 25.3111 88.982C24.4084 88.0793 22.9372 88.0793 22.0344 88.9821C21.1316 89.8849 21.1316 91.356 22.0344 92.2588C22.9427 93.1672 24.4084 93.1616 25.3112 92.2588ZM15.5087 102.061C16.4115 101.158 16.4115 99.6872 15.5087 98.7845C14.6059 97.8817 13.1348 97.8817 12.232 98.7845C11.3292 99.6873 11.3292 101.158 12.232 102.061C13.1403 102.97 14.6059 102.964 15.5087 102.061ZM44.9216 53.0436C45.8244 52.1408 45.8244 50.6696 44.9216 49.7668C44.0188 48.864 42.5476 48.864 41.6448 49.7668C40.742 50.6696 40.742 52.1408 41.6448 53.0436C42.5476 53.9463 44.0132 53.9519 44.9216 53.0436ZM35.1192 62.846C36.0219 61.9432 36.0219 60.472 35.1192 59.5692C34.2164 58.6664 32.7452 58.6664 31.8424 59.5692C30.9396 60.472 30.9396 61.9432 31.8424 62.846C32.7452 63.7488 34.2108 63.7543 35.1192 62.846ZM25.3167 72.6484C26.2195 71.7456 26.2195 70.2744 25.3167 69.3716C24.414 68.4689 22.9428 68.4689 22.04 69.3716C21.1372 70.2744 21.1372 71.7456 22.04 72.6484C22.9428 73.5512 24.4084 73.5568 25.3167 72.6484ZM15.5087 82.4564C16.4115 81.5536 16.4115 80.0824 15.5087 79.1796C14.606 78.2769 13.1348 78.2769 12.232 79.1796C11.3292 80.0824 11.3292 81.5536 12.232 82.4564C13.1348 83.3592 14.606 83.3592 15.5087 82.4564ZM5.70633 92.2588C6.60911 91.356 6.60911 89.8848 5.70633 88.9821C4.80355 88.0793 3.33235 88.0793 2.42956 88.9821C1.52678 89.8848 1.52678 91.356 2.42956 92.2588C3.33234 93.1616 4.80355 93.1616 5.70633 92.2588Z" fill="#C0C0C0"/>
</g>
</svg>
