<svg width="91" height="97" viewBox="0 0 91 97" fill="none" xmlns="http://www.w3.org/2000/svg">
<path d="M70.9502 68.454C69.3543 73.168 62.5868 77.7753 59.3532 77.5436C49.9048 76.8676 38.5545 72.1405 28.711 62.304C18.8661 52.468 14.1361 41.1266 13.4596 31.6855C13.2278 28.4544 17.7937 21.6465 22.5114 20.0517C25.932 18.8955 28.2443 19.2547 29.8754 22.4012L33.8663 29.7991C34.8378 31.6001 34.1352 33.0011 31.9988 34.5521C27.3084 37.9583 26.3819 39.6103 28.7169 43.7902C30.8963 47.6902 33.4847 50.4828 36.9898 53.9859C40.4956 57.489 43.2905 60.0755 47.1935 62.2532C51.3766 64.5871 53.0299 63.6612 56.4387 58.9738C57.991 56.8397 59.393 56.137 61.1953 57.1084L68.599 61.0962C71.7487 62.7261 72.1081 65.0372 70.9509 68.4545L70.9502 68.454ZM46.4725 26.4723C46.4979 26.4703 46.524 26.4703 46.5494 26.4723C51.3511 26.4703 55.9561 28.38 59.3453 31.7789C62.7339 35.1779 64.6288 39.7859 64.6093 44.5838C64.6067 45.3328 64.9016 46.0517 65.4297 46.5833C65.9578 47.1143 66.6754 47.4142 67.4249 47.4175L67.4347 47.4175C68.1829 47.4175 68.8998 47.1214 69.4292 46.5937C69.9593 46.0667 70.2581 45.351 70.2607 44.6041C70.2848 38.2902 67.785 32.2273 63.3168 27.7624C58.8485 23.2982 52.7811 20.8004 46.4622 20.8252C45.4535 20.8285 44.5236 21.3685 44.0209 22.2423C43.5189 23.1162 43.5208 24.1917 44.0261 25.0637C44.5314 25.9355 45.4639 26.4723 46.4725 26.4717L46.4725 26.4723ZM46.4719 38.2518C46.4986 38.2498 46.5253 38.2518 46.5494 38.2518L46.5487 38.2518C48.2222 38.2472 49.8286 38.9135 51.0072 40.101C52.1858 41.2885 52.8389 42.8988 52.8207 44.571C52.8148 45.3199 53.1065 46.0402 53.632 46.5743C54.1575 47.1079 54.8738 47.4111 55.6232 47.4176L55.6473 47.4176C56.3922 47.4169 57.1072 47.1228 57.636 46.5984C58.1654 46.0733 58.4656 45.3615 58.4714 44.6171C58.5098 41.4205 57.2518 38.3448 54.9838 36.0896C52.7106 33.8488 49.643 32.5962 46.4491 32.6047C45.4424 32.6125 44.5158 33.1552 44.017 34.029C43.5182 34.9028 43.5228 35.9763 44.0281 36.8463C44.534 37.7163 45.4645 38.2517 46.4712 38.2517L46.4719 38.2518Z" fill="#EFEFEF"/>
</svg>
