<svg width="97" height="93" viewBox="0 0 97 93" fill="none" xmlns="http://www.w3.org/2000/svg">
<path d="M76.6241 68.1308C75.0281 72.8448 68.2606 77.4521 65.027 77.2204C55.5786 76.5443 44.2283 71.8172 34.3849 61.9807C24.5399 52.1448 19.8099 40.8033 19.1335 31.3623C18.9017 28.1312 23.4676 21.3232 28.1853 19.7285C31.6059 18.5723 33.9181 18.9314 35.5492 22.0779L39.5401 29.4759C40.5116 31.2768 39.809 32.6778 37.6726 34.2289C32.9823 37.635 32.0558 39.2871 34.3907 43.4669C36.5701 47.3669 39.1585 50.1596 42.6637 53.6627C46.1695 57.1658 48.9643 59.7522 52.8673 61.9299C57.0504 64.2639 58.7037 63.338 62.1125 58.6506C63.6648 56.5165 65.0668 55.8137 66.8692 56.7852L74.2728 60.773C77.4226 62.4029 77.7819 64.714 76.6247 68.1313L76.6241 68.1308ZM52.1464 26.149C52.1718 26.1471 52.1978 26.1471 52.2232 26.149C57.0249 26.1471 61.6299 28.0567 65.0192 31.4557C68.4078 34.8547 70.3026 39.4626 70.2831 44.2606C70.2805 45.0095 70.5755 45.7285 71.1036 46.2601C71.6317 46.791 72.3492 47.091 73.0988 47.0942L73.1085 47.0942C73.8567 47.0942 74.5736 46.7982 75.103 46.2705C75.6331 45.7435 75.932 45.0278 75.9346 44.2808C75.9587 37.9669 73.4588 31.904 68.9907 27.4392C64.5224 22.975 58.4549 20.4771 52.136 20.502C51.1273 20.5052 50.1975 21.0453 49.6947 21.9191C49.1927 22.7929 49.1946 23.8684 49.6999 24.7404C50.2052 25.6123 51.1377 26.1491 52.1464 26.1484L52.1464 26.149ZM52.1457 37.9285C52.1724 37.9266 52.1991 37.9285 52.2232 37.9285L52.2226 37.9285C53.896 37.924 55.5025 38.5903 56.681 39.7778C57.8596 40.9652 58.5127 42.5756 58.4945 44.2478C58.4886 44.9967 58.7804 45.717 59.3059 46.2511C59.8313 46.7846 60.5476 47.0878 61.297 47.0943L61.3211 47.0943C62.0661 47.0937 62.781 46.7996 63.3098 46.2752C63.8392 45.7501 64.1394 45.0383 64.1453 44.2938C64.1837 41.0972 62.9256 38.0216 60.6576 35.7664C58.3844 33.5256 55.3168 32.273 52.1229 32.2815C51.1162 32.2893 50.1896 32.8319 49.6908 33.7058C49.192 34.5796 49.1966 35.6531 49.7019 36.5231C50.2079 37.393 51.1384 37.9285 52.145 37.9285L52.1457 37.9285Z" fill="#EFEFEF"/>
</svg>
