<svg width="25" height="26" viewBox="0 0 25 26" fill="none" xmlns="http://www.w3.org/2000/svg">
<path d="M18.4461 23.759C17.3161 23.759 16.1261 23.4879 14.8961 22.9658C13.6961 22.4538 12.4861 21.751 11.3061 20.8976C10.1361 20.0341 9.00609 19.0703 7.93609 18.0161C6.87609 16.9418 5.91609 15.8073 5.06609 14.6426C4.20609 13.4378 3.51609 12.233 3.02609 11.0683C2.50609 9.82338 2.24609 8.61857 2.24609 7.48404C2.24609 6.70091 2.38609 5.95795 2.65609 5.26518C2.93609 4.55234 3.38609 3.88969 3.99609 3.31741C4.76609 2.55436 5.64609 2.17284 6.58609 2.17284C6.97609 2.17284 7.37609 2.2632 7.71609 2.42384C8.10609 2.60456 8.43609 2.87564 8.67609 3.23708L10.9961 6.52019C11.2061 6.81135 11.3661 7.09248 11.4761 7.3736C11.6061 7.6748 11.6761 7.976 11.6761 8.26717C11.6761 8.64869 11.5661 9.02017 11.3561 9.37157C11.2061 9.64266 10.9761 9.93382 10.6861 10.225L10.0061 10.9378C10.0161 10.9679 10.0261 10.988 10.0361 11.0081C10.1561 11.2189 10.3961 11.5804 10.8561 12.1226C11.3461 12.6848 11.8061 13.1968 12.2661 13.6687C12.8561 14.2511 13.3461 14.7129 13.8061 15.0944C14.3761 15.5763 14.7461 15.8173 14.9661 15.9277L14.9461 15.9779L15.6761 15.2551C15.9861 14.9438 16.2861 14.7129 16.5761 14.5623C17.1261 14.2209 17.8261 14.1607 18.5261 14.4519C18.7861 14.5623 19.0661 14.7129 19.3661 14.9237L22.6861 17.2932C23.0561 17.5442 23.3261 17.8655 23.4861 18.247C23.6361 18.6285 23.7061 18.9799 23.7061 19.3313C23.7061 19.8133 23.5961 20.2952 23.3861 20.747C23.1761 21.1988 22.9161 21.5904 22.5861 21.9518C22.0161 22.5843 21.3961 23.0361 20.6761 23.3273C19.9861 23.6084 19.2361 23.759 18.4461 23.759ZM6.58609 3.67885C6.03609 3.67885 5.52609 3.91981 5.03609 4.40173C4.57609 4.83346 4.25609 5.30534 4.05609 5.81739C3.84609 6.33947 3.74609 6.89167 3.74609 7.48404C3.74609 8.41777 3.96609 9.43182 4.40609 10.476C4.85609 11.5402 5.48609 12.6446 6.28609 13.749C7.08609 14.8535 7.99609 15.9277 8.99609 16.9418C9.99609 17.9358 11.0761 18.8595 12.1861 19.6727C13.2661 20.4659 14.3761 21.1084 15.4761 21.5703C17.1861 22.3032 18.7861 22.4739 20.1061 21.9217C20.6161 21.7108 21.0661 21.3896 21.4761 20.9277C21.7061 20.6767 21.8861 20.4056 22.0361 20.0843C22.1561 19.8333 22.2161 19.5723 22.2161 19.3113C22.2161 19.1506 22.1861 18.99 22.1061 18.8092C22.0761 18.749 22.0161 18.6386 21.8261 18.508L18.5061 16.1386C18.3061 15.998 18.1261 15.8976 17.9561 15.8273C17.7361 15.737 17.6461 15.6466 17.3061 15.8575C17.1061 15.9579 16.9261 16.1085 16.7261 16.3093L15.9661 17.0623C15.5761 17.4438 14.9761 17.5342 14.5161 17.3635L14.2461 17.243C13.8361 17.0221 13.3561 16.6808 12.8261 16.2289C12.3461 15.8173 11.8261 15.3354 11.1961 14.7129C10.7061 14.2109 10.2161 13.6788 9.70609 13.0864C9.23609 12.5342 8.89609 12.0623 8.68609 11.6708L8.56609 11.3695C8.50609 11.1386 8.48609 11.0081 8.48609 10.8675C8.48609 10.5061 8.61609 10.1848 8.86609 9.93382L9.61609 9.15069C9.81609 8.94989 9.96609 8.75913 10.0661 8.58845C10.1461 8.45793 10.1761 8.34749 10.1761 8.24709C10.1761 8.16676 10.1461 8.04628 10.0961 7.9258C10.0261 7.76516 9.91609 7.58444 9.77609 7.39368L7.45609 4.10053C7.35609 3.95997 7.23609 3.85957 7.08609 3.78929C6.92609 3.71901 6.75609 3.67885 6.58609 3.67885ZM14.9461 15.988L14.7861 16.6707L15.0561 15.9679C15.0061 15.9579 14.9661 15.9679 14.9461 15.988Z" fill="#F8A926"/>
</svg>
