<svg width="41" height="40" viewBox="0 0 41 40" fill="none" xmlns="http://www.w3.org/2000/svg">
<path d="M20.0039 0C8.98391 0 0.00390625 8.98 0.00390625 20C0.00390625 31.02 8.98391 40 20.0039 40C31.0239 40 40.0039 31.02 40.0039 20C40.0039 8.98 31.0239 0 20.0039 0ZM29.5639 15.4L18.2239 26.74C17.9439 27.02 17.5639 27.18 17.1639 27.18C16.7639 27.18 16.3839 27.02 16.1039 26.74L10.4439 21.08C9.86391 20.5 9.86391 19.54 10.4439 18.96C11.0239 18.38 11.9839 18.38 12.5639 18.96L17.1639 23.56L27.4439 13.28C28.0239 12.7 28.9839 12.7 29.5639 13.28C30.1439 13.86 30.1439 14.8 29.5639 15.4Z" fill="white"/>
</svg>
