<svg width="53" height="52" viewBox="0 0 53 52" fill="none" xmlns="http://www.w3.org/2000/svg">
<path d="M11.9565 34.767C12.9592 38.5296 16.3945 42.4911 20.0766 42.6549L20.6334 42.68L20.9635 42.2313C21.4392 41.5849 22.415 40.4276 23.3591 39.3084C24.0338 38.5084 24.6795 37.7416 25.1908 37.1087C25.712 37.1607 26.2451 37.1891 26.7923 37.1891C27.2931 37.1891 27.7815 37.1629 28.2612 37.1193C28.7715 37.7507 29.4149 38.5139 30.0864 39.3103C31.0298 40.4291 32.0048 41.585 32.4809 42.2317L32.811 42.6804L33.3671 42.6553C37.0652 42.4908 40.5159 38.4946 41.5014 34.7179C44.9572 35.8713 50.5322 38.6093 50.5322 44.2494H52.6191C52.6191 38.7715 48.3812 34.4515 40.981 32.3728C40.5337 32.0034 39.42 31.0789 38.6488 30.438C39.7833 28.5039 40.6033 26.1918 41.072 23.5498C43.2721 23.307 44.9419 21.6314 45.1901 19.2632C45.3299 17.9351 44.9739 16.6817 44.1889 15.7339C43.6473 15.0803 42.9173 14.6101 42.0784 14.3535C42.6399 9.76514 41.6562 5.96914 39.2916 3.79712C37.62 2.26165 35.3879 1.70914 32.9439 2.20957C31.5478 0.769785 28.8695 0 26.7924 0C20.645 0 16.6674 1.21412 14.2739 3.82153C12.1691 6.11402 11.3487 9.4519 11.6967 14.2912C10.765 14.5285 9.95452 15.0239 9.36558 15.7343C8.5809 16.6817 8.22497 17.9351 8.36473 19.2635C8.61476 21.6427 10.2984 23.3238 12.5138 23.5546C12.9796 26.1815 13.7941 28.4821 14.9184 30.4096C14.0529 31.0843 12.7886 32.071 12.2955 32.4648C5.09142 34.6166 0.964844 38.9042 0.964844 44.2492H3.0517C3.0517 38.6851 8.60893 35.9245 11.9565 34.7662L11.9565 34.767ZM39.5493 33.8975C38.9331 36.7225 36.4095 40.0119 33.789 40.5095C33.2489 39.8245 32.4825 38.915 31.6806 37.9648C31.3229 37.5404 30.9607 37.1113 30.6227 36.7051C33.3821 35.9735 35.6948 34.4245 37.4697 32.1725C38.1739 32.7577 39.0816 33.5114 39.5493 33.8976V33.8975ZM43.1135 19.046C42.9934 20.1931 42.323 21.0342 41.3734 21.3531C41.4771 20.298 41.531 19.2 41.531 18.0586C41.531 17.4821 41.5142 16.9165 41.4888 16.3604C41.9288 16.4987 42.3033 16.732 42.5803 17.0668C43.005 17.5778 43.1942 18.2805 43.1135 19.046H43.1135ZM15.8104 5.23324C17.7535 3.11647 21.3461 2.08758 26.7916 2.08758C28.7664 2.08758 31.0433 2.95123 31.665 3.93573L32.0803 4.59376L32.8296 4.38412C34.8426 3.82 36.5889 4.14938 37.8802 5.33513C39.8805 7.17275 40.6047 10.8388 39.8463 15.1815C36.3432 15.2186 33.6777 10.5659 32.8981 9.03619L31.9762 7.22661L31.0416 9.02929C28.8659 13.2264 23.8579 13.1587 19.4361 13.0954C17.2517 13.0652 15.1448 13.0401 13.7465 13.6872C13.5191 9.70922 14.1814 7.00789 15.8108 5.23297L15.8104 5.23324ZM10.4399 19.045C10.3595 18.28 10.5484 17.5772 10.9727 17.0655C11.2497 16.7307 11.6249 16.4966 12.0656 16.3591C12.0569 17.0531 12.0522 17.7166 12.0522 18.058C12.0522 19.2048 12.1071 20.3079 12.2119 21.3674C11.2431 21.0581 10.5614 20.2064 10.4398 19.045H10.4399ZM14.1544 16.2025L14.1697 16.204C14.2898 15.1849 16.23 15.1365 19.4066 15.1824C23.4486 15.2366 28.8225 15.3127 31.8981 11.5192C33.3721 13.9224 35.9609 17.0782 39.4323 17.2638C39.4381 17.5273 39.4439 17.7908 39.4439 18.0583C39.4439 28.5718 34.5957 35.1022 26.7912 35.1022C18.9866 35.1026 14.1385 28.5711 14.1385 18.0574C14.1385 17.676 14.1439 16.9357 14.1541 16.202L14.1544 16.2025ZM22.8438 36.6761C22.4987 37.0899 22.129 37.5288 21.7632 37.9627C20.9606 38.9133 20.1941 39.8229 19.6537 40.5089C17.0234 40.0099 14.491 36.6976 13.8865 33.8653C14.3982 33.4613 15.2666 32.7833 16.0884 32.1424C17.8423 34.3796 20.1225 35.9293 22.8438 36.6761Z" fill="#505050"/>
<path d="M18.4453 19.3574H23.5789V21.4443H18.4453V19.3574Z" fill="#505050"/>
<path d="M29.9238 19.3574H35.0574V21.4443H29.9238V19.3574Z" fill="#505050"/>
<path d="M28.2329 45.8953L26.6967 43.2275L25.2682 45.8953L21.9023 46.2931L24.3223 48.4976L23.5329 51.9999L26.8227 50.2424L30.1201 51.9999L29.2772 48.5646L31.7182 46.3259L28.2329 45.8953Z" fill="#505050"/>
<path d="M38.6665 45.8953L37.1303 43.2275L35.7018 45.8953L32.3359 46.2931L34.7559 48.4976L33.9665 51.9999L37.2563 50.2424L40.5537 51.9999L39.7108 48.5646L42.1518 46.3259L38.6665 45.8953Z" fill="#505050"/>
<path d="M52.8798 46.3259L49.3946 45.8953L47.8584 43.2275L46.4303 45.8953L43.0645 46.2931L45.484 48.4976L44.695 51.9999L47.9848 50.2424L51.2822 51.9999L50.4386 48.5646L52.8798 46.3259Z" fill="#505050"/>
<path d="M17.7973 45.8953L16.2611 43.2275L14.8326 45.8953L11.4668 46.2931L13.8867 48.4976L13.0973 51.9999L16.3871 50.2424L19.6846 51.9999L18.8417 48.5646L21.2827 46.3259L17.7973 45.8953Z" fill="#505050"/>
<path d="M7.03563 45.8953L5.49942 43.2275L4.07091 45.8953L0.705078 46.2931L3.12503 48.4976L2.33561 51.9999L5.62541 50.2424L8.92285 51.9999L8.07994 48.5646L10.5209 46.3259L7.03563 45.8953Z" fill="#505050"/>
</svg>
