<svg width="213" height="53" viewBox="0 0 213 53" fill="none" xmlns="http://www.w3.org/2000/svg">
<path fill-rule="evenodd" clip-rule="evenodd" d="M29.258 36.1297V52.0857H31.798H34.3379V36.1297V20.1738H31.798H29.258V36.1297ZM94.3842 36.1297V52.0857H96.9893H99.5943V45.3913C99.5943 39.0807 99.6091 38.6496 99.8526 37.8693C100.439 35.9897 101.894 34.8918 103.927 34.7936C104.904 34.7465 105.063 34.7747 105.713 35.1101C106.291 35.4084 106.49 35.6017 106.755 36.1261L107.084 36.7737L107.12 44.2994L107.157 51.8251H109.758H112.359V45.2766C112.359 41.5562 112.301 38.2513 112.224 37.6243C111.857 34.6186 110.904 32.7675 109.039 31.437C107.977 30.6793 107.23 30.3903 105.794 30.1827C103.707 29.881 101.424 30.3838 100.021 31.4541L99.5943 31.7796V25.9767V20.1738H96.9893H94.3842V36.1297ZM11.4135 21.6013C5.59691 22.8453 1.34391 27.4685 0.265295 33.7201C-0.0169616 35.3563 0.0786437 38.7448 0.452728 40.3629C1.65287 45.5534 5.09479 49.5353 9.84835 51.2329C15.0444 53.0885 21.2252 51.7374 25.0574 47.9082C25.5768 47.3893 26.0017 46.929 26.0017 46.8856C26.0017 46.8421 25.27 46.0766 24.3757 45.1844L22.7496 43.5622L22.2591 44.0285C20.8319 45.385 19.2694 46.279 17.4702 46.7685C16.6368 46.9953 16.063 47.0528 14.6046 47.0558C12.8943 47.0595 12.7103 47.0347 11.64 46.657C9.54773 45.9187 8.03107 44.7669 6.87495 43.0385C5.58493 41.1097 5.0311 39.1804 5.0311 36.6151C5.0311 34.3376 5.30476 33.0504 6.15218 31.3408C7.33865 28.9475 9.24437 27.2924 11.7825 26.4512C12.6654 26.1585 13.0074 26.1191 14.7349 26.1102C16.4378 26.1016 16.8135 26.1395 17.66 26.4054C19.4455 26.966 20.702 27.7076 22.1711 29.0677L22.9594 29.7975L24.6435 28.1088L26.3274 26.4199L25.611 25.7658C23.6673 23.991 21.3339 22.5841 19.3665 22.0007C17.0375 21.3101 13.5852 21.1368 11.4135 21.6013ZM62.4724 26.5562V30.4638H60.5837H58.6951V32.9386V35.4134H60.5837H62.4724V43.7495V52.0857H65.0774H67.6825V43.7495V35.4134H69.5711H71.4598V32.9386V30.4638H69.5711H67.6825V26.5562V22.6486H65.0774H62.4724V26.5562ZM81.359 30.259C78.9061 30.705 76.9553 31.7315 75.3454 33.4235C71.3966 37.5736 71.3792 44.3363 75.3059 48.6699C77.3197 50.8924 80.9823 52.2989 84.0754 52.0373C86.5484 51.8284 88.4767 51.0627 90.6785 49.4155L91.8972 48.5037L90.1162 46.715L88.3353 44.9262L87.9406 45.3018C86.4481 46.7228 84.0032 47.4158 81.9841 46.9907C78.0821 46.1691 76.1248 41.5356 78.0629 37.7083C79.3746 35.1181 83.0657 34.0139 86.0817 35.3095C86.4572 35.4709 87.1228 35.9067 87.5608 36.278L88.3573 36.9531L90.1007 35.3392C91.0596 34.4517 91.8333 33.6901 91.8198 33.6469C91.8064 33.6035 91.2496 33.1582 90.5824 32.6572C89.1444 31.5772 87.6598 30.8266 86.2364 30.4601C84.8966 30.1152 82.658 30.0229 81.359 30.259ZM38.2454 37.0896C38.2454 44.2624 38.3056 45.0794 38.9617 46.8227C39.8655 49.224 41.9481 51.1415 44.325 51.7604C46.9008 52.4313 50.2315 51.918 51.9863 50.5794L52.443 50.2313V51.1584V52.0857H54.9829H57.5228V41.2747V30.4638H54.9917H52.4607L52.4121 36.8136C52.358 43.873 52.3509 43.9362 51.4593 45.2539C50.7613 46.2858 49.7753 46.8946 48.2936 47.2086C47.1739 47.4459 46.6536 47.4425 45.8117 47.1926C44.8655 46.9116 44.1107 46.1392 43.7107 45.0426C43.4075 44.2112 43.405 44.1575 43.3562 37.3346L43.3069 30.4638H40.7761H38.2454V37.0896Z" fill="#1D303A"/>
<circle cx="83.0748" cy="40.7818" r="2.71153" fill="#E83723"/>
<path d="M6.67438 13.0859L4.32052 9.04467H2.76073V13.0859H1.47036V3.20255H4.66083C5.40764 3.20255 6.03628 3.33017 6.54676 3.58541C7.06669 3.84065 7.45427 4.18569 7.70951 4.62054C7.96475 5.05539 8.09237 5.55169 8.09237 6.10943C8.09237 6.79007 7.89385 7.39035 7.49681 7.91028C7.10923 8.43021 6.52313 8.77525 5.7385 8.94541L8.21999 13.0859H6.67438ZM2.76073 8.00954H4.66083C5.36037 8.00954 5.88503 7.83938 6.2348 7.49906C6.58457 7.14929 6.75946 6.68608 6.75946 6.10943C6.75946 5.52333 6.58457 5.06957 6.2348 4.74816C5.89448 4.42675 5.36983 4.26604 4.66083 4.26604H2.76073V8.00954ZM12.8057 4.25187V7.55578H16.4074V8.61927H12.8057V12.0224H16.8328V13.0859H11.5154V3.18837H16.8328V4.25187H12.8057ZM28.3709 3.20255L24.6416 13.0859H23.1527L19.4234 3.20255H20.7989L23.9043 11.7247L27.0097 3.20255H28.3709ZM32.4942 3.20255V13.0859H31.2038V3.20255H32.4942ZM37.4018 4.25187V7.55578H41.0034V8.61927H37.4018V12.0224H41.4288V13.0859H36.1114V3.18837H41.4288V4.25187H37.4018ZM57.2209 3.20255L54.3566 13.0859H52.9102L50.6131 5.13102L48.2309 13.0859L46.7987 13.1001L44.0336 3.20255H45.4091L47.5644 11.5829L49.9466 3.20255H51.393L53.6618 11.5545L55.8313 3.20255H57.2209ZM61.3414 4.25187V7.55578H64.9431V8.61927H61.3414V12.0224H65.3685V13.0859H60.051V3.18837H65.3685V4.25187H61.3414ZM71.816 3.20255C72.8937 3.20255 73.8248 3.4058 74.6095 3.81229C75.4035 4.20933 76.0085 4.78125 76.4245 5.52806C76.8499 6.27486 77.0626 7.15402 77.0626 8.16552C77.0626 9.17701 76.8499 10.0562 76.4245 10.803C76.0085 11.5403 75.4035 12.1075 74.6095 12.5046C73.8248 12.8921 72.8937 13.0859 71.816 13.0859H68.739V3.20255H71.816ZM71.816 12.0224C73.0922 12.0224 74.0659 11.6869 74.7371 11.0157C75.4083 10.335 75.7438 9.38499 75.7438 8.16552C75.7438 6.93659 75.4035 5.97709 74.7229 5.287C74.0517 4.59691 73.0828 4.25187 71.816 4.25187H70.0293V12.0224H71.816ZM89.8618 13.1852C88.9449 13.1852 88.1082 12.9725 87.352 12.5471C86.5957 12.1123 85.9954 11.512 85.5511 10.7463C85.1163 9.97109 84.8989 9.10139 84.8989 8.13716C84.8989 7.17292 85.1163 6.30795 85.5511 5.54224C85.9954 4.76707 86.5957 4.16679 87.352 3.74139C88.1082 3.30654 88.9449 3.08911 89.8618 3.08911C90.7882 3.08911 91.6296 3.30654 92.3858 3.74139C93.1421 4.16679 93.7377 4.76234 94.1725 5.52806C94.6074 6.29377 94.8248 7.16347 94.8248 8.13716C94.8248 9.11084 94.6074 9.98054 94.1725 10.7463C93.7377 11.512 93.1421 12.1123 92.3858 12.5471C91.6296 12.9725 90.7882 13.1852 89.8618 13.1852ZM89.8618 12.065C90.5519 12.065 91.1711 11.9043 91.7194 11.5829C92.2771 11.2615 92.712 10.803 93.0239 10.2074C93.3453 9.61186 93.5061 8.92178 93.5061 8.13716C93.5061 7.34308 93.3453 6.65299 93.0239 6.06689C92.712 5.47134 92.2819 5.01285 91.7336 4.69144C91.1853 4.37003 90.5614 4.20933 89.8618 4.20933C89.1623 4.20933 88.5384 4.37003 87.9901 4.69144C87.4418 5.01285 87.0069 5.47134 86.6855 6.06689C86.3736 6.65299 86.2176 7.34308 86.2176 8.13716C86.2176 8.92178 86.3736 9.61186 86.6855 10.2074C87.0069 10.803 87.4418 11.2615 87.9901 11.5829C88.5478 11.9043 89.1717 12.065 89.8618 12.065ZM105.717 13.0859H104.426L99.2366 5.2161V13.0859H97.9462V3.18837H99.2366L104.426 11.044V3.18837H105.717V13.0859Z" fill="#1D303A"/>
<path d="M127.511 37.3189C127.577 36.4492 127.913 35.7686 128.518 35.277C129.123 34.7854 129.907 34.5397 130.871 34.5397C131.514 34.5397 132.067 34.6578 132.531 34.8942C133.003 35.121 133.358 35.433 133.594 35.83C133.84 36.2271 133.963 36.6761 133.963 37.1771C133.963 37.7632 133.793 38.269 133.452 38.6944C133.121 39.1198 132.687 39.3939 132.148 39.5168V39.5877C132.762 39.7389 133.249 40.0367 133.608 40.481C133.967 40.9253 134.147 41.5067 134.147 42.2252C134.147 42.764 134.024 43.2508 133.778 43.6857C133.533 44.1111 133.164 44.4467 132.672 44.6925C132.181 44.9382 131.59 45.0611 130.9 45.0611C129.898 45.0611 129.075 44.8012 128.433 44.2812C127.79 43.7519 127.431 43.005 127.355 42.0408H128.603C128.669 42.608 128.9 43.0712 129.298 43.4304C129.695 43.7897 130.224 43.9693 130.886 43.9693C131.547 43.9693 132.048 43.7991 132.389 43.4588C132.739 43.109 132.913 42.66 132.913 42.1117C132.913 41.4027 132.677 40.8922 132.204 40.5803C131.732 40.2683 131.018 40.1124 130.063 40.1124H129.737V39.0347H130.077C130.947 39.0252 131.604 38.8834 132.048 38.6093C132.493 38.3257 132.715 37.8908 132.715 37.3047C132.715 36.8037 132.549 36.4019 132.219 36.0994C131.897 35.7969 131.434 35.6457 130.829 35.6457C130.243 35.6457 129.77 35.7969 129.411 36.0994C129.052 36.4019 128.839 36.8084 128.773 37.3189H127.511ZM145.086 44.9902L142.733 40.949H141.173V44.9902H139.882V35.1069H143.073C143.82 35.1069 144.448 35.2345 144.959 35.4897C145.479 35.7449 145.866 36.09 146.122 36.5248C146.377 36.9597 146.504 37.456 146.504 38.0137C146.504 38.6944 146.306 39.2946 145.909 39.8146C145.521 40.3345 144.935 40.6795 144.151 40.8497L146.632 44.9902H145.086ZM141.173 39.9138H143.073C143.772 39.9138 144.297 39.7437 144.647 39.4034C144.997 39.0536 145.171 38.5904 145.171 38.0137C145.171 37.4276 144.997 36.9739 144.647 36.6525C144.306 36.331 143.782 36.1703 143.073 36.1703H141.173V39.9138ZM149.8 36.1562V39.4601H153.401V40.5236H149.8V43.9267H153.827V44.9902H148.509V35.0927H153.827V36.1562H149.8ZM163.947 35.1069L160.218 44.9902H158.729L154.999 35.1069H156.375L159.48 43.629L162.586 35.1069H163.947ZM166.652 35.1069V44.9902H165.362V35.1069H166.652ZM170.142 36.1562V39.4601H173.744V40.5236H170.142V43.9267H174.169V44.9902H168.851V35.0927H174.169V36.1562H170.142ZM188.543 35.1069L185.679 44.9902H184.232L181.935 37.0353L179.553 44.9902L178.121 45.0044L175.356 35.1069H176.731L178.886 43.4872L181.269 35.1069H182.715L184.984 43.4588L187.153 35.1069H188.543ZM195.797 42.7924H191.487L190.692 44.9902H189.331L192.905 35.1636H194.393L197.953 44.9902H196.591L195.797 42.7924ZM195.429 41.743L193.642 36.7517L191.855 41.743H195.429Z" fill="#1D303A"/>
<path d="M134.22 5.99414L135.944 11.3014H141.525L137.01 14.5815L138.734 19.8888L134.22 16.6087L129.705 19.8888L131.43 14.5815L126.915 11.3014H132.495L134.22 5.99414Z" fill="#DE5140"/>
<path d="M151.886 5.99414L153.61 11.3014H159.191L154.676 14.5815L156.4 19.8888L151.886 16.6087L147.371 19.8888L149.096 14.5815L144.581 11.3014H150.161L151.886 5.99414Z" fill="#DE5140"/>
<path d="M169.552 5.99414L171.276 11.3014H176.857L172.342 14.5815L174.067 19.8888L169.552 16.6087L165.037 19.8888L166.762 14.5815L162.247 11.3014H167.827L169.552 5.99414Z" fill="#DE5140"/>
<path d="M187.218 5.99414L188.942 11.3014H194.523L190.008 14.5815L191.733 19.8888L187.218 16.6087L182.703 19.8888L184.428 14.5815L179.913 11.3014H185.493L187.218 5.99414Z" fill="#DE5140"/>
<path d="M204.884 5.99414L206.608 11.3014H212.189L207.674 14.5815L209.399 19.8888L204.884 16.6087L200.369 19.8888L202.094 14.5815L197.579 11.3014H203.159L204.884 5.99414Z" fill="#DE5140"/>
</svg>
