<svg width="48" height="48" viewBox="0 0 48 48" fill="none" xmlns="http://www.w3.org/2000/svg">
<path d="M42.5618 8.70309C42.5618 9.16131 41.8743 9.16131 41.8743 8.70309C41.8743 8.24487 42.5618 8.24487 42.5618 8.70309Z" fill="#505050"/>
<path d="M41.1868 8.70309C41.1868 9.16131 40.4993 9.16131 40.4993 8.70309C40.4993 8.24487 41.1868 8.24487 41.1868 8.70309Z" fill="#505050"/>
<path d="M39.8118 8.70309C39.8118 9.16131 39.1243 9.16131 39.1243 8.70309C39.1243 8.24487 39.8118 8.24487 39.8118 8.70309Z" fill="#505050"/>
<path d="M3.37498 6.98438C3.01036 6.98438 2.66048 7.12924 2.40267 7.38705C2.14487 7.64485 2 7.99474 2 8.35935V35.8589C2 36.2235 2.14487 36.5734 2.40267 36.8312C2.66048 37.089 3.01036 37.2338 3.37498 37.2338H21.5938V40.3275H18.8438C18.6539 40.3275 18.5001 40.4813 18.5001 40.6713C18.5001 40.8613 18.6539 41.015 18.8438 41.015H29.1562C29.3461 41.015 29.4999 40.8613 29.4999 40.6713C29.4999 40.4813 29.3461 40.3275 29.1562 40.3275H26.4062V37.2338H44.625C44.9896 37.2338 45.3395 37.089 45.5973 36.8312C45.8551 36.5734 46 36.2235 46 35.8589V8.35935C46 7.99474 45.8551 7.64485 45.5973 7.38705C45.3395 7.12924 44.9896 6.98438 44.625 6.98438H3.37498ZM45.3117 35.8589C45.3117 36.0412 45.2393 36.2161 45.1104 36.345C44.9815 36.4739 44.8065 36.5463 44.6242 36.5463H3.37498C2.99533 36.5463 2.68749 36.2385 2.68749 35.8589V34.1401H45.3117V35.8589ZM21.4594 24.0411C21.6141 24.1513 21.6503 24.3662 21.5402 24.5208C21.4303 24.6755 21.2154 24.7118 21.0607 24.6016L17.9671 22.3878C17.8765 22.3233 17.8225 22.219 17.8225 22.1076C17.8225 21.9965 17.8765 21.8921 17.9671 21.8277L21.0607 19.6139C21.2154 19.5037 21.4303 19.5399 21.5402 19.6946C21.6503 19.8493 21.6141 20.0641 21.4594 20.174L18.7472 22.1094L21.4594 24.0411ZM18.4999 27.6093C18.6898 27.6093 18.8436 27.7631 18.8436 27.9531C18.8436 28.143 18.6898 28.2968 18.4999 28.2968H11.0888C10.8988 28.2968 10.7451 28.143 10.7451 27.9531C10.7451 27.7631 10.8988 27.6093 11.0888 27.6093H18.4999ZM17.7884 30.703C17.7884 30.7942 17.7522 30.8816 17.6878 30.9461C17.6233 31.0105 17.5358 31.0468 17.4447 31.0468H10.0333C9.84366 31.0468 9.68959 30.893 9.68959 30.703C9.68959 30.513 9.84366 30.3593 10.0333 30.3593H17.4447C17.5358 30.3593 17.6233 30.3955 17.6878 30.4599C17.7522 30.5244 17.7884 30.6119 17.7884 30.703ZM14.9832 22.109C15.1732 22.109 15.327 22.2628 15.327 22.4528C15.327 22.6428 15.1732 22.7965 14.9832 22.7965H8.97814C8.78816 22.7965 8.6344 22.6428 8.6344 22.4528C8.6344 22.2628 8.78816 22.109 8.97814 22.109H14.9832ZM14.6395 20.0466H6.16651C5.97684 20.0466 5.82277 19.8928 5.82277 19.7028C5.82277 19.5128 5.97684 19.3591 6.16651 19.3591H14.6293C14.819 19.3591 14.973 19.5128 14.973 19.7028C14.973 19.8928 14.819 20.0466 14.6293 20.0466H14.6395ZM9.33233 23.484H12.8487C13.0386 23.484 13.1924 23.6378 13.1924 23.8277C13.1924 24.0177 13.0386 24.1715 12.8487 24.1715H9.33233C9.14235 24.1715 8.98859 24.0177 8.98859 23.8277C8.98859 23.6378 9.14235 23.484 9.33233 23.484ZM16.3892 18.6716H7.22163C7.03165 18.6716 6.87789 18.5178 6.87789 18.3278C6.87789 18.1379 7.03165 17.9841 7.22163 17.9841H16.3892C16.5792 17.9841 16.7329 18.1379 16.7329 18.3278C16.7329 18.5178 16.5792 18.6716 16.3892 18.6716ZM15.334 14.5467H7.92295C7.73296 14.5467 7.5792 14.3929 7.5792 14.2029C7.5792 14.0129 7.73296 13.8592 7.92295 13.8592H15.334C15.5237 13.8592 15.6777 14.0129 15.6777 14.2029C15.6777 14.3929 15.5237 14.5467 15.334 14.5467ZM11.1127 13.1717H4.40631C4.21633 13.1717 4.06257 13.0179 4.06257 12.8279C4.06257 12.638 4.21633 12.4842 4.40631 12.4842H11.1127C11.3026 12.4842 11.4564 12.638 11.4564 12.8279C11.4564 13.0179 11.3026 13.1717 11.1127 13.1717ZM4.40631 15.2341H10.3875C10.5774 15.2341 10.7312 15.3879 10.7312 15.5779C10.7312 15.7679 10.5774 15.9216 10.3875 15.9216H4.40631C4.21633 15.9216 4.06257 15.7679 4.06257 15.5779C4.06257 15.3879 4.21633 15.2341 4.40631 15.2341ZM4.40631 16.6091H11.4668C11.6565 16.6091 11.8106 16.7629 11.8106 16.9529C11.8106 17.1428 11.6565 17.2966 11.4668 17.2966H4.40631C4.21633 17.2966 4.06257 17.1428 4.06257 16.9529C4.06257 16.7629 4.21633 16.6091 4.40631 16.6091ZM4.40631 20.734H12.8487C13.0386 20.734 13.1924 20.8878 13.1924 21.0778C13.1924 21.2678 13.0386 21.4215 12.8487 21.4215H4.40631C4.21633 21.4215 4.06257 21.2678 4.06257 21.0778C4.06257 20.8878 4.21633 20.734 4.40631 20.734ZM4.40631 24.859H12.8487C13.0386 24.859 13.1924 25.0127 13.1924 25.2027C13.1924 25.3927 13.0386 25.5465 12.8487 25.5465H4.40631C4.21633 25.5465 4.06257 25.3927 4.06257 25.2027C4.06257 25.0127 4.21633 24.859 4.40631 24.859ZM4.40631 26.234H12.4982C12.6879 26.234 12.842 26.3877 12.842 26.5777C12.842 26.7677 12.6879 26.9214 12.4982 26.9214H4.40631C4.21633 26.9214 4.06257 26.7677 4.06257 26.5777C4.06257 26.3877 4.21633 26.234 4.40631 26.234ZM4.40631 28.9839H12.8487C13.0386 28.9839 13.1924 29.1377 13.1924 29.3276C13.1924 29.5176 13.0386 29.6714 12.8487 29.6714H4.40631C4.21633 29.6714 4.06257 29.5176 4.06257 29.3276C4.06257 29.1377 4.21633 28.9839 4.40631 28.9839ZM22.281 25.4501L24.4499 17.8877C24.4711 17.7959 24.5291 17.7167 24.6104 17.6689C24.6915 17.621 24.7891 17.6084 24.8796 17.6345C24.9701 17.6606 25.0463 17.7226 25.0898 17.8061C25.1334 17.8898 25.1408 17.9877 25.1101 18.0767L22.9684 25.6428C22.9153 25.8325 22.7183 25.9433 22.5283 25.8902C22.3386 25.8371 22.2279 25.64 22.281 25.4501ZM26.54 20.1773C26.4658 20.1242 26.4154 20.0441 26.4004 19.9542C26.385 19.8643 26.4062 19.7719 26.4593 19.6976C26.5692 19.5429 26.784 19.5067 26.9387 19.6169L30.0324 21.8307C30.123 21.8951 30.177 21.9995 30.177 22.1109C30.177 22.222 30.123 22.3263 30.0324 22.3908L26.9387 24.6046C26.8644 24.6574 26.7721 24.6789 26.6821 24.6635C26.5922 24.6485 26.5121 24.5981 26.4593 24.5239C26.3491 24.3692 26.3854 24.1543 26.54 24.0445L29.2523 22.109L26.54 20.1773ZM35.1505 29.6717C34.9605 29.6717 34.8068 29.5179 34.8068 29.328C34.8068 29.138 34.9605 28.9842 35.1505 28.9842H43.5929C43.7829 28.9842 43.9366 29.138 43.9366 29.328C43.9366 29.5179 43.7829 29.6717 43.5929 29.6717H35.1505ZM38.3096 30.7029C38.3096 30.7941 38.2734 30.8816 38.2089 30.946C38.1445 31.0105 38.057 31.0467 37.9658 31.0467H30.5545C30.3648 31.0467 30.2107 30.8929 30.2107 30.7029C30.2107 30.513 30.3648 30.3592 30.5545 30.3592H37.9658C38.057 30.3592 38.1445 30.3954 38.2089 30.4599C38.2734 30.5243 38.3096 30.6118 38.3096 30.7029ZM43.5928 26.9218H35.5009C35.3112 26.9218 35.1571 26.768 35.1571 26.578C35.1571 26.388 35.3112 26.2343 35.5009 26.2343H43.5928C43.7828 26.2343 43.9365 26.388 43.9365 26.578C43.9365 26.768 43.7828 26.9218 43.5928 26.9218ZM43.5928 25.5468H35.1504C34.9605 25.5468 34.8067 25.393 34.8067 25.203C34.8067 25.0131 34.9605 24.8593 35.1504 24.8593H43.5928C43.7828 24.8593 43.9365 25.0131 43.9365 25.203C43.9365 25.393 43.7828 25.5468 43.5928 25.5468ZM39.021 22.1093C39.2109 22.1093 39.3647 22.2631 39.3647 22.4531C39.3647 22.6431 39.2109 22.7968 39.021 22.7968H33.0159C32.8259 22.7968 32.6721 22.6431 32.6721 22.4531C32.6721 22.2631 32.8259 22.1093 33.0159 22.1093H39.021ZM33.026 19.7031C33.026 19.5132 33.1801 19.3594 33.3697 19.3594H41.8364C42.0261 19.3594 42.1802 19.5132 42.1802 19.7031C42.1802 19.8931 42.0261 20.0469 41.8364 20.0469H33.3697C33.1801 20.0469 33.026 19.8931 33.026 19.7031ZM39.0142 23.8281C39.0142 23.9192 38.978 24.0067 38.9135 24.0711C38.8491 24.1356 38.7616 24.1718 38.6705 24.1718H35.1504C34.9605 24.1718 34.8067 24.018 34.8067 23.8281C34.8067 23.6381 34.9605 23.4843 35.1504 23.4843H38.6671H38.6668C38.7579 23.4843 38.8454 23.5205 38.9098 23.585C38.9743 23.6494 39.0105 23.7369 39.0105 23.8281H39.0142ZM43.5927 21.4219H35.1504C34.9604 21.4219 34.8066 21.2681 34.8066 21.0781C34.8066 20.8881 34.9604 20.7344 35.1504 20.7344H43.5927C43.7827 20.7344 43.9365 20.8881 43.9365 21.0781C43.9365 21.2681 43.7827 21.4219 43.5927 21.4219ZM43.5927 17.2969H35.5008C35.3111 17.2969 35.157 17.1432 35.157 16.9532C35.157 16.7632 35.3111 16.6094 35.5008 16.6094H43.5927C43.7827 16.6094 43.9365 16.7632 43.9365 16.9532C43.9365 17.1432 43.7827 17.2969 43.5927 17.2969ZM43.5927 15.922H37.6116C37.4216 15.922 37.2678 15.7682 37.2678 15.5782C37.2678 15.3882 37.4216 15.2345 37.6116 15.2345H43.5927C43.7827 15.2345 43.9365 15.3882 43.9365 15.5782C43.9365 15.7682 43.7827 15.922 43.5927 15.922ZM43.5927 13.172H35.8551C35.6652 13.172 35.5114 13.0182 35.5114 12.8283C35.5114 12.6383 35.6652 12.4845 35.8551 12.4845H43.5927C43.7827 12.4845 43.9365 12.6383 43.9365 12.8283C43.9365 13.0182 43.7827 13.172 43.5927 13.172ZM40.0761 13.8595C40.2661 13.8595 40.4198 14.0132 40.4198 14.2032C40.4198 14.3932 40.2661 14.547 40.0761 14.547H32.665C32.4754 14.547 32.3213 14.3932 32.3213 14.2032C32.3213 14.0132 32.4754 13.8595 32.665 13.8595H40.0761ZM40.7636 17.9844C40.9535 17.9844 41.1073 18.1382 41.1073 18.3282C41.1073 18.5181 40.9535 18.6719 40.7636 18.6719H31.6102C31.4202 18.6719 31.2664 18.5181 31.2664 18.3282C31.2664 18.1382 31.4202 17.9844 31.6102 17.9844H40.7636ZM36.9103 27.6092C37.1002 27.6092 37.254 27.763 37.254 27.953C37.254 28.143 37.1002 28.2967 36.9103 28.2967H29.4992C29.3092 28.2967 29.1555 28.143 29.1555 27.953C29.1555 27.763 29.3092 27.6092 29.4992 27.6092H36.9103ZM45.3117 9.73456H2.68751V8.35959C2.68751 7.97994 2.99535 7.6721 3.375 7.6721H44.6243C44.8066 7.6721 44.9815 7.74453 45.1104 7.87343C45.2393 8.00234 45.3117 8.17728 45.3117 8.35959V9.73456Z" fill="#505050"/>
</svg>
