<svg width="183" height="93" viewBox="0 0 183 93" fill="none" xmlns="http://www.w3.org/2000/svg">
<path fill-rule="evenodd" clip-rule="evenodd" d="M34.5961 15.1268C30.9805 15.582 27.8644 16.5437 24.6782 18.1875C18.6255 21.3101 15 26.2571 15 31.3935C15 35.844 17.859 39.0783 23.0779 40.5317C24.7751 41.0044 30.9119 41.0694 33.0492 40.6371L34.4248 40.3592L35.4536 38.0481C36.0194 36.7771 36.4724 35.7222 36.46 35.704C36.4478 35.6858 35.7593 35.8923 34.9302 36.163C28.1395 38.3803 22.6732 36.1071 22.6658 31.0627C22.6614 28.234 23.9669 25.4444 26.3692 23.1494C27.2433 22.3145 28.468 21.34 29.091 20.9839C32.2002 19.2072 36.3871 18.6065 39.8552 19.4394C40.8235 19.672 41.7608 19.9186 41.9381 19.9874C42.1806 20.0817 42.5062 19.6459 43.256 18.2237C43.8461 17.1046 44.1761 16.2591 44.0655 16.1485C43.963 16.046 43.1369 15.7689 42.2297 15.5327C40.3416 15.041 36.7804 14.8517 34.5961 15.1268ZM73.0556 15.9047C72.9819 16.104 70.7944 21.7569 68.1945 28.4666C65.5949 35.1762 63.4677 40.7477 63.4677 40.8476C63.4677 40.9476 64.9298 41.0037 66.7167 40.9723L69.9659 40.9153L74.5438 29.1091C77.0616 22.6156 79.2806 16.9066 79.4744 16.4226L79.8274 15.5423H76.5086C73.5367 15.5423 73.1757 15.5802 73.0556 15.9047ZM139.133 18.8099L136.195 19.3375L135.746 20.5386L135.296 21.7395L133.733 21.7996L132.17 21.8596L131.695 23.1024C131.433 23.7859 131.215 24.4576 131.209 24.595C131.202 24.7613 131.676 24.8653 132.627 24.9056L134.057 24.9665L131.978 30.1447C130.211 34.5486 129.886 35.5397 129.804 36.7728C129.72 38.0429 129.769 38.3125 130.195 38.9476C130.471 39.3594 131.128 39.8962 131.716 40.1904C132.673 40.6688 132.956 40.7061 135.444 40.6808C137.001 40.6649 138.566 40.534 139.154 40.3702C140.162 40.0893 140.177 40.0723 140.867 38.4513C141.25 37.552 141.528 36.7806 141.485 36.7376C141.442 36.6945 140.861 36.8011 140.194 36.9749C137.533 37.668 136.453 37.2065 136.635 35.4542C136.691 34.9146 137.586 32.4086 138.68 29.7305L140.624 24.9665L142.934 24.9081L145.244 24.8497L145.781 23.508C146.077 22.7698 146.318 22.0738 146.318 21.9609C146.318 21.8387 145.432 21.7561 144.119 21.7561C141.615 21.7561 141.765 21.974 142.659 19.633L143.193 18.2349L142.633 18.2587C142.324 18.2718 140.75 18.5199 139.133 18.8099ZM114.098 21.9808C111.691 22.196 109.628 22.5287 109.43 22.7341C109.229 22.9421 107.785 26.7886 107.875 26.8781C107.912 26.9154 108.207 26.8452 108.53 26.7224C110.786 25.8646 118.336 25.3584 120.262 25.9357C121.235 26.2271 121.921 27.0185 121.836 27.7514L121.774 28.2806L117.114 28.4051C112.275 28.5341 110.69 28.7261 108.414 29.4579C104.594 30.6866 102.644 33.1897 102.861 36.588C102.977 38.418 103.704 39.4265 105.605 40.3975C107.008 41.1139 107.06 41.1233 110.058 41.1924C112.377 41.2457 113.846 41.1547 116.293 40.8064C119.415 40.3617 121.965 40.3351 123.897 40.727L124.57 40.8635L124.573 39.7502C124.576 38.2535 124.875 37.2338 126.632 32.7338C128.406 28.1905 128.669 26.6095 127.903 25.1074C126.537 22.4286 121.599 21.3103 114.098 21.9808ZM156.053 21.8996C150.526 22.8288 145.957 26.3363 144.42 30.8303C143.707 32.9152 143.749 35.5518 144.519 37.1265C145.632 39.4008 147.786 40.9027 150.875 41.5591C153.317 42.0779 158.482 41.7202 160.759 40.8743C161.067 40.7602 161.53 40.0646 162.157 38.7759C162.674 37.7156 163.096 36.8241 163.096 36.7951C163.096 36.7661 162.466 36.9528 161.698 37.21C160.929 37.4673 159.465 37.7883 158.445 37.9236C153.421 38.5893 150.797 36.8786 151.045 33.0988L151.082 32.5318L158.693 32.4774L166.304 32.4231L166.651 31.1803C167.089 29.613 167.122 27.3139 166.726 25.9881C166.163 24.1005 164.517 22.6633 162.218 22.0512C161.201 21.7803 157.33 21.685 156.053 21.8996ZM50.9365 22.2656C44.9752 23.3557 40.169 27.2592 38.9296 32.0175C38.5665 33.4117 38.5191 35.3925 38.8227 36.4855C39.7912 39.9727 44.4305 41.9135 50.2232 41.2548C57.0967 40.4731 62.4418 36.2771 63.7767 30.6147C64.1645 28.9701 64.1651 28.3007 63.7794 27.0022C62.685 23.3166 56.8858 21.178 50.9365 22.2656ZM89.5307 22.1602C84.6466 23.0597 80.7249 25.723 78.2304 29.834C77.9885 30.2327 77.5403 31.3046 77.2344 32.216C76.7634 33.6186 76.6919 34.1273 76.7688 35.53C76.8769 37.507 77.3508 38.5655 78.6099 39.6433C80.0012 40.8341 81.1464 41.1247 84.3875 41.1088C86.8763 41.0965 87.366 41.0323 88.8407 40.5259C89.7521 40.2127 90.8124 39.7724 91.197 39.5472C91.5816 39.3221 91.9377 39.1792 91.9882 39.2297C92.2038 39.4455 91.1842 40.9984 90.2571 41.8654C89.0854 42.9613 87.4696 43.7764 85.4878 44.2706C83.4701 44.7739 78.7182 44.7708 77.0641 44.265C76.3968 44.0609 75.8278 43.923 75.7998 43.9582C75.7719 43.9934 75.4647 44.7679 75.1171 45.6792C74.7696 46.5906 74.4233 47.4903 74.3474 47.6784C74.1451 48.1807 75.7909 48.4932 79.346 48.6277C88.2169 48.9628 94.2929 46.1948 97.1761 40.5052C97.6589 39.5524 104.065 22.8899 104.065 22.5869C104.065 22.5137 103.342 22.5777 102.459 22.7292C100.841 23.0063 99.0461 22.8897 96.9187 22.369C95.7677 22.0875 90.7032 21.9441 89.5307 22.1602ZM160.425 25.8551C161.043 26.5471 161.162 27.2319 160.895 28.5654L160.766 29.2126H156.545C153.307 29.2126 152.325 29.1524 152.326 28.9537C152.328 28.23 153.962 26.341 155.09 25.7576C156.195 25.1861 156.725 25.0834 158.302 25.1345C159.73 25.1809 159.862 25.2257 160.425 25.8551ZM55.7313 25.6165C56.8127 26.1296 57.3376 27.3118 57.1853 28.8928C57.0432 30.3707 56.239 32.8264 55.4641 34.1487C53.9894 36.6649 51.7663 38.1191 49.3938 38.1191C46.7656 38.1191 45.4477 36.9248 45.4477 34.5428C45.4477 31.9523 47.0761 28.7273 49.342 26.8305C51.0152 25.4299 54.102 24.8433 55.7313 25.6165ZM94.6403 26.0003C96.0562 26.6117 96.0624 26.6325 95.4 28.5917C94.2372 32.0314 92.7975 34.4103 90.9741 35.9045C88.5849 37.8623 85.5611 38.2423 84.1684 36.7601C83.1072 35.6305 83.5228 32.3813 85.0308 30.0138C85.8117 28.788 87.5874 27.1066 88.7007 26.5386C90.7156 25.5107 93.0226 25.3017 94.6403 26.0003ZM120.22 32.0923C120.22 32.1951 119.903 33.1039 119.514 34.1118C118.988 35.4757 118.659 36.0354 118.225 36.3005C116.72 37.2216 111.997 37.6545 110.71 36.989C109.232 36.2247 109.089 34.6642 110.386 33.4415C111.028 32.8363 112.495 32.299 114.214 32.0397C115.323 31.8726 120.22 31.9154 120.22 32.0923Z" fill="#F5010B"/>
<path d="M49 54.7432C48.9971 54.5495 49.383 53.4079 49.8575 52.2059C50.3323 51.0041 50.7283 50.0217 50.7378 50.0232C50.7473 50.0244 52.1067 51.3536 53.7585 52.9764C57.259 56.4155 59.3 58.0968 62.8721 60.4829C69.3954 64.8404 76.2869 67.5579 83.8955 68.7731C87.1546 69.2939 93.6891 69.402 97.0481 68.9912C102.839 68.2829 108.157 66.7263 113.308 64.2321C119.251 61.3537 123.541 58.2938 128.667 53.2757L132.013 50L132.861 52.1696C133.328 53.3629 133.71 54.4744 133.71 54.6394C133.71 55.1715 130.577 59.1591 128.331 61.4858C120.144 69.9683 109.879 75.2077 98.2504 76.8393C89.751 78.0319 80.4143 76.8989 72.4 73.7021C63.6037 70.1934 55.9943 64.3694 50.2542 56.7523C49.5673 55.841 49.0029 54.9369 49 54.7432Z" fill="#F5010B"/>
</svg>
