<svg width="49" height="48" viewBox="0 0 49 48" fill="none" xmlns="http://www.w3.org/2000/svg">
<path d="M44.012 4.75424H3.99531C2.88366 4.75424 2.00391 5.63432 2.00391 6.74564V33.8866C2.00391 34.9518 2.88399 35.8319 3.99531 35.8319H20.0668V39.4445H16.5005C15.9448 39.4445 15.5277 39.9078 15.5277 40.4173V42.2697C15.5277 42.8254 15.9909 43.2425 16.5005 43.2425H31.4604C32.0161 43.2425 32.4332 42.8258 32.4332 42.2697V40.4173C32.4332 39.8616 32.0164 39.4445 31.4604 39.4445H27.894V35.8319H44.0119C45.077 35.8319 46.0033 34.9518 46.0033 33.8866L46.0039 6.74564C46.0039 5.68014 45.1238 4.75391 44.0125 4.75391L44.012 4.75424ZM24.0037 33.7478C23.2625 33.7478 22.6141 33.1456 22.6141 32.3583C22.6141 31.6171 23.2163 30.9687 24.0037 30.9687C24.791 30.9687 25.3932 31.5709 25.3932 32.3583C25.3467 33.1456 24.7448 33.7478 24.0037 33.7478ZM42.8541 28.9308H5.1532V7.90353H42.9004L42.9008 28.9308H42.8541Z" fill="white"/>
<path d="M22.8445 10.5H12.1919C12.053 10.5 11.9141 10.6389 11.9141 10.7778V16.8917C11.9141 17.0306 12.053 17.1695 12.1919 17.1695H22.8908C23.0297 17.1695 23.1687 17.0306 23.1687 16.8917L23.169 10.7778C23.1225 10.6389 23.0297 10.5 22.8446 10.5H22.8445Z" fill="white"/>
<path d="M35.8133 19.7148H25.1607C25.0217 19.7148 24.8828 19.8538 24.8828 19.9927V26.1065C24.8828 26.2454 25.0217 26.3844 25.1607 26.3844H35.8596C35.9985 26.3844 36.1374 26.2454 36.1374 26.1065V19.9927C36.0912 19.8072 35.9985 19.7148 35.8134 19.7148H35.8133Z" fill="white"/>
<path d="M35.8133 15.1289H25.1607C25.0217 15.1289 24.8828 15.2678 24.8828 15.4068V16.9352C24.8828 17.0741 25.0217 17.213 25.1607 17.213H35.8596C35.9985 17.213 36.1374 17.0741 36.1374 16.9352V15.4068C36.0912 15.2216 35.9985 15.1289 35.8134 15.1289H35.8133Z" fill="white"/>
<path d="M35.8133 10.543H25.1607C25.0217 10.543 24.8828 10.6819 24.8828 10.8208V12.3492C24.8828 12.4882 25.0217 12.6271 25.1607 12.6271H35.8596C35.9985 12.6271 36.1374 12.4882 36.1374 12.3492V10.8208C36.0912 10.6357 35.9985 10.543 35.8134 10.543H35.8133Z" fill="white"/>
<path d="M12.1919 21.7521H22.8908C23.0297 21.7521 23.1687 21.6132 23.1687 21.4742V19.9458C23.1687 19.8069 23.0297 19.668 22.8908 19.668H12.1919C12.053 19.668 11.9141 19.8069 11.9141 19.9458V21.4742C11.9141 21.6597 12.0068 21.7521 12.1919 21.7521Z" fill="white"/>
<path d="M12.1919 26.3341H22.8908C23.0297 26.3341 23.1687 26.1952 23.1687 26.0563V24.5278C23.1687 24.3889 23.0297 24.25 22.8908 24.25H12.1919C12.053 24.25 11.9141 24.3889 11.9141 24.5278V26.0563C11.9141 26.2414 12.0068 26.3341 12.1919 26.3341Z" fill="white"/>
</svg>
