<svg width="33" height="32" viewBox="0 0 33 32" fill="none" xmlns="http://www.w3.org/2000/svg">
<path fill-rule="evenodd" clip-rule="evenodd" d="M13.3455 25.1429C11.453 25.1429 9.91698 26.6789 9.91698 28.5715C9.91698 30.464 11.453 32 13.3455 32C15.2381 32 16.774 30.464 16.774 28.5715C16.774 26.6789 15.2381 25.1429 13.3455 25.1429ZM24.7739 25.1429C22.8814 25.1429 21.3454 26.6789 21.3454 28.5715C21.3454 30.464 22.8814 32 24.7739 32C26.6665 32 28.2025 30.464 28.2025 28.5715C28.2025 26.6789 26.6665 25.1429 24.7739 25.1429ZM4.25174 4.90286L7.66754 17.4317L8.37492 20.2602C8.75681 21.7859 10.1282 22.8569 11.7019 22.8569H28.2019C28.8328 22.8569 29.3448 22.3449 29.3448 21.714C29.3448 21.0832 28.8328 20.5712 28.2019 20.5712H11.7019C11.1772 20.5712 10.72 20.2146 10.5922 19.7061L10.2379 18.2855H26.4558C28.002 18.2855 29.3573 17.2513 29.7642 15.7588L31.9458 7.75886C32.2272 6.72801 32.0111 5.6252 31.3631 4.77597C30.7139 3.92674 29.7071 3.42853 28.6384 3.42853H6.1688L5.54713 1.56347C5.23514 0.629543 4.36197 0 3.37801 0H1.91628C1.28542 0 0.773438 0.511981 0.773438 1.14284C0.773438 1.77371 1.28542 2.28569 1.91628 2.28569H3.37801L4.25174 4.90286Z" fill="#F8A926"/>
</svg>
