<svg width="33" height="19" viewBox="0 0 33 19" fill="none" xmlns="http://www.w3.org/2000/svg">
<path d="M16.0767 0.387921C15.9076 0.323818 15.721 0.323818 15.5519 0.387921L0.273438 6.11797L1.13484 6.44349L15.6092 11.849C15.7781 11.9131 15.9649 11.9131 16.134 11.849L29.525 6.82016H29.5248C29.7178 6.74909 29.8732 6.60196 29.9546 6.41304C30.0359 6.22394 30.0359 6.01002 29.9546 5.82111C29.8732 5.63201 29.7178 5.48487 29.5248 5.4138L16.0767 0.387921Z" fill="#1E1ED1"/>
<path d="M6.97726 10.3542C6.86263 10.3122 6.7346 10.329 6.6346 10.3994C6.53478 10.4697 6.47568 10.5846 6.47657 10.7067V15.0183C6.47657 16.9055 10.6317 18.4203 15.8124 18.4203C19.3185 18.4203 22.3397 17.7151 23.9584 16.6934C24.7155 16.2047 25.1605 15.6115 25.1605 15.0187V10.6467C25.1605 10.524 25.1003 10.4094 24.9994 10.3397C24.8987 10.2701 24.77 10.2544 24.6555 10.2979L15.9409 13.5592C15.857 13.5914 15.7643 13.5914 15.6804 13.5592L6.97726 10.3542ZM30.9306 7.12079C30.7945 7.16471 30.6961 7.28346 30.6781 7.42524L30.4899 8.91981L29.8488 13.4595C29.8335 13.5666 29.8655 13.6752 29.9365 13.7568C30.0076 13.8386 30.1106 13.8852 30.2188 13.885H31.8977C32.0056 13.8848 32.1081 13.8378 32.1788 13.7564C32.2493 13.675 32.2813 13.567 32.2663 13.4602L31.4168 7.42202L31.4167 7.42184C31.4022 7.31239 31.3393 7.21507 31.2454 7.15685C31.1515 7.09864 31.0363 7.08561 30.9319 7.1215L30.9306 7.12079Z" fill="#1E1ED1"/>
</svg>
