<svg width="314" height="471" viewBox="0 0 314 471" fill="none" xmlns="http://www.w3.org/2000/svg">
<path d="M161.782 187.336C195.84 187.336 229.928 186.357 263.937 187.602C299.546 188.913 307.368 198.598 309.31 234.04C312.719 296.216 314.673 358.411 313.212 420.678C312.292 459.95 306.232 466.155 268.188 468.916C202.772 473.671 198.87 469.943 200.854 404.6C201.01 399.537 201.359 394.474 201.371 389.411C201.371 375.243 205.471 359.142 181.687 359.722C157.243 360.326 149.133 366.404 148.285 389.109C147.852 400.673 148.285 412.274 148.05 423.85C147.449 453.159 139.784 462.288 110.668 467.26C101.371 468.754 91.9641 469.443 82.55 469.321C29.5604 469.121 18.9854 459.962 16.7489 407.694C14.3441 352.037 13.2018 296.307 12.6848 240.601C12.3121 200.586 26.6325 186.986 66.1072 186.829C97.9707 186.684 129.876 186.798 161.758 186.798L161.782 187.336Z" fill="#FFA800"/>
<path d="M0 88.1537C0.174347 73.8768 9.80549 57.8599 29.5548 48.9362C61.8692 34.3331 94.5203 20.4912 126.949 6.13583C146.007 -2.32273 164.686 -1.90585 183.69 6.58293C215.409 20.751 247.477 34.1337 279.124 48.4528C302.619 59.0864 313.194 80.2208 308.811 105.306C304.002 132.936 282.124 146.306 255.906 136.277C228.852 125.951 202.027 114.925 175.844 102.63C161.524 95.8993 149.35 95.2528 134.825 102.189C110.031 114.025 84.3841 124.121 58.8753 134.41C25.4366 147.901 0.354707 131.117 0 88.1537Z" fill="#76B94A"/>
</svg>
