<svg width="45" height="45" viewBox="0 0 45 45" fill="none" xmlns="http://www.w3.org/2000/svg">
<rect x="0.792969" y="0.4375" width="44" height="44" rx="8" fill="#111111"/>
<g clip-path="url(#clip0_394_4799)">
<path d="M22.793 22.4375C22.793 21.1114 23.3198 19.8396 24.2574 18.902C25.1951 17.9643 26.4669 17.4375 27.793 17.4375C29.1191 17.4375 30.3908 17.9643 31.3285 18.902C32.2662 19.8396 32.793 21.1114 32.793 22.4375C32.793 23.7636 32.2662 25.0354 31.3285 25.973C30.3908 26.9107 29.1191 27.4375 27.793 27.4375C26.4669 27.4375 25.1951 26.9107 24.2574 25.973C23.3198 25.0354 22.793 23.7636 22.793 22.4375Z" fill="white"/>
<path d="M12.793 32.4375C12.793 31.1114 13.3198 29.8396 14.2574 28.902C15.1951 27.9643 16.4669 27.4375 17.793 27.4375H22.793V32.4375C22.793 33.7636 22.2662 35.0353 21.3285 35.973C20.3908 36.9107 19.1191 37.4375 17.793 37.4375C16.4669 37.4375 15.1951 36.9107 14.2574 35.973C13.3198 35.0353 12.793 33.7636 12.793 32.4375V32.4375Z" fill="white"/>
<path d="M22.793 7.4375V17.4375H27.793C29.1191 17.4375 30.3908 16.9107 31.3285 15.973C32.2662 15.0354 32.793 13.7636 32.793 12.4375C32.793 11.1114 32.2662 9.83965 31.3285 8.90197C30.3908 7.96428 29.1191 7.4375 27.793 7.4375H22.793Z" fill="#F3F3F4"/>
<path d="M12.793 12.4375C12.793 13.7636 13.3198 15.0354 14.2574 15.973C15.1951 16.9107 16.4669 17.4375 17.793 17.4375H22.793V7.4375H17.793C16.4669 7.4375 15.1951 7.96428 14.2574 8.90197C13.3198 9.83965 12.793 11.1114 12.793 12.4375V12.4375Z" fill="white"/>
<path d="M12.793 22.4375C12.793 23.7636 13.3198 25.0354 14.2574 25.973C15.1951 26.9107 16.4669 27.4375 17.793 27.4375H22.793V17.4375H17.793C16.4669 17.4375 15.1951 17.9643 14.2574 18.902C13.3198 19.8396 12.793 21.1114 12.793 22.4375V22.4375Z" fill="#F3F3F4"/>
</g>
<defs>
<clipPath id="clip0_394_4799">
<rect width="20" height="30" fill="white" transform="translate(12.793 7.4375)"/>
</clipPath>
</defs>
</svg>
