<svg width="39" height="20" viewBox="0 0 39 20" fill="none" xmlns="http://www.w3.org/2000/svg">
<path d="M2.21808 5.94092L2.18667 13.8547C1.63699 13.6247 1.16784 13.2373 0.8382 12.7414C0.508062 12.2455 0.332366 11.6631 0.333179 11.0675L0.342602 8.71445L0.342335 8.71418C0.345798 8.11803 0.525847 7.5368 0.859674 7.04275C1.19351 6.54925 1.66632 6.16565 2.21809 5.94081L2.21808 5.94092ZM10.3244 3.21662C10.3262 2.56658 10.07 1.94232 9.61239 1.48105C9.15451 1.01949 8.53232 0.75832 7.8823 0.754929L6.98914 0.751352C6.33909 0.750623 5.71508 1.00709 5.25381 1.46468C4.79252 1.92229 4.53109 2.54421 4.52661 3.19424L4.47314 16.6204C4.47188 17.2704 4.72834 17.8944 5.18593 18.3557C5.6438 18.8172 6.26573 19.0787 6.91548 19.0823L7.80918 19.0859C8.45895 19.088 9.08347 18.8321 9.54474 18.3745C10.0063 17.9166 10.2672 17.2941 10.2703 16.6444L10.3244 3.21662ZM38.4595 11.2196L38.4692 8.86632C38.4705 8.27016 38.2948 7.68723 37.9647 7.19079C37.6348 6.6941 37.1651 6.30671 36.6152 6.07699L36.5841 13.9933C37.1361 13.7682 37.6083 13.3846 37.9425 12.8908C38.2763 12.3973 38.4561 11.8157 38.4595 11.2196L38.4595 11.2196ZM34.2756 16.7394L34.329 3.31491C34.3314 2.66487 34.0752 2.04007 33.6173 1.57853C33.1592 1.1167 32.5367 0.855797 31.8867 0.852941L30.993 0.849365C30.3432 0.847299 29.719 1.10348 29.2574 1.56134C28.7961 2.01895 28.535 2.64113 28.5316 3.29116L28.4781 16.7173C28.476 17.3671 28.7322 17.9913 29.1901 18.4529C29.6477 18.9141 30.2699 19.1753 30.9199 19.1787L31.8131 19.1823C32.4631 19.183 33.0871 18.9265 33.5484 18.4689C34.0097 18.0114 34.2711 17.3894 34.2756 16.7394L34.2756 16.7394ZM12.6016 7.8426L12.5847 12.0671L26.2014 12.1216L26.2183 7.89711L12.6016 7.8426Z" fill="#9F47D7"/>
</svg>
