<svg width="82" height="94" viewBox="0 0 82 94" fill="none" xmlns="http://www.w3.org/2000/svg">
<path d="M35.2646 90.277C25.1163 82.558 17.554 75.3092 10.4228 66.3756C6.34778 61.2818 -0.0390033 51.8779 0.000179438 51.0159C0.000179438 50.8592 1.37158 49.7621 2.97807 48.5866C8.54202 44.5508 11.2456 40.8676 12.617 35.5779L13.4007 32.3649L12.3036 31.6205C10.6187 30.445 5.48576 25.1553 5.48576 24.5676C5.48576 24.2149 7.01389 23.8623 10.3836 23.3921C13.048 23.0003 16.3786 22.3342 17.7108 21.8248L20.1793 20.9628L20.2185 17.4363C20.2577 11.7548 22.0209 7.05289 25.3906 3.44808C26.9187 1.80241 29.544 0 30.3276 0C30.4452 0 31.0721 1.01875 31.699 2.23342C33.5014 5.79905 35.1079 7.719 37.3021 9.01203C39.9274 10.501 41.1812 10.501 43.8065 9.01203C46.0007 7.719 47.6072 5.79905 49.4096 2.2726C50.0365 1.01875 50.6635 0 50.781 0C51.5647 0 54.1899 1.80241 55.718 3.44808C59.0877 7.05289 60.851 11.7548 60.8902 17.4363L60.9293 20.9628L63.3979 21.8248C64.7301 22.3342 68.0606 23.0003 70.725 23.3921C74.0947 23.8623 75.6229 24.2149 75.6229 24.5676C75.6229 25.1553 70.4899 30.445 68.8051 31.6205L67.708 32.3649L68.4916 35.5779C69.863 40.8676 72.5666 44.5508 78.1306 48.5866C79.737 49.7621 81.1084 50.8592 81.1084 51.0159C81.1476 51.8779 74.7608 61.2818 70.6858 66.3756C63.437 75.4268 56.1099 82.4797 46.1574 90.0027C43.1796 92.197 40.6327 94.0386 40.4759 93.9994C40.3192 93.9994 37.9683 92.3145 35.2646 90.277ZM39.1829 86.9857C40.3976 86.0061 40.5935 86.0061 41.9649 87.0249L43.1012 87.8477L45.8048 85.8494C48.5868 83.7727 49.7231 82.6756 49.1353 82.6756C48.9394 82.6364 48.2733 82.2054 47.6072 81.696L46.4317 80.7164L50.9377 76.4847L55.4046 72.253L54.7776 70.0196C54.4642 68.8049 54.3075 67.7861 54.4642 67.7861C54.6601 67.7861 55.7964 69.1575 57.0502 70.8032L59.3228 73.8203L61.8305 71.0775C65.5529 67.0025 70.6467 60.6157 73.6637 56.188L76.3282 52.2698L73.4678 50.0364C71.9005 48.8217 69.9806 47.0585 69.1969 46.1181C66.6892 43.0618 64.2599 36.7142 64.2599 33.227C64.2599 32.4041 64.2207 31.738 64.1423 31.738C64.064 31.738 63.2019 32.0123 62.2224 32.3258L60.4591 32.9527L60.224 41.2594C60.0673 47.8029 59.8322 50.1931 59.2053 52.5832C57.7555 58.2255 53.8373 64.7299 48.9394 69.7453C46.0399 72.7232 41.0245 76.2104 40.1233 75.8578C38.7127 75.3092 34.5594 72.1746 32.4827 70.0587C29.0346 66.5323 26.4093 62.8883 24.2935 58.5782C21.5899 53.0926 21.198 51.0159 20.8846 41.2594L20.6495 32.9919L19.043 32.3649C18.1418 32.0123 17.319 31.738 17.2014 31.738C17.0447 31.738 16.8488 32.8351 16.7312 34.1673C16.4177 38.2424 14.4586 43.0226 11.8725 46.1573C11.1281 47.0977 9.20812 48.8217 7.64081 50.0755L4.74129 52.2698L7.32735 56.0313C11.755 62.4181 21.0413 73.6635 21.9033 73.6635C22.0601 73.6635 22.4519 73.1542 22.8437 72.5273C23.6274 71.195 26.2134 68.0212 26.6444 67.8645C26.8012 67.7861 26.6836 68.7265 26.331 69.9412L25.7041 72.1354L27.7416 74.1729C28.8387 75.3092 30.7978 77.1116 32.0908 78.1696C33.3839 79.2667 34.4418 80.3246 34.4418 80.5597C34.481 80.7948 33.8541 81.4217 33.0704 81.9703L31.699 82.989L33.3839 84.3213C36.205 86.5547 37.8115 87.7693 38.0074 87.7693C38.125 87.7693 38.6344 87.4167 39.1829 86.9857ZM47.999 68.1388C49.2921 66.7674 51.0161 64.7691 51.7998 63.6719C53.2887 61.5953 56.1882 56.0313 55.7964 56.0313C55.6788 56.0313 54.3466 56.384 52.8577 56.8542C50.4284 57.5986 50.0365 57.8337 49.1745 59.3227C48.626 60.2239 47.7639 61.3993 47.2154 61.9087L46.2358 62.8099V59.6361C46.2358 56.4623 46.2358 56.4231 47.3329 56.2272C49.9582 55.6787 54.5425 54.4248 55.7964 53.9155C56.9719 53.4453 57.1678 53.0926 57.5988 51.251C58.3041 47.9597 58.7743 42.9051 58.7743 38.0856C58.7743 32.9135 59.2445 33.1486 53.7981 35.6563C49.6447 37.5762 47.4505 39.1044 44.0024 42.4741C41.1421 45.1777 41.1421 45.1777 41.1421 47.2936V49.4094L42.631 49.1743C45.6089 48.665 46.6276 48.1948 46.6276 47.2936C46.6276 46.7058 47.2546 45.9613 48.4692 45.0601C49.7623 44.1198 50.8202 42.8267 51.8781 40.8676C52.7401 39.3003 53.5238 38.0856 53.563 38.164C53.6413 38.2424 53.4062 39.026 53.0928 39.9664C52.3091 42.1998 52.3483 42.3565 53.4846 42.0823C54.425 41.8472 54.4642 41.9255 54.2291 43.1402C53.7197 45.6871 52.9361 46.9801 51.0161 48.3515C49.919 49.1743 48.6651 50.5065 48.0774 51.6037C46.9411 53.6412 45.2562 55.8354 45.5697 54.8558C45.6873 54.5424 46.1574 53.3277 46.5885 52.1522L47.4505 50.0364L46.3142 50.2715C45.6872 50.389 44.2767 50.6241 43.1404 50.7808L41.1421 51.0551V73.7027L43.4147 72.1746C44.6293 71.3126 46.706 69.5102 47.999 68.1388ZM39.9666 62.183V51.0551L36.9495 50.389C35.2646 50.0364 32.8745 49.3311 31.6598 48.8217L29.3872 47.8813L29.5831 48.7433C30.2493 51.9955 30.7194 53.9546 30.9545 54.4248C31.1113 54.7383 32.0125 55.2868 32.9529 55.6787L34.6769 56.3448L34.7945 59.5578C34.8728 61.4385 34.7553 62.6532 34.5594 62.5357C33.5798 61.9479 30.4452 56.6974 29.5831 54.2289C28.6428 51.4861 27.3889 42.239 27.8983 41.6904C28.486 41.1027 34.481 45.9613 34.481 47.0193C34.481 47.4111 34.7161 47.8813 34.9904 48.1164C35.343 48.4299 38.987 49.3703 39.7707 49.3703C39.8882 49.3703 39.9666 48.3907 39.9666 47.176C39.9666 45.0602 39.9274 44.9426 37.7332 42.7484C34.2459 39.3003 28.6819 35.8914 23.3531 33.9323C22.6478 33.6972 22.6086 33.9323 22.8437 41.4162C23.0004 47.3719 23.2355 49.8796 23.8625 52.1522C25.6649 59.0484 30.9937 66.9633 36.7144 71.2734C38.2033 72.3705 39.4964 73.2717 39.6923 73.2717C39.849 73.2717 39.9666 68.2955 39.9666 62.183ZM47.6072 36.9101C50.6635 34.8726 53.5238 33.5012 59.7539 30.9935C62.575 29.8964 65.8272 28.4075 67.0027 27.7414L69.1577 26.4875L66.6892 26.1741C63.6721 25.8214 60.1849 24.881 58.5392 23.9015L57.2853 23.1962L55.8356 25.312C54.3466 27.4671 50.3892 31.3462 48.9002 32.169C47.8423 32.7176 48.1558 32.2474 50.7418 29.1911C53.3671 26.0957 54.6209 23.8623 55.8748 20.1399C56.7368 17.5931 56.8543 16.6135 56.6584 14.576C56.4233 11.9116 54.856 7.91491 53.6022 6.77861C52.8577 6.11251 52.8185 6.15169 51.7998 7.44472C51.212 8.18919 50.35 9.20794 49.8406 9.63895L48.9394 10.501L49.7231 11.794C50.7418 13.5964 51.0553 15.3596 50.7418 17.5539C50.35 20.4142 50.1541 20.5709 48.2733 19.6306C47.4113 19.1995 45.3738 17.789 43.7281 16.4567C42.0824 15.1637 40.6719 14.1058 40.5543 14.1058C40.4368 14.1058 39.0262 15.1637 37.3805 16.4567C34.8728 18.4551 31.8557 20.375 31.1896 20.375C31.1113 20.375 30.837 19.4738 30.5627 18.4159C29.975 16.0257 30.2884 13.5572 31.3856 11.794L32.1692 10.501L30.3276 8.50265C29.3089 7.36635 28.4077 6.38679 28.3293 6.30842C28.0942 5.95578 26.9187 7.32717 26.0567 9.05121C24.6461 11.794 24.0976 15.3988 24.6461 18.1024C25.3514 21.3938 27.8199 26.0957 30.5627 29.3087C31.8949 30.9152 32.9137 32.2866 32.7961 32.3649C32.2084 32.9527 25.6257 26.37 24.2935 23.9015C23.9016 23.157 23.8625 23.157 22.6086 23.9015C20.9629 24.881 17.4757 25.8214 14.4194 26.1741L11.9509 26.4875L14.106 27.7414C15.2814 28.4075 18.5336 29.8964 21.3548 30.9935C30.5627 34.6767 34.6377 37.0669 38.5952 41.1027L40.5151 43.101L42.9053 40.7892C44.1983 39.5354 46.3142 37.7722 47.6072 36.9101Z" fill="#AD1919"/>
<path d="M48.2738 47.3724C48.3913 46.1969 48.5481 46.0402 49.6844 45.9226C50.6248 45.8443 50.9382 45.6092 50.9382 45.0606C50.9382 44.3161 52.3488 43.219 52.7798 43.65C53.3284 44.1986 51.4084 46.9022 49.8411 47.7642L48.1562 48.6654L48.2738 47.3724Z" fill="#880404"/>
</svg>
