<svg width="134" height="48" viewBox="0 0 134 48" fill="none" xmlns="http://www.w3.org/2000/svg">
<path fill-rule="evenodd" clip-rule="evenodd" d="M133.768 6.04125C133.763 5.96623 133.739 5.89355 133.699 5.82998C133.658 5.76641 133.601 5.71407 133.535 5.67763C133.233 5.52826 132.793 5.42646 131.897 5.42646C129.876 5.42646 128.088 6.41359 127.308 8.06533V6.04772C127.308 6.00613 127.3 5.9649 127.284 5.92643C127.268 5.88796 127.244 5.8531 127.214 5.82363C127.184 5.79417 127.149 5.77075 127.11 5.7548C127.071 5.73884 127.029 5.73062 126.987 5.73062H123.96C123.918 5.73062 123.876 5.73884 123.837 5.7548C123.798 5.77075 123.762 5.79417 123.732 5.82363C123.702 5.8531 123.679 5.88796 123.663 5.92643C123.647 5.9649 123.638 6.00613 123.639 6.04772V19.6492C123.639 19.8235 123.782 19.9652 123.96 19.9652H127.131C127.173 19.9652 127.215 19.9571 127.254 19.9412C127.293 19.9253 127.328 19.902 127.358 19.8726C127.388 19.8433 127.412 19.8084 127.428 19.7701C127.444 19.7317 127.452 19.6907 127.452 19.6492V13.5315C127.452 10.7984 129.384 9.44 131.897 9.44C132.484 9.44 133.069 9.56778 133.363 9.66303C133.564 9.72797 133.768 9.56553 133.768 9.35662V6.04125ZM113.506 16.6271C111.338 16.6271 109.663 15.1194 109.663 12.842C109.663 10.5647 111.34 9.05577 113.506 9.05577C115.672 9.05577 117.348 10.5647 117.348 12.842C117.348 15.1194 115.672 16.6282 113.506 16.6282V16.6271ZM113.506 5.38206C109.056 5.38206 105.735 8.40097 105.735 12.842C105.735 17.2831 109.058 20.3008 113.506 20.3008C117.953 20.3008 121.276 17.2831 121.276 12.8431C121.276 8.40094 117.953 5.38206 113.506 5.38206ZM95.864 16.6282C93.6964 16.6282 92.0206 15.1194 92.0206 12.842C92.0206 10.5647 93.6964 9.05577 95.864 9.05577C98.0305 9.05577 99.7051 10.5647 99.7051 12.842C99.7051 15.1194 98.0305 16.6282 95.864 16.6282ZM95.864 5.38206C91.4144 5.38206 88.0915 8.40097 88.0915 12.842C88.0915 17.2831 91.4144 20.3008 95.864 20.3008C100.311 20.3008 103.634 17.2831 103.634 12.842C103.634 8.40097 100.311 5.38206 95.864 5.38206ZM78.2461 16.6628C76.0797 16.6628 74.4611 15.154 74.4611 12.8485C74.4611 10.5419 76.0797 9.03304 78.2461 9.03304C80.3851 9.03304 82.0311 10.4856 82.0311 12.8485C82.0311 15.1822 80.3851 16.6628 78.2461 16.6628ZM85.4079 0.0371898H82.2369C82.1517 0.0371898 82.07 0.0705393 82.0097 0.129812C81.9494 0.189085 81.9156 0.269417 81.9156 0.353242V7.78073C80.9331 6.41366 79.3156 5.35933 77.0633 5.35933C73.538 5.35933 70.5331 8.03726 70.5331 12.8485C70.5331 17.6598 73.5369 20.3355 77.1194 20.3355C79.2287 20.3355 80.8758 19.4241 81.9167 17.9726V19.6492C81.9167 19.8235 82.0597 19.9652 82.2357 19.9652H85.4079C85.5839 19.9652 85.7281 19.8245 85.7281 19.6492V0.353242C85.7281 0.269605 85.6944 0.18945 85.6344 0.130208C85.5744 0.0709667 85.4929 0.0374763 85.4079 0.0371898V0.0371898ZM68.4326 15.6563C68.4326 18.9035 66.0351 20.2975 62.194 20.2975C59.539 20.2975 57.2559 19.594 55.9499 18.1371C55.9005 18.08 55.8728 18.0078 55.8714 17.9328C55.87 17.8579 55.895 17.7847 55.9422 17.7258L57.7753 15.3813C57.8035 15.3459 57.8393 15.3169 57.88 15.2965C57.9208 15.276 57.9656 15.2645 58.0113 15.2628C58.0571 15.261 58.1026 15.269 58.1449 15.2863C58.1871 15.3036 58.2251 15.3298 58.256 15.3629C59.2243 16.3403 60.7141 16.9378 62.5692 16.9378C63.6365 16.9378 64.5035 16.6542 64.5035 15.8564C64.5035 15.0879 63.7245 14.917 61.2973 14.4039C59.1594 13.9775 56.5011 13.0098 56.5011 9.90654C56.5011 7.03061 58.8139 5.37995 62.5967 5.37995C65.0866 5.37995 66.8768 6.12032 68.1378 7.28498C68.2588 7.39647 68.2698 7.5848 68.1675 7.7136L66.4279 9.93905C66.4024 9.97321 66.37 10.0017 66.3327 10.0229C66.2954 10.0442 66.2541 10.0575 66.2112 10.0622C66.1684 10.0669 66.1251 10.0628 66.084 10.0502C66.0429 10.0375 66.0049 10.0166 65.9724 9.98873C65.1196 9.23863 63.7014 8.76786 62.3084 8.76786C61.1245 8.76786 60.46 9.13809 60.46 9.76371C60.46 10.4759 61.2411 10.6469 63.8114 11.1881C66.3234 11.7293 68.4326 12.6677 68.4326 15.6573V15.6563ZM53.7702 15.6648C53.7702 18.911 51.3715 20.3063 47.5304 20.3063C44.8765 20.3063 42.5934 19.6026 41.2874 18.1446C41.2381 18.0877 41.2104 18.0158 41.2088 17.941C41.2072 17.8663 41.2318 17.7933 41.2786 17.7344L43.1117 15.3888C43.1401 15.3536 43.176 15.3249 43.2168 15.3047C43.2576 15.2844 43.3024 15.2731 43.3481 15.2715C43.3937 15.2699 43.4392 15.2779 43.4814 15.2951C43.5236 15.3124 43.5615 15.3385 43.5925 15.3715C44.5619 16.3478 46.0516 16.9465 47.9056 16.9465C48.974 16.9465 49.8411 16.6629 49.8411 15.8641C49.8411 15.0956 49.061 14.9256 46.6348 14.4125C44.4959 13.985 41.8375 13.0173 41.8375 9.91513C41.8375 7.0392 44.1503 5.38853 47.9342 5.38853C50.4231 5.38853 52.2122 6.12782 53.4742 7.29357C53.5953 7.40505 53.6062 7.5923 53.505 7.72219L51.7644 9.94764C51.6543 10.0883 51.4453 10.1165 51.3099 9.99745C50.4561 9.24735 49.039 8.77539 47.646 8.77539C46.461 8.77539 45.7964 9.14667 45.7964 9.7723C45.7964 10.4845 46.5776 10.6556 49.1479 11.1968C51.661 11.7369 53.7691 12.6763 53.7691 15.6648H53.7702ZM34.7649 14.2145C34.7649 15.7796 33.4666 17.1467 31.4431 17.1467C30.114 17.1467 29.3922 16.5481 29.3922 15.6367C29.3922 14.8401 29.9995 14.2415 31.1834 14.0704L34.7649 13.6441V14.2134V14.2145ZM32.2529 5.41668C29.2271 5.41668 26.9485 6.41464 25.9296 8.38786C25.896 8.45633 25.888 8.53431 25.9071 8.60798C25.9262 8.68166 25.9712 8.74636 26.0341 8.79058L28.3458 10.4185C28.4911 10.5203 28.6957 10.4866 28.7826 10.3319C29.4252 9.19318 30.8621 8.80459 32.2529 8.80459C33.9572 8.80459 34.7649 9.40214 34.7649 10.228V10.4553C34.7649 10.7973 34.5635 10.9683 34.0145 11.0257L30.0568 11.3667C27.3996 11.6221 25.4355 13.2458 25.4355 15.836C25.4355 18.4554 27.4568 20.2769 30.3164 20.2769C32.5698 20.2769 34.0145 19.1957 34.7649 18.057V19.6763C34.7649 19.8516 34.9079 19.9934 35.0862 19.9934H38.2572C38.3424 19.9934 38.4242 19.96 38.4844 19.9008C38.5447 19.8415 38.5785 19.7612 38.5785 19.6773V11.1957C38.5785 7.23848 36.4692 5.41668 32.2518 5.41668H32.2529ZM22.819 0.352185V19.6481C22.819 19.8224 22.676 19.9642 22.4978 19.9642H19.2981C19.2129 19.9642 19.1312 19.9308 19.0709 19.8716C19.0107 19.8123 18.9768 19.732 18.9768 19.6481V0.346767C18.9768 0.174666 19.1177 0.0361328 19.2915 0.0361328H22.4978C22.6749 0.0361328 22.819 0.176836 22.819 0.352185V0.352185ZM8.34585 16.6478C6.17828 16.6478 4.56085 15.1388 4.56085 12.8333C4.56085 10.5278 6.17938 9.01785 8.34585 9.01785C10.5134 9.01785 12.1011 10.4705 12.1011 12.8333C12.1011 15.167 10.5123 16.6478 8.34585 16.6478ZM15.5065 5.71542H12.3399C12.2535 5.71542 12.1707 5.74928 12.1096 5.80936C12.0486 5.86945 12.0142 5.95086 12.0142 6.03583V7.70924C11.2055 6.42768 9.52975 5.37347 7.30607 5.37347C3.72353 5.37347 0.632812 8.02206 0.632812 12.777C0.632812 17.5017 3.57937 20.092 7.42158 20.092C9.50113 20.092 11.1185 19.2379 12.0725 17.9001V18.8114C12.0725 20.8603 11.0602 22.484 7.82539 22.484C6.19916 22.484 4.89313 21.9504 3.74772 20.9513C3.71353 20.9203 3.67273 20.8971 3.62832 20.8834C3.58391 20.8697 3.53701 20.8659 3.49092 20.8722C3.44482 20.8785 3.4007 20.8948 3.36178 20.9199C3.32285 20.945 3.29008 20.9783 3.26581 21.0174L1.82994 23.39C1.64399 23.6963 1.66926 23.8695 1.78589 23.9702C3.26248 25.2334 5.18142 26.0137 7.97065 26.0137C14.0365 26.0137 15.8278 22.6843 15.8278 19.0106V6.03266C15.828 5.99107 15.8198 5.94984 15.8037 5.91137C15.7876 5.8729 15.764 5.8379 15.7341 5.80844C15.7043 5.77898 15.6688 5.75555 15.6298 5.7396C15.5907 5.72365 15.5488 5.71542 15.5065 5.71542V5.71542Z" fill="#75B94A"/>
<rect x="48.2598" y="31.4258" width="14.0712" height="14.0712" rx="0.541199" fill="#75B94A"/>
<path d="M55.295 32.5088L56.6316 36.6223H60.9568L57.4576 39.1647L58.7942 43.2782L55.295 40.7359L51.7958 43.2782L53.1324 39.1647L49.6332 36.6223H53.9584L55.295 32.5088Z" fill="white"/>
<rect x="64.4961" y="31.4258" width="14.0712" height="14.0712" rx="0.541199" fill="#75B94A"/>
<path d="M71.5313 32.5088L72.8679 36.6223H77.1931L73.6939 39.1647L75.0305 43.2782L71.5313 40.7359L68.0321 43.2782L69.3687 39.1647L65.8695 36.6223H70.1947L71.5313 32.5088Z" fill="white"/>
<rect x="80.7285" y="31.4258" width="14.0712" height="14.0712" rx="0.541199" fill="#75B94A"/>
<path d="M87.7637 32.5088L89.1003 36.6223H93.4256L89.9264 39.1647L91.2629 43.2782L87.7637 40.7359L84.2645 43.2782L85.6011 39.1647L82.1019 36.6223H86.4272L87.7637 32.5088Z" fill="white"/>
<rect x="96.9668" y="31.4258" width="14.0712" height="14.0712" rx="0.541199" fill="#75B94A"/>
<path d="M104.002 32.5088L105.339 36.6223H109.664L106.165 39.1647L107.501 43.2782L104.002 40.7359L100.503 43.2782L101.839 39.1647L98.3402 36.6223H102.665L104.002 32.5088Z" fill="white"/>
<rect x="113.203" y="31.4258" width="14.0712" height="14.0712" rx="0.541199" fill="#F2F3F2"/>
<path d="M113.203 31.967C113.203 31.6681 113.445 31.4258 113.744 31.4258H125.11V45.497H113.744C113.445 45.497 113.203 45.2547 113.203 44.9558V31.967Z" fill="#75B94A"/>
<path d="M120.238 32.5088L121.575 36.6223H125.9L122.401 39.1647L123.738 43.2782L120.238 40.7359L116.739 43.2782L118.076 39.1647L114.577 36.6223H118.902L120.238 32.5088Z" fill="white"/>
<path d="M3.51509 40.5647V39.4444L9.21392 31.5538H10.9836V39.2821H12.6072V40.5647H10.9836V43.1787H9.5224V40.5647H3.51509ZM9.58735 33.0962L5.21987 39.2821H9.58735V33.0962ZM14.7976 43.2761C14.5161 43.2761 14.278 43.1787 14.0832 42.9839C13.8884 42.789 13.7909 42.5509 13.7909 42.2695C13.7909 41.9881 13.8884 41.7499 14.0832 41.5551C14.278 41.3603 14.5161 41.2629 14.7976 41.2629C15.0682 41.2629 15.2955 41.3603 15.4795 41.5551C15.6743 41.7499 15.7717 41.9881 15.7717 42.2695C15.7717 42.5509 15.6743 42.789 15.4795 42.9839C15.2955 43.1787 15.0682 43.2761 14.7976 43.2761ZM19.6353 37.074C19.0291 36.8359 18.5637 36.4895 18.239 36.0349C17.9142 35.5803 17.7519 35.0282 17.7519 34.3788C17.7519 33.7943 17.898 33.2694 18.1903 32.8039C18.4825 32.3277 18.9155 31.9542 19.4891 31.6836C20.0736 31.4022 20.7772 31.2615 21.5998 31.2615C22.4224 31.2615 23.1206 31.4022 23.6943 31.6836C24.2787 31.9542 24.7171 32.3277 25.0094 32.8039C25.3124 33.2694 25.464 33.7943 25.464 34.3788C25.464 35.0066 25.2962 35.5586 24.9607 36.0349C24.6251 36.5003 24.1651 36.8467 23.5806 37.074C24.2517 37.2796 24.7821 37.6422 25.1717 38.1618C25.5722 38.6705 25.7725 39.2875 25.7725 40.0127C25.7725 40.7163 25.5993 41.3332 25.2529 41.8636C24.9065 42.3831 24.414 42.789 23.7754 43.0813C23.1476 43.3627 22.4224 43.5034 21.5998 43.5034C20.7772 43.5034 20.052 43.3627 19.4242 43.0813C18.8072 42.789 18.3256 42.3831 17.9792 41.8636C17.6328 41.3332 17.4596 40.7163 17.4596 40.0127C17.4596 39.2875 17.6545 38.6651 18.0441 38.1456C18.4338 37.626 18.9642 37.2688 19.6353 37.074ZM24.0352 34.5574C24.0352 33.8971 23.8187 33.3884 23.3858 33.0312C22.9528 32.674 22.3575 32.4954 21.5998 32.4954C20.853 32.4954 20.2631 32.674 19.8301 33.0312C19.3971 33.3884 19.1807 33.9026 19.1807 34.5736C19.1807 35.1798 19.4025 35.6669 19.8463 36.0349C20.3009 36.4029 20.8854 36.5869 21.5998 36.5869C22.325 36.5869 22.9095 36.4029 23.3533 36.0349C23.8079 35.656 24.0352 35.1635 24.0352 34.5574ZM21.5998 37.7234C20.7988 37.7234 20.144 37.9128 19.6353 38.2917C19.1265 38.6597 18.8722 39.2171 18.8722 39.964C18.8722 40.6567 19.1157 41.2142 19.6028 41.6363C20.1007 42.0584 20.7664 42.2695 21.5998 42.2695C22.4333 42.2695 23.0935 42.0584 23.5806 41.6363C24.0677 41.2142 24.3112 40.6567 24.3112 39.964C24.3112 39.2388 24.0623 38.6868 23.5644 38.3079C23.0665 37.9183 22.4116 37.7234 21.5998 37.7234Z" fill="#75B94A"/>
<line x1="37.9748" y1="29.2617" x2="37.9748" y2="47.6625" stroke="#75B94A" stroke-width="1.0824"/>
</svg>
