<svg width="48" height="48" viewBox="0 0 48 48" fill="none" xmlns="http://www.w3.org/2000/svg">
<path d="M13.34 28H8C5.8 28 4 29.8 4 32V42C4 43.1 4.9 44 6 44H13.34C14.44 44 15.34 43.1 15.34 42V30C15.34 28.9 14.44 28 13.34 28Z" fill="#202020"/>
<path d="M26.6598 20H21.3198C19.1198 20 17.3198 21.8 17.3198 24V42C17.3198 43.1 18.2198 44 19.3198 44H28.6598C29.7598 44 30.6598 43.1 30.6598 42V24C30.6598 21.8 28.8798 20 26.6598 20Z" fill="#202020"/>
<path d="M40.0002 34H34.6602C33.5602 34 32.6602 34.9 32.6602 36V42C32.6602 43.1 33.5602 44 34.6602 44H42.0002C43.1002 44 44.0002 43.1 44.0002 42V38C44.0002 35.8 42.2002 34 40.0002 34Z" fill="#202020"/>
<path d="M30.0209 9.70094C30.6409 9.08094 30.8809 8.34094 30.6809 7.70094C30.4809 7.06094 29.8609 6.60094 28.9809 6.46094L27.0609 6.14094C26.9809 6.14094 26.8009 6.00094 26.7609 5.92094L25.7009 3.80094C24.9009 2.18094 23.0809 2.18094 22.2809 3.80094L21.2209 5.92094C21.2009 6.00094 21.0209 6.14094 20.9409 6.14094L19.0209 6.46094C18.1409 6.60094 17.5409 7.06094 17.3209 7.70094C17.1209 8.34094 17.3609 9.08094 17.9809 9.70094L19.4609 11.2009C19.5409 11.2609 19.6009 11.5009 19.5809 11.5809L19.1609 13.4209C18.8409 14.8009 19.3609 15.4209 19.7009 15.6609C20.0409 15.9009 20.7809 16.2209 22.0009 15.5009L23.8009 14.4409C23.8809 14.3809 24.1409 14.3809 24.2209 14.4409L26.0009 15.5009C26.5609 15.8409 27.0209 15.9409 27.3809 15.9409C27.8009 15.9409 28.1009 15.7809 28.2809 15.6609C28.6209 15.4209 29.1409 14.8009 28.8209 13.4209L28.4009 11.5809C28.3809 11.4809 28.4409 11.2609 28.5209 11.2009L30.0209 9.70094Z" fill="#202020"/>
</svg>
