<svg width="29" height="33" viewBox="0 0 29 33" fill="none" xmlns="http://www.w3.org/2000/svg">
<path d="M0.773646 19.3004C0.767526 21.1393 1.27673 22.9432 2.24371 24.5076C3.21071 26.072 4.5967 27.3336 6.24475 28.15L14.6242 32.3398L23.0041 28.15C24.6521 27.3335 26.0381 26.0719 27.0052 24.5076C27.9722 22.9432 28.4814 21.1394 28.4752 19.3004V4.95496L14.6238 0.339844L0.773438 4.95977L0.773646 19.3004ZM4.73103 7.80964L14.6242 4.51041L24.5174 7.80964L24.5178 19.3004C24.5215 20.4034 24.2163 21.485 23.6365 22.423C23.0571 23.3615 22.226 24.1183 21.2382 24.6084L14.6243 27.9174L8.01077 24.6084C7.02296 24.1184 6.19184 23.3614 5.61202 22.423C5.03264 21.485 4.72744 20.4034 4.73112 19.3004L4.73103 7.80964Z" fill="#22C3E7"/>
<path d="M12.6472 22.7088H16.6046V18.2569H21.0564V14.2995H16.6046V9.84766H12.6472V14.2995H8.19531V18.2569H12.6472V22.7088Z" fill="#22C3E7"/>
</svg>
