<svg width="162" height="90" viewBox="0 0 162 90" fill="none" xmlns="http://www.w3.org/2000/svg">
<path fill-rule="evenodd" clip-rule="evenodd" d="M80.7692 0C125.363 0 161.557 20.1641 161.557 45.0019C161.557 69.8434 125.363 90 80.7692 90C36.1939 90 0 69.8434 0 45.0019C0 20.1641 36.1939 0 80.7692 0ZM80.7692 4.05914C38.449 4.05914 4.07793 22.438 4.07793 45.0019C4.07793 67.5752 38.449 85.9108 80.7692 85.9108C123.089 85.9108 157.461 67.5752 157.461 45.0019C157.461 22.438 123.089 4.05914 80.7692 4.05914ZM66.5811 49.3222H50.6828C50.8707 53.2348 53.0694 55.0482 56.3581 55.0482C58.8011 55.0482 60.4736 53.6726 60.9058 52.2877H66.1113C64.777 57.0214 60.9058 59.2126 56.1326 59.2126C49.3673 59.2126 45.1579 54.5578 45.1579 47.9091C45.1579 41.4689 49.6116 36.5642 56.1326 36.5642C63.4615 36.5642 66.9945 42.7149 66.5811 49.3222ZM55.9822 40.6195C52.6748 40.6195 50.9835 42.8201 50.7204 45.6352H61.0373C60.6427 42.6303 59.3836 40.6195 55.9822 40.6195ZM135.417 49.3222H119.519C119.688 53.2348 121.906 55.0482 125.175 55.0482C127.637 55.0482 129.31 53.6726 129.742 52.2877H134.947C133.613 57.0214 129.742 59.2126 124.969 59.2126C118.185 59.2126 113.994 54.5578 113.994 47.9091C113.994 41.4689 118.448 36.5642 124.969 36.5642C132.298 36.5642 135.831 42.7149 135.417 49.3222ZM124.8 40.6195C121.511 40.6195 119.82 42.8201 119.538 45.6352H129.873C129.479 42.6303 128.22 40.6195 124.8 40.6195ZM17.3453 58.63H23.2461V45.8306H35.9872V58.63H41.888V28.9025H35.9872V41.0743H23.2461V28.9025H17.3453V58.63ZM69.8321 58.63H75.3947V47.0089C75.3947 42.6453 76.9356 40.8582 80.1303 40.8582C82.874 40.8582 84.1143 42.604 84.1143 46.1351V58.63H89.658V45.4153C89.658 40.0971 88.0794 36.5642 81.784 36.5642C79.3034 36.5642 76.7101 37.7293 75.2255 40.1384H75.094V37.1467H69.8321V58.63ZM94.3936 58.63H99.9374V46.9957L108.131 58.63H115.028L106.007 46.5748L113.994 37.1467H107.379L99.9374 46.4094V28.9025H94.3936V58.63ZM138.668 58.63H144.212V28.9025H138.668V58.63Z" fill="#EC1B23"/>
</svg>
