<svg width="184" height="92" viewBox="0 0 184 92" fill="none" xmlns="http://www.w3.org/2000/svg">
<path d="M151.119 37.6868L150.473 38.2921L150.312 38.2114C150.191 38.1307 149.989 38.0096 149.706 37.7675C149.424 37.6061 149.02 37.5254 148.455 37.5254C147.447 37.5254 146.64 37.7675 146.034 38.2921C145.591 38.6956 145.308 39.2201 145.187 39.8254L142.887 50.8816C142.766 51.4062 142.927 51.8097 143.291 52.1728C143.654 52.536 144.219 52.7377 144.945 52.7377C145.47 52.7377 145.913 52.6974 146.317 52.5763C146.68 52.4956 147.003 52.3342 147.245 52.1728L147.77 51.8097L147.648 52.4553C147.608 52.5763 147.608 52.6974 147.568 52.8184C147.487 53.343 147.406 53.6255 147.326 53.7465C147.003 54.1904 146.519 54.3921 145.792 54.3921H107.217L107.055 54.836C106.611 55.9658 106.289 56.6518 106.127 56.8939C105.966 57.136 105.764 57.3378 105.522 57.5395H145.913C145.994 57.5395 147.205 57.4992 147.648 57.4588C148.092 57.4185 148.496 57.3378 148.819 57.1764C149.343 56.9342 149.747 56.6518 150.029 56.2886C150.231 56.0465 150.513 54.3518 150.675 53.4641C150.756 53.0605 150.796 52.6974 150.877 52.4553L153.943 37.6061H151.119V37.6868ZM150.11 40.471L148.133 50.1149C148.092 50.3974 147.971 50.5991 147.77 50.7605C147.608 50.9219 147.366 51.0026 147.084 51.0026C146.801 51.0026 146.559 50.9219 146.438 50.7605C146.277 50.5991 146.236 50.3167 146.317 49.9939L148.294 40.3903C148.415 39.785 148.778 39.4622 149.343 39.4622C149.666 39.4622 149.868 39.5429 149.989 39.7447C150.15 39.9465 150.191 40.1886 150.11 40.471V40.471Z" fill="#EA5937"/>
<path d="M111.615 37.4446L105.522 52.7377C105.078 53.8272 104.15 56.3289 103.989 56.571C103.706 57.0149 103.222 57.3781 102.496 57.7009C102.294 57.7816 102.052 57.8623 101.81 57.8623C101.568 57.9026 101.204 57.9026 100.76 57.9026H66.0586L66.8253 54.1903H99.6307C99.671 54.1903 99.7114 54.1903 99.7517 54.1903C99.7921 54.1903 99.8324 54.1903 99.8728 54.1903H99.9938C100.034 54.1903 100.075 54.1903 100.115 54.15C100.922 53.9886 101.527 53.343 101.648 52.5359C101.769 51.7289 101.285 37.4043 101.285 37.4043H105.038L104.957 45.5149L107.862 37.4043H111.615" fill="#EA5937"/>
<path d="M59.3199 57.6204H64.0409L68.8831 34.2168H64.162L62.1848 43.7396H60.1672L62.1444 34.2168H57.4637L52.6216 57.6204H57.3023L59.683 46.1204H61.7006L59.3199 57.6204Z" fill="#EA5937"/>
<path d="M82.9658 52.5757H86.1938L88.8974 39.502C89.0184 38.9774 88.8974 38.5335 88.5342 38.1704C88.171 37.8072 87.6061 37.6055 86.8798 37.6055C86.3956 37.6055 85.9114 37.6458 85.5079 37.7669C85.1044 37.8879 84.7816 38.009 84.5798 38.1704L84.0552 38.5335L84.2166 37.6862H80.9886L77.9219 52.5354H81.15L83.6517 40.3897C83.7324 40.1072 83.8131 39.8651 84.0149 39.7037C84.2166 39.5423 84.4184 39.4616 84.7008 39.4616C84.9833 39.4616 85.1851 39.5423 85.3465 39.7037C85.5079 39.8651 85.5482 40.1476 85.4675 40.4704L82.9658 52.5757Z" fill="#EA5937"/>
<path d="M95.8781 37.6055C94.5868 37.6055 93.5377 37.8476 92.7307 38.2914C91.843 38.816 91.2781 39.5827 91.0763 40.6721L89.1395 49.8318C88.8973 50.9213 89.1395 51.6476 89.7851 52.1318C90.35 52.5354 91.3184 52.7775 92.5693 52.7775C93.8605 52.7775 94.9097 52.5757 95.6763 52.1722C96.6044 51.688 97.2097 50.9213 97.4114 49.8722L97.7746 48.4599H94.5465L94.143 49.9529C94.0623 50.2353 93.9816 50.4775 93.7798 50.6389C93.5781 50.8406 93.336 50.9213 93.0535 50.9213C92.65 50.9213 92.4886 50.7599 92.3675 50.5985C92.2465 50.3968 92.2465 50.1546 92.2868 49.8318L93.0535 46.0792H98.1377L99.3079 40.43C99.5097 39.3809 99.2676 38.6546 98.5816 38.2107C98.0974 37.8072 97.129 37.6055 95.8781 37.6055V37.6055ZM95.3939 44.223H93.5377L94.3447 40.3897C94.4254 40.0669 94.5465 39.8248 94.7483 39.6634C94.95 39.502 95.1921 39.4213 95.4342 39.4213C95.8377 39.4213 95.9991 39.5827 96.1202 39.7441C96.2412 39.9458 96.2816 40.1879 96.2009 40.5107L95.3939 44.223Z" fill="#EA5937"/>
<path d="M74.6532 37.6055C73.362 37.6055 72.3129 37.8476 71.4655 38.2914C70.5374 38.816 69.9725 39.5827 69.7304 40.6721L67.8742 49.8318C67.6725 50.9213 67.8742 51.6476 68.5602 52.1318C69.1655 52.5354 70.1339 52.7775 71.4251 52.7775C72.7164 52.7775 73.7655 52.5757 74.4918 52.1722C75.4199 51.688 75.9445 50.9617 76.1866 49.8722L78.1234 40.3897C78.3252 39.4616 78.0831 38.816 77.4374 38.3318C76.7918 37.8476 75.8234 37.6055 74.6532 37.6055V37.6055ZM71.869 50.9213C71.4655 50.9213 71.3041 50.7599 71.183 50.5985C71.062 50.3968 71.062 50.1546 71.1023 49.8318L73.0392 40.43C73.1199 40.1072 73.2409 39.8651 73.4427 39.7037C73.6444 39.5423 73.8462 39.4616 74.0883 39.4616C74.4918 39.4616 74.6532 39.623 74.7743 39.7844C74.8953 39.9862 74.9357 40.2283 74.855 40.5511L72.9181 49.9125C72.8374 50.195 72.7567 50.4371 72.555 50.6389C72.3936 50.8406 72.1515 50.9213 71.869 50.9213Z" fill="#EA5937"/>
<path d="M114.52 52.5361C114.803 52.6975 115.246 52.7782 115.852 52.7782C116.901 52.7782 117.789 52.4958 118.515 51.9712C119.12 51.5274 119.483 51.0028 119.604 50.4379L121.904 39.3817C122.025 38.8571 121.864 38.4536 121.501 38.0905C121.138 37.7273 120.573 37.5255 119.846 37.5255C119.322 37.5255 118.878 37.5659 118.474 37.6466C118.111 37.7273 117.789 37.8484 117.546 38.0501L116.982 38.4536L117.869 34.0957H114.641L110.848 52.5765H113.269L113.794 51.9712L113.996 52.1326C114.036 52.173 114.238 52.3344 114.52 52.5361V52.5361ZM115.367 50.9221C115.045 50.9221 114.843 50.8414 114.722 50.6396C114.601 50.4379 114.56 50.1958 114.641 49.9133L116.618 40.3501C116.699 40.0677 116.82 39.8256 116.982 39.7045C117.143 39.5431 117.385 39.4624 117.667 39.4624C117.95 39.4624 118.152 39.5431 118.313 39.7045C118.474 39.8659 118.515 40.1484 118.434 40.4712L116.457 49.994C116.376 50.2765 116.296 50.5186 116.094 50.68C115.892 50.8414 115.65 50.9221 115.367 50.9221V50.9221Z" fill="#EA5937"/>
<path d="M128.159 39.4623C128.522 39.4623 128.724 39.6237 128.805 39.7851C128.926 39.9868 128.966 40.229 128.885 40.5518L128.401 42.8518C128.32 43.1746 127.917 43.6184 125.375 44.7483C123.599 45.5149 122.59 46.4834 122.348 47.6132L121.703 50.7202C121.541 51.4465 121.622 51.9711 121.945 52.2939C122.268 52.6167 122.994 52.8185 124.003 52.8185C124.648 52.8185 125.173 52.7781 125.536 52.6571C125.859 52.5764 126.141 52.3746 126.343 52.0922L127.069 51.1237L126.747 52.5764H129.531L132.033 40.5518C132.275 39.4623 132.073 38.6956 131.468 38.2518C130.943 37.8482 130.015 37.6465 128.764 37.6465C127.473 37.6465 126.424 37.8482 125.617 38.2518C124.648 38.736 124.083 39.5026 123.841 40.5518L123.276 43.2956H126.424L126.989 40.4711C127.069 40.1482 127.191 39.9061 127.392 39.7447C127.675 39.543 127.917 39.4623 128.159 39.4623ZM125.899 50.922C125.617 50.922 125.375 50.8413 125.213 50.6395C125.052 50.4781 125.012 50.1957 125.092 49.9132L125.657 47.129C125.738 46.7658 125.899 46.4834 126.141 46.2816C126.383 46.0799 126.787 45.9184 127.392 45.757L127.796 45.6763L126.908 50.0343C126.868 50.3167 126.706 50.5588 126.545 50.7202C126.383 50.8413 126.141 50.922 125.899 50.922Z" fill="#EA5937"/>
<path d="M137.48 37.6062C136.713 37.6062 136.068 37.808 135.503 38.1712C134.978 38.5343 134.655 38.9782 134.534 39.5431L132.234 50.5993C132.113 51.1642 132.275 51.6888 132.718 52.1326C133.162 52.5765 133.929 52.8186 134.938 52.8186C135.543 52.8186 136.068 52.7379 136.431 52.5765C136.471 52.5765 136.592 52.4958 137.157 52.1326L137.399 51.9712L137.682 52.6168H140.143L143.976 34.0957H140.748L139.861 38.4133L139.497 38.0905C139.336 37.9694 139.094 37.8484 138.731 37.7273C138.408 37.6466 137.964 37.6062 137.48 37.6062ZM136.39 50.9221C136.068 50.9221 135.866 50.8414 135.745 50.6396C135.624 50.4379 135.583 50.1958 135.664 49.9133L137.641 40.3905C137.762 39.7852 138.125 39.4624 138.69 39.4624C139.054 39.4624 139.215 39.6238 139.336 39.7448C139.497 39.9466 139.538 40.1484 139.457 40.4712L137.48 50.0344C137.44 50.3168 137.318 50.5589 137.117 50.7203C136.915 50.8414 136.673 50.9221 136.39 50.9221Z" fill="#EA5937"/>
<path d="M160.278 37.6055C158.987 37.6055 157.938 37.8476 157.131 38.2914C156.243 38.816 155.678 39.5827 155.476 40.6721L153.58 49.8318C153.378 50.9213 153.58 51.6476 154.226 52.1318C154.79 52.5354 155.759 52.7775 157.01 52.7775C158.301 52.7775 159.35 52.5757 160.117 52.1722C161.045 51.688 161.65 50.9213 161.852 49.8722L162.215 48.4599H158.987L158.583 49.9529C158.503 50.2353 158.422 50.4775 158.22 50.6389C158.019 50.8406 157.776 50.9213 157.494 50.9213C157.09 50.9213 156.929 50.7599 156.808 50.5985C156.687 50.3968 156.687 50.1546 156.727 49.8318L157.494 46.0792H162.578L163.748 40.43C163.95 39.3809 163.708 38.6546 163.022 38.2107C162.498 37.8072 161.529 37.6055 160.278 37.6055V37.6055ZM159.794 44.223H157.938L158.745 40.3897C158.826 40.0669 158.947 39.8248 159.148 39.6634C159.35 39.502 159.592 39.4213 159.834 39.4213C160.238 39.4213 160.399 39.5827 160.48 39.7441C160.601 39.9458 160.641 40.1879 160.561 40.5107L159.794 44.223Z" fill="#EA5937"/>
<path d="M163.264 52.577H166.492L168.994 40.391C169.034 40.1085 169.155 39.8664 169.357 39.7454C169.519 39.584 169.761 39.5033 170.043 39.5033C170.326 39.5033 170.527 39.584 170.689 39.7454C170.85 39.9068 170.891 40.1892 170.81 40.512L170.164 43.5384H173.392L174.24 39.4629C174.361 38.9383 174.24 38.4945 173.876 38.1313C173.513 37.7682 172.948 37.5664 172.222 37.5664C171.738 37.5664 171.254 37.6068 170.85 37.7278C170.447 37.8489 170.124 37.9699 169.882 38.1313L169.357 38.4945L169.519 37.6471H166.29L163.264 52.577Z" fill="#EA5937"/>
<path d="M20.641 55.4885L13.9175 48.765C13.0771 47.9246 13.0771 46.5238 13.9175 45.6134L27.5045 32.0264C28.3449 31.1859 29.7456 31.1859 30.6561 32.0264L31.5666 32.9369L33.5276 30.8358L31.5666 28.8748C30.1659 27.474 27.9247 27.474 26.594 28.8748L10.7659 44.7029C9.36515 46.1036 9.36515 48.3448 10.7659 49.7455L19.7305 58.7101L20.641 55.4885Z" fill="#EA5937"/>
<path d="M47.3945 44.7021L38.1497 35.5273L37.0992 38.5389L44.1728 45.6125C45.0133 46.453 45.0133 47.8537 44.1728 48.7642L30.6559 62.3511C29.8154 63.1916 28.4147 63.1916 27.5042 62.3511L25.9635 60.8104L24.0024 62.9114L26.5938 65.5028C27.9945 66.9035 30.2356 66.9035 31.5663 65.5028L47.3945 49.6746C48.7252 48.3439 48.7252 46.1028 47.3945 44.7021Z" fill="#EA5937"/>
<path d="M41.5117 23.5527L33.7377 45.1939C33.6676 45.474 33.6676 45.8242 33.8778 46.0343C34.0178 46.2444 34.298 46.3845 34.5781 46.3845H34.6482L38.7102 46.0343L17.6294 68.4458L23.5825 49.1159C23.6525 48.8357 23.5825 48.5556 23.4424 48.2755C23.3023 48.0653 23.0222 47.9253 22.742 47.9253H22.672L18.3998 48.2755L41.5117 23.5527" fill="#EA5937"/>
</svg>
