<svg width="45" height="45" viewBox="0 0 45 45" fill="none" xmlns="http://www.w3.org/2000/svg">
<rect x="0.792969" y="0.4375" width="44" height="44" rx="8" fill="#111111"/>
<path d="M30.9589 18.0388C30.4602 18.0532 29.9766 17.8666 29.6139 17.5366C29.2663 17.1779 29.085 16.7045 29.1001 16.2166C29.085 15.7288 29.2815 15.2697 29.6441 14.9397C30.0068 14.6097 30.4904 14.4375 30.9891 14.4375C31.5785 14.4375 32.0318 14.6097 32.3643 14.9397C32.6968 15.284 32.8781 15.7432 32.863 16.2166C32.8781 16.7045 32.6968 17.1779 32.3341 17.5366C31.9865 17.881 31.4727 18.0675 30.9589 18.0388Z" fill="white"/>
<path d="M29.2664 30.4927V19.4449C29.2664 19.3014 29.3268 19.244 29.4628 19.244H32.455C32.591 19.244 32.6514 19.3158 32.6514 19.4449V30.4927C32.6514 30.6505 32.591 30.7223 32.455 30.7223H29.493C29.3419 30.7223 29.2664 30.6362 29.2664 30.4927Z" fill="white"/>
<path fill-rule="evenodd" clip-rule="evenodd" d="M22.8741 27.1353H17.2524L16.1039 30.5071C16.0737 30.6362 15.9528 30.7223 15.8168 30.7079H12.9758C12.8095 30.7079 12.7642 30.6218 12.8095 30.4497L17.6756 17.1492C17.6888 17.1074 17.702 17.0644 17.7156 17.0202C17.7486 16.9126 17.7839 16.7977 17.8267 16.6758C17.8871 16.3745 17.9174 16.0588 17.9174 15.7432C17.9022 15.6714 17.9627 15.5997 18.0383 15.5853H21.9522C22.0731 15.5853 22.1336 15.6284 22.1487 15.7001L27.6646 30.4784C27.7099 30.6362 27.6646 30.7079 27.5134 30.7079H24.355C24.2493 30.7223 24.1435 30.6505 24.1133 30.5501L22.8741 27.1353ZM18.1289 24.2227H21.9674C21.8767 23.9214 21.7558 23.5627 21.6198 23.1897C21.4838 22.8023 21.3478 22.3862 21.2118 21.9558C21.1362 21.7334 21.0644 21.5146 20.9926 21.2958C20.9209 21.077 20.8491 20.8581 20.7735 20.6358C20.6224 20.191 20.4864 19.7749 20.3655 19.3588C20.312 19.181 20.2614 19.0088 20.2125 18.8423C20.151 18.6325 20.092 18.4316 20.033 18.2397H20.0028C19.8668 18.8566 19.7006 19.4736 19.489 20.0905C19.4027 20.3528 19.3164 20.6192 19.2292 20.8882C19.0875 21.3255 18.9435 21.7699 18.7938 22.214C18.5823 22.9458 18.3556 23.6201 18.1289 24.2227Z" fill="white"/>
</svg>
