<svg width="45" height="45" viewBox="0 0 45 45" fill="none" xmlns="http://www.w3.org/2000/svg">
<rect x="0.792969" y="0.4375" width="44" height="44" rx="8" fill="#111111"/>
<path d="M17.4966 12.8178C17.5099 14.1405 16.4163 15.2251 15.0498 15.2444C14.3856 15.2515 13.746 15.0017 13.2729 14.5504C12.7998 14.0991 12.5325 13.4837 12.5302 12.8408C12.5304 11.518 13.6349 10.4439 15.0016 10.4375C16.3682 10.4312 17.4833 11.495 17.4966 12.8178Z" fill="white"/>
<path d="M9.60344 29.9166C9.60854 29.3089 9.6833 28.7036 9.82636 28.1119L11.7186 20.6403H8.79297L9.6812 17.4623H16.7179L13.9392 28.1319C13.7829 28.6664 13.6958 29.2176 13.68 29.7728C13.68 30.4586 14.0256 30.6576 14.5682 30.7764C14.8983 30.8483 17.5318 30.7981 18.9661 27.7138L20.791 20.6486H17.8256L18.7156 17.4707H25.049L24.235 21.0768C25.3462 19.068 27.5685 17.1595 29.7545 17.1595C32.0891 17.1595 34.016 18.7686 34.016 21.8529C34.012 22.7389 33.8747 23.6196 33.6081 24.4672L32.4209 28.5902C32.3141 28.9526 32.252 29.326 32.236 29.7025C32.236 30.4201 32.535 30.778 33.0897 30.778C33.6444 30.778 34.3477 30.3833 35.1634 28.1955L36.793 28.806C35.8304 32.0693 34.0885 33.4308 31.9025 33.4308C29.3467 33.4308 28.1249 31.9589 28.1249 29.9518C28.1221 29.3451 28.2094 28.7413 28.3842 28.1587L29.6059 23.9286C29.7352 23.5099 29.7976 23.0744 29.7908 22.6374C29.7908 21.2742 28.9389 20.4496 27.5685 20.4496C25.8266 20.4496 24.6792 21.6589 24.0864 23.9905L21.7138 33.19H17.5664L18.3112 30.2963C17.0929 32.2366 15.3977 33.4375 13.3084 33.4375C10.7889 33.4375 9.60344 32.0325 9.60344 29.9166Z" fill="white"/>
</svg>
