<svg width="197" height="191" viewBox="0 0 197 191" fill="none" xmlns="http://www.w3.org/2000/svg">
<path d="M98.6221 4.62725C111.301 4.62725 123.547 7.05179 135.121 11.761C146.31 16.3303 156.3 22.9046 164.944 31.2972C173.54 39.6432 180.312 49.388 185.066 60.2518C189.965 71.4886 192.414 83.3782 192.414 95.6874C192.414 107.997 189.917 119.886 185.066 131.123C180.36 141.987 173.588 151.685 164.944 160.078C156.348 168.424 146.31 174.998 135.121 179.614C123.547 184.37 111.301 186.747 98.6221 186.747C85.9436 186.747 73.6973 184.323 62.1234 179.614C50.9337 175.044 40.9446 168.47 32.3002 160.078C23.7038 151.732 16.9323 141.987 12.1779 131.123C7.27939 119.886 4.83013 107.997 4.83013 95.6874C4.83013 83.3782 7.32741 71.4886 12.1779 60.2518C16.8843 49.388 23.6558 39.6898 32.3002 31.2972C40.8966 22.9512 50.9337 16.3769 62.1234 11.761C73.6493 7.00517 85.9436 4.62725 98.6221 4.62725ZM98.6221 0.664062C44.5464 0.664062 0.748047 43.1868 0.748047 95.6407C0.748047 148.095 44.5464 190.664 98.6221 190.664C152.698 190.664 196.496 148.141 196.496 95.6407C196.496 43.1401 152.65 0.664062 98.6221 0.664062Z" fill="#0F4B8C"/>
<path d="M34.4126 143.805L36.1415 148.981C34.7007 149.54 33.356 149.774 32.0594 149.68C30.8107 149.634 29.6101 149.261 28.5536 148.655C27.497 148.002 26.4405 146.976 25.432 145.577C24.2314 143.852 23.463 142.267 23.2229 140.821C22.9827 139.376 23.2229 137.837 23.9432 136.159C24.6636 134.48 26.0563 132.988 28.0733 131.636C30.7627 129.818 33.356 129.118 35.8053 129.538C38.2545 129.958 40.3676 131.45 42.1926 134.014C43.6333 136.019 44.3056 137.837 44.3056 139.562C44.3056 141.241 43.6333 142.966 42.2886 144.691L38.2065 141.008C38.5907 140.542 38.8308 140.122 38.9749 139.796C39.167 139.283 39.215 138.723 39.167 138.21C39.119 137.697 38.8789 137.185 38.5427 136.672C37.7743 135.553 36.6697 135.04 35.3731 135.04C34.3645 135.04 33.1639 135.553 31.6752 136.532C29.8502 137.744 28.7937 138.863 28.5056 139.842C28.2174 140.821 28.4095 141.801 29.0819 142.78C29.7542 143.712 30.5226 144.225 31.387 144.365C32.2034 144.458 33.26 144.272 34.4126 143.805Z" fill="#0F4B8C"/>
<path d="M42.8635 151.172C44.7845 148.655 47.0417 147.209 49.587 146.883C52.1323 146.557 54.6776 147.303 57.2229 149.168C59.8642 151.079 61.353 153.271 61.7372 155.695C62.1214 158.12 61.305 160.544 59.384 163.015C57.9913 164.834 56.5505 166.046 55.0138 166.745C53.477 167.445 51.8922 167.678 50.2113 167.445C48.5304 167.212 46.8016 166.466 45.0727 165.207C43.2958 163.901 41.9991 162.549 41.2787 161.15C40.5584 159.752 40.2702 158.166 40.4623 156.441C40.7024 154.716 41.4708 152.944 42.8635 151.172ZM47.762 154.763C46.5614 156.301 45.9851 157.653 46.0812 158.773C46.1772 159.892 46.7055 160.824 47.714 161.57C48.7706 162.316 49.8271 162.596 50.9317 162.363C52.0362 162.13 53.2368 161.15 54.5815 159.425C55.6861 157.98 56.2144 156.721 56.1183 155.602C56.0223 154.483 55.494 153.55 54.4375 152.804C53.4289 152.105 52.3724 151.825 51.2678 152.105C50.1152 152.292 48.9627 153.177 47.762 154.763Z" fill="#0F4B8C"/>
<path d="M68.1736 157.047L75.9055 159.285L75.4253 171.361L81.8125 160.964L89.5445 163.202L83.8776 181.666L79.0751 180.267L83.3973 166.186L75.4253 179.195L71.055 177.936L71.6793 162.782L67.3571 176.863L62.5547 175.465L68.1736 157.047Z" fill="#0F4B8C"/>
<path d="M93.7227 163.155L103.904 162.736C106.113 162.643 107.794 163.062 108.946 164.041C110.099 165.02 110.723 166.466 110.819 168.331C110.915 170.289 110.387 171.828 109.235 172.947C108.082 174.113 106.257 174.719 103.808 174.812L100.446 174.952L100.782 182.086L94.6351 182.365L93.7227 163.155ZM100.254 171.082L101.743 171.035C102.943 170.989 103.76 170.755 104.192 170.336C104.672 169.916 104.864 169.403 104.816 168.797C104.768 168.191 104.576 167.678 104.144 167.305C103.712 166.886 102.943 166.746 101.791 166.792L100.062 166.886L100.254 171.082Z" fill="#0F4B8C"/>
<path d="M128.779 173.74L122.152 175.838L122.248 179.148L116.293 181.06L117.157 160.498L123.497 158.446L136.799 174.439L130.7 176.397L128.779 173.74ZM126.234 170.149L121.912 164.228L122.104 171.455L126.234 170.149Z" fill="#0F4B8C"/>
<path d="M132.572 154.95L137.135 151.593L149.669 155.742L143.09 147.256L147.7 143.899L159.61 159.286L155 162.643L142.513 158.54L149.045 166.979L144.434 170.336L132.572 154.95Z" fill="#0F4B8C"/>
<path d="M149.527 142.36L153.369 136.905L161.149 137.418L157.932 130.517L161.774 125.109L166.864 137.605L173.684 142.174L170.178 147.07L163.358 142.5L149.527 142.36Z" fill="#0F4B8C"/>
<path d="M31.1448 58.1074L34.9868 54.1442C36.1874 55.1233 37.0518 56.1491 37.5801 57.2681C38.1564 58.3871 38.3965 59.5528 38.3485 60.765C38.3005 61.9773 37.8682 63.3761 37.0518 64.9147C36.0913 66.7798 35.0348 68.1785 33.8342 69.111C32.6336 70.0436 31.1448 70.5564 29.2719 70.743C27.3989 70.9295 25.3819 70.4632 23.1727 69.3908C20.2432 67.9454 18.3703 66.127 17.6019 63.8423C16.7855 61.5577 17.1216 59.0399 18.5624 56.2423C19.6669 54.0509 21.0116 52.6055 22.5484 51.7663C24.0852 50.9736 25.9582 50.7405 28.1193 51.0203L26.8706 56.2423C26.2463 56.1491 25.7661 56.1025 25.4299 56.1957C24.8536 56.289 24.3253 56.4755 23.8931 56.8019C23.4609 57.1282 23.0767 57.5479 22.7885 58.0607C22.1642 59.273 22.2123 60.4387 22.8366 61.5577C23.3168 62.3969 24.3734 63.1896 25.9582 63.9822C27.9272 64.9147 29.4159 65.2877 30.4244 65.0546C31.433 64.8215 32.2494 64.2154 32.7777 63.143C33.3059 62.1172 33.402 61.2313 33.0658 60.392C32.7776 59.646 32.1533 58.8534 31.1448 58.1074Z" fill="#0F4B8C"/>
<path d="M29.4648 40.2026L40.9907 28.8726L44.0163 31.7634L36.8126 38.8505L39.0698 40.9953L45.7932 34.421L48.6747 37.1719L41.9512 43.7462L44.7366 46.4038L52.1804 39.0836L55.3501 42.1609L43.5841 53.7241L29.4648 40.2026Z" fill="#0F4B8C"/>
<path d="M59.0962 39.5028L50.0195 22.3912L59.0962 17.8685C60.777 17.0292 62.1217 16.5163 63.1783 16.3765C64.2348 16.2366 65.1953 16.3765 66.1558 16.8427C67.1163 17.309 67.8847 18.1016 68.461 19.2206C68.9412 20.1531 69.1813 21.0857 69.1333 21.9715C69.0853 22.8574 68.7971 23.6967 68.3169 24.4893C67.9807 25.0022 67.5005 25.5617 66.7801 26.1212C67.5485 26.028 68.1248 25.9814 68.509 26.028C68.7971 26.0746 69.2293 26.2145 69.8537 26.4942C70.478 26.774 70.9102 27.0071 71.1984 27.1936L76.4811 30.8304L70.3339 33.9077L64.667 30.1311C63.9466 29.6182 63.3704 29.385 62.9862 29.2918C62.4579 29.2452 61.9296 29.2918 61.4494 29.5715L60.9691 29.8047L64.667 36.7519L59.0962 39.5028ZM59.1442 26.5875L61.4494 25.4219C61.6895 25.282 62.1217 24.9556 62.746 24.4893C63.0822 24.2562 63.2743 23.9298 63.3223 23.5102C63.3704 23.0906 63.3223 22.7176 63.1302 22.3446C62.8421 21.785 62.4099 21.4587 61.9296 21.3654C61.4494 21.2722 60.633 21.4587 59.6725 21.9249L57.2712 23.1372L59.1442 26.5875Z" fill="#0F4B8C"/>
<path d="M74.9434 11.5275L93.3368 8.63672L94.1051 13.3459L87.958 14.3251L90.3592 28.6392L84.3081 29.5717L81.9069 15.2576L75.7598 16.2367L74.9434 11.5275Z" fill="#0F4B8C"/>
<path d="M102.702 8.96338L108.801 9.42964L107.216 28.6395L101.117 28.1732L102.702 8.96338Z" fill="#0F4B8C"/>
<path d="M119.414 11.0151L133.821 15.5378L132.524 19.4544L123.976 16.7501L122.919 19.9673L130.219 22.2519L128.97 25.9354L121.671 23.6507L119.173 31.1108L113.314 29.2458L119.414 11.0151Z" fill="#0F4B8C"/>
<path d="M142.466 20.0137L147.701 23.1376L137.375 39.5499L132.141 36.4259L142.466 20.0137Z" fill="#0F4B8C"/>
<path d="M156.537 29.1528L168.063 40.4829L165.038 43.3737L157.834 36.2866L155.577 38.4314L162.3 45.0056L159.419 47.7565L152.695 41.1823L149.91 43.8399L157.354 51.1602L154.184 54.2375L142.418 42.6743L156.537 29.1528Z" fill="#0F4B8C"/>
<path d="M174.643 49.3408L178.725 57.2206C179.541 58.7592 179.974 60.158 180.022 61.3236C180.07 62.4893 179.878 63.6083 179.397 64.6341C178.917 65.6598 178.197 66.5924 177.236 67.385C176.324 68.1776 175.219 68.877 174.019 69.4831C172.146 70.4157 170.561 70.9285 169.264 70.9752C168.016 71.0684 166.815 70.9285 165.758 70.5089C164.654 70.0893 163.789 69.5298 163.117 68.7838C162.205 67.758 161.484 66.7789 161.004 65.8463L156.922 57.9666L174.643 49.3408ZM173.394 56.6144L163.693 61.3236L164.366 62.6292C164.942 63.7482 165.47 64.4476 165.95 64.8206C166.431 65.147 167.103 65.3335 167.871 65.2868C168.64 65.2402 169.744 64.8672 171.137 64.1678C173.01 63.2353 174.163 62.3494 174.547 61.4169C174.931 60.4844 174.787 59.3187 174.067 57.9666L173.394 56.6144Z" fill="#0F4B8C"/>
<path d="M98.6232 35.8664C115.096 35.8664 130.56 42.0676 142.181 53.3977C153.803 64.7278 160.239 79.6946 160.239 95.6873C160.239 111.68 153.851 126.693 142.181 137.977C130.56 149.26 115.096 155.508 98.6232 155.508C82.1508 155.508 66.6869 149.307 55.065 137.977C43.443 126.693 37.0077 111.68 37.0077 95.6873C37.0077 79.6946 43.395 64.6811 55.065 53.3977C66.7349 42.1143 82.1508 35.8664 98.6232 35.8664ZM98.6232 33.2554C63.1331 33.2554 34.3184 61.1842 34.3184 95.6873C34.3184 130.19 63.0851 158.119 98.6232 158.119C134.161 158.119 162.928 130.19 162.928 95.6873C162.928 61.1842 134.113 33.2554 98.6232 33.2554Z" fill="#0F4B8C"/>
<path d="M98.623 152.757C131.114 152.757 157.453 127.185 157.453 95.6405C157.453 64.0959 131.114 38.5239 98.623 38.5239C66.1321 38.5239 39.793 64.0959 39.793 95.6405C39.793 127.185 66.1321 152.757 98.623 152.757Z" fill="#0F4B8C"/>
<path d="M55.3996 102.728C56.9364 102.682 57.9929 102.495 58.6653 102.122C59.7218 101.516 60.2981 100.304 60.2981 98.4852V69.3441C60.2981 67.5723 59.7698 66.4067 58.7613 65.8005C58.137 65.4275 57.0324 65.1944 55.3996 65.1478V63.5625H74.0811V65.1012C72.4003 65.1944 71.2477 65.3809 70.6234 65.7539C69.5668 66.36 69.0386 67.5723 69.0386 69.3441V98.4852C69.0386 100.164 69.4708 101.283 70.2872 101.842C71.1036 102.402 72.3522 102.682 74.0331 102.682V104.22H55.3516V102.728H55.3996Z" fill="white"/>
<path d="M77.2023 90.1857H78.7391C79.6035 94.6618 80.9482 97.9722 82.8692 99.9771C84.7902 102.029 86.9513 103.054 89.4006 103.054C91.8018 103.054 93.4826 102.355 94.4912 100.956C95.4997 99.5575 95.9799 98.0654 95.9799 96.5268C95.9799 94.7084 95.4517 93.263 94.3951 92.0973C93.7228 91.3513 92.282 90.3722 90.169 89.2065L86.7592 87.2483C83.3975 85.3366 80.9963 83.425 79.6036 81.5599C78.2108 79.6949 77.5385 77.3636 77.5385 74.6127C77.5385 71.6753 78.451 68.9243 80.2759 66.3599C82.1008 63.7955 84.9343 62.5366 88.7282 62.5366C90.6492 62.5366 92.5222 62.863 94.3471 63.5157C96.172 64.1685 97.1805 64.4949 97.4207 64.4949C97.9969 64.4949 98.3811 64.3084 98.6213 63.9354C98.8614 63.5624 99.0055 63.0495 99.1495 62.4434H100.734V75.5452H99.2456C98.5252 72.5145 97.3246 69.9035 95.5477 67.7121C93.7708 65.5207 91.6577 64.4016 89.1124 64.4016C87.3355 64.4016 85.9428 64.9611 84.9343 66.0802C83.9258 67.1992 83.3975 68.5513 83.3975 70.1366C83.3975 72.0483 83.8777 73.447 84.8382 74.3796C85.7987 75.3587 87.9118 76.7575 91.2255 78.6225L95.1635 80.8605C96.9404 81.8397 98.3331 82.9587 99.3897 84.171C101.359 86.4556 102.319 89.2065 102.319 92.4704C102.319 95.501 101.263 98.3452 99.1495 101.049C97.0365 103.754 93.6747 105.106 89.0644 105.106C88.0078 105.106 86.9513 105.013 85.8467 104.78C84.7422 104.546 83.6856 104.22 82.6291 103.754L81.6206 103.334C81.3805 103.241 81.1403 103.194 80.9482 103.148C80.7081 103.101 80.516 103.054 80.3719 103.054C79.8437 103.054 79.4595 103.241 79.2194 103.614C79.0273 103.987 78.8352 104.5 78.6911 105.153H77.1543V90.1857H77.2023Z" fill="white"/>
<path d="M139.25 68.5512C142.9 72.561 144.773 77.7365 144.773 84.0776C144.773 90.4187 142.948 95.5942 139.25 99.604C135.648 103.521 131.182 105.479 125.803 105.479C120.088 105.479 115.43 103.334 111.828 99.0445C108.466 94.988 106.785 90.1389 106.785 84.404C106.785 78.1095 108.562 72.934 112.068 68.8776C115.622 64.7745 120.184 62.723 125.803 62.723C131.182 62.6764 135.696 64.6346 139.25 68.5512ZM134.063 95.4076C134.88 92.5168 135.264 88.7402 135.264 84.0776C135.264 77.6899 134.399 72.8408 132.718 69.577C131.038 66.3132 128.732 64.6813 125.803 64.6813C121.769 64.6813 118.983 67.3856 117.495 72.8408C116.726 75.7316 116.294 79.4616 116.294 84.0776C116.294 88.7402 116.678 92.5168 117.495 95.4076C118.983 100.77 121.721 103.427 125.803 103.427C129.789 103.427 132.574 100.723 134.063 95.4076Z" fill="white"/>
<path d="M63.9944 128.494C63.1624 128.494 62.5064 128.366 62.0264 128.11C61.5464 127.854 61.205 127.481 61.0024 126.99C60.7997 126.489 60.6984 125.876 60.6984 125.15C60.6984 125.118 60.6984 125.086 60.6984 125.054C60.6984 125.012 60.6984 124.974 60.6984 124.942H63.1944C63.1944 125.465 63.237 125.854 63.3224 126.11C63.4184 126.356 63.6477 126.478 64.0104 126.478C64.2557 126.478 64.437 126.404 64.5544 126.254C64.6717 126.105 64.7464 125.844 64.7784 125.47C64.821 125.086 64.8424 124.564 64.8424 123.902V122.75C64.7037 122.974 64.4904 123.145 64.2024 123.262C63.925 123.38 63.6104 123.449 63.2584 123.47C62.5757 123.481 62.0264 123.31 61.6104 122.958C61.1944 122.606 60.8957 122.132 60.7144 121.534C60.533 120.937 60.4424 120.286 60.4424 119.582C60.4424 118.676 60.5544 117.897 60.7784 117.246C61.013 116.585 61.3917 116.073 61.9144 115.71C62.437 115.348 63.1304 115.166 63.9944 115.166C64.8477 115.166 65.5357 115.337 66.0584 115.678C66.581 116.02 66.9597 116.5 67.1944 117.118C67.4397 117.726 67.5624 118.446 67.5624 119.278V124.11C67.5624 124.953 67.461 125.705 67.2584 126.366C67.0664 127.028 66.7144 127.55 66.2024 127.934C65.6904 128.308 64.9544 128.494 63.9944 128.494ZM64.0264 121.422C64.2397 121.422 64.4104 121.364 64.5384 121.246C64.6664 121.129 64.7677 121.017 64.8424 120.91V118.798C64.8424 118.5 64.821 118.228 64.7784 117.982C64.7357 117.726 64.6557 117.524 64.5384 117.374C64.421 117.214 64.2397 117.134 63.9944 117.134C63.7597 117.134 63.5837 117.22 63.4664 117.39C63.349 117.55 63.269 117.796 63.2264 118.126C63.1944 118.446 63.1784 118.846 63.1784 119.326C63.1784 119.742 63.189 120.11 63.2104 120.43C63.2424 120.74 63.317 120.985 63.4344 121.166C63.5517 121.337 63.749 121.422 64.0264 121.422ZM73.1477 128.542C72.3691 128.542 71.7184 128.388 71.1957 128.078C70.6731 127.758 70.2784 127.321 70.0117 126.766C69.7451 126.212 69.6117 125.566 69.6117 124.83V118.958C69.6117 118.201 69.7344 117.54 69.9797 116.974C70.2357 116.398 70.6251 115.95 71.1477 115.63C71.6704 115.31 72.3371 115.15 73.1477 115.15C73.9584 115.15 74.6197 115.31 75.1317 115.63C75.6544 115.95 76.0384 116.398 76.2837 116.974C76.5397 117.54 76.6677 118.201 76.6677 118.958V124.83C76.6677 125.556 76.5344 126.201 76.2677 126.766C76.0011 127.321 75.6064 127.758 75.0837 128.078C74.5611 128.388 73.9157 128.542 73.1477 128.542ZM73.1477 126.158C73.4037 126.158 73.5851 126.078 73.6917 125.918C73.8091 125.748 73.8784 125.556 73.8997 125.342C73.9317 125.118 73.9477 124.926 73.9477 124.766V119.022C73.9477 118.841 73.9371 118.638 73.9157 118.414C73.8944 118.18 73.8251 117.977 73.7077 117.806C73.6011 117.625 73.4144 117.534 73.1477 117.534C72.8811 117.534 72.6891 117.625 72.5717 117.806C72.4651 117.977 72.4011 118.18 72.3797 118.414C72.3584 118.638 72.3477 118.841 72.3477 119.022V124.766C72.3477 124.926 72.3637 125.118 72.3957 125.342C72.4277 125.556 72.4971 125.748 72.6037 125.918C72.7211 126.078 72.9024 126.158 73.1477 126.158ZM82.2646 128.542C81.4859 128.542 80.8353 128.388 80.3126 128.078C79.7899 127.758 79.3953 127.321 79.1286 126.766C78.8619 126.212 78.7286 125.566 78.7286 124.83V118.958C78.7286 118.201 78.8513 117.54 79.0966 116.974C79.3526 116.398 79.7419 115.95 80.2646 115.63C80.7873 115.31 81.4539 115.15 82.2646 115.15C83.0753 115.15 83.7366 115.31 84.2486 115.63C84.7713 115.95 85.1553 116.398 85.4006 116.974C85.6566 117.54 85.7846 118.201 85.7846 118.958V124.83C85.7846 125.556 85.6513 126.201 85.3846 126.766C85.1179 127.321 84.7233 127.758 84.2006 128.078C83.6779 128.388 83.0326 128.542 82.2646 128.542ZM82.2646 126.158C82.5206 126.158 82.7019 126.078 82.8086 125.918C82.9259 125.748 82.9953 125.556 83.0166 125.342C83.0486 125.118 83.0646 124.926 83.0646 124.766V119.022C83.0646 118.841 83.0539 118.638 83.0326 118.414C83.0113 118.18 82.9419 117.977 82.8246 117.806C82.7179 117.625 82.5313 117.534 82.2646 117.534C81.9979 117.534 81.8059 117.625 81.6886 117.806C81.5819 117.977 81.5179 118.18 81.4966 118.414C81.4753 118.638 81.4646 118.841 81.4646 119.022V124.766C81.4646 124.926 81.4806 125.118 81.5126 125.342C81.5446 125.556 81.6139 125.748 81.7206 125.918C81.8379 126.078 82.0193 126.158 82.2646 126.158ZM89.1095 128.302V117.982C88.9922 118.046 88.8588 118.11 88.7095 118.174C88.5602 118.238 88.4002 118.308 88.2295 118.382C88.0695 118.446 87.9095 118.51 87.7495 118.574C87.6002 118.638 87.4615 118.702 87.3335 118.766V116.782C87.4508 116.718 87.6162 116.633 87.8295 116.526C88.0428 116.409 88.2722 116.281 88.5175 116.142C88.7628 116.004 88.9922 115.865 89.2055 115.726C89.4188 115.577 89.5788 115.449 89.6855 115.342H91.7815V128.302H89.1095ZM94.5922 121.71V119.278H97.0242V121.71H94.5922ZM94.5922 127.406V124.974H97.0242V127.406H94.5922ZM98.9494 128.302V126.414L102.053 121.646C102.288 121.294 102.507 120.953 102.709 120.622C102.923 120.292 103.093 119.956 103.221 119.614C103.36 119.273 103.429 118.916 103.429 118.542C103.429 118.169 103.355 117.892 103.205 117.71C103.056 117.529 102.853 117.438 102.597 117.438C102.309 117.438 102.085 117.518 101.925 117.678C101.765 117.838 101.653 118.052 101.589 118.318C101.536 118.585 101.509 118.884 101.509 119.214V119.854H98.9174V119.166C98.9174 118.398 99.04 117.716 99.2854 117.118C99.5307 116.51 99.92 116.036 100.453 115.694C100.987 115.342 101.685 115.166 102.549 115.166C103.712 115.166 104.587 115.47 105.173 116.078C105.771 116.676 106.069 117.513 106.069 118.59C106.069 119.113 105.984 119.598 105.813 120.046C105.653 120.494 105.435 120.932 105.157 121.358C104.891 121.774 104.603 122.212 104.293 122.67L101.925 126.206H105.717V128.302H98.9494ZM111.232 128.542C110.453 128.542 109.803 128.388 109.28 128.078C108.757 127.758 108.363 127.321 108.096 126.766C107.829 126.212 107.696 125.566 107.696 124.83V118.958C107.696 118.201 107.819 117.54 108.064 116.974C108.32 116.398 108.709 115.95 109.232 115.63C109.755 115.31 110.421 115.15 111.232 115.15C112.043 115.15 112.704 115.31 113.216 115.63C113.739 115.95 114.123 116.398 114.368 116.974C114.624 117.54 114.752 118.201 114.752 118.958V124.83C114.752 125.556 114.619 126.201 114.352 126.766C114.085 127.321 113.691 127.758 113.168 128.078C112.645 128.388 112 128.542 111.232 128.542ZM111.232 126.158C111.488 126.158 111.669 126.078 111.776 125.918C111.893 125.748 111.963 125.556 111.984 125.342C112.016 125.118 112.032 124.926 112.032 124.766V119.022C112.032 118.841 112.021 118.638 112 118.414C111.979 118.18 111.909 117.977 111.792 117.806C111.685 117.625 111.499 117.534 111.232 117.534C110.965 117.534 110.773 117.625 110.656 117.806C110.549 117.977 110.485 118.18 110.464 118.414C110.443 118.638 110.432 118.841 110.432 119.022V124.766C110.432 124.926 110.448 125.118 110.48 125.342C110.512 125.556 110.581 125.748 110.688 125.918C110.805 126.078 110.987 126.158 111.232 126.158ZM118.077 128.302V117.982C117.96 118.046 117.826 118.11 117.677 118.174C117.528 118.238 117.368 118.308 117.197 118.382C117.037 118.446 116.877 118.51 116.717 118.574C116.568 118.638 116.429 118.702 116.301 118.766V116.782C116.418 116.718 116.584 116.633 116.797 116.526C117.01 116.409 117.24 116.281 117.485 116.142C117.73 116.004 117.96 115.865 118.173 115.726C118.386 115.577 118.546 115.449 118.653 115.342H120.749V128.302H118.077ZM126.568 128.542C125.618 128.542 124.898 128.377 124.408 128.046C123.928 127.705 123.602 127.23 123.432 126.622C123.261 126.014 123.176 125.31 123.176 124.51H125.752C125.752 125.001 125.778 125.401 125.832 125.71C125.885 126.02 125.981 126.244 126.12 126.382C126.269 126.51 126.477 126.569 126.744 126.558C127.021 126.548 127.218 126.436 127.336 126.222C127.453 126.009 127.522 125.705 127.544 125.31C127.576 124.905 127.592 124.42 127.592 123.854C127.592 123.428 127.565 123.049 127.512 122.718C127.469 122.388 127.373 122.126 127.224 121.934C127.085 121.732 126.872 121.63 126.584 121.63C126.317 121.63 126.098 121.726 125.928 121.918C125.757 122.11 125.634 122.409 125.56 122.814H123.256L123.496 115.342H129.544V117.582H125.64L125.496 120.254C125.602 120.105 125.805 119.977 126.104 119.87C126.402 119.753 126.722 119.678 127.064 119.646C127.725 119.572 128.28 119.694 128.728 120.014C129.186 120.324 129.528 120.798 129.752 121.438C129.986 122.078 130.104 122.862 130.104 123.79C130.104 124.484 130.061 125.124 129.976 125.71C129.89 126.286 129.725 126.788 129.48 127.214C129.234 127.63 128.877 127.956 128.408 128.19C127.938 128.425 127.325 128.542 126.568 128.542Z" fill="white"/>
</svg>
