<svg width="196" height="191" viewBox="0 0 196 191" fill="none" xmlns="http://www.w3.org/2000/svg">
<path d="M97.874 4.62725C110.552 4.62725 122.799 7.05179 134.373 11.761C145.562 16.3303 155.551 22.9046 164.196 31.2972C172.792 39.6432 179.564 49.388 184.318 60.2518C189.217 71.4886 191.666 83.3782 191.666 95.6874C191.666 107.997 189.169 119.886 184.318 131.123C179.612 141.987 172.84 151.685 164.196 160.078C155.6 168.424 145.562 174.998 134.373 179.614C122.799 184.37 110.552 186.747 97.874 186.747C85.1955 186.747 72.9493 184.323 61.3754 179.614C50.1856 175.044 40.1965 168.47 31.5521 160.078C22.9557 151.732 16.1843 141.987 11.4298 131.123C6.53134 119.886 4.08209 107.997 4.08209 95.6874C4.08209 83.3782 6.57936 71.4886 11.4298 60.2518C16.1362 49.388 22.9077 39.6898 31.5521 31.2972C40.1485 22.9512 50.1856 16.3769 61.3754 11.761C72.9013 7.00517 85.1955 4.62725 97.874 4.62725ZM97.874 0.664062C43.7984 0.664062 0 43.1868 0 95.6407C0 148.095 43.7984 190.664 97.874 190.664C151.95 190.664 195.748 148.141 195.748 95.6407C195.748 43.1401 151.902 0.664062 97.874 0.664062Z" fill="#144639"/>
<path d="M33.6645 143.805L35.3934 148.981C33.9527 149.54 32.608 149.774 31.3113 149.68C30.0627 149.634 28.8621 149.261 27.8055 148.655C26.749 148.002 25.6925 146.976 24.6839 145.577C23.4833 143.852 22.7149 142.267 22.4748 140.821C22.2347 139.376 22.4748 137.837 23.1952 136.159C23.9155 134.48 25.3083 132.988 27.3253 131.636C30.0147 129.818 32.608 129.118 35.0572 129.538C37.5065 129.958 39.6196 131.45 41.4445 134.014C42.8852 136.019 43.5576 137.837 43.5576 139.562C43.5576 141.241 42.8852 142.966 41.5406 144.691L37.4585 141.008C37.8427 140.542 38.0828 140.122 38.2269 139.796C38.419 139.283 38.467 138.723 38.419 138.21C38.3709 137.697 38.1308 137.185 37.7946 136.672C37.0262 135.553 35.9217 135.04 34.625 135.04C33.6165 135.04 32.4159 135.553 30.9271 136.532C29.1022 137.744 28.0457 138.863 27.7575 139.842C27.4694 140.821 27.6615 141.801 28.3338 142.78C29.0061 143.712 29.7745 144.225 30.639 144.365C31.4554 144.458 32.5119 144.272 33.6645 143.805Z" fill="#144639"/>
<path d="M42.1155 151.172C44.0365 148.655 46.2936 147.209 48.8389 146.883C51.3842 146.557 53.9295 147.303 56.4748 149.168C59.1162 151.079 60.6049 153.271 60.9891 155.695C61.3733 158.12 60.5569 160.544 58.6359 163.015C57.2432 164.834 55.8025 166.046 54.2657 166.745C52.7289 167.445 51.1441 167.678 49.4633 167.445C47.7824 167.212 46.0535 166.466 44.3246 165.207C42.5477 163.901 41.2511 162.549 40.5307 161.15C39.8103 159.752 39.5222 158.166 39.7143 156.441C39.9544 154.716 40.7228 152.944 42.1155 151.172ZM47.014 154.763C45.8134 156.301 45.2371 157.653 45.3331 158.773C45.4292 159.892 45.9575 160.824 46.966 161.57C48.0225 162.316 49.0791 162.596 50.1836 162.363C51.2882 162.13 52.4888 161.15 53.8335 159.425C54.938 157.98 55.4663 156.721 55.3703 155.602C55.2742 154.483 54.7459 153.55 53.6894 152.804C52.6809 152.105 51.6244 151.825 50.5198 152.105C49.3672 152.292 48.2146 153.177 47.014 154.763Z" fill="#144639"/>
<path d="M67.4255 157.047L75.1575 159.285L74.6772 171.361L81.0645 160.964L88.7964 163.202L83.1295 181.666L78.3271 180.267L82.6493 166.186L74.6772 179.195L70.307 177.936L70.9313 162.782L66.6091 176.863L61.8066 175.465L67.4255 157.047Z" fill="#144639"/>
<path d="M92.9746 163.155L103.156 162.736C105.365 162.643 107.046 163.062 108.198 164.041C109.351 165.02 109.975 166.466 110.071 168.331C110.167 170.289 109.639 171.828 108.487 172.947C107.334 174.113 105.509 174.719 103.06 174.812L99.698 174.952L100.034 182.086L93.8871 182.365L92.9746 163.155ZM99.5059 171.082L100.995 171.035C102.195 170.989 103.012 170.755 103.444 170.336C103.924 169.916 104.116 169.403 104.068 168.797C104.02 168.191 103.828 167.678 103.396 167.305C102.964 166.886 102.195 166.746 101.043 166.792L99.3138 166.886L99.5059 171.082Z" fill="#144639"/>
<path d="M128.031 173.74L121.404 175.838L121.5 179.148L115.545 181.06L116.409 160.498L122.749 158.446L136.051 174.439L129.952 176.397L128.031 173.74ZM125.486 170.149L121.164 164.228L121.356 171.455L125.486 170.149Z" fill="#144639"/>
<path d="M131.824 154.95L136.387 151.593L148.921 155.742L142.342 147.256L146.952 143.899L158.862 159.286L154.252 162.643L141.765 158.54L148.297 166.979L143.686 170.336L131.824 154.95Z" fill="#144639"/>
<path d="M148.779 142.36L152.621 136.905L160.401 137.418L157.184 130.517L161.026 125.109L166.116 137.605L172.936 142.174L169.43 147.07L162.61 142.5L148.779 142.36Z" fill="#144639"/>
<path d="M30.3968 58.1074L34.2387 54.1442C35.4393 55.1233 36.3038 56.1491 36.8321 57.2681C37.4084 58.3871 37.6485 59.5528 37.6005 60.765C37.5524 61.9773 37.1202 63.3761 36.3038 64.9147C35.3433 66.7798 34.2868 68.1785 33.0861 69.111C31.8855 70.0436 30.3968 70.5564 28.5238 70.743C26.6509 70.9295 24.6338 70.4632 22.4247 69.3908C19.4952 67.9454 17.6222 66.127 16.8538 63.8423C16.0374 61.5577 16.3736 59.0399 17.8143 56.2423C18.9189 54.0509 20.2636 52.6055 21.8004 51.7663C23.3372 50.9736 25.2101 50.7405 27.3712 51.0203L26.1226 56.2423C25.4983 56.1491 25.018 56.1025 24.6818 56.1957C24.1056 56.289 23.5773 56.4755 23.1451 56.8019C22.7128 57.1282 22.3286 57.5479 22.0405 58.0607C21.4162 59.273 21.4642 60.4387 22.0885 61.5577C22.5688 62.3969 23.6253 63.1896 25.2101 63.9822C27.1791 64.9147 28.6679 65.2877 29.6764 65.0546C30.6849 64.8215 31.5013 64.2154 32.0296 63.143C32.5579 62.1172 32.6539 61.2313 32.3178 60.392C32.0296 59.646 31.4053 58.8534 30.3968 58.1074Z" fill="#144639"/>
<path d="M28.7168 40.2026L40.2427 28.8726L43.2682 31.7634L36.0645 38.8505L38.3217 40.9953L45.0451 34.421L47.9266 37.1719L41.2032 43.7462L43.9886 46.4038L51.4324 39.0836L54.602 42.1609L42.836 53.7241L28.7168 40.2026Z" fill="#144639"/>
<path d="M58.3481 39.5028L49.2715 22.3912L58.3481 17.8685C60.029 17.0292 61.3737 16.5163 62.4302 16.3765C63.4868 16.2366 64.4472 16.3765 65.4077 16.8427C66.3682 17.309 67.1366 18.1016 67.7129 19.2206C68.1932 20.1531 68.4333 21.0857 68.3853 21.9715C68.3372 22.8574 68.0491 23.6967 67.5688 24.4893C67.2327 25.0022 66.7524 25.5617 66.0321 26.1212C66.8004 26.028 67.3767 25.9814 67.7609 26.028C68.0491 26.0746 68.4813 26.2145 69.1056 26.4942C69.7299 26.774 70.1622 27.0071 70.4503 27.1936L75.733 30.8304L69.5859 33.9077L63.919 30.1311C63.1986 29.6182 62.6223 29.385 62.2381 29.2918C61.7098 29.2452 61.1816 29.2918 60.7013 29.5715L60.2211 29.8047L63.919 36.7519L58.3481 39.5028ZM58.3961 26.5875L60.7013 25.4219C60.9414 25.282 61.3737 24.9556 61.998 24.4893C62.3342 24.2562 62.5263 23.9298 62.5743 23.5102C62.6223 23.0906 62.5743 22.7176 62.3822 22.3446C62.094 21.785 61.6618 21.4587 61.1816 21.3654C60.7013 21.2722 59.8849 21.4587 58.9244 21.9249L56.5232 23.1372L58.3961 26.5875Z" fill="#144639"/>
<path d="M74.1953 11.5275L92.5887 8.63672L93.3571 13.3459L87.21 14.3251L89.6112 28.6392L83.5601 29.5717L81.1589 15.2576L75.0117 16.2367L74.1953 11.5275Z" fill="#144639"/>
<path d="M101.954 8.96338L108.053 9.42964L106.468 28.6395L100.369 28.1732L101.954 8.96338Z" fill="#144639"/>
<path d="M118.666 11.0151L133.073 15.5378L131.776 19.4544L123.228 16.7501L122.171 19.9673L129.471 22.2519L128.222 25.9354L120.923 23.6507L118.425 31.1108L112.566 29.2458L118.666 11.0151Z" fill="#144639"/>
<path d="M141.718 20.0137L146.953 23.1376L136.627 39.5499L131.393 36.4259L141.718 20.0137Z" fill="#144639"/>
<path d="M155.789 29.1528L167.315 40.4829L164.289 43.3737L157.086 36.2866L154.829 38.4314L161.552 45.0056L158.671 47.7565L151.947 41.1823L149.162 43.8399L156.606 51.1602L153.436 54.2375L141.67 42.6743L155.789 29.1528Z" fill="#144639"/>
<path d="M173.895 49.3408L177.977 57.2206C178.793 58.7592 179.226 60.158 179.274 61.3236C179.322 62.4893 179.13 63.6083 178.649 64.6341C178.169 65.6598 177.449 66.5924 176.488 67.385C175.576 68.1776 174.471 68.877 173.271 69.4831C171.398 70.4157 169.813 70.9285 168.516 70.9752C167.268 71.0684 166.067 70.9285 165.01 70.5089C163.906 70.0893 163.041 69.5298 162.369 68.7838C161.457 67.758 160.736 66.7789 160.256 65.8463L156.174 57.9666L173.895 49.3408ZM172.646 56.6144L162.945 61.3236L163.618 62.6292C164.194 63.7482 164.722 64.4476 165.202 64.8206C165.683 65.147 166.355 65.3335 167.123 65.2868C167.892 65.2402 168.996 64.8672 170.389 64.1678C172.262 63.2353 173.415 62.3494 173.799 61.4169C174.183 60.4844 174.039 59.3187 173.319 57.9666L172.646 56.6144Z" fill="#144639"/>
<path d="M97.8752 35.8664C114.348 35.8664 129.811 42.0676 141.433 53.3977C153.055 64.7278 159.491 79.6946 159.491 95.6873C159.491 111.68 153.103 126.693 141.433 137.977C129.811 149.26 114.348 155.508 97.8752 155.508C81.4027 155.508 65.9389 149.307 54.3169 137.977C42.695 126.693 36.2597 111.68 36.2597 95.6873C36.2597 79.6946 42.6469 64.6811 54.3169 53.3977C65.9869 42.1143 81.4027 35.8664 97.8752 35.8664ZM97.8752 33.2554C62.385 33.2554 33.5703 61.1842 33.5703 95.6873C33.5703 130.19 62.337 158.119 97.8752 158.119C133.413 158.119 162.18 130.19 162.18 95.6873C162.18 61.1842 133.365 33.2554 97.8752 33.2554Z" fill="#144639"/>
<path d="M97.875 152.757C130.366 152.757 156.705 127.185 156.705 95.6405C156.705 64.0959 130.366 38.5239 97.875 38.5239C65.384 38.5239 39.0449 64.0959 39.0449 95.6405C39.0449 127.185 65.384 152.757 97.875 152.757Z" fill="#144639"/>
<path d="M54.6515 102.728C56.1883 102.682 57.2449 102.495 57.9172 102.122C58.9737 101.516 59.55 100.304 59.55 98.4852V69.3441C59.55 67.5723 59.0218 66.4067 58.0133 65.8005C57.3889 65.4275 56.2844 65.1944 54.6515 65.1478V63.5625H73.3331V65.1012C71.6522 65.1944 70.4996 65.3809 69.8753 65.7539C68.8188 66.36 68.2905 67.5723 68.2905 69.3441V98.4852C68.2905 100.164 68.7227 101.283 69.5391 101.842C70.3556 102.402 71.6042 102.682 73.2851 102.682V104.22H54.6035V102.728H54.6515Z" fill="white"/>
<path d="M76.4543 90.1857H77.9911C78.8555 94.6618 80.2002 97.9722 82.1212 99.9771C84.0422 102.029 86.2033 103.054 88.6525 103.054C91.0537 103.054 92.7346 102.355 93.7431 100.956C94.7516 99.5575 95.2319 98.0654 95.2319 96.5268C95.2319 94.7084 94.7036 93.263 93.6471 92.0973C92.9747 91.3513 91.534 90.3722 89.4209 89.2065L86.0112 87.2483C82.6494 85.3366 80.2482 83.425 78.8555 81.5599C77.4628 79.6949 76.7904 77.3636 76.7904 74.6127C76.7904 71.6753 77.7029 68.9243 79.5278 66.3599C81.3528 63.7955 84.1862 62.5366 87.9802 62.5366C89.9011 62.5366 91.7741 62.863 93.599 63.5157C95.424 64.1685 96.4325 64.4949 96.6726 64.4949C97.2489 64.4949 97.6331 64.3084 97.8732 63.9354C98.1133 63.5624 98.2574 63.0495 98.4015 62.4434H99.9863V75.5452H98.4975C97.7772 72.5145 96.5766 69.9035 94.7997 67.7121C93.0227 65.5207 90.9097 64.4016 88.3644 64.4016C86.5875 64.4016 85.1947 64.9611 84.1862 66.0802C83.1777 67.1992 82.6494 68.5513 82.6494 70.1366C82.6494 72.0483 83.1297 73.447 84.0902 74.3796C85.0507 75.3587 87.1637 76.7575 90.4774 78.6225L94.4155 80.8605C96.1924 81.8397 97.5851 82.9587 98.6416 84.171C100.611 86.4556 101.571 89.2065 101.571 92.4704C101.571 95.501 100.515 98.3452 98.4015 101.049C96.2884 103.754 92.9267 105.106 88.3163 105.106C87.2598 105.106 86.2033 105.013 85.0987 104.78C83.9941 104.546 82.9376 104.22 81.8811 103.754L80.8725 103.334C80.6324 103.241 80.3923 103.194 80.2002 103.148C79.9601 103.101 79.768 103.054 79.6239 103.054C79.0956 103.054 78.7114 103.241 78.4713 103.614C78.2792 103.987 78.0871 104.5 77.943 105.153H76.4062V90.1857H76.4543Z" fill="white"/>
<path d="M138.502 68.5512C142.152 72.561 144.025 77.7365 144.025 84.0776C144.025 90.4187 142.2 95.5942 138.502 99.604C134.9 103.521 130.434 105.479 125.055 105.479C119.34 105.479 114.682 103.334 111.08 99.0445C107.718 94.988 106.037 90.1389 106.037 84.404C106.037 78.1095 107.814 72.934 111.32 68.8776C114.874 64.7745 119.436 62.723 125.055 62.723C130.434 62.6764 134.948 64.6346 138.502 68.5512ZM133.315 95.4076C134.131 92.5168 134.516 88.7402 134.516 84.0776C134.516 77.6899 133.651 72.8408 131.97 69.577C130.29 66.3132 127.984 64.6813 125.055 64.6813C121.021 64.6813 118.235 67.3856 116.747 72.8408C115.978 75.7316 115.546 79.4616 115.546 84.0776C115.546 88.7402 115.93 92.5168 116.747 95.4076C118.235 100.77 120.973 103.427 125.055 103.427C129.041 103.427 131.826 100.723 133.315 95.4076Z" fill="white"/>
<path d="M55.9275 128.302V126.414L59.0315 121.646C59.2662 121.294 59.4848 120.953 59.6875 120.622C59.9008 120.292 60.0715 119.956 60.1995 119.614C60.3382 119.273 60.4075 118.916 60.4075 118.542C60.4075 118.169 60.3328 117.892 60.1835 117.71C60.0342 117.529 59.8315 117.438 59.5755 117.438C59.2875 117.438 59.0635 117.518 58.9035 117.678C58.7435 117.838 58.6315 118.052 58.5675 118.318C58.5142 118.585 58.4875 118.884 58.4875 119.214V119.854H55.8955V119.166C55.8955 118.398 56.0182 117.716 56.2635 117.118C56.5088 116.51 56.8982 116.036 57.4315 115.694C57.9648 115.342 58.6635 115.166 59.5275 115.166C60.6902 115.166 61.5648 115.47 62.1515 116.078C62.7488 116.676 63.0475 117.513 63.0475 118.59C63.0475 119.113 62.9622 119.598 62.7915 120.046C62.6315 120.494 62.4128 120.932 62.1355 121.358C61.8688 121.774 61.5808 122.212 61.2715 122.67L58.9035 126.206H62.6955V128.302H55.9275ZM64.8502 128.302L67.6662 117.374H64.1302V115.342H70.2742V117.182L67.4582 128.302H64.8502ZM75.5615 128.542C74.7828 128.542 74.1322 128.388 73.6095 128.078C73.0868 127.758 72.6922 127.321 72.4255 126.766C72.1588 126.212 72.0255 125.566 72.0255 124.83V118.958C72.0255 118.201 72.1482 117.54 72.3935 116.974C72.6495 116.398 73.0388 115.95 73.5615 115.63C74.0842 115.31 74.7508 115.15 75.5615 115.15C76.3722 115.15 77.0335 115.31 77.5455 115.63C78.0682 115.95 78.4522 116.398 78.6975 116.974C78.9535 117.54 79.0815 118.201 79.0815 118.958V124.83C79.0815 125.556 78.9482 126.201 78.6815 126.766C78.4148 127.321 78.0202 127.758 77.4975 128.078C76.9748 128.388 76.3295 128.542 75.5615 128.542ZM75.5615 126.158C75.8175 126.158 75.9988 126.078 76.1055 125.918C76.2228 125.748 76.2922 125.556 76.3135 125.342C76.3455 125.118 76.3615 124.926 76.3615 124.766V119.022C76.3615 118.841 76.3508 118.638 76.3295 118.414C76.3082 118.18 76.2388 117.977 76.1215 117.806C76.0148 117.625 75.8282 117.534 75.5615 117.534C75.2948 117.534 75.1028 117.625 74.9855 117.806C74.8788 117.977 74.8148 118.18 74.7935 118.414C74.7722 118.638 74.7615 118.841 74.7615 119.022V124.766C74.7615 124.926 74.7775 125.118 74.8095 125.342C74.8415 125.556 74.9108 125.748 75.0175 125.918C75.1348 126.078 75.3162 126.158 75.5615 126.158ZM84.6784 128.542C83.8997 128.542 83.249 128.388 82.7264 128.078C82.2037 127.758 81.809 127.321 81.5424 126.766C81.2757 126.212 81.1424 125.566 81.1424 124.83V118.958C81.1424 118.201 81.265 117.54 81.5104 116.974C81.7664 116.398 82.1557 115.95 82.6784 115.63C83.201 115.31 83.8677 115.15 84.6784 115.15C85.489 115.15 86.1504 115.31 86.6624 115.63C87.185 115.95 87.569 116.398 87.8144 116.974C88.0704 117.54 88.1984 118.201 88.1984 118.958V124.83C88.1984 125.556 88.065 126.201 87.7984 126.766C87.5317 127.321 87.137 127.758 86.6144 128.078C86.0917 128.388 85.4464 128.542 84.6784 128.542ZM84.6784 126.158C84.9344 126.158 85.1157 126.078 85.2224 125.918C85.3397 125.748 85.409 125.556 85.4304 125.342C85.4624 125.118 85.4784 124.926 85.4784 124.766V119.022C85.4784 118.841 85.4677 118.638 85.4464 118.414C85.425 118.18 85.3557 117.977 85.2384 117.806C85.1317 117.625 84.945 117.534 84.6784 117.534C84.4117 117.534 84.2197 117.625 84.1024 117.806C83.9957 117.977 83.9317 118.18 83.9104 118.414C83.889 118.638 83.8784 118.841 83.8784 119.022V124.766C83.8784 124.926 83.8944 125.118 83.9264 125.342C83.9584 125.556 84.0277 125.748 84.1344 125.918C84.2517 126.078 84.433 126.158 84.6784 126.158ZM91.5232 128.302V117.982C91.4059 118.046 91.2726 118.11 91.1232 118.174C90.9739 118.238 90.8139 118.308 90.6432 118.382C90.4832 118.446 90.3232 118.51 90.1632 118.574C90.0139 118.638 89.8752 118.702 89.7472 118.766V116.782C89.8646 116.718 90.0299 116.633 90.2432 116.526C90.4566 116.409 90.6859 116.281 90.9312 116.142C91.1766 116.004 91.4059 115.865 91.6192 115.726C91.8326 115.577 91.9926 115.449 92.0992 115.342H94.1952V128.302H91.5232ZM97.006 121.71V119.278H99.438V121.71H97.006ZM97.006 127.406V124.974H99.438V127.406H97.006ZM101.363 128.302V126.414L104.467 121.646C104.702 121.294 104.92 120.953 105.123 120.622C105.336 120.292 105.507 119.956 105.635 119.614C105.774 119.273 105.843 118.916 105.843 118.542C105.843 118.169 105.768 117.892 105.619 117.71C105.47 117.529 105.267 117.438 105.011 117.438C104.723 117.438 104.499 117.518 104.339 117.678C104.179 117.838 104.067 118.052 104.003 118.318C103.95 118.585 103.923 118.884 103.923 119.214V119.854H101.331V119.166C101.331 118.398 101.454 117.716 101.699 117.118C101.944 116.51 102.334 116.036 102.867 115.694C103.4 115.342 104.099 115.166 104.963 115.166C106.126 115.166 107 115.47 107.587 116.078C108.184 116.676 108.483 117.513 108.483 118.59C108.483 119.113 108.398 119.598 108.227 120.046C108.067 120.494 107.848 120.932 107.571 121.358C107.304 121.774 107.016 122.212 106.707 122.67L104.339 126.206H108.131V128.302H101.363ZM113.646 128.542C112.867 128.542 112.217 128.388 111.694 128.078C111.171 127.758 110.777 127.321 110.51 126.766C110.243 126.212 110.11 125.566 110.11 124.83V118.958C110.11 118.201 110.233 117.54 110.478 116.974C110.734 116.398 111.123 115.95 111.646 115.63C112.169 115.31 112.835 115.15 113.646 115.15C114.457 115.15 115.118 115.31 115.63 115.63C116.153 115.95 116.537 116.398 116.782 116.974C117.038 117.54 117.166 118.201 117.166 118.958V124.83C117.166 125.556 117.033 126.201 116.766 126.766C116.499 127.321 116.105 127.758 115.582 128.078C115.059 128.388 114.414 128.542 113.646 128.542ZM113.646 126.158C113.902 126.158 114.083 126.078 114.19 125.918C114.307 125.748 114.377 125.556 114.398 125.342C114.43 125.118 114.446 124.926 114.446 124.766V119.022C114.446 118.841 114.435 118.638 114.414 118.414C114.393 118.18 114.323 117.977 114.206 117.806C114.099 117.625 113.913 117.534 113.646 117.534C113.379 117.534 113.187 117.625 113.07 117.806C112.963 117.977 112.899 118.18 112.878 118.414C112.857 118.638 112.846 118.841 112.846 119.022V124.766C112.846 124.926 112.862 125.118 112.894 125.342C112.926 125.556 112.995 125.748 113.102 125.918C113.219 126.078 113.401 126.158 113.646 126.158ZM120.491 128.302V117.982C120.373 118.046 120.24 118.11 120.091 118.174C119.941 118.238 119.781 118.308 119.611 118.382C119.451 118.446 119.291 118.51 119.131 118.574C118.981 118.638 118.843 118.702 118.715 118.766V116.782C118.832 116.718 118.997 116.633 119.211 116.526C119.424 116.409 119.653 116.281 119.899 116.142C120.144 116.004 120.373 115.865 120.587 115.726C120.8 115.577 120.96 115.449 121.067 115.342H123.163V128.302H120.491ZM129.077 128.542C128.171 128.542 127.456 128.372 126.933 128.03C126.421 127.689 126.053 127.214 125.829 126.606C125.616 125.988 125.509 125.278 125.509 124.478V124.014H128.181C128.181 124.025 128.181 124.084 128.181 124.19C128.181 124.297 128.181 124.393 128.181 124.478C128.181 124.905 128.208 125.252 128.261 125.518C128.315 125.785 128.411 125.982 128.549 126.11C128.688 126.228 128.88 126.286 129.125 126.286C129.371 126.286 129.552 126.222 129.669 126.094C129.797 125.966 129.883 125.774 129.925 125.518C129.968 125.262 129.989 124.942 129.989 124.558C129.989 123.918 129.899 123.433 129.717 123.102C129.547 122.761 129.184 122.585 128.629 122.574C128.619 122.574 128.56 122.574 128.453 122.574C128.347 122.574 128.24 122.574 128.133 122.574V120.734C128.208 120.734 128.283 120.734 128.357 120.734C128.432 120.734 128.501 120.734 128.565 120.734C129.131 120.734 129.509 120.58 129.701 120.27C129.893 119.961 129.989 119.481 129.989 118.83C129.989 118.329 129.92 117.945 129.781 117.678C129.653 117.412 129.408 117.278 129.045 117.278C128.693 117.278 128.459 117.428 128.341 117.726C128.235 118.025 128.181 118.409 128.181 118.878C128.181 118.985 128.181 119.097 128.181 119.214C128.181 119.321 128.181 119.433 128.181 119.55H125.509V118.766C125.509 117.988 125.648 117.332 125.925 116.798C126.213 116.254 126.619 115.844 127.141 115.566C127.675 115.289 128.309 115.15 129.045 115.15C129.792 115.15 130.432 115.284 130.965 115.55C131.499 115.817 131.909 116.212 132.197 116.734C132.485 117.246 132.629 117.886 132.629 118.654C132.629 119.412 132.475 120.046 132.165 120.558C131.856 121.07 131.483 121.385 131.045 121.502C131.344 121.609 131.611 121.78 131.845 122.014C132.091 122.249 132.283 122.569 132.421 122.974C132.56 123.369 132.629 123.876 132.629 124.494C132.629 125.284 132.512 125.982 132.277 126.59C132.053 127.198 131.68 127.678 131.157 128.03C130.635 128.372 129.941 128.542 129.077 128.542Z" fill="white"/>
</svg>
