<svg width="100" height="100" viewBox="0 0 100 100" fill="none" xmlns="http://www.w3.org/2000/svg">
<rect width="100" height="100" rx="8" fill="#202020"/>
<path d="M63.556 51.3841C63.5346 47.3966 65.3135 44.387 68.9141 42.1705C66.8995 39.2478 63.8561 37.6398 59.8375 37.3247C56.0332 37.0205 51.8753 39.5738 50.3536 39.5738C48.7462 39.5738 45.0598 37.4334 42.1664 37.4334C36.1868 37.5312 29.832 42.2683 29.832 51.9056C29.832 54.7523 30.3464 57.6931 31.3752 60.7281C32.7468 64.7156 37.6977 74.4941 42.863 74.3312C45.5635 74.266 47.471 72.3863 50.9859 72.3863C54.3936 72.3863 56.1618 74.3312 59.1731 74.3312C64.3812 74.2551 68.8606 65.3675 70.1679 61.3691C63.181 58.0336 63.556 51.5906 63.556 51.3841ZM57.4906 33.5437C60.4162 30.0234 60.1483 26.8182 60.0625 25.6665C57.4799 25.8186 54.4901 27.4484 52.7862 29.4584C50.9109 31.6097 49.8071 34.2716 50.0428 37.2704C52.8398 37.4877 55.3902 36.0318 57.4906 33.5437Z" fill="white"/>
</svg>
