<svg width="81" height="80" viewBox="0 0 81 80" fill="none" xmlns="http://www.w3.org/2000/svg">
<path fill-rule="evenodd" clip-rule="evenodd" d="M36.2777 0.079793C32.1619 0.51338 28.0249 1.60971 24.183 3.28524C12.2434 8.49198 3.49114 19.3997 0.991076 32.1887C0.425165 35.0836 0.335796 36.1624 0.337927 40.0734C0.339632 43.3596 0.385809 44.196 0.660168 45.9107C1.60956 51.8448 3.74263 57.3553 6.92895 62.1053C10.9516 68.1018 16.106 72.6442 22.5356 75.8585C33.1512 81.1655 45.9523 81.3843 56.8335 76.4446C73.9756 68.6627 83.3615 50.0521 79.4605 31.5785C76.2913 16.5696 64.519 4.51767 49.5802 0.988166C46.5211 0.265332 44.7479 0.0638816 40.9711 0.0101805C39.0175 -0.0176645 36.9054 0.0135901 36.2777 0.079793ZM44.3819 2.00153C50.3495 2.69708 55.513 4.46325 60.3414 7.46043C74.7128 16.3818 81.4899 33.4008 77.1949 49.783C75.9612 54.4886 73.7759 58.951 70.6791 63.0881C69.1274 65.161 65.6892 68.6338 63.6737 70.1639C57.3622 74.9554 50.3574 77.569 42.4962 78.0653C40.1919 78.211 39.3946 78.1922 36.3535 77.9209C31.8147 77.5158 26.673 75.966 22.4332 73.7249C9.97659 67.1404 2.11181 54.1129 2.11181 40.0634C2.11181 31.5205 4.7345 23.731 9.97688 16.7034C11.2813 14.9547 15.2948 10.9453 17.0608 9.6268C22.6427 5.459 29.1235 2.80733 35.501 2.08194C36.2433 1.99741 37.0426 1.90606 37.277 1.87864C38.4935 1.73686 42.741 1.8103 44.3819 2.00153ZM37.348 4.69695C36.6057 4.79626 35.3428 4.95637 34.5419 5.05269C32.9358 5.24604 32.9567 5.22672 33.1742 6.31395L33.2629 6.75706L34.0622 6.66415C34.5018 6.613 34.9559 6.56555 35.0715 6.55845C35.2395 6.54822 35.3535 7.13922 35.6445 9.52906L36.0078 12.5125L36.8114 12.5093C37.2533 12.5075 37.6579 12.463 37.7106 12.4105C37.7632 12.3577 37.6451 10.9851 37.4481 9.36014C37.251 7.73519 37.1139 6.36652 37.1434 6.31878C37.173 6.27105 37.5881 6.19107 38.0661 6.14106C38.5441 6.09119 38.981 6.02187 39.0371 5.9872C39.1866 5.89486 39.007 4.58501 38.8399 4.54793C38.7617 4.53074 38.0904 4.59779 37.348 4.69695ZM41.1005 4.6988C41.037 4.89031 40.758 10.3941 40.758 11.4548V12.2994H41.6041C42.449 12.2994 42.4502 12.2988 42.5221 11.8376C42.5617 11.5838 42.6303 10.2572 42.6747 8.88976C42.719 7.52237 42.7922 6.01007 42.8373 5.52904L42.9195 4.65448L42.0334 4.60561C41.5241 4.57748 41.1275 4.61711 41.1005 4.6988ZM45.5258 5.07968C45.4617 5.27474 44.0371 11.936 43.9847 12.2853C43.9645 12.4197 44.2276 12.5473 44.7938 12.6777C45.2551 12.7841 45.6484 12.8543 45.6676 12.8338C45.6868 12.8134 45.84 12.1594 46.008 11.3805C46.1761 10.6017 46.3323 9.94588 46.3549 9.92315C46.3776 9.90057 46.9829 10.0023 47.7001 10.1493C48.4172 10.2965 49.0285 10.3769 49.0585 10.328C49.0885 10.2793 49.1564 9.95043 49.2093 9.59725L49.3053 8.95511L48.0154 8.69442C47.0151 8.49226 46.7261 8.38131 46.7288 8.20003C46.7328 7.92442 46.9618 6.90112 47.0361 6.82681C47.0646 6.79854 47.6566 6.90211 48.3518 7.05696C49.0472 7.21196 49.6945 7.30856 49.7904 7.27177C49.9605 7.20642 50.2257 6.09148 50.101 5.96674C50.0666 5.93222 49.1492 5.71088 48.0623 5.47477C46.9753 5.23851 45.9738 5.01092 45.8367 4.96887C45.6979 4.92625 45.5601 4.9754 45.5258 5.07968ZM27.8286 6.80323C26.569 7.26395 25.5553 7.7582 25.5553 7.91149C25.5553 7.98139 26.1357 9.60052 26.8452 11.5095L28.135 14.9804L28.9409 14.6798C29.3841 14.5146 29.7604 14.3717 29.7774 14.3623C29.7943 14.3529 29.5864 13.7565 29.3156 13.0368C29.0448 12.3173 28.8231 11.668 28.8231 11.5941C28.8231 11.4174 29.7165 11.2536 30.0698 11.3657C30.2219 11.414 30.6867 11.934 31.1026 12.521C31.6544 13.3002 31.9187 13.5639 32.0814 13.4971C32.2038 13.447 32.5758 13.3107 32.908 13.1944C33.2402 13.0782 33.5118 12.95 33.5118 12.9097C33.5118 12.743 32.0339 10.7835 31.6861 10.4887C31.4789 10.3133 31.1931 10.1695 31.0505 10.1691C30.8082 10.1684 30.8101 10.1448 31.0824 9.79885C31.7183 8.99049 31.5988 7.72524 30.8155 6.97499C30.2126 6.39735 29.1111 6.33399 27.8286 6.80323ZM52.5654 7.01562C52.2065 7.6866 49.8499 13.7959 49.8999 13.9262C49.9583 14.0782 51.3918 14.6513 51.4695 14.5537C51.691 14.2752 54.2432 7.54425 54.1573 7.4654C54.0942 7.40758 53.7391 7.22872 53.3683 7.06776C52.7427 6.79641 52.6847 6.79258 52.5654 7.01562ZM29.4433 8.1898C29.7116 8.40063 29.8177 8.616 29.8177 8.94915C29.8177 9.47479 29.5512 9.7727 28.8001 10.0864L28.29 10.2995L27.9365 9.34608C27.7422 8.82157 27.6015 8.37065 27.6241 8.34394C27.6885 8.26794 28.7336 7.90851 28.9105 7.90155C28.9976 7.89814 29.2374 8.02784 29.4433 8.1898ZM56.3513 9.34736C55.1068 11.309 52.8069 15.1597 52.8535 15.2038C52.9601 15.3042 56.7126 17.5807 56.8734 17.6423C57.0108 17.695 57.6657 16.7683 57.6657 16.5213C57.6657 16.4538 57.2093 16.1513 55.7045 15.2212L55.0932 14.8435L55.4067 14.3173C55.9982 13.3249 55.9635 13.33 57.1612 14.057C57.7568 14.4187 58.2995 14.7145 58.3671 14.7145C58.4899 14.7145 59.0865 13.7933 59.0865 13.6038C59.0865 13.5488 58.575 13.1974 57.9498 12.8229C57.3247 12.4482 56.8132 12.112 56.8132 12.0756C56.8132 11.9492 57.5277 10.8787 57.6123 10.8787C57.659 10.8787 58.2405 11.2069 58.9046 11.6079C60.2027 12.3918 60.1321 12.395 60.5964 11.5359C60.7803 11.1955 60.7854 11.0986 60.6267 10.9541C60.4847 10.8248 57.8524 9.1891 56.9267 8.65493C56.872 8.62339 56.613 8.93494 56.3513 9.34736ZM20.6908 10.6108L18.754 11.9055L20.8774 15.0858C22.0453 16.835 23.0339 18.2661 23.0741 18.2661C23.1332 18.2661 26.9039 15.7904 27.1034 15.6206C27.1344 15.5942 26.9862 15.3105 26.7742 14.99C26.5291 14.6199 26.3144 14.4358 26.1854 14.4852C26.0737 14.5281 25.5055 14.8848 24.9227 15.2781C24.3399 15.6713 23.8122 15.9919 23.7501 15.9905C23.688 15.9891 23.4327 15.6753 23.1829 15.2931L22.7287 14.5984L23.8578 13.8571C24.4789 13.4495 24.9869 13.0749 24.9869 13.0247C24.9869 12.7592 24.2413 11.8776 24.0913 11.9656C23.9978 12.0205 23.4701 12.3674 22.9185 12.7366L21.9158 13.4076L21.5143 12.773C21.29 12.4186 21.1682 12.0884 21.2383 12.0252C21.3073 11.9629 21.858 11.5825 22.462 11.1799L23.5602 10.4478L23.1724 9.88735C22.9591 9.57907 22.7494 9.32434 22.7062 9.32136C22.6631 9.31838 21.7561 9.89858 20.6908 10.6108ZM60.5894 15.783L57.9008 18.3993L59.2397 19.7274C60.8176 21.293 61.5599 21.7005 62.8224 21.6945C64.8652 21.6847 66.7792 19.8411 66.7792 17.8834C66.7792 16.7142 66.2396 15.7368 64.8141 14.3238C64.1638 13.6792 63.5521 13.155 63.4548 13.1591C63.3575 13.1633 62.0681 14.344 60.5894 15.783ZM15.8481 14.22C13.5593 15.9674 13.2746 18.7952 15.2022 20.6338C16.9792 22.3288 19.0241 22.2784 20.7641 20.4967C21.1375 20.1144 21.5687 19.5554 21.7222 19.2545L22.0014 18.7074L21.3984 18.346C20.835 18.0083 20.7843 18.0008 20.6245 18.2319C19.6656 19.6188 19.1681 19.9923 18.2612 20.0059C16.9475 20.0258 15.6096 18.7435 15.6096 17.4646C15.6096 16.7502 16.2357 15.73 16.9421 15.2934C17.225 15.1185 17.4566 14.9475 17.4566 14.9132C17.4566 14.7597 16.7302 13.72 16.6227 13.72C16.5568 13.72 16.2083 13.9451 15.8481 14.22ZM37.0639 14.159C27.8441 15.3447 19.9071 21.3584 16.2832 29.9042C14.8372 33.3141 14.2737 36.1434 14.272 40.0023C14.2702 44.3213 14.9551 47.3993 16.7691 51.2223C20.4638 59.0097 27.6011 64.3491 36.2824 65.8201C38.2856 66.1595 42.4416 66.1484 44.4521 65.7985C51.7487 64.528 57.9098 60.5531 61.9526 54.508C64.8685 50.1477 66.3233 45.3406 66.3301 40.0427C66.3373 34.4252 64.5615 29.0362 61.1904 24.4453C60.0841 22.9387 56.7986 19.7478 55.3213 18.7453C51.6293 16.2397 48.0026 14.8067 43.8653 14.2188C42.2805 13.9935 38.6018 13.9613 37.0639 14.159ZM45.3915 15.3379C60.011 18.4405 68.7111 33.2806 64.2671 47.5347C63.6273 49.5868 62.0716 52.735 60.8284 54.4931C59.591 56.2431 56.5525 59.2813 54.8563 60.4643C46.22 66.4882 35.0449 66.6575 26.3933 60.8955C20.7403 57.1306 16.9505 51.4637 15.6036 44.7615C15.1663 42.5854 15.0614 38.691 15.3814 36.5096C17.067 25.0214 25.9217 16.3852 37.4901 14.9466C37.7636 14.9127 39.2661 14.9046 40.829 14.9287C43.2272 14.9658 43.9392 15.0297 45.3915 15.3379ZM64.2297 15.6734C65.482 17.0118 65.255 18.5469 63.6546 19.5617C62.587 20.2387 61.503 20.0945 60.6119 19.1569L60.2192 18.7438L61.9617 17.0148C62.92 16.0638 63.7401 15.2852 63.7841 15.2843C63.8282 15.2835 64.0287 15.4585 64.2297 15.6734ZM38.1012 15.8513C28.3621 16.8695 20.3969 23.2206 17.3205 32.4208C15.3244 38.39 15.7809 45.0058 18.5792 50.666C20.5087 54.5685 23.3155 57.7625 26.9526 60.1944C33.1549 64.3414 41.1382 65.3721 48.1673 62.9336C55.3091 60.4558 60.7874 54.9781 63.2654 47.837C64.9708 42.9224 64.9988 37.3724 63.343 32.4208C60.0899 22.6918 51.3983 16.1934 41.1132 15.8002C40.0973 15.7614 38.742 15.7844 38.1012 15.8513ZM39.124 28.582C40.5704 29.1112 41.1193 29.1632 41.3506 28.793C41.4972 28.5582 41.6801 28.4949 42.213 28.4949H42.8892V30.5383C42.8892 32.5373 42.8822 32.5836 42.5695 32.6674C41.9478 32.8339 41.3263 32.7694 41.3263 32.5381C41.3263 32.1872 40.8181 31.2976 40.3803 30.8821C39.8421 30.3713 39.0881 30.0719 38.0738 29.9657C36.2317 29.7732 35.0747 30.2985 35.0747 31.3269C35.0747 32.2567 35.5148 32.4869 38.3729 33.0517C39.5624 33.2867 40.9052 33.6448 41.3569 33.8476C43.24 34.6926 44.001 36.4683 43.3785 38.5643C43.0965 39.5135 42.3791 40.3092 41.3492 40.8149C40.6386 41.1639 40.3535 41.2157 38.9021 41.2596C37.4023 41.3049 37.1672 41.2758 36.2026 40.9252C34.6273 40.3528 34.4545 40.34 34.1158 40.7706C33.8717 41.081 33.7122 41.1389 33.1006 41.1389H32.3752V38.8658V36.5927H33.1566C33.8484 36.5927 33.9381 36.626 33.9381 36.8825C33.9381 37.2755 34.4041 38.1569 34.814 38.5392C35.4669 39.1481 36.4816 39.4836 37.8649 39.5481C38.6494 39.5846 39.3646 39.5422 39.6719 39.4409C40.6474 39.1188 41.1687 38.0704 40.7458 37.2803C40.514 36.8472 39.5804 36.498 37.795 36.1765C35.7526 35.8088 35.1637 35.6481 34.3539 35.2378C33.0384 34.5713 32.465 33.541 32.459 31.8335C32.4509 29.4591 33.9548 28.2213 36.8507 28.219C37.871 28.2183 38.3305 28.2916 39.124 28.582ZM53.4318 28.3705C56.0987 28.9363 57.5124 30.7639 57.7556 33.9599C57.9797 36.9044 56.9108 39.4275 54.9987 40.4682C53.0442 41.5318 49.5564 41.5798 47.5773 40.5703C45.7378 39.6319 44.6925 37.0938 44.9446 34.1776C45.2229 30.9574 46.4786 29.2168 49.0553 28.4792C50.0727 28.1879 52.3095 28.1324 53.4318 28.3705ZM30.9544 29.1278C30.9544 29.7474 30.9433 29.7626 30.4216 29.8561C29.3522 30.0477 29.3915 29.8586 29.3915 34.8216C29.3915 39.7477 29.3514 39.545 30.3579 39.7087C30.8729 39.7923 30.8833 39.8067 30.8833 40.4309V41.0678L27.651 41.106L24.4186 41.1442V40.4312C24.4186 39.7203 24.42 39.7182 24.8842 39.7182C25.1404 39.7182 25.492 39.6186 25.6657 39.497C25.9807 39.2765 25.9815 39.2631 25.9815 34.8308C25.9815 29.8575 26.0209 30.0477 24.9514 29.8561C24.4297 29.7626 24.4186 29.7474 24.4186 29.1278V28.4949H27.6865H30.9544V29.1278ZM50.3485 30.0892C49.591 30.3577 49.1667 30.7579 48.7589 31.5883C48.3763 32.3674 48.3595 32.4889 48.3616 34.4617C48.3639 36.6898 48.5563 37.6646 49.1759 38.5906C49.6502 39.2992 50.7487 39.6486 51.8777 39.4498C52.9612 39.2589 53.5001 38.8526 53.9542 37.8842C54.306 37.1341 54.3268 36.9674 54.3268 34.8879C54.3268 31.8122 53.9109 30.658 52.606 30.1129C52.0569 29.8835 50.961 29.872 50.3485 30.0892ZM23.8206 45.781C24.4676 46.2596 24.6317 46.7574 24.6317 48.2422C24.6317 49.4166 24.5856 49.6748 24.2765 50.2311C23.8091 51.0724 22.9728 51.5097 21.831 51.5097H21.0087V51.037C21.0087 50.5995 21.0384 50.5688 21.4093 50.6232C21.6297 50.6556 22.0801 50.6093 22.4103 50.5204C23.0823 50.3395 23.5647 49.7293 23.5656 49.0591C23.5661 48.6701 23.565 48.6695 23.2855 48.949C22.6704 49.564 21.5302 49.4888 20.9461 48.7947C20.6395 48.4303 20.5824 48.221 20.5824 47.4608C20.5824 46.6911 20.638 46.4932 20.9615 46.1086C21.1701 45.8609 21.4738 45.6007 21.6364 45.5307C22.1253 45.3203 23.3945 45.4656 23.8206 45.781ZM28.6214 45.6688C29.3666 46.1231 29.605 46.8185 29.6015 48.5263C29.598 50.1568 29.4348 50.6633 28.7358 51.2131C28.4604 51.4296 28.1541 51.5097 27.6012 51.5097C26.9631 51.5097 26.7678 51.4429 26.3607 51.0855C25.7098 50.5141 25.5061 49.7268 25.5788 48.064C25.6418 46.627 25.9413 45.8846 26.5828 45.5753C27.1022 45.325 28.1353 45.3723 28.6214 45.6688ZM33.5313 45.624C34.8095 46.2849 35.0305 49.8775 33.8648 51.0432C33.4581 51.4498 33.3041 51.5097 32.6664 51.5097C31.1095 51.5097 30.4774 50.6489 30.4709 48.5199C30.4645 46.3834 31.099 45.4025 32.4888 45.4014C32.8247 45.4011 33.2939 45.5013 33.5313 45.624ZM38.3426 48.4553V51.5097H37.7743H37.2059V49.1656C37.2059 47.8764 37.161 46.8215 37.1062 46.8215C37.0512 46.8215 36.7969 47.0245 36.541 47.2726C36.0835 47.7158 36.0706 47.7191 35.783 47.4588C35.6222 47.3133 35.5088 47.1129 35.5312 47.0137C35.5537 46.9144 35.9876 46.5115 36.4955 46.1183C37.1682 45.5976 37.5445 45.403 37.8808 45.4021L38.3426 45.4008V48.4553ZM45.4654 45.9438C46.3043 46.8826 45.8665 48.2058 44.2573 49.5948C43.8174 49.9745 43.4575 50.3371 43.4575 50.4003C43.4575 50.4635 44.0521 50.5152 44.7787 50.5152H46.1L46.042 51.0125L45.9839 51.5097H43.9393H41.8946V51.0568C41.8946 50.6779 42.1026 50.3918 43.1673 49.3064C44.6983 47.7452 45.0125 47.118 44.5131 46.6185C44.1922 46.2979 43.4226 46.3412 42.9588 46.706L42.5638 47.0167L42.2294 46.5995C41.9148 46.2068 41.9097 46.1708 42.1436 45.9896C42.715 45.5466 43.2619 45.3974 44.1512 45.4422C44.9653 45.4831 45.0996 45.5342 45.4654 45.9438ZM50.0086 45.7647C50.5465 46.2424 50.8632 47.1655 50.8736 48.2852C50.8956 50.6478 50.3232 51.5097 48.7325 51.5097C47.3108 51.5097 46.6197 50.2892 46.7608 48.0275C46.8396 46.7648 47.0769 46.1609 47.6816 45.6837C48.0087 45.4256 48.2123 45.3829 48.8869 45.4311C49.4248 45.4696 49.803 45.5821 50.0086 45.7647ZM54.682 48.4553V51.5097H54.0426H53.4032V49.1589V46.8082L52.8314 47.2676L52.2596 47.727L52.0169 47.3808C51.8837 47.1905 51.7733 47.0144 51.7719 46.9897C51.7704 46.965 52.1849 46.6007 52.6928 46.1804C53.4373 45.5642 53.7197 45.4145 54.1492 45.4084L54.682 45.4008V48.4553ZM59.6278 45.9336L59.5838 46.4663L58.4826 46.5078L57.3815 46.5493V47.0946V47.6398L58.2342 47.7015C58.9291 47.7518 59.1645 47.8376 59.5073 48.166C60.3661 48.9886 60.1656 50.4792 59.101 51.1882C58.7181 51.4432 58.4187 51.5097 57.6539 51.5097C56.2969 51.5097 56.0124 51.376 55.988 50.7271C55.9712 50.282 56.005 50.2195 56.2132 50.3092C56.3479 50.3673 56.8506 50.4445 57.3304 50.4806C58.0804 50.5371 58.2449 50.5043 58.5025 50.2467C58.8801 49.8693 58.8867 49.321 58.5182 48.9525C58.2981 48.7324 58.0446 48.6684 57.3932 48.6684C56.248 48.6684 56.1123 48.5996 56.1808 48.0535C56.2119 47.8056 56.2765 47.1073 56.3243 46.5019L56.4112 45.4008H58.0416H59.672L59.6278 45.9336ZM21.9403 46.7111C21.5267 47.3014 21.7375 48.3224 22.2874 48.3912C23.0879 48.4914 23.6421 48.0181 23.5082 47.3487C23.3242 46.4288 22.4011 46.0534 21.9403 46.7111ZM27.0336 46.6944C26.8046 46.9474 26.7632 47.2152 26.7647 48.4347C26.7665 49.9602 26.9059 50.4266 27.3983 50.5553C27.9194 50.6915 28.2963 50.2178 28.4027 49.2926C28.5128 48.3347 28.3541 46.8992 28.1048 46.5988C27.8597 46.3035 27.3459 46.3493 27.0336 46.6944ZM31.8706 46.888C31.6 47.5358 31.6023 49.3801 31.8745 50.0318C32.0612 50.4786 32.1351 50.5289 32.5461 50.489C33.1904 50.4266 33.3651 50.0002 33.3676 48.4837C33.3702 46.9373 33.1467 46.3953 32.5063 46.3953C32.1501 46.3953 32.0413 46.4797 31.8706 46.888ZM48.2332 46.715C48.0309 47.0325 47.9385 47.9737 47.9815 49.2786C47.9986 49.7934 48.0894 50.0451 48.3528 50.3085C48.658 50.6137 48.7471 50.6364 49.0666 50.4908C49.5311 50.2793 49.6381 49.8836 49.6381 48.3778C49.6381 47.4548 49.5777 47.0717 49.3862 46.7796C49.0706 46.2983 48.5185 46.2675 48.2332 46.715ZM41.0518 47.1235C41.1709 47.3462 41.172 47.5168 41.0559 47.7715C40.9234 48.0623 40.8141 48.1102 40.3664 48.0731C39.9017 48.0346 39.8286 47.9786 39.7887 47.6299C39.7293 47.1127 39.9807 46.8215 40.4862 46.8215C40.7527 46.8215 40.9451 46.9244 41.0518 47.1235ZM40.961 50.4543C41.5009 50.9941 40.8407 51.7772 40.0831 51.4956C39.7256 51.3628 39.6353 50.7002 39.9339 50.4016C40.173 50.1625 40.696 50.1893 40.961 50.4543ZM62.3034 57.4562L61.6239 58.1459L62.3386 59.742C62.7316 60.62 62.9758 61.3093 62.8814 61.2738C62.7869 61.2384 62.0468 60.9642 61.2366 60.6646L59.7637 60.1198L59.1409 60.7788C58.7984 61.1412 58.5182 61.496 58.5182 61.567C58.5182 61.6382 59.5886 61.9774 60.8969 62.3211L63.2755 62.9461L64.4845 64.0431L65.6933 65.1401L66.3166 64.4973L66.9399 63.8546L65.7243 62.6899L64.5086 61.5254L63.8422 59.3234C63.4757 58.1122 63.1324 57.0415 63.0793 56.9439C63.0135 56.8231 62.7661 56.9864 62.3034 57.4562ZM16.2256 58.8153C15.3534 59.2214 14.4628 60.0728 14.0285 60.9158C13.1901 62.5424 13.9901 64.7524 15.8953 66.0725L16.4919 66.4861L16.8994 65.9947C17.1236 65.7245 17.3047 65.4393 17.302 65.3612C17.2993 65.283 17.0294 65.0268 16.702 64.7918C16.0666 64.3356 15.4675 63.3363 15.4675 62.733C15.4675 62.0677 16.0642 61.1277 16.7978 60.6375C17.5574 60.1299 18.1655 60.0523 18.9175 60.3671C19.3484 60.5475 20.1914 61.3801 20.5162 61.9459C20.6561 62.1898 20.6911 62.1876 21.2621 61.8962C21.5916 61.7281 21.8611 61.5103 21.8611 61.412C21.8611 60.8818 20.3031 59.252 19.3747 58.8111C18.4047 58.3505 17.2206 58.3521 16.2256 58.8153ZM57.1332 62.4627C56.4124 62.9732 56.3467 62.7767 58.1357 65.4636L59.3388 67.2708L58.7394 66.8584C58.4098 66.6317 57.264 65.9661 56.1934 65.3797L54.2469 64.3132L53.3988 64.8182C52.9324 65.0961 52.5507 65.3744 52.5507 65.4369C52.5507 65.4994 53.4523 66.9897 54.5542 68.7488L56.5576 71.9471L57.2566 71.5169L57.9557 71.0869L57.6431 70.5681C57.471 70.2828 56.7978 69.2302 56.1471 68.2289C55.4962 67.2277 55.0443 66.455 55.1426 66.5119C55.2409 66.5688 55.4812 66.7253 55.6765 66.8597C55.8719 66.9941 57.013 67.655 58.2121 68.3284L60.3924 69.5529L61.157 69.0907C61.6403 68.7988 61.8956 68.5565 61.8511 68.4324C61.7309 68.0977 57.9047 62.0222 57.8183 62.029C57.7734 62.0324 57.4651 62.2276 57.1332 62.4627ZM22.2951 63.2626C21.4616 63.5568 20.3781 64.6551 19.9077 65.6828C19.166 67.3024 19.4809 68.7917 20.8127 69.9639C22.4143 71.3734 24.469 71.2474 25.9423 69.6493C26.7622 68.7598 27.1432 67.9427 27.2276 66.8929C27.3247 65.6815 27.0184 64.914 26.1125 64.0996C24.9706 63.0731 23.6512 62.7838 22.2951 63.2626ZM24.6793 64.7808C25.5592 65.2357 25.7113 66.4798 25.0382 67.7164C24.287 69.0963 23.2118 69.6597 22.2239 69.191C21.2658 68.7364 21.0459 67.7354 21.632 66.4977C21.9579 65.8095 22.6277 65.0661 23.2109 64.7449C23.6058 64.5275 24.2186 64.5425 24.6793 64.7808ZM28.9259 69.8161C28.3223 71.7584 27.8286 73.4169 27.8286 73.5016C27.8286 73.6949 29.1353 74.091 29.2995 73.9474C29.3663 73.8893 29.7633 72.6687 30.1817 71.2352L30.9427 68.6287L30.9485 70.2051C30.9517 71.0721 30.9956 72.3615 31.0459 73.0703L31.1374 74.359L31.7736 74.5192C32.1234 74.6073 32.4267 74.6604 32.4476 74.6374C32.5134 74.5648 34.0895 71.9484 34.8264 70.6887C35.2148 70.0245 35.4933 69.6409 35.4451 69.8363C35.1064 71.2109 34.3673 75.0378 34.4162 75.1649C34.4689 75.3024 35.9185 75.7255 36.0022 75.6279C36.0578 75.563 37.3493 68.4994 37.3486 68.264C37.3482 68.1039 37.0458 67.9701 36.273 67.788C35.6818 67.6486 35.1789 67.557 35.1556 67.5844C35.0283 67.7334 34.2173 69.0874 33.3886 70.5345L32.4462 72.1804L32.4087 69.5619C32.3881 68.1218 32.3459 66.9182 32.3149 66.8874C32.2621 66.8346 30.2597 66.2923 30.098 66.287C30.0568 66.2858 29.5293 67.8738 28.9259 69.8161ZM48.0041 66.8787C47.4962 67.0346 47.037 67.2045 46.9839 67.2561C46.8796 67.3574 46.7555 75.2351 46.8581 75.2349C46.8921 75.2348 47.2917 75.1305 47.7461 75.0029L48.5725 74.7711V73.7431V72.7151L49.4529 72.4681C49.9373 72.3321 50.4008 72.196 50.483 72.1653C50.5653 72.1348 50.8794 72.4932 51.1811 72.9619C51.4827 73.4307 51.7606 73.8141 51.7986 73.8141C51.8983 73.8141 53.4663 73.3601 53.5162 73.3168C53.5929 73.2503 49.1496 66.5685 49.0376 66.5821C48.9771 66.5893 48.5121 66.7229 48.0041 66.8787ZM40.3452 67.9984C39.7665 68.0697 39.2697 68.1515 39.2411 68.1802C39.1873 68.2341 39.4182 72.9589 39.5632 74.7731L39.6456 75.8031L40.1662 75.8011C41.3473 75.7967 41.3583 75.7822 41.3039 74.2913L41.2553 72.9615L41.7622 72.9616C42.5351 72.9617 43.6239 72.5864 44.0771 72.1638C45.3249 70.9997 45.0719 68.9698 43.5824 68.1948C43.0739 67.9303 41.6145 67.8417 40.3452 67.9984ZM49.8222 70.583C50.0794 70.879 50.0826 70.8756 49.3374 71.0893C48.4051 71.3565 48.4304 71.3922 48.4304 69.8097V68.3625L49.018 69.348C49.3411 69.89 49.703 70.4457 49.8222 70.583ZM42.5073 69.4C42.7044 69.4749 42.9209 69.7228 43.0083 69.9735C43.3008 70.8124 42.709 71.5411 41.7354 71.5411H41.2131L41.114 70.555C41.0596 70.0127 41.0568 69.5013 41.1079 69.4185C41.2227 69.2328 42.0393 69.222 42.5073 69.4Z" fill="#1A4B8A"/>
</svg>
