<svg width="126" height="125" viewBox="0 0 126 125" fill="none" xmlns="http://www.w3.org/2000/svg">
<path d="M94.0645 98.5721H93.5938V98.3087H94.8615V98.5721H94.3936V99.8866H94.0645V98.5721ZM96.5931 98.6407H96.5857L96.1189 99.887H95.9054L95.4418 98.6407H95.4363V99.887H95.1259V98.3091H95.5825L96.0124 99.4265L96.4408 98.3091H96.8958V99.887H96.5929L96.5931 98.6407Z" fill="#E76F00"/>
<path d="M51.9077 66.3066C51.9077 66.3066 48.6313 68.2119 54.2394 68.8567C61.0336 69.6318 64.506 69.5206 71.9932 68.1036C71.9932 68.1036 73.9617 69.3378 76.7108 70.4069C59.9264 77.6003 38.7245 69.9902 51.9077 66.3066ZM49.8567 56.9195C49.8567 56.9195 46.1819 59.6397 51.7942 60.2203C59.052 60.969 64.7836 61.0302 74.7014 59.1205C74.7014 59.1205 76.0734 60.5112 78.2304 61.2717C57.9369 67.2058 35.3339 61.7397 49.8567 56.9195Z" fill="#5382A1"/>
<path d="M67.1468 40.996C71.2824 45.7575 66.0604 50.0424 66.0604 50.0424C66.0604 50.0424 76.5611 44.6214 71.7386 37.8331C67.2344 31.5022 63.7802 28.3571 82.4796 17.5121C82.4798 17.5118 53.1277 24.8426 67.1468 40.996Z" fill="#E76F00"/>
<path d="M89.3457 73.2498C89.3457 73.2498 91.7703 75.2478 86.6754 76.7931C76.9872 79.728 46.3523 80.6143 37.842 76.9103C34.7828 75.5792 40.5197 73.7323 42.3243 73.3448C44.2064 72.9367 45.2819 73.0127 45.2819 73.0127C41.8797 70.616 23.2917 77.7185 35.8401 79.7528C70.0614 85.3025 98.2225 77.2537 89.3457 73.2498ZM53.4834 47.1935C53.4834 47.1935 37.9005 50.8947 47.9651 52.2387C52.2147 52.8077 60.6861 52.679 68.5768 52.0178C75.0257 51.4738 81.5014 50.3174 81.5014 50.3174C81.5014 50.3174 79.2275 51.2913 77.5823 52.4144C61.7582 56.5764 31.1889 54.64 39.9894 50.3831C47.432 46.7854 53.4834 47.1935 53.4834 47.1935ZM81.4372 62.8187C97.5232 54.4598 90.0859 46.4267 84.8943 47.5092C83.6219 47.774 83.0546 48.0035 83.0546 48.0035C83.0546 48.0035 83.5272 47.2635 84.4289 46.9432C94.699 43.3326 102.597 57.5923 81.1137 63.2402C81.1137 63.2402 81.363 63.0179 81.4372 62.8187Z" fill="#5382A1"/>
<path d="M71.7385 0C71.7385 0 80.6472 8.91144 63.2891 22.6153C49.3696 33.6077 60.115 39.8755 63.2833 47.0368C55.1585 39.7058 49.1958 33.2528 53.196 27.2466C59.0672 18.4302 75.333 14.1556 71.7385 0Z" fill="#E76F00"/>
<path d="M55.0637 85.4693C70.5042 86.4577 94.2149 84.9209 94.7762 77.6151C94.7762 77.6151 93.697 80.3846 82.0155 82.5844C68.8369 85.0642 52.5824 84.7749 42.9419 83.1854C42.9424 83.185 44.9157 84.8186 55.0637 85.4693Z" fill="#5382A1"/>
<path d="M52.5334 113.386C51.0768 114.65 49.5384 115.359 48.1579 115.359C46.1873 115.359 45.1227 114.177 45.1227 112.282C45.1227 110.232 46.2636 108.733 50.8397 108.733H52.5332L52.5334 113.386ZM56.5526 117.921V103.884C56.5526 100.298 54.5074 97.9318 49.5763 97.9318C46.6976 97.9318 44.1759 98.6426 42.1263 99.5492L42.7179 102.034C44.3317 101.442 46.4205 100.89 48.4708 100.89C51.3114 100.89 52.5334 102.034 52.5334 104.398V106.173H51.1156C44.214 106.173 41.1007 108.852 41.1007 112.873C41.1007 116.343 43.1524 118.316 47.0153 118.316C49.4984 118.316 51.3521 117.291 53.0848 115.79L53.3993 117.921L56.5526 117.921ZM69.966 117.921H64.9533L58.9204 98.2872H63.2982L67.0415 110.35L67.8736 113.978C69.7675 108.733 71.1071 103.411 71.777 98.2872H76.0354C74.8943 104.752 72.8412 111.849 69.966 117.921ZM89.1962 113.386C87.7368 114.65 86.1959 115.359 84.8151 115.359C82.848 115.359 81.7806 114.177 81.7806 112.282C81.7806 110.232 82.9238 108.733 87.4997 108.733H89.1962V113.386ZM93.2149 117.921V103.884C93.2149 100.298 91.1649 97.9318 86.2391 97.9318C83.3585 97.9318 80.8359 98.6426 78.7873 99.5492L79.3782 102.034C80.9924 101.442 83.0852 100.89 85.1338 100.89C87.9723 100.89 89.1962 102.034 89.1962 104.398V106.173H87.7759C80.8724 106.173 77.7603 108.852 77.7603 112.873C77.7603 116.343 79.8103 118.316 83.6726 118.316C86.1573 118.316 88.0102 117.291 89.7457 115.79L90.0614 117.921L93.2149 117.921ZM36.6938 121.255C35.548 122.928 33.6974 124.251 31.6714 125L29.687 122.665C31.2291 121.874 32.5516 120.596 33.1661 119.405C33.6976 118.347 33.9176 116.982 33.9176 113.72V91.3047H38.1878V113.412C38.1876 117.774 37.8388 119.536 36.6938 121.255Z" fill="#E76F00"/>
</svg>
