<svg width="48" height="48" viewBox="0 0 48 48" fill="none" xmlns="http://www.w3.org/2000/svg">
<path d="M41.8734 10.8803C41.8734 8.27181 39.7588 6.15723 37.1503 6.15723C34.7686 6.15723 32.7997 7.92047 32.4753 10.2127C32.445 10.1966 32.4274 10.1875 32.4274 10.1875C28.5649 8.44538 25.3113 11.531 25.3113 11.531L16.7051 20.1794L20.1056 23.4541L27.0326 16.6487C30.2673 13.4139 32.0286 15.6034 32.0286 15.6034C34.4636 17.6604 32.1125 20.0955 32.1125 20.0955L35.5971 23.4541C38.4426 20.3809 38.6076 17.6987 37.7427 15.565C40.0713 15.2734 41.8734 13.288 41.8734 10.8803Z" fill="#F9AE41"/>
<path d="M37.7864 32.6014C37.8024 32.5712 37.8115 32.5537 37.8115 32.5537C39.5538 28.691 36.468 25.4375 36.468 25.4375L27.8195 16.8311L24.5449 20.2317L31.3503 27.1588C34.5851 30.3935 32.3957 32.1548 32.3957 32.1548C30.3386 34.5899 27.9036 32.2388 27.9036 32.2388L24.5449 35.7232C27.618 38.5687 30.3004 38.7337 32.4339 37.8688C32.7255 40.1976 34.7111 41.9997 37.1188 41.9997C39.7272 41.9997 41.8417 39.8851 41.8417 37.2766C41.8417 34.8949 40.0786 32.9259 37.7864 32.6014Z" fill="#EE4035"/>
<path d="M27.8929 24.5459L20.9659 31.3512C17.7311 34.5861 15.9698 32.3968 15.9698 32.3968C13.5348 30.3396 15.8859 27.9047 15.8859 27.9047L12.4014 24.546C9.55598 27.6191 9.39092 30.3013 10.2557 32.4351C7.92693 32.7266 6.125 34.7119 6.125 37.1197C6.125 39.7282 8.23958 41.8427 10.8481 41.8427C13.2298 41.8428 15.1987 40.0797 15.5231 37.7875C15.5534 37.8036 15.571 37.8125 15.571 37.8125C19.4336 39.5549 22.6871 36.469 22.6871 36.469L31.2935 27.8205L27.8929 24.5459Z" fill="#4F91CD"/>
<path d="M16.6478 20.8409C13.413 17.6061 15.6021 15.8448 15.6021 15.8448C17.6595 13.4098 20.0944 15.7609 20.0944 15.7609L23.453 12.2766C20.3799 9.43112 17.6977 9.26606 15.5641 10.1309C15.2724 7.80193 13.2872 6 10.8792 6C8.27083 6 6.15639 8.11458 6.15625 10.7231C6.15625 13.1049 7.91936 15.0739 10.2116 15.3983C10.1955 15.4286 10.1866 15.4462 10.1866 15.4462C8.44399 19.3086 11.5299 22.562 11.5299 22.562L20.1786 31.1685L23.4532 27.7679L16.6478 20.8409Z" fill="#7AC043"/>
</svg>
