<svg width="33" height="30" viewBox="0 0 33 30" fill="none" xmlns="http://www.w3.org/2000/svg">
<path d="M12.6822 27.5938C12.7189 27.9828 12.5872 28.3689 12.3205 28.6547C12.0537 28.9402 11.6774 29.0981 11.2867 29.0879H2.60833C2.1635 29.0754 1.7373 28.9077 1.40349 28.6137C1.06943 28.3195 0.849055 27.918 0.780439 27.4784C0.775497 27.4403 0.773171 27.4016 0.773462 27.3633L0.845273 14.0056C0.795849 13.6085 0.922024 13.2096 1.19096 12.9136C1.45989 12.6174 1.84482 12.4531 2.24456 12.4641H9.04373C9.42052 12.4752 9.78569 12.5976 10.093 12.8156C10.4003 13.0337 10.6364 13.3378 10.7716 13.6896C10.7806 13.6864 10.7896 13.6823 10.7989 13.6788L12.6822 27.5938ZM32.76 18.23C32.6826 17.3247 32.2233 16.4952 31.4967 15.9491C32 15.5947 32.3174 15.033 32.3613 14.419C32.4619 13.2383 32.0773 12.0672 31.2961 11.1761C30.6158 10.4508 29.6575 10.0507 28.6632 10.0774H22.4747C22.4627 9.18139 22.4627 7.77715 22.527 6.52958C22.6221 4.72961 21.6147 2.53398 20.6186 1.38302C20.095 0.775968 19.5638 0.436367 19.039 0.37154V0.371249C18.8669 0.350025 18.6933 0.339559 18.5197 0.33985C17.3786 0.33985 16.0299 0.795723 15.7665 1.79611C15.6883 2.25722 15.7252 2.73086 15.8738 3.17452C16.1122 4.00864 16.161 4.88518 16.0165 5.74058C15.679 7.64141 12.8077 12.2359 11.8782 13.0794L13.8148 27.3934C15.0897 27.8879 18.0357 28.9645 19.5842 28.9645L27.3247 28.9648C27.8512 28.9648 29.6125 28.85 30.1422 27.3692C30.3666 26.729 30.3344 26.0266 30.0524 25.4097C30.0497 25.3538 30.0474 25.3062 30.046 25.2742C30.046 25.2623 30.0442 25.2483 30.0436 25.234C30.4899 25.1393 30.8969 24.9113 31.2113 24.5805C31.5253 24.2493 31.7314 23.8307 31.8023 23.38C31.982 22.5381 31.8035 21.6595 31.3095 20.9544C32.3332 20.4782 32.8679 19.522 32.7597 18.2302L32.76 18.23Z" fill="#4479DF"/>
</svg>
