<svg width="43" height="32" viewBox="0 0 43 32" fill="none" xmlns="http://www.w3.org/2000/svg">
<path d="M11.9286 16.2115V7.53643H10.0636C9.4564 7.53643 9.10938 6.84235 9.49966 6.32191L14.2711 0.292732C14.5749 -0.0975772 15.1385 -0.0975772 15.4423 0.292732L20.2138 6.32191C20.6041 6.79906 20.257 7.53643 19.6498 7.53643H17.7848V16.2549C17.7848 16.5151 17.5679 16.732 17.3077 16.732H12.4059C12.1457 16.6888 11.9286 16.4717 11.9286 16.2115ZM42.0312 24.583V26.795C42.0312 27.7493 41.2505 28.5735 40.2527 28.5735H38.0839C37.5199 30.5253 35.6982 32 33.5294 32C31.3607 32 29.5389 30.5686 28.9749 28.5735H13.4465C12.8826 30.5253 11.0608 32 8.89204 32C6.72327 32 4.9015 30.5686 4.33754 28.5735H1.77847C0.824211 28.5735 0 27.7929 0 26.795V24.583C0 23.7588 0.563973 23.0647 1.34456 22.8913L1.34486 9.09794C1.34486 8.44743 1.86527 7.88343 2.55937 7.88343H4.72815C5.37865 7.88343 5.94266 8.40384 5.94266 9.09794V17.1224C5.94266 18.3801 6.94021 19.378 8.19825 19.378H21.4711C22.7289 19.378 23.7267 18.3804 23.7267 17.1224V8.88106C23.7267 8.31709 24.2039 7.83998 24.7678 7.83998H26.9799C28.021 7.83998 28.9317 8.36039 29.4957 9.14132C29.5389 9.18458 29.5825 9.27142 29.6258 9.31469L33.2692 14.8234L37.3898 15.1705C39.0814 15.1705 40.4696 16.5586 40.4696 18.2503V22.7612C41.3367 22.9345 42.0312 23.6722 42.0312 24.583ZM11.2346 27.2289C11.2346 25.9275 10.1935 24.8431 8.84889 24.8431C7.54755 24.8431 6.46317 25.9275 6.46317 27.2289C6.46317 28.5302 7.50426 29.6146 8.84889 29.6146C10.1935 29.6146 11.2346 28.5302 11.2346 27.2289ZM35.9152 27.2289C35.9152 25.9275 34.8741 24.8431 33.5295 24.8431C32.2282 24.8431 31.1438 25.9275 31.1438 27.2289C31.1438 28.5302 32.1849 29.6146 33.5295 29.6146C34.8308 29.6146 35.9152 28.5302 35.9152 27.2289Z" fill="#202020"/>
</svg>
