<svg xmlns="http://www.w3.org/2000/svg" viewBox="0 0 253.7 62.12"><defs><style>.cls-1{fill:#f8a926;}.cls-2{fill:#ffffff;}.cls-3{fill:#75b94a;}</style></defs><g id="Layer_2" data-name="Layer 2"><g id="Layer_1-2" data-name="Layer 1"><path class="cls-1" d="M188.58,17.4c3.18,0,6.36-.09,9.54,0s4,1,4.23,4.31c.32,5.78.5,11.55.37,17.34-.09,3.64-.66,4.22-4.21,4.48-6.1.44-6.47.09-6.28-6,0-.47.05-.94.05-1.41,0-1.31.38-2.81-1.84-2.75s-3,.62-3.11,2.72c0,1.08,0,2.15,0,3.23-.05,2.72-.77,3.57-3.48,4a14.49,14.49,0,0,1-2.63.19c-4.94,0-5.93-.87-6.14-5.72-.22-5.17-.33-10.34-.38-15.52,0-3.71,1.3-5,5-5,3,0,6,0,8.92,0Z"/><path class="cls-2" d="M0,30.28A75.63,75.63,0,0,1,.37,21c.23-1.6.91-2.68,2.53-3C9,17,15.18,16.64,21.19,18.28c5.36,1.47,6.64,6,5.24,11a5.48,5.48,0,0,1-3.5,3.41,21.32,21.32,0,0,1-5.52,1.23c-2.51.35-2.78.65-2.78,3.22,0,.41,0,.81,0,1.21,0,3.7-1.12,5-4.83,5.25a40.46,40.46,0,0,1-5.28,0c-2.78-.19-3.75-1.25-4.16-4A71.64,71.64,0,0,1,0,30.28Zm17.7-6.51c-1.44,0-3-.05-3,2,0,1.75,1.19,2.25,2.67,2.3,2,.07,3.18-.78,3.16-2.26C20.46,23.92,19.17,23.72,17.7,23.77Z"/><path class="cls-2" d="M40.66,36.92c0,.61-.08.87-.1,1.13-.1,1.84.42,4-1.89,4.87a10.42,10.42,0,0,1-8.62-.25,2.8,2.8,0,0,1-1.17-2.46,79.9,79.9,0,0,1,0-16.29,2.86,2.86,0,0,1,2.66-2.81,40.52,40.52,0,0,1,13.72-.06c5,.94,7.4,4.89,6,9.53-.17.57-.37,1.31-.8,1.58-2.16,1.35-1.27,2.57-.13,4.06A8.54,8.54,0,0,1,52,40.67a2.22,2.22,0,0,1-.7,2.19c-2.42,1.91-7.49.59-8.73-2.24A13.09,13.09,0,0,0,40.66,36.92Zm2.28-7c1.38-.05,2.86-.07,2.93-1.93.05-1.38-1-1.77-2.18-1.78s-2.76-.09-2.9,1.67C40.68,29.25,41.52,30,42.94,30Z"/><path class="cls-2" d="M143.44,27.19c-.07-1.34-.15-2.68-.21-4a2.19,2.19,0,0,1,2.4-2.57c1.64-.06,3.32-.05,3.45,2.11a120.57,120.57,0,0,1,.12,17.93c-.19,2.25-1,2.78-3.26,3a8.4,8.4,0,0,1-7.42-2.86,63.44,63.44,0,0,0-4.67-4.31,14.09,14.09,0,0,0-.17,4.62c.07,1.43-.41,2.44-1.94,2.5s-3.26.52-3.82-1.64a5.1,5.1,0,0,1-.22-1c-.17-5.71-.55-11.43.3-17.12.34-2.29,1.35-3,3.66-3.24,3.34-.32,6.1.48,8.14,3.35A35.44,35.44,0,0,0,143,27.41Z"/><path class="cls-2" d="M240.65,43.58a41.77,41.77,0,0,1-6.48-.46,3,3,0,0,1-3-3.13,97,97,0,0,1,0-15.71c.15-1.77.87-2.91,2.72-3.18,4.71-.69,9.44-.92,14.09.33,5.22,1.4,6.76,5.93,3.49,10.19-.5.65-.25.82.14,1.27,3.47,4,2.16,8.4-2.95,9.88A26.78,26.78,0,0,1,240.65,43.58Zm4.78-5.27c1-.15,2.47-.22,2.44-2,0-2-1.68-1.93-3.07-2s-2.46.4-2.47,2C242.31,38.21,243.76,38.27,245.43,38.31Zm-.37-8.44c.82-.07,2.35,0,2.4-1.76s-1.49-1.81-2.77-1.84-2.54,0-2.58,1.79S243.29,29.92,245.06,29.87Z"/><path class="cls-2" d="M78.1,32.33C78,39.62,73.14,44.06,65.3,44c-7.4-.09-11.73-4.63-11.66-12.24C53.7,24.4,58.29,20.11,66,20.18,73.44,20.25,78.17,25,78.1,32.33Zm-9.8.36a8.75,8.75,0,0,0-1-4.67c-.92-1.6-2.53-1.68-3.35-.25-1.15,2-.68,6.94.82,8.67,1.08,1.25,2.31,1.09,3-.39A7.24,7.24,0,0,0,68.3,32.69Z"/><path class="cls-2" d="M113.55,20.18c7.48,0,12.36,4.75,12.36,12S121,44,113.21,44c-7.36,0-11.89-4.57-11.91-11.87C101.29,24.62,105.89,20.15,113.55,20.18Zm2.59,12.73c-.22-1.7-.18-3.4-1.07-4.91a2.14,2.14,0,0,0-2-1.22,1.74,1.74,0,0,0-1.61,1.57,11,11,0,0,0,.43,7.11c.42.89.92,1.93,2.18,1.78s1.59-1.28,1.77-2.37C116,34.21,116.06,33.54,116.14,32.91Z"/><path class="cls-2" d="M161.94,20.15c3.88,0,7.08.63,9.93,2.54a3.17,3.17,0,0,1,.14,5c-1,.77-1.75.11-2.59-.3s-2.21-2-3.06-.51c-.76,1.36,1,1.89,2,2.48,3.77,2.24,5,4.64,4.28,8.48-.56,3-3,5.07-6.8,5.74-4.67.83-9.17.53-13.28-2.09-1.8-1.14-2-2.23-1.1-4.08.73-1.47,1.72-1.76,3.12-.92a12.55,12.55,0,0,0,2,1c.49.19,1.12.27,1.42-.34a1.11,1.11,0,0,0-.47-1.42c-.7-.51-1.47-.94-2.21-1.4-2.9-1.81-4.42-4.23-3.81-7.78.58-3.4,2.87-5,5.93-5.86A13.82,13.82,0,0,1,161.94,20.15Z"/><path class="cls-2" d="M222.28,28.28c0-1.82,0-3.63,0-5.45s1.26-1.9,2.53-1.89,3.3-.43,3.42,1.54c.25,4.14.67,8.35-.12,12.47-1.12,5.8-4.79,8.85-10.5,9-6,.18-10.23-2.88-11.76-8.68a29.17,29.17,0,0,1-.32-11.21,3.46,3.46,0,0,1,3.62-3.35c2-.06,3.93-.09,5.88,0a2.15,2.15,0,0,1,2.31,2.62c-.18,2.61-.25,5.23-.36,7.85a11.54,11.54,0,0,0,.33,3.2,2.33,2.33,0,0,0,2.77,2,2.28,2.28,0,0,0,2.15-2.47c.1-1.88,0-3.77,0-5.65Z"/><path class="cls-2" d="M83.43,33.66c.08-1.68.11-3.36.26-5,.12-1.51-.47-2.17-2-1.93-1.79.29-3.09-.06-3.26-2.19s.68-3.26,2.79-3.45a73.87,73.87,0,0,1,17,0c2.63.37,3.36,1.47,2.84,3.83-.42,1.85-1.72,2.18-3.37,2.11-2.66-.1-2.75,0-2.8,2.62-.07,3.36-.08,6.72-.16,10.09-.06,2.67-1,3.58-3.63,3.88l-.2,0c-6.26.55-7.62-.69-7.56-6.87,0-1,0-2,0-3Z"/><path class="cls-3" d="M173.49,8.19a4.24,4.24,0,0,1,2.75-3.65c3-1.35,6.07-2.64,9.09-4a6.26,6.26,0,0,1,5.3,0c3,1.32,6,2.56,8.91,3.89a4.6,4.6,0,0,1,2.77,5.28c-.45,2.56-2.49,3.81-4.94,2.87s-5-2-7.48-3.12a4,4,0,0,0-3.82,0c-2.32,1.1-4.71,2-7.09,3C175.86,13.73,173.52,12.18,173.49,8.19Z"/><path class="cls-2" d="M113.06,51.15a4.57,4.57,0,0,0,3.19,7.78,4.51,4.51,0,0,0,2.58-.82L119,58v.79l-.06,0a5,5,0,0,1-2.65.74h-.14a4.87,4.87,0,0,1-2.57-.72,5.37,5.37,0,0,1-1.88-1.91,5.14,5.14,0,0,1-.69-2.55,5,5,0,0,1,1.54-3.65,5,5,0,0,1,3.67-1.53,5.36,5.36,0,0,1,2.71.74l.07,0v.79l-.2-.13a4.5,4.5,0,0,0-2.58-.81A4.38,4.38,0,0,0,113.06,51.15Z"/><path class="cls-2" d="M124.33,53.63v.89l-.21-.22a1.67,1.67,0,0,0-1.18-.53,1.66,1.66,0,0,0-1.62,1.6v4h-.67V53.29h.67v.6a2.22,2.22,0,0,1,1.71-.74,2.07,2.07,0,0,1,1.25.44Z"/><path class="cls-2" d="M129.72,58.61a2.59,2.59,0,0,1-1.34.34,2.45,2.45,0,0,1-1.44-.56l4.08-4-.08-.09a3.26,3.26,0,0,0-4.75-.16,3,3,0,0,0-1,2.23,3.12,3.12,0,0,0,1,2.26,3.07,3.07,0,0,0,2.24,1h.12a3.08,3.08,0,0,0,2.34-1.06l0,0V57.35l-.23.34A3.07,3.07,0,0,1,129.72,58.61Zm-1.3-4.83a2.59,2.59,0,0,1,1.66.59l-3.6,3.57a2.54,2.54,0,0,1-.57-1.64,2.6,2.6,0,0,1,2.51-2.52Z"/><path class="cls-2" d="M137.71,53.29V54.4a2.7,2.7,0,0,0-.88-.79,3.3,3.3,0,0,0-1.66-.46,3.16,3.16,0,0,0-2.28.94,3.1,3.1,0,0,0-.95,2.26,3.07,3.07,0,0,0,.95,2.26,3.12,3.12,0,0,0,2.28.94,3.21,3.21,0,0,0,1.63-.44,3,3,0,0,0,.91-.83v1.13h.66V53.29Zm0,3.07a2.55,2.55,0,0,1-.74,1.82,2.58,2.58,0,0,1-4.38-1.81,2.53,2.53,0,0,1,.77-1.83,2.42,2.42,0,0,1,1.81-.77,2.39,2.39,0,0,1,1.79.77A2.52,2.52,0,0,1,137.73,56.36Z"/><path class="cls-2" d="M142.35,58.87v.62h-.12a2.37,2.37,0,0,1-1.67-.65,2.22,2.22,0,0,1-.69-1.68V50.93h.67v2.38h1.8v.61h-1.8v3.24a1.65,1.65,0,0,0,.49,1.23,1.61,1.61,0,0,0,1.2.48Z"/><path class="cls-2" d="M144,51.29c-.25,0-.38.12-.38.36s.13.35.38.35.38-.12.38-.35S144.21,51.29,144,51.29Z"/><path class="cls-2" d="M144,51.17a.48.48,0,1,0,.5.48A.44.44,0,0,0,144,51.17Zm0,.7c-.21,0-.25-.08-.25-.22s0-.23.25-.23.25.09.25.23S144.17,51.87,144,51.87Z"/><rect class="cls-2" x="143.63" y="53.31" width="0.66" height="6.1"/><path class="cls-2" d="M151.61,55.87v3.54h-.67V55.87a2.09,2.09,0,0,0-.6-1.48,1.89,1.89,0,0,0-1.44-.62,2.1,2.1,0,0,0-1.5.63,2,2,0,0,0-.64,1.47v3.54h-.67V53.29h.67v.87a2.47,2.47,0,0,1,2.14-1,2.68,2.68,0,0,1,2.71,2.72Z"/><path class="cls-2" d="M158.69,53.29v1.13a3,3,0,0,0-.91-.82,3.25,3.25,0,0,0-1.64-.44,3.13,3.13,0,0,0-2.28,1,3.07,3.07,0,0,0-1,2.26,3.1,3.1,0,0,0,1,2.26,3.16,3.16,0,0,0,2.28.94,3.2,3.2,0,0,0,1.62-.45,2.81,2.81,0,0,0,.93-.81v.43a2.86,2.86,0,0,1-.7,2,2.35,2.35,0,0,1-1.79.74,2.85,2.85,0,0,1-1.41-.4,2.58,2.58,0,0,1-1-1l-.23-.43v1.13l0,0a2.85,2.85,0,0,0,1.14.92,3.36,3.36,0,0,0,1.5.35,3,3,0,0,0,2.28-.91,3.42,3.42,0,0,0,.87-2.47V53.29Zm0,3.08a2.52,2.52,0,0,1-.75,1.82,2.4,2.4,0,0,1-1.79.76,2.59,2.59,0,0,1,0-5.17,2.44,2.44,0,0,1,1.79.76A2.52,2.52,0,0,1,158.7,56.37Z"/><path class="cls-2" d="M171.37,55.87v3.54h-.66V55.87a2.13,2.13,0,0,0-.6-1.48,1.89,1.89,0,0,0-1.44-.62,2.08,2.08,0,0,0-1.5.63,2,2,0,0,0-.65,1.47v3.54h-.66V53.29h.66v.87a2.48,2.48,0,0,1,2.15-1,2.6,2.6,0,0,1,1.92.79A2.66,2.66,0,0,1,171.37,55.87Z"/><path class="cls-2" d="M177.22,58.61a2.64,2.64,0,0,1-1.34.34,2.45,2.45,0,0,1-1.44-.56l4.07-4-.08-.09a3.15,3.15,0,0,0-2.4-1.11,3.2,3.2,0,0,0-2.34,1,3,3,0,0,0-.95,2.23,3.12,3.12,0,0,0,1,2.26,3.07,3.07,0,0,0,2.24,1h.12a3.06,3.06,0,0,0,2.33-1.06l0,0V57.35l-.23.34A3.07,3.07,0,0,1,177.22,58.61Zm-1.3-4.83a2.59,2.59,0,0,1,1.66.59L174,57.94a2.54,2.54,0,0,1-.57-1.64,2.42,2.42,0,0,1,.76-1.76A2.45,2.45,0,0,1,175.92,53.78Z"/><polygon class="cls-2" points="187.9 53.31 184.93 59.73 183.59 56.87 182.25 59.72 179.24 53.29 179.95 53.29 179.98 53.37 182.28 58.25 183.28 56.16 181.95 53.32 182.65 53.32 183.62 55.45 184.62 53.29 185.29 53.29 183.95 56.16 184.94 58.27 187.24 53.31 187.9 53.31"/><path class="cls-2" d="M199.31,49.38v5a2.74,2.74,0,0,0-.91-.81,3.2,3.2,0,0,0-1.62-.45,3.16,3.16,0,0,0-2.29.94,3.13,3.13,0,0,0-.94,2.26,3.19,3.19,0,0,0,4.81,2.76,2.91,2.91,0,0,0,.95-.82v1.12H200v-10Zm-2.55,4.39a2.47,2.47,0,0,1,1.81.77,2.53,2.53,0,0,1,.77,1.83A2.56,2.56,0,0,1,195,58.18a2.55,2.55,0,0,1-.74-1.82,2.52,2.52,0,0,1,.75-1.82A2.39,2.39,0,0,1,196.76,53.77Z"/><path class="cls-2" d="M202.11,51.29c-.25,0-.38.12-.38.36s.13.35.38.35.38-.12.38-.35S202.36,51.29,202.11,51.29Z"/><path class="cls-2" d="M202.11,51.17a.48.48,0,1,0,.5.48A.44.44,0,0,0,202.11,51.17Zm0,.7c-.21,0-.25-.08-.25-.22s0-.23.25-.23.25.09.25.23S202.32,51.87,202.11,51.87Z"/><rect class="cls-2" x="201.78" y="53.31" width="0.66" height="6.1"/><path class="cls-2" d="M212.65,55.4v4H212v-4a1.62,1.62,0,0,0-.46-1.17,1.49,1.49,0,0,0-1.11-.46,1.63,1.63,0,0,0-1.15.48,1.51,1.51,0,0,0-.5,1.12v4h-.67v-4a1.57,1.57,0,0,0-.46-1.13,1.47,1.47,0,0,0-1.11-.47,1.64,1.64,0,0,0-1.62,1.6v4h-.67V53.29h.67v.6a2.75,2.75,0,0,1,.59-.44,2,2,0,0,1,2.27.11,2.5,2.5,0,0,1,.66.78,2,2,0,0,1,.68-.79,2.45,2.45,0,0,1,1.42-.4,2.1,2.1,0,0,1,1.48.61A2.15,2.15,0,0,1,212.65,55.4Z"/><path class="cls-2" d="M218.5,58.61a2.64,2.64,0,0,1-1.34.34,2.45,2.45,0,0,1-1.44-.56l4.07-4-.08-.09a3.15,3.15,0,0,0-2.4-1.11,3.2,3.2,0,0,0-2.34,1,3,3,0,0,0-.95,2.23A3.13,3.13,0,0,0,215,58.6a3.09,3.09,0,0,0,2.25,1h.12a3.06,3.06,0,0,0,2.33-1.06l0,0V57.35l-.23.34A3.07,3.07,0,0,1,218.5,58.61Zm-1.3-4.83a2.61,2.61,0,0,1,1.66.59l-3.6,3.57a2.54,2.54,0,0,1-.57-1.64,2.42,2.42,0,0,1,.76-1.76A2.45,2.45,0,0,1,217.2,53.78Z"/><path class="cls-2" d="M226.56,55.87v3.54h-.66V55.87a2.09,2.09,0,0,0-.6-1.48,1.89,1.89,0,0,0-1.44-.62,2.08,2.08,0,0,0-1.5.63,2,2,0,0,0-.65,1.47v3.54h-.66V53.29h.66v.87a2.48,2.48,0,0,1,2.15-1,2.64,2.64,0,0,1,1.93.79A2.7,2.7,0,0,1,226.56,55.87Z"/><path class="cls-2" d="M231.69,57.58a1.86,1.86,0,0,1-.62,1.4,2.12,2.12,0,0,1-1.49.57,2.26,2.26,0,0,1-1-.24,1.61,1.61,0,0,1-.71-.65V57.39l.24.53a1.59,1.59,0,0,0,2.53.63,1.11,1.11,0,0,0,.42-.83,1.21,1.21,0,0,0-.26-.79,2.68,2.68,0,0,0-.68-.57l-.21-.12c-.2-.13-.41-.25-.62-.37a3.17,3.17,0,0,1-.74-.62,1.35,1.35,0,0,1-.32-.89,1.09,1.09,0,0,1,.42-.87,1.56,1.56,0,0,1,1-.35,1.42,1.42,0,0,1,1.09.49l0,0v1l-.23-.35a1.13,1.13,0,0,0-1-.57.8.8,0,0,0-.51.19.58.58,0,0,0-.22.46.69.69,0,0,0,.25.51,4.08,4.08,0,0,0,.68.48c.28.15.56.32.83.49a2.51,2.51,0,0,1,.75.7A1.68,1.68,0,0,1,231.69,57.58Z"/><path class="cls-2" d="M234,51.65a.45.45,0,0,1-.51.47.48.48,0,1,1,0-.95A.45.45,0,0,1,234,51.65Z"/><rect class="cls-2" x="233.16" y="53.31" width="0.67" height="6.1"/><path class="cls-2" d="M240.81,54.09a3.24,3.24,0,0,0-4.56,0,3.07,3.07,0,0,0-.95,2.24,3.15,3.15,0,0,0,.93,2.25,3,3,0,0,0,2.24,1h.12a3,3,0,0,0,2.24-1,3.18,3.18,0,0,0,.92-2.26A3.06,3.06,0,0,0,240.81,54.09Zm.28,2.27a2.52,2.52,0,0,1-.75,1.82,2.45,2.45,0,0,1-1.8.76,2.49,2.49,0,0,1-1.81-.77,2.45,2.45,0,0,1-.77-1.8,2.53,2.53,0,0,1,.77-1.83,2.49,2.49,0,0,1,1.81-.77,2.39,2.39,0,0,1,1.79.77A2.53,2.53,0,0,1,241.09,56.36Z"/><path class="cls-2" d="M248.57,55.87v3.54h-.66V55.87a2.13,2.13,0,0,0-.6-1.48,1.89,1.89,0,0,0-1.44-.62,2.08,2.08,0,0,0-1.5.63,2,2,0,0,0-.65,1.47v3.54h-.66V53.29h.66v.87a2.48,2.48,0,0,1,2.15-1,2.6,2.6,0,0,1,1.92.79A2.66,2.66,0,0,1,248.57,55.87Z"/><path class="cls-2" d="M253.7,57.58a1.86,1.86,0,0,1-.62,1.4,2.12,2.12,0,0,1-1.49.57,2.26,2.26,0,0,1-1-.24,1.61,1.61,0,0,1-.71-.65l0,0V57.39l.24.53a1.6,1.6,0,0,0,2.54.63,1.11,1.11,0,0,0,.42-.83,1.17,1.17,0,0,0-.27-.79,2.47,2.47,0,0,0-.67-.57l-.21-.12-.62-.37a3,3,0,0,1-.74-.62,1.35,1.35,0,0,1-.32-.89,1.09,1.09,0,0,1,.42-.87,1.51,1.51,0,0,1,1-.35,1.43,1.43,0,0,1,1.1.49l0,0v1l-.23-.35a1.1,1.1,0,0,0-1-.57.85.85,0,0,0-.52.19.6.6,0,0,0-.21.46.69.69,0,0,0,.25.51,4.08,4.08,0,0,0,.68.48l.83.49a2.77,2.77,0,0,1,.75.7A1.68,1.68,0,0,1,253.7,57.58Z"/></g></g></svg>