<svg width="188" height="94" viewBox="0 0 188 94" fill="none" xmlns="http://www.w3.org/2000/svg">
<path d="M90.6826 0.419922C64.5266 0.424972 40.9763 9.34619 38.2848 21.3023C36.4955 29.2556 44.7888 37.4143 57.4637 42.188C72.2897 28.7187 89.0583 14.4683 110.934 4.68022C90.9923 17.5116 76.2824 31.6105 64.2994 44.5025C68.3291 45.5562 72.7324 46.5207 77.3967 47.056C84.1314 36.6586 91.6286 23.7211 113.773 4.89063C97.6866 24.2362 90.1827 35.7244 83.6853 47.8673C107.63 50.0101 135.491 47.0089 142.128 25.9851C144.994 13.2294 124.292 1.86752 95.9411 0.574781C94.1896 0.483145 92.4364 0.431512 90.6826 0.419922ZM89.7349 2.36576C100.349 2.24288 108.671 3.41779 108.671 3.41779C88.0921 10.7837 73.5926 18.3229 54.4928 29.1395C54.6779 29.3247 39.421 26.9227 50.389 14.3067C58.6672 4.7829 76.0888 2.52398 89.7349 2.36576ZM116.615 5.89048C116.615 5.89048 130.544 7.65452 133.974 19.9877C137.748 33.5681 101.975 39.0134 99.5718 36.9767C106.19 20.9791 108.145 20.8428 116.615 5.89048Z" fill="#FF0000"/>
<path d="M22.7551 67.5996C20.9776 67.5996 19.4795 67.8959 18.2221 68.4968C16.9647 69.0977 15.7124 70.1464 14.4769 71.5687V68.113H5.93609C3.65529 68.1113 2.27334 69.7373 1.40479 72.1444C3.28161 72.3868 5.71895 71.5468 5.93609 75.0244V91.4714H15.1334V79.5675C15.1334 77.7934 15.4414 76.5057 16.1197 75.7297C16.7964 74.9504 17.6936 74.5767 18.7473 74.5767C19.3487 74.5778 19.9341 74.7707 20.4184 75.1273C20.9028 75.4839 21.2608 75.9856 21.4405 76.5595C21.5617 76.9265 21.6374 77.5813 21.6374 78.6081V91.4714H30.8347V79.4396C30.8347 77.753 31.1579 76.5545 31.8211 75.792C32.4826 75.0295 33.3646 74.6406 34.4469 74.6406C35.366 74.6406 36.1302 75.0497 36.7479 75.8559C37.1688 76.3693 37.4044 77.1049 37.4044 78.1603V91.4714H46.6017V76.8171C46.6017 73.6492 45.8779 71.3297 44.4336 69.84C42.9877 68.352 40.9645 67.6013 38.3908 67.6013C36.6436 67.6013 35.1775 67.8824 33.9874 68.4328C32.799 68.9832 31.4912 70.0437 30.0469 71.5687C29.34 70.2625 28.4007 69.2845 27.2864 68.6247C26.1738 67.9649 24.6673 67.6013 22.7551 67.6013V67.5996ZM100.208 67.8571C98.3009 67.7242 96.5891 68.6634 96.3972 69.9679C96.2036 71.2741 97.5771 72.4591 99.4843 72.5938C101.391 72.7251 103.103 71.7219 103.295 70.4174C103.489 69.1112 102.115 67.9884 100.208 67.8571ZM73.7979 68.049C71.8841 68.4799 72.0776 69.4209 71.4329 70.1598C72.4816 70.451 73.7558 70.143 73.7979 72.72V91.4714H80.4989V83.3447C80.4989 81.7961 80.7177 80.7407 81.2227 80.1449C81.726 79.5473 82.3842 79.2477 83.1921 79.2477C83.926 79.2477 84.4966 79.4463 84.9006 79.8873C85.3046 80.33 85.5571 81.0622 85.5571 82.1277V91.4714H92.2581V80.7205C92.2581 78.4902 91.7279 76.8053 90.6826 75.728C89.6356 74.6507 88.2301 74.1289 86.4122 74.1289C85.1851 74.1289 84.0893 74.309 83.1921 74.7046C82.2949 75.0985 81.4079 75.7718 80.4989 76.6875V68.049H73.7979ZM141.594 68.049C140.005 68.0827 139.822 69.0523 139.295 69.776C140.51 69.776 141.19 70.5773 141.594 71.7606V76.1758C140.945 75.5076 140.161 74.9844 139.295 74.6406C138.395 74.2895 137.436 74.1157 136.47 74.1289C134.336 74.1289 132.599 74.8746 131.215 76.3676C129.83 77.8624 129.113 80.0169 129.113 82.8313C129.113 85.3495 129.764 87.472 131.018 89.231C132.272 90.9917 134.095 91.8569 136.472 91.8569C137.654 91.8569 138.728 91.6431 139.69 91.1516C140.412 90.7779 141.178 90.0424 142.055 88.9752V91.4714H148.361V68.049H141.594ZM60.0693 74.1289C58.8204 74.1289 57.6606 74.203 56.5867 74.3848C55.5145 74.5666 54.6375 74.8224 54.0248 75.1523C53.1714 75.6102 52.5099 76.1926 52.0554 76.8171C51.6009 77.4399 51.3097 78.2882 51.069 79.3756L57.4401 80.0152C57.7044 79.2797 58.0646 78.7461 58.4921 78.4801C59.0392 78.1384 59.827 77.9684 60.9227 77.9684C61.7762 77.9684 62.3569 78.1603 62.6969 78.4801C63.0352 78.7999 63.2221 79.3436 63.2221 80.1449C62.3905 80.4647 61.6011 80.7155 60.8571 80.9124C60.1131 81.1094 58.5022 81.446 55.9959 81.9358C53.9036 82.3398 52.4375 82.9592 51.6598 83.7925C50.8822 84.624 50.5438 85.7013 50.5438 86.9906C50.5438 88.3675 51.0404 89.5088 52.1194 90.448C53.1966 91.3856 54.7688 91.8552 56.8493 91.8552C58.4147 91.8552 59.8051 91.6196 60.9884 91.1516C61.9633 90.7423 62.8541 90.1562 63.6159 89.4229C63.6934 89.9144 63.7371 90.2814 63.8129 90.512C63.8903 90.7409 64.0872 91.0338 64.3381 91.4714H70.5795C70.2944 90.9232 70.0741 90.3436 69.9231 89.7444C69.8187 89.2899 69.7918 88.6873 69.7918 87.8878V80.4007C69.7918 79.5995 69.5948 78.7208 69.2666 77.8405C68.9367 76.9602 68.5209 76.2717 67.952 75.792C67.1423 75.0985 66.0802 74.6676 64.8649 74.4487C63.6496 74.2299 62.0724 74.1289 60.0677 74.1289H60.0693ZM120.047 74.1289C118.678 74.1289 117.519 74.3478 116.566 74.8325C115.613 75.3173 114.671 76.1337 113.74 77.2648V74.5127H107.5C106.195 74.5464 105.985 75.5058 105.66 76.1118C106.586 76.2178 107.379 76.5545 107.5 78.0307V91.4714H114.199V83.3447C114.199 81.7961 114.418 80.7407 114.923 80.1449C115.428 79.5473 116.084 79.2477 116.892 79.2477C117.628 79.2477 118.197 79.4463 118.603 79.8873C119.007 80.33 119.259 81.0622 119.259 82.1277V91.4714H125.958V80.7205C125.958 78.4818 125.428 76.8002 124.383 75.728C123.338 74.6558 121.897 74.1289 120.047 74.1289ZM163.012 74.1289C162.069 74.1289 161.286 74.3797 160.647 74.8325C160.005 75.287 159.342 76.0596 158.741 77.2648V74.5127H152.5C150.985 74.5161 151.153 75.4217 150.988 76.1758C151.631 76.467 152.433 76.3727 152.5 77.9684V91.4714H159.199V85.7753C159.199 83.0552 159.563 81.2003 160.251 80.2088C160.734 79.5035 161.413 79.1837 162.288 79.1837C162.747 79.1837 163.406 79.3116 164.193 79.6315L166.23 75.0244C165.059 74.4269 163.996 74.1289 163.012 74.1289ZM176.084 74.1289C174.837 74.1289 173.677 74.203 172.603 74.3848C171.529 74.5666 170.654 74.8224 170.041 75.1523C169.186 75.6102 168.524 76.1926 168.07 76.8171C167.615 77.4399 167.324 78.2882 167.083 79.3756L173.456 80.0152C173.719 79.2797 174.079 78.7461 174.507 78.4801C175.055 78.1384 175.843 77.9684 176.937 77.9684C177.792 77.9684 178.373 78.1603 178.711 78.4801C179.051 78.7999 179.237 79.3436 179.237 80.1449C178.405 80.4647 177.617 80.7155 176.872 80.9124C176.128 81.1094 174.518 81.446 172.01 81.9358C169.92 82.3398 168.452 82.9592 167.676 83.7925C166.898 84.624 166.558 85.7013 166.558 86.9906C166.558 88.3675 167.057 89.5088 168.136 90.448C169.213 91.3856 170.785 91.8552 172.865 91.8552C174.431 91.8552 175.821 91.6196 177.003 91.1516C177.978 90.7424 178.87 90.1563 179.632 89.4229C179.708 89.9144 179.752 90.2814 179.829 90.512C179.905 90.7409 180.102 91.0338 180.354 91.4714H186.596C186.244 90.7678 186.042 90.1972 185.939 89.7444C185.837 89.2916 185.806 88.6873 185.806 87.8878V80.4007C185.806 79.5995 185.609 78.7208 185.281 77.8405C184.953 76.9602 184.537 76.2717 183.968 75.792C183.157 75.0985 182.095 74.6676 180.879 74.4487C179.664 74.2299 178.087 74.1289 176.084 74.1289ZM96.5285 74.5127V91.4714H103.229V74.5127H96.5285ZM138.573 78.9918C139.46 78.9918 140.16 79.2948 140.741 79.9513C141.321 80.6078 141.66 81.6261 141.66 82.9592C141.66 84.4321 141.375 85.5094 140.806 86.1591C140.237 86.8105 139.493 87.1186 138.638 87.1186C137.839 87.1186 137.144 86.8055 136.602 86.1591C136.06 85.5144 135.814 84.4759 135.814 83.0872C135.814 81.6059 136.076 80.5808 136.602 79.953C137.127 79.3234 137.797 78.9935 138.573 78.9935V78.9918ZM63.2221 83.4087V84.4961C63.2221 85.3074 63.0958 85.9739 62.8282 86.4806C62.5589 86.9856 62.0876 87.4064 61.4479 87.7599C60.8083 88.1134 60.1569 88.2716 59.4112 88.2716C58.7009 88.2716 58.137 88.0864 57.77 87.7599C57.4031 87.435 57.2432 87.0563 57.2432 86.5446C57.2432 86.0951 57.3963 85.6794 57.77 85.3276C58.1302 84.9859 58.9735 84.656 60.3319 84.3042C61.3284 84.0584 62.3013 83.7285 63.2221 83.4087ZM179.237 83.4087V84.4961C179.237 85.3074 179.112 85.9739 178.843 86.4806C178.573 86.9856 178.104 87.4064 177.462 87.7599C176.823 88.1134 176.171 88.2716 175.426 88.2716C174.715 88.2716 174.151 88.0864 173.785 87.7599C173.418 87.435 173.259 87.0563 173.259 86.5446C173.259 86.0951 173.411 85.6794 173.785 85.3276C174.146 84.9859 174.99 84.656 176.346 84.3042C177.343 84.0584 178.318 83.7285 179.237 83.4087Z" fill="#666666"/>
</svg>
