<svg width="172" height="92" viewBox="0 0 172 92" fill="none" xmlns="http://www.w3.org/2000/svg">
<path d="M169.886 59.039C169.745 59.0557 169.602 59.0557 169.46 59.039H169.09V58.4505H169.46C169.651 58.4505 169.766 58.4505 169.806 58.4505C169.874 58.4617 169.937 58.4933 169.986 58.541C170.028 58.5956 170.049 58.6633 170.046 58.7322C170.049 58.7924 170.033 58.8521 170.001 58.9032C169.981 58.9611 169.94 59.0094 169.886 59.039ZM170.192 59.5772C170.117 59.4992 170.031 59.4331 169.936 59.381C170.112 59.366 170.277 59.2895 170.402 59.1647C170.508 59.0483 170.564 58.8947 170.557 58.7372C170.559 58.6077 170.525 58.4803 170.457 58.37C170.392 58.2674 170.295 58.1895 170.182 58.1487C170.004 58.1006 169.82 58.0802 169.636 58.0884H168.634V60.402H169.09V59.4363H169.185C169.265 59.4255 169.346 59.4255 169.425 59.4363C169.478 59.458 169.526 59.4906 169.566 59.5319C169.656 59.6405 169.74 59.7547 169.816 59.8739L170.162 60.3769H170.728L170.442 59.9242C170.366 59.803 170.283 59.687 170.192 59.5772ZM171.559 59.2452C171.566 59.6266 171.46 60.0015 171.254 60.3221C171.048 60.6426 170.751 60.8944 170.402 61.0452C170.054 61.1961 169.668 61.2392 169.294 61.1691C168.921 61.0989 168.577 60.9188 168.306 60.6515C168.035 60.3843 167.849 60.042 167.772 59.6684C167.695 59.2947 167.731 58.9066 167.875 58.5535C168.019 58.2004 168.264 57.8982 168.579 57.6854C168.894 57.4727 169.266 57.3591 169.646 57.359C169.896 57.357 170.145 57.4049 170.377 57.4998C170.609 57.5947 170.82 57.7348 170.998 57.912C171.176 58.0892 171.317 58.3 171.413 58.5323C171.509 58.7646 171.559 59.0137 171.559 59.2653V59.2452ZM172 59.2452C172.009 58.7758 171.878 58.3144 171.625 57.9197C171.372 57.5251 171.008 57.215 170.578 57.0292C170.149 56.8433 169.674 56.7899 169.215 56.876C168.755 56.962 168.331 57.1835 167.998 57.5123C167.664 57.841 167.435 58.2621 167.341 58.7218C167.246 59.1816 167.29 59.6592 167.467 60.0938C167.644 60.5284 167.945 60.9003 168.333 61.1622C168.721 61.424 169.178 61.5638 169.646 61.5639C170.261 61.5707 170.854 61.3327 171.295 60.9021C171.736 60.4714 171.989 59.883 172 59.2653V59.2452Z" fill="#F37225"/>
<path d="M93.4732 20.1676V19.7501C93.4732 11.2699 95.5168 5.883 95.9425 4.86196C95.051 4.10749 89.5714 -0.132613 79.2935 0.00319096C69.0256 -0.127583 63.536 4.10749 62.6394 4.86196C63.0652 5.86791 65.1137 11.2699 65.1137 19.7501C65.1137 19.8859 65.1137 20.0267 65.1137 20.1676C65.0486 28.6126 63.1704 33.2752 62.6094 34.4521C69.2929 36.4663 75.1444 40.6055 79.2835 46.2469C83.4225 40.6055 89.274 36.4663 95.9575 34.4521C95.4016 33.2752 93.5383 28.6126 93.4732 20.1676ZM79.2133 45.3164C75.1623 40.0382 69.5985 36.1326 63.2705 34.1252C64.0118 32.3145 65.5094 27.7273 65.5695 20.1827C65.5695 20.0368 65.5695 19.8909 65.5695 19.7501C65.5695 11.8684 63.8616 6.72297 63.2154 5.04303C64.668 3.92139 69.9472 0.445811 79.1883 0.561496C73.7981 0.447157 68.5223 2.13118 64.1871 5.34984C64.9835 7.59312 66.3759 12.5475 66.3759 19.7501V20.1827C66.3209 26.5705 65.5195 29.8901 64.703 32.2541C64.9334 32.3195 65.3842 32.4553 65.9752 32.6766C66.977 33.0589 67.9036 33.4713 68.7952 33.9089L68.5798 34.4119C74.0443 37.6058 77.4252 42.4595 79.2083 44.6877C80.9964 42.4746 84.3673 37.6209 89.8218 34.4219L89.6015 33.919C90.493 33.4831 91.4347 33.0723 92.4264 32.6867C93.0324 32.4603 93.4932 32.3195 93.7186 32.2541C92.8972 29.9002 92.0958 26.5805 92.0457 20.1827V19.7451C92.0457 12.5374 93.4331 7.5881 94.2345 5.34482C89.8946 2.11669 84.6077 0.431931 79.2083 0.556469C88.4595 0.435755 93.7337 3.91636 95.1862 5.038C94.5351 6.71795 92.8321 11.8634 92.8321 19.7451V20.1776C92.8922 27.7223 94.3898 32.3094 95.1261 34.1202C88.8105 36.1331 83.2583 40.0362 79.2133 45.3064V45.3164ZM86.0202 12.1199C83.8214 11.4057 81.5624 14.1318 80.766 16.9284C79.9697 19.7249 79.8745 26.0222 79.8745 26.0222L76.8692 23.0748C76.3684 15.4446 77.7508 13.0152 77.7508 13.0152C77.5254 12.4469 75.4618 11.5063 74.0543 14.0614C72.6469 16.6165 72.4115 20.6806 73.2529 23.8745C74.0944 27.0684 76.4435 30.7904 76.4435 30.7904C76.724 31.4091 76.5437 32.405 75.4117 31.6908C74.2797 30.9765 72.697 29.1759 70.9038 25.8864C69.1107 22.5969 68.7902 18.4876 69.7218 14.162C70.6534 9.83641 73.6687 7.9603 75.587 8.0106C77.5054 8.0609 79.5639 10.44 79.5639 10.44C79.9847 9.15738 83.0701 6.41615 86.1304 9.05679C89.1907 11.6974 89.7317 16.9234 88.6348 22.778C87.5379 28.6327 83.7563 31.4594 83.7563 31.4594L81.0766 26.6862C84.5076 24.8352 85.8199 22.4461 87.037 19.8809C88.2541 17.3157 88.2291 12.8191 86.0202 12.1149V12.1199Z" fill="#F37225"/>
<path d="M13.4915 56.4399C13.4915 56.4399 10.8218 53.5126 8.30742 53.422C5.79303 53.3315 1.91126 55.6502 0.6741 61.012C-0.563057 66.3737 -0.11728 71.3985 2.17672 75.4675C4.47072 79.5366 6.58942 81.7246 8.067 82.6098C9.54458 83.4951 9.76495 82.2527 9.3893 81.4882C9.3893 81.4882 6.349 76.9312 5.24708 72.9879C4.14516 69.0445 4.45069 64.065 6.27888 60.8862C8.10707 57.7074 10.7867 58.8743 11.1123 59.5936C11.1123 59.5936 9.34924 62.5813 9.96532 71.992L13.8421 75.6386C13.8421 75.6386 13.9773 67.8776 14.9941 64.402C16.0108 60.9265 19.0011 57.6018 21.851 58.492C24.701 59.3823 24.7811 64.8899 23.1984 68.0486C21.6156 71.2073 19.9076 74.1548 15.4348 76.4232L18.941 82.298C18.941 82.298 23.8345 78.8425 25.3121 71.6097C26.7897 64.3769 26.0183 57.984 22.0714 54.6946C21.0897 53.8271 19.8327 53.3386 18.5252 53.3164C15.9658 53.3164 13.8922 55.3032 13.4915 56.3946" fill="#F37225"/>
<path d="M129.885 61.0772L127.946 59.4375C125.187 63.8687 123.494 71.5643 122.437 75.9804C119.432 74.0339 114.924 73.0783 115.269 70.7293C115.77 67.3342 119.607 63.9995 119.607 63.9995L115.745 60.534C113.742 62.0731 112.83 64.4371 112.464 65.6191L112.399 65.8404L112.334 66.0517C112.334 66.1724 112.274 66.2981 112.249 66.4239C111.883 67.476 111.125 68.3449 110.135 68.8482C109.86 66.5245 109.028 61.4243 103.359 60.6597C102.296 60.5012 101.218 60.4725 100.148 60.5742C98.624 60.7125 97.172 61.2888 95.9656 62.2341C95.0582 62.9394 94.3573 63.8778 93.9371 64.9501L95.9656 65.9209L96.9323 66.3987C97.4933 64.9652 98.7204 64.1605 100.148 63.7631C101.85 63.3277 103.633 63.3139 105.342 63.7229C107.756 64.2862 106.614 67.4952 106.464 67.9328L106.339 67.9076C104.3 67.4341 102.232 67.098 100.148 66.9017C99.3716 66.8162 98.5501 66.7759 97.7086 66.7558C97.1253 66.752 96.5425 66.7941 95.9656 66.8816C95.5786 66.9426 95.1968 67.0334 94.8236 67.1532L94.6734 67.1884C93.9108 67.4277 93.21 67.8324 92.6206 68.3739C92.0312 68.9155 91.5675 69.5805 91.2624 70.3219C91.2401 70.4177 91.2029 70.5094 91.1522 70.5935C90.7866 71.5995 90.6513 72.8067 89.9902 73.9283L90.1605 64.3114L85.9582 62.2592C85.9582 62.2592 85.873 63.069 85.873 66.6753C85.873 70.2817 85.2419 71.5643 84.4255 73.2442C83.609 74.9242 80.0929 78.1734 76.8523 77.4944C73.6116 76.8154 72.9505 73.7221 73.7919 70.9557C74.6334 68.1893 77.9542 65.0055 77.9542 65.0055L74.0925 61.5701C71.5881 63.7681 70.8167 64.588 69.3492 70.503C69.1861 71.1349 68.9094 71.7315 68.5328 72.2634V72.1176V69.6479C68.4967 69.2795 68.4399 68.9134 68.3625 68.5515C67.4308 64.8847 62.4321 61.8166 59.2816 62.3548C56.1311 62.893 53.8171 65.3827 53.8171 65.3827V63.2652L48.7483 63.2249L48.4427 77.5497C48.3375 78.0527 48.1021 78.5154 47.6263 78.5154C46.6997 78.5154 46.8099 77.7509 46.8099 76.071C46.8099 73.1688 46.9151 68.7526 46.9151 68.7526C46.9151 67.0576 46.6346 61.6255 39.5422 60.6547C38.4777 60.4962 37.398 60.4675 36.3266 60.5692C31.3479 61.1527 30.1157 64.9451 30.1157 64.9451L33.121 66.3937C33.4126 65.7322 33.8559 65.1495 34.4148 64.6931C34.9737 64.2368 35.6323 63.9198 36.3366 63.7681C38.0409 63.3328 39.8249 63.3189 41.5357 63.7279C44.1202 64.3315 42.6376 67.9781 42.6376 67.9781C40.5679 67.4614 38.4612 67.1082 36.3366 66.9218C35.5603 66.8363 34.7388 66.7961 33.9224 66.7759C29.3093 66.7156 27.0654 69.3462 27.0654 72.5199C27.0654 75.6937 31.7236 78.6311 34.8039 79.1894C35.3124 79.2596 35.8281 79.2596 36.3366 79.1894C39.1365 78.6865 42.1818 76.1414 42.1818 76.1414C42.1818 76.1414 41.9414 80.0043 47.466 80.0043C51.7535 80.0043 52.62 76.8707 52.7953 75.0902V74.9443C52.7953 74.728 52.7953 74.5721 52.7953 74.4061C52.8013 72.5017 53.2909 70.6303 54.2178 68.9689C55.0392 67.294 58.5554 64.0649 61.791 64.7238C65.0266 65.3827 65.6928 68.5213 64.8513 71.2927C64.0099 74.0641 60.6891 77.2228 60.6891 77.2228L64.5508 80.6682C64.5508 80.6682 68.648 79.5013 69.6597 74.1295C69.7648 73.547 69.9087 72.9723 70.0905 72.4093V72.6155C70.1556 72.9877 70.2007 73.3197 70.2858 73.712C71.2074 77.3485 76.2061 80.3664 79.3616 79.8282C82.5172 79.29 85.0967 76.5739 85.0967 76.5739L84.8112 83.3843C84.4004 85.8992 83.6291 87.3628 82.7425 88.2531C81.3401 89.6866 76.5768 90.3706 73.0406 89.5608C69.5045 88.751 70.6665 86.04 72.6299 84.5311C74.5933 83.0221 78.6955 84.6819 78.8758 84.7524L76.8122 81.5082C76.8122 81.5082 72.5848 80.2004 69.8901 81.5082C66.7847 83.0171 67.6061 86.6033 67.6061 86.6033C67.8062 87.7873 68.4251 88.8589 69.3492 89.6212C72.1992 92.0204 79.8675 92.7296 84.2301 91.1754C88.5927 89.6212 89.9201 86.719 89.9201 81.1158V79.8634L89.9451 77.9773C90.6934 76.7399 91.13 75.3381 91.2173 73.8931C91.9486 75.6988 93.9521 77.3133 96.0057 78.3092C96.8455 78.723 97.7366 79.0224 98.6553 79.1995C99.1652 79.2663 99.6823 79.2527 100.188 79.1593C102.863 78.6563 105.532 76.1414 105.532 76.1414V78.8172L110.115 78.787C110.115 78.787 110.195 71.8208 110.241 70.674V70.3622C110.758 70.1513 111.222 69.8264 111.598 69.4115L112.074 68.8734C112.439 72.2332 115.655 74.3458 117.313 75.3819C119.231 76.6041 121.45 80.0294 121.45 80.0294H125.958L126.87 73.8277C127.429 70.7516 128.442 67.7764 129.875 65.0004C130.376 64.0498 130.877 63.1847 131.377 62.3699L129.885 61.0772ZM36.3366 76.7802C35.8561 76.8841 35.3655 76.933 34.874 76.926C29.4346 76.926 30.1909 71.519 31.2928 70.4628C32.004 69.7787 33.3614 68.8633 36.3366 68.7828C38.2981 68.7626 40.2547 68.9856 42.1618 69.4468C42.1618 69.4468 41.2301 75.7038 36.3366 76.7802ZM100.188 76.6846C99.7119 76.8313 99.2182 76.9125 98.7204 76.926H98.3398C97.5253 76.9536 96.7187 76.7589 96.0057 76.3627C93.6315 74.9242 94.2777 71.2826 95.1392 70.4527C95.4042 70.2017 95.6946 69.9792 96.0057 69.7888C96.8221 69.2858 98.1143 68.8382 100.188 68.7828C102.148 68.7637 104.103 68.9867 106.008 69.4468C106.008 69.4468 104.475 75.3718 100.188 76.6846Z" fill="#F37225"/>
<path d="M163.373 61.6147C159.867 61.3682 156.4 63.8529 156.4 63.8529V62.0171H151.893L151.066 76.7644C151.066 77.3076 150.916 78.5047 150.18 78.5047C149.258 78.5047 149.363 77.7402 149.363 76.0602C149.363 73.158 149.473 68.7419 149.473 68.7419C149.473 67.0468 149.193 61.6147 142.076 60.6439C141.412 60.5466 140.742 60.4979 140.072 60.4981C139.677 60.4971 139.283 60.5172 138.89 60.5584C133.881 61.1419 132.659 64.9343 132.659 64.9343L135.664 66.3829C136.205 64.9696 137.432 64.1447 138.88 63.7473C140.576 63.3118 142.352 63.298 144.054 63.7071C146.663 64.3107 145.156 67.9572 145.156 67.9572C143.095 67.4413 140.996 67.0882 138.88 66.901C138.104 66.8155 137.287 66.7752 136.446 66.7551C134.031 66.7551 132.263 67.4392 131.116 68.5809C130.619 69.1009 130.23 69.7153 129.972 70.3881C129.714 71.0608 129.592 71.7785 129.614 72.4991C129.614 73.6358 130.215 74.7324 131.116 75.7333C132.808 77.4626 134.967 78.6568 137.327 79.1686C137.842 79.2437 138.365 79.2437 138.88 79.1686C141.685 78.6656 144.725 76.1206 144.725 76.1206C144.725 76.1206 144.465 79.9834 150.004 79.9834C154.362 79.9834 155.183 76.7443 155.309 74.9537C155.336 74.609 155.344 74.2631 155.334 73.9175C155.343 71.9533 155.682 70.0047 156.335 68.1534C156.761 66.9989 157.478 65.975 158.416 65.1816C159.353 64.3883 160.479 63.8525 161.685 63.6266C163.242 63.4657 164.424 64.4867 163.067 65.9504C161.71 67.414 159.466 67.5699 159.466 67.5699L163.022 71.2165C164.018 70.8812 164.911 70.2956 165.618 69.5156C166.324 68.7356 166.821 67.7871 167.059 66.7602C167.123 66.4738 167.165 66.1829 167.184 65.89V65.1255C167.059 63.4154 165.977 61.7807 163.373 61.6147ZM138.895 76.7644C138.413 76.8703 137.921 76.921 137.427 76.9153C131.993 76.9153 132.749 71.5032 133.826 70.447C134.537 69.7629 135.915 68.8475 138.895 68.767C140.855 68.7493 142.809 68.9723 144.715 69.431C144.715 69.431 143.788 75.688 138.895 76.7644Z" fill="#F37225"/>
</svg>
