<svg width="716" height="315" viewBox="0 0 716 315" fill="none" xmlns="http://www.w3.org/2000/svg">
<path opacity="0.9" fill-rule="evenodd" clip-rule="evenodd" d="M247.085 11.9085C248.085 11.9485 249.042 13.0451 250.018 13.662C249.427 14.3588 248.974 15.2099 248.234 15.7354C245.625 17.5631 242.729 19.0653 240.287 21.0644C238.15 22.835 235.975 24.3942 238.007 28.0955C239.833 31.4426 236.801 35.0125 232.458 35.9834C229.892 36.5488 229.196 37.5941 229.848 39.953C230.122 40.9868 229.357 42.2548 229.065 43.4257C228.115 42.8545 227.176 42.2034 226.164 41.7292C225.176 41.278 224.094 41.0096 223.044 40.6554C223.355 41.5408 223.865 42.4146 223.933 43.3228C223.995 44.0767 223.809 45.2818 223.281 45.556C221.988 46.2528 220.466 46.5784 219.006 46.9497C211.388 48.8802 203.807 50.9707 196.12 52.61C190.982 53.7009 189.615 57.939 187.49 61.1262C185.346 64.3533 184.426 65.09 180.089 63.7078C171.179 60.8691 165.108 56.8366 163.635 47.5549C163.207 44.8704 159.366 42.6999 164.76 41.0835C165.046 40.9921 165.151 40.3866 165.338 40.0268C164.667 39.8212 163.716 39.2328 163.349 39.4613C159.659 41.666 158.956 40.0667 158.236 36.851C157.869 35.1832 155.75 32.9384 154.023 32.5843C147.468 31.2591 140.471 29.1458 134.195 30.1683C129.678 30.9108 128.634 27.8264 125.726 27.4723C125.993 26.9811 126.136 26.2842 126.571 26.0329C132.872 22.3318 139.116 18.5391 145.572 15.0664C148.716 13.3872 152.251 12.3476 154.669 11.3824C158.012 12.0278 159.975 12.559 161.957 12.7474C163.666 12.9131 166.909 12.8788 166.947 12.6161C167.754 6.97285 173.782 8.26939 177.1 6.4817C188.34 0.472923 200.395 -1.5205 212.971 3.5687C214.574 4.20841 216.706 4.09419 218.501 3.83715C223.615 3.11747 227.3 3.14031 229.369 9.12052C231.892 16.4315 234.091 16.5286 242.045 12.8159C243.53 12.142 245.419 11.8393 247.084 11.9078L247.085 11.9085ZM566.256 201.951C568.226 198.867 570.525 195.697 571.289 192.287C571.929 189.397 570.941 186.061 570.059 183.085C569.524 181.269 568.76 180.098 566.094 182.6C562.379 186.089 557.072 188.1 552.654 191.007C551.468 191.796 550.225 193.646 550.393 194.828C551.157 199.815 555.904 202.671 563.646 202.756C564.038 202.665 565.821 202.665 566.256 201.951H566.256ZM406.678 223.758C403.988 225.763 401.322 227.802 398.787 229.967C397.787 230.829 396.563 231.989 396.438 233.114C396.109 236.027 396.32 239.003 396.32 241.939C395.854 242.127 395.394 242.316 394.941 242.504C396.643 244.983 397.905 249.09 400.142 249.604C404.634 250.644 405.237 246.223 406.361 243.207C407.741 239.466 409.245 235.753 410.388 231.955C411.046 229.761 411.276 227.408 411.289 225.135C411.295 224.158 410.226 223.193 409.642 222.222C408.648 222.73 407.542 223.113 406.678 223.758L406.678 223.758ZM205.743 204.903C197.025 201.756 187.884 199.591 179.236 196.296C176.725 195.348 175.334 195.233 173.258 196.404C172.618 196.775 171.45 196.347 170.512 196.29C171.071 195.685 171.512 194.799 172.22 194.519C176.104 193.023 176.446 191.783 173.333 188.608C169.785 184.964 166.759 181.605 160.787 182.279C159.787 182.393 158.439 181.519 157.569 180.783C151.237 175.419 144.756 170.473 135.256 171.604C134.101 171.741 132.479 171.644 131.721 171.016C128.949 168.748 127.819 170.399 126.501 172.381C126.048 173.066 125.159 173.5 124.463 174.049C124.252 173.198 123.68 172.249 123.904 171.501C124.762 168.691 124.066 167.914 121.17 169.439C116.286 172.021 113.111 176.162 105.325 174.745C97.8068 173.38 95.9987 174.248 96.732 166.475C97.2291 161.186 96.6264 160.62 90.7979 160.832C85.9763 161.014 85.0069 159.883 86.3614 155.486C86.7093 154.389 87.5109 153.429 88.0017 152.356C89.0642 150.054 88.2067 148.637 85.479 148.689C82.832 148.74 80.5329 148.54 78.9671 151.933C77.4634 155.183 73.0952 155.937 69.2863 154.126C63.9923 151.613 61.7305 143.708 64.0296 136.568C64.9927 133.581 71.9146 130.776 76.8483 130.959C79.1101 131.051 81.4899 130.434 83.6895 129.754C89.3439 128.001 94.8491 129.805 97.987 134.243C99.3975 136.214 101.547 137.75 103.368 139.475C103.188 136.905 103.095 134.306 102.815 131.736C102.747 131.091 101.864 130.451 101.926 129.863C102.088 128.412 102.069 126.401 103.051 125.676C108.022 122.015 113.732 119.427 115.547 112.762C117.224 106.644 126.557 106.553 129.086 100.304C129.577 99.1106 134.411 97.8369 135.07 98.4881C139.941 103.229 144.235 98.1682 148.727 98.1625C149.697 98.1625 150.678 96.6488 151.648 95.8379C150.641 95.558 149.597 95.3295 148.603 94.9868C145.869 94.0787 142.215 94.5699 141.495 90.566C141.37 89.9035 138.723 89.3894 137.207 89.258C135.623 89.1095 133.982 89.5036 132.373 89.6693C133.87 88.5326 135.206 86.8192 136.915 86.4078C138.847 85.9338 141.88 85.8995 143.06 86.9619C145.117 88.7896 146.354 88.2242 148.255 87.2475C150.455 86.1165 152.822 85.2483 155.14 84.3401C155.997 84.0032 156.929 83.8889 157.83 83.6776C157.625 84.6429 157.476 85.6253 157.196 86.5735C156.724 88.1613 156.19 89.7492 155.662 91.3313C159.147 91.4399 162.608 91.577 166.082 91.537C166.2 91.537 166.66 89.1324 166.33 88.9724C162.441 87.1275 158.004 85.7281 161.459 80.3363C161.558 80.1879 160.117 79.2054 159.365 78.6515C154.556 75.0645 149.529 71.6832 144.999 67.8278C142.389 65.6003 140.786 63.2755 137.151 66.7882C136.201 67.7193 131.354 67.2566 130.931 66.377C128.017 60.1626 121.536 60.9737 116.373 60.0141C111.483 59.1059 108.357 62.5215 109.867 66.891C111.16 70.5921 116.211 74.3733 107.326 75.1444C107.475 76.1953 107.804 77.2577 107.73 78.2915C107.606 79.7251 107.177 81.1302 106.872 82.5409C105.53 81.8555 103.685 81.4671 102.908 80.4276C100.075 76.5608 96.4707 74.8244 91.3383 74.0305C85.28 73.088 79.4392 70.7405 73.6738 68.6101C69.7157 67.1422 69.666 64.2863 72.953 62.2471C76.8365 59.8654 81.7204 58.7115 85.2994 56.0499C89.885 52.6343 93.3957 59.5283 97.7764 56.3583C98.7768 55.6386 101.324 56.7011 103.164 56.9409C101.287 55.8671 99.4479 54.7191 97.5154 53.7309C95.9185 52.9199 94.2098 52.2916 92.5445 51.5833C94.2098 51.4119 95.9931 51.5033 97.4968 50.9778C99.0937 50.4067 101.809 48.8417 101.654 48.3905C101.014 46.4428 99.9264 44.575 103.319 44.5978C106.65 44.6207 112.683 44.8834 112.845 45.803C113.64 49.9325 114.615 50.5209 118.076 47.8021C118.555 47.4308 119.847 47.9677 120.773 48.0648C120.388 48.8074 120.201 49.9211 119.568 50.2182C117.182 51.332 114.634 52.126 112.192 53.1141C111.372 53.4397 110.676 54.0052 109.918 54.4735C110.657 54.9305 111.328 55.6616 112.118 55.8101C117.766 56.8496 123.402 57.912 129.087 58.683C132.411 59.1342 135.81 59.0942 139.178 59.2085C139.861 59.2313 140.557 58.9857 141.253 58.8658C140.887 58.0661 140.663 57.1636 140.11 56.4897C139.041 55.2103 137.786 54.068 136.599 52.8684C138.476 53.1768 140.359 53.5424 142.248 53.7937C143.192 53.9251 144.317 54.1364 145.125 53.8165C146.175 53.3996 147.001 52.4743 147.921 51.7718C147.175 51.3206 146.361 50.9208 145.665 50.3953C141.57 47.3738 134.853 48.0764 132.436 42.5245C132.225 42.0105 130.572 42.039 129.615 41.7534C124.11 40.0857 118.679 38.115 113.08 36.7843C106.525 35.2022 99.7333 34.4424 93.7931 38.5207C91.5811 40.0457 90.8292 39.743 90.2016 37.5554C89.2944 34.3397 86.8276 35.1736 84.8393 36.1617C83.3232 36.9214 82.2544 38.4065 80.9806 39.5659C82.4221 40.7196 83.7705 41.9991 85.355 42.9415C86.1006 43.3927 87.3744 43.0386 88.3189 43.3185C89.6176 43.6955 90.8291 44.3238 92.0844 44.8607C91.3449 45.6889 90.7671 46.9512 89.8226 47.2196C88.6544 47.5738 87.1569 47.2596 85.8769 46.9683C81.1172 45.8603 76.9231 43.8383 73.6485 40.3542C73.605 40.3142 71.4737 41.3709 71.4241 41.9935C71.2998 43.33 72.468 44.8894 72.0454 46.0373C71.6105 47.2311 69.1251 49.0246 68.9262 48.9046C66.9813 47.5109 65.5212 44.775 63.5391 44.4437C61.6067 44.1238 63.8125 49.5042 59.2081 48.9731C55.455 48.5333 51.6089 48.8018 47.8123 48.6362C47.2158 48.6019 46.6441 47.9165 46.0662 47.5224C46.5446 47.0483 46.9361 46.3115 47.5077 46.1458C48.9493 45.7517 50.5213 45.7289 51.9691 45.3519C52.8515 45.1406 53.6095 44.5237 54.4111 44.0896C53.5909 43.4099 52.8888 42.5018 51.9319 42.0563C47.601 40.0742 45.0659 36.6872 44.3699 31.9465C44.2643 31.2496 43.5497 30.1016 43.034 30.0615C40.2131 29.8102 37.3424 29.7931 34.4903 29.7588C32.3777 29.7359 30.2029 30.1129 28.1462 29.7988C23.2187 29.062 18.366 27.554 13.4509 27.3256C11.2265 27.2171 8.87151 29.4446 6.58489 30.6099C8.80931 30.6727 11.0401 30.7469 13.2645 30.7755C13.7616 30.7755 14.2897 30.4499 14.7495 30.5242C15.6754 30.6898 16.5639 31.0211 17.4773 31.2781C16.7627 31.9921 16.1413 33.2201 15.3211 33.3343C11.8353 33.8198 8.29343 34.2596 4.78899 34.1625C1.55799 34.0711 -0.504959 35.6304 -0.331093 37.9609C-0.25032 39.1089 2.99948 40.3541 5.02506 40.9824C6.32372 41.3822 8.29343 41.1708 9.43665 40.4911C12.6988 38.5435 14.5754 39.92 16.3027 42.3018C16.9613 43.21 17.6138 44.1295 18.26 45.0263C16.9179 45.1177 15.5323 45.3804 14.1963 45.2719C4.99387 44.518 -4.23338 42.7645 -13.3671 43.1415C-21.6312 43.4842 -29.7034 45.3633 -38.2216 44.2381C-47.9645 42.9587 -58.2037 43.9754 -67.6238 41.7707C-75.9501 39.8458 -82.7663 42.1648 -90.0604 44.0155C-92.2848 44.5695 -94.2484 46.0946 -96.3299 47.1741C-94.2298 47.8709 -92.1172 48.5563 -90.0232 49.2646C-89.5448 49.4188 -88.9793 49.5159 -88.65 49.8187C-88.1343 50.2756 -87.7925 50.8925 -87.3762 51.4294C-88.1591 51.7664 -88.942 52.3776 -89.7188 52.3776C-90.6819 52.3718 -91.6637 51.5437 -92.5895 51.6179C-95.0066 51.8007 -97.3988 52.2576 -99.7848 52.6917C-99.934 52.7146 -100.058 53.8112 -99.9712 53.8455C-97.7094 54.6052 -95.454 55.559 -93.1052 55.9246C-90.9056 56.2787 -88.5816 56.0046 -86.32 55.9988C-88.5382 56.7528 -90.9056 57.2611 -92.9188 58.335C-94.4597 59.1632 -95.5658 60.694 -96.8583 61.9105C-95.249 63.19 -93.5465 65.6346 -92.0552 65.5204C-87.0159 65.1492 -83.1636 68.0736 -78.6028 68.7819C-82.1818 70.6839 -85.7546 72.5916 -89.3337 74.4707C-89.7811 74.6992 -90.3403 74.7677 -90.7069 75.059C-91.2475 75.4931 -91.6576 76.0472 -92.1298 76.5669C-91.4339 76.6982 -90.6882 77.0181 -90.0296 76.921C-82.8219 75.7329 -76.6144 70.5238 -68.5872 72.4088C-68.1087 72.523 -66.9095 71.3521 -66.6112 70.581C-65.6046 68.0279 -63.4609 66.1773 -60.6338 65.7432C-60.1429 65.6689 -59.6209 65.5318 -59.2171 65.252C-53.8919 61.6878 -48.2315 63.0301 -42.658 64.4009C-36.4879 65.9087 -29.8829 66.0003 -25.4468 71.9004C-23.8189 74.0595 -20.5567 75.1732 -20.1404 78.5831C-20.0162 79.5312 -17.9843 80.2967 -16.8348 81.1363C-16.6733 80.131 -16.6981 79.0458 -16.2818 78.149C-16.1202 77.812 -14.4737 77.5949 -14.225 77.8691C-11.5532 80.7593 -9.68285 84.9116 -6.35243 86.5052C0.451408 89.7379 1.35254 94.5188 0.656456 100.105C-1.00263 109.701 5.73297 114.91 11.9777 120.387C14.2767 122.403 16.8429 124.334 18.4833 126.767C22.342 132.485 26.0266 138.271 31.4946 142.851C32.5012 143.702 34.0609 143.988 35.3781 144.536C34.85 143.474 34.4958 142.314 33.8123 141.366C32.1346 139.059 30.2518 136.877 28.6115 134.546C28.2014 133.964 28.4438 132.993 28.3878 132.199C29.0651 132.393 29.9661 132.421 30.401 132.844C34.9618 137.185 41.6538 140.961 43.4247 146.135C46.053 153.818 52.8508 155.428 58.5238 158.581C61.7674 160.375 65.9554 160.889 70.5658 160.34C74.1821 159.912 78.2024 164.264 82.3841 165.492C86.2242 166.606 89.0761 167.594 90.8533 171.421C92.8292 175.665 101.23 179.977 103.548 178.315C108.463 174.768 109.215 178.789 110.389 181.154C112.632 185.643 110.737 189.778 106.698 192.217C100.54 195.953 105.567 202.281 102.056 206.451C101.932 206.588 102.957 207.456 103.355 208.033C105.53 211.095 107.953 214.053 109.805 217.28C112.986 222.838 115.807 228.447 122.791 231.08C127.737 232.953 128.837 236.826 128.197 241.504C126.774 251.985 125.65 262.5 121.114 272.393C120.368 274.021 120.523 275.997 120.331 277.831C119.939 281.703 119.859 285.61 119.144 289.425C118.547 292.641 116.192 295.794 116.391 298.873C117.156 310.227 124.879 316.458 136.027 314.208C136.747 314.06 137.419 313.7 138.102 313.431C137.574 313.02 137.096 312.58 136.555 312.203C128.918 306.937 128.981 307.006 135.915 300.569C136.94 299.62 137.481 296.513 137.288 296.433C133.945 295.091 135.878 294.034 136.977 292.304C138.475 289.911 145.012 289.168 140.463 284.462C140.395 284.399 141.196 283.239 141.681 283.165C146.31 282.485 149.237 277.59 154.661 278.784C155.32 278.921 156.743 278.013 157.01 277.333C157.868 275.009 157.563 271.764 159.21 270.371C161.043 268.828 164.578 269.108 167.238 268.235C168.3 267.892 169.009 266.629 169.841 265.744C171.917 263.511 174.017 261.283 176.024 259.004C177.136 257.753 179.087 256.28 178.944 255.063C178.056 247.432 184.443 246.062 189.806 245.211C195.696 244.268 198.784 240.578 199.524 236.66C201.046 228.561 203.842 221.604 209.509 215.024C213.684 210.197 212.119 207.193 205.743 204.903L205.743 204.903ZM714.54 58.7458C713.614 58.94 712.669 59.1228 711.762 59.3512C707.382 60.4593 703.057 61.7845 698.62 62.6184C694.47 63.3952 690.22 63.9435 685.988 64.0692C678.905 64.2577 678.352 64.6118 676.276 71.0602C674.083 77.8915 666.583 80.1019 661.687 84.5685C661.506 84.7227 660.289 84.3286 660.251 84.1173C659.816 80.5817 658.232 76.5663 659.512 73.6362C660.699 70.9174 664.98 69.3467 667.931 67.2906C668.323 67.0107 668.919 66.965 669.273 66.6622C670.572 65.5713 671.802 64.4347 673.058 63.3037C669.92 64.0919 668.944 57.9004 664.837 61.2875C662.594 63.1437 659.965 64.6916 657.256 65.9197C655.349 66.7936 653.044 67.2163 650.906 67.2791C647.47 67.3762 643.903 67.4505 640.598 66.7365C630.432 64.5318 623.404 70.3406 615.681 74.4587C614.917 74.8757 614.413 75.7553 613.805 76.4064C614.643 76.7776 615.445 77.3374 616.315 77.4859C618.924 77.9143 621.578 78.1028 624.206 78.4911C630.065 79.3536 632.98 83.7002 631.308 89.1035C630.755 90.9199 629.91 92.6562 629.196 94.4268C628.599 92.3477 627.928 90.2916 627.412 88.2011C627.089 86.8931 626.996 85.5337 626.81 84.2028C625.865 85.3509 624.815 86.4303 623.995 87.6584C619.353 94.5697 614.562 101.007 604.353 101.709C601.886 101.881 599.755 105.039 597.245 106.501C593.218 108.826 595.946 110.962 596.797 113.521C597.35 115.2 596.549 117.542 595.623 119.256C595.157 120.107 593.056 120.187 591.702 120.621C591.41 119.513 590.497 118.125 590.919 117.337C593.019 113.298 587.452 113.898 587.166 111.922C586.638 108.295 585.476 108.329 581.785 108.9C579.623 109.237 576.814 105.633 573.931 108.786C573.167 109.614 571.57 110.808 571.775 111.168C572.39 112.276 573.564 113.258 574.776 113.893C575.534 114.304 576.771 113.887 577.74 114.075C578.566 114.241 579.318 114.749 580.107 115.098C579.778 115.669 579.579 116.594 579.101 116.76C574.211 118.405 575.87 120.581 577.945 123.477C582.027 129.143 581.07 132.707 575.764 137.511C570.128 142.594 564.94 148.009 555.985 147.94C554.997 147.935 553.979 150.825 552.966 152.344C552.065 153.698 551.151 155.046 550.238 156.388C549.828 155.011 549.269 153.663 549.064 152.27C548.852 150.83 548.995 149.357 548.983 147.894C547.684 148.477 545.944 148.763 545.199 149.722C544.167 151.007 542.918 153.235 543.49 154.297C544.664 156.519 547.461 158.004 548.629 160.232C549.946 162.762 551.717 166.526 550.605 168.377C548.834 171.307 544.888 173.192 541.669 175.265C541.253 175.533 539.457 174.437 538.65 173.677C537.071 172.169 535.872 170.336 534.294 168.828C532.262 166.903 530.025 164.761 528.298 169.211C528.23 169.382 528.031 169.519 527.888 169.679C527.54 175.968 527.664 187.807 533.039 191.264C540.458 196.039 529.932 204.915 527.776 195.702C525.62 186.489 522.14 170.326 524.06 163.905C523.818 159.918 523.725 155.891 517.952 160.695C517.791 160.832 515.809 159.73 515.411 158.896C514.442 156.822 514.317 154.326 513.044 152.47C511.509 150.22 508.93 146.621 507.203 146.804C502.996 147.232 498.765 149.112 495.055 151.179C491.433 153.196 488.158 155.914 485.256 158.787C483.566 160.455 482.746 162.985 481.845 165.23C480.298 169.126 479.067 173.129 477.471 177.008C477.309 177.379 474.699 177.499 474.494 177.133C471.717 172.204 469.008 167.235 466.59 162.152C465.385 159.621 464.621 156.868 464.037 154.149C463.496 151.625 465.658 147.164 459.352 149.574C459.047 149.689 457.587 147.689 456.928 146.547C454.3 141.995 449.857 140.281 444.495 140.79C438.847 141.321 432.77 142.526 428.227 137.563C427.693 136.98 426.276 136.483 425.58 136.717C419.522 138.773 416.309 134.867 412.494 131.879C411.326 130.96 409.468 130.789 407.914 130.292C408.182 131.702 408.076 133.307 408.803 134.478C410.04 136.477 411.848 138.174 413.358 140.047C415.657 142.915 417.819 144.902 421.883 141.835C426.437 138.374 429.128 143.063 432.148 144.76C435.503 146.65 432.626 149.135 431.147 150.534C427.717 153.796 424.182 157.24 419.956 159.427C414.488 162.26 408.349 164.048 402.416 166.076C396.619 168.046 395.593 167.212 393.555 162.077C392.052 158.268 389.535 154.801 387.429 151.202C384.937 146.936 382.396 142.68 379.854 138.419C379.133 137.191 378.624 135.741 377.58 134.833C376.878 134.227 375.368 134.261 374.256 134.324C374.032 134.341 373.492 136.066 373.84 136.643C379.264 145.788 384.788 154.903 390.375 163.973C391.356 165.561 393.593 166.823 393.885 168.417C394.911 174.311 398.614 173.066 402.808 171.964C406.027 171.113 409.419 170.799 412.731 170.245C411.625 173.477 411.01 176.927 409.308 179.857C406.487 184.735 403.026 188.962 397.533 192.172C392.823 194.948 388.747 199.512 386.137 204.127C384.64 206.771 386.647 211.095 387.007 214.659C387.423 218.72 388.647 222.935 387.852 226.797C387.355 229.247 384.155 231.606 381.583 233.211C377.488 235.775 374.151 238.163 376.506 243.366C376.941 244.309 376.91 246.405 376.444 246.599C369.951 249.152 369.864 255.886 365.912 260.21C358.99 267.841 349.943 268.498 340.771 269.486C339.286 269.657 336.931 267.121 335.837 265.368C333.762 262.004 332.289 258.325 330.593 254.755C329.996 253.493 329.381 252.225 328.915 250.934C327.331 246.588 326.349 241.961 324.131 237.923C320.931 232.091 319.713 227.236 324.398 221.119C327.35 217.281 323.652 212.078 322.155 207.668C321.502 205.755 320.098 203.727 318.396 202.476C313.443 198.838 314.301 194.645 316.016 190.019C317.724 185.415 316.339 183.656 311.598 184.793C308.597 185.524 306.869 185.318 305.285 182.879C303.185 179.612 300.227 180.012 296.673 181.006C292.18 182.268 287.452 182.834 282.804 183.616C281.816 183.788 280.561 183.314 279.79 183.725C271.265 188.197 268.034 181.275 263.498 177.356C261.317 175.466 259.677 173.015 257.391 171.262C253.122 168.012 252.109 164.556 254.16 159.913C255.141 157.662 256.465 154.858 255.825 152.779C253.178 144.24 258.578 139.065 264.543 134.387C267.289 132.239 269.837 130.726 270.619 127.065C271.589 122.444 276.118 120.565 280.499 119.268C285.507 117.789 290.664 116.646 295.809 115.624C299.737 114.836 303.775 114.459 307.746 113.899C307.771 114.065 307.802 114.208 307.827 114.367C310.101 114.196 312.673 113.345 314.568 114.048C316.314 114.693 318.781 118.057 318.477 118.411C315.482 121.833 318.893 122.49 320.881 123.381C324.728 125.123 328.692 126.671 332.712 128.013C334.259 128.521 336.906 128.972 337.739 128.218C344.847 121.838 352.341 126.442 359.698 127.156C363.371 127.516 367.074 128.001 370.728 127.819C374.344 127.647 378.843 119.868 377.041 117.183C376.575 116.498 374.971 116.207 373.878 116.178C370.858 116.081 367.82 116.441 364.812 116.235C359.804 115.881 355.194 114.933 354.752 108.941C354.697 108.142 352.901 107.451 351.9 106.72C350.931 107.97 348.856 110.01 349.154 110.381C351.515 113.219 349.148 114.156 347.165 115.144C343.978 116.744 343.22 114.213 342.313 112.386C338.889 105.452 332.352 101.373 325.94 97.1977C325.244 96.7464 324.107 96.8721 323.168 96.7122C323.411 97.6889 323.318 99.014 323.97 99.5623C326.412 101.55 328.916 103.6 331.756 105.017C334.173 106.228 334.552 107.353 333.11 109.284C330.917 112.242 330.693 108.89 329.699 108.318C325.076 105.634 320.602 102.715 315.88 100.196C314.855 99.648 313.028 100.179 311.611 100.459C310.157 100.745 308.728 101.819 307.373 101.687C299.687 100.95 295.953 105.942 292.485 110.66C288.577 116.001 277.243 117.988 272.093 113.453C268.185 109.992 272.789 106.068 271.987 102.31C271.919 101.967 275.56 100.625 277.592 100.339C279.543 100.059 281.718 100.962 283.613 100.579C285.75 100.145 288.609 99.3453 289.528 97.8431C291.131 95.2328 289.385 93.0053 286.31 91.8571C285.471 91.5487 284.763 90.9318 284.005 90.4578C284.85 89.9894 285.682 89.1726 286.558 89.1326C296.332 88.6928 301.993 80.0167 311.351 78.6916C311.829 78.6288 311.705 76.4069 312.314 75.4302C313.091 74.1793 314.327 73.1626 315.359 72.0374C316.229 72.8885 317.39 73.6024 317.913 74.6077C320.435 79.3713 325.245 77.6292 329.19 77.8976C332.092 78.0861 335.068 77.4236 338.02 77.1094C338.722 77.0295 340.033 76.841 340.039 76.6582C340.281 70.9523 346.526 70.9979 349.844 68.3877C351.758 66.8799 355.517 67.4224 358.407 66.874C359.277 66.7027 360.016 66.0116 360.824 65.5489C359.997 64.8863 359.196 63.664 358.338 63.6355C355.579 63.527 352.69 63.4813 350.056 64.1324C347.104 64.8635 344.637 64.6864 344.121 61.8534C343.86 60.4312 345.669 58.6605 346.644 57.1069C346.855 56.7528 347.57 56.7071 347.924 56.3873C349.111 55.3363 350.248 54.2339 351.41 53.1429C351.074 52.8573 350.664 52.2747 350.422 52.3262C348.353 52.7774 346.104 52.9887 344.327 53.9483C342.065 55.1706 340.424 57.4839 338.1 58.4778C334.962 59.8372 331.856 60.1799 336.193 63.8925C337.84 65.3032 332.62 72.4029 329.265 73.2596C325.561 74.2021 321.23 76.2868 320.187 70.0439C319.689 67.1195 317.825 67.131 315.303 68.8788C311.96 71.2206 308.878 70.2324 307.268 66.8796C305.771 63.7496 305.603 60.9508 309.86 58.6832C316.558 55.1134 322.293 49.6359 329.339 47.0656C337.641 44.0384 346.817 42.519 355.759 41.7765C361.04 41.3367 366.589 43.6499 372.014 44.7352C377.209 45.769 382.409 46.7685 387.573 47.9052C388.294 48.0708 388.828 48.9676 389.449 49.516C388.896 49.9443 388.405 50.664 387.803 50.7268C384.578 51.1381 381.316 51.298 378.103 51.7321C377.357 51.8406 376.084 52.6745 376.127 53.0572C376.227 53.8512 377.426 55.2619 377.544 55.2049C380.831 53.7256 384.919 57.741 387.995 53.7484C389.008 52.4233 391.344 51.3552 393.146 51.2582C395.781 51.1268 398.446 52.0349 396.924 47.991C396.843 47.7854 399.385 46.7401 400.708 46.089C402.436 52.6233 407.226 47.5454 410.346 47.8652C414.944 48.3507 419.759 47.1113 424.457 46.4659C428.819 45.849 433.149 44.5239 437.505 44.4839C441.712 44.4439 445.906 45.6776 450.119 46.2774C451.312 46.4488 452.536 46.3517 453.741 46.3745C453.288 45.4835 452.741 44.621 452.412 43.69C452.026 42.6105 451.262 40.7942 451.678 40.4801C454.182 38.7038 456.842 36.8417 459.787 35.9335C460.819 35.6136 464.323 38.4467 464.124 38.8921C462.583 42.4277 467.138 47.0484 461.838 49.8472C461.347 50.0928 461.446 51.2637 461.279 52.0063C461.999 51.972 462.9 52.1777 463.41 51.8521C464.851 50.9496 465.982 49.5045 467.536 48.8534C469.307 48.1166 471.394 47.9795 473.345 47.6311C474.7 47.4026 476.079 47.3055 477.397 46.9743C477.521 46.9343 477.558 45.3293 477.229 45.1636C475.992 44.5753 474.29 43.6214 473.308 43.9927C468.723 45.7519 467.25 44.2383 467.865 40.1373C467.933 39.629 468.723 39.2177 469.164 38.7722C472.966 43.5358 474.551 37.3785 476.769 37.5213C479.994 37.727 483.076 39.9546 486.239 41.274C487.512 41.7994 488.83 42.2164 490.141 42.6847C489.333 41.4224 488.618 40.0974 487.674 38.9321C487.258 38.4352 486.263 38.3895 485.685 37.9554C485.176 37.5785 484.903 36.9502 484.511 36.4304C485.114 36.1619 485.704 35.7849 486.344 35.6421C495.832 33.6715 505.327 31.6897 514.859 29.839C516.772 29.4677 518.804 29.6162 520.793 29.6105C522.806 29.6105 525.204 30.4273 526.745 29.6847C536.526 24.9497 546.473 29.2906 556.304 28.8965C558.845 28.788 562.648 29.005 560.119 33.3002C560.019 33.4659 561.952 35.2137 562.915 35.2023C571.11 35.0652 579.183 38.1324 587.551 35.2023C591.348 33.8772 596.362 33.346 597.45 39.3605C597.586 40.1316 599.345 41.2454 600.246 41.1768C606.217 40.6856 612.157 39.9317 618.098 39.2178C618.844 39.1264 619.819 39.0464 620.229 38.5895C621.155 37.5671 622.646 36.0935 622.373 35.2081C622.025 34.0772 620.155 33.3519 618.943 32.4551C618.135 31.8496 617.334 31.2328 616.526 30.6216C617.415 30.3418 618.297 29.8334 619.192 29.8448C621.963 29.8791 624.753 29.9991 627.512 30.2789C628.972 30.4332 630.389 30.9986 631.83 31.3756C630.904 32.1353 629.817 32.7978 629.084 33.7002C628.717 34.1343 628.86 35.0539 629.047 35.6651C629.152 35.9907 629.842 36.2877 630.302 36.3677C639.05 37.9099 647.825 39.4406 656.58 40.9313C660.712 41.6339 664.875 42.2679 669.013 42.9134C671.207 43.2561 673.394 43.6844 675.606 43.8729C680.825 44.3241 686.063 44.644 691.283 45.0267C691.78 45.061 692.519 45.4665 692.706 45.278C697.857 40.6858 703.735 45.0267 709.222 44.1414C714.05 43.3703 715.379 45.8835 715.964 50.2072C716.492 53.4972 711.042 55.4391 714.541 58.7462L714.54 58.7458ZM390.915 104.589C389.585 103.081 388.423 101.419 386.888 100.128C385.248 98.7342 382.433 98.0317 381.625 96.4095C380.146 93.4623 378.916 93.3823 376.965 95.6327C374.15 98.877 371.951 98.62 369.49 95.1586C367.763 92.7254 365.65 93.6622 363.966 95.5527C362.543 97.1578 360.859 98.6542 359.809 100.448C359.064 101.716 358.535 103.652 359.088 104.823C359.436 105.6 362.009 106.074 363.357 105.788C370.26 104.28 377.083 103.823 383.887 106.131C384.11 106.205 384.396 106.137 386.061 106.137C386.826 105.885 388.864 105.24 390.914 104.589H390.915ZM412.985 97.5918C414.396 97.4605 415.837 97.4605 417.217 97.1749C418.509 96.9064 419.702 96.3238 420.939 95.8726C420.119 94.7817 419.528 93.1196 418.41 92.7255C416.732 92.1429 414.657 92.2172 412.824 92.4399C410.892 92.6855 409.071 93.5937 407.138 93.9307C401.758 94.8617 400.627 96.895 403.746 100.922C405.02 102.55 406.809 104.075 408.735 104.966C411.507 106.251 411.426 106.879 409.145 108.707C405.343 111.762 405.716 113.208 410.239 114.784C411.879 115.349 413.663 115.578 414.881 115.841C420.162 115.938 421.448 114.618 419.889 110.42C418.721 107.319 416.813 104.44 415.229 101.481C414.502 100.173 413.737 98.8883 412.985 97.5916V97.5918ZM637.129 232.954C635.06 230.406 633.718 227.385 631.804 224.718C630.53 222.941 628.84 221.428 627.33 219.788C627.286 221.982 627.591 224.243 627.125 226.363C626.572 228.841 626.876 232.777 622.651 232.28C619.874 231.954 616.997 230.07 614.841 228.225C613.834 227.356 614.493 224.923 614.169 223.244C614.033 222.49 613.362 221.239 612.889 221.222C609 221.091 604.327 219.994 601.388 221.548C597.697 223.507 595.653 228.23 590.117 224.889C589.93 224.764 588.7 226.037 588.004 226.688C582.194 232.052 577.397 238.26 567.742 238.963C561.603 239.414 560.633 243.498 560.609 249.37C560.59 254.225 563.43 257.572 564.921 261.621C565.449 263.055 565.766 264.94 565.182 266.242C563.579 269.852 564.815 272.337 568.854 271.697C573.763 270.926 579.821 270.566 583.002 267.75C587.215 264.015 591.962 264.072 596.585 262.884C602.364 261.41 606.179 263.238 609.938 268.373C610.342 268.927 611.896 269.527 612.02 269.389C617.277 263.763 620.135 269.972 621.303 272.057C624.329 277.483 627.821 280.35 633.302 278.574C642.746 279.625 645.766 274.519 648.979 268.995C654.409 259.634 654.154 252.146 647.052 243.847C643.883 240.128 640.23 236.73 637.129 232.955L637.129 232.954ZM603.806 195.491C603.396 195.399 602.774 196.165 602.24 196.53C604.091 198.718 605.533 201.437 607.888 202.95C612.144 205.703 619.557 204.104 620.57 211.643C620.769 213.14 627.765 215.482 628.045 215.122C632.687 209.062 636.322 210.804 640.143 215.71C640.795 216.556 642.243 217.018 643.436 217.298C644.057 217.452 644.909 216.841 645.599 216.595C645.307 215.579 645.338 214.99 645.027 214.722C639.969 210.29 635.595 204.504 629.592 201.882C621.682 198.432 612.486 197.444 603.806 195.491H603.806ZM627.51 98.5116C625.267 99.3226 623.018 102.236 622.496 104.56C620.079 115.047 618.103 116.778 606.987 117.88C604.215 118.166 601.488 119.851 599.058 121.336C598.356 121.77 598.232 123.986 598.797 124.883C599.263 125.597 601.326 126.031 602.388 125.717C605.818 124.711 609.025 123.095 612.454 122.078C623.571 118.788 625.547 116.321 625.267 106.159C625.242 105.297 626.566 103.949 627.591 103.612C629.703 102.926 632.034 102.801 634.264 102.361C634.898 102.229 635.451 101.773 636.017 101.47C635.743 100.899 635.631 100.242 635.358 100.162C632.711 99.4593 629.585 97.7744 627.51 98.5112L627.51 98.5116ZM558.296 206.984C545.676 208.697 542.334 199.736 542.334 199.736C542.334 199.736 535.673 199.736 533.063 205.459C532.628 206.407 533.802 209.708 544.564 210.731C555.326 211.753 562.378 210.731 562.378 210.731C562.378 210.731 570.916 205.27 558.296 206.984V206.984ZM529.595 211.193C526.128 209.948 526.004 210.394 526.743 206.984C527.483 203.579 523.525 199.736 523.525 199.736C512.452 201.318 525.265 213.124 529.602 216.197C533.939 219.27 541.6 214.152 538.636 214.152C535.672 214.147 533.063 212.444 529.595 211.194V211.193ZM594.664 211.193C594.664 211.193 592.073 203.568 585.754 197.771C579.44 191.973 577.962 208.457 577.962 208.457C579.441 215.734 594.664 211.193 594.664 211.193Z" fill="#F8F8F8"/>
</svg>
