<svg width="45" height="45" viewBox="0 0 45 45" fill="none" xmlns="http://www.w3.org/2000/svg">
<rect x="0.394531" y="0.0429688" width="44" height="44" rx="8" fill="#111111"/>
<path fill-rule="evenodd" clip-rule="evenodd" d="M19.8015 16.9247C21.3393 16.9414 18.6321 24.9237 18.9227 28.3939C19.2158 31.8949 23.0897 30.8869 22.8438 28.8715C22.4255 25.4451 24.7079 14.7087 27.0226 14.7087C28.6467 14.7087 25.2238 22.1102 25.8973 26.8498C26.3429 29.9856 30.3876 28.8978 29.9766 27.0385C28.6169 20.8852 32.8295 14.9715 32.3574 10.7816C32.1509 8.94837 31.0484 8.05182 29.9456 8.04305C26.0844 8.01335 23.1018 15.9317 23.1018 15.9317C23.1018 15.9317 23.4124 11.4312 20.4115 11.266C15.8168 11.0128 11.2684 22.5117 11.3972 32.779C11.4383 36.0546 15.515 35.4967 15.3006 32.8851C14.902 28.0284 17.6097 16.9013 19.8015 16.9247Z" fill="white"/>
</svg>
