<svg width="48" height="48" viewBox="0 0 48 48" fill="none" xmlns="http://www.w3.org/2000/svg">
<path d="M39.4486 25.1617C39.4486 25.0848 39.4275 25.0298 39.3841 24.9939C39.336 24.9552 39.2529 24.9346 39.1371 24.9346H38.9708V25.3918H39.1716C39.357 25.3918 39.4486 25.3149 39.4486 25.1617ZM39.708 26.1152H39.4793L39.3335 25.7934C39.2595 25.6322 39.1803 25.5516 39.0939 25.5516H38.9708V26.1152H38.7824V24.774H39.1598C39.3277 24.774 39.4537 24.8104 39.5402 24.8862C39.6135 24.9514 39.6501 25.035 39.6501 25.139C39.6501 25.2314 39.6202 25.3091 39.56 25.3735C39.5013 25.4387 39.417 25.4827 39.3093 25.5055V25.5113C39.3841 25.5289 39.4588 25.6109 39.5313 25.759L39.708 26.1159V26.1152ZM40.1257 25.4578C40.1257 25.194 40.0356 24.9712 39.856 24.7946C39.6757 24.618 39.4559 24.5293 39.1965 24.5293C38.929 24.5293 38.7062 24.618 38.5296 24.7961C38.353 24.9749 38.2651 25.1961 38.2651 25.4578C38.2651 25.7253 38.3567 25.9488 38.5384 26.1269C38.718 26.3049 38.9378 26.3929 39.1965 26.3929C39.4537 26.3929 39.6735 26.3042 39.8545 26.1239C40.0356 25.9466 40.1257 25.7238 40.1257 25.4578ZM40.2525 25.452C40.2525 25.7481 40.1506 25.9965 39.9462 26.1965C39.7417 26.3981 39.4911 26.4985 39.1913 26.4985C38.8894 26.4985 38.6388 26.3996 38.4394 26.2053C38.2402 26.0082 38.1412 25.7605 38.1412 25.4601C38.1412 25.1662 38.2423 24.9192 38.4446 24.7163C38.6469 24.514 38.8989 24.4129 39.2002 24.4129C39.4955 24.4129 39.7432 24.5096 39.944 24.7023C40.1499 24.9002 40.2525 25.1494 40.2525 25.452Z" fill="black"/>
<path d="M11.5897 29.1916H10.9397V25.4717C10.9397 25.1779 10.9591 24.8203 10.9937 24.3982H10.979C10.9182 24.6451 10.8625 24.8239 10.8134 24.9346L8.92417 29.1916H8.60758L6.71466 24.9654C6.66131 24.8474 6.6055 24.6575 6.54904 24.3982H6.53498C6.55491 24.6202 6.56605 24.98 6.56605 25.4791V29.1916H5.93945V23.6522H6.79686L8.49632 27.5149C8.62453 27.8058 8.70737 28.0271 8.74765 28.1781H8.77462C8.88524 27.8754 8.97318 27.6482 9.0399 27.4987L10.7759 23.6522H11.5894V29.1916H11.5897Z" fill="black"/>
<path d="M13.5892 29.1914H12.9575V25.2356H13.5892V29.1914ZM13.6984 23.8176C13.6984 23.9341 13.6574 24.0315 13.576 24.1114C13.4961 24.1913 13.3972 24.2316 13.2814 24.2316C13.1685 24.2316 13.0703 24.1929 12.9898 24.1158C12.9092 24.0382 12.8695 23.9392 12.8695 23.8176C12.8695 23.7032 12.9094 23.6058 12.9898 23.5267C13.0703 23.4475 13.1685 23.4094 13.2814 23.4094C13.3972 23.4094 13.4961 23.4475 13.576 23.5267C13.6574 23.6058 13.6984 23.7032 13.6984 23.8176Z" fill="black"/>
<path d="M17.5368 29.0084C17.2334 29.1945 16.8714 29.2868 16.4529 29.2868C15.8858 29.2868 15.4292 29.0985 15.0804 28.7226C14.7418 28.3576 14.5711 27.8864 14.5711 27.309C14.5711 26.6611 14.7565 26.1364 15.1302 25.7378C15.5018 25.3384 16.0016 25.139 16.6303 25.139C16.974 25.139 17.2789 25.2065 17.5456 25.3398V25.9899C17.2503 25.7825 16.9381 25.6799 16.6032 25.6799C16.2001 25.6799 15.8726 25.8206 15.6183 26.1013C15.3537 26.3885 15.2196 26.7725 15.2196 27.2518C15.2196 27.712 15.342 28.0762 15.5853 28.3452C15.8293 28.6126 16.154 28.7468 16.5636 28.7468C16.9095 28.7468 17.2334 28.6332 17.5368 28.4067V29.0084Z" fill="black"/>
<path d="M20.5583 25.8774C20.4469 25.7917 20.2865 25.7499 20.0746 25.7499C19.8174 25.7499 19.6012 25.8649 19.4261 26.0972C19.2275 26.3566 19.1286 26.7157 19.1286 27.1745V29.1912H18.4954V25.2354H19.1286V26.0511H19.1438C19.2369 25.7623 19.3806 25.5403 19.5726 25.3827C19.7521 25.2391 19.9551 25.1665 20.1786 25.1665C20.3471 25.1665 20.4725 25.1847 20.5582 25.2205V25.8771L20.5583 25.8774Z" fill="black"/>
<path d="M24.0872 27.2207C24.0872 26.7143 23.9729 26.3274 23.7442 26.0621C23.5222 25.8071 23.2122 25.6796 22.8128 25.6796C22.4193 25.6796 22.1035 25.8086 21.8674 26.0665C21.6175 26.342 21.493 26.7312 21.493 27.2361C21.493 27.7095 21.6117 28.081 21.8514 28.3463C22.0895 28.613 22.4105 28.7464 22.8128 28.7464C23.2291 28.7464 23.5478 28.6109 23.7662 28.3412C23.9802 28.0774 24.0872 27.7043 24.0872 27.2207ZM24.7365 27.1984C24.7365 27.8286 24.5584 28.3351 24.2037 28.7146C23.8476 29.0957 23.3683 29.2863 22.7659 29.2863C22.1723 29.2863 21.6996 29.0957 21.353 28.7146C21.0137 28.3475 20.843 27.8623 20.843 27.2593C20.843 26.5711 21.0357 26.0405 21.4226 25.6639C21.7802 25.3143 22.2588 25.1384 22.8583 25.1384C23.4482 25.1384 23.9091 25.3224 24.2411 25.6866C24.5701 26.053 24.7365 26.5572 24.7365 27.1984Z" fill="black"/>
<path d="M27.8765 28.1331C27.8765 28.457 27.7557 28.7252 27.5131 28.9392C27.2485 29.1708 26.8851 29.2866 26.4278 29.2866C26.0533 29.2866 25.725 29.2082 25.4465 29.0484V28.3676C25.7565 28.6197 26.0987 28.7465 26.4747 28.7465C26.9759 28.7465 27.2273 28.5618 27.2273 28.1939C27.2273 28.0393 27.1722 27.9111 27.0609 27.8121C26.9495 27.711 26.7333 27.5901 26.4117 27.4486C26.0804 27.3035 25.8444 27.1548 25.7052 27.0001C25.5381 26.8169 25.4538 26.5788 25.4538 26.2856C25.4538 25.9573 25.585 25.684 25.8444 25.4663C26.1046 25.248 26.4387 25.1388 26.8491 25.1388C27.1635 25.1388 27.4449 25.2003 27.6948 25.3242V25.9617C27.4339 25.7734 27.1357 25.6796 26.7971 25.6796C26.5875 25.6796 26.419 25.7317 26.2936 25.8335C26.1669 25.9375 26.1031 26.0702 26.1031 26.2321C26.1031 26.4073 26.1564 26.5436 26.2622 26.641C26.356 26.7312 26.5553 26.8411 26.8558 26.9693C27.1936 27.1108 27.4376 27.2574 27.5864 27.4076C27.7791 27.5974 27.8765 27.8392 27.8765 28.1331Z" fill="black"/>
<path d="M31.7461 27.2207C31.7461 26.7143 31.6318 26.3274 31.4024 26.0621C31.1811 25.8071 30.8704 25.6796 30.4718 25.6796C30.0782 25.6796 29.7624 25.8086 29.5249 26.0665C29.2758 26.342 29.1519 26.7312 29.1519 27.2361C29.1519 27.7095 29.2706 28.081 29.508 28.3463C29.7492 28.613 30.0702 28.7464 30.4718 28.7464C30.8887 28.7464 31.2067 28.6109 31.4251 28.3412C31.6391 28.0774 31.7461 27.7043 31.7461 27.2207ZM32.3969 27.1984C32.3969 27.8286 32.2173 28.3351 31.8619 28.7146C31.5072 29.0957 31.0279 29.2863 30.4256 29.2863C29.8313 29.2863 29.3586 29.0957 29.012 28.7146C28.6726 28.3475 28.5019 27.8623 28.5019 27.2593C28.5019 26.5711 28.6961 26.0405 29.0809 25.6639C29.4385 25.3143 29.9177 25.1384 30.5179 25.1384C31.1078 25.1384 31.5681 25.3224 31.8993 25.6866C32.2291 26.053 32.3969 26.5572 32.3969 27.1984Z" fill="black"/>
<path d="M35.1869 23.8915C35.0624 23.8226 34.9239 23.7874 34.7663 23.7874C34.3229 23.7874 34.1031 24.0666 34.1031 24.6258V25.2355H35.0301V25.7719H34.1031V29.1913H33.4692V25.7719H32.7965V25.2355H33.4692V24.5943C33.4692 24.1589 33.6026 23.8174 33.8737 23.5712C34.106 23.3572 34.3903 23.251 34.7282 23.251C34.9239 23.251 35.0763 23.2744 35.1869 23.3199V23.8915Z" fill="black"/>
<path d="M37.686 29.1515C37.5365 29.2373 37.3372 29.2798 37.0909 29.2798C36.4006 29.2798 36.0555 28.8907 36.0555 28.1124V25.7725H35.3769V25.2353H36.0555V24.2702C36.2577 24.2064 36.468 24.1368 36.6901 24.065V25.2353H37.686V25.7725H36.6901V28.0047C36.6901 28.27 36.7335 28.4597 36.8242 28.5697C36.9158 28.6833 37.0653 28.739 37.2764 28.739C37.4339 28.739 37.5702 28.6968 37.686 28.6115V29.1515Z" fill="black"/>
<path d="M3.45779 44.631C3.45779 44.9409 3.34717 45.2092 3.12362 45.4356C2.90084 45.6613 2.6304 45.775 2.31312 45.775C2.0031 45.775 1.73928 45.6613 1.52313 45.4356C1.30692 45.2092 1.19922 44.9409 1.19922 44.631C1.19922 44.3122 1.30692 44.0433 1.52313 43.8205C1.73928 43.5969 2.0031 43.4863 2.31312 43.4863C2.6304 43.4863 2.90084 43.5985 3.12362 43.8249C3.34717 44.0514 3.45779 44.3203 3.45779 44.631Z" fill="black"/>
<path d="M15.5697 45.542L8.07367 33.9655C7.89849 33.6871 7.74753 33.3844 7.61931 33.0539H7.5577C7.61105 33.3639 7.63837 34.0293 7.63837 35.0487V45.542H5.93598V31.0181H8.14548L15.4173 42.4121C15.7068 42.8642 15.9046 43.1881 16.005 43.3831H16.0455C15.9781 42.9654 15.9429 42.253 15.9429 41.2476V31.0181H17.635V45.542H15.5697Z" fill="black"/>
<path d="M28.5485 45.542H20.8508V31.0181H28.2143V32.557H22.5518V37.3885H27.7988V38.9282H22.5518V44.0023H28.5485V45.542Z" fill="black"/>
<path d="M40.2244 32.5572H36.0407V45.5422H34.3391V32.5572H30.1473V31.0176H40.2244V32.5572Z" fill="black"/>
<path d="M17.0566 5.93154C18.6989 10.9536 19.3211 19.9124 24.1233 19.9124C24.489 19.9124 24.8583 19.8766 25.2291 19.8061C20.8637 18.7883 20.3463 9.92686 17.6825 5.33789C17.4736 5.52771 17.2662 5.72558 17.0566 5.93154Z" fill="url(#paint0_linear_6002_288300)"/>
<path d="M17.6836 5.33816C20.3474 9.92712 20.8648 18.7885 25.2303 19.8064C25.5732 19.7434 25.9169 19.6481 26.2613 19.5279C22.3429 17.6079 21.2598 9.00304 18.2347 4.86035C18.0515 5.01284 17.8675 5.17259 17.6836 5.33816Z" fill="url(#paint1_linear_6002_288300)"/>
<path d="M21.5215 2.60938C21.1566 2.60938 20.7865 2.64513 20.4149 2.71567C19.4432 2.89887 18.4561 3.31728 17.4609 3.95045C17.7328 4.21866 17.9915 4.52569 18.2348 4.86062C19.2468 4.0208 20.2523 3.40012 21.2541 3.02708C21.63 2.88785 22.0045 2.78308 22.3804 2.7142C22.1092 2.64525 21.8234 2.60938 21.5215 2.60938Z" fill="#14559A"/>
<path d="M29.3188 17.7579C29.7196 17.4391 30.1212 17.0866 30.5235 16.7019C28.8549 11.7033 28.2577 2.61621 23.4217 2.61621C23.0758 2.61621 22.727 2.64845 22.3789 2.71294C26.7839 3.80855 27.3482 13.3925 29.3188 17.7579Z" fill="url(#paint2_linear_6002_288300)"/>
<path d="M22.3804 2.71315C22.1092 2.64427 21.8234 2.6084 21.5215 2.6084L23.4232 2.61537C23.0773 2.61537 22.7285 2.64761 22.3804 2.71286" fill="#3092C4"/>
<path d="M29.2343 18.8197C29.0452 18.6394 28.8657 18.4415 28.6891 18.2305C27.8756 18.8065 27.0651 19.2432 26.2598 19.5276C26.5463 19.6676 26.8467 19.7716 27.1655 19.8361C27.4125 19.8865 27.6683 19.9123 27.9372 19.9123C28.8408 19.9123 29.5553 19.8053 30.1635 19.5137C29.8286 19.3326 29.5216 19.0981 29.2343 18.8197Z" fill="#1969BC"/>
<path d="M21.2539 3.02731C25.1995 5.09094 25.5424 14.436 28.6906 18.2305C28.9017 18.0818 29.1106 17.9242 29.3194 17.7578C27.3488 13.3924 26.7853 3.80773 22.381 2.71289C22.0051 2.78324 21.6298 2.88737 21.2539 3.02731Z" fill="url(#paint3_linear_6002_288300)"/>
<path d="M18.2344 4.86011C21.2595 9.00281 22.3426 17.6077 26.261 19.5277C27.0664 19.2433 27.8769 18.8066 28.6903 18.2306C25.5421 14.436 25.1992 5.09097 21.2536 3.02734C20.2518 3.39961 19.2464 4.02029 18.2344 4.86011Z" fill="url(#paint4_linear_6002_288300)"/>
<path d="M15.1222 5.811C14.6481 6.88316 14.1637 8.29235 13.5781 10.1318C14.7426 8.49092 15.9034 7.07732 17.0576 5.93195C16.8986 5.44313 16.7278 4.99246 16.5439 4.59082C16.0719 4.95213 15.5963 5.35887 15.1222 5.811Z" fill="url(#paint5_linear_6002_288300)"/>
<path d="M16.9629 4.28125C16.8236 4.38091 16.6837 4.4828 16.543 4.5905C16.7269 4.99209 16.8969 5.44281 17.0559 5.93157C17.2655 5.72638 17.4736 5.5278 17.6817 5.33798C17.4582 4.95397 17.2208 4.59928 16.9629 4.28125Z" fill="#2B74B1"/>
<path d="M17.4597 3.9502C17.2941 4.05502 17.1293 4.16564 16.9629 4.28142C17.2208 4.59947 17.4583 4.95416 17.6825 5.33893C17.8665 5.17255 18.0504 5.01208 18.2336 4.86037C17.9903 4.52549 17.7317 4.21841 17.4597 3.9502Z" fill="#125A9E"/>
<path d="M44.3726 2.22663C42.1411 10.8322 37.4803 17.7442 33.5729 19.4869H33.5655C33.4944 19.5191 33.4241 19.5485 33.3545 19.577C33.3449 19.5828 33.3362 19.5835 33.3288 19.587C33.3082 19.5953 33.2892 19.6017 33.2687 19.6099C33.2591 19.6157 33.2504 19.6176 33.2416 19.621C33.2086 19.6328 33.1764 19.6428 33.1441 19.6556C33.1302 19.6614 33.117 19.6651 33.1038 19.6697C33.0891 19.6755 33.0722 19.6809 33.0554 19.6856C33.0408 19.6914 33.0254 19.6956 33.0085 19.702C32.9946 19.7078 32.9799 19.7102 32.9668 19.716C32.9382 19.7243 32.9118 19.7313 32.8832 19.7412C32.8715 19.7412 32.8605 19.7476 32.8481 19.7507C32.8305 19.7565 32.8107 19.7607 32.7916 19.7659C32.7784 19.7717 32.7675 19.7736 32.7535 19.7765C32.7337 19.7823 32.7117 19.7877 32.6919 19.7924C32.6656 19.7982 32.6421 19.8035 32.6172 19.8088C32.7938 19.874 32.9777 19.907 33.1763 19.907C36.8815 19.907 40.6174 13.2669 46.7988 2.22461H44.3717L44.3726 2.22663Z" fill="url(#paint6_linear_6002_288300)"/>
<path d="M12.773 2.95837C12.7753 2.95837 12.7782 2.95256 12.7797 2.95256C12.7826 2.95256 12.7871 2.95256 12.7885 2.94676H12.7932C12.8137 2.93979 12.8327 2.93152 12.8532 2.92389C12.8585 2.92389 12.8612 2.92389 12.865 2.91809C12.8702 2.91809 12.8753 2.91228 12.8804 2.91155C12.9024 2.90459 12.9244 2.89631 12.9449 2.88869H12.9484C12.9975 2.87404 13.0429 2.85587 13.0906 2.83887C13.0972 2.83887 13.1038 2.83306 13.1118 2.83306C13.1316 2.82668 13.1521 2.81956 13.1726 2.81489C13.1822 2.80908 13.1917 2.80908 13.2005 2.80603C13.2217 2.79964 13.2423 2.79253 13.262 2.78786C13.2709 2.78786 13.2789 2.78205 13.2855 2.78147C13.3536 2.76271 13.421 2.74512 13.4892 2.7287C13.4988 2.7287 13.5068 2.72289 13.517 2.72231C13.5368 2.71651 13.5552 2.71346 13.5764 2.71056C13.5852 2.70475 13.5955 2.70475 13.6057 2.7017C13.6255 2.69589 13.6445 2.69531 13.6658 2.69052H13.6797C13.7208 2.68225 13.7626 2.67528 13.8036 2.66766H13.8285C13.8483 2.66185 13.8659 2.66127 13.8857 2.65764C13.8966 2.65764 13.9077 2.65184 13.9179 2.65184C13.9362 2.65184 13.9546 2.64603 13.9728 2.64356C13.9824 2.64356 13.9919 2.64356 14.0029 2.63775C14.0461 2.63195 14.0909 2.62962 14.1363 2.626C14.008 2.61366 13.8761 2.60547 13.742 2.60547C9.56931 2.60547 3.82028 10.3478 1.23047 20.3743H1.72952C2.55835 18.8962 3.30291 17.498 3.9837 16.1855C5.79745 9.08366 9.49163 4.24038 12.7732 2.95722" fill="url(#paint7_linear_6002_288300)"/>
<path d="M15.1211 5.81109C15.5953 5.35896 16.0708 4.95222 16.5428 4.59097C16.4351 4.355 16.3237 4.13661 16.2042 3.93652C15.8224 4.39967 15.4736 5.01085 15.1211 5.81109Z" fill="#0D82CA"/>
<path d="M15.4649 3.01732C15.7375 3.24596 15.9815 3.56037 16.205 3.93705C16.2754 3.85057 16.3465 3.77067 16.4205 3.69592C16.1105 3.40647 15.7756 3.16904 15.4121 2.99023C15.4268 2.99836 15.4414 3.0049 15.4567 3.01134C15.4567 3.01134 15.4625 3.01715 15.4649 3.01715" fill="#0D82CA"/>
<path d="M3.98438 16.1863C7.78921 8.85434 9.59197 4.21407 12.7739 2.95801C9.49304 4.24197 5.79812 9.0852 3.98438 16.1863Z" fill="url(#paint8_linear_6002_288300)"/>
<path d="M16.4205 3.69531C16.3465 3.77083 16.2762 3.84997 16.2051 3.93645C16.3246 4.13648 16.4359 4.35416 16.5444 4.59084C16.6851 4.48314 16.825 4.38124 16.9643 4.28159C16.7921 4.06906 16.6104 3.87195 16.4205 3.69531Z" fill="#127BCA"/>
<path d="M5.71114 20.3423C5.68769 20.3481 5.66424 20.3481 5.64225 20.3506H5.62905C5.60924 20.3506 5.58872 20.3564 5.57043 20.3564H5.56088C5.51327 20.3622 5.46634 20.3622 5.42091 20.3658H5.40625C9.25726 20.258 11.0175 18.3299 11.891 15.5335C12.555 13.4134 13.1002 11.6275 13.578 10.1289C11.9651 12.3992 10.3448 15.1055 8.7157 18.1372C7.93011 19.5985 6.7356 20.2089 5.71111 20.3394" fill="url(#paint9_linear_6002_288300)"/>
<path d="M5.71094 20.3408C6.73543 20.2103 7.92994 19.6006 8.71553 18.1387C10.3446 15.1077 11.9656 12.4006 13.5771 10.1303C14.1634 8.29017 14.647 6.88173 15.1219 5.80957C11.9099 8.86693 8.68548 13.9506 5.71094 20.3394" fill="url(#paint10_linear_6002_288300)"/>
<path d="M3.98269 16.1865C3.30193 17.499 2.55737 18.8973 1.72852 20.3754H3.18028C3.37228 18.9075 3.64489 17.5078 3.98269 16.1872" fill="#05A1E6"/>
<path d="M14.0035 2.64123C13.9918 2.64123 13.983 2.64704 13.9728 2.64704C13.9552 2.65285 13.9368 2.65285 13.9185 2.65473C13.9076 2.65473 13.8973 2.65473 13.8863 2.66054C13.8665 2.66635 13.8482 2.66693 13.8291 2.67056C13.8203 2.67056 13.8115 2.67056 13.8042 2.67636C13.7624 2.68333 13.7214 2.69103 13.6803 2.69805H13.6664C13.6452 2.70386 13.6261 2.70691 13.6063 2.70981C13.596 2.71562 13.5858 2.71562 13.5762 2.71794C13.5565 2.72375 13.5367 2.72621 13.5176 2.7297C13.5073 2.73551 13.4993 2.73551 13.4898 2.73609C13.4216 2.7525 13.3542 2.7701 13.286 2.78885C13.2788 2.78885 13.2714 2.79466 13.2626 2.79582C13.2421 2.80163 13.2223 2.80758 13.201 2.814C13.1922 2.8198 13.182 2.8198 13.1732 2.82213C13.1527 2.82793 13.1321 2.83389 13.1124 2.8403C13.1044 2.8403 13.0977 2.84611 13.0904 2.84611C13.0435 2.86369 12.9973 2.88128 12.9489 2.89594C12.9284 2.90233 12.9064 2.91059 12.8845 2.91821C12.8756 2.92402 12.8676 2.92533 12.8574 2.92939C12.8368 2.93578 12.8163 2.94405 12.7973 2.95167C12.79 2.95748 12.7826 2.95806 12.7775 2.96111C9.59559 4.21717 7.79283 8.85744 3.98799 16.1894C3.65016 17.51 3.37681 18.9097 3.18555 20.3775H3.38927C3.96308 20.3775 4.12503 20.3717 4.78531 20.3717H4.81902H4.91722H4.95093H4.96048H4.99419H5.01324H5.02644H5.05282H5.1349H5.21697H5.28586H5.30415H5.42507C5.4705 20.3659 5.5174 20.3659 5.56504 20.3623H5.57383C5.59365 20.3623 5.61341 20.3564 5.63246 20.3564H5.64635C5.66758 20.3564 5.69179 20.3506 5.71524 20.3482C8.68979 13.9594 11.9142 8.87573 15.1262 5.81837C15.4794 5.01814 15.8275 4.40695 16.2086 3.94456C15.9858 3.5679 15.7418 3.25278 15.4692 3.02408C15.4692 3.02408 15.4618 3.02408 15.4612 3.01828C15.4458 3.01189 15.4312 3.0042 15.4158 2.99659C15.4003 2.98831 15.3872 2.98193 15.3711 2.97373C15.3571 2.96792 15.341 2.96022 15.3271 2.95262C15.3081 2.94681 15.2927 2.93854 15.2758 2.93092C15.2619 2.92511 15.2494 2.91916 15.2355 2.91334C15.2069 2.90216 15.1783 2.89047 15.1512 2.87816C15.1387 2.87235 15.1271 2.86931 15.1153 2.86466C15.0955 2.85755 15.0728 2.84824 15.0523 2.83945C15.0419 2.83364 15.0303 2.83248 15.0185 2.82827C14.9885 2.81825 14.9592 2.80776 14.9313 2.79836H14.9241C14.8903 2.78718 14.8574 2.77903 14.8229 2.76963C14.8149 2.76383 14.8083 2.76383 14.8002 2.76267C14.7702 2.75439 14.7438 2.74625 14.7152 2.73863C14.708 2.73863 14.7013 2.73282 14.6955 2.73282C14.6266 2.71464 14.5555 2.7 14.4837 2.68651C14.4763 2.68651 14.469 2.6807 14.4617 2.6807C14.4309 2.6749 14.4009 2.66953 14.3701 2.66604C14.3627 2.66024 14.3584 2.66024 14.3518 2.66024C14.3152 2.65443 14.2793 2.65022 14.2433 2.64615H14.2243C14.195 2.64035 14.1679 2.63977 14.1408 2.63672C14.0946 2.64253 14.0506 2.64499 14.0074 2.64906" fill="url(#paint11_linear_6002_288300)"/>
<path d="M35.6573 6.99043C34.9252 9.33548 34.3323 11.2701 33.8164 12.8618C35.8251 10.0976 37.8037 6.62032 39.6878 2.60742C37.4901 3.29768 36.3175 4.87771 35.6573 6.99043Z" fill="url(#paint12_linear_6002_288300)"/>
<path d="M33.8786 19.3403C33.776 19.3924 33.6734 19.4421 33.5723 19.4868C37.4797 17.7442 42.1405 10.8321 44.372 2.22656H43.9198C38.7929 11.3847 37.1441 17.5155 33.8786 19.3403Z" fill="url(#paint13_linear_6002_288300)"/>
<path d="M31.328 18.571C32.1781 17.5334 32.8706 15.7695 33.816 12.8623C32.7255 14.3602 31.6278 15.6478 30.5292 16.6979C30.5292 16.7037 30.5292 16.7037 30.5234 16.7074C30.7631 17.4255 31.0262 18.0594 31.3259 18.5709" fill="#079AE1"/>
<path d="M31.3278 18.5713C31.0383 18.9245 30.732 19.1935 30.3912 19.3928C30.3165 19.4362 30.241 19.4771 30.1641 19.5145C30.5239 19.7087 30.9167 19.8384 31.3563 19.8904C31.4208 19.8968 31.4846 19.9027 31.5513 19.9074H31.563C31.5929 19.9074 31.6246 19.9074 31.6569 19.9132H31.6698H31.7658H31.8692H31.9014H31.9747C31.9865 19.9132 31.9987 19.9132 32.0104 19.9074C32.0333 19.9074 32.0574 19.9074 32.0808 19.9016H32.0891H32.1154C32.1395 19.9016 32.1659 19.8958 32.1917 19.8933H32.1975C32.2052 19.8933 32.2133 19.8875 32.2209 19.8875C32.2479 19.8817 32.276 19.8792 32.3023 19.8752H32.3263C32.3562 19.8694 32.3871 19.8657 32.4179 19.8599H32.4237H32.4326C32.4941 19.8482 32.5542 19.8365 32.615 19.8212C32.1108 19.6365 31.6887 19.2012 31.3252 18.5813" fill="#1969BC"/>
<path d="M24.123 19.9131C24.4888 19.9131 24.8581 19.8773 25.2289 19.8061C25.5719 19.7438 25.9155 19.6485 26.26 19.5283C26.5465 19.6683 26.847 19.7724 27.165 19.8369C27.412 19.8873 27.6685 19.9131 27.9374 19.9131H24.123Z" fill="#1E5CB3"/>
<path d="M27.9381 19.9123C28.841 19.9123 29.5562 19.8053 30.1638 19.5137C30.5235 19.7078 30.9163 19.8376 31.356 19.8896C31.4205 19.896 31.4843 19.902 31.551 19.9066H31.5627C31.5926 19.9066 31.6243 19.9066 31.6565 19.9124H31.67H31.7661H27.9355L27.9381 19.9123Z" fill="#1E5CB3"/>
<path d="M31.7695 19.9125H31.8736H31.9058H31.9784C31.9908 19.9125 32.0025 19.9125 32.0142 19.9067C32.037 19.9067 32.0611 19.9067 32.0853 19.9009H32.093H32.12C32.144 19.9009 32.1704 19.8951 32.1955 19.8927H32.2019C32.2095 19.8927 32.2171 19.8869 32.2247 19.8869C32.2517 19.8811 32.2798 19.8788 32.306 19.8746C32.3149 19.8746 32.3219 19.8746 32.3312 19.8688C32.3611 19.863 32.3921 19.8599 32.4229 19.8541H32.4287H32.4375C32.4991 19.8424 32.5592 19.8307 32.62 19.8154C32.7966 19.8806 32.9805 19.9136 33.1791 19.9136L31.7706 19.9194L31.7695 19.9125Z" fill="#1D60B5"/>
<path d="M30.5256 16.707V16.7012C30.1233 17.0859 29.7217 17.4384 29.3209 17.7572C29.1113 17.9235 28.9025 18.0811 28.6914 18.2299C28.868 18.4409 29.0476 18.6388 29.2366 18.8191C29.5239 19.0975 29.8309 19.332 30.1658 19.513C30.2421 19.4755 30.3183 19.4346 30.3923 19.3914C30.7338 19.192 31.0401 18.9231 31.3296 18.5699C31.0298 18.0584 30.7668 17.4244 30.5271 16.7063" fill="#175FAB"/>
<path d="M42.4878 2.22656H40.5868H40.3977H40.2189H40.2119C40.0888 2.23237 39.9694 2.23658 39.8514 2.24416C39.7957 2.36364 39.7385 2.48312 39.6836 2.6033C37.7995 6.6162 35.8208 10.0935 33.8122 12.8577C32.8676 15.7648 32.1743 17.5288 31.3242 18.5665C31.6877 19.1864 32.1105 19.6224 32.6133 19.8071C32.6279 19.8013 32.6396 19.8013 32.6528 19.7982H32.661C32.6698 19.7982 32.6793 19.7924 32.6888 19.7924C32.7093 19.7866 32.7313 19.783 32.7518 19.7766C32.7651 19.7708 32.776 19.7702 32.7893 19.766C32.8083 19.7602 32.8281 19.756 32.8456 19.7514C32.8574 19.7456 32.8691 19.7437 32.8808 19.7413C32.9101 19.7319 32.9365 19.7249 32.9644 19.7161C32.9776 19.7103 32.9915 19.7055 33.0062 19.702C33.0223 19.6962 33.0384 19.692 33.0531 19.685C33.0699 19.6792 33.0868 19.6762 33.1014 19.6698C33.1146 19.664 33.1285 19.6604 33.141 19.6551C33.1739 19.6434 33.2062 19.6335 33.2392 19.6205C33.2481 19.6205 33.2568 19.6124 33.2663 19.6105C33.2861 19.6023 33.3066 19.5959 33.3264 19.5871C33.3337 19.5813 33.3426 19.5807 33.3521 19.5776C33.4209 19.5489 33.492 19.5196 33.5631 19.4875H33.5705C33.6716 19.443 33.7742 19.393 33.8761 19.341C37.1423 17.5162 38.7912 11.3854 43.9181 2.22727H42.4861L42.4878 2.22656Z" fill="url(#paint14_linear_6002_288300)"/>
<path d="M14.1367 2.6296C14.1448 2.6296 14.1521 2.6296 14.1602 2.63541C14.1799 2.63541 14.1997 2.63541 14.2195 2.6418H14.2393C14.2752 2.6476 14.3112 2.65065 14.3478 2.65588C14.3545 2.65588 14.3603 2.65588 14.3661 2.66168C14.3961 2.66749 14.4269 2.67228 14.4577 2.67693C14.4644 2.67693 14.4731 2.68273 14.4804 2.68273C14.5508 2.69681 14.6226 2.71146 14.6915 2.72964C14.698 2.72964 14.7047 2.73544 14.7106 2.73544C14.7399 2.74241 14.7662 2.75127 14.7955 2.75947C14.8044 2.75947 14.8109 2.76528 14.819 2.76658C14.8535 2.77544 14.8857 2.78418 14.9194 2.79531C14.9209 2.79531 14.9229 2.79531 14.9268 2.80112C14.9553 2.80983 14.9847 2.82105 15.0147 2.83101C15.0265 2.83681 15.0374 2.83928 15.0484 2.84219C15.069 2.85104 15.0917 2.85977 15.1115 2.86798C15.1232 2.86798 15.1349 2.87611 15.1473 2.88032C15.1744 2.89266 15.203 2.90377 15.2309 2.91549C15.2456 2.9213 15.258 2.92783 15.2719 2.93307C15.2881 2.94135 15.3049 2.94891 15.3225 2.95478C15.3371 2.96175 15.3533 2.96942 15.3671 2.97587C15.3826 2.98414 15.3972 2.99053 15.4119 2.99873C15.7754 3.17755 16.1103 3.41574 16.4203 3.70448C16.5346 3.5843 16.654 3.47654 16.7779 3.37981C16.1 2.89908 15.332 2.625 14.446 2.625C14.3434 2.625 14.2408 2.63081 14.1368 2.6385" fill="#7DCBEC"/>
<path d="M16.4199 3.69576C16.6097 3.87234 16.7915 4.06951 16.9637 4.28204C17.13 4.16625 17.2949 4.05485 17.4605 3.95079C17.2436 3.73387 17.015 3.53894 16.7768 3.37109C16.653 3.46712 16.5342 3.57558 16.4199 3.69576Z" fill="#5EC5ED"/>
<path d="M14.1364 2.6285C14.2405 2.6197 14.3431 2.61604 14.4457 2.61604C15.3317 2.61604 16.0997 2.89012 16.7776 3.37012C17.4928 2.80584 18.3575 2.60871 19.5586 2.60871H13.7422C13.8763 2.60871 14.0075 2.61677 14.1364 2.6285Z" fill="url(#paint15_linear_6002_288300)"/>
<path d="M19.5584 2.60912C18.3573 2.60912 17.4926 2.80625 16.7773 3.37053C17.0148 3.53835 17.2434 3.73328 17.4603 3.9502C18.4563 3.31703 19.4426 2.89785 20.4151 2.71465C20.7859 2.64503 21.156 2.60912 21.5209 2.60912H19.5584Z" fill="url(#paint16_linear_6002_288300)"/>
<path d="M33.8153 12.8641C34.3319 11.2709 34.9233 9.33699 35.6569 6.99117C36.3179 4.8777 37.4882 3.29773 39.686 2.60817C39.744 2.49015 39.7988 2.3685 39.8553 2.24902C36.2725 2.46377 34.598 4.28628 33.7552 6.98532C32.2815 11.6974 31.3889 14.7518 30.5293 16.6982C31.6271 15.6488 32.7248 14.3605 33.8153 12.8641Z" fill="url(#paint17_linear_6002_288300)"/>
<path d="M39.0708 18.6573H38.6649V19.9192H38.4992V18.6573H38.0918V18.5071H39.0708V18.6573Z" fill="black"/>
<path d="M40.5684 19.919V18.9707C40.5684 18.8959 40.5742 18.8044 40.5819 18.6966C40.5649 18.7611 40.5508 18.8058 40.5379 18.8344L40.0572 19.919H39.9766L39.4944 18.8425C39.4803 18.8126 39.4662 18.764 39.451 18.6966H39.4452C39.451 18.7535 39.4529 18.8454 39.4529 18.9729V19.919H39.2946V18.5068H39.513L39.9461 19.4925C39.9789 19.5665 39.9994 19.6237 40.0098 19.6618H40.0162C40.045 19.5841 40.0684 19.5262 40.0844 19.4881L40.5263 18.5068H40.7344V19.919H40.5684Z" fill="black"/>
<defs>
<linearGradient id="paint0_linear_6002_288300" x1="21.1427" y1="2.49352" x2="21.1427" y2="24.2301" gradientUnits="userSpaceOnUse">
<stop stop-color="#0994DC"/>
<stop offset="0.350006" stop-color="#66CEF5"/>
<stop offset="0.846161" stop-color="#127BCA"/>
<stop offset="1" stop-color="#127BCA"/>
</linearGradient>
<linearGradient id="paint1_linear_6002_288300" x1="21.9725" y1="1.94345" x2="21.9725" y2="24.234" gradientUnits="userSpaceOnUse">
<stop stop-color="#0E76BC"/>
<stop offset="0.360001" stop-color="#36AEE8"/>
<stop offset="0.846161" stop-color="#00ADEF"/>
<stop offset="1" stop-color="#00ADEF"/>
</linearGradient>
<linearGradient id="paint2_linear_6002_288300" x1="26.4512" y1="19.4116" x2="26.4512" y2="1.67531" gradientUnits="userSpaceOnUse">
<stop stop-color="#1C63B7"/>
<stop offset="0.5" stop-color="#33BDF2"/>
<stop offset="1" stop-color="#33BDF2" stop-opacity="0.419608"/>
</linearGradient>
<linearGradient id="paint3_linear_6002_288300" x1="25.2867" y1="-0.315379" x2="25.2867" y2="22.828" gradientUnits="userSpaceOnUse">
<stop stop-color="#166AB8"/>
<stop offset="0.399994" stop-color="#36AEE8"/>
<stop offset="0.846161" stop-color="#0798DD"/>
<stop offset="1" stop-color="#0798DD"/>
</linearGradient>
<linearGradient id="paint4_linear_6002_288300" x1="23.4622" y1="-0.193709" x2="23.4622" y2="24.4162" gradientUnits="userSpaceOnUse">
<stop stop-color="#124379"/>
<stop offset="0.389999" stop-color="#1487CB"/>
<stop offset="0.780228" stop-color="#165197"/>
<stop offset="1" stop-color="#165197"/>
</linearGradient>
<linearGradient id="paint5_linear_6002_288300" x1="13.5781" y1="7.36132" x2="17.0576" y2="7.36132" gradientUnits="userSpaceOnUse">
<stop stop-color="#33BDF2" stop-opacity="0.698039"/>
<stop offset="1" stop-color="#1DACD8"/>
</linearGradient>
<linearGradient id="paint6_linear_6002_288300" x1="39.7094" y1="18.9674" x2="39.7094" y2="1.68979" gradientUnits="userSpaceOnUse">
<stop stop-color="#136AB4"/>
<stop offset="0.6" stop-color="#59CAF5" stop-opacity="0.54902"/>
<stop offset="1" stop-color="#59CAF5" stop-opacity="0.235294"/>
</linearGradient>
<linearGradient id="paint7_linear_6002_288300" x1="1.23037" y1="11.4898" x2="14.1362" y2="11.4898" gradientUnits="userSpaceOnUse">
<stop stop-color="#05A1E6" stop-opacity="0.247059"/>
<stop offset="1" stop-color="#05A1E6"/>
</linearGradient>
<linearGradient id="paint8_linear_6002_288300" x1="8.37899" y1="19.4026" x2="8.37899" y2="1.71172" gradientUnits="userSpaceOnUse">
<stop stop-color="#318ED5"/>
<stop offset="1" stop-color="#38A7E4"/>
</linearGradient>
<linearGradient id="paint9_linear_6002_288300" x1="9.49202" y1="19.465" x2="9.49202" y2="2.26846" gradientUnits="userSpaceOnUse">
<stop stop-color="#05A1E6"/>
<stop offset="1" stop-color="#05A1E6" stop-opacity="0.54902"/>
</linearGradient>
<linearGradient id="paint10_linear_6002_288300" x1="10.4164" y1="20.3424" x2="10.4164" y2="5.81105" gradientUnits="userSpaceOnUse">
<stop stop-color="#1959A6"/>
<stop offset="0.5" stop-color="#05A1E6"/>
<stop offset="0.917587" stop-color="#7EC5EA"/>
<stop offset="1" stop-color="#7EC5EA"/>
</linearGradient>
<linearGradient id="paint11_linear_6002_288300" x1="10.9739" y1="19.4138" x2="6.04813" y2="4.36043" gradientUnits="userSpaceOnUse">
<stop stop-color="#165096"/>
<stop offset="1" stop-color="#0D82CA"/>
</linearGradient>
<linearGradient id="paint12_linear_6002_288300" x1="36.7518" y1="10.5031" x2="36.7518" y2="2.26913" gradientUnits="userSpaceOnUse">
<stop stop-color="#05A1E6"/>
<stop offset="0.873627" stop-color="#0495D6"/>
<stop offset="1" stop-color="#0495D6"/>
</linearGradient>
<linearGradient id="paint13_linear_6002_288300" x1="40.6205" y1="1.50829" x2="32.9464" y2="18.547" gradientUnits="userSpaceOnUse">
<stop stop-color="#38A7E4" stop-opacity="0.329412"/>
<stop offset="0.961533" stop-color="#0E88D3"/>
<stop offset="1" stop-color="#0E88D3"/>
</linearGradient>
<linearGradient id="paint14_linear_6002_288300" x1="37.6232" y1="2.17456" x2="37.6232" y2="20.138" gradientUnits="userSpaceOnUse">
<stop stop-color="#168CD4"/>
<stop offset="0.5" stop-color="#1C87CC"/>
<stop offset="1" stop-color="#154B8D"/>
</linearGradient>
<linearGradient id="paint15_linear_6002_288300" x1="14.712" y1="1.80493" x2="14.7898" y2="3.68889" gradientUnits="userSpaceOnUse">
<stop stop-color="#97D6EE"/>
<stop offset="0.703293" stop-color="#55C1EA"/>
<stop offset="1" stop-color="#55C1EA"/>
</linearGradient>
<linearGradient id="paint16_linear_6002_288300" x1="17.1042" y1="3.8657" x2="17.456" y2="1.87007" gradientUnits="userSpaceOnUse">
<stop stop-color="#7ACCEC"/>
<stop offset="1" stop-color="#3FB7ED"/>
</linearGradient>
<linearGradient id="paint17_linear_6002_288300" x1="35.192" y1="3.1684" x2="35.192" y2="20.7384" gradientUnits="userSpaceOnUse">
<stop stop-color="#1DA7E7"/>
<stop offset="1" stop-color="#37ABE7" stop-opacity="0"/>
</linearGradient>
</defs>
</svg>
