<svg width="49" height="48" viewBox="0 0 49 48" fill="none" xmlns="http://www.w3.org/2000/svg">
<path d="M19.3275 20.4688H2.00391V24.3252H19.3275V20.4688ZM13.3828 22.8357H3.92216C3.68418 22.8357 3.48691 22.6384 3.48691 22.4004C3.48691 22.1624 3.68418 21.9652 3.92216 21.9652H13.3828C13.6208 21.9652 13.818 22.1624 13.818 22.4004C13.818 22.6384 13.6277 22.8357 13.3828 22.8357ZM17.4093 22.8357H15.6C15.3621 22.8357 15.1648 22.6384 15.1648 22.4004C15.1648 22.1624 15.3621 21.9652 15.6 21.9652H17.4093C17.6473 21.9652 17.8445 22.1624 17.8445 22.4004C17.8445 22.6384 17.6473 22.8357 17.4093 22.8357Z" fill="white"/>
<path d="M23.0398 21.7734C22.9308 21.7734 22.8222 21.8141 22.7474 21.8959C22.5842 22.059 22.5842 22.3242 22.7474 22.4877C22.9105 22.6508 23.1757 22.6508 23.3392 22.4877C23.5023 22.3245 23.5023 22.0593 23.3392 21.8959C23.2509 21.821 23.1488 21.7734 23.0398 21.7734Z" fill="white"/>
<path d="M25.7625 20.4688H20.7227V24.3252H25.7625V20.4688ZM24.3136 23.4682C24.2592 23.5227 24.1981 23.5431 24.1301 23.5431C24.0622 23.5431 23.9942 23.5158 23.9466 23.4682L23.491 23.0126C23.3483 23.0875 23.2055 23.1419 23.0489 23.1419C22.8109 23.1419 22.5661 23.0536 22.3822 22.8698C22.0149 22.5025 22.0149 21.9041 22.3822 21.5368C22.7361 21.183 23.3548 21.183 23.7152 21.5368C24.0146 21.8362 24.0553 22.2849 23.8649 22.6456L24.3205 23.1012C24.4157 23.1961 24.4157 23.3661 24.3136 23.4682L24.3136 23.4682Z" fill="white"/>
<path d="M19.3275 26.4414H2.00391V30.2979H19.3275V26.4414ZM5.70415 28.8083H3.92216C3.68418 28.8083 3.48691 28.6111 3.48691 28.3731C3.48691 28.1351 3.68418 27.9378 3.92216 27.9378H5.70415C5.94213 27.9378 6.1394 28.1351 6.1394 28.3731C6.1394 28.6111 5.94213 28.8083 5.70415 28.8083ZM17.4093 28.8083H7.9214C7.68342 28.8083 7.48615 28.6111 7.48615 28.3731C7.48615 28.1348 7.67653 27.9378 7.9214 27.9378H17.4093C17.6473 27.9378 17.8445 28.1351 17.8445 28.3731C17.8445 28.6111 17.6473 28.8083 17.4093 28.8083Z" fill="white"/>
<path d="M20.7227 30.3057H25.7625V26.4492H20.7227V30.3057ZM22.3757 27.5032C22.743 27.1359 23.3414 27.1359 23.7087 27.5032C24.008 27.8025 24.0487 28.2512 23.8583 28.612L24.3139 29.0676C24.416 29.1696 24.416 29.3328 24.3139 29.4349C24.2595 29.4894 24.1984 29.5097 24.1304 29.5097C24.0625 29.5097 23.9945 29.4825 23.9469 29.4349L23.4913 28.9793C23.3554 29.0541 23.2058 29.1086 23.0492 29.1086C22.7975 29.1086 22.5595 29.0134 22.3826 28.8296C22.0084 28.4692 22.0084 27.8705 22.3757 27.5032L22.3757 27.5032Z" fill="white"/>
<path d="M23.3323 28.4603C23.4954 28.2972 23.4954 28.032 23.3323 27.8685C23.2506 27.7868 23.1419 27.7461 23.0398 27.7461C22.9377 27.7461 22.8291 27.7868 22.7474 27.8685C22.5842 28.0317 22.5842 28.2969 22.7474 28.4603C22.9039 28.6235 23.176 28.6235 23.3323 28.4603H23.3323Z" fill="white"/>
<path d="M34.9912 6.98311C34.9912 5.43905 33.7396 4.18781 32.1959 4.18781L15.1039 4.1875C13.5598 4.1875 12.3086 5.43906 12.3086 6.9828V7.79916H34.9918L34.9912 6.98311Z" fill="white"/>
<path d="M41.7832 29.2661C41.8715 29.3544 41.9805 29.3955 42.0891 29.3955C42.1981 29.3955 42.3136 29.3548 42.3951 29.2661C42.5651 29.0961 42.5651 28.8171 42.3951 28.6471L41.4497 27.7017C41.2797 27.5317 41.0007 27.5317 40.8306 27.7017C40.6606 27.8718 40.6606 28.1508 40.8306 28.3208L41.7832 29.2661Z" fill="white"/>
<path d="M35.7669 27.5637L34.5494 28.7812C34.3794 28.9512 34.3794 29.2302 34.5494 29.4003C34.6377 29.4886 34.7467 29.5296 34.8553 29.5296C34.9643 29.5296 35.0798 29.4889 35.1613 29.4003L36.3787 28.1828C36.5488 28.0127 36.5488 27.7337 36.3787 27.5637C36.2156 27.3868 35.9369 27.3937 35.7669 27.5637Z" fill="white"/>
<path d="M38.5433 19.7695C34.4215 19.7695 31.082 23.109 31.082 27.2308C31.082 31.3525 34.4215 34.692 38.5433 34.692C42.665 34.692 46.0045 31.3525 46.0045 27.2308C45.9976 23.1094 42.665 19.7695 38.5433 19.7695ZM42.6243 24.2247L38.5433 27.1359L34.4623 24.2247H42.6243ZM43.3723 30.2371H33.7145V24.7617L38.2919 28.0265C38.3667 28.0809 38.455 28.1082 38.5436 28.1082C38.6319 28.1082 38.7206 28.0809 38.7954 28.0265L43.3728 24.7617L43.3723 30.2371Z" fill="white"/>
<path d="M30.2064 27.2304C30.2064 23.9043 32.1654 21.041 34.9879 19.7011V8.67578H12.3047V19.5993H26.6287V31.1754H12.3047V36.7256H34.9879V34.7532C32.1653 33.4199 30.2064 30.5564 30.2064 27.2306V27.2304ZM31.6894 11.9468H32.6893C32.9748 11.9468 33.2062 12.1782 33.2062 12.4638C33.2062 12.7494 32.9748 12.9808 32.6893 12.9808H31.6894C31.4038 12.9808 31.1724 12.7494 31.1724 12.4638C31.1724 12.1782 31.4035 11.9468 31.6894 11.9468ZM24.3233 11.9468H29.3631C29.6487 11.9468 29.8801 12.1782 29.8801 12.4638C29.8801 12.7494 29.6487 12.9808 29.3631 12.9808H24.3233C24.0378 12.9808 23.8064 12.7494 23.8064 12.4638C23.8132 12.1782 24.0443 11.9468 24.3233 11.9468ZM24.3233 14.4362H26.4047C26.6903 14.4362 26.9217 14.6676 26.9217 14.9532C26.9217 15.2388 26.6903 15.4702 26.4047 15.4702H24.3233C24.0378 15.4702 23.8064 15.2388 23.8064 14.9532C23.8132 14.6673 24.0443 14.4362 24.3233 14.4362ZM21.487 17.9596H14.0937V10.5594H21.487V17.9596ZM27.7105 17.9596H24.3302C24.0447 17.9596 23.8132 17.7282 23.8132 17.4426C23.8132 17.157 24.0447 16.9256 24.3302 16.9256H27.7105C27.996 16.9256 28.2274 17.157 28.2274 17.4426C28.2274 17.7282 27.996 17.9596 27.7105 17.9596ZM28.5538 14.9532C28.5538 14.6676 28.7852 14.4362 29.0707 14.4362H32.6893C32.9749 14.4362 33.2063 14.6676 33.2063 14.9532C33.2063 15.2388 32.9749 15.4702 32.6893 15.4702H29.0707C28.7852 15.4702 28.5538 15.2388 28.5538 14.9532ZM29.744 17.4426C29.744 17.157 29.9754 16.9256 30.261 16.9256H32.689C32.9745 16.9256 33.2059 17.157 33.2059 17.4426C33.2059 17.7282 32.9745 17.9596 32.689 17.9596H30.261C29.9754 17.9596 29.744 17.7282 29.744 17.4426Z" fill="white"/>
<path d="M15.0078 16.8743C15.0078 17.1599 15.2392 17.3913 15.5248 17.3913C15.8104 17.3913 16.0418 17.1599 16.0418 16.8743C16.0418 15.9086 16.824 15.1264 17.7897 15.1264C18.7554 15.1264 19.5376 15.9086 19.5376 16.8743C19.5376 17.1599 19.769 17.3913 20.0546 17.3913C20.3401 17.3913 20.5715 17.1599 20.5715 16.8743C20.5715 15.8676 20.0273 14.9902 19.2248 14.5074C19.5648 14.147 19.7824 13.6641 19.7824 13.1334C19.7824 12.0315 18.8847 11.1406 17.7897 11.1406C16.6878 11.1406 15.797 12.0384 15.797 13.1334C15.797 13.6638 16.0077 14.1467 16.3547 14.5074C15.5518 14.9971 15.0079 15.8676 15.0079 16.8743H15.0078ZM17.7896 12.1677C18.3201 12.1677 18.7553 12.596 18.7553 13.1334C18.7553 13.6707 18.3201 14.0991 17.7896 14.0991C17.2592 14.0991 16.8239 13.6707 16.8239 13.1334C16.8236 12.5963 17.2589 12.1677 17.7896 12.1677Z" fill="white"/>
<path d="M12.3086 41.0159C12.3086 42.56 13.5602 43.8112 15.1039 43.8112H32.2031C33.7471 43.8112 34.9984 42.5597 34.9984 41.0159V37.6016H12.3088L12.3086 41.0159ZM23.6538 39.4584C24.3477 39.4584 24.9054 40.023 24.9054 40.71C24.9054 41.397 24.3408 41.9615 23.6538 41.9615C22.9599 41.9615 22.4022 41.397 22.4022 40.71C22.4026 40.023 22.9602 39.4584 23.6538 39.4584Z" fill="white"/>
</svg>
