<svg width="40" height="41" viewBox="0 0 40 41" fill="none" xmlns="http://www.w3.org/2000/svg">
<path d="M28.8635 4.58496C23.6445 4.58496 19.3984 8.84417 19.3984 14.0803C19.3984 19.3142 23.6447 23.572 28.8635 23.572C34.0856 23.572 38.3336 19.3145 38.3336 14.0803C38.3333 8.84417 34.0854 4.58496 28.8635 4.58496M28.8635 20.7757C25.182 20.7757 22.187 17.7723 22.187 14.0801C22.187 10.3856 25.1819 7.38047 28.8635 7.38047C32.5473 7.38047 35.5448 10.3856 35.5448 14.0801C35.5448 17.7723 32.5473 20.7757 28.8635 20.7757Z" fill="white"/>
<path d="M30.3403 14.0766C30.0277 13.9444 29.6343 13.8228 29.1605 13.7105V11.3543C29.6737 11.3745 30.154 11.4635 30.6026 11.6213C30.6678 11.648 30.7205 11.661 30.7598 11.661C30.8786 11.661 30.974 11.6182 31.0469 11.5324C31.1192 11.4469 31.1549 11.3515 31.1549 11.2454C31.1549 11.0479 31.0629 10.9156 30.8786 10.8498C30.3786 10.6581 29.8055 10.5495 29.1608 10.5228V9.8399C29.1608 9.75436 29.1318 9.68149 29.0724 9.62212C29.013 9.56275 28.9407 9.5332 28.8552 9.5332C28.7696 9.5332 28.6985 9.56275 28.6422 9.62212C28.587 9.68149 28.5592 9.75436 28.5592 9.8399V10.5327C28.0918 10.5723 27.692 10.688 27.3597 10.879C27.0268 11.0707 26.7772 11.3115 26.6093 11.6016C26.4413 11.8923 26.3577 12.2091 26.3577 12.5518C26.3577 12.9409 26.4599 13.2631 26.6644 13.5169C26.8673 13.7707 27.1225 13.9676 27.4292 14.1061C27.7348 14.2448 28.1112 14.3731 28.5592 14.4921V16.7687C27.9737 16.742 27.4143 16.6097 26.8811 16.3731C26.8217 16.3464 26.759 16.3334 26.6931 16.3334C26.5749 16.3334 26.4779 16.3742 26.4025 16.4575C26.327 16.5399 26.2891 16.6367 26.2891 16.7487C26.2891 16.8348 26.3147 16.9153 26.3679 16.9913C26.4199 17.0673 26.486 17.1218 26.5654 17.1545C27.1836 17.419 27.8484 17.5732 28.5592 17.6202V18.323C28.5592 18.415 28.5871 18.4874 28.6422 18.5408C28.6985 18.5937 28.7697 18.6196 28.8552 18.6196C28.9472 18.6196 29.0213 18.5912 29.077 18.5355C29.1332 18.4798 29.1605 18.4086 29.1605 18.323V17.6202C29.6155 17.594 30.0143 17.4961 30.36 17.3278C30.7058 17.1598 30.9723 16.9339 31.1602 16.6502C31.3471 16.3661 31.4413 16.0492 31.4413 15.6995C31.4413 15.2712 31.3358 14.9266 31.1256 14.6655C30.9151 14.4046 30.6529 14.2088 30.3403 14.0765M28.559 13.5616C28.1307 13.4496 27.8069 13.3143 27.5868 13.1559C27.3662 12.9975 27.2565 12.7732 27.2565 12.4825C27.2565 12.1795 27.3738 11.9333 27.6113 11.7451C27.8485 11.5571 28.1636 11.4372 28.5592 11.3838L28.559 13.5616ZM29.1605 16.769V14.6407C29.6214 14.7664 29.9684 14.8998 30.2022 15.0416C30.436 15.184 30.5528 15.3832 30.5528 15.6407C30.5528 16.3264 30.0888 16.7032 29.1606 16.769" fill="white"/>
<path d="M37.7498 25.9968C37.5818 25.6366 37.2858 25.3651 36.9158 25.2303C36.5474 25.0969 36.1482 25.1152 35.7928 25.2818L25.9078 28.3868C25.6658 28.4929 25.4046 28.548 25.1359 28.548H19.2447C19.1221 28.548 19.0222 28.4484 19.0222 28.3254C19.0222 28.2028 19.1218 28.1029 19.2447 28.1029H25.1359C25.226 28.1029 25.3157 28.0953 25.4035 28.0787C25.4058 28.0781 25.4089 28.077 25.412 28.0756L25.7496 27.9701C25.9086 27.8977 26.0557 27.7967 26.1843 27.6698C26.4359 27.4129 26.5884 27.0725 26.6115 26.7154C26.6357 26.3293 26.4958 25.9531 26.2175 25.6566C25.9108 25.3302 25.4801 25.1434 25.0346 25.1434H19.5503C19.5241 25.1434 19.4979 25.1386 19.4737 25.1296L14.7115 23.3836C13.6282 22.9863 12.4945 22.7852 11.3408 22.7852H8.16406V32.2956H10.0338C10.4728 32.2956 10.8988 32.3705 11.3009 32.5173L11.7575 32.6822L21.3105 36.092C21.9014 36.2985 22.5508 36.2402 23.0908 35.9307L37.0211 27.9726C37.3793 27.8029 37.6368 27.5305 37.7806 27.1765C37.9342 26.7584 37.9154 26.3456 37.7493 25.9973" fill="white"/>
<path d="M6.7598 19.7148H2.62607C2.09765 19.7148 1.66797 20.1462 1.66797 20.6763L1.66825 34.248C1.66825 34.7784 2.09763 35.2095 2.62635 35.2095H6.7598C7.28822 35.2095 7.71848 34.7781 7.71848 34.248V32.5282C7.71791 32.5251 7.71679 32.5229 7.71679 32.5192L7.71848 22.5643V20.6768C7.71848 20.1467 7.28825 19.7153 6.7598 19.7153M4.55294 33.4757C4.02085 33.4757 3.59483 33.0444 3.59483 32.5111C3.59483 31.9779 4.02084 31.5502 4.55294 31.5502C5.08446 31.5502 5.51522 31.9779 5.51522 32.5111C5.51494 33.0446 5.08443 33.4757 4.55294 33.4757Z" fill="white"/>
</svg>
