<svg width="21" height="43" viewBox="0 0 21 43" fill="none" xmlns="http://www.w3.org/2000/svg">
<path fill-rule="evenodd" clip-rule="evenodd" d="M7.26898 0.0579596C4.52677 0.478585 2.26161 2.3717 1.37255 4.98605C0.986516 6.12135 0.976509 6.38797 1.0067 14.7654C1.03301 22.0545 1.04785 22.7453 1.18786 23.2158C1.63584 24.7209 2.08864 25.4845 3.18879 26.5904C3.95302 27.3586 4.15479 27.509 4.95723 27.9081C6.59585 28.7233 6.67806 28.7348 10.9096 28.7393C14.1823 28.7427 14.6489 28.726 15.2566 28.5835C17.9298 27.9569 19.9557 26.0617 20.7583 23.4368L20.9562 22.7897L20.9835 14.636C21.0105 6.56156 21.0089 6.47451 20.826 5.67571C20.2237 3.04669 18.1848 0.947097 15.5201 0.211973C14.8729 0.0333692 14.6372 0.0217211 11.2978 0.00265278C9.35246 -0.00847762 7.53951 0.0164579 7.26898 0.0579596ZM14.8598 1.56997C16.6216 1.92804 18.1662 3.12495 18.972 4.75671C19.5602 5.94767 19.543 5.63576 19.5167 14.6155L19.493 22.7034L19.2231 23.403C18.5349 25.1871 17.2458 26.4262 15.4385 27.041L14.7484 27.2758L11.0821 27.276C7.84394 27.2764 7.35145 27.2586 6.86482 27.1241C4.76866 26.5449 3.15075 24.92 2.62565 22.8666C2.46252 22.2284 2.45553 21.8818 2.45553 14.3772C2.45553 6.92749 2.46347 6.52188 2.6222 5.90133C3.19854 3.6473 4.97587 1.98326 7.29235 1.52873C7.50258 1.48748 9.14163 1.44952 10.9347 1.44434C13.5815 1.43666 14.32 1.4603 14.8598 1.56997ZM10.6779 7.04052C10.3341 7.18513 10.3057 7.37745 10.3057 9.56781C10.3057 11.6561 10.3072 11.6738 10.5053 11.86C10.7789 12.117 11.2509 12.1113 11.4984 11.8479C11.6804 11.654 11.6859 11.5861 11.6859 9.52777C11.6859 7.63517 11.6697 7.38789 11.535 7.22559C11.36 7.01489 10.9498 6.92628 10.6779 7.04052ZM10.6292 31.7692C10.4988 31.8401 10.3832 31.9064 10.3724 31.9168C10.3616 31.9271 10.3325 33.8875 10.3077 36.2731L10.2626 40.6105L8.67433 39.2238C7.80072 38.4611 7.01717 37.8003 6.93306 37.7552C6.66512 37.6118 6.41762 37.6662 6.15831 37.9256C5.86854 38.2154 5.83033 38.5692 6.05902 38.8461C6.27563 39.1083 10.3625 42.6917 10.6608 42.8808C10.8173 42.9801 10.9904 43.0213 11.1175 42.9894C11.301 42.9433 15.566 39.2912 15.9345 38.8644C16.389 38.3383 15.7354 37.4475 15.1086 37.7387C15.0054 37.7867 14.2027 38.4551 13.325 39.224L11.7291 40.6221L11.684 36.2789C11.6591 33.8901 11.63 31.9269 11.6193 31.9163C11.5427 31.8404 11.0694 31.6343 10.9786 31.6371C10.9169 31.639 10.7596 31.6984 10.6292 31.7692Z" fill="white"/>
</svg>
