<svg width="86" height="83" viewBox="0 0 86 83" fill="none" xmlns="http://www.w3.org/2000/svg">
<path d="M47.3676 43.4674C46.1844 45.8982 44.1439 47.7562 41.6178 48.7049C39.0916 49.6536 36.3326 49.5967 33.8475 48.5478L-4.97375 32.0567C-4.99648 33.132 -4.83456 34.228 -4.43412 35.2942L10.2928 74.5077C11.9844 79.0119 17.0263 81.3007 21.5304 79.6091L77.0829 58.7459C81.587 57.0544 83.8758 52.0124 82.1843 47.5083L67.4573 8.2948C67.0567 7.22802 66.4573 6.29695 65.7324 5.50245L47.3676 43.4674Z" fill="#EFEFEF"/>
<path d="M35.2117 45.3348C38.5232 46.7352 42.6504 45.1852 44.2284 41.9444L62.868 3.41179C60.8388 2.49818 58.4636 2.35121 56.2205 3.19363L0.668025 24.0568C-1.57493 24.8992 -3.26615 26.5733 -4.19244 28.5969L35.2117 45.3348Z" fill="#EFEFEF"/>
</svg>
