<svg width="25" height="24" viewBox="0 0 25 24" fill="none" xmlns="http://www.w3.org/2000/svg">
<path d="M20.1103 23.0003H4.78766C4.57927 23.0003 4.41016 22.8312 4.41016 22.6228V20.3386C4.41016 20.1302 4.57927 19.9611 4.78766 19.9611C4.99605 19.9611 5.16516 20.1302 5.16516 20.3386L5.16533 22.2453H19.7327V20.3387C19.7327 20.1304 19.9018 19.9612 20.1102 19.9612C20.3186 19.9612 20.4877 20.1304 20.4877 20.3387V22.623C20.4877 22.8312 20.3187 23.0003 20.1103 23.0003Z" fill="#202020"/>
<path d="M20.1104 14.8902C19.902 14.8902 19.7329 14.7211 19.7329 14.5127L19.7327 5.91642H15.879C15.6706 5.91642 15.5015 5.74731 15.5015 5.53892V1.7568H5.16533V14.5122C5.16533 14.7206 4.99622 14.8897 4.78783 14.8897C4.57944 14.8897 4.41032 14.7206 4.41032 14.5122L4.41016 1.37956C4.41016 1.17117 4.57927 1.00206 4.78766 1.00206H15.8787C16.0871 1.00206 16.2562 1.17117 16.2562 1.37956V5.16099H20.11C20.3184 5.16099 20.4875 5.3301 20.4875 5.53849V14.5124C20.4876 14.7215 20.3188 14.8902 20.1104 14.8902Z" fill="#202020"/>
<path d="M20.1116 5.91542C20.0162 5.91542 19.9206 5.87917 19.8471 5.80684L15.6158 1.64722C15.4673 1.50121 15.4648 1.26213 15.6115 1.11292C15.7575 0.964377 15.9966 0.961847 16.1458 1.10853L20.377 5.26815C20.5256 5.41416 20.5281 5.65324 20.3814 5.80245C20.3069 5.87732 20.2096 5.91542 20.1116 5.91542Z" fill="#202020"/>
<path d="M21.2477 20.716H3.65082C3.21652 20.716 2.86328 20.3627 2.86328 19.9284V14.9216C2.86328 14.4873 3.21651 14.134 3.65082 14.134H21.2477C21.682 14.134 22.0353 14.4873 22.0353 14.9216V19.9284C22.0348 20.3627 21.6816 20.716 21.2477 20.716ZM3.65082 14.8899C3.63329 14.8899 3.61896 14.9042 3.61896 14.9218V19.9286C3.61896 19.9461 3.63329 19.9605 3.65082 19.9605H21.2477C21.2653 19.9605 21.2796 19.9461 21.2796 19.9286V14.9218C21.2796 14.9042 21.2653 14.8899 21.2477 14.8899H3.65082Z" fill="#202020"/>
<path fill-rule="evenodd" clip-rule="evenodd" d="M4.9541 1.60742H15.8291V5.41992H20.0791V14.2324H4.9541V1.60742ZM15.1893 11.8517C15.263 11.9216 15.3566 11.9559 15.4501 11.9559C15.55 11.9559 15.6493 11.9165 15.7235 11.8386L17.2072 10.2832C17.3463 10.1377 17.3463 9.90809 17.2072 9.76208L15.7236 8.20689C15.5793 8.05583 15.3404 8.05026 15.1893 8.19442C15.0382 8.33874 15.0327 8.57766 15.1768 8.72872L16.4114 10.0231L15.1768 11.3174C15.0327 11.4685 15.0382 11.7076 15.1893 11.8517ZM9.45004 11.9572C9.35022 11.9572 9.25091 11.9179 9.17673 11.8405L7.69319 10.2854C7.55409 10.1393 7.55409 9.9097 7.69319 9.76421L9.17673 8.20885C9.32088 8.05778 9.55997 8.05222 9.71104 8.19637C9.86211 8.34053 9.86767 8.57961 9.72352 8.73068L8.48885 10.025L9.72339 11.3194C9.86754 11.4705 9.86198 11.7094 9.71091 11.8537C9.63723 11.9222 9.54361 11.9572 9.45004 11.9572ZM11.6712 12.2738C11.7123 12.2874 11.7536 12.2943 11.7948 12.2943C11.9514 12.2943 12.0974 12.1964 12.1517 12.0404L13.4611 8.25529C13.5292 8.05801 13.425 7.84271 13.2278 7.77476C13.0305 7.70664 12.8152 7.81084 12.7472 8.00811L11.4378 11.7932C11.3697 11.9905 11.4739 12.2058 11.6712 12.2738Z" fill="#202020"/>
<path d="M12.7286 19.2442C12.5801 19.2442 12.4454 19.1568 12.3842 19.0214L11.1309 16.2331C11.0455 16.0427 11.1303 15.8193 11.3206 15.7338C11.511 15.6484 11.7344 15.7332 11.8198 15.9235L12.7285 17.9456L13.6371 15.9235C13.7225 15.7332 13.9459 15.6484 14.1363 15.7338C14.3266 15.8193 14.4114 16.0427 14.326 16.2331L13.0727 19.0214C13.0125 19.1568 12.8778 19.2442 12.7286 19.2442Z" fill="#202020"/>
<path d="M10.2948 19.2441C10.0864 19.2441 9.91729 19.075 9.91729 18.8666V17.4417L9.43543 18.2443C9.36748 18.3579 9.2444 18.4277 9.11154 18.4277C8.97868 18.4277 8.8556 18.3577 8.78765 18.2443L8.30579 17.4417V18.8666C8.30579 19.075 8.13668 19.2441 7.92829 19.2441C7.71989 19.2441 7.55078 19.075 7.55078 18.8666V16.0782C7.55078 15.9084 7.66375 15.7594 7.8278 15.7144C7.99134 15.6688 8.16551 15.7386 8.25217 15.8841L9.11154 17.3164L9.9709 15.8841C10.0582 15.7388 10.2317 15.6695 10.3953 15.7144C10.5588 15.7599 10.6723 15.9084 10.6723 16.0782V18.8666C10.673 19.075 10.5039 19.2441 10.2948 19.2441Z" fill="#202020"/>
<path d="M15.2222 19.1491C15.0138 19.1491 14.8447 18.98 14.8447 18.7716V15.9832C14.8447 15.7748 15.0138 15.6057 15.2222 15.6057C15.4306 15.6057 15.5997 15.7748 15.5997 15.9832V18.7716C15.5997 18.98 15.4306 19.1491 15.2222 19.1491Z" fill="#202020"/>
<path d="M16.2507 17.8017H15.2222C15.0138 17.8017 14.8447 17.6326 14.8447 17.4242C14.8447 17.2158 15.0138 17.0467 15.2222 17.0467H16.2507C16.4392 17.0467 16.5926 16.8931 16.5926 16.7047C16.5926 16.5162 16.439 16.3628 16.2507 16.3628H15.2222C15.0138 16.3628 14.8447 16.1937 14.8447 15.9853C14.8447 15.7769 15.0138 15.6078 15.2222 15.6078H16.2507C16.856 15.6078 17.3485 16.1003 17.3485 16.7056C17.3478 17.3092 16.8555 17.8017 16.2507 17.8017Z" fill="#202020"/>
<path d="M4.9541 20.4199H20.0791V22.5449H4.9541V20.4199Z" fill="#202020"/>
</svg>
