<svg width="29" height="30" viewBox="0 0 29 30" fill="none" xmlns="http://www.w3.org/2000/svg">
<path d="M26.9555 9.57031H1.6959C0.992061 9.57031 0.421875 10.1407 0.421875 10.8443V26.4723C0.421875 27.1762 0.992048 27.7463 1.6959 27.7463H5.03212C4.75899 28.1439 4.48636 28.5416 4.2135 28.9391C4.01241 29.2318 4.14897 29.7029 4.45617 29.8653C4.80036 30.0471 5.16775 29.9347 5.38239 29.6224C5.81142 28.9972 6.24018 28.3719 6.66972 27.7464H21.0323C21.4614 28.3716 21.8904 28.9969 22.3197 29.6224C22.5193 29.9137 22.923 30.0732 23.2454 29.8653C23.5354 29.6783 23.7024 29.2514 23.4883 28.9391C23.2152 28.5415 22.9425 28.1439 22.6697 27.7463H26.9556C27.6594 27.7463 28.2296 27.1762 28.2296 26.4723L28.2298 10.8443C28.2298 10.141 27.6593 9.57031 26.9555 9.57031ZM17.361 19.0287L12.8061 21.9288C12.5144 22.1147 12.132 21.9049 12.132 21.559V15.7584C12.132 15.4123 12.5144 15.2027 12.8061 15.3886L17.361 18.2888C17.6317 18.4611 17.6317 18.8563 17.361 19.0287Z" fill="#D32F2F"/>
<path d="M23.5976 8.55219H5.44698C5.27126 8.55219 5.09143 8.543 4.91378 8.54445C4.59739 7.41596 4.84924 6.18086 5.65048 5.3008C6.47107 4.39902 7.7347 3.98278 8.9294 4.2559C9.70693 4.43355 10.377 4.87079 10.8768 5.48933C10.9919 5.63146 11.2357 5.60874 11.3556 5.48933C11.4961 5.34867 11.4707 5.15337 11.3556 5.01052C10.9208 4.47273 10.3565 4.06549 9.73114 3.81001C10.0647 2.44465 11.001 1.30187 12.2947 0.718627C13.7236 0.0742522 15.4322 0.271234 16.7079 1.16336C17.4057 1.65136 17.965 2.35763 18.2823 3.14722C18.3481 3.30989 18.509 3.44645 18.6985 3.38337C19.864 2.99688 21.1359 3.15641 22.1578 3.83922C23.0646 4.44493 23.6694 5.42454 23.8405 6.49697C23.95 7.18243 23.8591 7.9083 23.5976 8.55218L23.5976 8.55219Z" fill="#222222"/>
</svg>
