<svg width="45" height="45" viewBox="0 0 45 45" fill="none" xmlns="http://www.w3.org/2000/svg">
<rect x="0.394531" y="0.0429688" width="44" height="44" rx="8" fill="#111111"/>
<path fill-rule="evenodd" clip-rule="evenodd" d="M9.15625 31.4034V12.3653C9.15625 12.2358 9.21125 12.1618 9.33958 12.1618C9.65125 12.1618 9.94458 12.1618 10.3663 12.1433C10.5928 12.1338 10.8243 12.1291 11.0631 12.1244C11.288 12.1199 11.5195 12.1153 11.7596 12.1063C12.0156 12.0967 12.2814 12.0921 12.5571 12.0873C12.8144 12.0828 13.0802 12.0782 13.3546 12.0693C13.9229 12.0508 14.4729 12.0508 15.0229 12.0508C16.5263 12.0508 17.7729 12.2358 18.7996 12.6243C19.7163 12.9389 20.5596 13.4569 21.2563 14.1415C21.8429 14.7335 22.3013 15.4551 22.5946 16.2506C22.8696 17.0277 23.0163 17.8233 23.0163 18.6558C23.0163 20.247 22.6496 21.5606 21.9163 22.5967C21.1829 23.6327 20.1563 24.4098 18.9646 24.8538C17.7179 25.3164 16.3429 25.4829 14.8396 25.4829C14.3996 25.4829 14.1063 25.4829 13.9229 25.4644C13.7396 25.4459 13.4829 25.4459 13.1346 25.4459L13.1346 31.3849C13.1529 31.5144 13.0613 31.6254 12.9329 31.6439H9.37625C9.22958 31.6439 9.15625 31.5699 9.15625 31.4034ZM13.1529 15.7326V21.9491L13.2079 21.9531C13.4437 21.9702 13.6637 21.9861 13.8679 21.9861H14.8396C15.5546 21.9861 16.2696 21.8751 16.9479 21.6531C17.5346 21.4866 18.0479 21.135 18.4513 20.6725C18.8363 20.21 19.0196 19.5809 19.0196 18.7668C19.0379 18.1933 18.8913 17.6197 18.5979 17.1202C18.2863 16.6392 17.8463 16.2691 17.3146 16.0656C16.6363 15.7881 15.9029 15.6771 15.1513 15.6956C14.6746 15.6956 14.2529 15.6956 13.9046 15.7141C13.5379 15.6956 13.2813 15.7141 13.1529 15.7326Z" fill="white"/>
<path d="M32.6961 20.1914C33.3195 20.321 33.9061 20.5245 34.4561 20.8205C34.5295 20.8575 34.6211 20.8575 34.7861 20.8205C34.8411 20.7835 34.8778 20.7095 34.8778 20.6355V17.6197C34.8778 17.5457 34.8595 17.4717 34.8411 17.3977C34.8045 17.3237 34.7311 17.2497 34.6578 17.2312C34.1628 17.0277 33.6311 16.8797 33.0811 16.8057C32.3295 16.6947 31.5595 16.6391 30.8078 16.6391C29.5061 16.6391 28.4245 16.8427 27.5628 17.2867C26.7745 17.6567 26.0961 18.2488 25.6378 18.9888C25.2345 19.6734 25.0145 20.432 25.0145 21.2275C24.9961 21.8751 25.1428 22.5226 25.4361 23.1147C25.7845 23.7437 26.2611 24.2803 26.8295 24.6873C27.6361 25.2424 28.4978 25.6864 29.4328 26.0194C30.3311 26.371 30.9361 26.6485 31.2295 26.889C31.5228 27.1295 31.6695 27.37 31.6695 27.6291C31.6695 27.9621 31.4678 28.2766 31.1745 28.4061C30.8445 28.5726 30.3495 28.6651 29.6528 28.6651C28.9195 28.6651 28.1861 28.5726 27.4895 28.3876C26.6828 28.2026 25.9311 27.9066 25.2161 27.481C25.1611 27.444 25.1061 27.4255 25.0511 27.4625C24.9961 27.4995 24.9778 27.5736 24.9778 27.6291V30.8483C24.9595 30.9963 25.0511 31.1258 25.1795 31.1999C25.7661 31.4774 26.4078 31.6809 27.0495 31.7919C27.8745 31.9584 28.6995 32.0324 29.5428 32.0324C30.8628 32.0324 31.9628 31.8289 32.8611 31.4404C33.6861 31.1073 34.4011 30.5338 34.9145 29.7937C35.3911 29.0722 35.6478 28.2026 35.6295 27.333C35.6478 26.667 35.5011 26.0194 35.2078 25.4274C34.8595 24.7983 34.3645 24.2803 33.7595 23.8917C32.8795 23.3367 31.9261 22.8742 30.9361 22.5411C30.4961 22.3561 30.0561 22.1526 29.6345 21.9306C29.3961 21.8011 29.1761 21.6346 29.0111 21.431C28.9011 21.283 28.8278 21.1165 28.8278 20.95C28.8278 20.7835 28.8828 20.5985 28.9745 20.4505C29.1028 20.2654 29.3045 20.1359 29.5428 20.0804C29.8911 19.9879 30.2761 19.9324 30.6428 19.9509C31.3395 19.9509 32.0178 20.0434 32.6961 20.1914Z" fill="white"/>
</svg>
