<svg width="157" height="29" viewBox="0 0 157 29" fill="none" xmlns="http://www.w3.org/2000/svg">
<path d="M14.4961 0.552368L17.6393 10.2261H27.8109L19.5819 16.2048L22.7251 25.8786L14.4961 19.8999L6.2671 25.8786L9.4103 16.2048L1.1813 10.2261H11.3529L14.4961 0.552368Z" fill="#F8A926"/>
<path d="M46.4961 0.552368L49.6393 10.2261H59.8109L51.5819 16.2048L54.7251 25.8786L46.4961 19.8999L38.2671 25.8786L41.4103 16.2048L33.1813 10.2261H43.3529L46.4961 0.552368Z" fill="#F8A926"/>
<path d="M78.4961 0.552368L81.6393 10.2261H91.8109L83.5819 16.2048L86.7251 25.8786L78.4961 19.8999L70.2671 25.8786L73.4103 16.2048L65.1813 10.2261H75.3529L78.4961 0.552368Z" fill="#F8A926"/>
<path d="M110.496 0.552368L113.639 10.2261H123.811L115.582 16.2048L118.725 25.8786L110.496 19.8999L102.267 25.8786L105.41 16.2048L97.1813 10.2261H107.353L110.496 0.552368Z" fill="#F8A926"/>
<path d="M142.496 0.552368L145.639 10.2261H155.811L147.582 16.2048L150.725 25.8786L142.496 19.8999L134.267 25.8786L137.41 16.2048L129.181 10.2261H139.353L142.496 0.552368Z" fill="url(#paint0_linear_394_5917)"/>
<defs>
<linearGradient id="paint0_linear_394_5917" x1="142.496" y1="0.552368" x2="143.996" y2="0.552368" gradientUnits="userSpaceOnUse">
<stop stop-color="#F8A926"/>
<stop offset="0.517857" stop-color="#D2D2D2"/>
<stop offset="1" stop-color="#D2D2D2"/>
</linearGradient>
</defs>
</svg>
