<svg width="49" height="48" viewBox="0 0 49 48" fill="none" xmlns="http://www.w3.org/2000/svg">
<path d="M35.6031 18.3658C35.2297 18.2373 34.8427 18.1157 34.4443 18.0006C34.5097 17.7334 34.5698 17.4695 34.6233 17.2102C35.5005 12.9519 34.927 9.52144 32.9684 8.39198C31.0903 7.30897 28.0189 8.43818 24.917 11.1377C24.6187 11.3973 24.3196 11.6721 24.0206 11.9602C23.8213 11.7696 23.6224 11.5854 23.4241 11.4093C20.1731 8.52276 16.9145 7.30634 14.9579 8.43907C13.0816 9.52522 12.526 12.7502 13.3156 16.7858C13.3919 17.1756 13.481 17.5737 13.5818 17.9784C13.1206 18.1093 12.6754 18.2489 12.2494 18.3974C8.43803 19.7262 6.00391 21.8088 6.00391 23.9689C6.00391 26.2 8.61694 28.4378 12.5868 29.7947C12.9001 29.9017 13.2252 30.003 13.5602 30.0991C13.4514 30.5368 13.3568 30.9658 13.2774 31.3842C12.5245 35.3497 13.1125 38.4985 14.9838 39.5778C16.9166 40.6924 20.1604 39.5467 23.3191 36.7857C23.5687 36.5674 23.8193 36.336 24.0703 36.0934C24.3956 36.4066 24.7204 36.7031 25.0435 36.9812C28.1031 39.6141 31.1249 40.6772 32.9944 39.5949C34.9253 38.4771 35.5528 35.0945 34.7381 30.9791C34.6759 30.6648 34.6035 30.3437 34.5222 30.0169C34.75 29.9495 34.9736 29.88 35.1917 29.8077C39.3187 28.4403 42.0039 26.2298 42.0039 23.9689C42.0039 21.8009 39.4913 19.7043 35.6031 18.3658ZM34.708 28.3479C34.5112 28.4131 34.3092 28.4761 34.1034 28.5372C33.6477 27.0948 33.0328 25.5611 32.2804 23.9764C32.9984 22.4296 33.5896 20.9154 34.0324 19.4824C34.4007 19.589 34.7581 19.7014 35.1025 19.82C38.4339 20.9668 40.466 22.6624 40.466 23.9689C40.466 25.3606 38.2714 27.1672 34.708 28.3479ZM33.2294 31.2778C33.5897 33.0976 33.6411 34.7429 33.4025 36.0291C33.1881 37.1848 32.7569 37.9554 32.2238 38.264C31.0892 38.9207 28.6631 38.0671 26.0465 35.8154C25.7465 35.5573 25.4444 35.2817 25.1413 34.99C26.1557 33.8806 27.1695 32.5909 28.159 31.1585C29.8993 31.0041 31.5435 30.7516 33.0346 30.4069C33.108 30.7032 33.1732 30.9937 33.2294 31.2778ZM18.2771 38.1505C17.1687 38.542 16.2858 38.5532 15.7522 38.2455C14.6166 37.5905 14.1446 35.0623 14.7885 31.671C14.8623 31.2826 14.95 30.8836 15.0512 30.4758C16.526 30.8019 18.1581 31.0366 19.9026 31.178C20.8987 32.5796 21.9418 33.8679 22.993 34.996C22.7633 35.2177 22.5346 35.4288 22.3071 35.6277C20.9103 36.8486 19.5107 37.7148 18.2771 38.1505ZM13.0842 28.3394C11.3288 27.7394 9.87912 26.9597 8.88543 26.1087C7.99255 25.3441 7.54175 24.5849 7.54175 23.9689C7.54175 22.6581 9.49611 20.986 12.7556 19.8496C13.1511 19.7117 13.5652 19.5817 13.9948 19.4597C14.4453 20.925 15.0362 22.4571 15.7494 24.0064C15.027 25.5786 14.4277 27.1351 13.9728 28.6176C13.6665 28.5296 13.3697 28.4369 13.0842 28.3394ZM14.8249 16.4905C14.1483 13.0329 14.5977 10.4246 15.7284 9.77007C16.9327 9.07282 19.5959 10.067 22.4029 12.5593C22.5823 12.7186 22.7624 12.8854 22.9431 13.0579C21.8971 14.181 20.8636 15.4596 19.8763 16.853C18.1832 17.0099 16.5625 17.262 15.0724 17.5996C14.9787 17.2227 14.8957 16.8525 14.8249 16.4905ZM30.3537 20.3249C29.9975 19.7096 29.6318 19.1089 29.2589 18.5245C30.4076 18.6698 31.5081 18.8625 32.5415 19.0984C32.2313 20.0928 31.8445 21.1325 31.3893 22.1983C31.0628 21.5783 30.7174 20.9532 30.3537 20.3249ZM24.0211 14.157C24.7304 14.9255 25.4408 15.7835 26.1395 16.7144C25.4354 16.6812 24.7226 16.6639 24.0039 16.6639C23.292 16.6639 22.5844 16.6808 21.8847 16.7135C22.5841 15.7912 23.3006 14.9343 24.0211 14.157ZM17.6479 20.3356C17.2921 20.9526 16.9531 21.5743 16.6317 22.1971C16.1838 21.135 15.8007 20.0906 15.4877 19.0821C16.5149 18.8523 17.6102 18.6643 18.7515 18.5219C18.3734 19.1116 18.0047 19.7167 17.6479 20.3354V20.3356ZM18.7844 29.5257C17.6052 29.3942 16.4934 29.2159 15.4665 28.9924C15.7845 27.9659 16.1761 26.8992 16.6334 25.8142C16.9557 26.4366 17.296 27.0585 17.654 27.6769H17.6541C18.0188 28.3069 18.3966 28.9239 18.7844 29.5257ZM24.0636 33.8893C23.3347 33.1029 22.6077 32.233 21.8976 31.2972C22.5869 31.3242 23.2897 31.3381 24.0039 31.3381C24.7377 31.3381 25.4631 31.3215 26.177 31.2898C25.476 32.2424 24.7682 33.1137 24.0636 33.8893ZM31.404 25.7589C31.8852 26.8556 32.2908 27.9167 32.6129 28.9257C31.5691 29.1639 30.4421 29.3557 29.2547 29.4982C29.6284 28.9059 29.9973 28.2949 30.3598 27.6663C30.7266 27.0304 31.0748 26.3935 31.404 25.7589ZM29.0277 26.898C28.4649 27.8737 27.8872 28.8052 27.3007 29.6844C26.2324 29.7608 25.1288 29.8002 24.0039 29.8002C22.8836 29.8002 21.7939 29.7654 20.7445 29.6973C20.1343 28.8065 19.544 27.8723 18.9849 26.9064H18.985C18.4273 25.9432 17.914 24.9718 17.449 24.0058C17.9139 23.0377 18.4258 22.0652 18.9803 21.1037L18.9802 21.1039C19.5362 20.1398 20.1213 19.2101 20.7258 18.3249C21.7964 18.244 22.8943 18.2018 24.0038 18.2018H24.0039C25.1184 18.2018 26.2177 18.2443 27.288 18.326C27.8833 19.2047 28.4645 20.1313 29.0226 21.0955C29.5871 22.0706 30.1056 23.0366 30.5746 23.984C30.107 24.9477 29.5897 25.9234 29.0277 26.898ZM32.2002 9.72432C33.4057 10.4195 33.8745 13.2233 33.1171 16.8998C33.0688 17.1344 33.0144 17.3734 32.9553 17.6155C31.4617 17.2709 29.8399 17.0145 28.1418 16.8551C27.1526 15.4465 26.1276 14.1659 25.0986 13.0572C25.3753 12.791 25.6515 12.5373 25.9266 12.2978C28.5844 9.98486 31.0684 9.07167 32.2002 9.72432ZM24.0039 20.7543C25.7793 20.7543 27.2186 22.1935 27.2186 23.9689C27.2186 25.7443 25.7793 27.1836 24.0039 27.1836C22.2285 27.1836 20.7892 25.7443 20.7892 23.9689C20.7892 22.1935 22.2285 20.7543 24.0039 20.7543Z" fill="white"/>
</svg>
