<svg width="120" height="120" viewBox="0 0 120 120" fill="none" xmlns="http://www.w3.org/2000/svg">
<rect width="120" height="120" rx="16" fill="white"/>
<path d="M79.332 50.611C78.7096 50.3968 78.0647 50.1941 77.4006 50.0024C77.5097 49.5569 77.6099 49.1172 77.699 48.685C79.1611 41.5879 78.2051 35.8704 74.9408 33.9879C71.8107 32.1829 66.6917 34.0649 61.5218 38.5642C61.0246 38.9968 60.5261 39.4549 60.0278 39.9349C59.6957 39.6173 59.3642 39.3104 59.0336 39.0168C53.6153 34.2059 48.1844 32.1785 44.9233 34.0664C41.7962 35.8767 40.8701 41.2517 42.1862 47.9777C42.3133 48.6273 42.4619 49.2908 42.6299 49.9653C41.8612 50.1835 41.1192 50.4161 40.4092 50.6636C34.0569 52.8782 30 56.3492 30 59.9495C30 63.668 34.3551 67.3976 40.9715 69.6591C41.4936 69.8375 42.0354 70.0063 42.5938 70.1665C42.4125 70.896 42.2549 71.6109 42.1226 72.3082C40.8677 78.9175 41.8477 84.1655 44.9664 85.9643C48.1878 87.822 53.5942 85.9125 58.8586 81.3108C59.2747 80.947 59.6923 80.5612 60.1106 80.1569C60.6529 80.679 61.1942 81.1732 61.7327 81.6367C66.8319 86.0248 71.8683 87.7967 74.9841 85.9928C78.2023 84.1298 79.2482 78.4922 77.8904 71.6331C77.7867 71.1093 77.666 70.5741 77.5304 70.0294C77.9101 69.9172 78.2828 69.8013 78.6463 69.6809C85.5247 67.4019 90 63.7176 90 59.9495C90 56.3362 85.8123 52.8418 79.332 50.611ZM77.8402 67.2479C77.5121 67.3565 77.1754 67.4615 76.8324 67.5632C76.0731 65.1593 75.0482 62.6031 73.7941 59.962C74.9909 57.3839 75.9761 54.8603 76.7142 52.472C77.328 52.6496 77.9237 52.8369 78.4977 53.0346C84.05 54.946 87.4368 57.772 87.4368 59.9495C87.4368 62.269 83.7792 65.28 77.8402 67.2479ZM75.3759 72.1309C75.9763 75.1639 76.0621 77.9061 75.6643 80.0498C75.307 81.976 74.5883 83.2603 73.6998 83.7746C71.8089 84.8691 67.7653 83.4464 63.4043 79.6937C62.9044 79.2635 62.4008 78.8042 61.8957 78.318C63.5863 76.469 65.276 74.3195 66.9251 71.9322C69.8256 71.6748 72.566 71.254 75.0511 70.6795C75.1735 71.1733 75.2822 71.6575 75.3759 72.1309ZM50.4554 83.5855C48.6079 84.2379 47.1366 84.2566 46.2471 83.7437C44.3546 82.6522 43.5678 78.4385 44.641 72.7863C44.7639 72.1389 44.9102 71.474 45.0789 70.7943C47.5367 71.3378 50.257 71.7289 53.1645 71.9647C54.8247 74.3007 56.5632 76.4479 58.3151 78.328C57.9324 78.6975 57.5511 79.0493 57.172 79.3808C54.8441 81.4156 52.5112 82.8593 50.4554 83.5855ZM41.8005 67.2337C38.8748 66.2337 36.4587 64.9341 34.8025 63.5159C33.3144 62.2414 32.5631 60.9762 32.5631 59.9495C32.5631 57.7647 35.8203 54.978 41.2529 53.0839C41.9121 52.8541 42.6021 52.6375 43.3182 52.4341C44.069 54.8764 45.0539 57.4298 46.2424 60.0119C45.0385 62.6323 44.0396 65.2265 43.2814 67.6974C42.7709 67.5506 42.2764 67.3962 41.8005 67.2337ZM44.7017 47.4854C43.5741 41.7228 44.3229 37.3756 46.2074 36.2848C48.2147 35.1227 52.6534 36.7796 57.3316 40.9335C57.6307 41.199 57.9309 41.4769 58.2319 41.7644C56.4887 43.6363 54.7661 45.7673 53.1206 48.0896C50.2988 48.3511 47.5976 48.7713 45.1141 49.3339C44.958 48.7058 44.8197 48.0887 44.7017 47.4854ZM70.5829 53.8762C69.9892 52.8507 69.3797 51.8495 68.7584 50.8755C70.6728 51.1176 72.5069 51.4388 74.2294 51.8319C73.7123 53.4892 73.0677 55.2221 72.309 56.9985C71.7648 55.9652 71.1891 54.9233 70.5829 53.8762ZM60.0286 43.5962C61.2109 44.8771 62.3949 46.3071 63.5594 47.8587C62.3859 47.8033 61.1979 47.7744 60 47.7744C58.8135 47.7744 57.6342 47.8026 56.4679 47.8571C57.6336 46.3199 58.8279 44.8918 60.0286 43.5962ZM49.4067 53.8939C48.8136 54.9223 48.2487 55.9584 47.713 56.9965C46.9665 55.2263 46.328 53.4856 45.8064 51.8048C47.5183 51.4217 49.3438 51.1085 51.246 50.8711C50.6159 51.8539 50.0014 52.8625 49.4067 53.8937V53.8939ZM51.3008 69.2108C49.3355 68.9916 47.4825 68.6945 45.771 68.3219C46.301 66.6111 46.9536 64.8332 47.7158 63.0249C48.2529 64.0623 48.8202 65.0989 49.4168 66.1295H49.4169C50.0247 67.1794 50.6544 68.2079 51.3008 69.2108ZM60.0995 76.4835C58.8847 75.1728 57.673 73.7229 56.4895 72.1633C57.6383 72.2084 58.8096 72.2314 60 72.2314C61.223 72.2314 62.4319 72.2039 63.6219 72.1509C62.4535 73.7386 61.2738 75.1907 60.0995 76.4835ZM72.3335 62.9328C73.1354 64.7606 73.8115 66.5292 74.3483 68.2109C72.6086 68.6077 70.7303 68.9274 68.7513 69.1649C69.3742 68.1779 69.989 67.1594 70.5932 66.1118C71.2044 65.052 71.7848 63.9905 72.3335 62.9328ZM68.3729 64.8313C67.435 66.4575 66.4721 68.01 65.4946 69.4754C63.7142 69.6027 61.8748 69.6683 60 69.6683C58.1328 69.6683 56.3166 69.6103 54.5677 69.4967C53.5507 68.0121 52.5669 66.4551 51.635 64.8453H51.6352C50.7057 63.2399 49.8502 61.6209 49.0751 60.011C49.85 58.3974 50.7032 56.7766 51.6274 55.1741L51.6272 55.1744C52.5537 53.5676 53.5289 52.0182 54.5365 50.5429C56.3209 50.408 58.1507 50.3376 59.9999 50.3376H60C61.8576 50.3376 63.6897 50.4085 65.4736 50.5446C66.4657 52.0091 67.4343 53.5535 68.3645 55.1605C69.3053 56.7856 70.1695 58.3956 70.9511 59.9746C70.1719 61.5808 69.3096 63.207 68.3729 64.8313ZM73.6605 36.2085C75.6697 37.3672 76.451 42.0401 75.1887 48.1677C75.1081 48.5586 75.0175 48.9569 74.919 49.3605C72.4297 48.7861 69.7266 48.3587 66.8966 48.0932C65.2479 45.7455 63.5394 43.6111 61.8246 41.7632C62.2856 41.3197 62.746 40.8968 63.2045 40.4977C67.6341 36.6427 71.7742 35.1207 73.6605 36.2085ZM60 54.5917C62.959 54.5917 65.3578 56.9904 65.3578 59.9495C65.3578 62.9085 62.959 65.3073 60 65.3073C57.041 65.3073 54.6422 62.9085 54.6422 59.9495C54.6422 56.9904 57.041 54.5917 60 54.5917Z" fill="#00D8FF"/>
</svg>
