<svg width="184" height="184" viewBox="0 0 184 184" fill="none" xmlns="http://www.w3.org/2000/svg">
<g filter="url(#filter0_d_1588_12289)">
<rect x="24" y="16" width="120" height="120" rx="16" fill="white" shape-rendering="crispEdges"/>
<path d="M103.332 66.611C102.71 66.3968 102.065 66.1941 101.401 66.0024C101.51 65.5569 101.61 65.1172 101.699 64.685C103.161 57.5879 102.205 51.8704 98.9408 49.9879C95.8107 48.1829 90.6917 50.0649 85.5218 54.5642C85.0246 54.9968 84.5261 55.4549 84.0278 55.9349C83.6957 55.6173 83.3642 55.3104 83.0336 55.0168C77.6153 50.2059 72.1844 48.1785 68.9233 50.0664C65.7962 51.8767 64.8701 57.2517 66.1862 63.9777C66.3133 64.6273 66.4619 65.2908 66.6299 65.9653C65.8612 66.1835 65.1192 66.4161 64.4092 66.6636C58.0569 68.8782 54 72.3492 54 75.9495C54 79.668 58.3551 83.3976 64.9715 85.6591C65.4936 85.8375 66.0354 86.0063 66.5938 86.1665C66.4125 86.896 66.2549 87.6109 66.1226 88.3082C64.8677 94.9175 65.8477 100.165 68.9664 101.964C72.1878 103.822 77.5942 101.913 82.8586 97.3108C83.2747 96.947 83.6923 96.5612 84.1106 96.1569C84.6529 96.679 85.1942 97.1732 85.7327 97.6367C90.8319 102.025 95.8683 103.797 98.9841 101.993C102.202 100.13 103.248 94.4922 101.89 87.6331C101.787 87.1093 101.666 86.5741 101.53 86.0294C101.91 85.9172 102.283 85.8013 102.646 85.6809C109.525 83.4019 114 79.7176 114 75.9495C114 72.3362 109.812 68.8418 103.332 66.611ZM101.84 83.2479C101.512 83.3565 101.175 83.4615 100.832 83.5632C100.073 81.1593 99.0482 78.6031 97.7941 75.962C98.9909 73.3839 99.9761 70.8603 100.714 68.472C101.328 68.6496 101.924 68.8369 102.498 69.0346C108.05 70.946 111.437 73.772 111.437 75.9495C111.437 78.269 107.779 81.28 101.84 83.2479ZM99.3759 88.1309C99.9763 91.1639 100.062 93.9061 99.6643 96.0498C99.307 97.976 98.5883 99.2603 97.6998 99.7746C95.8089 100.869 91.7653 99.4464 87.4043 95.6937C86.9044 95.2635 86.4008 94.8042 85.8957 94.318C87.5863 92.469 89.276 90.3195 90.9251 87.9322C93.8256 87.6748 96.566 87.254 99.0511 86.6795C99.1735 87.1733 99.2822 87.6575 99.3759 88.1309ZM74.4554 99.5855C72.6079 100.238 71.1366 100.257 70.2471 99.7437C68.3546 98.6522 67.5678 94.4385 68.641 88.7863C68.7639 88.1389 68.9102 87.474 69.0789 86.7943C71.5367 87.3378 74.257 87.7289 77.1645 87.9647C78.8247 90.3007 80.5632 92.4479 82.3151 94.328C81.9324 94.6975 81.5511 95.0493 81.172 95.3808C78.8441 97.4156 76.5112 98.8593 74.4554 99.5855ZM65.8005 83.2337C62.8748 82.2337 60.4587 80.9341 58.8025 79.5159C57.3144 78.2414 56.5631 76.9762 56.5631 75.9495C56.5631 73.7647 59.8203 70.978 65.2529 69.0839C65.9121 68.8541 66.6021 68.6375 67.3182 68.4341C68.069 70.8764 69.0539 73.4298 70.2424 76.0119C69.0385 78.6323 68.0396 81.2265 67.2814 83.6974C66.7709 83.5506 66.2764 83.3962 65.8005 83.2337ZM68.7017 63.4854C67.5741 57.7228 68.3229 53.3756 70.2074 52.2848C72.2147 51.1227 76.6534 52.7796 81.3316 56.9335C81.6307 57.199 81.9309 57.4769 82.2319 57.7644C80.4887 59.6363 78.7661 61.7673 77.1206 64.0896C74.2988 64.3511 71.5976 64.7713 69.1141 65.3339C68.958 64.7058 68.8197 64.0887 68.7017 63.4854ZM94.5829 69.8762C93.9893 68.8507 93.3797 67.8495 92.7584 66.8755C94.6728 67.1176 96.5069 67.4388 98.2294 67.8319C97.7123 69.4892 97.0677 71.2221 96.309 72.9985C95.7648 71.9652 95.1891 70.9233 94.5829 69.8762ZM84.0286 59.5962C85.2109 60.8771 86.3949 62.3071 87.5594 63.8587C86.3859 63.8033 85.1979 63.7744 84 63.7744C82.8135 63.7744 81.6342 63.8026 80.4679 63.8571C81.6336 62.3199 82.8279 60.8918 84.0286 59.5962ZM73.4067 69.8939C72.8136 70.9223 72.2487 71.9584 71.713 72.9965C70.9665 71.2263 70.328 69.4856 69.8064 67.8048C71.5183 67.4217 73.3438 67.1085 75.246 66.8711C74.6159 67.8539 74.0014 68.8625 73.4067 69.8937V69.8939ZM75.3008 85.2108C73.3355 84.9916 71.4825 84.6945 69.771 84.3219C70.301 82.6111 70.9536 80.8332 71.7158 79.0249C72.2529 80.0623 72.8202 81.0989 73.4168 82.1295H73.4169C74.0247 83.1794 74.6544 84.2079 75.3008 85.2108ZM84.0995 92.4835C82.8847 91.1728 81.673 89.7229 80.4895 88.1633C81.6383 88.2084 82.8096 88.2314 84 88.2314C85.223 88.2314 86.4319 88.2039 87.6219 88.1509C86.4535 89.7386 85.2738 91.1907 84.0995 92.4835ZM96.3335 78.9328C97.1354 80.7606 97.8115 82.5292 98.3483 84.2109C96.6086 84.6077 94.7303 84.9274 92.7513 85.1649C93.3742 84.1779 93.989 83.1594 94.5932 82.1118C95.2044 81.052 95.7848 79.9905 96.3335 78.9328ZM92.3729 80.8313C91.435 82.4576 90.4721 84.01 89.4946 85.4754C87.7142 85.6027 85.8748 85.6683 84 85.6683C82.1328 85.6683 80.3166 85.6103 78.5677 85.4967C77.5507 84.0121 76.5669 82.4551 75.635 80.8453H75.6352C74.7057 79.2399 73.8502 77.6209 73.0751 76.011C73.85 74.3974 74.7032 72.7766 75.6274 71.1741L75.6272 71.1744C76.5537 69.5676 77.5289 68.0182 78.5365 66.5429C80.3209 66.408 82.1507 66.3376 83.9999 66.3376H84C85.8576 66.3376 87.6897 66.4085 89.4736 66.5446C90.4657 68.0091 91.4343 69.5535 92.3645 71.1605C93.3053 72.7856 94.1695 74.3956 94.9511 75.9746C94.1719 77.5808 93.3096 79.207 92.3729 80.8313ZM97.6605 52.2085C99.6697 53.3672 100.451 58.0401 99.1887 64.1677C99.1081 64.5586 99.0175 64.9569 98.919 65.3605C96.4297 64.7861 93.7266 64.3587 90.8966 64.0932C89.2479 61.7455 87.5394 59.6111 85.8246 57.7632C86.2856 57.3197 86.746 56.8968 87.2045 56.4977C91.6341 52.6427 95.7742 51.1207 97.6605 52.2085ZM84 70.5917C86.959 70.5917 89.3578 72.9904 89.3578 75.9495C89.3578 78.9085 86.959 81.3073 84 81.3073C81.041 81.3073 78.6422 78.9085 78.6422 75.9495C78.6422 72.9904 81.041 70.5917 84 70.5917Z" fill="#00D8FF"/>
</g>
<defs>
<filter id="filter0_d_1588_12289" x="0" y="0" width="184" height="184" filterUnits="userSpaceOnUse" color-interpolation-filters="sRGB">
<feFlood flood-opacity="0" result="BackgroundImageFix"/>
<feColorMatrix in="SourceAlpha" type="matrix" values="0 0 0 0 0 0 0 0 0 0 0 0 0 0 0 0 0 0 127 0" result="hardAlpha"/>
<feOffset dx="8" dy="16"/>
<feGaussianBlur stdDeviation="16"/>
<feComposite in2="hardAlpha" operator="out"/>
<feColorMatrix type="matrix" values="0 0 0 0 0.412847 0 0 0 0 0.466417 0 0 0 0 0.604167 0 0 0 0.24 0"/>
<feBlend mode="normal" in2="BackgroundImageFix" result="effect1_dropShadow_1588_12289"/>
<feBlend mode="normal" in="SourceGraphic" in2="effect1_dropShadow_1588_12289" result="shape"/>
</filter>
</defs>
</svg>
