<svg width="49" height="48" viewBox="0 0 49 48" fill="none" xmlns="http://www.w3.org/2000/svg">
<path fill-rule="evenodd" clip-rule="evenodd" d="M18.2822 3.35163H38.7249C38.8963 3.35163 39.0366 3.48797 39.0366 3.65931V36.4815H41.2957V2H19.6379L18.2822 3.35163ZM17.3861 34.9233L18.9675 32.1848L18.9599 32.1811L18.9522 32.1771L18.9365 32.1731L18.9289 32.1691H18.9212V32.1651H18.9136L18.9055 32.1611L18.8979 32.1571L18.8826 32.1534L18.8749 32.1494L18.8669 32.1454L18.8439 32.1334L18.8363 32.1297H18.8206L18.8053 32.1217L18.7973 32.1177L18.782 32.1137L18.7667 32.1057L18.7586 32.102L18.7357 32.09H18.72L18.697 32.078V32.0743H18.6894L18.6813 32.0703L18.666 32.0663L18.6507 32.0583L18.6427 32.0543L18.635 32.0503L18.6274 32.0466L18.6197 32.0426L18.6041 32.0386L18.5888 32.0306H18.5811V32.0266L18.5731 32.0226L18.5578 32.0189L18.5425 32.0109L18.5344 32.0069L18.5191 31.9989L18.5038 31.9949L18.4958 31.9912L18.4652 31.9752L18.4495 31.9712L18.4418 31.9675L18.4265 31.9595L18.4185 31.9555L18.4032 31.9515V31.9475L18.3875 31.9434L18.3718 31.9358L18.3642 31.9318L18.3485 31.9238L18.3328 31.9161L18.3175 31.9121L18.3019 31.9041L18.2865 31.9001L18.2789 31.8924L18.2632 31.8848L18.2479 31.8767L18.2322 31.8727L18.2169 31.8651L18.2012 31.8571L18.1936 31.853L18.1783 31.8454L18.1626 31.8377L18.1473 31.8297L18.132 31.8257L18.124 31.8177L18.0933 31.8024L18.0777 31.7943L18.062 31.7903L18.0543 31.7827L18.0387 31.7747H18.031L18.0233 31.7666L18.0077 31.7626L17.992 31.755L17.9843 31.747L17.953 31.7316L17.9373 31.7236L17.9297 31.7196H17.922L17.9143 31.7116L17.8987 31.7039L17.883 31.6959L17.8677 31.6883L17.852 31.6802L17.8443 31.6766L17.8287 31.6689L17.813 31.6609L17.7977 31.6529L17.782 31.6452L17.7744 31.6372L17.759 31.6296L17.7434 31.6216L17.7281 31.6139L17.7204 31.6059L17.7124 31.6022L17.7047 31.5982L17.6894 31.5906L17.6737 31.5829L17.6584 31.5753L17.6508 31.5672L17.6351 31.5632L17.6198 31.5552L17.6041 31.5476V31.5435L17.5888 31.5355L17.5811 31.5275L17.5655 31.5239L17.5348 31.5078L17.5192 31.4961L17.5115 31.4881L17.4962 31.4841L17.4568 31.4568L17.4415 31.4488L17.4262 31.4411L17.4105 31.4331L17.4029 31.4251L17.3876 31.4174L17.3719 31.4097L17.3562 31.4017L17.3486 31.3901L17.3329 31.3824L17.3176 31.3748L17.3019 31.3671L17.2862 31.3591V31.3551L17.2786 31.3511L17.2472 31.3357L17.2315 31.3241L17.2239 31.3161L17.2086 31.3084L17.1929 31.3004L17.1852 31.2927H17.1776L17.1699 31.2851L17.1543 31.2734L17.1309 31.2577L17.1152 31.2497L17.0999 31.2421L17.0843 31.2304L17.0762 31.2224L17.0609 31.2144L17.0372 31.199L17.0219 31.1874L16.9986 31.1721L16.9833 31.164L16.9756 31.1564L16.9676 31.1527L16.8819 31.0944L16.8743 31.0904L16.7729 31.0241V31.0204L16.6483 30.9307L16.6093 30.9034L16.6016 30.8994L16.5936 30.8917L16.5859 30.8877L16.5783 30.8801L16.5706 30.8764L16.5549 30.8607L16.5473 30.8567L16.5396 30.8491L16.5243 30.8411L16.5163 30.833L16.5086 30.825L16.501 30.8214L16.4933 30.8133L16.4853 30.8093L16.4777 30.8053V30.8013L16.47 30.7973L16.4623 30.7893L16.4547 30.7856L16.4467 30.7776L16.439 30.7736L16.4237 30.7619L16.408 30.7463L16.4004 30.7423L16.3927 30.7346L16.3851 30.7306L16.3774 30.7229L16.3694 30.7189L16.3617 30.7113L16.3461 30.6996L16.3384 30.6956L16.3227 30.6799L16.3151 30.6759L16.3074 30.6679L16.2994 30.6602L16.2841 30.6522L16.2688 30.6362L16.2608 30.6325L16.2531 30.6245L16.2454 30.6205L16.2378 30.6125L16.2301 30.6048L16.2221 30.6008L16.2068 30.5848L16.1991 30.5808L16.1915 30.5771L16.1835 30.5691L16.1758 30.5611L16.1682 30.5534V30.5498L16.1605 30.5458L14.5791 33.2843L15.2488 33.6736L17.3861 34.9233ZM16.8564 38.6318C16.8641 38.6125 16.8721 38.6008 16.8798 38.5852L16.8878 38.5775L17.8225 36.9608C17.9472 36.7387 17.9705 36.4854 17.9086 36.2557C17.8539 36.0261 17.6979 35.8153 17.4799 35.691L17.3475 35.617V35.613L13.9893 33.6729L13.9817 33.6692L13.974 33.6652L13.8417 33.5876C13.6233 33.4666 13.3743 33.4432 13.1483 33.5056C12.9143 33.5639 12.7119 33.7159 12.5792 33.9339L12.0029 34.9429L11.9952 34.9546L7.63232 42.5114C7.49999 42.7334 7.47629 42.9867 7.539 43.2164C7.60097 43.4464 7.74898 43.6568 7.96734 43.7814L7.98301 43.7891L11.6135 45.8845C11.8315 46.0055 12.0809 46.0289 12.3065 45.9665C12.5249 45.9082 12.7272 45.7679 12.8599 45.5535L16.8564 38.6318ZM11.9401 42.3673C11.8781 42.1453 11.7378 41.9426 11.5194 41.8179C11.3091 41.6933 11.0597 41.6699 10.8341 41.7283C10.6157 41.7906 10.4134 41.9346 10.2887 42.149C10.164 42.3633 10.1407 42.6123 10.1954 42.8343C10.2577 43.0603 10.4057 43.259 10.6161 43.3837C10.8344 43.5084 11.0834 43.5317 11.3014 43.473C11.5274 43.4147 11.7301 43.2667 11.8544 43.0523C11.9791 42.8387 12.0028 42.5893 11.9401 42.3673ZM11.8311 41.2883C12.1898 41.4986 12.4392 41.8337 12.5402 42.2077C12.6338 42.5854 12.5948 42.9984 12.3845 43.3607C12.1741 43.7231 11.8395 43.9684 11.4655 44.0698C11.0914 44.1711 10.6788 44.1281 10.3124 43.9178C9.94606 43.7074 9.70474 43.3724 9.60339 42.9944C9.50205 42.6203 9.54907 42.2073 9.75905 41.8413C9.96174 41.479 10.3044 41.2336 10.6784 41.1363C11.0525 41.0353 11.4651 41.078 11.8311 41.2883ZM16.8794 23.3H22.1698V18.014C22.1698 17.8427 22.3098 17.7063 22.4815 17.7063C24.1095 17.7063 25.5824 18.3644 26.6493 19.4317C27.7244 20.5031 28.3787 21.9796 28.3787 23.6076C28.3787 25.2397 27.7244 26.7162 26.6493 27.7835C25.5823 28.851 24.1095 29.5133 22.4815 29.5133C20.8454 29.5133 19.3729 28.8509 18.3056 27.7835C17.2385 26.7161 16.5762 25.2441 16.5762 23.6197V23.608C16.5758 23.4403 16.7085 23.2999 16.8795 23.2999L16.8794 23.3ZM22.4814 23.9194H17.1994C17.2771 25.2554 17.8538 26.4592 18.7418 27.3472C19.6922 28.3056 21.0166 28.8976 22.4813 28.8976C23.938 28.8976 25.2625 28.3052 26.2132 27.3472C27.1712 26.3928 27.7636 25.0684 27.7636 23.6077C27.7636 22.151 27.1715 20.8265 26.2132 19.8722C25.3248 18.9801 24.125 18.4078 22.785 18.3298V23.6078C22.785 23.7791 22.6446 23.9195 22.4813 23.9195L22.4814 23.9194ZM21.5153 17.2113L21.4296 21.8586C21.4373 22.0223 21.3126 22.1663 21.1413 22.1739L16.4904 22.4233C16.3187 22.4309 16.1706 22.3026 16.163 22.1309C16.1553 22.0179 16.1553 21.9012 16.1553 21.7802C16.1867 20.4052 16.763 19.1744 17.6747 18.2941C18.5938 17.4097 19.8402 16.8764 21.2116 16.8997C21.3829 16.9041 21.5152 17.0441 21.5152 17.2114L21.5153 17.2113ZM20.8219 21.5742L20.8919 17.5194C19.8168 17.5777 18.8355 18.0297 18.1031 18.7347C17.3007 19.5101 16.7944 20.5888 16.7707 21.7886L20.8219 21.5742ZM24.3121 34.9084H22.9177V36.2988H24.3121V34.9084ZM22.6056 34.2931H24.6157C24.7871 34.2931 24.9274 34.4294 24.9274 34.6011V36.6072C24.9274 36.7785 24.7871 36.9189 24.6157 36.9189H22.6056C22.4419 36.9189 22.302 36.7785 22.302 36.6072V34.6011C22.302 34.4294 22.4423 34.2931 22.6056 34.2931ZM26.2675 35.4694C26.0962 35.4694 25.9558 35.3331 25.9558 35.1614C25.9558 34.994 26.0958 34.8537 26.2675 34.8537H30.2407C30.412 34.8537 30.5444 34.994 30.5444 35.1614C30.5444 35.3331 30.412 35.4694 30.2407 35.4694H26.2675ZM26.2675 36.4355C26.0962 36.4355 25.9558 36.2955 25.9558 36.1278C25.9558 35.9565 26.0958 35.8161 26.2675 35.8161H35.0167C35.188 35.8161 35.3283 35.9565 35.3283 36.1278C35.3283 36.2955 35.188 36.4355 35.0167 36.4355H26.2675ZM35.9984 12.9467C36.1621 12.9467 36.3025 13.087 36.3025 13.2544C36.3025 13.4257 36.1621 13.566 35.9984 13.566H30.6928C30.5214 13.566 30.3891 13.4261 30.3891 13.2544C30.3891 13.087 30.5218 12.9467 30.6928 12.9467H35.9984ZM35.9984 14.4347C36.1621 14.4347 36.3025 14.5711 36.3025 14.7424C36.3025 14.9138 36.1621 15.0501 35.9984 15.0501H30.6928C30.5214 15.0501 30.3891 14.9138 30.3891 14.7424C30.3891 14.5711 30.5218 14.4347 30.6928 14.4347H35.9984ZM35.9984 15.9188C36.1621 15.9188 36.3025 16.0591 36.3025 16.2305C36.3025 16.3982 36.1621 16.5382 35.9984 16.5382H29.7114C29.5398 16.5382 29.3998 16.3982 29.3998 16.2305C29.3998 16.0591 29.5398 15.9188 29.7114 15.9188H35.9984ZM29.5244 17.9599C29.4778 17.9249 29.4388 17.8742 29.4154 17.8195C28.7224 16.8844 27.8184 16.0745 26.7433 15.4551C24.6085 14.2204 22.162 13.967 19.9572 14.559C17.7447 15.151 15.766 16.5844 14.5272 18.7156L14.5195 18.7313C13.2808 20.8697 13.0318 23.3122 13.6235 25.525C14.0598 27.1571 14.9635 28.6685 16.2646 29.8449L16.2723 29.8489C16.4983 30.0592 16.7477 30.2583 17.0047 30.4449L17.1684 30.562L17.184 30.5736L17.2544 30.6203L17.2701 30.6319L17.3477 30.6786L17.3554 30.6866L17.4177 30.7293L17.4254 30.7373L17.4407 30.7453L17.4564 30.753L17.464 30.7606L17.4793 30.7687L17.495 30.7767V30.7803L17.5027 30.7843L17.518 30.792L17.526 30.7996L17.5566 30.8157L17.5646 30.8233L17.5803 30.8314L17.588 30.839H17.5956L17.6036 30.8467L17.6193 30.8543L17.627 30.8623L17.6426 30.8704L17.6503 30.8784L17.6656 30.886L17.6813 30.8937L17.6889 30.8977V30.9017L17.7042 30.9057L17.7199 30.9134L17.7276 30.9214L17.7429 30.9291L17.7509 30.9367L17.7662 30.9447L17.7819 30.9528L17.7899 30.9604L17.8052 30.9681L17.8209 30.9721L17.8289 30.9797L17.8442 30.9877L17.8599 30.9958L17.8676 31.0038L17.8829 31.0114L17.8905 31.0151V31.0191L17.9062 31.0271L17.9215 31.0348L17.9372 31.0388L17.9448 31.0464L17.9605 31.0545L17.9762 31.0621L17.9839 31.0701L17.9992 31.0782L18.0148 31.0822L18.0225 31.0898L18.0378 31.0978L18.0535 31.1055L18.0611 31.1135L18.0765 31.1212L18.0921 31.1252V31.1292L18.1151 31.1412L18.1308 31.1449L18.1384 31.1529L18.1537 31.1609L18.1694 31.1686L18.1924 31.1806L18.2081 31.1883L18.2314 31.1999L18.2471 31.2079L18.2624 31.216L18.2704 31.22L18.2861 31.2276L18.2937 31.2356H18.3014L18.3171 31.2397L18.3247 31.2477L18.3404 31.2553L18.3484 31.263L18.3637 31.267L18.3794 31.275L18.3951 31.2787V31.2827L18.4027 31.2867L18.4184 31.2947L18.4337 31.2987L18.4494 31.3064L18.4574 31.3104L18.4727 31.3184L18.4804 31.3261L18.496 31.3297L18.5114 31.3377L18.5267 31.3454L18.5423 31.3494L18.55 31.357L18.5653 31.361L18.5733 31.3691L18.5886 31.3731L18.604 31.3811L18.6196 31.3888L18.6273 31.3928L18.643 31.3968L18.6583 31.4044L18.6736 31.4084L18.6816 31.4161L18.6969 31.4241H18.7046L18.7122 31.4281L18.7202 31.4318L18.7359 31.4394L18.7512 31.4434L18.7669 31.4515L18.7746 31.4555L18.7899 31.4631L18.8055 31.4671L18.8209 31.4752L18.8289 31.4792L18.8446 31.4868L18.8599 31.4908L18.8832 31.5025L18.8985 31.5065L18.9532 31.5298L18.9685 31.5338L18.9842 31.5415C19.1555 31.6078 19.3349 31.6702 19.5062 31.7285L19.5295 31.7365C21.197 32.2739 22.9417 32.3012 24.5782 31.8572C26.7907 31.2652 28.7774 29.8278 30.0159 27.6893C31.2469 25.5469 31.5039 23.1084 30.9043 20.896C30.6308 19.8453 30.1631 18.8483 29.5244 17.9599ZM35.9984 18.8909C36.1621 18.8909 36.3025 19.0313 36.3025 19.2026C36.3025 19.3703 36.1621 19.5107 35.9984 19.5107H31.0901C31.2615 19.9077 31.4018 20.3171 31.5108 20.7297C32.1418 23.0941 31.8772 25.7 30.5524 27.9868C29.236 30.2772 27.1092 31.8123 24.7484 32.447C23.0737 32.8951 21.2819 32.8914 19.5678 32.3847L17.9164 35.2399L17.9321 35.2515L17.9401 35.2555V35.2592L17.9554 35.2668V35.2709L17.9707 35.2785L17.9941 35.3018H18.0017L18.0094 35.3135V35.3175L18.0251 35.3215V35.3292L18.0327 35.3332L18.0404 35.3408L18.0484 35.3449L18.0561 35.3529V35.3569L18.0874 35.3802L18.0951 35.3919L18.1184 35.4152L18.1264 35.4189L18.1341 35.4269L18.1494 35.4462L18.1651 35.4619V35.4655L18.1727 35.4772L18.188 35.4888L18.1957 35.5042L18.2114 35.5158V35.5195L18.219 35.5275L18.2423 35.5548L18.25 35.5629V35.5669L18.2576 35.5785V35.5825L18.2653 35.5942L18.281 35.6095L18.2886 35.6212V35.6248L18.2963 35.6365L18.3039 35.6405V35.6485L18.312 35.6562V35.6642L18.3196 35.6719L18.3273 35.6759V35.6915L18.343 35.7032L18.3586 35.7342L18.3663 35.7459V35.7535L18.3739 35.7615V35.7696L18.3816 35.7776L18.3896 35.7852V35.7932L18.3973 35.8013V35.821H18.4049V35.8363L18.4126 35.8519L18.4206 35.8672V35.8713L18.4359 35.8866V35.9026L18.4436 35.9103V35.9219L18.4512 35.9259V35.9413L18.4592 35.9569L18.4669 35.9722L18.4746 35.9879V36.0076L18.4822 36.0193V36.0349L18.4899 36.043V36.0623L18.4979 36.0659V36.0816L18.5055 36.0973C18.6065 36.479 18.5599 36.8997 18.3499 37.2657L17.6642 38.4501H38.4111V36.7947L38.414 7.81651H18.6488C18.4771 7.81651 18.3368 7.68018 18.3368 7.50883C18.3368 7.33749 18.4771 7.20115 18.6488 7.20115H38.414L38.4137 3.96793H16.7559L11.9956 8.72785L12.0346 33.6464L12.0499 33.6271L12.0812 33.5764L12.1046 33.5451L12.1359 33.4944C12.1593 33.4671 12.1749 33.4437 12.1983 33.4204V33.4164L12.2059 33.4047L12.2292 33.3737H12.2369L12.2446 33.3621L12.2602 33.3464L12.2679 33.3311L12.2836 33.3194L12.2989 33.3037L12.3302 33.2804L12.3379 33.2651L12.3692 33.2418L12.3845 33.2261L12.4002 33.2184L12.4079 33.2028L12.4392 33.1794L12.4545 33.1678L12.4702 33.1561L12.4855 33.1481L12.5325 33.1131L12.5482 33.1051L12.5635 33.0934L12.5788 33.0857L12.5945 33.0741L12.6098 33.0661L12.6255 33.0584L12.6408 33.0467L12.6565 33.0391L12.6798 33.0314L12.6955 33.0234L12.7112 33.0117L12.7265 33.0041L12.7422 32.9964L12.7575 32.9888L12.7812 32.9807L12.7965 32.9767L12.8122 32.9687L12.8275 32.9611L12.8431 32.9571L12.8588 32.949L12.8822 32.941L12.8975 32.9374L12.9131 32.9293L12.9288 32.9253L12.9521 32.9177L12.9678 32.9137L12.9912 32.91L13.0068 32.906L13.0221 32.898H13.0302L13.0378 32.894H13.0531L13.0608 32.8903H13.0688L13.0765 32.8863H13.0841L13.0918 32.8827H13.0994L13.1074 32.8787H13.1308L13.1464 32.8747H13.1618V32.8707H13.1851L13.1927 32.8666H13.2161L13.2237 32.863H13.2624L13.27 32.859H13.3243V32.8553H13.441L13.4567 32.859H13.503L13.5106 32.863H13.5496V32.8666H13.573L13.5883 32.8707H13.604L13.6193 32.8747L13.6349 32.8787H13.6579L13.6659 32.8827H13.6736L13.6812 32.8863H13.6889L13.6966 32.8903H13.7122L13.7199 32.894H13.7352L13.7665 32.9056L13.7822 32.9097L13.7979 32.9133H13.8056L13.8136 32.9173H13.8212L13.8289 32.921L13.8365 32.925H13.8442L13.8522 32.929L13.8599 32.933L13.8755 32.937L13.8912 32.9406L13.9065 32.9487L13.9455 32.9603L13.9608 32.968L13.9765 32.972V32.976L13.9918 32.98L13.9999 32.984L14.0075 32.988L14.0152 32.9917L14.0228 32.9957L15.6665 30.1365C14.3735 28.9055 13.4694 27.3513 13.0257 25.6803C12.3947 23.3194 12.6594 20.71 13.9762 18.4232L13.9915 18.4075C15.3162 16.1287 17.4273 14.598 19.7878 13.9669C22.1482 13.3319 24.7584 13.6009 27.0489 14.9214C28.1783 15.5757 29.1294 16.4287 29.869 17.4065H35.9927C36.1564 17.4065 36.2967 17.5428 36.2967 17.7142C36.2967 17.8855 36.1564 18.0219 35.9927 18.0219H30.3054C30.4848 18.3062 30.6561 18.5946 30.8041 18.8906L35.9989 18.892L35.9984 18.8909Z" fill="#505050"/>
</svg>
