<svg width="41" height="33" viewBox="0 0 41 33" fill="none" xmlns="http://www.w3.org/2000/svg">
<path d="M21.9437 0.711506C21.9196 0.896111 22.0294 1.09007 22.2001 1.16428C22.6281 1.37814 22.9243 1.74041 23.2139 2.11023C16.1027 2.66134 10.0918 9.61634 9.85779 16.7714H7.6814V17.6362H40.5582V16.7714H38.3818C38.1481 9.61673 32.1372 2.66159 25.0257 2.11023C25.3153 1.74041 25.6115 1.37814 26.0395 1.16428C26.2172 1.08133 26.3222 0.866852 26.2781 0.675614C26.2344 0.48467 26.0462 0.33717 25.8501 0.339881H22.3489C22.113 0.349533 21.9564 0.54108 21.9438 0.711205L21.9437 0.711506ZM12.3451 18.9465L6.77557 20.4463C4.9259 20.7527 3.01259 21.0278 1.13844 21.311C0.939658 21.3427 0.77737 21.5288 0.773447 21.73V31.9047C0.771638 32.1502 1.01627 32.3677 1.26 32.3369L8.61375 31.4721C8.75764 31.4543 8.88946 31.3596 8.9516 31.2287L10.5603 28.0128H21.9697C22.055 28.0171 22.141 27.9911 22.2131 27.9453C25.241 25.8971 28.3223 23.9081 31.3375 21.8511C31.9689 21.2982 32.0467 20.5004 31.7161 19.9728C31.3852 19.4453 30.6856 19.1442 30.0262 19.3919C27.5431 20.4684 25.0425 21.5293 22.5506 22.5941C20.5278 22.6168 18.3722 22.6388 16.4405 22.351C18.0358 21.9305 19.6304 21.4943 21.2261 21.0808C21.8381 20.8899 22.1859 20.3225 22.1859 19.7834C22.1859 19.2447 21.8324 18.6724 21.2126 18.5132C18.1521 18.6897 14.9757 18.7446 12.3445 18.9458L12.3451 18.9465ZM21.024 19.3655C21.2412 19.4345 21.3214 19.5914 21.3214 19.7844C21.3214 19.9874 21.2231 20.1648 20.97 20.2438L14.5082 21.9734C14.1519 22.0588 14.1121 22.6666 14.4542 22.7978C14.4542 22.7978 15.0587 23.0377 16.3603 23.2301C17.6618 23.4226 19.6992 23.5731 22.6462 23.46C22.6969 23.4597 22.7476 23.4503 22.7949 23.4331L30.3382 20.2037C30.6009 20.1051 30.8477 20.2327 30.9735 20.4336C31.0956 20.6288 31.1369 20.8529 30.7843 21.1768L21.8352 27.1494H10.2907C10.1284 27.1494 9.96971 27.2469 9.89852 27.3925L8.81711 29.568L7.73571 21.0961L12.5213 19.7987L21.024 19.3655Z" fill="#75B94A"/>
</svg>
