<svg width="48" height="48" viewBox="0 0 48 48" fill="none" xmlns="http://www.w3.org/2000/svg">
<path fill-rule="evenodd" clip-rule="evenodd" d="M19.7835 17.459C19.7613 17.459 19.7182 17.459 19.696 17.459C19.3266 17.4139 19.0224 17.0754 19.0224 16.6918C19.0002 16.3307 18.8043 7.89108 23.5652 5.97307C24.761 5.49914 25.8708 5.58935 26.8054 6.28902C27.9567 7.12393 28.7831 8.79375 29.2831 11.2309C29.6302 12.9459 29.6955 14.4351 29.6955 14.5029C29.7178 14.8639 29.4359 15.1348 29.065 15.067C28.6956 15.0219 28.3915 14.6835 28.3915 14.3223C28.3262 12.7879 27.8262 8.56816 26.1749 7.34953C25.6527 6.96596 24.9999 6.92078 24.218 7.23673C20.1306 8.88396 20.3265 16.8046 20.3265 16.8948C20.3265 17.2108 20.1099 17.459 19.7835 17.459Z" fill="#595961"/>
<path opacity="0.46" fill-rule="evenodd" clip-rule="evenodd" d="M26.5654 6.33382C25.696 5.70191 24.6752 5.6117 23.5655 6.04045C21.6308 6.83019 20.2615 8.90632 19.5879 12.0656C19.0879 14.3897 19.1532 16.4884 19.1532 16.5787C19.1532 16.6915 19.1962 16.8044 19.2838 16.8946C19.3698 16.9848 19.4573 17.0526 19.5657 17.0526C19.5879 17.0526 19.6102 17.0526 19.6309 17.0526C19.8268 17.0526 19.9796 16.8946 19.9796 16.6915C19.9796 16.6012 19.7838 8.54519 23.9795 6.85278C24.8266 6.51438 25.5654 6.55941 26.1752 7.01075C27.9347 8.297 28.4569 12.6523 28.5222 14.2093C28.5222 14.4349 28.7181 14.6606 28.957 14.6831C29.175 14.7057 29.3486 14.5477 29.3486 14.3221C29.3263 14.0513 29.0875 8.18421 26.5654 6.33382Z" fill="#B2B2C2"/>
<path opacity="0.46" fill-rule="evenodd" clip-rule="evenodd" d="M19.5863 16.7818C19.564 16.7818 19.564 16.7818 19.5432 16.7818C19.4127 16.7592 19.3029 16.6238 19.2821 16.4884C19.2821 16.3981 19.2169 14.3447 19.7168 12.0203C20.3681 8.92887 21.7389 6.87533 23.6291 6.10803C24.6943 5.67928 25.6513 5.76964 26.4777 6.35637C28.9123 8.13899 29.1511 13.9159 29.1511 14.1641C29.1511 14.2995 29.0428 14.3897 28.9123 14.3672C28.7817 14.3447 28.6734 14.2319 28.6511 14.0739C28.6511 14.0061 28.4123 8.34215 26.2165 6.71735C25.5637 6.24357 24.7596 6.1758 23.8472 6.53679C19.5863 8.31956 19.7821 16.4884 19.7821 16.5786C19.8029 16.6914 19.7168 16.7818 19.5863 16.7818Z" fill="#B2B2C2"/>
<path opacity="0.62" fill-rule="evenodd" clip-rule="evenodd" d="M21.3484 10.328C21.5219 9.98956 21.6955 9.65102 21.8483 9.29004C21.783 9.40284 21.3483 10.5763 20.0219 10.3957C19.9997 10.3957 20.8039 10.6439 21.3484 10.328Z" fill="#595961"/>
<path opacity="0.62" fill-rule="evenodd" clip-rule="evenodd" d="M20.8686 11.7727C20.9992 11.4115 21.1297 11.028 21.2172 10.667C21.1742 10.8024 20.9561 12.0209 19.5645 12.0209C19.5645 12.0209 20.3686 12.1788 20.8686 11.7727Z" fill="#595961"/>
<path opacity="0.62" fill-rule="evenodd" clip-rule="evenodd" d="M28.5001 8.86206C28.3265 8.45575 28.1306 8.07218 27.9348 7.66602C28.0001 7.8014 28.6529 9.08766 27.9141 10.0128C27.9141 10.0128 28.4793 9.56159 28.5001 8.86206Z" fill="#595961"/>
<path opacity="0.62" fill-rule="evenodd" clip-rule="evenodd" d="M27.3043 6.83088C26.9556 6.53752 26.6084 6.26674 26.2598 6.01855C26.3903 6.13135 27.5431 6.96627 27.4778 8.23008C27.4555 8.23008 27.6515 7.48537 27.3043 6.83088Z" fill="#595961"/>
<path opacity="0.62" fill-rule="evenodd" clip-rule="evenodd" d="M21.9787 9.08712C22.2398 8.81635 22.4564 8.52298 22.6953 8.20703C22.6092 8.29724 21.8912 9.22251 20.6094 8.88397C20.6094 8.88397 21.3482 9.29028 21.9787 9.08712Z" fill="#595961"/>
<path opacity="0.62" fill-rule="evenodd" clip-rule="evenodd" d="M22.7834 8.04914C23.0875 7.82354 23.3694 7.59779 23.6528 7.34961C23.5445 7.41738 22.6529 8.16193 21.4141 7.62038C21.4141 7.62038 22.1306 8.13934 22.7834 8.04914Z" fill="#595961"/>
<path opacity="0.62" fill-rule="evenodd" clip-rule="evenodd" d="M23.9564 7.30355C24.3259 7.19076 24.6745 7.05537 25.0217 6.91998C24.8911 6.96501 23.7828 7.37117 22.6953 6.51367C22.7176 6.51367 23.2829 7.19076 23.9564 7.30355Z" fill="#595961"/>
<path opacity="0.62" fill-rule="evenodd" clip-rule="evenodd" d="M25.0221 6.89877C25.3262 6.94395 25.6303 6.96654 25.9345 6.98913C25.8262 6.96654 24.8692 6.89877 24.3262 5.99609C24.3262 5.99609 24.5443 6.60541 25.0221 6.89877Z" fill="#595961"/>
<path opacity="0.62" fill-rule="evenodd" clip-rule="evenodd" d="M26.2817 7.39436C26.4983 7.6427 26.7386 7.89088 26.9982 8.11648C26.9122 8.02627 26.1734 7.28157 26.347 6.35645C26.3247 6.35645 26.0858 6.8754 26.2817 7.39436Z" fill="#595961"/>
<path opacity="0.74" fill-rule="evenodd" clip-rule="evenodd" d="M28.9123 14.0518C28.9123 13.8035 28.6734 8.09431 26.3041 6.35687C25.8471 6.01833 25.3471 5.86035 24.8249 5.86035C24.4332 5.86035 24.0208 5.95056 23.5861 6.13112C21.6944 6.87583 20.3681 8.8842 19.7168 11.9531C19.2169 14.2548 19.2821 16.3083 19.2821 16.3986C19.2821 16.4663 19.3474 16.5339 19.4127 16.5339H19.4334C19.4987 16.5339 19.5432 16.4889 19.5432 16.4211C19.5432 16.3309 19.3251 8.09431 23.6944 6.33428C24.6513 5.95056 25.4777 6.01833 26.1735 6.53729C28.433 8.18467 28.6734 13.939 28.6734 14.0066C28.6734 14.0744 28.7387 14.142 28.804 14.142C28.804 14.142 28.8039 14.142 28.8247 14.142C28.8692 14.1646 28.9123 14.1194 28.9123 14.0518Z" fill="url(#paint0_linear_6004_288392)"/>
<path fill-rule="evenodd" clip-rule="evenodd" d="M29.2818 11.2312C28.7818 8.79404 27.9555 7.14666 26.8042 6.28916C26.1736 5.83797 25.4986 5.63481 24.7598 5.67999C25.3473 5.72502 25.8903 5.92818 26.3903 6.28916C27.543 7.12422 28.3694 8.79404 28.8694 11.2312C29.2166 12.9462 29.2818 14.4354 29.2818 14.5032C29.2818 14.774 29.1512 14.9771 28.9332 15.0447C28.9777 15.0673 29.0207 15.0673 29.043 15.0673C29.4124 15.1125 29.6943 14.8642 29.6735 14.5032C29.6943 14.4354 29.6289 12.9688 29.2818 11.2312Z" fill="url(#paint1_linear_6004_288392)"/>
<path fill-rule="evenodd" clip-rule="evenodd" d="M23.8047 7.23655C19.7173 8.88379 19.9131 16.8045 19.9131 16.8947C19.9131 17.1654 19.7825 17.3686 19.5645 17.4362C19.609 17.4588 19.6298 17.4588 19.6743 17.4588C19.6951 17.4588 19.7395 17.4588 19.7603 17.4588C20.0867 17.4588 20.3033 17.2106 20.3033 16.8947C20.3033 16.8045 20.109 8.90638 24.1949 7.25915C24.4782 7.14635 24.7393 7.07858 24.9781 7.05599C24.6295 6.98837 24.2394 7.05599 23.8047 7.23655Z" fill="url(#paint2_linear_6004_288392)"/>
<path fill-rule="evenodd" clip-rule="evenodd" d="M29.9991 9.20012L11.5652 15.1123C11.5652 15.1123 10.7833 15.338 10.5875 15.5862C10.3916 15.8344 10.3486 16.5339 10.3486 16.5339L7.5 39.3255L28.8908 43.4776L30.5436 9.17753C30.3047 9.13236 30.0643 9.17753 29.9991 9.20012Z" fill="url(#paint3_linear_6004_288392)"/>
<path fill-rule="evenodd" clip-rule="evenodd" d="M36.3688 12.1338C36.3688 12.1338 36.3465 11.9532 36.2382 11.8856C36.1507 11.8179 36.0424 11.8179 36.0424 11.8179L33.0203 11.5923L30.8037 9.31312C30.7162 9.24536 30.6287 9.20032 30.5204 9.17773L28.8691 43.4778L40.4546 40.8827L36.3688 12.1338Z" fill="url(#paint4_linear_6004_288392)"/>
<path fill-rule="evenodd" clip-rule="evenodd" d="M22.3905 28.2452C22.0641 27.7939 21.6739 27.3877 21.2822 27.0266C20.8906 26.6656 20.4781 26.3722 20.0642 26.1015C19.7823 25.9209 19.5212 25.7403 19.3031 25.5598C19.0865 25.3794 18.9129 25.1988 18.7823 25.0408C18.6518 24.8602 18.5435 24.7023 18.4782 24.5219C18.4129 24.3413 18.3906 24.1607 18.3906 23.9802C18.3906 23.732 18.4559 23.4838 18.5435 23.2806C18.6295 23.0776 18.7823 22.8971 18.9337 22.7391C19.1087 22.5811 19.3031 22.4683 19.5434 22.3781C19.7823 22.2877 20.0641 22.2427 20.3683 22.2201C20.6947 22.1975 21.0211 22.2201 21.3252 22.2427C21.6294 22.2652 21.9127 22.3329 22.1946 22.4005C22.4557 22.4683 22.7168 22.5585 22.9335 22.6489C23.1515 22.7391 23.3681 22.8293 23.521 22.9196L24.9557 18.4968C24.7391 18.384 24.4779 18.271 24.1946 18.2034C23.8904 18.113 23.564 18.0454 23.1946 18.0002C22.8252 17.9552 22.4335 17.9326 22.021 17.9326C21.6086 17.9326 21.1739 17.9552 20.717 18.0228C19.7393 18.1582 18.8684 18.429 18.0865 18.8351C17.3477 19.2189 16.6949 19.7152 16.1519 20.3246C15.6296 20.9113 15.2172 21.5882 14.913 22.3555C14.6297 23.1002 14.4561 23.9351 14.4131 24.8377C14.3908 25.3794 14.4338 25.8757 14.5644 26.3271C14.6727 26.7784 14.8478 27.2072 15.0866 27.6133C15.3032 28.0195 15.5866 28.3806 15.8907 28.719C16.1949 29.0575 16.5643 29.3735 16.9337 29.6669C17.2378 29.8925 17.499 30.1181 17.7171 30.3212C17.9337 30.5244 18.1088 30.7274 18.2378 30.9531C18.3684 31.1561 18.4559 31.3593 18.5212 31.5849C18.5865 31.788 18.6087 32.0136 18.5865 32.2394C18.5865 32.465 18.5212 32.6906 18.4337 32.8711C18.3477 33.0517 18.2378 33.2323 18.0643 33.3676C17.9129 33.503 17.7171 33.5932 17.499 33.6384C17.2824 33.6834 17.0213 33.706 16.7379 33.661C16.413 33.6158 16.0866 33.5256 15.7824 33.3901C15.4783 33.2773 15.1727 33.1193 14.8908 32.9613C14.609 32.8035 14.3478 32.6229 14.1297 32.465C13.8909 32.307 13.695 32.1264 13.5437 31.991L12.5645 35.3534C12.7173 35.579 12.9339 35.7822 13.1728 35.9852C13.4131 36.1883 13.695 36.3913 14.0214 36.5945C14.3478 36.7751 14.695 36.9555 15.0644 37.1134C15.4338 37.2714 15.8477 37.4068 16.2602 37.5198H16.2825H16.3032H16.3255H16.3477C17.2379 37.7228 18.0865 37.7679 18.8906 37.6551C19.717 37.5422 20.4781 37.2488 21.1294 36.7976C21.8029 36.3237 22.3474 35.6918 22.7599 34.8569C23.1738 34.022 23.4126 33.0065 23.4557 31.8556C23.4779 31.1335 23.3904 30.5018 23.1946 29.915C22.9988 29.2381 22.7169 28.719 22.3905 28.2452Z" fill="url(#paint5_linear_6004_288392)"/>
<path opacity="0.226763" fill-rule="evenodd" clip-rule="evenodd" d="M12.7052 35.5372C12.6548 35.4774 12.6073 35.4163 12.5643 35.3536L13.5435 31.9912C13.5568 32.0037 13.5717 32.0167 13.5865 32.03C13.7319 32.1599 13.9129 32.3218 14.1296 32.4651C14.3476 32.6231 14.6088 32.8037 14.8906 32.9616C15.1725 33.1195 15.4781 33.2774 15.7822 33.3904C16.0864 33.5258 16.4128 33.616 16.7377 33.6612C17.0211 33.7062 17.2822 33.6837 17.4988 33.6386C17.7169 33.5934 17.9127 33.5032 18.0641 33.3678C18.2376 33.2324 18.3475 33.0518 18.4335 32.8713C18.521 32.6907 18.5863 32.4651 18.5863 32.2395C18.6085 32.0138 18.5863 31.7882 18.521 31.585C18.4557 31.3594 18.3682 31.1563 18.2377 30.9533C18.1145 30.7387 17.9513 30.5447 17.748 30.3516C17.8549 30.4723 17.9454 30.5961 18.021 30.7275C18.1516 30.9307 18.2377 31.1337 18.3029 31.3594C18.3682 31.5624 18.3905 31.7882 18.3682 32.0138C18.3682 32.2395 18.303 32.4651 18.2169 32.6457C18.1294 32.8262 18.021 33.0067 17.8475 33.1421C17.6946 33.2774 17.4988 33.3678 17.2822 33.4128C17.0641 33.458 16.803 33.4806 16.5211 33.4354C16.1947 33.3904 15.8683 33.3 15.5642 33.1646C15.26 33.0518 14.9559 32.8939 14.6725 32.7359C14.3906 32.5779 14.1296 32.3975 13.9129 32.2395C13.6949 32.0962 13.5139 31.9343 13.3685 31.8044C13.3536 31.7911 13.3402 31.7781 13.3254 31.7656L12.3477 35.1278C12.4441 35.2715 12.5673 35.406 12.7052 35.5372ZM15.9084 28.7397C15.8268 28.6589 15.7481 28.577 15.6725 28.4936C15.3683 28.155 15.0865 27.794 14.8684 27.3879C14.6295 26.9816 14.4559 26.5528 14.3476 26.1016C14.217 25.6503 14.1725 25.1538 14.1947 24.6122C14.2378 23.7095 14.4129 22.8746 14.6948 22.1299C14.9989 21.3628 15.4129 20.6858 15.9336 20.0991C16.4781 19.4898 17.1294 18.9933 17.8682 18.6097C18.6515 18.2036 19.521 17.9328 20.4987 17.7974C20.9556 17.7296 21.3904 17.707 21.8028 17.707C22.2167 17.707 22.6084 17.7296 22.9778 17.7748C23.3472 17.82 23.6736 17.8876 23.9778 17.978C24.2597 18.0456 24.5208 18.1584 24.7389 18.2712L24.7047 18.3767C24.5475 18.3084 24.3754 18.2468 24.1944 18.2035C23.8902 18.1133 23.5638 18.0456 23.1944 18.0004C22.825 17.9554 22.4333 17.9328 22.0208 17.9328C21.6084 17.9328 21.1738 17.9554 20.7168 18.023C19.7391 18.1584 18.8682 18.4291 18.0863 18.8355C17.3475 19.219 16.6947 19.7154 16.1517 20.3247C15.6294 20.9114 15.217 21.5884 14.9128 22.3557C14.6295 23.1004 14.4559 23.9353 14.4129 24.8378C14.3906 25.3795 14.4336 25.8759 14.5642 26.3272C14.6725 26.7786 14.8476 27.2073 15.0864 27.6135C15.303 28.0196 15.5864 28.3808 15.8905 28.7192C15.8965 28.7259 15.9024 28.7329 15.9084 28.7397ZM18.8607 25.1334C18.9794 25.2676 19.1278 25.4138 19.3029 25.5599C19.521 25.7405 19.7821 25.9211 20.064 26.1016C20.4779 26.3724 20.8904 26.6658 21.282 27.0267C21.3963 27.1319 21.509 27.2407 21.6218 27.3535C21.4408 27.1589 21.2523 26.9748 21.0639 26.8012C20.6737 26.44 20.2598 26.1467 19.8474 25.8759C19.564 25.6953 19.3029 25.5149 19.0863 25.3343C19.0047 25.267 18.9305 25.1997 18.8607 25.1334Z" fill="black"/>
<path opacity="0.41" fill-rule="evenodd" clip-rule="evenodd" d="M33.7598 37.0916L33.021 11.5921L32.8904 11.4567L33.2391 36.7304C33.2391 36.7304 30.174 41.5595 29.717 41.4241C29.0434 41.2211 31.0433 9.56118 31.0433 9.56118L30.8253 9.33558C30.7392 9.26782 30.6294 9.22278 30.5434 9.2002L28.9129 43.0263L28.8906 43.5003L29.4559 42.7555L33.7598 37.0916Z" fill="url(#paint6_linear_6004_288392)"/>
<path fill-rule="evenodd" clip-rule="evenodd" d="M25.4337 10.6672C25.1741 11.7277 24.8477 12.7206 24.6089 13.3299C24.456 13.691 24.6296 14.0294 24.956 14.0746C25.3047 14.1198 25.6949 13.8714 25.8254 13.5104C25.8477 13.4427 26.4337 11.976 26.8046 10.2384V10.2158L25.4337 10.6672Z" fill="url(#paint7_linear_6004_288392)"/>
<path fill-rule="evenodd" clip-rule="evenodd" d="M15.63 13.8257C15.3259 14.5027 15.0217 15.0894 14.8036 15.4956C14.6093 15.8341 14.7176 16.1951 15.044 16.2853C15.3689 16.3982 15.8036 16.1951 15.9994 15.8566C16.0216 15.8115 16.6522 14.7058 17.2175 13.3066L15.63 13.8257Z" fill="url(#paint8_linear_6004_288392)"/>
<path opacity="0.32" fill-rule="evenodd" clip-rule="evenodd" d="M28.8906 43.4771L33.7598 37.0908L40.4999 40.882L28.8906 43.4771Z" fill="url(#paint9_linear_6004_288392)"/>
<path opacity="0.19" fill-rule="evenodd" clip-rule="evenodd" d="M28.8906 43.4771L33.7168 37.0908L40.4999 40.882L28.8906 43.4771Z" fill="url(#paint10_linear_6004_288392)"/>
<path opacity="0.19" fill-rule="evenodd" clip-rule="evenodd" d="M28.8906 43.4771L33.7168 37.0908L40.4999 40.882L28.8906 43.4771Z" fill="url(#paint11_linear_6004_288392)"/>
<path opacity="0.6" fill-rule="evenodd" clip-rule="evenodd" d="M24.1526 25.6055C26.6747 29.1483 28.3704 32.9845 29.2175 36.7079L30.5439 9.15501C30.3051 9.10998 30.0647 9.15501 29.9994 9.1776L11.5656 15.1125C11.5656 15.1125 11.3919 15.1575 11.1738 15.2479C15.8487 16.9177 20.5221 20.5057 24.1526 25.6055Z" fill="url(#paint12_linear_6004_288392)"/>
<path fill-rule="evenodd" clip-rule="evenodd" d="M36.2602 11.9077C36.37 11.9981 36.37 12.1335 36.37 12.1335L40.4128 40.8596L33.7603 37.0686L33.0215 11.5693L36.0006 11.7949C36.0213 11.8175 36.1519 11.8175 36.2602 11.9077Z" fill="url(#paint13_linear_6004_288392)"/>
<path fill-rule="evenodd" clip-rule="evenodd" d="M35.7817 11.9762C35.7817 11.9762 35.9123 11.9762 36.0206 12.089C36.1289 12.1794 36.1511 12.3148 36.1511 12.3148L40.1302 40.7251L40.4343 40.9057L36.39 12.1568C36.39 12.1568 36.3692 12.0214 36.2817 11.9312C36.1734 11.8408 36.0206 11.8408 36.0206 11.8408L33.043 11.6152L35.7817 11.9762Z" fill="url(#paint14_linear_6004_288392)"/>
<path fill-rule="evenodd" clip-rule="evenodd" d="M7.5 39.3244L28.8908 43.4766L29.9352 19.9629L10.1601 20.525L7.5 39.3244Z" fill="url(#paint15_linear_6004_288392)"/>
<path opacity="0.3" fill-rule="evenodd" clip-rule="evenodd" d="M14.5212 15.4406C14.3269 15.9891 14.5182 16.5653 14.9515 16.728C15.3832 16.8906 15.8906 16.5779 16.0864 16.0296C16.2808 15.4812 16.088 14.9048 15.6562 14.7423C15.2245 14.5796 14.7156 14.8923 14.5212 15.4406Z" fill="white"/>
<path opacity="0.89" fill-rule="evenodd" clip-rule="evenodd" d="M14.4976 15.181C14.3032 15.7293 14.4961 16.3057 14.9278 16.4683C15.3595 16.631 15.8684 16.3183 16.0628 15.7699C16.2571 15.2214 16.0658 14.6451 15.6326 14.4825C15.2008 14.3198 14.6934 14.6325 14.4976 15.181Z" fill="black"/>
<path fill-rule="evenodd" clip-rule="evenodd" d="M33.0433 11.5923L30.8253 9.31312C30.7392 9.24536 30.6294 9.20032 30.5434 9.17773L28.8906 43.4778L33.7821 37.069L33.0433 11.5923Z" fill="url(#paint16_linear_6004_288392)"/>
<path fill-rule="evenodd" clip-rule="evenodd" d="M29.9996 9.19985L11.5657 15.112C11.5657 15.112 10.7839 15.3378 10.588 15.5859C10.5658 15.6085 10.5657 15.6311 10.5449 15.6537L29.1302 10.3281C29.283 10.2829 29.6524 10.1476 29.6094 11.2533L28.4789 43.4321L28.8706 43.4999L30.5218 9.19985C30.3052 9.13209 30.0649 9.17726 29.9996 9.19985Z" fill="url(#paint17_linear_6004_288392)"/>
<path fill-rule="evenodd" clip-rule="evenodd" d="M29.9996 9.19985L11.5657 15.112C11.5657 15.112 10.7839 15.3378 10.588 15.5859C10.5658 15.6085 10.5657 15.6311 10.5449 15.6537L14.8489 14.4125L29.6524 9.65119C29.7177 9.6286 29.9566 9.58343 30.1955 9.62861L28.565 43.4321L28.8706 43.4999L30.5218 9.19985C30.3052 9.13209 30.0649 9.17726 29.9996 9.19985Z" fill="url(#paint18_linear_6004_288392)"/>
<path opacity="0.32" fill-rule="evenodd" clip-rule="evenodd" d="M34.7383 37.6325L33.7591 37.0684L28.8691 43.477L29.1288 43.4093C29.1288 43.4093 33.4342 37.6551 33.8244 37.4745C34.1077 37.3617 34.7383 37.6325 34.7383 37.6325Z" fill="url(#paint19_linear_6004_288392)"/>
<path opacity="0.57" fill-rule="evenodd" clip-rule="evenodd" d="M28.8906 43.477L33.7821 37.0684C33.7598 37.0909 30.6739 40.5886 28.8906 43.477Z" fill="url(#paint20_linear_6004_288392)"/>
<path opacity="0.46" fill-rule="evenodd" clip-rule="evenodd" d="M40.4995 40.882L33.7817 37.0908C33.7594 37.0908 34.5428 37.2262 40.4995 40.882Z" fill="url(#paint21_linear_6004_288392)"/>
<path opacity="0.3" fill-rule="evenodd" clip-rule="evenodd" d="M24.4614 13.1906C24.2655 13.739 24.4584 14.3154 24.8901 14.4781C25.3233 14.6408 25.8308 14.3281 26.0251 13.7798C26.2209 13.2313 26.0281 12.6549 25.5963 12.4922C25.1646 12.3297 24.6557 12.6422 24.4614 13.1906Z" fill="white"/>
<path opacity="0.89" fill-rule="evenodd" clip-rule="evenodd" d="M24.437 12.9318C24.2427 13.4803 24.4356 14.0567 24.8673 14.2194C25.2991 14.382 25.8079 14.0694 26.0022 13.5209C26.1966 12.9726 26.0052 12.3962 25.5734 12.2335C25.1402 12.0708 24.6328 12.3835 24.437 12.9318Z" fill="black"/>
<path fill-rule="evenodd" clip-rule="evenodd" d="M15.284 16.2851C15.2617 16.2851 15.2187 16.2851 15.1964 16.2851C14.8492 16.2401 14.6104 15.9016 14.6534 15.518C14.6965 15.1569 15.9352 6.71725 21.0226 4.79924C22.3044 4.32531 23.3919 4.41552 24.2182 5.11519C25.2182 5.9501 25.7612 7.61993 25.8487 10.057C25.914 11.772 25.7182 13.2613 25.7182 13.3291C25.6752 13.6901 25.3488 13.961 25.0002 13.8932C24.653 13.848 24.3918 13.5096 24.4571 13.1485C24.653 11.6141 24.8696 7.39433 23.4141 6.1757C22.9572 5.79213 22.3267 5.74695 21.4796 6.0629C17.1103 7.71014 15.9575 15.6308 15.9575 15.6984C15.87 16.037 15.6104 16.2851 15.284 16.2851Z" fill="#595961"/>
<path opacity="0.46" fill-rule="evenodd" clip-rule="evenodd" d="M23.9565 5.16083C23.1954 4.52907 22.1955 4.43886 20.9997 4.86761C18.9345 5.65734 17.1956 7.73333 15.9998 10.87C15.1097 13.1943 14.8041 15.2929 14.8041 15.3832C14.7833 15.496 14.8264 15.6088 14.8917 15.6992C14.9569 15.7894 15.0444 15.8572 15.1527 15.8572C15.1735 15.8572 15.1958 15.8572 15.218 15.8572C15.4138 15.8572 15.5874 15.6992 15.6096 15.496C15.6304 15.4058 16.7832 7.34976 21.283 5.65735C22.1955 5.3188 22.9343 5.36399 23.4565 5.81533C24.9994 7.10158 24.7829 11.4567 24.587 13.0137C24.5648 13.2395 24.7176 13.4651 24.9342 13.4877C25.1523 13.5102 25.3689 13.3523 25.3911 13.1267C25.4134 12.8783 26.1745 7.01137 23.9565 5.16083Z" fill="#B2B2C2"/>
<path opacity="0.81" fill-rule="evenodd" clip-rule="evenodd" d="M15.1955 15.6089C15.1732 15.6089 15.1732 15.6089 15.1524 15.6089C15.0219 15.5863 14.9343 15.4509 14.9566 15.3156C14.9788 15.2252 15.2608 13.1718 16.1524 10.8475C17.3482 7.75602 19.0439 5.70248 21.0646 4.93518C22.2174 4.50643 23.1521 4.59679 23.8687 5.18352C25.9991 6.96614 25.2603 12.7431 25.2173 12.9912C25.195 13.1266 25.0868 13.2168 24.9339 13.1944C24.8049 13.1718 24.7173 13.059 24.7173 12.901C24.7173 12.8333 25.4562 7.16929 23.5438 5.5445C22.9785 5.11575 22.1952 5.07072 21.2398 5.4317C16.6524 7.16929 15.4566 15.3156 15.4566 15.4058C15.4344 15.5186 15.326 15.6089 15.1955 15.6089Z" fill="#B2B2C2"/>
<path opacity="0.42" fill-rule="evenodd" clip-rule="evenodd" d="M18.0644 9.15511C18.3033 8.81671 18.5213 8.47817 18.738 8.11719C18.6519 8.22999 18.0214 9.40344 16.7173 9.22288C16.695 9.22288 17.4561 9.47106 18.0644 9.15511Z" fill="#595961"/>
<path opacity="0.42" fill-rule="evenodd" clip-rule="evenodd" d="M17.3264 10.5989C17.5223 10.2377 17.718 9.85415 17.8694 9.49316C17.8041 9.62855 17.3694 10.847 16 10.847C16 10.847 16.7612 11.005 17.3264 10.5989Z" fill="#595961"/>
<path opacity="0.42" fill-rule="evenodd" clip-rule="evenodd" d="M16.7611 12.0884C16.9347 11.7046 17.0653 11.3211 17.1958 10.9375C17.1305 11.0729 16.8917 12.314 15.457 12.4719C15.457 12.4493 16.2388 12.5397 16.7611 12.0884Z" fill="#595961"/>
<path opacity="0.62" fill-rule="evenodd" clip-rule="evenodd" d="M25.4557 7.68823C25.3474 7.28192 25.239 6.89835 25.0862 6.49219C25.1292 6.62757 25.564 7.91383 24.6738 8.83895C24.6738 8.83895 25.3251 8.38775 25.4557 7.68823Z" fill="#595961"/>
<path opacity="0.62" fill-rule="evenodd" clip-rule="evenodd" d="M24.6093 5.65705C24.3051 5.36368 23.9995 5.09291 23.6953 4.84473C23.8051 4.95752 24.8259 5.79244 24.544 7.0561C24.5217 7.0561 24.8481 6.31139 24.6093 5.65705Z" fill="#595961"/>
<path opacity="0.62" fill-rule="evenodd" clip-rule="evenodd" d="M25.6745 9.76368C25.6522 9.35752 25.587 8.92877 25.5217 8.52246C25.5217 8.68044 25.7398 10.0119 24.6953 10.734C24.6953 10.734 25.4133 10.418 25.6745 9.76368Z" fill="#595961"/>
<path opacity="0.62" fill-rule="evenodd" clip-rule="evenodd" d="M25.7829 11.8856C25.8051 11.4794 25.8051 11.0507 25.7829 10.6445C25.7829 10.8025 25.8051 12.1339 24.6953 12.7431C24.6953 12.7207 25.4565 12.4949 25.7829 11.8856Z" fill="#595961"/>
<path opacity="0.42" fill-rule="evenodd" clip-rule="evenodd" d="M16.261 13.7351C16.3916 13.3289 16.4792 12.9228 16.5652 12.5391C16.5222 12.6744 16.3264 13.9607 15 14.2767C15.0223 14.2767 15.8041 14.2541 16.261 13.7351Z" fill="#595961"/>
<path opacity="0.42" fill-rule="evenodd" clip-rule="evenodd" d="M18.8921 7.91329C19.1962 7.64252 19.4795 7.34916 19.7406 7.0332C19.6309 7.12341 18.7615 8.04868 17.5449 7.71014C17.5657 7.71014 18.2393 8.11645 18.8921 7.91329Z" fill="#595961"/>
<path opacity="0.42" fill-rule="evenodd" clip-rule="evenodd" d="M19.8678 6.87531C20.2164 6.64971 20.5429 6.42397 20.8678 6.17578C20.7387 6.24355 19.7387 6.9881 18.5859 6.44655C18.5859 6.44655 19.1942 6.96552 19.8678 6.87531Z" fill="#595961"/>
<path opacity="0.62" fill-rule="evenodd" clip-rule="evenodd" d="M21.1949 6.1307C21.5866 6.01776 21.956 5.88237 22.3255 5.74698C22.1949 5.79216 21.0214 6.19832 20.0645 5.34082C20.0645 5.34082 20.5214 6.01776 21.1949 6.1307Z" fill="#595961"/>
<path opacity="0.62" fill-rule="evenodd" clip-rule="evenodd" d="M22.3028 5.72494C22.6084 5.77012 22.9126 5.79271 23.2168 5.8153C23.1085 5.79271 22.1737 5.72495 21.7598 4.82227C21.782 4.82227 21.8904 5.43158 22.3028 5.72494Z" fill="#595961"/>
<path opacity="0.62" fill-rule="evenodd" clip-rule="evenodd" d="M23.4778 6.22068C23.6737 6.46887 23.8681 6.71705 24.0639 6.9428C23.9986 6.85244 23.3903 6.10789 23.6944 5.18262C23.7167 5.18262 23.3903 5.70172 23.4778 6.22068Z" fill="#595961"/>
<path fill-rule="evenodd" clip-rule="evenodd" d="M24.9789 12.8778C24.9996 12.6296 25.74 6.92049 23.6748 5.1829C23.2831 4.8445 22.8054 4.68652 22.2832 4.68652C21.8915 4.68652 21.4568 4.77673 20.9999 4.9573C19 5.702 17.3264 7.71037 16.1529 10.7792C15.2612 13.081 14.9793 15.1345 14.957 15.2247C14.957 15.2923 15.0001 15.3601 15.0654 15.3601H15.0876C15.1529 15.3601 15.1959 15.3149 15.1959 15.2473C15.2182 15.157 16.3917 6.92049 21.0651 5.1603C22.065 4.77673 22.9137 4.8445 23.522 5.36346C25.4996 7.01069 24.7608 12.765 24.7401 12.8328C24.7401 12.9004 24.7831 12.9682 24.8484 12.9682C24.8484 12.9682 24.8483 12.9682 24.8691 12.9682C24.9344 12.9908 24.9789 12.9456 24.9789 12.8778Z" fill="url(#paint22_linear_6004_288392)"/>
<path fill-rule="evenodd" clip-rule="evenodd" d="M25.8483 10.0573C25.7607 7.62022 25.2177 5.97284 24.2178 5.11534C23.6748 4.66414 23.022 4.46099 22.2832 4.50616C22.8485 4.5512 23.3692 4.75435 23.8054 5.11534C24.8053 5.9504 25.3483 7.62022 25.4343 10.0573C25.4996 11.7723 25.3053 13.2616 25.3053 13.3294C25.2608 13.6001 25.0872 13.8033 24.8691 13.8709C24.9136 13.8935 24.9344 13.8935 24.9789 13.8935C25.326 13.9387 25.6525 13.6903 25.6955 13.3294C25.7178 13.2616 25.9135 11.7949 25.8483 10.0573Z" fill="url(#paint23_linear_6004_288392)"/>
<path fill-rule="evenodd" clip-rule="evenodd" d="M21.0446 6.06345C16.6754 7.71068 15.5226 15.6313 15.5226 15.7216C15.4796 15.9923 15.3045 16.1955 15.0879 16.2631C15.1309 16.2857 15.1532 16.2857 15.1962 16.2857C15.2184 16.2857 15.2615 16.2857 15.2838 16.2857C15.6102 16.2857 15.8698 16.0375 15.9143 15.7216C15.935 15.6313 17.0656 7.73327 21.4348 6.08589C21.7404 5.97309 22.0001 5.90547 22.2405 5.88288C21.9141 5.8377 21.5001 5.90547 21.0446 6.06345Z" fill="url(#paint24_linear_6004_288392)"/>
<defs>
<linearGradient id="paint0_linear_6004_288392" x1="20.4156" y1="5.91129" x2="19.7338" y2="15.1936" gradientUnits="userSpaceOnUse">
<stop stop-color="white" stop-opacity="0.65"/>
<stop offset="1" stop-color="white" stop-opacity="0.01"/>
</linearGradient>
<linearGradient id="paint1_linear_6004_288392" x1="25.3977" y1="11.2244" x2="30.1977" y2="15.4286" gradientUnits="userSpaceOnUse">
<stop stop-opacity="0.01"/>
<stop offset="1" stop-opacity="0.4"/>
</linearGradient>
<linearGradient id="paint2_linear_6004_288392" x1="23.4738" y1="16.0875" x2="28.5544" y2="11.3552" gradientUnits="userSpaceOnUse">
<stop stop-opacity="0.01"/>
<stop offset="1" stop-opacity="0.4"/>
</linearGradient>
<linearGradient id="paint3_linear_6004_288392" x1="17.007" y1="2.27795" x2="-2.72672" y2="25.0156" gradientUnits="userSpaceOnUse">
<stop stop-color="#B8D26E"/>
<stop offset="1" stop-color="#7FB525"/>
</linearGradient>
<linearGradient id="paint4_linear_6004_288392" x1="44.0004" y1="7.97062" x2="33.1702" y2="8.17173" gradientUnits="userSpaceOnUse">
<stop stop-color="#B4E034"/>
<stop offset="1" stop-color="#60A927"/>
</linearGradient>
<linearGradient id="paint5_linear_6004_288392" x1="11.787" y1="23.1315" x2="2.90764" y2="44.7546" gradientUnits="userSpaceOnUse">
<stop stop-color="white"/>
<stop offset="1" stop-color="#CECEEB"/>
</linearGradient>
<linearGradient id="paint6_linear_6004_288392" x1="24.5184" y1="76.3828" x2="38.5815" y2="76.3543" gradientUnits="userSpaceOnUse">
<stop stop-color="#1D1D1B" stop-opacity="0.5"/>
<stop offset="0.038033" stop-color="#1D1D1B" stop-opacity="0.4837"/>
<stop offset="0.4243" stop-color="#1D1D1B" stop-opacity="0.3185"/>
<stop offset="1" stop-color="#1D1D1B" stop-opacity="0.01"/>
</linearGradient>
<linearGradient id="paint7_linear_6004_288392" x1="26.1518" y1="8.70132" x2="23.8187" y2="9.95698" gradientUnits="userSpaceOnUse">
<stop stop-opacity="0.01"/>
<stop offset="1" stop-opacity="0.4"/>
</linearGradient>
<linearGradient id="paint8_linear_6004_288392" x1="16.3704" y1="12.4251" x2="14.7303" y2="13.8345" gradientUnits="userSpaceOnUse">
<stop stop-opacity="0.01"/>
<stop offset="1" stop-opacity="0.4"/>
</linearGradient>
<linearGradient id="paint9_linear_6004_288392" x1="32.3682" y1="40.8988" x2="32.5343" y2="43.0875" gradientUnits="userSpaceOnUse">
<stop stop-opacity="0.01"/>
<stop offset="1" stop-opacity="0.4"/>
</linearGradient>
<linearGradient id="paint10_linear_6004_288392" x1="28.4915" y1="37.6945" x2="28.8765" y2="43.3852" gradientUnits="userSpaceOnUse">
<stop stop-color="white" stop-opacity="0.5"/>
<stop offset="0.0896271" stop-color="white" stop-opacity="0.4552"/>
<stop offset="1" stop-color="white" stop-opacity="0.01"/>
</linearGradient>
<linearGradient id="paint11_linear_6004_288392" x1="27.7512" y1="38.5796" x2="28.436" y2="44.6585" gradientUnits="userSpaceOnUse">
<stop stop-opacity="0.01"/>
<stop offset="1" stop-opacity="0.4"/>
</linearGradient>
<linearGradient id="paint12_linear_6004_288392" x1="25.0649" y1="3.60605" x2="7.50308" y2="13.7631" gradientUnits="userSpaceOnUse">
<stop stop-color="white" stop-opacity="0.5"/>
<stop offset="1" stop-color="white" stop-opacity="0.01"/>
</linearGradient>
<linearGradient id="paint13_linear_6004_288392" x1="28.4534" y1="56.6902" x2="43.9542" y2="56.7215" gradientUnits="userSpaceOnUse">
<stop stop-color="#1D1D1B" stop-opacity="0.5"/>
<stop offset="0.0896271" stop-color="#1D1D1B" stop-opacity="0.4552"/>
<stop offset="1" stop-color="#1D1D1B" stop-opacity="0.01"/>
</linearGradient>
<linearGradient id="paint14_linear_6004_288392" x1="39.5531" y1="10.7601" x2="37.3511" y2="11.2996" gradientUnits="userSpaceOnUse">
<stop stop-color="white" stop-opacity="0.4"/>
<stop offset="1" stop-color="white" stop-opacity="0.01"/>
</linearGradient>
<linearGradient id="paint15_linear_6004_288392" x1="19.7977" y1="43.7277" x2="20.9427" y2="38.2075" gradientUnits="userSpaceOnUse">
<stop stop-color="#1D1D1B" stop-opacity="0.5"/>
<stop offset="0.0896271" stop-color="#1D1D1B" stop-opacity="0.4552"/>
<stop offset="1" stop-color="#1D1D1B" stop-opacity="0.01"/>
</linearGradient>
<linearGradient id="paint16_linear_6004_288392" x1="26.4174" y1="75.6803" x2="40.5311" y2="75.6925" gradientUnits="userSpaceOnUse">
<stop stop-color="#1D1D1B" stop-opacity="0.5"/>
<stop offset="1" stop-color="#1D1D1B" stop-opacity="0.01"/>
</linearGradient>
<linearGradient id="paint17_linear_6004_288392" x1="13.5211" y1="7.21127" x2="6.676" y2="33.5098" gradientUnits="userSpaceOnUse">
<stop stop-color="white" stop-opacity="0.5"/>
<stop offset="1" stop-color="white" stop-opacity="0.01"/>
</linearGradient>
<linearGradient id="paint18_linear_6004_288392" x1="13.5211" y1="7.21127" x2="6.676" y2="33.5098" gradientUnits="userSpaceOnUse">
<stop stop-color="white" stop-opacity="0.5"/>
<stop offset="1" stop-color="white" stop-opacity="0.01"/>
</linearGradient>
<linearGradient id="paint19_linear_6004_288392" x1="30.1317" y1="34.779" x2="24.7213" y2="42.2257" gradientUnits="userSpaceOnUse">
<stop stop-color="white" stop-opacity="0.5"/>
<stop offset="0.0896271" stop-color="white" stop-opacity="0.4552"/>
<stop offset="1" stop-color="white" stop-opacity="0.01"/>
</linearGradient>
<linearGradient id="paint20_linear_6004_288392" x1="31.7644" y1="36.4911" x2="31.2287" y2="37.6919" gradientUnits="userSpaceOnUse">
<stop stop-opacity="0.01"/>
<stop offset="1" stop-opacity="0.4"/>
</linearGradient>
<linearGradient id="paint21_linear_6004_288392" x1="37.0768" y1="38.0788" x2="37.0504" y2="38.4016" gradientUnits="userSpaceOnUse">
<stop stop-opacity="0.01"/>
<stop offset="1" stop-opacity="0.4"/>
</linearGradient>
<linearGradient id="paint22_linear_6004_288392" x1="17.5949" y1="3.92691" x2="15.256" y2="13.1669" gradientUnits="userSpaceOnUse">
<stop stop-color="white" stop-opacity="0.65"/>
<stop offset="1" stop-color="white" stop-opacity="0.01"/>
</linearGradient>
<linearGradient id="paint23_linear_6004_288392" x1="22.8292" y1="9.25727" x2="26.8979" y2="13.3938" gradientUnits="userSpaceOnUse">
<stop stop-opacity="0.01"/>
<stop offset="1" stop-opacity="0.4"/>
</linearGradient>
<linearGradient id="paint24_linear_6004_288392" x1="20.2287" y1="15.3491" x2="25.8502" y2="9.57575" gradientUnits="userSpaceOnUse">
<stop stop-opacity="0.01"/>
<stop offset="1" stop-opacity="0.4"/>
</linearGradient>
</defs>
</svg>
