<svg width="45" height="45" viewBox="0 0 45 45" fill="none" xmlns="http://www.w3.org/2000/svg">
<rect x="0.792969" y="0.4375" width="44" height="44" rx="8" fill="#111111"/>
<path fill-rule="evenodd" clip-rule="evenodd" d="M14.8293 11.2183L22.6263 10.4375L30.4232 11.2183L36.4596 18.8936L22.6263 34.1517L8.79297 18.8936L14.8293 11.2183Z" fill="#FDB300"/>
<path d="M14.3961 18.8828L22.6262 34.141L8.79297 18.8828H14.3961ZM30.8565 18.8828L22.6264 34.141L36.4596 18.8828" fill="#F3F3F4"/>
<path fill-rule="evenodd" clip-rule="evenodd" d="M14.3945 18.8945H30.8548L22.6246 34.1527" fill="#E2E2E2"/>
<path d="M22.6246 10.4375L14.8277 11.2181L14.3945 18.8935L22.6246 10.4375ZM22.6246 10.4375L30.4217 11.2181L30.8549 18.8935" fill="#E2E2E2"/>
<path d="M36.4596 18.8824L30.4233 11.207L30.8565 18.8824H36.4596ZM8.79297 18.8824L14.8292 11.207L14.3961 18.8824" fill="white"/>
<path fill-rule="evenodd" clip-rule="evenodd" d="M22.6246 10.4375L14.3945 18.8935H30.8548" fill="white"/>
</svg>
