<svg width="93" height="95" viewBox="0 0 93 95" fill="none" xmlns="http://www.w3.org/2000/svg">
<path d="M15.1778 91.0001C13.5438 91.0001 12.1432 90.7083 10.9761 90.1248C9.82564 89.5245 8.83358 88.6575 7.99992 87.5237L10.3508 84.8727C11.1678 86.0065 11.9765 86.7818 12.7768 87.1986C13.5938 87.5988 14.4691 87.7988 15.4028 87.7988C15.9197 87.7988 16.3782 87.7238 16.7784 87.5737C17.1952 87.4237 17.5204 87.2153 17.7538 86.9485C18.0039 86.6817 18.1289 86.3733 18.1289 86.0231C18.1289 85.7564 18.0706 85.5146 17.9539 85.2978C17.8371 85.0644 17.6704 84.8643 17.4537 84.6976C17.2369 84.5142 16.9785 84.3558 16.6784 84.2224C16.3782 84.0724 16.0448 83.9473 15.678 83.8473C15.3111 83.7472 14.911 83.6555 14.4775 83.5722C13.5438 83.3721 12.7268 83.1136 12.0265 82.7968C11.3262 82.4801 10.7427 82.0966 10.2758 81.6464C9.80897 81.1962 9.45883 80.6793 9.2254 80.0958C9.00865 79.4955 8.90027 78.8286 8.90027 78.095C8.90027 77.0612 9.19206 76.1609 9.77562 75.3939C10.3592 74.6103 11.1345 74.0017 12.1015 73.5682C13.0686 73.118 14.1357 72.8929 15.3028 72.8929C16.8868 72.8929 18.1873 73.1597 19.2044 73.6932C20.2381 74.2268 21.0634 74.9771 21.6803 75.9441L19.2794 78.2951C18.7625 77.5781 18.1706 77.0362 17.5037 76.6694C16.8367 76.3026 16.1198 76.1192 15.3528 76.1192C14.8193 76.1192 14.3441 76.1942 13.9273 76.3443C13.5271 76.4777 13.2187 76.6861 13.0019 76.9695C12.7851 77.2363 12.6768 77.5531 12.6768 77.9199C12.6768 78.22 12.7518 78.4868 12.9019 78.7202C13.0519 78.9537 13.2603 79.1621 13.5271 79.3455C13.8106 79.5122 14.1524 79.6623 14.5525 79.7957C14.9527 79.929 15.3945 80.0374 15.878 80.1208C16.7951 80.3042 17.6204 80.5543 18.354 80.8711C19.0876 81.1712 19.7129 81.538 20.2298 81.9715C20.7633 82.405 21.1718 82.9052 21.4552 83.4721C21.7387 84.039 21.8804 84.6726 21.8804 85.3729C21.8804 86.5567 21.597 87.5654 21.0301 88.3991C20.4632 89.2327 19.6795 89.8747 18.6791 90.3248C17.6788 90.775 16.5116 91.0001 15.1778 91.0001ZM28.9047 90.75V76.6194H23.8527V73.2431H37.9082V76.6194H32.6562V90.75H28.9047ZM37.6857 90.75L44.5634 73.2431H47.9147L54.7425 90.75H50.9159L47.3645 81.3213C47.2645 81.0378 47.1394 80.6877 46.9894 80.2708C46.856 79.854 46.7143 79.4122 46.5642 78.9453C46.4142 78.4785 46.2724 78.0366 46.139 77.6198C46.0223 77.1863 45.9223 76.8362 45.8389 76.5694L46.5142 76.5444C46.4142 76.9112 46.2974 77.303 46.1641 77.7198C46.0473 78.12 45.914 78.5368 45.7639 78.9703C45.6305 79.4038 45.4888 79.8207 45.3387 80.2208C45.2053 80.621 45.072 81.0045 44.9386 81.3713L41.4122 90.75H37.6857ZM40.887 87.0735L42.1375 84.0223H50.1156L51.3911 87.0735H40.887ZM64.7642 91.0001C63.397 91.0001 62.1548 90.775 61.0377 90.3248C59.9206 89.8747 58.9536 89.2411 58.1366 88.4241C57.3196 87.6071 56.686 86.6484 56.2358 85.5479C55.8023 84.4475 55.5856 83.2554 55.5856 81.9715C55.5856 80.6877 55.8106 79.4955 56.2608 78.3951C56.7277 77.2947 57.3779 76.3443 58.2116 75.544C59.0619 74.727 60.054 74.0934 61.1878 73.6432C62.3216 73.193 63.5637 72.968 64.9143 72.968C65.848 72.968 66.74 73.093 67.5903 73.3431C68.4407 73.5932 69.216 73.935 69.9162 74.3685C70.6165 74.802 71.1917 75.3022 71.6419 75.8691L69.316 78.3201C68.6657 77.7032 67.9738 77.228 67.2402 76.8945C66.5066 76.5444 65.7146 76.3693 64.8642 76.3693C64.0806 76.3693 63.3553 76.511 62.6884 76.7945C62.0381 77.0612 61.4629 77.4531 60.9627 77.9699C60.4792 78.4701 60.0957 79.062 59.8122 79.7456C59.5455 80.4292 59.4121 81.1712 59.4121 81.9715C59.4121 82.7552 59.5538 83.4888 59.8372 84.1724C60.1374 84.856 60.5375 85.4562 61.0377 85.9731C61.5546 86.4733 62.1548 86.8735 62.8384 87.1736C63.522 87.457 64.2557 87.5988 65.0393 87.5988C65.5895 87.5988 66.1064 87.5154 66.5899 87.3487C67.0901 87.1652 67.5236 86.9235 67.8904 86.6234C68.2739 86.3232 68.574 85.9731 68.7908 85.5729C69.0075 85.1728 69.1159 84.7393 69.1159 84.2724V83.6722L69.5911 84.3725H64.6391V81.2212H72.6923C72.7257 81.4046 72.7507 81.6297 72.7674 81.8965C72.784 82.1633 72.7924 82.4217 72.7924 82.6718C72.809 82.9219 72.8174 83.1303 72.8174 83.297C72.8174 84.4308 72.6173 85.4729 72.2171 86.4233C71.817 87.357 71.2501 88.1656 70.5165 88.8492C69.7828 89.5329 68.9242 90.0664 67.9405 90.4499C66.9567 90.8167 65.898 91.0001 64.7642 91.0001ZM76.1529 90.75V73.2431H87.9576V76.5444H79.8293V87.4487H88.1326V90.75H76.1529ZM77.9036 83.4221V80.2208H86.7571V83.4221H77.9036Z" fill="#202020"/>
<rect x="0.146484" y="0.995605" width="92.0191" height="61.8704" rx="30.9352" fill="#202020"/>
<mask id="mask0_1163_11966" style="mask-type:alpha" maskUnits="userSpaceOnUse" x="0" y="0" width="93" height="63">
<rect x="0.146484" y="0.995605" width="92.0191" height="61.8704" rx="30.9352" fill="#D9D9D9"/>
</mask>
<g mask="url(#mask0_1163_11966)">
<path d="M21.7235 66.2492C30.9508 47.9226 37.5049 21.0509 40.2576 0.340059C33.0124 -2.99463 -0.207306 3.18704 -1.98815 31.4588C-3.41283 54.0763 13.4118 63.8904 21.7235 66.2492Z" fill="#7A0600"/>
<path d="M16.0679 64.6435C24.1357 56.181 34.7533 20.2647 39.9966 0.995712C33.0704 -2.95919 -0.269654 -0.0935137 -4.51362 27.9146C-7.90879 50.3211 7.99408 61.5676 16.0679 64.6435Z" fill="#C60C0C"/>
<path d="M4.69358 58.8156C13.3963 49.36 28.9661 16.0426 36.8624 -0.162661C30.5351 -5.01846 -2.73323 -7.53679 -10.7283 19.6394C-17.1244 41.3803 -2.88976 54.6754 4.69358 58.8156Z" fill="#E10D37"/>
<path d="M72.2121 66.2492C62.9848 47.9226 56.4307 21.0509 53.678 0.340059C60.9232 -2.99463 94.1429 3.18704 95.9237 31.4588C97.3484 54.0763 80.5238 63.8904 72.2121 66.2492Z" fill="#7A0600"/>
<path d="M77.8676 64.6435C69.7998 56.181 59.1822 20.2647 53.939 0.995712C60.8651 -2.95919 94.2052 -0.0935137 98.4492 27.9146C101.844 50.3211 85.9415 61.5676 77.8676 64.6435Z" fill="#C60C0C"/>
<path d="M89.242 58.8156C80.5393 49.36 64.9694 16.0426 57.0731 -0.162661C63.4004 -5.01846 96.6688 -7.53679 104.664 19.6394C111.06 41.3803 96.8253 54.6754 89.242 58.8156Z" fill="#E10D37"/>
</g>
</svg>
