<svg width="48" height="48" viewBox="0 0 48 48" fill="none" xmlns="http://www.w3.org/2000/svg">
<path d="M13.9943 6C14.2052 6 33.5834 6 33.9349 6C34.9052 6 35.8474 6.15469 36.7615 6.47813C38.0834 6.95625 39.2787 7.8 40.1787 8.89688C41.0927 9.99375 41.6974 11.3438 41.9084 12.75C41.9927 13.2703 42.0068 13.7906 42.0068 14.3109C42.0068 14.7891 42.0068 31.6359 42.0068 32.3953C42.0068 32.8453 42.0068 33.3094 42.0068 33.7594C42.0068 34.3781 41.9787 35.0109 41.8521 35.6156C41.5709 37.0078 40.9099 38.3156 39.9537 39.3703C39.0115 40.425 37.774 41.2125 36.438 41.6344C35.6224 41.8875 34.7787 42 33.9209 42C33.5412 42 13.938 42 13.6427 41.9859C12.2084 41.9156 10.788 41.4516 9.59274 40.65C8.42555 39.8625 7.4693 38.7656 6.85055 37.5C6.31617 36.4172 6.04899 35.2078 6.04899 33.9984C6.04899 33.7172 6.04899 14.2828 6.04899 14.0016C6.02086 12.8063 6.27399 11.625 6.7943 10.5563C7.39899 9.29063 8.34117 8.17969 9.50836 7.39219C10.7037 6.57656 12.1099 6.09844 13.5443 6.02813C13.6849 6 13.8396 6 13.9943 6Z" fill="url(#paint0_linear_6002_288369)"/>
<path d="M36.3672 35.4469C36.2406 35.25 36.1 35.0531 35.9453 34.8703C35.5938 34.4484 35.1859 34.0828 34.7359 33.7734C34.1734 33.3937 33.5125 33.1547 32.8375 33.1266C32.3594 33.0984 31.8812 33.1828 31.4312 33.3516C30.9812 33.5063 30.5453 33.7313 30.1234 33.9563C29.6313 34.2094 29.1391 34.4625 28.6187 34.6734C28 34.9266 27.3531 35.1234 26.6922 35.2641C25.8625 35.4188 25.0187 35.475 24.1891 35.4609C22.6844 35.4328 21.1797 35.2078 19.7453 34.7859C18.4797 34.4062 17.2703 33.8859 16.1312 33.225C15.1328 32.6484 14.2047 31.9875 13.3328 31.2422C12.6156 30.6234 11.9547 29.9625 11.3359 29.2594C10.9141 28.7672 10.5062 28.2469 10.1266 27.7125C9.97187 27.5016 9.83125 27.2766 9.70469 27.0516L5.99219 23.0437V13.9734C5.99219 9.57188 9.55 6 13.9516 6H21.0531L26.3125 11.3438C38.1813 19.4156 34.3422 28.3172 34.3422 28.3172C34.3422 28.3172 37.7172 32.1141 36.3672 35.4469Z" fill="url(#paint1_linear_6002_288369)"/>
<path d="M26.341 11.3438C38.2098 19.4156 34.3707 28.3172 34.3707 28.3172C34.3707 28.3172 37.7457 32.1281 36.3816 35.4609C36.3816 35.4609 34.9895 33.1266 32.6551 33.1266C30.4051 33.1266 29.0832 35.4609 24.5551 35.4609C14.4723 35.4609 9.70508 27.0375 9.70508 27.0375C18.7895 33.0141 24.991 28.7812 24.991 28.7812C20.8988 26.4047 12.1941 15.0422 12.1941 15.0422C19.7738 21.4969 23.0504 23.1984 23.0504 23.1984C21.0957 21.5813 15.6113 13.6781 15.6113 13.6781C19.9988 18.1219 28.7176 24.3234 28.7176 24.3234C31.1926 17.4609 26.341 11.3438 26.341 11.3438Z" fill="white"/>
<defs>
<linearGradient id="paint0_linear_6002_288369" x1="27.4085" y1="4.71542" x2="20.6069" y2="43.289" gradientUnits="userSpaceOnUse">
<stop stop-color="#FAAE42"/>
<stop offset="1" stop-color="#EF3E31"/>
</linearGradient>
<linearGradient id="paint1_linear_6002_288369" x1="24.3595" y1="6.58167" x2="19.3815" y2="34.813" gradientUnits="userSpaceOnUse">
<stop stop-color="#E39F3A"/>
<stop offset="1" stop-color="#D33929"/>
</linearGradient>
</defs>
</svg>
