<svg width="42" height="42" viewBox="0 0 42 42" fill="none" xmlns="http://www.w3.org/2000/svg">
<path d="M26.0826 6.67804C26.0826 9.3999 23.8765 11.6061 21.1546 11.6061C18.4327 11.6061 16.2266 9.3999 16.2266 6.67804C16.2266 3.95618 18.4327 1.75 21.1546 1.75C23.8765 1.75 26.0826 3.95618 26.0826 6.67804Z" fill="#202020"/>
<path d="M25.7109 13.1455C27.4461 13.1455 28.8527 14.4313 28.8527 16.0204V17.4575H13.1445V16.0204C13.1445 14.4326 14.5511 13.1455 16.2863 13.1455H25.7109Z" fill="#202020"/>
<path d="M14.6848 28.8538C14.6848 31.5753 12.5472 33.7819 9.91076 33.7819C7.27395 33.7819 5.13672 31.5753 5.13672 28.8538C5.13672 26.132 7.27395 23.9258 9.91076 23.9258C12.5472 23.9258 14.6848 26.132 14.6848 28.8538Z" fill="#202020"/>
<path d="M14.8096 35.3213C16.613 35.3213 18.0741 36.7905 18.0741 38.6069V40.2493H1.75V38.6069C1.75 36.7922 3.21179 35.3213 5.01517 35.3213H14.8096Z" fill="#202020"/>
<path d="M27.3164 10.1495C30.2501 12.1506 32.1802 15.5427 32.1802 19.3935C32.1802 20.2232 32.0835 21.0296 31.9134 21.8084C32.0038 21.8038 32.0884 21.7801 32.1802 21.7801C33.1875 21.7801 34.1421 22.0005 35.01 22.3864C35.2126 21.4219 35.3245 20.4207 35.3245 19.3935C35.3245 14.0822 32.4615 9.45822 28.2185 6.98633C28.1668 8.13439 27.8431 9.20353 27.3164 10.1501L27.3164 10.1495Z" fill="#202020"/>
<path d="M9.82006 21.7805C9.91217 21.7805 9.99639 21.8038 10.0869 21.8088C9.91645 21.0304 9.82006 20.224 9.82006 19.3941C9.82006 15.5445 11.7498 12.1511 14.6838 10.1511C14.1555 9.20524 13.8331 8.13563 13.7825 6.98633C9.53877 9.45828 6.67578 14.0829 6.67578 19.3938C6.67578 20.4206 6.78599 21.4213 6.99028 22.3864C7.85812 22.0006 8.81279 21.7802 9.82009 21.7802L9.82006 21.7805Z" fill="#202020"/>
<path d="M25.0428 29.7773C23.7896 30.2773 22.4285 30.5616 21.0003 30.5616C19.5722 30.5616 18.2127 30.2773 16.9579 29.7787C16.8326 30.8857 16.4799 31.9184 15.918 32.8159C17.4976 33.4304 19.2076 33.7814 21.0003 33.7814C22.7931 33.7814 24.5011 33.4304 26.082 32.8159C25.5208 31.9185 25.1684 30.8857 25.0428 29.7774V29.7773Z" fill="#202020"/>
<path d="M36.8645 28.8538C36.8645 31.5753 34.7272 33.7819 32.0904 33.7819C29.454 33.7819 27.3164 31.5753 27.3164 28.8538C27.3164 26.132 29.454 23.9258 32.0904 23.9258C34.7272 23.9258 36.8645 26.132 36.8645 28.8538Z" fill="#202020"/>
<path d="M37.1052 35.3213C38.8406 35.3213 40.2472 36.7905 40.2472 38.6069V40.2493H24.5391V38.6069C24.5391 36.7922 25.9454 35.3213 27.6804 35.3213H37.1052Z" fill="#202020"/>
</svg>
