<svg width="55" height="52" viewBox="0 0 55 52" fill="none" xmlns="http://www.w3.org/2000/svg">
<path d="M54.8537 26.0505C54.8537 27.43 54.187 29.9701 49.723 31.4864C47.4049 32.2739 44.3327 32.7074 41.0727 32.7074C40.2584 32.7074 39.4548 32.6805 38.6718 32.6273C39.2611 31.2143 39.5658 29.6989 39.5685 28.1682C40.0481 28.1905 40.5488 28.2031 41.0727 28.2031C46.9788 28.2031 50.0782 26.6638 50.3436 26.0366C50.3355 21.4491 46.2308 17.7157 41.1672 17.6696C41.1149 17.6705 41.0625 17.6737 41.0102 17.6737C40.9775 17.6737 40.9453 17.6714 40.9127 17.671C39.0058 17.692 37.1457 18.2647 35.5578 19.3202C34.3296 18.2427 32.8893 17.4342 31.3296 16.9469C32.2638 16.074 33.3148 15.3349 34.4527 14.7509C32.9202 13.0534 32.1059 10.8274 32.1815 8.54148C32.2572 6.25556 33.216 4.08819 34.8571 2.49536C36.4978 0.902076 38.6929 0.00761462 40.9798 5.48192e-05C43.2671 -0.007999 45.4675 0.871654 47.1195 2.45378C48.7714 4.0355 49.745 6.19657 49.8359 8.48158C49.9267 10.767 49.128 12.9984 47.6072 14.7063C51.9182 16.8866 54.8538 21.1537 54.8538 26.0504L54.8537 26.0505ZM41.0101 4.51885C39.8637 4.51885 38.7645 4.97434 37.9536 5.78465C37.1433 6.5954 36.6878 7.69476 36.6878 8.8411C36.6878 9.98744 37.1433 11.0867 37.9536 11.8976C38.7644 12.7079 39.8637 13.1634 41.0101 13.1634C42.1564 13.1634 43.2557 12.7079 44.0665 11.8976C44.8768 11.0868 45.3323 9.98744 45.3323 8.8411C45.331 7.69522 44.8751 6.59676 44.0648 5.78649C43.2545 4.97619 42.1561 4.52022 41.0102 4.51896L41.0101 4.51885ZM36.6879 28.1341C36.6893 30.2974 35.8933 32.3855 34.4521 33.999C38.7636 36.1793 41.6992 40.4464 41.6992 45.3431C41.6992 46.7226 41.0325 49.2627 36.5685 50.779C34.2504 51.5665 31.1782 52 27.9182 52C24.6582 52 21.5862 51.5664 19.268 50.779C14.8039 49.2622 14.1373 46.7221 14.1373 45.3431C14.1373 40.4796 17.0335 36.237 21.298 34.0438C19.3508 31.8827 18.5924 28.9014 19.2707 26.0732C19.949 23.2446 21.9768 20.9313 24.6923 19.8888C27.4077 18.8459 30.4623 19.2074 32.8597 20.8553C35.2566 22.5028 36.6884 25.2253 36.6879 28.1341V28.1341ZM18.6475 45.3292C18.9128 45.9565 22.0122 47.4956 27.9183 47.4956C33.8245 47.4956 36.9238 45.9564 37.1892 45.3292C37.1811 40.7416 33.0764 37.0082 28.0128 36.9622C27.9605 36.9631 27.9081 36.9662 27.8558 36.9662C27.8231 36.9662 27.7909 36.964 27.7582 36.9635C22.7251 37.0414 18.6557 40.7622 18.6477 45.3291L18.6475 45.3292ZM27.8557 23.8112C26.7093 23.8112 25.6101 24.2667 24.7992 25.077C23.9889 25.8878 23.5334 26.9871 23.5334 28.1335C23.5334 29.2798 23.9889 30.3791 24.7992 31.1899C25.61 32.0002 26.7093 32.4557 27.8557 32.4557C29.002 32.4557 30.1013 32.0003 30.9121 31.1899C31.7224 30.3792 32.1779 29.2798 32.1779 28.1335C32.1766 26.9876 31.7207 25.8891 30.9104 25.0789C30.1001 24.2686 29.0017 23.8126 27.8558 23.8113L27.8557 23.8112ZM22.3152 17.8156C20.8874 18.5874 19.6342 19.6457 18.6336 20.924C17.3669 20.3562 15.9961 20.0582 14.6077 20.0488C14.5554 20.0497 14.503 20.0528 14.4507 20.0528C14.418 20.0528 14.3858 20.0506 14.3531 20.0501C9.32001 20.128 5.25055 23.8488 5.24253 28.4157C5.50785 29.043 8.60721 30.5822 14.5134 30.5822C15.1742 30.5822 15.798 30.5621 16.3885 30.5272C16.717 32.0946 17.3644 33.5773 18.291 34.8833C17.0364 35.0198 15.7755 35.0878 14.5134 35.0864C11.2534 35.0864 8.18134 34.6529 5.86312 33.8654C1.39906 32.3487 0.732422 29.8086 0.732422 28.4296C0.732422 23.566 3.62863 19.3235 7.89316 17.1302C6.36069 15.4322 5.54641 13.2062 5.62201 10.9203C5.69762 8.63482 6.65646 6.46699 8.2976 4.87416C9.93831 3.28134 12.1334 2.38642 14.4202 2.37886C16.7075 2.37125 18.908 3.2509 20.5599 4.83258C22.2119 6.41464 23.1855 8.57537 23.2763 10.8608C23.3671 13.1458 22.5685 15.3772 21.0477 17.0855C21.4826 17.3066 21.9058 17.5504 22.3152 17.8157L22.3152 17.8156ZM14.4507 6.89835C13.3043 6.89835 12.2051 7.35384 11.3942 8.16416C10.5839 8.9749 10.1284 10.0743 10.1284 11.2206C10.1284 12.3669 10.5839 13.4662 11.3942 14.2771C12.205 15.0874 13.3043 15.5429 14.4507 15.5429C15.597 15.5429 16.6963 15.0874 17.5071 14.2771C18.3174 13.4663 18.7729 12.3669 18.7729 11.2206C18.7716 10.0747 18.3157 8.97626 17.5054 8.16599C16.6951 7.3557 15.5967 6.89972 14.4508 6.89846L14.4507 6.89835Z" fill="#505050"/>
</svg>
