<svg width="44" height="44" viewBox="0 0 44 44" fill="none" xmlns="http://www.w3.org/2000/svg">
<path d="M19.1309 28.4967L19.0862 28.6758L16.0836 29.572C15.2321 29.8408 14.2461 32.3504 13.4844 36.2942C16.039 37.8179 18.9965 38.6247 21.9992 38.6247C22.3577 38.6247 22.761 38.6247 23.1196 38.58C25.7188 38.4009 28.3182 37.6387 30.5589 36.2945C29.7971 32.3957 28.8111 29.7964 27.9596 29.5723L24.957 28.6761L24.9123 28.4969C24.8676 28.3625 24.7779 28.2281 24.5985 28.1384L24.2399 27.9142L24.4641 27.6454C24.7329 27.3766 24.9123 27.1077 25.0018 26.9283C25.3603 26.4353 25.6291 25.8976 25.8083 25.3596C25.898 25.1355 25.9874 24.9113 26.0771 24.6875L26.1218 24.5978L26.2115 24.5531C26.4357 24.374 26.5254 24.1498 26.5254 23.881V22.9848C26.5254 22.8057 26.4807 22.6262 26.3463 22.4471L26.3015 22.3574V21.0129C26.3015 18.9963 24.6435 17.3379 22.6266 17.3379H21.3271C19.3105 17.3379 17.6521 18.996 17.6521 21.0129V22.3574L17.6074 22.4471C17.5177 22.5815 17.4283 22.8057 17.4283 22.9848V23.881C17.4283 24.1498 17.5627 24.4187 17.7422 24.5531L17.8319 24.5978L17.8766 24.6875C17.9213 24.9117 18.011 25.1358 18.1007 25.3149C18.3249 25.8526 18.5937 26.3905 18.9523 26.8836C19.1314 27.1524 19.3108 27.3766 19.49 27.6007L19.7141 27.8695L19.4002 28.0937C19.3102 28.2725 19.1758 28.3622 19.1311 28.4966L19.1309 28.4967Z" fill="white"/>
<path d="M11.9612 35.3116C12.0509 34.8186 12.1853 34.3256 12.3197 33.7879C13.4401 29.172 14.6052 28.2758 15.5911 27.9619L17.2942 27.4689C17.0253 27.0207 16.7565 26.5277 16.577 26.0347C16.5323 25.9003 16.4426 25.7209 16.3979 25.5864L14.5604 25.0488L14.5157 24.8696C14.471 24.7352 14.3813 24.6008 14.2019 24.5111L13.8883 24.2422L14.1125 23.9734C14.2916 23.7493 14.471 23.5251 14.6502 23.2563C15.0087 22.7633 15.2775 22.2256 15.4567 21.7327C15.5464 21.5085 15.6358 21.2844 15.7255 21.0606L15.7702 20.9708L15.8599 20.9261C16.0841 20.747 16.1738 20.5229 16.1738 20.2541V19.3578C16.1738 19.1787 16.1291 18.9993 15.9947 18.8202L15.95 18.7304V17.3859C15.95 15.3693 14.2919 13.7109 12.275 13.7109H10.9755C8.95892 13.7109 7.30053 15.369 7.30053 17.3859V18.7304L7.25583 18.8202C7.16612 18.9546 7.07671 19.1787 7.07671 19.3578V20.2541C7.07671 20.5229 7.21113 20.7917 7.39057 20.9261L7.48028 20.9708L7.52499 21.0606C7.56969 21.2847 7.65941 21.5088 7.79383 21.688C8.01796 22.2256 8.28681 22.7636 8.64539 23.2566C8.82451 23.5255 9.00395 23.7496 9.18307 23.9737L9.40721 24.2426L9.09335 24.4667C8.91423 24.6011 8.82451 24.6909 8.7795 24.8253L8.73479 25.0044L5.7322 25.9006H5.6875C6.62845 29.665 8.86919 32.9811 11.9612 35.3117L11.9612 35.3116Z" fill="white"/>
<path d="M32.977 13.6641H31.6776C29.661 13.6641 28.0026 15.3221 28.0026 17.339V18.6836L27.9579 18.7733C27.8682 18.9524 27.8235 19.1315 27.8235 19.3106V20.2069C27.8235 20.4757 27.9579 20.7445 28.1373 20.879L28.227 20.9237L28.2717 21.0134C28.3615 21.2375 28.4062 21.4616 28.4959 21.6408C28.72 22.1784 28.9889 22.7164 29.3474 23.2094C29.4819 23.3886 29.6613 23.6577 29.8851 23.9266L30.1093 24.1954L29.7954 24.4195C29.6163 24.554 29.5266 24.6437 29.4815 24.7781L29.4368 24.9572L27.5994 25.4949C27.5547 25.674 27.4649 25.8087 27.4202 25.9879C27.2411 26.4361 26.972 26.9291 26.7031 27.4221L28.4062 27.9151C29.3921 28.1839 30.5572 29.1252 31.6776 33.6514C31.812 34.1891 31.9464 34.727 32.0361 35.2647C32.9774 34.5476 33.8736 33.7411 34.6354 32.8449C36.3832 30.8283 37.6826 28.4081 38.3104 25.8538H38.2657L35.2631 24.9576L35.2184 24.7785C35.1737 24.6441 35.0839 24.5097 34.9045 24.4199L34.5903 24.2405L34.8592 23.9717C35.0383 23.7475 35.2177 23.5234 35.3969 23.2546C35.7554 22.7616 36.0243 22.2239 36.2034 21.7309C36.2931 21.5068 36.3825 21.2827 36.4722 21.0588L36.5169 20.9691L36.6066 20.9244C36.8308 20.7453 36.9205 20.5212 36.9205 20.2523V19.3561C36.9205 19.177 36.8758 18.9976 36.7414 18.8184L36.6967 18.7287V17.3842C36.652 15.3222 35.0386 13.6642 32.977 13.6642L32.977 13.6641Z" fill="white"/>
<path d="M10.8392 7.435L9.45002 7.3903C12.9456 4.38771 17.3823 2.7294 21.9982 2.7294C26.614 2.7294 31.0508 4.38747 34.5463 7.38998L33.1571 7.43468L34.0087 8.24119L35.9806 8.15147L35.8909 6.22491L35.0394 5.41841L35.0841 6.80759C31.4541 3.62557 26.8381 1.92285 21.9981 1.92285C17.1581 1.92285 12.5422 3.62557 8.9122 6.76285L8.9569 5.37367L8.10534 6.22491L8.01562 8.19685L9.98756 8.28656L10.8392 7.435Z" fill="white"/>
<path d="M40.1039 13.0801L39.118 13.5731C40.4174 16.2171 41.0899 19.0405 41.0899 21.9534C41.0899 32.4849 32.5303 41.0445 21.9988 41.0445C11.4673 41.0445 2.90767 32.4849 2.90767 21.9534C2.90767 19.0406 3.57976 16.2171 4.8796 13.5731L3.89367 13.0801C2.50417 15.9035 1.83203 18.8614 1.83203 21.9086C1.83203 33.0227 10.8846 42.0753 21.9987 42.0753C33.1128 42.0753 42.1654 33.0227 42.1654 21.9086C42.1654 18.8614 41.4933 15.9035 40.1037 13.0801H40.1039Z" fill="white"/>
</svg>
