<svg width="48" height="48" viewBox="0 0 48 48" fill="none" xmlns="http://www.w3.org/2000/svg">
<path d="M20.8713 31.0892L20.8225 31.2846L17.547 32.2623C16.618 32.5556 15.5424 35.2933 14.7114 39.5957C17.4983 41.2578 20.7247 42.138 24.0003 42.138C24.3915 42.138 24.8314 42.138 25.2225 42.0892C28.0581 41.8938 30.8937 41.0624 33.3382 39.596C32.5071 35.3427 31.4315 32.5072 30.5026 32.2626L27.2271 31.2849L27.1783 31.0895C27.1295 30.9429 27.0317 30.7962 26.8359 30.6984L26.4448 30.4539L26.6893 30.1606C26.9826 29.8673 27.1783 29.574 27.2758 29.3783C27.667 28.8405 27.9603 28.2539 28.1557 27.667C28.2535 27.4225 28.3511 27.178 28.4489 26.9338L28.4977 26.8359L28.5956 26.7872C28.8401 26.5917 28.938 26.3472 28.938 26.054V25.0763C28.938 24.8809 28.8892 24.6851 28.7426 24.4897L28.6938 24.3918V22.9251C28.6938 20.7252 26.885 18.916 24.6847 18.916H23.2671C21.0672 18.916 19.2581 20.7248 19.2581 22.9251V24.3918L19.2093 24.4897C19.1114 24.6363 19.0139 24.8809 19.0139 25.0763V26.054C19.0139 26.3472 19.1605 26.6405 19.3563 26.7872L19.4542 26.8359L19.5029 26.9338C19.5517 27.1783 19.6496 27.4228 19.7474 27.6182C19.992 28.2048 20.2852 28.7916 20.6764 29.3295C20.8718 29.6228 21.0676 29.8673 21.263 30.1118L21.5075 30.4051L21.1651 30.6496C21.0669 30.8447 20.9202 30.9425 20.8715 31.0892L20.8713 31.0892Z" fill="#202020"/>
<path d="M13.0491 38.5194C13.1469 37.9816 13.2936 37.4438 13.4402 36.8573C14.6624 31.8217 15.9335 30.844 17.009 30.5016L18.8669 29.9638C18.5736 29.4748 18.2803 28.937 18.0846 28.3992C18.0358 28.2526 17.9379 28.0568 17.8892 27.9102L15.8846 27.3236L15.8359 27.1282C15.7871 26.9816 15.6892 26.8349 15.4935 26.737L15.1514 26.4438L15.396 26.1505C15.5914 25.906 15.7871 25.6615 15.9825 25.3682C16.3737 24.8304 16.6669 24.2438 16.8623 23.706C16.9602 23.4615 17.0578 23.217 17.1556 22.9729L17.2044 22.875L17.3023 22.8262C17.5468 22.6308 17.6447 22.3863 17.6447 22.093V21.1153C17.6447 20.9199 17.5959 20.7242 17.4492 20.5288L17.4005 20.4309V18.9641C17.4005 16.7642 15.5917 14.9551 13.3914 14.9551H11.9738C9.7739 14.9551 7.96475 16.7639 7.96475 18.9641V20.4309L7.91599 20.5288C7.81811 20.6754 7.72058 20.9199 7.72058 21.1153V22.093C7.72058 22.3863 7.86722 22.6796 8.06297 22.8262L8.16084 22.875L8.20961 22.9729C8.25837 23.2174 8.35625 23.4619 8.50289 23.6573C8.7474 24.2438 9.04068 24.8307 9.43187 25.3686C9.62727 25.6618 9.82302 25.9064 10.0184 26.1509L10.2629 26.4442L9.92055 26.6887C9.72515 26.8353 9.62727 26.9332 9.57817 27.0798L9.5294 27.2752L6.25384 28.2529H6.20508C7.23157 32.3595 9.67601 35.9771 13.0491 38.5196L13.0491 38.5194Z" fill="#202020"/>
<path d="M35.9776 14.9062H34.56C32.36 14.9062 30.5509 16.7151 30.5509 18.9153V20.3821L30.5021 20.4799C30.4043 20.6753 30.3555 20.8708 30.3555 21.0662V22.0438C30.3555 22.3371 30.5021 22.6304 30.6979 22.777L30.7957 22.8258L30.8445 22.9237C30.9424 23.1682 30.9912 23.4127 31.089 23.6081C31.3335 24.1947 31.6268 24.7815 32.018 25.3194C32.1646 25.5148 32.3604 25.8084 32.6046 26.1017L32.8491 26.395L32.5067 26.6395C32.3113 26.7861 32.2134 26.884 32.1643 27.0306L32.1155 27.226L30.111 27.8126C30.0622 28.008 29.9644 28.155 29.9156 28.3504C29.7202 28.8394 29.4266 29.3772 29.1333 29.915L30.9912 30.4528C32.0667 30.7461 33.3377 31.7729 34.56 36.7106C34.7066 37.2972 34.8532 37.884 34.9511 38.4706C35.978 37.6883 36.9557 36.8085 37.7867 35.8308C39.6933 33.6309 41.1109 30.9907 41.7957 28.2042H41.747L38.4714 27.2265L38.4227 27.0311C38.3739 26.8845 38.276 26.7378 38.0803 26.6399L37.7375 26.4442L38.0308 26.1509C38.2262 25.9064 38.422 25.6619 38.6174 25.3686C39.0085 24.8308 39.3018 24.2443 39.4972 23.7065C39.5951 23.462 39.6926 23.2174 39.7905 22.9733L39.8393 22.8754L39.9371 22.8266C40.1816 22.6312 40.2795 22.3867 40.2795 22.0934V21.1158C40.2795 20.9204 40.2308 20.7246 40.0841 20.5292L40.0353 20.4313V18.9646C39.9866 16.7152 38.2265 14.9064 35.9776 14.9064L35.9776 14.9062Z" fill="#202020"/>
<path d="M11.8268 8.11091L10.3114 8.06214C14.1247 4.78659 18.9648 2.97753 24.0003 2.97753C29.0357 2.97753 33.8758 4.78633 37.6892 8.0618L36.1737 8.11056L37.1027 8.99039L39.2539 8.89251L39.156 6.79081L38.227 5.91099L38.2758 7.42646C34.3159 3.95517 29.2802 2.09766 24.0002 2.09766C18.7202 2.09766 13.6847 3.95517 9.72467 7.37766L9.77343 5.86219L8.84446 6.79081L8.74658 8.94201L10.8978 9.03989L11.8268 8.11091Z" fill="#202020"/>
<path d="M43.7511 14.2715L42.6756 14.8093C44.0932 17.6936 44.8268 20.7737 44.8268 23.9515C44.8268 35.4404 35.489 44.7782 24.0001 44.7782C12.5112 44.7782 3.17342 35.4404 3.17342 23.9515C3.17342 20.7739 3.90661 17.6937 5.32462 14.8093L4.24906 14.2715C2.73325 17.3516 2 20.5783 2 23.9026C2 36.027 11.8756 45.9026 24 45.9026C36.1244 45.9026 46 36.027 46 23.9026C46 20.5783 45.2668 17.3516 43.7509 14.2715H43.7511Z" fill="#202020"/>
</svg>
