<svg width="358" height="193" viewBox="0 0 358 193" fill="none" xmlns="http://www.w3.org/2000/svg">
<path d="M32.64 105.121V111.901H21.48V147.001H13.08V111.901H1.92V105.121H32.64ZM57.4889 113.281C60.0089 113.281 62.2489 113.841 64.2089 114.961C66.1689 116.041 67.6889 117.661 68.7689 119.821C69.8889 121.941 70.4489 124.501 70.4489 127.501V147.001H62.0489V128.641C62.0489 126.001 61.3889 123.981 60.0689 122.581C58.7489 121.141 56.9489 120.421 54.6689 120.421C52.3489 120.421 50.5089 121.141 49.1489 122.581C47.8289 123.981 47.1689 126.001 47.1689 128.641V147.001H38.7689V102.601H47.1689V117.901C48.2489 116.461 49.6889 115.341 51.4889 114.541C53.2889 113.701 55.2889 113.281 57.4889 113.281ZM76.2769 130.261C76.2769 126.901 76.9369 123.921 78.2569 121.321C79.6169 118.721 81.4369 116.721 83.7169 115.321C86.0369 113.921 88.6169 113.221 91.4569 113.221C93.9369 113.221 96.0969 113.721 97.9369 114.721C99.8169 115.721 101.317 116.981 102.437 118.501V113.761H110.897V147.001H102.437V142.141C101.357 143.701 99.8569 145.001 97.9369 146.041C96.0569 147.041 93.8769 147.541 91.3969 147.541C88.5969 147.541 86.0369 146.821 83.7169 145.381C81.4369 143.941 79.6169 141.921 78.2569 139.321C76.9369 136.681 76.2769 133.661 76.2769 130.261ZM102.437 130.381C102.437 128.341 102.037 126.601 101.237 125.161C100.437 123.681 99.3569 122.561 97.9969 121.801C96.6369 121.001 95.1769 120.601 93.6169 120.601C92.0569 120.601 90.6169 120.981 89.2969 121.741C87.9769 122.501 86.8969 123.621 86.0569 125.101C85.2569 126.541 84.8569 128.261 84.8569 130.261C84.8569 132.261 85.2569 134.021 86.0569 135.541C86.8969 137.021 87.9769 138.161 89.2969 138.961C90.6569 139.761 92.0969 140.161 93.6169 140.161C95.1769 140.161 96.6369 139.781 97.9969 139.021C99.3569 138.221 100.437 137.101 101.237 135.661C102.037 134.181 102.437 132.421 102.437 130.381ZM137.521 113.281C141.481 113.281 144.681 114.541 147.121 117.061C149.561 119.541 150.781 123.021 150.781 127.501V147.001H142.381V128.641C142.381 126.001 141.721 123.981 140.401 122.581C139.081 121.141 137.281 120.421 135.001 120.421C132.681 120.421 130.841 121.141 129.481 122.581C128.161 123.981 127.501 126.001 127.501 128.641V147.001H119.101V113.761H127.501V117.901C128.621 116.461 130.041 115.341 131.761 114.541C133.521 113.701 135.441 113.281 137.521 113.281ZM178.449 147.001L167.169 132.841V147.001H158.769V102.601H167.169V127.861L178.329 113.761H189.249L174.609 130.441L189.369 147.001H178.449ZM241.405 105.121L227.245 132.421V147.001H218.845V132.421L204.625 105.121H214.105L223.105 124.261L232.045 105.121H241.405ZM261.009 147.541C257.809 147.541 254.929 146.841 252.369 145.441C249.809 144.001 247.789 141.981 246.309 139.381C244.869 136.781 244.149 133.781 244.149 130.381C244.149 126.981 244.889 123.981 246.369 121.381C247.889 118.781 249.949 116.781 252.549 115.381C255.149 113.941 258.049 113.221 261.249 113.221C264.449 113.221 267.349 113.941 269.949 115.381C272.549 116.781 274.589 118.781 276.069 121.381C277.589 123.981 278.349 126.981 278.349 130.381C278.349 133.781 277.569 136.781 276.009 139.381C274.489 141.981 272.409 144.001 269.769 145.441C267.169 146.841 264.249 147.541 261.009 147.541ZM261.009 140.221C262.529 140.221 263.949 139.861 265.269 139.141C266.629 138.381 267.709 137.261 268.509 135.781C269.309 134.301 269.709 132.501 269.709 130.381C269.709 127.221 268.869 124.801 267.189 123.121C265.549 121.401 263.529 120.541 261.129 120.541C258.729 120.541 256.709 121.401 255.069 123.121C253.469 124.801 252.669 127.221 252.669 130.381C252.669 133.541 253.449 135.981 255.009 137.701C256.609 139.381 258.609 140.221 261.009 140.221ZM315.891 113.761V147.001H307.431V142.801C306.351 144.241 304.931 145.381 303.171 146.221C301.451 147.021 299.571 147.421 297.531 147.421C294.931 147.421 292.631 146.881 290.631 145.801C288.631 144.681 287.051 143.061 285.891 140.941C284.771 138.781 284.211 136.221 284.211 133.261V113.761H292.611V132.061C292.611 134.701 293.271 136.741 294.591 138.181C295.911 139.581 297.711 140.281 299.991 140.281C302.311 140.281 304.131 139.581 305.451 138.181C306.771 136.741 307.431 134.701 307.431 132.061V113.761H315.891Z" fill="#202020"/>
<path d="M20 153.999C49.3333 182.666 96 199.999 135 187.999C213.263 163.918 202 53.999 305 53.999" stroke="#505050" stroke-dasharray="8 8"/>
<path d="M317.13 8.27203L318.716 4.09916C318.753 3.98931 318.916 4.0045 318.944 4.11407L321.722 15.5918C321.747 15.6875 322.245 17.2335 322.461 17.679C323.877 20.5859 330.19 30.8885 330.747 37.408C330.75 37.4357 330.746 37.4572 330.734 37.4731L327.325 43.825C327.286 43.9072 327.173 43.9069 327.123 43.8421C326.34 42.7254 321.24 35.9882 309.566 30.7445C309.529 30.728 309.496 30.6895 309.491 30.6481C309.428 29.3173 305.711 24.9701 312.08 23.4662C312.142 23.4513 312.176 23.391 312.176 23.3276C311.874 21.9344 309.72 17.1794 315.278 14.8506C315.312 14.8395 315.336 14.8081 315.345 14.765C315.644 13.3409 315.765 9.33899 317.109 8.33098C317.107 8.31726 317.125 8.29358 317.13 8.27203Z" fill="#202020"/>
<path d="M326.551 45.4038C323.393 54.8035 304.375 50.0626 303.15 48.9635C294.711 41.1165 308.83 32.0518 309.279 31.7996C322.935 37.303 326.542 45.3832 326.551 45.403L326.551 45.4038Z" fill="#202020"/>
<path d="M331.515 36.6036C331.472 36.5948 331.439 36.5564 331.428 36.5227C331.241 35.848 329.05 27.8216 327.304 25.3348C327.065 24.9836 327.126 24.5037 327.476 24.2504C328.532 23.4815 330.546 22.2584 331.201 23.475C331.4 23.8455 331.875 23.9784 332.251 23.7705C335.443 22.0383 346.193 16.3255 346.217 19.5005C346.217 19.6134 346.188 19.7293 346.139 19.8411C344.966 22.2023 332.82 36.7837 331.515 36.6037L331.515 36.6036Z" fill="#202020"/>
<path d="M333.091 37.3491C333.091 37.3491 333.336 37.1645 334.5 36.8823C335.375 36.6638 335.998 36.9756 336.484 37.5578C336.524 37.6023 336.581 37.6094 336.635 37.5885C339.262 36.0658 347.17 31.6208 346.568 32.5812C345.965 33.5419 339.339 36.5282 336.769 37.6424C336.695 37.6727 336.677 37.7593 336.727 37.8237C336.96 38.1196 337.045 38.2359 337.127 38.5641C337.138 38.5978 337.163 38.8065 337.168 38.9608C337.162 39.0319 337.232 39.0869 337.302 39.0784C340.935 38.7089 347.802 37.7081 349.653 37.2233C349.768 37.1883 349.85 37.3403 349.761 37.4215C347.868 39.243 340.881 39.3709 337.246 39.3106C337.182 39.3109 337.138 39.3517 337.131 39.4094C336.385 43.6633 334.033 41.8065 333.472 41.3039C333.416 41.2473 333.32 41.2732 333.286 41.3335C332.321 43.3172 328.436 46.655 326.127 48.3649C326.017 48.4417 325.889 48.3163 325.961 48.2092C326.812 46.8662 327.798 44.6474 328.194 43.9654C328.217 43.9202 328.234 43.8832 328.256 43.8384C330.677 37.9448 333.091 37.3491 333.091 37.3491Z" fill="#202020"/>
<path d="M322.405 56.9081C324.242 55.9599 328.217 53.2511 329.426 50.001" stroke="#202020"/>
</svg>
