<svg width="537" height="193" viewBox="0 0 537 193" fill="none" xmlns="http://www.w3.org/2000/svg">
<path d="M32.64 100.12V106.9H21.48V142H13.08V106.9H1.92V100.12H32.64ZM57.4889 108.28C60.0089 108.28 62.2489 108.84 64.2089 109.96C66.1689 111.04 67.6889 112.66 68.7689 114.82C69.8889 116.94 70.4489 119.5 70.4489 122.5V142H62.0489V123.64C62.0489 121 61.3889 118.98 60.0689 117.58C58.7489 116.14 56.9489 115.42 54.6689 115.42C52.3489 115.42 50.5089 116.14 49.1489 117.58C47.8289 118.98 47.1689 121 47.1689 123.64V142H38.7689V97.6H47.1689V112.9C48.2489 111.46 49.6889 110.34 51.4889 109.54C53.2889 108.7 55.2889 108.28 57.4889 108.28ZM76.2769 125.26C76.2769 121.9 76.9369 118.92 78.2569 116.32C79.6169 113.72 81.4369 111.72 83.7169 110.32C86.0369 108.92 88.6169 108.22 91.4569 108.22C93.9369 108.22 96.0969 108.72 97.9369 109.72C99.8169 110.72 101.317 111.98 102.437 113.5V108.76H110.897V142H102.437V137.14C101.357 138.7 99.8569 140 97.9369 141.04C96.0569 142.04 93.8769 142.54 91.3969 142.54C88.5969 142.54 86.0369 141.82 83.7169 140.38C81.4369 138.94 79.6169 136.92 78.2569 134.32C76.9369 131.68 76.2769 128.66 76.2769 125.26ZM102.437 125.38C102.437 123.34 102.037 121.6 101.237 120.16C100.437 118.68 99.3569 117.56 97.9969 116.8C96.6369 116 95.1769 115.6 93.6169 115.6C92.0569 115.6 90.6169 115.98 89.2969 116.74C87.9769 117.5 86.8969 118.62 86.0569 120.1C85.2569 121.54 84.8569 123.26 84.8569 125.26C84.8569 127.26 85.2569 129.02 86.0569 130.54C86.8969 132.02 87.9769 133.16 89.2969 133.96C90.6569 134.76 92.0969 135.16 93.6169 135.16C95.1769 135.16 96.6369 134.78 97.9969 134.02C99.3569 133.22 100.437 132.1 101.237 130.66C102.037 129.18 102.437 127.42 102.437 125.38ZM137.521 108.28C141.481 108.28 144.681 109.54 147.121 112.06C149.561 114.54 150.781 118.02 150.781 122.5V142H142.381V123.64C142.381 121 141.721 118.98 140.401 117.58C139.081 116.14 137.281 115.42 135.001 115.42C132.681 115.42 130.841 116.14 129.481 117.58C128.161 118.98 127.501 121 127.501 123.64V142H119.101V108.76H127.501V112.9C128.621 111.46 130.041 110.34 131.761 109.54C133.521 108.7 135.441 108.28 137.521 108.28ZM178.449 142L167.169 127.84V142H158.769V97.6H167.169V122.86L178.329 108.76H189.249L174.609 125.44L189.369 142H178.449ZM239.905 108.76L219.325 157.72H210.385L217.585 141.16L204.265 108.76H213.685L222.265 131.98L230.965 108.76H239.905ZM259.193 142.54C255.993 142.54 253.113 141.84 250.553 140.44C247.993 139 245.973 136.98 244.493 134.38C243.053 131.78 242.333 128.78 242.333 125.38C242.333 121.98 243.073 118.98 244.553 116.38C246.073 113.78 248.133 111.78 250.733 110.38C253.333 108.94 256.233 108.22 259.433 108.22C262.633 108.22 265.533 108.94 268.133 110.38C270.733 111.78 272.773 113.78 274.253 116.38C275.773 118.98 276.533 121.98 276.533 125.38C276.533 128.78 275.753 131.78 274.193 134.38C272.673 136.98 270.593 139 267.953 140.44C265.353 141.84 262.433 142.54 259.193 142.54ZM259.193 135.22C260.713 135.22 262.133 134.86 263.453 134.14C264.813 133.38 265.893 132.26 266.693 130.78C267.493 129.3 267.893 127.5 267.893 125.38C267.893 122.22 267.053 119.8 265.373 118.12C263.733 116.4 261.713 115.54 259.313 115.54C256.913 115.54 254.893 116.4 253.253 118.12C251.653 119.8 250.853 122.22 250.853 125.38C250.853 128.54 251.633 130.98 253.193 132.7C254.793 134.38 256.793 135.22 259.193 135.22ZM314.075 108.76V142H305.615V137.8C304.535 139.24 303.115 140.38 301.355 141.22C299.635 142.02 297.755 142.42 295.715 142.42C293.115 142.42 290.815 141.88 288.815 140.8C286.815 139.68 285.235 138.06 284.075 135.94C282.955 133.78 282.395 131.22 282.395 128.26V108.76H290.795V127.06C290.795 129.7 291.455 131.74 292.775 133.18C294.095 134.58 295.895 135.28 298.175 135.28C300.495 135.28 302.315 134.58 303.635 133.18C304.955 131.74 305.615 129.7 305.615 127.06V108.76H314.075ZM331.543 133.18L324.523 150.04H319.123L323.023 133.18H331.543ZM382.794 124.66C382.794 125.86 382.714 126.94 382.554 127.9H358.254C358.454 130.3 359.294 132.18 360.774 133.54C362.254 134.9 364.074 135.58 366.234 135.58C369.354 135.58 371.574 134.24 372.894 131.56H381.954C380.994 134.76 379.154 137.4 376.434 139.48C373.714 141.52 370.374 142.54 366.414 142.54C363.214 142.54 360.334 141.84 357.774 140.44C355.254 139 353.274 136.98 351.834 134.38C350.434 131.78 349.734 128.78 349.734 125.38C349.734 121.94 350.434 118.92 351.834 116.32C353.234 113.72 355.194 111.72 357.714 110.32C360.234 108.92 363.134 108.22 366.414 108.22C369.574 108.22 372.394 108.9 374.874 110.26C377.394 111.62 379.334 113.56 380.694 116.08C382.094 118.56 382.794 121.42 382.794 124.66ZM374.094 122.26C374.054 120.1 373.274 118.38 371.754 117.1C370.234 115.78 368.374 115.12 366.174 115.12C364.094 115.12 362.334 115.76 360.894 117.04C359.494 118.28 358.634 120.02 358.314 122.26H374.094ZM407.345 108.28C411.305 108.28 414.505 109.54 416.945 112.06C419.385 114.54 420.605 118.02 420.605 122.5V142H412.205V123.64C412.205 121 411.545 118.98 410.225 117.58C408.905 116.14 407.105 115.42 404.825 115.42C402.505 115.42 400.665 116.14 399.305 117.58C397.985 118.98 397.325 121 397.325 123.64V142H388.925V108.76H397.325V112.9C398.445 111.46 399.865 110.34 401.585 109.54C403.345 108.7 405.265 108.28 407.345 108.28ZM432.853 104.8C431.333 104.8 430.073 104.34 429.073 103.42C428.113 102.46 427.633 101.28 427.633 99.88C427.633 98.48 428.113 97.32 429.073 96.4C430.073 95.44 431.333 94.96 432.853 94.96C434.333 94.96 435.553 95.44 436.513 96.4C437.473 97.32 437.953 98.48 437.953 99.88C437.953 101.28 437.473 102.46 436.513 103.42C435.553 104.34 434.333 104.8 432.853 104.8ZM436.993 147.46C436.993 151.14 436.073 153.78 434.233 155.38C432.433 157.02 429.833 157.84 426.433 157.84H422.713V150.7H425.113C426.393 150.7 427.293 150.44 427.813 149.92C428.333 149.44 428.593 148.64 428.593 147.52V108.76H436.993V147.46ZM460.052 142.54C456.852 142.54 453.972 141.84 451.412 140.44C448.852 139 446.832 136.98 445.352 134.38C443.912 131.78 443.192 128.78 443.192 125.38C443.192 121.98 443.932 118.98 445.412 116.38C446.932 113.78 448.992 111.78 451.592 110.38C454.192 108.94 457.092 108.22 460.292 108.22C463.492 108.22 466.392 108.94 468.992 110.38C471.592 111.78 473.632 113.78 475.112 116.38C476.632 118.98 477.392 121.98 477.392 125.38C477.392 128.78 476.612 131.78 475.052 134.38C473.532 136.98 471.452 139 468.812 140.44C466.212 141.84 463.292 142.54 460.052 142.54ZM460.052 135.22C461.572 135.22 462.992 134.86 464.312 134.14C465.672 133.38 466.752 132.26 467.552 130.78C468.352 129.3 468.752 127.5 468.752 125.38C468.752 122.22 467.912 119.8 466.232 118.12C464.592 116.4 462.572 115.54 460.172 115.54C457.772 115.54 455.752 116.4 454.112 118.12C452.512 119.8 451.712 122.22 451.712 125.38C451.712 128.54 452.492 130.98 454.052 132.7C455.652 134.38 457.652 135.22 460.052 135.22ZM515.354 108.76L494.774 157.72H485.834L493.034 141.16L479.714 108.76H489.134L497.714 131.98L506.414 108.76H515.354ZM530.742 99.4L529.782 128.38H522.702L521.682 99.4H530.742ZM526.422 142.42C524.902 142.42 523.642 141.96 522.642 141.04C521.682 140.08 521.202 138.9 521.202 137.5C521.202 136.1 521.682 134.94 522.642 134.02C523.642 133.06 524.902 132.58 526.422 132.58C527.902 132.58 529.122 133.06 530.082 134.02C531.042 134.94 531.522 136.1 531.522 137.5C531.522 138.9 531.042 140.08 530.082 141.04C529.122 141.96 527.902 142.42 526.422 142.42Z" fill="#202020"/>
<path d="M132 154C161.333 182.667 208 200 247 188C325.263 163.919 314 54 417 54" stroke="#505050" stroke-dasharray="8 8"/>
<path d="M429.13 8.27301L430.716 4.10013C430.753 3.99029 430.916 4.00548 430.944 4.11504L433.722 15.5927C433.747 15.6885 434.245 17.2345 434.461 17.6799C435.877 20.5869 442.19 30.8895 442.747 37.409C442.75 37.4366 442.746 37.4582 442.734 37.4741L439.325 43.826C439.286 43.9082 439.173 43.9079 439.123 43.8431C438.34 42.7264 433.24 35.9892 421.566 30.7455C421.529 30.7289 421.496 30.6905 421.491 30.6491C421.428 29.3183 417.711 24.9711 424.08 23.4671C424.142 23.4523 424.176 23.392 424.176 23.3286C423.874 21.9354 421.72 17.1803 427.278 14.8515C427.312 14.8404 427.336 14.8091 427.345 14.766C427.644 13.3419 427.765 9.33997 429.109 8.33196C429.107 8.31824 429.125 8.29456 429.13 8.27301Z" fill="#202020"/>
<path d="M438.551 45.4048C435.393 54.8045 416.375 50.0635 415.15 48.9645C406.711 41.1174 420.83 32.0528 421.279 31.8005C434.935 37.304 438.542 45.3842 438.551 45.404L438.551 45.4048Z" fill="#202020"/>
<path d="M443.515 36.6046C443.472 36.5958 443.439 36.5574 443.428 36.5237C443.241 35.849 441.05 27.8226 439.304 25.3358C439.065 24.9846 439.126 24.5047 439.476 24.2513C440.532 23.4825 442.546 22.2594 443.201 23.476C443.4 23.8465 443.875 23.9793 444.251 23.7715C447.443 22.0393 458.193 16.3265 458.217 19.5014C458.217 19.6143 458.188 19.7303 458.139 19.8421C456.966 22.2033 444.82 36.7847 443.515 36.6047L443.515 36.6046Z" fill="#202020"/>
<path d="M445.091 37.3501C445.091 37.3501 445.336 37.1654 446.5 36.8833C447.375 36.6648 447.998 36.9766 448.484 37.5588C448.524 37.6033 448.581 37.6104 448.635 37.5895C451.262 36.0668 459.17 31.6218 458.568 32.5821C457.965 33.5429 451.339 36.5292 448.769 37.6433C448.695 37.6737 448.677 37.7603 448.727 37.8247C448.96 38.1206 449.045 38.2369 449.127 38.5651C449.138 38.5988 449.163 38.8074 449.168 38.9618C449.162 39.0329 449.232 39.0879 449.302 39.0794C452.935 38.7098 459.802 37.7091 461.653 37.2243C461.768 37.1893 461.85 37.3413 461.761 37.4225C459.868 39.244 452.881 39.3718 449.246 39.3116C449.182 39.3119 449.138 39.3527 449.131 39.4104C448.385 43.6642 446.033 41.8075 445.472 41.3049C445.416 41.2483 445.32 41.2742 445.286 41.3345C444.321 43.3182 440.436 46.656 438.127 48.3659C438.017 48.4427 437.889 48.3173 437.961 48.2102C438.812 46.8671 439.798 44.6484 440.194 43.9664C440.217 43.9212 440.234 43.8842 440.256 43.8394C442.677 37.9458 445.091 37.3501 445.091 37.3501Z" fill="#202020"/>
<path d="M433.405 51.9071C435.242 50.9589 439.217 48.2501 440.426 45" stroke="#202020"/>
</svg>
