<svg width="40" height="40" viewBox="0 0 40 40" fill="none" xmlns="http://www.w3.org/2000/svg">
<path fill-rule="evenodd" clip-rule="evenodd" d="M36.3918 11.3183L37.9571 9.75266C37.9893 9.71963 38.0077 9.6752 38.0077 9.62873C38.0077 9.58254 37.9893 9.53812 37.9571 9.50567L35.7345 7.28299C35.702 7.25084 35.6576 7.23242 35.6114 7.23242C35.5649 7.23242 35.5205 7.25084 35.4875 7.28299L33.9219 8.84829C34.8292 9.58343 35.6567 10.411 36.3919 11.3183L36.3918 11.3183Z" fill="white"/>
<path fill-rule="evenodd" clip-rule="evenodd" d="M27.8592 3.58593V4.98256C27.8592 5.02903 27.8408 5.07346 27.8077 5.10562C27.7753 5.13894 27.7309 5.15735 27.6847 5.15735H19.3037C19.2572 5.15735 19.2128 5.13894 19.1806 5.10562C19.1473 5.07346 19.1289 5.02903 19.1289 4.98256V3.58593C19.1289 3.53945 19.1473 3.49503 19.1806 3.46287C19.2128 3.42955 19.2572 3.41113 19.3037 3.41113H27.6847C27.7309 3.41113 27.7753 3.42955 27.8077 3.46287C27.8408 3.49502 27.8592 3.53945 27.8592 3.58593V3.58593Z" fill="white"/>
<path fill-rule="evenodd" clip-rule="evenodd" d="M13.934 10.3965C16.5172 8.21734 19.853 6.9043 23.4936 6.9043C31.6852 6.9043 38.3346 13.5539 38.3346 21.7453C38.3346 29.9368 31.685 36.5871 23.4936 36.5871C19.853 36.5871 16.5172 35.2741 13.934 33.095H9.5252C9.04319 33.095 8.65208 32.7039 8.65208 32.2219C8.65208 31.7401 9.04319 31.349 9.5252 31.349H12.1808C11.7148 30.7998 11.2869 30.2157 10.9028 29.6028H6.03303C5.55131 29.6028 5.16021 29.2117 5.16021 28.73C5.16021 28.248 5.55132 27.8569 6.03303 27.8569H9.96685C9.71108 27.293 9.49039 26.7099 9.30507 26.1109H4.28704C3.80503 26.1109 3.41392 25.7198 3.41392 25.2378C3.41392 24.7558 3.80503 24.3647 4.28704 24.3647H8.88265C8.78122 23.7938 8.71136 23.2107 8.67745 22.6188H2.54109C2.05908 22.6188 1.66797 22.2277 1.66797 21.7456C1.66797 21.2639 2.05908 20.8728 2.54109 20.8728H8.67745C8.71136 20.2809 8.78122 19.6987 8.88265 19.1266H4.28704C3.80503 19.1266 3.41392 18.7355 3.41392 18.2538C3.41392 17.7718 3.80503 17.3807 4.28704 17.3807H9.30507C9.49039 16.7817 9.71108 16.1986 9.96685 15.6347H6.03303C5.55131 15.6347 5.16021 15.2436 5.16021 14.7616C5.16021 14.2796 5.55132 13.8885 6.03303 13.8885H10.9028C11.2869 13.2749 11.7149 12.6918 12.1808 12.1426H9.5252C9.04319 12.1426 8.65208 11.7514 8.65208 11.2694C8.65208 10.7877 9.04319 10.3966 9.5252 10.3966L13.934 10.3965ZM23.4936 8.65023C16.2657 8.65023 10.3983 14.518 10.3983 21.7455C10.3983 28.9733 16.2657 34.8408 23.4936 34.8408C30.7211 34.8408 36.5888 28.9733 36.5888 21.7455C36.5888 14.518 30.7211 8.65023 23.4936 8.65023V8.65023ZM4.28695 33.095H6.03288C6.51489 33.095 6.906 32.7039 6.906 32.2219C6.906 31.7401 6.51489 31.349 6.03288 31.349H4.28695C3.80494 31.349 3.41383 31.7401 3.41383 32.2219C3.41383 32.7039 3.80494 33.095 4.28695 33.095ZM24.3661 10.4297C25.7995 10.5387 27.16 10.9152 28.3953 11.5089L27.1024 13.7489C26.8613 14.1663 27.0045 14.7006 27.4219 14.9415C27.839 15.1827 28.3734 15.0394 28.6142 14.622L29.9066 12.3835C31.0615 13.1763 32.0629 14.1777 32.8556 15.3326L30.6171 16.6249C30.1997 16.8658 30.0565 17.4001 30.2977 17.8173C30.5385 18.2347 31.0728 18.3779 31.4903 18.1367L33.7303 16.8439C34.3239 18.0792 34.7004 19.4396 34.8095 20.8731H32.2234C31.7417 20.8731 31.3506 21.2642 31.3506 21.7459C31.3506 22.2279 31.7417 22.619 32.2234 22.619H34.8095C34.7004 24.0524 34.3239 25.4125 33.7303 26.6478L31.4903 25.355C31.0729 25.1141 30.5385 25.2574 30.2977 25.6745C30.0565 26.0919 30.1997 26.6263 30.6171 26.8671L32.8556 28.1591C32.0629 29.3144 31.0614 30.3154 29.9066 31.1082L28.6142 28.87C28.3734 28.4526 27.8391 28.3094 27.4219 28.5503C27.0045 28.7914 26.8613 29.3257 27.1024 29.7429L28.3953 31.9832C27.16 32.5768 25.7995 32.953 24.3661 33.0624V30.4763C24.3661 29.9943 23.975 29.6032 23.4933 29.6032C23.0113 29.6032 22.6202 29.9943 22.6202 30.4763V33.0624C21.1867 32.953 19.8266 32.5768 18.5913 31.9832L19.8842 29.7429C20.125 29.3258 19.9818 28.7914 19.5647 28.5503C19.1473 28.3094 18.6129 28.4526 18.372 28.87L17.08 31.1082C15.9248 30.3154 14.9237 29.3143 14.131 28.1591L16.3691 26.8671C16.7865 26.6263 16.9298 26.092 16.6889 25.6745C16.4477 25.2574 15.9134 25.1141 15.4963 25.355L13.256 26.6478C12.6623 25.4125 12.2861 24.0524 12.1768 22.619H14.7629C15.2449 22.619 15.636 22.2279 15.636 21.7459C15.636 21.2642 15.2449 20.8731 14.7629 20.8731H12.1768C12.2861 19.4396 12.6623 18.0792 13.256 16.8439L15.4963 18.1367C15.9134 18.3779 16.4477 18.2347 16.6889 17.8173C16.9298 17.4001 16.7865 16.8658 16.3691 16.6249L14.131 15.3326C14.9237 14.1777 15.9249 13.1763 17.08 12.3835L18.372 14.622C18.6129 15.0394 19.1472 15.1827 19.5647 14.9415C19.9818 14.7006 20.125 14.1663 19.8842 13.7489L18.5913 11.5089C19.8266 10.9152 21.1867 10.5387 22.6202 10.4297V13.0157C22.6202 13.4975 23.0113 13.8886 23.4933 13.8886C23.975 13.8886 24.3661 13.4975 24.3661 13.0157V10.4297ZM22.6202 19.2761C21.6032 19.6359 20.8742 20.6067 20.8742 21.7458C20.8742 23.1915 22.0476 24.3648 23.4933 24.3648C24.6324 24.3648 25.6031 23.6358 25.963 22.6189H28.7314C29.2131 22.6189 29.6042 22.2278 29.6042 21.7458C29.6042 21.2641 29.2131 20.873 28.7314 20.873H25.963C25.6993 20.1291 25.1101 19.5389 24.3661 19.2761V16.5077C24.3661 16.026 23.975 15.6349 23.4933 15.6349C23.0113 15.6349 22.6202 16.026 22.6202 16.5077V19.2761ZM23.4933 20.873C23.975 20.873 24.3661 21.2641 24.3661 21.7458C24.3661 22.2278 23.975 22.6189 23.4933 22.6189C23.0113 22.6189 22.6202 22.2278 22.6202 21.7458C22.6202 21.2641 23.0113 20.873 23.4933 20.873ZM4.28665 12.1426H6.03258C6.51459 12.1426 6.9057 11.7514 6.9057 11.2694C6.9057 10.7877 6.51459 10.3966 6.03258 10.3966H4.28665C3.80464 10.3966 3.41353 10.7877 3.41353 11.2694C3.41353 11.7514 3.80464 12.1426 4.28665 12.1426Z" fill="white"/>
</svg>
