<svg width="116" height="90" viewBox="0 0 116 90" fill="none" xmlns="http://www.w3.org/2000/svg">
<path d="M33.0639 12.2766V11.3391H39.6094V12.2766H36.8651V20.0664H35.8082V12.2766H33.0639ZM42.8139 20.2028C42.223 20.2028 41.7045 20.0621 41.2585 19.7809C40.8153 19.4996 40.4687 19.1062 40.2187 18.6005C39.9716 18.0948 39.848 17.5039 39.848 16.8278C39.848 16.146 39.9716 15.5508 40.2187 15.0423C40.4687 14.5337 40.8153 14.1388 41.2585 13.8576C41.7045 13.5763 42.223 13.4357 42.8139 13.4357C43.4048 13.4357 43.9219 13.5763 44.3651 13.8576C44.8111 14.1388 45.1577 14.5337 45.4048 15.0423C45.6548 15.5508 45.7798 16.146 45.7798 16.8278C45.7798 17.5039 45.6548 18.0948 45.4048 18.6005C45.1577 19.1062 44.8111 19.4996 44.3651 19.7809C43.9219 20.0621 43.4048 20.2028 42.8139 20.2028ZM42.8139 19.2994C43.2628 19.2994 43.6321 19.1843 43.9219 18.9542C44.2116 18.7241 44.4261 18.4215 44.5653 18.0465C44.7045 17.6715 44.7741 17.2653 44.7741 16.8278C44.7741 16.3903 44.7045 15.9826 44.5653 15.6048C44.4261 15.2269 44.2116 14.9215 43.9219 14.6886C43.6321 14.4556 43.2628 14.3391 42.8139 14.3391C42.3651 14.3391 41.9957 14.4556 41.706 14.6886C41.4162 14.9215 41.2017 15.2269 41.0625 15.6048C40.9233 15.9826 40.8537 16.3903 40.8537 16.8278C40.8537 17.2653 40.9233 17.6715 41.0625 18.0465C41.2017 18.4215 41.4162 18.7241 41.706 18.9542C41.9957 19.1843 42.3651 19.2994 42.8139 19.2994ZM47.315 22.521V13.521H48.2866V14.5607H48.4059C48.4798 14.4471 48.582 14.3022 48.7127 14.1261C48.8462 13.9471 49.0366 13.788 49.2837 13.6488C49.5337 13.5067 49.8718 13.4357 50.2979 13.4357C50.8491 13.4357 51.3349 13.5735 51.7553 13.8491C52.1758 14.1246 52.5039 14.5153 52.7397 15.021C52.9755 15.5266 53.0934 16.1232 53.0934 16.8107C53.0934 17.5039 52.9755 18.1048 52.7397 18.6133C52.5039 19.119 52.1772 19.511 51.7596 19.7894C51.342 20.065 50.8604 20.2028 50.315 20.2028C49.8945 20.2028 49.5579 20.1332 49.305 19.994C49.0522 19.8519 48.8576 19.6914 48.7212 19.5124C48.5849 19.3306 48.4798 19.18 48.4059 19.0607H48.3207V22.521H47.315ZM48.3036 16.7937C48.3036 17.288 48.3761 17.7241 48.5209 18.1019C48.6658 18.4769 48.8775 18.771 49.1559 18.984C49.4343 19.1942 49.7752 19.2994 50.1786 19.2994C50.5991 19.2994 50.9499 19.1886 51.2312 18.967C51.5153 18.7425 51.7283 18.4414 51.8704 18.0636C52.0153 17.6829 52.0877 17.2596 52.0877 16.7937C52.0877 16.3335 52.0167 15.9187 51.8746 15.5494C51.7354 15.1772 51.5238 14.8832 51.2397 14.6673C50.9584 14.4485 50.6048 14.3391 50.1786 14.3391C49.7695 14.3391 49.4258 14.4428 49.1474 14.6502C48.869 14.8548 48.6587 15.1417 48.5167 15.511C48.3746 15.8775 48.3036 16.305 48.3036 16.7937ZM59.7241 20.0664L57.3377 11.3391H58.4116L60.2354 18.4471H60.3207L62.1786 11.3391H63.3718L65.2298 18.4471H65.315L67.1388 11.3391H68.2127L65.8263 20.0664H64.7354L62.8093 13.1119H62.7411L60.815 20.0664H59.7241ZM71.5281 20.2028C70.8974 20.2028 70.3533 20.0636 69.8959 19.7852C69.4414 19.5039 69.0906 19.1119 68.8434 18.609C68.5991 18.1033 68.4769 17.5153 68.4769 16.8448C68.4769 16.1744 68.5991 15.5835 68.8434 15.0721C69.0906 14.5579 69.4343 14.1573 69.8746 13.8704C70.3178 13.5806 70.8349 13.4357 71.4258 13.4357C71.7667 13.4357 72.1033 13.4925 72.4357 13.6062C72.7681 13.7198 73.0707 13.9045 73.3434 14.1602C73.6161 14.413 73.8334 14.7482 73.9954 15.1658C74.1573 15.5835 74.2383 16.0977 74.2383 16.7085V17.1346H69.1928V16.2653H73.2156C73.2156 15.896 73.1417 15.5664 72.994 15.2766C72.8491 14.9869 72.6417 14.7582 72.3718 14.5906C72.1048 14.4229 71.7894 14.3391 71.4258 14.3391C71.0252 14.3391 70.6786 14.4386 70.386 14.6374C70.0962 14.8335 69.8732 15.0891 69.717 15.4045C69.5607 15.7198 69.4826 16.0579 69.4826 16.4187V16.9982C69.4826 17.4925 69.5678 17.9116 69.7383 18.2553C69.9116 18.5962 70.1516 18.8562 70.4584 19.0352C70.7653 19.2113 71.1218 19.2994 71.5281 19.2994C71.7923 19.2994 72.0309 19.2624 72.244 19.1886C72.4599 19.1119 72.6459 18.9982 72.8022 18.8477C72.9584 18.6942 73.0792 18.5039 73.1644 18.2766L74.136 18.5494C74.0337 18.8789 73.8619 19.1687 73.6204 19.4187C73.3789 19.6658 73.0806 19.859 72.7255 19.9982C72.3704 20.1346 71.9712 20.2028 71.5281 20.2028ZM75.9045 20.0664V11.3391H76.9102V14.5607H76.9954C77.0692 14.4471 77.1715 14.3022 77.3022 14.1261C77.4357 13.9471 77.6261 13.788 77.8732 13.6488C78.1232 13.5067 78.4613 13.4357 78.8874 13.4357C79.4386 13.4357 79.9244 13.5735 80.3448 13.8491C80.7653 14.1246 81.0934 14.5153 81.3292 15.021C81.565 15.5266 81.6829 16.1232 81.6829 16.8107C81.6829 17.5039 81.565 18.1048 81.3292 18.6133C81.0934 19.119 80.7667 19.511 80.3491 19.7894C79.9315 20.065 79.4499 20.2028 78.9045 20.2028C78.484 20.2028 78.1474 20.1332 77.8945 19.994C77.6417 19.8519 77.4471 19.6914 77.3107 19.5124C77.1744 19.3306 77.0692 19.18 76.9954 19.0607H76.8761V20.0664H75.9045ZM76.8931 16.7937C76.8931 17.288 76.9656 17.7241 77.1104 18.1019C77.2553 18.4769 77.467 18.771 77.7454 18.984C78.0238 19.1942 78.3647 19.2994 78.7681 19.2994C79.1886 19.2994 79.5394 19.1886 79.8207 18.967C80.1048 18.7425 80.3178 18.4414 80.4599 18.0636C80.6048 17.6829 80.6772 17.2596 80.6772 16.7937C80.6772 16.3335 80.6062 15.9187 80.4641 15.5494C80.3249 15.1772 80.1133 14.8832 79.8292 14.6673C79.5479 14.4485 79.1942 14.3391 78.7681 14.3391C78.359 14.3391 78.0153 14.4428 77.7369 14.6502C77.4584 14.8548 77.2482 15.1417 77.1062 15.511C76.9641 15.8775 76.8931 16.305 76.8931 16.7937ZM23.666 34.0664H20.9728V25.3391H23.7853C24.6319 25.3391 25.3564 25.5138 25.9586 25.8633C26.5609 26.2099 27.0225 26.7085 27.3436 27.359C27.6646 28.0067 27.8251 28.7823 27.8251 29.6857C27.8251 30.5948 27.6632 31.3775 27.3393 32.0337C27.0154 32.6871 26.5439 33.19 25.9245 33.5423C25.3052 33.8917 24.5524 34.0664 23.666 34.0664ZM22.0296 33.1289H23.5978C24.3194 33.1289 24.9174 32.9897 25.3919 32.7113C25.8663 32.4329 26.22 32.0366 26.4529 31.5224C26.6859 31.0082 26.8024 30.396 26.8024 29.6857C26.8024 28.9812 26.6873 28.3746 26.4572 27.8661C26.2271 27.3548 25.8833 26.9627 25.426 26.69C24.9686 26.4144 24.399 26.2766 23.7171 26.2766H22.0296V33.1289ZM32.2058 34.2028C31.5751 34.2028 31.0311 34.0636 30.5737 33.7852C30.1191 33.5039 29.7683 33.1119 29.5211 32.609C29.2768 32.1033 29.1546 31.5153 29.1546 30.8448C29.1546 30.1744 29.2768 29.5835 29.5211 29.0721C29.7683 28.5579 30.112 28.1573 30.5524 27.8704C30.9956 27.5806 31.5126 27.4357 32.1035 27.4357C32.4444 27.4357 32.7811 27.4925 33.1135 27.6062C33.4458 27.7198 33.7484 27.9045 34.0211 28.1602C34.2939 28.413 34.5112 28.7482 34.6731 29.1658C34.835 29.5835 34.916 30.0977 34.916 30.7085V31.1346H29.8706V30.2653H33.8933C33.8933 29.896 33.8194 29.5664 33.6717 29.2766C33.5268 28.9869 33.3194 28.7582 33.0495 28.5906C32.7825 28.4229 32.4671 28.3391 32.1035 28.3391C31.7029 28.3391 31.3564 28.4386 31.0637 28.6374C30.774 28.8335 30.551 29.0891 30.3947 29.4045C30.2385 29.7198 30.1603 30.0579 30.1603 30.4187V30.9982C30.1603 31.4925 30.2456 31.9116 30.416 32.2553C30.5893 32.5962 30.8294 32.8562 31.1362 33.0352C31.443 33.2113 31.7995 33.2994 32.2058 33.2994C32.47 33.2994 32.7086 33.2624 32.9217 33.1886C33.1376 33.1119 33.3237 32.9982 33.4799 32.8477C33.6362 32.6942 33.7569 32.5039 33.8421 32.2766L34.8137 32.5494C34.7115 32.8789 34.5396 33.1687 34.2981 33.4187C34.0566 33.6658 33.7583 33.859 33.4032 33.9982C33.0481 34.1346 32.649 34.2028 32.2058 34.2028ZM41.5989 27.521L39.1784 34.0664H38.1557L35.7353 27.521H36.8262L38.633 32.7369H38.7012L40.508 27.521H41.5989ZM45.4363 34.2028C44.8056 34.2028 44.2615 34.0636 43.8042 33.7852C43.3496 33.5039 42.9988 33.1119 42.7516 32.609C42.5073 32.1033 42.3851 31.5153 42.3851 30.8448C42.3851 30.1744 42.5073 29.5835 42.7516 29.0721C42.9988 28.5579 43.3425 28.1573 43.7828 27.8704C44.226 27.5806 44.7431 27.4357 45.334 27.4357C45.6749 27.4357 46.0115 27.4925 46.3439 27.6062C46.6763 27.7198 46.9789 27.9045 47.2516 28.1602C47.5243 28.413 47.7417 28.7482 47.9036 29.1658C48.0655 29.5835 48.1465 30.0977 48.1465 30.7085V31.1346H43.101V30.2653H47.1238C47.1238 29.896 47.0499 29.5664 46.9022 29.2766C46.7573 28.9869 46.5499 28.7582 46.28 28.5906C46.013 28.4229 45.6976 28.3391 45.334 28.3391C44.9334 28.3391 44.5868 28.4386 44.2942 28.6374C44.0044 28.8335 43.7814 29.0891 43.6252 29.4045C43.4689 29.7198 43.3908 30.0579 43.3908 30.4187V30.9982C43.3908 31.4925 43.476 31.9116 43.6465 32.2553C43.8198 32.5962 44.0598 32.8562 44.3667 33.0352C44.6735 33.2113 45.03 33.2994 45.4363 33.2994C45.7005 33.2994 45.9391 33.2624 46.1522 33.1886C46.3681 33.1119 46.5542 32.9982 46.7104 32.8477C46.8667 32.6942 46.9874 32.5039 47.0726 32.2766L48.0442 32.5494C47.9419 32.8789 47.7701 33.1687 47.5286 33.4187C47.2871 33.6658 46.9888 33.859 46.6337 33.9982C46.2786 34.1346 45.8794 34.2028 45.4363 34.2028ZM50.682 25.3391V34.0664H49.6763V25.3391H50.682ZM55.1831 34.2028C54.5921 34.2028 54.0737 34.0621 53.6277 33.7809C53.1845 33.4996 52.8379 33.1062 52.5879 32.6005C52.3407 32.0948 52.2171 31.5039 52.2171 30.8278C52.2171 30.146 52.3407 29.5508 52.5879 29.0423C52.8379 28.5337 53.1845 28.1388 53.6277 27.8576C54.0737 27.5763 54.5921 27.4357 55.1831 27.4357C55.774 27.4357 56.291 27.5763 56.7342 27.8576C57.1802 28.1388 57.5268 28.5337 57.774 29.0423C58.024 29.5508 58.149 30.146 58.149 30.8278C58.149 31.5039 58.024 32.0948 57.774 32.6005C57.5268 33.1062 57.1802 33.4996 56.7342 33.7809C56.291 34.0621 55.774 34.2028 55.1831 34.2028ZM55.1831 33.2994C55.6319 33.2994 56.0012 33.1843 56.291 32.9542C56.5808 32.7241 56.7953 32.4215 56.9345 32.0465C57.0737 31.6715 57.1433 31.2653 57.1433 30.8278C57.1433 30.3903 57.0737 29.9826 56.9345 29.6048C56.7953 29.2269 56.5808 28.9215 56.291 28.6886C56.0012 28.4556 55.6319 28.3391 55.1831 28.3391C54.7342 28.3391 54.3649 28.4556 54.0751 28.6886C53.7853 28.9215 53.5708 29.2269 53.4316 29.6048C53.2924 29.9826 53.2228 30.3903 53.2228 30.8278C53.2228 31.2653 53.2924 31.6715 53.4316 32.0465C53.5708 32.4215 53.7853 32.7241 54.0751 32.9542C54.3649 33.1843 54.7342 33.2994 55.1831 33.2994ZM59.6841 36.521V27.521H60.6557V28.5607H60.775C60.8489 28.4471 60.9512 28.3022 61.0818 28.1261C61.2154 27.9471 61.4057 27.788 61.6529 27.6488C61.9029 27.5067 62.2409 27.4357 62.6671 27.4357C63.2182 27.4357 63.704 27.5735 64.1245 27.8491C64.5449 28.1246 64.873 28.5153 65.1088 29.021C65.3446 29.5266 65.4625 30.1232 65.4625 30.8107C65.4625 31.5039 65.3446 32.1048 65.1088 32.6133C64.873 33.119 64.5463 33.511 64.1287 33.7894C63.7111 34.065 63.2296 34.2028 62.6841 34.2028C62.2637 34.2028 61.927 34.1332 61.6742 33.994C61.4213 33.8519 61.2267 33.6914 61.0904 33.5124C60.954 33.3306 60.8489 33.18 60.775 33.0607H60.6898V36.521H59.6841ZM60.6728 30.7937C60.6728 31.288 60.7452 31.7241 60.8901 32.1019C61.035 32.4769 61.2466 32.771 61.525 32.984C61.8034 33.1942 62.1443 33.2994 62.5478 33.2994C62.9682 33.2994 63.3191 33.1886 63.6003 32.967C63.8844 32.7425 64.0975 32.4414 64.2395 32.0636C64.3844 31.6829 64.4569 31.2596 64.4569 30.7937C64.4569 30.3335 64.3858 29.9187 64.2438 29.5494C64.1046 29.1772 63.8929 28.8832 63.6088 28.6673C63.3276 28.4485 62.9739 28.3391 62.5478 28.3391C62.1387 28.3391 61.7949 28.4428 61.5165 28.6502C61.2381 28.8548 61.0279 29.1417 60.8858 29.511C60.7438 29.8775 60.6728 30.305 60.6728 30.7937ZM66.9966 34.0664V27.521H67.9682V28.5437H68.0534C68.1898 28.1942 68.41 27.9229 68.714 27.7298C69.0179 27.5337 69.383 27.4357 69.8091 27.4357C70.2409 27.4357 70.6003 27.5337 70.8872 27.7298C71.177 27.9229 71.4029 28.1942 71.5648 28.5437H71.633C71.8006 28.2056 72.052 27.9371 72.3872 27.7383C72.7225 27.5366 73.1245 27.4357 73.5932 27.4357C74.1784 27.4357 74.6571 27.619 75.0293 27.9854C75.4015 28.3491 75.5875 28.9158 75.5875 29.6857V34.0664H74.5818V29.6857C74.5818 29.2028 74.4497 28.8576 74.1855 28.6502C73.9213 28.4428 73.6103 28.3391 73.2523 28.3391C72.7921 28.3391 72.4355 28.4783 72.1827 28.7567C71.9299 29.0323 71.8034 29.3817 71.8034 29.805V34.0664H70.7807V29.5835C70.7807 29.2113 70.66 28.9116 70.4185 28.6843C70.177 28.4542 69.8659 28.3391 69.4853 28.3391C69.2239 28.3391 68.9796 28.4087 68.7523 28.5479C68.5279 28.6871 68.3461 28.8803 68.2068 29.1275C68.0705 29.3718 68.0023 29.6545 68.0023 29.9755V34.0664H66.9966ZM80.1706 34.2028C79.5399 34.2028 78.9959 34.0636 78.5385 33.7852C78.084 33.5039 77.7331 33.1119 77.486 32.609C77.2417 32.1033 77.1195 31.5153 77.1195 30.8448C77.1195 30.1744 77.2417 29.5835 77.486 29.0721C77.7331 28.5579 78.0769 28.1573 78.5172 27.8704C78.9604 27.5806 79.4774 27.4357 80.0684 27.4357C80.4093 27.4357 80.7459 27.4925 81.0783 27.6062C81.4107 27.7198 81.7132 27.9045 81.986 28.1602C82.2587 28.413 82.476 28.7482 82.638 29.1658C82.7999 29.5835 82.8809 30.0977 82.8809 30.7085V31.1346H77.8354V30.2653H81.8581C81.8581 29.896 81.7843 29.5664 81.6365 29.2766C81.4917 28.9869 81.2843 28.7582 81.0144 28.5906C80.7473 28.4229 80.432 28.3391 80.0684 28.3391C79.6678 28.3391 79.3212 28.4386 79.0286 28.6374C78.7388 28.8335 78.5158 29.0891 78.3595 29.4045C78.2033 29.7198 78.1252 30.0579 78.1252 30.4187V30.9982C78.1252 31.4925 78.2104 31.9116 78.3809 32.2553C78.5542 32.5962 78.7942 32.8562 79.101 33.0352C79.4078 33.2113 79.7644 33.2994 80.1706 33.2994C80.4348 33.2994 80.6735 33.2624 80.8865 33.1886C81.1024 33.1119 81.2885 32.9982 81.4448 32.8477C81.601 32.6942 81.7218 32.5039 81.807 32.2766L82.7786 32.5494C82.6763 32.8789 82.5044 33.1687 82.263 33.4187C82.0215 33.6658 81.7232 33.859 81.3681 33.9982C81.013 34.1346 80.6138 34.2028 80.1706 34.2028ZM85.4164 30.1289V34.0664H84.4107V27.521H85.3823V28.5437H85.4675C85.6209 28.2113 85.8539 27.9442 86.1664 27.7425C86.4789 27.538 86.8823 27.4357 87.3766 27.4357C87.8198 27.4357 88.2076 27.5266 88.54 27.7085C88.8723 27.8874 89.1309 28.1602 89.3155 28.5266C89.5002 28.8903 89.5925 29.3505 89.5925 29.9073V34.0664H88.5868V29.9755C88.5868 29.4613 88.4533 29.0607 88.1863 28.7738C87.9192 28.484 87.5527 28.3391 87.0868 28.3391C86.7658 28.3391 86.4789 28.4087 86.226 28.5479C85.976 28.6871 85.7786 28.8903 85.6337 29.1573C85.4888 29.4244 85.4164 29.7482 85.4164 30.1289ZM94.2768 27.521V28.3732H90.8848V27.521H94.2768ZM91.8734 25.9528H92.8791V32.1914C92.8791 32.4755 92.9203 32.6886 93.0027 32.8306C93.0879 32.9698 93.1958 33.0636 93.3265 33.1119C93.46 33.1573 93.6007 33.18 93.7484 33.18C93.8592 33.18 93.9501 33.1744 94.0211 33.163C94.0922 33.1488 94.149 33.1374 94.1916 33.1289L94.3961 34.0323C94.3279 34.0579 94.2328 34.0835 94.1106 34.109C93.9885 34.1374 93.8336 34.1516 93.6461 34.1516C93.362 34.1516 93.0836 34.0906 92.8109 33.9684C92.541 33.8462 92.3166 33.6602 92.1376 33.4102C91.9615 33.1602 91.8734 32.8448 91.8734 32.4641V25.9528ZM33.7143 42.0664H32.6575C32.595 41.7624 32.4856 41.4954 32.3294 41.2653C32.176 41.0352 31.9885 40.842 31.7669 40.6857C31.5481 40.5266 31.3052 40.4073 31.0382 40.3278C30.7711 40.2482 30.4927 40.2085 30.2029 40.2085C29.6745 40.2085 29.1958 40.342 28.7669 40.609C28.3407 40.8761 28.0012 41.2695 27.7484 41.7894C27.4984 42.3093 27.3734 42.9471 27.3734 43.7028C27.3734 44.4585 27.4984 45.0962 27.7484 45.6161C28.0012 46.136 28.3407 46.5295 28.7669 46.7965C29.1958 47.0636 29.6745 47.1971 30.2029 47.1971C30.4927 47.1971 30.7711 47.1573 31.0382 47.0778C31.3052 46.9982 31.5481 46.8803 31.7669 46.7241C31.9885 46.565 32.176 46.3704 32.3294 46.1403C32.4856 45.9073 32.595 45.6403 32.6575 45.3391H33.7143C33.6348 45.7852 33.4899 46.1843 33.2796 46.5366C33.0694 46.8888 32.8081 47.1886 32.4956 47.4357C32.1831 47.68 31.8322 47.8661 31.443 47.994C31.0566 48.1218 30.6433 48.1857 30.2029 48.1857C29.4586 48.1857 28.7967 48.0039 28.2171 47.6403C27.6376 47.2766 27.1816 46.7596 26.8493 46.0891C26.5169 45.4187 26.3507 44.6232 26.3507 43.7028C26.3507 42.7823 26.5169 41.9869 26.8493 41.3164C27.1816 40.646 27.6376 40.1289 28.2171 39.7653C28.7967 39.4016 29.4586 39.2198 30.2029 39.2198C30.6433 39.2198 31.0566 39.2837 31.443 39.4116C31.8322 39.5394 32.1831 39.7269 32.4956 39.9741C32.8081 40.2184 33.0694 40.5167 33.2796 40.869C33.4899 41.2184 33.6348 41.6175 33.7143 42.0664ZM37.9448 48.2028C37.3539 48.2028 36.8354 48.0621 36.3894 47.7809C35.9462 47.4996 35.5996 47.1062 35.3496 46.6005C35.1024 46.0948 34.9789 45.5039 34.9789 44.8278C34.9789 44.146 35.1024 43.5508 35.3496 43.0423C35.5996 42.5337 35.9462 42.1388 36.3894 41.8576C36.8354 41.5763 37.3539 41.4357 37.9448 41.4357C38.5357 41.4357 39.0527 41.5763 39.4959 41.8576C39.9419 42.1388 40.2885 42.5337 40.5357 43.0423C40.7857 43.5508 40.9107 44.146 40.9107 44.8278C40.9107 45.5039 40.7857 46.0948 40.5357 46.6005C40.2885 47.1062 39.9419 47.4996 39.4959 47.7809C39.0527 48.0621 38.5357 48.2028 37.9448 48.2028ZM37.9448 47.2994C38.3936 47.2994 38.763 47.1843 39.0527 46.9542C39.3425 46.7241 39.557 46.4215 39.6962 46.0465C39.8354 45.6715 39.905 45.2653 39.905 44.8278C39.905 44.3903 39.8354 43.9826 39.6962 43.6048C39.557 43.2269 39.3425 42.9215 39.0527 42.6886C38.763 42.4556 38.3936 42.3391 37.9448 42.3391C37.4959 42.3391 37.1266 42.4556 36.8368 42.6886C36.547 42.9215 36.3326 43.2269 36.1934 43.6048C36.0542 43.9826 35.9845 44.3903 35.9845 44.8278C35.9845 45.2653 36.0542 45.6715 36.1934 46.0465C36.3326 46.4215 36.547 46.7241 36.8368 46.9542C37.1266 47.1843 37.4959 47.2994 37.9448 47.2994ZM42.4458 48.0664V41.521H43.4174V42.5437H43.5027C43.639 42.1942 43.8592 41.9229 44.1632 41.7298C44.4671 41.5337 44.8322 41.4357 45.2583 41.4357C45.6902 41.4357 46.0495 41.5337 46.3365 41.7298C46.6262 41.9229 46.8521 42.1942 47.014 42.5437H47.0822C47.2498 42.2056 47.5012 41.9371 47.8365 41.7383C48.1717 41.5366 48.5737 41.4357 49.0424 41.4357C49.6277 41.4357 50.1064 41.619 50.4785 41.9854C50.8507 42.3491 51.0368 42.9158 51.0368 43.6857V48.0664H50.0311V43.6857C50.0311 43.2028 49.899 42.8576 49.6348 42.6502C49.3706 42.4428 49.0595 42.3391 48.7015 42.3391C48.2413 42.3391 47.8848 42.4783 47.6319 42.7567C47.3791 43.0323 47.2527 43.3817 47.2527 43.805V48.0664H46.2299V43.5835C46.2299 43.2113 46.1092 42.9116 45.8677 42.6843C45.6262 42.4542 45.3152 42.3391 44.9345 42.3391C44.6731 42.3391 44.4288 42.4087 44.2015 42.5479C43.9771 42.6871 43.7953 42.8803 43.6561 43.1275C43.5197 43.3718 43.4515 43.6545 43.4515 43.9755V48.0664H42.4458ZM52.8755 50.521V41.521H53.8471V42.5607H53.9664C54.0403 42.4471 54.1426 42.3022 54.2733 42.1261C54.4068 41.9471 54.5971 41.788 54.8443 41.6488C55.0943 41.5067 55.4323 41.4357 55.8585 41.4357C56.4096 41.4357 56.8954 41.5735 57.3159 41.8491C57.7363 42.1246 58.0644 42.5153 58.3002 43.021C58.536 43.5266 58.6539 44.1232 58.6539 44.8107C58.6539 45.5039 58.536 46.1048 58.3002 46.6133C58.0644 47.119 57.7377 47.511 57.3201 47.7894C56.9025 48.065 56.421 48.2028 55.8755 48.2028C55.4551 48.2028 55.1184 48.1332 54.8656 47.994C54.6127 47.8519 54.4181 47.6914 54.2818 47.5124C54.1454 47.3306 54.0403 47.18 53.9664 47.0607H53.8812V50.521H52.8755ZM53.8642 44.7937C53.8642 45.288 53.9366 45.7241 54.0815 46.1019C54.2264 46.4769 54.438 46.771 54.7164 46.984C54.9948 47.1942 55.3358 47.2994 55.7392 47.2994C56.1596 47.2994 56.5105 47.1886 56.7917 46.967C57.0758 46.7425 57.2889 46.4414 57.4309 46.0636C57.5758 45.6829 57.6483 45.2596 57.6483 44.7937C57.6483 44.3335 57.5772 43.9187 57.4352 43.5494C57.296 43.1772 57.0843 42.8832 56.8002 42.6673C56.519 42.4485 56.1653 42.3391 55.7392 42.3391C55.3301 42.3391 54.9863 42.4428 54.7079 42.6502C54.4295 42.8548 54.2193 43.1417 54.0772 43.511C53.9352 43.8775 53.8642 44.305 53.8642 44.7937ZM62.1142 48.2198C61.6994 48.2198 61.323 48.1417 60.9849 47.9854C60.6468 47.8263 60.3784 47.5977 60.1795 47.2994C59.9806 46.9982 59.8812 46.6346 59.8812 46.2085C59.8812 45.8335 59.9551 45.5295 60.1028 45.2965C60.2505 45.0607 60.448 44.8761 60.6951 44.7425C60.9423 44.609 61.215 44.5096 61.5133 44.4442C61.8144 44.3761 62.117 44.3221 62.421 44.2823C62.8187 44.2312 63.1412 44.1928 63.3883 44.1673C63.6383 44.1388 63.8201 44.092 63.9338 44.0266C64.0502 43.9613 64.1085 43.8477 64.1085 43.6857V43.6516C64.1085 43.2312 63.9934 42.9045 63.7633 42.6715C63.536 42.4386 63.1909 42.3221 62.7278 42.3221C62.2477 42.3221 61.8713 42.4272 61.5985 42.6374C61.3258 42.8477 61.1341 43.0721 61.0233 43.3107L60.0687 42.9698C60.2392 42.5721 60.4664 42.2624 60.7505 42.0408C61.0375 41.8164 61.35 41.6602 61.688 41.5721C62.0289 41.4812 62.3642 41.4357 62.6937 41.4357C62.9039 41.4357 63.1454 41.4613 63.4181 41.5124C63.6937 41.5607 63.9593 41.6616 64.215 41.815C64.4735 41.9684 64.688 42.1999 64.8585 42.5096C65.0289 42.8192 65.1142 43.234 65.1142 43.7539V48.0664H64.1085V47.18H64.0573C63.9892 47.3221 63.8755 47.4741 63.7164 47.636C63.5573 47.7979 63.3457 47.9357 63.0815 48.0494C62.8173 48.163 62.4948 48.2198 62.1142 48.2198ZM62.2676 47.3164C62.6653 47.3164 63.0005 47.2383 63.2733 47.082C63.5488 46.9258 63.7562 46.7241 63.8954 46.4769C64.0375 46.2298 64.1085 45.9698 64.1085 45.6971V44.7766C64.0659 44.8278 63.9721 44.8746 63.8272 44.9173C63.6852 44.957 63.5204 44.9925 63.3329 45.0238C63.1483 45.0522 62.9679 45.0778 62.7917 45.1005C62.6184 45.1204 62.4778 45.1374 62.3698 45.1516C62.1085 45.1857 61.8642 45.2411 61.6369 45.3178C61.4125 45.3917 61.2306 45.5039 61.0914 45.6545C60.9551 45.8022 60.8869 46.0039 60.8869 46.2596C60.8869 46.609 61.0162 46.8732 61.2747 47.0522C61.536 47.2283 61.867 47.3164 62.2676 47.3164ZM67.9554 44.1289V48.0664H66.9497V41.521H67.9213V42.5437H68.0066C68.16 42.2113 68.3929 41.9442 68.7054 41.7425C69.0179 41.538 69.4213 41.4357 69.9157 41.4357C70.3588 41.4357 70.7466 41.5266 71.079 41.7085C71.4114 41.8874 71.6699 42.1602 71.8546 42.5266C72.0392 42.8903 72.1316 43.3505 72.1316 43.9073V48.0664H71.1259V43.9755C71.1259 43.4613 70.9924 43.0607 70.7253 42.7738C70.4583 42.484 70.0918 42.3391 69.6259 42.3391C69.3049 42.3391 69.0179 42.4087 68.7651 42.5479C68.5151 42.6871 68.3176 42.8903 68.1728 43.1573C68.0279 43.4244 67.9554 43.7482 67.9554 44.1289ZM73.9693 48.0664V41.521H74.975V48.0664H73.9693ZM74.4806 40.43C74.2846 40.43 74.1156 40.3633 73.9735 40.2298C73.8343 40.0962 73.7647 39.9357 73.7647 39.7482C73.7647 39.5607 73.8343 39.4002 73.9735 39.2667C74.1156 39.1332 74.2846 39.0664 74.4806 39.0664C74.6767 39.0664 74.8443 39.1332 74.9835 39.2667C75.1255 39.4002 75.1966 39.5607 75.1966 39.7482C75.1966 39.9357 75.1255 40.0962 74.9835 40.2298C74.8443 40.3633 74.6767 40.43 74.4806 40.43ZM79.5613 48.2028C78.9306 48.2028 78.3865 48.0636 77.9292 47.7852C77.4746 47.5039 77.1238 47.1119 76.8766 46.609C76.6323 46.1033 76.5101 45.5153 76.5101 44.8448C76.5101 44.1744 76.6323 43.5835 76.8766 43.0721C77.1238 42.5579 77.4675 42.1573 77.9078 41.8704C78.351 41.5806 78.8681 41.4357 79.459 41.4357C79.7999 41.4357 80.1365 41.4925 80.4689 41.6062C80.8013 41.7198 81.1039 41.9045 81.3766 42.1602C81.6493 42.413 81.8667 42.7482 82.0286 43.1658C82.1905 43.5835 82.2715 44.0977 82.2715 44.7085V45.1346H77.226V44.2653H81.2488C81.2488 43.896 81.1749 43.5664 81.0272 43.2766C80.8823 42.9869 80.6749 42.7582 80.405 42.5906C80.138 42.4229 79.8226 42.3391 79.459 42.3391C79.0584 42.3391 78.7118 42.4386 78.4192 42.6374C78.1294 42.8335 77.9064 43.0891 77.7502 43.4045C77.5939 43.7198 77.5158 44.0579 77.5158 44.4187V44.9982C77.5158 45.4925 77.601 45.9116 77.7715 46.2553C77.9448 46.5962 78.1848 46.8562 78.4917 47.0352C78.7985 47.2113 79.155 47.2994 79.5613 47.2994C79.8255 47.2994 80.0641 47.2624 80.2772 47.1886C80.4931 47.1119 80.6792 46.9982 80.8354 46.8477C80.9917 46.6942 81.1124 46.5039 81.1976 46.2766L82.1692 46.5494C82.0669 46.8789 81.8951 47.1687 81.6536 47.4187C81.4121 47.6658 81.1138 47.859 80.7587 47.9982C80.4036 48.1346 80.0044 48.2028 79.5613 48.2028ZM88.4377 42.9869L87.5343 43.2425C87.4775 43.092 87.3936 42.9457 87.2828 42.8036C87.1749 42.6587 87.0272 42.5394 86.8397 42.4457C86.6522 42.3519 86.4121 42.305 86.1195 42.305C85.7189 42.305 85.3851 42.3974 85.1181 42.582C84.8539 42.7638 84.7218 42.9954 84.7218 43.2766C84.7218 43.5266 84.8127 43.7241 84.9945 43.869C85.1763 44.0138 85.4604 44.1346 85.8468 44.2312L86.8184 44.4698C87.4036 44.6119 87.8397 44.8292 88.1266 45.1218C88.4135 45.4116 88.557 45.7852 88.557 46.2425C88.557 46.6175 88.449 46.9528 88.2331 47.2482C88.0201 47.5437 87.7218 47.7766 87.3382 47.9471C86.9547 48.1175 86.5087 48.2028 86.0002 48.2028C85.3326 48.2028 84.78 48.0579 84.3425 47.7681C83.905 47.4783 83.628 47.055 83.5115 46.4982L84.4661 46.2596C84.557 46.6119 84.7289 46.8761 84.9817 47.0522C85.2374 47.2283 85.5712 47.3164 85.9831 47.3164C86.4519 47.3164 86.824 47.217 87.0996 47.0181C87.378 46.8164 87.5172 46.5749 87.5172 46.2937C87.5172 46.0664 87.4377 45.8761 87.2786 45.7227C87.1195 45.5664 86.8752 45.4499 86.5456 45.3732L85.4547 45.1175C84.8553 44.9755 84.415 44.7553 84.1337 44.457C83.8553 44.1559 83.7161 43.7795 83.7161 43.3278C83.7161 42.9585 83.8198 42.6317 84.0272 42.3477C84.2374 42.0636 84.5229 41.8406 84.8837 41.6786C85.2473 41.5167 85.6593 41.4357 86.1195 41.4357C86.7672 41.4357 87.2757 41.5778 87.6451 41.8619C88.0172 42.146 88.2814 42.521 88.4377 42.9869ZM43.5304 62.0664V61.2994L46.411 58.146C46.7491 57.7766 47.0275 57.4556 47.2463 57.1829C47.465 56.9073 47.6269 56.6488 47.7321 56.4073C47.84 56.163 47.894 55.9073 47.894 55.6403C47.894 55.3335 47.8201 55.0678 47.6724 54.8434C47.5275 54.619 47.3287 54.4457 47.0758 54.3235C46.823 54.2013 46.5389 54.1403 46.2235 54.1403C45.8883 54.1403 45.5957 54.2099 45.3457 54.3491C45.0985 54.4854 44.9068 54.6772 44.7704 54.9244C44.6369 55.1715 44.5701 55.4613 44.5701 55.7937H43.5644C43.5644 55.2823 43.6823 54.8335 43.9181 54.4471C44.1539 54.0607 44.475 53.7596 44.8812 53.5437C45.2903 53.3278 45.7491 53.2198 46.2576 53.2198C46.769 53.2198 47.2221 53.3278 47.617 53.5437C48.0119 53.7596 48.3216 54.0508 48.546 54.4173C48.7704 54.7837 48.8826 55.1914 48.8826 55.6403C48.8826 55.9613 48.8244 56.2752 48.7079 56.582C48.5943 56.886 48.3954 57.2255 48.1113 57.6005C47.8301 57.9727 47.4394 58.4272 46.9394 58.9641L44.9792 61.0607V61.1289H49.036V62.0664H43.5304ZM53.6426 62.1857C53.0005 62.1857 52.4537 62.011 52.0019 61.6616C51.5502 61.3093 51.2051 60.7994 50.9664 60.1317C50.7278 59.4613 50.6085 58.6516 50.6085 57.7028C50.6085 56.7596 50.7278 55.9542 50.9664 55.2866C51.2079 54.6161 51.5545 54.1048 52.0062 53.7525C52.4608 53.3974 53.0062 53.2198 53.6426 53.2198C54.2789 53.2198 54.823 53.3974 55.2747 53.7525C55.7292 54.1048 56.0758 54.6161 56.3144 55.2866C56.5559 55.9542 56.6767 56.7596 56.6767 57.7028C56.6767 58.6516 56.5573 59.4613 56.3187 60.1317C56.0801 60.7994 55.7349 61.3093 55.2832 61.6616C54.8315 62.011 54.2846 62.1857 53.6426 62.1857ZM53.6426 61.2482C54.2789 61.2482 54.7733 60.9414 55.1255 60.3278C55.4778 59.7141 55.6539 58.8391 55.6539 57.7028C55.6539 56.9471 55.573 56.3036 55.411 55.7724C55.2519 55.2411 55.0218 54.8363 54.7207 54.5579C54.4224 54.2795 54.063 54.1403 53.6426 54.1403C53.0119 54.1403 52.519 54.4513 52.1639 55.0735C51.8088 55.6928 51.6312 56.5692 51.6312 57.7028C51.6312 58.4585 51.7108 59.1005 51.8698 59.6289C52.0289 60.1573 52.2576 60.5593 52.5559 60.8349C52.8571 61.1104 53.2193 61.2482 53.6426 61.2482ZM58.296 62.0664V61.2994L61.1767 58.146C61.5147 57.7766 61.7931 57.4556 62.0119 57.1829C62.2306 56.9073 62.3926 56.6488 62.4977 56.4073C62.6056 56.163 62.6596 55.9073 62.6596 55.6403C62.6596 55.3335 62.5858 55.0678 62.438 54.8434C62.2931 54.619 62.0943 54.4457 61.8414 54.3235C61.5886 54.2013 61.3045 54.1403 60.9892 54.1403C60.6539 54.1403 60.3613 54.2099 60.1113 54.3491C59.8642 54.4854 59.6724 54.6772 59.536 54.9244C59.4025 55.1715 59.3358 55.4613 59.3358 55.7937H58.3301C58.3301 55.2823 58.448 54.8335 58.6838 54.4471C58.9196 54.0607 59.2406 53.7596 59.6468 53.5437C60.0559 53.3278 60.5147 53.2198 61.0233 53.2198C61.5346 53.2198 61.9877 53.3278 62.3826 53.5437C62.7775 53.7596 63.0872 54.0508 63.3116 54.4173C63.536 54.7837 63.6483 55.1914 63.6483 55.6403C63.6483 55.9613 63.59 56.2752 63.4735 56.582C63.3599 56.886 63.161 57.2255 62.8769 57.6005C62.5957 57.9727 62.2051 58.4272 61.7051 58.9641L59.7448 61.0607V61.1289H63.8017V62.0664H58.296ZM68.4082 62.1857C67.7662 62.1857 67.2193 62.011 66.7676 61.6616C66.3159 61.3093 65.9707 60.7994 65.7321 60.1317C65.4934 59.4613 65.3741 58.6516 65.3741 57.7028C65.3741 56.7596 65.4934 55.9542 65.7321 55.2866C65.9735 54.6161 66.3201 54.1048 66.7718 53.7525C67.2264 53.3974 67.7718 53.2198 68.4082 53.2198C69.0446 53.2198 69.5886 53.3974 70.0403 53.7525C70.4948 54.1048 70.8414 54.6161 71.0801 55.2866C71.3216 55.9542 71.4423 56.7596 71.4423 57.7028C71.4423 58.6516 71.323 59.4613 71.0843 60.1317C70.8457 60.7994 70.5005 61.3093 70.0488 61.6616C69.5971 62.011 69.0502 62.1857 68.4082 62.1857ZM68.4082 61.2482C69.0446 61.2482 69.5389 60.9414 69.8912 60.3278C70.2434 59.7141 70.4196 58.8391 70.4196 57.7028C70.4196 56.9471 70.3386 56.3036 70.1767 55.7724C70.0176 55.2411 69.7875 54.8363 69.4863 54.5579C69.188 54.2795 68.8287 54.1403 68.4082 54.1403C67.7775 54.1403 67.2846 54.4513 66.9295 55.0735C66.5744 55.6928 66.3968 56.5692 66.3968 57.7028C66.3968 58.4585 66.4764 59.1005 66.6355 59.6289C66.7946 60.1573 67.0233 60.5593 67.3216 60.8349C67.6227 61.1104 67.9849 61.2482 68.4082 61.2482Z" fill="black"/>
<path d="M26.6956 68.855C27.291 68.7246 27.8434 68.4447 28.3009 68.0416C28.7585 67.6384 29.106 67.1254 29.3109 66.5507C28.84 66.1699 28.3099 65.8691 27.7417 65.6604C27.2157 65.4685 26.6624 65.3624 26.1028 65.3462C24.8903 65.3281 23.6813 65.4809 22.5112 65.8C21.3256 66.0968 20.1749 66.4459 19.338 66.7427C18.5011 67.0395 17.9258 67.2489 17.9258 67.2489C17.9258 67.2489 18.4837 67.5632 19.338 67.9298C20.4248 68.391 21.5591 68.7305 22.7204 68.9423" fill="#5EA82F"/>
<path d="M25.7007 61.2429C26.1409 62.3033 26.8356 63.2387 27.7231 63.9661C28.154 64.3004 28.6546 64.5331 29.1877 64.6469C29.7427 64.7679 30.3216 64.713 30.844 64.4898C30.8724 63.3923 30.5751 62.3109 29.9897 61.3825C29.4191 60.523 28.7125 59.7624 27.8975 59.1306C27.1945 58.5724 26.4611 58.0538 25.7007 57.5769C25.0904 57.1929 24.6895 56.9834 24.6895 56.9834C24.6895 56.9834 24.6895 57.1056 24.6895 57.35C24.6895 57.5944 24.6894 57.9086 24.8289 58.3101C24.9894 59.3218 25.2825 60.3079 25.7007 61.2429Z" fill="#5EA82F"/>
<path d="M17.0724 64.0359C17.6541 64.0247 18.2258 63.8824 18.745 63.6194C19.2642 63.3565 19.7175 62.9797 20.0712 62.5172C19.7948 62.0322 19.424 61.6078 18.9808 61.2689C18.5375 60.9301 18.0309 60.6838 17.4909 60.5446C16.3234 60.2405 15.1229 60.0822 13.9166 60.0732C12.6788 60.0732 11.4583 60.0732 10.5342 60.0732H9L9.33122 60.4049C9.54044 60.597 9.8543 60.8937 10.2379 61.2079C11.1794 61.9836 12.2165 62.6348 13.3239 63.1456C14.4881 63.7278 15.771 64.0325 17.0724 64.0359V64.0359Z" fill="#5EA82F"/>
<path d="M19.3384 59.306C19.6576 59.7474 20.081 60.1028 20.5708 60.3404C21.0606 60.578 21.6016 60.6904 22.1454 60.6676C22.5531 59.6177 22.5531 58.453 22.1454 57.4032C21.8017 56.4247 21.3076 55.5058 20.6809 54.6799C20.0881 53.8769 19.4953 53.1786 19.0594 52.6898C18.6236 52.2011 18.6584 52.2534 18.519 52.1138C18.4633 52.0368 18.3989 51.9665 18.3272 51.9043L18.2225 52.2534C18.1483 52.5586 18.0901 52.8674 18.0482 53.1786C17.898 54.168 17.898 55.1744 18.0482 56.1638C18.2016 57.3047 18.646 58.3869 19.3384 59.306V59.306Z" fill="#5EA82F"/>
<path d="M4.77955 50.7177L3.38477 50.2812L3.54167 50.6653C3.64628 50.8922 3.8206 51.2239 4.04725 51.6254C4.27391 52.0269 4.53547 52.4633 4.8493 52.9347C5.16313 53.406 5.16313 53.406 5.33748 53.6504L5.47694 53.8424L5.6513 54.0694L6.01742 54.5233C6.92291 55.6624 8.1318 56.5218 9.50443 57.0021C10.0604 57.2149 10.6614 57.2818 11.2504 57.1962C11.8394 57.1106 12.3968 56.8756 12.8694 56.5133C12.6004 55.408 11.9368 54.4394 11.0039 53.7901C10.776 53.6016 10.5373 53.4268 10.289 53.2664C10.0365 53.0894 9.77454 52.9263 9.50443 52.7776C9.24291 52.603 8.96394 52.4459 8.68498 52.2888C8.40602 52.1317 8.14451 52.0095 7.88298 51.8873C6.87873 51.4213 5.84142 51.0304 4.77955 50.7177Z" fill="#5EA82F"/>
<path d="M12.992 52.8994C13.1343 53.4206 13.4129 53.8943 13.7991 54.2717C14.1852 54.6492 14.665 54.9166 15.1888 55.0466C15.8791 54.1883 16.2709 53.128 16.3046 52.0265C16.3345 51.1088 16.2702 50.1904 16.1129 49.2858C16.0533 48.83 15.9541 48.3802 15.8164 47.9416C15.6944 47.4878 15.5549 47.0688 15.4329 46.7197C15.3108 46.3705 15.1714 46.0912 15.1016 45.8992L14.9796 45.585L14.7704 45.8992C14.6309 46.1087 14.474 46.4054 14.2822 46.7546C13.7993 47.6597 13.4136 48.6135 13.1315 49.6C13.1315 49.8793 12.992 50.1586 12.9397 50.4379C12.8821 50.7145 12.8413 50.9944 12.8176 51.2759C12.8004 51.5491 12.8004 51.8231 12.8176 52.0964C12.8571 52.3677 12.9154 52.636 12.992 52.8994V52.8994Z" fill="#5EA82F"/>
<path d="M3.38629 46.5106C3.58947 46.7434 3.81098 46.9594 4.04877 47.1565C4.27082 47.3575 4.51002 47.5386 4.76362 47.6977C5.23473 48.0277 5.7731 48.2489 6.33989 48.3455C6.90668 48.4421 7.4878 48.4116 8.04142 48.2563C8.15502 47.675 8.11903 47.0742 7.93681 46.5106C7.86517 46.2589 7.7596 46.0181 7.62299 45.7949C7.50095 45.5505 7.3266 45.3236 7.18712 45.0966C6.44447 44.1768 5.55487 43.3864 4.55441 42.7574C3.66352 42.1243 2.73803 41.5415 1.78224 41.0118L0.474609 40.3135L0.579215 40.7324C0.579215 40.9768 0.753553 41.3434 0.893034 41.7798C1.23234 42.8621 1.70068 43.8996 2.28787 44.8697C2.60918 45.4455 2.97652 45.9942 3.38629 46.5106V46.5106Z" fill="#5EA82F"/>
<path d="M9.83578 46.0388C10.0796 46.5255 10.4388 46.9451 10.8819 47.2608C11.861 46.6938 12.5897 45.7771 12.9218 44.6946C13.0041 44.4435 13.0682 44.1868 13.1136 43.9265C13.1136 43.8043 13.1136 43.6647 13.1136 43.5425V43.141C13.1563 42.6123 13.1563 42.0811 13.1136 41.5524C13.0765 40.6521 12.9892 39.7546 12.8521 38.8641C12.8081 38.582 12.7499 38.3023 12.6777 38.0261C12.6777 37.8341 12.6777 37.7119 12.6777 37.7119L12.4162 37.9738C12.2418 38.1483 12.0326 38.3927 11.7711 38.707C11.13 39.4889 10.5747 40.3375 10.1147 41.2382C9.62551 42.2647 9.35813 43.383 9.33015 44.5201C9.32825 44.7855 9.36351 45.0499 9.43481 45.3056C9.54567 45.5618 9.67987 45.8073 9.83578 46.0388V46.0388Z" fill="#5EA82F"/>
<path d="M1.29236 36.6645C1.44038 36.939 1.60944 37.2016 1.79799 37.45C1.97673 37.6928 2.17498 37.9205 2.39077 38.1308C2.78877 38.5504 3.27592 38.8749 3.81615 39.0804C4.35638 39.2858 4.93585 39.367 5.51166 39.3179C5.71581 38.7966 5.78768 38.2328 5.72088 37.677C5.69611 37.4145 5.63749 37.1563 5.54651 36.9089C5.4767 36.6506 5.38332 36.3993 5.26755 36.1582C5.02459 35.6351 4.72025 35.1428 4.36094 34.6918C4.16916 34.4475 3.97736 34.2205 3.80301 33.9761L3.21022 33.2953C2.40821 32.405 1.46669 31.5496 0.891332 30.9736C0.315976 30.3975 -0.207031 29.9785 -0.207031 29.9785C-0.207031 29.9785 -0.207031 30.607 -0.207031 31.5322C-0.207031 31.986 -0.0850306 32.5272 0.0195797 33.1207C0.0195797 33.4 0.141653 33.6968 0.211393 34.011C0.281133 34.3253 0.368298 34.622 0.472908 34.9188C0.706643 35.5184 0.980413 36.1016 1.29236 36.6645V36.6645Z" fill="#5EA82F"/>
<path d="M8.47653 38.6543C9.54047 38.2936 10.4303 37.546 10.9697 36.5595C11.0976 36.3354 11.2083 36.102 11.301 35.8612C11.4202 35.6234 11.5251 35.3785 11.6149 35.128C11.7778 34.6444 11.9003 34.1481 11.981 33.6442C12.0856 33.1729 12.1728 32.7015 12.2251 32.2651C12.2774 31.8287 12.2251 31.8287 12.2251 31.6367C12.2151 31.4506 12.2151 31.2641 12.2251 31.0781C12.2534 30.7004 12.2534 30.3211 12.2251 29.9434C12.2251 29.9434 11.7718 30.2052 11.1092 30.6765L10.5862 31.0606L10.0457 31.5494C9.64935 31.9097 9.28212 32.3008 8.94731 32.719C8.75553 32.9459 8.59858 33.1729 8.42423 33.4173L8.19757 33.7664C8.12672 33.8908 8.06272 34.019 8.00581 34.1505C7.76145 34.6437 7.57987 35.1656 7.46532 35.7041C7.43083 35.9707 7.43083 36.2406 7.46532 36.5071C7.47177 36.7674 7.51277 37.0258 7.58733 37.2752C7.76086 37.8036 8.06706 38.2784 8.47653 38.6543V38.6543Z" fill="#5EA82F"/>
<path d="M4.18633 23.712C3.90737 23.1708 3.61099 22.6646 3.33203 22.1758L2.52998 20.884C2.05923 20.1333 1.72798 19.6445 1.72798 19.6445C1.72798 19.6445 1.55365 20.2381 1.36186 21.1458C1.36186 21.6172 1.23981 22.1583 1.1875 22.7344V23.6421C1.1875 23.9564 1.1875 24.288 1.1875 24.6023C1.23243 25.2438 1.33156 25.8803 1.48387 26.5051C1.6603 27.1131 1.90602 27.6989 2.21616 28.2507C2.49875 28.7566 2.89453 29.1901 3.37247 29.5172C3.85041 29.8443 4.39748 30.0561 4.97088 30.1361C5.12403 29.9023 5.24709 29.6501 5.33705 29.3854C5.43098 29.1366 5.50103 28.8794 5.54626 28.6173C5.65009 28.0929 5.65009 27.5532 5.54626 27.0288C5.43146 26.4666 5.2621 25.917 5.04063 25.3878C4.7791 24.7943 4.44786 24.2357 4.18633 23.712Z" fill="#5EA82F"/>
<path d="M10.865 28.46C11.2226 28.1012 11.5385 27.703 11.8065 27.2729C12.0953 26.86 12.3462 26.4218 12.5562 25.9636C12.6782 25.7542 12.748 25.5272 12.8526 25.3177C12.9572 25.1083 13.0444 24.8988 13.1315 24.7067C13.2187 24.5147 13.4105 23.9387 13.5325 23.607C13.6689 23.2666 13.7796 22.9165 13.8638 22.5596C13.4384 22.6707 13.0194 22.8047 12.6085 22.9611C11.6812 23.3139 10.8024 23.7831 9.9932 24.3576C9.78398 24.5322 9.53988 24.7068 9.33066 24.8988C9.12589 25.0836 8.9337 25.2819 8.75533 25.4923C8.37932 25.896 8.06765 26.3553 7.83127 26.8539C7.6186 27.3323 7.50587 27.8491 7.5 28.3727C7.50043 28.6265 7.53562 28.8791 7.60461 29.1233C7.69457 29.388 7.81757 29.6402 7.97073 29.874C9.07361 29.7654 10.1008 29.2636 10.865 28.46V28.46Z" fill="#5EA82F"/>
<path d="M7.23639 20.4465C7.39537 20.2355 7.52992 20.0071 7.63742 19.7657C7.73919 19.5241 7.81511 19.2725 7.86403 19.015C7.86403 18.7532 7.86403 18.4913 7.96864 18.212C8.00338 17.6287 7.97417 17.0433 7.88148 16.4663C7.79829 15.8783 7.68185 15.2955 7.53276 14.7206C7.23636 13.551 6.90512 12.4338 6.62616 11.5959C6.34719 10.7579 6.13798 10.2168 6.13798 10.2168C6.06168 10.3291 5.99183 10.4457 5.92876 10.5659C5.80672 10.8103 5.63237 11.142 5.44058 11.561C4.97434 12.6002 4.62919 13.6897 4.41192 14.8079C4.30207 15.4364 4.24375 16.0728 4.23756 16.7107C4.22029 17.0189 4.22029 17.3278 4.23756 17.6359C4.28112 17.931 4.34518 18.2227 4.42932 18.5088C4.58413 19.0582 4.85133 19.5695 5.21392 20.0101C5.593 20.4568 6.07044 20.8094 6.6087 21.04C6.84089 20.868 7.05165 20.6688 7.23639 20.4465V20.4465Z" fill="#5EA82F"/>
<path d="M16.9848 15.9601L17.1417 15.6982H16.7756H15.8166C15.433 15.6982 14.9797 15.8379 14.4741 15.9426L13.707 16.1521L12.9398 16.414C12.4148 16.6172 11.9123 16.8746 11.4405 17.1821C10.9906 17.491 10.5806 17.8546 10.22 18.2644C10.0492 18.4613 9.90281 18.6782 9.7841 18.9103C9.67884 19.1418 9.59142 19.3811 9.52259 19.626C9.45245 19.876 9.41725 20.1345 9.41798 20.3941C9.43867 20.667 9.49133 20.9365 9.57489 21.1971C10.1509 21.3071 10.7424 21.3071 11.3184 21.1971C11.8268 21.0785 12.3145 20.8843 12.7655 20.6211C12.9908 20.4979 13.2064 20.3578 13.4106 20.2021L13.707 19.9577L14.0034 19.7133C14.3781 19.3849 14.7278 19.029 15.0495 18.6484C15.3634 18.2818 15.6597 17.9153 15.9213 17.5661L16.0956 17.3043L16.2699 17.0599C16.3822 16.914 16.4869 16.7625 16.5838 16.606C16.7755 16.3791 16.9848 16.1347 16.9848 15.9601Z" fill="#5EA82F"/>
<path d="M10.6032 12.8529C11.086 12.6037 11.5039 12.245 11.8237 11.8055C12.148 11.3854 12.3851 10.9047 12.5211 10.3915C12.8139 9.25218 12.9315 8.07487 12.8698 6.9001C12.8698 6.60334 12.8698 6.30657 12.8698 6.0098C12.8698 5.71304 12.8698 5.43374 12.8698 5.17188C12.8698 4.61327 12.7652 4.10702 12.7129 3.6706C12.6257 2.79776 12.5385 2.22168 12.5385 2.22168L12.2596 2.5359C12.0164 2.80138 11.7893 3.08118 11.5796 3.37382C11.2727 3.78333 10.9876 4.2087 10.7253 4.64817C10.4185 5.16852 10.1391 5.70459 9.88838 6.2542C9.64645 6.8183 9.45397 7.40239 9.31305 7.99988C9.18348 8.57238 9.12491 9.1587 9.13869 9.74556C9.1304 10.341 9.25802 10.9304 9.51183 11.4689C9.76564 12.0074 10.1389 12.4808 10.6032 12.8529Z" fill="#5EA82F"/>
<path d="M19.2507 12.2256C19.6517 11.9288 20.0353 11.632 20.3666 11.3353C20.6978 11.0385 20.9942 10.7767 21.2383 10.5323L21.8311 9.95619L22.0403 9.72924C21.6093 9.63568 21.1724 9.57154 20.7327 9.53723C20.274 9.50842 19.814 9.50842 19.3553 9.53723C18.8183 9.55057 18.2826 9.5972 17.7513 9.67687C16.6415 9.80358 15.5808 10.2056 14.6653 10.8465C14.2583 11.1578 13.9199 11.5501 13.6715 11.9986C13.4336 12.4746 13.3197 13.003 13.3403 13.5348C14.3615 13.9739 15.5067 14.0297 16.5657 13.6919C17.0586 13.5517 17.5328 13.3525 17.978 13.0984C18.4257 12.8433 18.8514 12.5514 19.2507 12.2256Z" fill="#5EA82F"/>
<path d="M41.3926 70.0418C34.545 67.7759 27.9113 64.9076 21.5689 61.4705C18.8553 59.9801 16.424 58.0243 14.3857 55.6923C12.4064 53.2785 10.8286 50.5612 9.71304 47.6447C7.34118 42.3006 6.21438 36.4863 6.41784 30.6418C7.00093 23.749 9.3752 17.1289 13.3047 11.4393C14.2842 9.95592 15.3375 8.52266 16.4605 7.14494C16.8536 7.15894 17.2468 7.11781 17.6286 7.02274C18.1209 6.88696 18.5866 6.66856 19.006 6.37684L19.5987 5.88805C19.7977 5.70908 19.9841 5.5166 20.1567 5.31197C20.5108 4.91002 20.837 4.48425 21.133 4.03763C21.7433 3.14734 22.2489 2.29195 22.6324 1.54131L23.0683 0.703378L23.1904 0.458984H22.9288L21.9699 0.63355C20.9793 0.876421 20.0242 1.24606 19.128 1.73334C18.0986 2.26319 17.2085 3.02875 16.5302 3.9678C16.2221 4.41439 16.0085 4.91934 15.9025 5.45163C15.7987 5.90545 15.7987 6.37689 15.9025 6.83072C13.2773 10.0293 11.0686 13.5488 9.32947 17.3048C7.22976 21.8281 6.04466 26.7227 5.84246 31.7067C5.80964 37.3867 6.99894 43.0072 9.32947 48.1859C10.9541 52.436 13.6083 56.2152 17.0532 59.1836C20.4346 61.7852 24.1911 63.8571 28.1942 65.3284C31.3848 66.6202 35.4646 68.8198 39.6491 70.6877" fill="#5EA82F"/>
<path d="M88.8903 68.855C88.295 68.7246 87.7425 68.4447 87.285 68.0416C86.8275 67.6384 86.4799 67.1254 86.2751 66.5507C86.7459 66.1699 87.276 65.8691 87.8442 65.6604C88.3702 65.4685 88.9235 65.3624 89.4831 65.3462C90.6956 65.3281 91.9047 65.4809 93.0747 65.8C94.2603 66.0968 95.411 66.4459 96.2479 66.7427C97.0848 67.0395 97.6602 67.2489 97.6602 67.2489C97.6602 67.2489 97.1022 67.5632 96.2479 67.9298C95.1611 68.391 94.0268 68.7305 92.8655 68.9423" fill="#5EA82F"/>
<path d="M89.8853 61.2429C89.445 62.3033 88.7504 63.2387 87.8628 63.9661C87.4319 64.3004 86.9313 64.5331 86.3983 64.6469C85.8432 64.7679 85.2644 64.713 84.7419 64.4898C84.7135 63.3923 85.0109 62.3109 85.5963 61.3825C86.1668 60.523 86.8735 59.7624 87.6884 59.1306C88.3915 58.5724 89.1249 58.0538 89.8853 57.5769C90.4955 57.1929 90.8965 56.9834 90.8965 56.9834C90.8965 56.9834 90.8965 57.1056 90.8965 57.35C90.8965 57.5944 90.8965 57.9086 90.757 58.3101C90.5966 59.3218 90.3034 60.3079 89.8853 61.2429Z" fill="#5EA82F"/>
<path d="M98.5155 64.0359C97.9338 64.0247 97.3621 63.8824 96.8429 63.6194C96.3237 63.3565 95.8704 62.9797 95.5167 62.5172C95.7931 62.0322 96.1639 61.6078 96.6071 61.2689C97.0503 60.9301 97.557 60.6838 98.097 60.5446C99.2645 60.2405 100.465 60.0822 101.671 60.0732C102.909 60.0732 104.13 60.0732 105.054 60.0732H106.588L106.257 60.4049C106.047 60.597 105.734 60.8937 105.35 61.2079C104.409 61.9836 103.371 62.6348 102.264 63.1456C101.1 63.7278 99.8169 64.0325 98.5155 64.0359V64.0359Z" fill="#5EA82F"/>
<path d="M96.2495 59.306C95.9303 59.7474 95.5069 60.1028 95.0171 60.3404C94.5273 60.578 93.9863 60.6904 93.4425 60.6676C93.0347 59.6177 93.0347 58.453 93.4425 57.4032C93.7861 56.4247 94.2803 55.5058 94.907 54.6799C95.4998 53.8769 96.0926 53.1786 96.5284 52.6898C96.9643 52.2011 96.9294 52.2534 97.0689 52.1138C97.1246 52.0368 97.189 51.9665 97.2607 51.9043L97.3653 52.2534C97.4396 52.5586 97.4978 52.8674 97.5397 53.1786C97.6899 54.168 97.6899 55.1744 97.5397 56.1638C97.3863 57.3047 96.9419 58.3869 96.2495 59.306V59.306Z" fill="#5EA82F"/>
<path d="M110.806 50.7177L112.201 50.2812L112.044 50.6653C111.94 50.8922 111.765 51.2239 111.539 51.6254C111.312 52.0269 111.05 52.4633 110.737 52.9347C110.423 53.406 110.423 53.406 110.248 53.6504L110.109 53.8424L109.935 54.0694L109.569 54.5233C108.663 55.6624 107.454 56.5218 106.082 57.0021C105.526 57.2149 104.925 57.2818 104.336 57.1962C103.746 57.1106 103.189 56.8756 102.717 56.5133C102.986 55.408 103.649 54.4394 104.582 53.7901C104.81 53.6016 105.049 53.4268 105.297 53.2664C105.549 53.0894 105.811 52.9263 106.082 52.7776C106.343 52.603 106.622 52.4459 106.901 52.2888C107.18 52.1317 107.441 52.0095 107.703 51.8873C108.707 51.4213 109.745 51.0304 110.806 50.7177Z" fill="#5EA82F"/>
<path d="M102.594 52.8994C102.452 53.4206 102.173 53.8943 101.787 54.2717C101.401 54.6492 100.921 54.9166 100.397 55.0466C99.7068 54.1883 99.3151 53.128 99.2813 52.0265C99.2515 51.1088 99.3157 50.1904 99.4731 49.2858C99.5327 48.83 99.6319 48.3802 99.7695 47.9416C99.8915 47.4878 100.031 47.0688 100.153 46.7197C100.275 46.3705 100.415 46.0912 100.484 45.8992L100.606 45.585L100.816 45.8992C100.955 46.1087 101.112 46.4054 101.304 46.7546C101.787 47.6597 102.172 48.6135 102.454 49.6C102.454 49.8793 102.594 50.1586 102.646 50.4379C102.704 50.7145 102.745 50.9944 102.768 51.2759C102.786 51.5491 102.786 51.8231 102.768 52.0964C102.729 52.3677 102.671 52.636 102.594 52.8994V52.8994Z" fill="#5EA82F"/>
<path d="M112.202 46.5106C111.998 46.7434 111.777 46.9594 111.539 47.1565C111.317 47.3575 111.078 47.5386 110.824 47.6977C110.353 48.0277 109.815 48.2489 109.248 48.3455C108.681 48.4421 108.1 48.4116 107.546 48.2563C107.433 47.675 107.469 47.0742 107.651 46.5106C107.723 46.2589 107.828 46.0181 107.965 45.7949C108.087 45.5505 108.261 45.3236 108.401 45.0966C109.143 44.1768 110.033 43.3864 111.033 42.7574C111.924 42.1243 112.85 41.5415 113.806 41.0118L115.113 40.3135L115.009 40.7324C115.009 40.9768 114.834 41.3434 114.695 41.7798C114.356 42.8621 113.887 43.8996 113.3 44.8697C112.979 45.4455 112.611 45.9942 112.202 46.5106V46.5106Z" fill="#5EA82F"/>
<path d="M105.75 46.0388C105.506 46.5255 105.147 46.9451 104.704 47.2608C103.725 46.6938 102.996 45.7771 102.664 44.6946C102.582 44.4435 102.518 44.1868 102.472 43.9265C102.472 43.8043 102.472 43.6647 102.472 43.5425V43.141C102.43 42.6123 102.43 42.0811 102.472 41.5524C102.509 40.6521 102.597 39.7546 102.734 38.8641C102.778 38.582 102.836 38.3023 102.908 38.0261C102.908 37.8341 102.908 37.7119 102.908 37.7119L103.17 37.9738C103.344 38.1483 103.553 38.3927 103.815 38.707C104.456 39.4889 105.011 40.3375 105.471 41.2382C105.96 42.2647 106.228 43.383 106.256 44.5201C106.258 44.7855 106.222 45.0499 106.151 45.3056C106.04 45.5618 105.906 45.8073 105.75 46.0388V46.0388Z" fill="#5EA82F"/>
<path d="M114.294 36.6645C114.146 36.939 113.976 37.2016 113.788 37.45C113.609 37.6928 113.411 37.9205 113.195 38.1308C112.797 38.5504 112.31 38.8749 111.77 39.0804C111.23 39.2858 110.65 39.367 110.074 39.3179C109.87 38.7966 109.798 38.2328 109.865 37.677C109.89 37.4145 109.948 37.1563 110.039 36.9089C110.109 36.6506 110.203 36.3993 110.318 36.1582C110.561 35.6351 110.866 35.1428 111.225 34.6918C111.417 34.4475 111.609 34.2205 111.783 33.9761L112.376 33.2953C113.178 32.405 114.119 31.5496 114.695 30.9736C115.27 30.3975 115.793 29.9785 115.793 29.9785C115.793 29.9785 115.793 30.607 115.793 31.5322C115.793 31.986 115.671 32.5272 115.566 33.1207C115.566 33.4 115.444 33.6968 115.375 34.011C115.305 34.3253 115.218 34.622 115.113 34.9188C114.879 35.5184 114.606 36.1016 114.294 36.6645V36.6645Z" fill="#5EA82F"/>
<path d="M107.111 38.6543C106.047 38.2936 105.158 37.546 104.618 36.5595C104.49 36.3354 104.38 36.102 104.287 35.8612C104.168 35.6234 104.063 35.3785 103.973 35.128C103.81 34.6444 103.688 34.1481 103.607 33.6442C103.502 33.1729 103.415 32.7015 103.363 32.2651C103.311 31.8287 103.363 31.8287 103.363 31.6367C103.373 31.4506 103.373 31.2641 103.363 31.0781C103.335 30.7004 103.335 30.3211 103.363 29.9434C103.363 29.9434 103.816 30.2052 104.479 30.6765L105.002 31.0606L105.542 31.5494C105.939 31.9097 106.306 32.3008 106.641 32.719C106.832 32.9459 106.989 33.1729 107.164 33.4173L107.39 33.7664C107.461 33.8908 107.525 34.019 107.582 34.1505C107.826 34.6437 108.008 35.1656 108.123 35.7041C108.157 35.9707 108.157 36.2406 108.123 36.5071C108.116 36.7674 108.075 37.0258 108.001 37.2752C107.827 37.8036 107.521 38.2784 107.111 38.6543V38.6543Z" fill="#5EA82F"/>
<path d="M111.4 23.712C111.679 23.1708 111.975 22.6646 112.254 22.1758L113.056 20.884C113.527 20.1333 113.858 19.6445 113.858 19.6445C113.858 19.6445 114.032 20.2381 114.224 21.1458C114.224 21.6172 114.346 22.1583 114.398 22.7344V23.6421C114.398 23.9564 114.398 24.288 114.398 24.6023C114.354 25.2438 114.254 25.8803 114.102 26.5051C113.926 27.1131 113.68 27.6989 113.37 28.2507C113.087 28.7566 112.691 29.1901 112.213 29.5172C111.736 29.8443 111.188 30.0561 110.615 30.1361C110.462 29.9023 110.339 29.6501 110.249 29.3854C110.155 29.1366 110.085 28.8794 110.04 28.6173C109.936 28.0929 109.936 27.5532 110.04 27.0288C110.154 26.4666 110.324 25.917 110.545 25.3878C110.807 24.7943 111.138 24.2357 111.4 23.712Z" fill="#5EA82F"/>
<path d="M104.723 28.46C104.365 28.1012 104.049 27.703 103.781 27.2729C103.493 26.86 103.242 26.4218 103.032 25.9636C102.91 25.7542 102.84 25.5272 102.735 25.3177C102.631 25.1083 102.544 24.8988 102.456 24.7067C102.369 24.5147 102.177 23.9387 102.055 23.607C101.919 23.2666 101.808 22.9165 101.724 22.5596C102.149 22.6707 102.569 22.8047 102.979 22.9611C103.907 23.3139 104.785 23.7831 105.595 24.3576C105.804 24.5322 106.048 24.7068 106.257 24.8988C106.462 25.0836 106.654 25.2819 106.833 25.4923C107.209 25.896 107.52 26.3553 107.757 26.8539C107.969 27.3323 108.082 27.8491 108.088 28.3727C108.087 28.6265 108.052 28.8791 107.983 29.1233C107.893 29.388 107.77 29.6402 107.617 29.874C106.514 29.7654 105.487 29.2636 104.723 28.46V28.46Z" fill="#5EA82F"/>
<path d="M108.348 20.4465C108.189 20.2355 108.054 20.0071 107.947 19.7657C107.845 19.5241 107.769 19.2725 107.72 19.015C107.72 18.7532 107.72 18.4913 107.615 18.212C107.581 17.6287 107.61 17.0433 107.703 16.4663C107.786 15.8783 107.902 15.2955 108.051 14.7206C108.348 13.551 108.679 12.4338 108.958 11.5959C109.237 10.7579 109.446 10.2168 109.446 10.2168C109.522 10.3291 109.592 10.4457 109.655 10.5659C109.777 10.8103 109.952 11.142 110.143 11.561C110.61 12.6002 110.955 13.6897 111.172 14.8079C111.282 15.4364 111.34 16.0728 111.346 16.7107C111.364 17.0189 111.364 17.3278 111.346 17.6359C111.303 17.931 111.239 18.2227 111.155 18.5088C111 19.0582 110.733 19.5695 110.37 20.0101C109.991 20.4568 109.514 20.8094 108.975 21.04C108.743 20.868 108.532 20.6688 108.348 20.4465V20.4465Z" fill="#5EA82F"/>
<path d="M98.6031 15.9601L98.4462 15.6982H98.8123H99.7713C100.155 15.6982 100.608 15.8379 101.114 15.9426L101.881 16.1521L102.648 16.414C103.173 16.6172 103.676 16.8746 104.147 17.1821C104.597 17.491 105.007 17.8546 105.368 18.2644C105.539 18.4613 105.685 18.6782 105.804 18.9103C105.909 19.1418 105.996 19.3811 106.065 19.626C106.135 19.876 106.171 20.1345 106.17 20.3941C106.149 20.667 106.097 20.9365 106.013 21.1971C105.437 21.3071 104.845 21.3071 104.269 21.1971C103.761 21.0785 103.273 20.8843 102.822 20.6211C102.597 20.4979 102.381 20.3578 102.177 20.2021L101.881 19.9577L101.584 19.7133C101.21 19.3849 100.86 19.029 100.538 18.6484C100.225 18.2818 99.9281 17.9153 99.6666 17.5661L99.4923 17.3043L99.3179 17.0599C99.2057 16.914 99.101 16.7625 99.0041 16.606C98.8123 16.3791 98.6031 16.1347 98.6031 15.9601Z" fill="#5EA82F"/>
<path d="M104.983 12.8529C104.5 12.6037 104.082 12.245 103.762 11.8055C103.438 11.3854 103.201 10.9047 103.065 10.3915C102.772 9.25218 102.654 8.07487 102.716 6.9001C102.716 6.60334 102.716 6.30657 102.716 6.0098C102.716 5.71304 102.716 5.43374 102.716 5.17188C102.716 4.61327 102.821 4.10702 102.873 3.6706C102.96 2.79776 103.047 2.22168 103.047 2.22168L103.326 2.5359C103.57 2.80138 103.797 3.08118 104.006 3.37382C104.313 3.78333 104.598 4.2087 104.861 4.64817C105.167 5.16852 105.447 5.70459 105.698 6.2542C105.939 6.8183 106.132 7.40239 106.273 7.99988C106.402 8.57238 106.461 9.1587 106.447 9.74556C106.456 10.341 106.328 10.9304 106.074 11.4689C105.82 12.0074 105.447 12.4808 104.983 12.8529Z" fill="#5EA82F"/>
<path d="M96.3352 12.2256C95.9342 11.9288 95.5506 11.632 95.2194 11.3353C94.8881 11.0385 94.5917 10.7767 94.3476 10.5323L93.7548 9.95619L93.5456 9.72924C93.9766 9.63568 94.4135 9.57154 94.8532 9.53723C95.3119 9.50842 95.772 9.50842 96.2306 9.53723C96.7677 9.55057 97.3033 9.5972 97.8346 9.67687C98.9445 9.80358 100.005 10.2056 100.921 10.8465C101.328 11.1578 101.666 11.5501 101.914 11.9986C102.152 12.4746 102.266 13.003 102.246 13.5348C101.224 13.9739 100.079 14.0297 99.0202 13.6919C98.5273 13.5517 98.0531 13.3525 97.608 13.0984C97.1602 12.8433 96.7345 12.5514 96.3352 12.2256Z" fill="#5EA82F"/>
<path d="M74.1934 70.0418C81.0409 67.7759 87.6746 64.9076 94.017 61.4705C96.7307 59.9801 99.162 58.0243 101.2 55.6923C103.179 53.2785 104.757 50.5612 105.873 47.6447C108.245 42.3006 109.372 36.4863 109.168 30.6418C108.585 23.749 106.211 17.1289 102.281 11.4393C101.302 9.95592 100.248 8.52266 99.1255 7.14494C98.7323 7.15894 98.3392 7.11781 97.9574 7.02274C97.4651 6.88696 96.9993 6.66856 96.58 6.37684L95.9872 5.88805C95.7882 5.70908 95.6018 5.5166 95.4293 5.31197C95.0751 4.91002 94.7489 4.48425 94.4529 4.03763C93.8427 3.14734 93.3371 2.29195 92.9535 1.54131L92.5176 0.703378L92.3956 0.458984H92.6571L93.6161 0.63355C94.6066 0.876421 95.5617 1.24606 96.4579 1.73334C97.4874 2.26319 98.3774 3.02875 99.0558 3.9678C99.3639 4.41439 99.5774 4.91934 99.6834 5.45163C99.7872 5.90545 99.7872 6.37689 99.6834 6.83072C102.309 10.0293 104.517 13.5488 106.256 17.3048C108.356 21.8281 109.541 26.7227 109.743 31.7067C109.776 37.3867 108.587 43.0072 106.256 48.1859C104.632 52.436 101.978 56.2152 98.5327 59.1836C95.1514 61.7852 91.3949 63.8571 87.3917 65.3284C84.2011 66.6202 80.1213 68.8198 75.9369 70.6877" fill="#5EA82F"/>
<path d="M39.457 79.6436H43.6677V80.3516H41.8999V85.533H41.1606V80.3516H39.457V79.6436Z" fill="#202020"/>
<path d="M44.954 81.2207C46.4325 81.2207 46.8825 81.7678 46.8825 83.4735C46.8825 85.0505 46.4325 85.5976 44.954 85.5976C43.4754 85.5976 43.0254 85.0183 43.0254 83.4735C43.0254 81.7034 43.5075 81.2207 44.954 81.2207ZM44.954 84.8896C45.7575 84.8896 46.1432 84.793 46.1432 83.4413C46.1432 81.9931 45.854 81.8965 44.954 81.8965C44.1182 81.8965 43.7647 82.0253 43.7647 83.4413C43.7647 84.793 44.1504 84.8896 44.954 84.8896Z" fill="#202020"/>
<path d="M47.7821 81.2519H48.3607L48.5214 81.7024C48.7464 81.5415 49.5179 81.1875 50.0321 81.1875C51.1893 81.1875 51.4464 82.2817 51.4464 83.3438C51.4464 84.4702 51.2536 85.5644 50.0321 85.5644C49.6786 85.5644 49.0036 85.4678 48.4893 85.2426V87.6563H47.75V81.2519H47.7821ZM49.9679 84.9207C50.45 84.9207 50.7071 84.6311 50.7071 83.3759C50.7071 82.3461 50.45 81.8955 49.9679 81.8955C49.3893 81.8955 48.9071 82.0564 48.5214 82.2495V84.7276C49.0036 84.8564 49.3893 84.9207 49.9679 84.9207V84.9207Z" fill="#202020"/>
<path d="M52.5391 79.6436H54.8533C56.6533 79.6436 56.9748 81.3493 56.9748 82.6044C56.9748 84.0526 56.3962 85.533 54.8533 85.533H52.5391V79.6436ZM54.8212 84.7928C55.8176 84.7928 56.2034 83.7952 56.2034 82.5722C56.2034 80.8987 55.6891 80.3194 54.8212 80.3194H53.2783V84.7928H54.8212Z" fill="#202020"/>
<path d="M59.4809 81.2207C60.5737 81.2207 61.1844 81.3173 61.1844 82.7333C61.1844 83.377 60.8309 83.731 60.0273 83.731H58.3559C58.3559 84.6643 58.5809 84.8574 59.1916 84.8574C59.9309 84.8574 60.5094 84.8574 61.1201 84.7608V85.3079C60.4773 85.501 59.7059 85.5332 59.0309 85.5332C57.938 85.5332 57.6166 84.9861 57.6166 83.3448C57.5844 81.4782 58.1309 81.2207 59.4809 81.2207V81.2207ZM59.963 83.1195C60.2844 83.1195 60.4451 82.9908 60.4451 82.7333C60.4451 81.9609 60.3166 81.8965 59.513 81.8965C58.6773 81.8965 58.3559 81.8965 58.3559 83.1195H59.963Z" fill="#202020"/>
<path d="M62.4715 81.2529L63.7251 84.5356L64.9787 81.2529H65.7823L64.0787 85.5333H63.3073L61.668 81.2529H62.4715V81.2529Z" fill="#202020"/>
<path d="M68.1269 81.2207C69.2198 81.2207 69.8305 81.3173 69.8305 82.7333C69.8305 83.377 69.4769 83.731 68.6733 83.731H66.9698C66.9698 84.6643 67.1948 84.8574 67.8055 84.8574C68.5448 84.8574 69.1233 84.8574 69.734 84.7608V85.3079C69.0912 85.501 68.3198 85.5332 67.6448 85.5332C66.5519 85.5332 66.2305 84.9861 66.2305 83.3448C66.2305 81.4782 66.7769 81.2207 68.1269 81.2207V81.2207ZM68.609 83.1195C68.9305 83.1195 69.0912 82.9908 69.0912 82.7333C69.0912 81.9609 68.9626 81.8965 68.159 81.8965C67.3233 81.8965 67.0019 81.8965 67.0019 83.1195H68.609Z" fill="#202020"/>
<path d="M70.668 79.2246H71.4073V83.9555C71.4073 84.6313 71.6001 84.7923 71.8573 84.8566C71.8573 84.8566 72.468 85.0175 72.5323 85.0175V85.5325H71.7608C71.118 85.5325 70.668 85.1463 70.668 84.0199V79.2246Z" fill="#202020"/>
<path d="M74.7508 81.2207C76.2294 81.2207 76.6794 81.7678 76.6794 83.4735C76.6794 85.0505 76.2294 85.5976 74.7508 85.5976C73.2723 85.5976 72.8223 85.0183 72.8223 83.4735C72.8223 81.7034 73.3366 81.2207 74.7508 81.2207ZM74.7508 84.8896C75.5544 84.8896 75.9401 84.793 75.9401 83.4413C75.9401 81.9931 75.6508 81.8965 74.7508 81.8965C73.9151 81.8965 73.5616 82.0253 73.5616 83.4413C73.5937 84.793 73.9794 84.8896 74.7508 84.8896Z" fill="#202020"/>
<path d="M77.6103 81.2519H78.1888L78.3496 81.7024C78.5746 81.5415 79.346 81.1875 79.8603 81.1875C81.0174 81.1875 81.2746 82.2817 81.2746 83.3438C81.2746 84.4702 81.0817 85.5644 79.8603 85.5644C79.5067 85.5644 78.8317 85.4678 78.3174 85.2426V87.6563H77.5781V81.2519H77.6103ZM79.7638 84.9207C80.246 84.9207 80.5031 84.6311 80.5031 83.3759C80.5031 82.3461 80.246 81.8955 79.7638 81.8955C79.1853 81.8955 78.7031 82.0564 78.3174 82.2495V84.7276C78.8317 84.8564 79.2174 84.9207 79.7638 84.9207V84.9207Z" fill="#202020"/>
<path d="M83.9414 81.2207C85.0342 81.2207 85.6449 81.3173 85.6449 82.7333C85.6449 83.377 85.2914 83.731 84.4878 83.731H82.7842C82.7842 84.6643 83.0092 84.8574 83.6199 84.8574C84.3592 84.8574 84.9378 84.8574 85.5485 84.7608V85.3079C84.9056 85.501 84.1342 85.5332 83.4592 85.5332C82.3664 85.5332 82.0449 84.9861 82.0449 83.3448C82.0449 81.4782 82.5914 81.2207 83.9414 81.2207V81.2207ZM84.4235 83.1195C84.7449 83.1195 84.9056 82.9908 84.9056 82.7333C84.9056 81.9609 84.7771 81.8965 83.9735 81.8965C83.1378 81.8965 82.8164 81.8965 82.8164 83.1195H84.4235Z" fill="#202020"/>
<path d="M86.4805 81.2529H87.059L87.2519 81.8C87.7019 81.5103 88.1198 81.2207 88.7626 81.2207C88.9876 81.2207 89.2448 81.2207 89.3412 81.2851V82.0253C89.2448 81.9931 88.9555 81.9931 88.7305 81.9931C88.1198 81.9931 87.7983 82.1218 87.2519 82.4758V85.5976H86.5126V81.2529H86.4805Z" fill="#202020"/>
<path d="M89.8574 82.3149C89.8574 81.6391 90.1467 81.2207 90.9824 81.2207C91.5289 81.2207 92.7503 81.2851 93.1681 81.3816V81.8965H91.0789C90.6289 81.8965 90.5967 82.0575 90.5967 82.3149V82.6368C90.5967 83.0229 90.7896 83.0551 91.0789 83.0551H92.3003C93.0396 83.0551 93.3931 83.5057 93.3931 84.1172V84.5355C93.3931 85.4045 92.8467 85.5976 92.3324 85.5976C91.8181 85.5976 90.3396 85.501 90.0503 85.4367V84.9217H92.236C92.2681 84.9217 92.6539 84.9539 92.6539 84.5355V84.1815C92.6539 83.9241 92.5574 83.7953 92.236 83.7953H91.0146C90.2431 83.7953 89.8574 83.5379 89.8574 82.7011V82.3149V82.3149Z" fill="#202020"/>
<path fill-rule="evenodd" clip-rule="evenodd" d="M32.964 76.5537H22.4533C21.8747 76.5537 21.3926 76.9399 21.3926 77.4227V88.1718C21.3926 88.6545 21.8747 89.0407 22.4533 89.0407H32.964C33.5426 89.0407 34.0247 88.6545 34.0247 88.1718V77.4227C34.0569 76.9399 33.5747 76.5537 32.964 76.5537V76.5537Z" fill="#202020"/>
<path fill-rule="evenodd" clip-rule="evenodd" d="M30.5205 80.0943C30.5205 80.0943 29.8133 79.1932 28.3669 79.0645H23.3848V80.6736H24.6705L24.6383 85.9838H26.4705V80.6414H28.3669C28.3669 80.6414 29.1383 80.738 29.4276 81.3173C29.4276 81.3173 30.0383 82.4115 29.4276 83.6988C29.4276 83.6988 29.1383 84.2459 28.5276 84.3103L27.0169 84.3425V85.9516H28.3348C28.3348 85.9516 28.9776 85.9516 29.5883 85.6941C29.9419 85.5332 30.3598 85.2758 30.5848 84.9218C30.5526 84.9218 32.5455 82.6689 30.5205 80.0943V80.0943Z" fill="white"/>
</svg>
