<svg width="131" height="101" viewBox="0 0 131 101" fill="none" xmlns="http://www.w3.org/2000/svg">
<path d="M38.5418 12.9771V11.9615H45.6327V12.9771H42.6597V21.416H41.5149V12.9771H38.5418ZM49.1043 21.5637C48.4642 21.5637 47.9025 21.4114 47.4193 21.1067C46.9392 20.802 46.5637 20.3758 46.2929 19.8279C46.0251 19.2801 45.8913 18.64 45.8913 17.9075C45.8913 17.1689 46.0251 16.5241 46.2929 15.9732C46.5637 15.4223 46.9392 14.9945 47.4193 14.6898C47.9025 14.3851 48.4642 14.2328 49.1043 14.2328C49.7445 14.2328 50.3046 14.3851 50.7847 14.6898C51.2679 14.9945 51.6434 15.4223 51.9112 15.9732C52.182 16.5241 52.3174 17.1689 52.3174 17.9075C52.3174 18.64 52.182 19.2801 51.9112 19.8279C51.6434 20.3758 51.2679 20.802 50.7847 21.1067C50.3046 21.4114 49.7445 21.5637 49.1043 21.5637ZM49.1043 20.585C49.5906 20.585 49.9907 20.4604 50.3046 20.2111C50.6185 19.9618 50.8509 19.6341 51.0017 19.2278C51.1525 18.8216 51.2279 18.3815 51.2279 17.9075C51.2279 17.4335 51.1525 16.9919 51.0017 16.5826C50.8509 16.1732 50.6185 15.8424 50.3046 15.59C49.9907 15.3377 49.5906 15.2115 49.1043 15.2115C48.6181 15.2115 48.218 15.3377 47.9041 15.59C47.5901 15.8424 47.3578 16.1732 47.207 16.5826C47.0562 16.9919 46.9808 17.4335 46.9808 17.9075C46.9808 18.3815 47.0562 18.8216 47.207 19.2278C47.3578 19.6341 47.5901 19.9618 47.9041 20.2111C48.218 20.4604 48.6181 20.585 49.1043 20.585ZM53.9805 24.0751V14.3251H55.033V15.4515H55.1623C55.2423 15.3284 55.3531 15.1715 55.4947 14.9806C55.6393 14.7868 55.8455 14.6144 56.1133 14.4636C56.3841 14.3097 56.7504 14.2328 57.212 14.2328C57.8091 14.2328 58.3354 14.382 58.7909 14.6806C59.2464 14.9791 59.6018 15.4023 59.8573 15.9501C60.1127 16.4979 60.2404 17.1442 60.2404 17.889C60.2404 18.64 60.1127 19.2909 59.8573 19.8418C59.6018 20.3896 59.2479 20.8143 58.7955 21.1159C58.3431 21.4145 57.8214 21.5637 57.2305 21.5637C56.775 21.5637 56.4103 21.4883 56.1364 21.3375C55.8625 21.1837 55.6517 21.0098 55.5039 20.8159C55.3562 20.6189 55.2423 20.4558 55.1623 20.3265H55.07V24.0751H53.9805ZM55.0515 17.8706C55.0515 18.4061 55.13 18.8785 55.287 19.2878C55.4439 19.6941 55.6732 20.0126 55.9748 20.2434C56.2764 20.4712 56.6457 20.585 57.0828 20.585C57.5383 20.585 57.9183 20.465 58.223 20.225C58.5308 19.9818 58.7616 19.6556 58.9155 19.2463C59.0725 18.8339 59.1509 18.3753 59.1509 17.8706C59.1509 17.372 59.074 16.9226 58.9201 16.5225C58.7693 16.1194 58.54 15.8008 58.2323 15.5669C57.9276 15.33 57.5444 15.2115 57.0828 15.2115C56.6396 15.2115 56.2672 15.3238 55.9656 15.5485C55.664 15.7701 55.4362 16.0809 55.2823 16.481C55.1285 16.878 55.0515 17.3412 55.0515 17.8706ZM67.4237 21.416L64.8384 11.9615H66.0018L67.9777 19.6618H68.07L70.0828 11.9615H71.3754L73.3882 19.6618H73.4805L75.4563 11.9615H76.6197L74.0345 21.416H72.8527L70.766 13.8819H70.6921L68.6055 21.416H67.4237ZM80.2113 21.5637C79.5281 21.5637 78.9387 21.4129 78.4432 21.1113C77.9508 20.8066 77.5707 20.3819 77.3029 19.8372C77.0383 19.2894 76.9059 18.6523 76.9059 17.926C76.9059 17.1996 77.0383 16.5595 77.3029 16.0055C77.5707 15.4484 77.9431 15.0145 78.4201 14.7037C78.9002 14.3897 79.4604 14.2328 80.1005 14.2328C80.4698 14.2328 80.8345 14.2943 81.1946 14.4174C81.5547 14.5405 81.8825 14.7406 82.1779 15.0176C82.4734 15.2915 82.7088 15.6547 82.8843 16.1071C83.0597 16.5595 83.1474 17.1165 83.1474 17.7782V18.2399H77.6815V17.2981H82.0394C82.0394 16.898 81.9594 16.541 81.7994 16.2271C81.6424 15.9132 81.4178 15.6654 81.1254 15.4838C80.8361 15.3023 80.4945 15.2115 80.1005 15.2115C79.6666 15.2115 79.2911 15.3192 78.9741 15.5346C78.6602 15.747 78.4186 16.024 78.2493 16.3656C78.08 16.7072 77.9954 17.0734 77.9954 17.4643V18.0922C77.9954 18.6277 78.0877 19.0816 78.2724 19.454C78.4601 19.8233 78.7202 20.1049 79.0526 20.2988C79.385 20.4896 79.7712 20.585 80.2113 20.585C80.4975 20.585 80.7561 20.545 80.9869 20.465C81.2208 20.3819 81.4224 20.2588 81.5916 20.0957C81.7609 19.9295 81.8917 19.7233 81.984 19.4771L83.0366 19.7725C82.9258 20.1296 82.7396 20.4435 82.478 20.7143C82.2164 20.9821 81.8933 21.1913 81.5085 21.3422C81.1238 21.4899 80.6914 21.5637 80.2113 21.5637ZM84.9524 21.416V11.9615H86.0419V15.4515H86.1343C86.2143 15.3284 86.3251 15.1715 86.4666 14.9806C86.6113 14.7868 86.8175 14.6144 87.0853 14.4636C87.3561 14.3097 87.7223 14.2328 88.184 14.2328C88.781 14.2328 89.3073 14.382 89.7628 14.6806C90.2183 14.9791 90.5738 15.4023 90.8292 15.9501C91.0847 16.4979 91.2124 17.1442 91.2124 17.889C91.2124 18.64 91.0847 19.2909 90.8292 19.8418C90.5738 20.3896 90.2198 20.8143 89.7674 21.1159C89.315 21.4145 88.7934 21.5637 88.2024 21.5637C87.747 21.5637 87.3822 21.4883 87.1083 21.3375C86.8344 21.1837 86.6236 21.0098 86.4759 20.8159C86.3282 20.6189 86.2143 20.4558 86.1343 20.3265H86.005V21.416H84.9524ZM86.0235 17.8706C86.0235 18.4061 86.1019 18.8785 86.2589 19.2878C86.4159 19.6941 86.6452 20.0126 86.9468 20.2434C87.2484 20.4712 87.6177 20.585 88.0547 20.585C88.5102 20.585 88.8903 20.465 89.195 20.225C89.5028 19.9818 89.7336 19.6556 89.8875 19.2463C90.0444 18.8339 90.1229 18.3753 90.1229 17.8706C90.1229 17.372 90.046 16.9226 89.8921 16.5225C89.7413 16.1194 89.512 15.8008 89.2042 15.5669C88.8995 15.33 88.5164 15.2115 88.0547 15.2115C87.6115 15.2115 87.2391 15.3238 86.9375 15.5485C86.6359 15.7701 86.4082 16.0809 86.2543 16.481C86.1004 16.878 86.0235 17.3412 86.0235 17.8706ZM28.3608 37.416H25.4432V27.9615H28.49C29.4072 27.9615 30.192 28.1507 30.8444 28.5293C31.4969 28.9048 31.997 29.4449 32.3448 30.1497C32.6926 30.8514 32.8665 31.6916 32.8665 32.6703C32.8665 33.6551 32.691 34.503 32.3402 35.214C31.9893 35.9218 31.4784 36.4666 30.8075 36.8482C30.1366 37.2267 29.321 37.416 28.3608 37.416ZM26.588 36.4004H28.2869C29.0686 36.4004 29.7165 36.2496 30.2304 35.948C30.7444 35.6464 31.1276 35.217 31.38 34.66C31.6323 34.1029 31.7585 33.4397 31.7585 32.6703C31.7585 31.907 31.6339 31.2499 31.3846 30.699C31.1353 30.1451 30.7629 29.7203 30.2674 29.4249C29.7719 29.1264 29.1548 28.9771 28.4162 28.9771H26.588V36.4004ZM37.6122 37.5637C36.929 37.5637 36.3396 37.4129 35.8441 37.1113C35.3517 36.8066 34.9716 36.3819 34.7038 35.8372C34.4391 35.2894 34.3068 34.6523 34.3068 33.926C34.3068 33.1996 34.4391 32.5595 34.7038 32.0055C34.9716 31.4484 35.344 31.0145 35.821 30.7037C36.3011 30.3897 36.8612 30.2328 37.5014 30.2328C37.8707 30.2328 38.2354 30.2943 38.5955 30.4174C38.9556 30.5405 39.2834 30.7406 39.5788 31.0176C39.8743 31.2915 40.1097 31.6547 40.2851 32.1071C40.4606 32.5595 40.5483 33.1165 40.5483 33.7782V34.2399H35.0824V33.2981H39.4403C39.4403 32.898 39.3603 32.541 39.2003 32.2271C39.0433 31.9132 38.8186 31.6654 38.5263 31.4838C38.237 31.3023 37.8953 31.2115 37.5014 31.2115C37.0675 31.2115 36.692 31.3192 36.375 31.5346C36.0611 31.747 35.8195 32.024 35.6502 32.3656C35.4809 32.7072 35.3963 33.0734 35.3963 33.4643V34.0922C35.3963 34.6277 35.4886 35.0816 35.6733 35.454C35.861 35.8233 36.1211 36.1049 36.4535 36.2988C36.7858 36.4896 37.1721 36.585 37.6122 36.585C37.8984 36.585 38.1569 36.545 38.3878 36.465C38.6217 36.3819 38.8233 36.2588 38.9925 36.0957C39.1618 35.9295 39.2926 35.7233 39.3849 35.4771L40.4375 35.7725C40.3267 36.1296 40.1405 36.4435 39.8789 36.7143C39.6173 36.9821 39.2941 37.1913 38.9094 37.3422C38.5247 37.4899 38.0923 37.5637 37.6122 37.5637ZM47.7881 30.3251L45.1659 37.416H44.058L41.4358 30.3251H42.6176L44.575 35.9757H44.6489L46.6062 30.3251H47.7881ZM51.9452 37.5637C51.262 37.5637 50.6726 37.4129 50.1771 37.1113C49.6847 36.8066 49.3046 36.3819 49.0368 35.8372C48.7721 35.2894 48.6398 34.6523 48.6398 33.926C48.6398 33.1996 48.7721 32.5595 49.0368 32.0055C49.3046 31.4484 49.677 31.0145 50.154 30.7037C50.6341 30.3897 51.1943 30.2328 51.8344 30.2328C52.2037 30.2328 52.5684 30.2943 52.9285 30.4174C53.2886 30.5405 53.6164 30.7406 53.9118 31.0176C54.2073 31.2915 54.4427 31.6547 54.6181 32.1071C54.7936 32.5595 54.8813 33.1165 54.8813 33.7782V34.2399H49.4154V33.2981H53.7733C53.7733 32.898 53.6933 32.541 53.5333 32.2271C53.3763 31.9132 53.1516 31.6654 52.8593 31.4838C52.57 31.3023 52.2283 31.2115 51.8344 31.2115C51.4005 31.2115 51.025 31.3192 50.708 31.5346C50.3941 31.747 50.1525 32.024 49.9832 32.3656C49.8139 32.7072 49.7293 33.0734 49.7293 33.4643V34.0922C49.7293 34.6277 49.8216 35.0816 50.0063 35.454C50.194 35.8233 50.4541 36.1049 50.7865 36.2988C51.1189 36.4896 51.5051 36.585 51.9452 36.585C52.2314 36.585 52.4899 36.545 52.7208 36.465C52.9547 36.3819 53.1563 36.2588 53.3255 36.0957C53.4948 35.9295 53.6256 35.7233 53.7179 35.4771L54.7705 35.7725C54.6597 36.1296 54.4735 36.4435 54.2119 36.7143C53.9503 36.9821 53.6271 37.1913 53.2424 37.3422C52.8577 37.4899 52.4253 37.5637 51.9452 37.5637ZM57.6281 27.9615V37.416H56.5386V27.9615H57.6281ZM62.5042 37.5637C61.8641 37.5637 61.3024 37.4114 60.8192 37.1067C60.3391 36.802 59.9636 36.3758 59.6928 35.8279C59.4251 35.2801 59.2912 34.64 59.2912 33.9075C59.2912 33.1689 59.4251 32.5241 59.6928 31.9732C59.9636 31.4223 60.3391 30.9945 60.8192 30.6898C61.3024 30.3851 61.8641 30.2328 62.5042 30.2328C63.1444 30.2328 63.7045 30.3851 64.1846 30.6898C64.6678 30.9945 65.0433 31.4223 65.3111 31.9732C65.5819 32.5241 65.7173 33.1689 65.7173 33.9075C65.7173 34.64 65.5819 35.2801 65.3111 35.8279C65.0433 36.3758 64.6678 36.802 64.1846 37.1067C63.7045 37.4114 63.1444 37.5637 62.5042 37.5637ZM62.5042 36.585C62.9905 36.585 63.3906 36.4604 63.7045 36.2111C64.0184 35.9618 64.2508 35.6341 64.4016 35.2278C64.5524 34.8216 64.6278 34.3815 64.6278 33.9075C64.6278 33.4335 64.5524 32.9919 64.4016 32.5826C64.2508 32.1732 64.0184 31.8424 63.7045 31.59C63.3906 31.3377 62.9905 31.2115 62.5042 31.2115C62.018 31.2115 61.6179 31.3377 61.304 31.59C60.99 31.8424 60.7577 32.1732 60.6069 32.5826C60.4561 32.9919 60.3807 33.4335 60.3807 33.9075C60.3807 34.3815 60.4561 34.8216 60.6069 35.2278C60.7577 35.6341 60.99 35.9618 61.304 36.2111C61.6179 36.4604 62.018 36.585 62.5042 36.585ZM67.3804 40.0751V30.3251H68.433V31.4515H68.5622C68.6422 31.3284 68.753 31.1715 68.8946 30.9806C69.0392 30.7868 69.2455 30.6144 69.5132 30.4636C69.784 30.3097 70.1503 30.2328 70.6119 30.2328C71.209 30.2328 71.7353 30.382 72.1908 30.6806C72.6463 30.9791 73.0017 31.4023 73.2572 31.9501C73.5126 32.4979 73.6403 33.1442 73.6403 33.889C73.6403 34.64 73.5126 35.2909 73.2572 35.8418C73.0017 36.3896 72.6478 36.8143 72.1954 37.1159C71.743 37.4145 71.2213 37.5637 70.6304 37.5637C70.1749 37.5637 69.8102 37.4883 69.5363 37.3375C69.2624 37.1837 69.0516 37.0098 68.9038 36.8159C68.7561 36.6189 68.6422 36.4558 68.5622 36.3265H68.4699V40.0751H67.3804ZM68.4514 33.8706C68.4514 34.4061 68.5299 34.8785 68.6869 35.2878C68.8438 35.6941 69.0731 36.0126 69.3747 36.2434C69.6763 36.4712 70.0456 36.585 70.4827 36.585C70.9382 36.585 71.3183 36.465 71.6229 36.225C71.9307 35.9818 72.1615 35.6556 72.3154 35.2463C72.4724 34.8339 72.5508 34.3753 72.5508 33.8706C72.5508 33.372 72.4739 32.9226 72.32 32.5225C72.1692 32.1194 71.9399 31.8008 71.6322 31.5669C71.3275 31.33 70.9443 31.2115 70.4827 31.2115C70.0395 31.2115 69.6671 31.3238 69.3655 31.5485C69.0639 31.7701 68.8361 32.0809 68.6822 32.481C68.5284 32.878 68.4514 33.3412 68.4514 33.8706ZM75.3023 37.416V30.3251H76.3548V31.4331H76.4472C76.5949 31.0545 76.8334 30.7606 77.1627 30.5513C77.492 30.339 77.8875 30.2328 78.3491 30.2328C78.8169 30.2328 79.2063 30.339 79.5171 30.5513C79.831 30.7606 80.0757 31.0545 80.2511 31.4331H80.325C80.5066 31.0668 80.779 30.776 81.1421 30.5605C81.5053 30.342 81.9408 30.2328 82.4486 30.2328C83.0826 30.2328 83.6012 30.4313 84.0043 30.8283C84.4075 31.2222 84.6091 31.8362 84.6091 32.6703V37.416H83.5196V32.6703C83.5196 32.1471 83.3765 31.7731 83.0903 31.5485C82.804 31.3238 82.467 31.2115 82.0793 31.2115C81.5807 31.2115 81.1944 31.3623 80.9205 31.6639C80.6466 31.9624 80.5097 32.341 80.5097 32.7995V37.416H79.4017V32.5595C79.4017 32.1563 79.2709 31.8316 79.0093 31.5854C78.7477 31.3361 78.4107 31.2115 77.9983 31.2115C77.7151 31.2115 77.4505 31.2869 77.2043 31.4377C76.9611 31.5885 76.7642 31.7978 76.6133 32.0655C76.4656 32.3302 76.3918 32.6364 76.3918 32.9842V37.416H75.3023ZM89.5741 37.5637C88.8909 37.5637 88.3015 37.4129 87.806 37.1113C87.3136 36.8066 86.9335 36.3819 86.6657 35.8372C86.4011 35.2894 86.2687 34.6523 86.2687 33.926C86.2687 33.1996 86.4011 32.5595 86.6657 32.0055C86.9335 31.4484 87.3059 31.0145 87.7829 30.7037C88.263 30.3897 88.8232 30.2328 89.4633 30.2328C89.8326 30.2328 90.1973 30.2943 90.5574 30.4174C90.9175 30.5405 91.2453 30.7406 91.5407 31.0176C91.8362 31.2915 92.0716 31.6547 92.2471 32.1071C92.4225 32.5595 92.5102 33.1165 92.5102 33.7782V34.2399H87.0443V33.2981H91.4022C91.4022 32.898 91.3222 32.541 91.1622 32.2271C91.0052 31.9132 90.7806 31.6654 90.4882 31.4838C90.1989 31.3023 89.8573 31.2115 89.4633 31.2115C89.0294 31.2115 88.6539 31.3192 88.3369 31.5346C88.023 31.747 87.7814 32.024 87.6121 32.3656C87.4428 32.7072 87.3582 33.0734 87.3582 33.4643V34.0922C87.3582 34.6277 87.4505 35.0816 87.6352 35.454C87.8229 35.8233 88.083 36.1049 88.4154 36.2988C88.7478 36.4896 89.134 36.585 89.5741 36.585C89.8603 36.585 90.1189 36.545 90.3497 36.465C90.5836 36.3819 90.7852 36.2588 90.9544 36.0957C91.1237 35.9295 91.2545 35.7233 91.3468 35.4771L92.3994 35.7725C92.2886 36.1296 92.1024 36.4435 91.8408 36.7143C91.5792 36.9821 91.256 37.1913 90.8713 37.3422C90.4866 37.4899 90.0542 37.5637 89.5741 37.5637ZM95.257 33.1504V37.416H94.1675V30.3251H95.2201V31.4331H95.3124C95.4786 31.073 95.731 30.7837 96.0695 30.5652C96.408 30.3436 96.8451 30.2328 97.3806 30.2328C97.8607 30.2328 98.2808 30.3313 98.6409 30.5282C99.001 30.7221 99.281 31.0176 99.4811 31.4146C99.6811 31.8085 99.7811 32.3071 99.7811 32.9103V37.416H98.6917V32.9842C98.6917 32.4271 98.547 31.9932 98.2577 31.6824C97.9684 31.3684 97.5714 31.2115 97.0667 31.2115C96.7189 31.2115 96.408 31.2869 96.1341 31.4377C95.8633 31.5885 95.6494 31.8085 95.4924 32.0978C95.3355 32.3871 95.257 32.738 95.257 33.1504ZM104.856 30.3251V31.2484H101.181V30.3251H104.856ZM102.252 28.6262H103.342V35.3848C103.342 35.6925 103.386 35.9234 103.475 36.0772C103.568 36.228 103.685 36.3296 103.826 36.3819C103.971 36.4312 104.123 36.4558 104.283 36.4558C104.403 36.4558 104.502 36.4496 104.579 36.4373C104.656 36.4219 104.717 36.4096 104.763 36.4004L104.985 37.3791C104.911 37.4068 104.808 37.4345 104.676 37.4622C104.543 37.493 104.376 37.5083 104.173 37.5083C103.865 37.5083 103.563 37.4422 103.268 37.3098C102.975 37.1775 102.732 36.9759 102.538 36.7051C102.348 36.4342 102.252 36.0926 102.252 35.6802V28.6262ZM39.2464 46.916H38.1015C38.0338 46.5867 37.9153 46.2974 37.7461 46.0481C37.5799 45.7988 37.3768 45.5895 37.1367 45.4203C36.8997 45.2479 36.6366 45.1187 36.3473 45.0325C36.058 44.9463 35.7564 44.9032 35.4425 44.9032C34.87 44.9032 34.3514 45.0479 33.8867 45.3372C33.4251 45.6265 33.0573 46.0527 32.7834 46.6159C32.5125 47.1792 32.3771 47.8701 32.3771 48.6887C32.3771 49.5074 32.5125 50.1983 32.7834 50.7615C33.0573 51.3248 33.4251 51.751 33.8867 52.0403C34.3514 52.3296 34.87 52.4743 35.4425 52.4743C35.7564 52.4743 36.058 52.4312 36.3473 52.345C36.6366 52.2588 36.8997 52.1311 37.1367 51.9618C37.3768 51.7895 37.5799 51.5787 37.7461 51.3294C37.9153 51.077 38.0338 50.7877 38.1015 50.4615H39.2464C39.1603 50.9447 39.0033 51.3771 38.7755 51.7587C38.5478 52.1403 38.2647 52.465 37.9261 52.7328C37.5876 52.9975 37.2075 53.199 36.7858 53.3375C36.3673 53.476 35.9195 53.5453 35.4425 53.5453C34.6361 53.5453 33.919 53.3483 33.2912 52.9544C32.6633 52.5604 32.1694 52.0003 31.8093 51.274C31.4492 50.5476 31.2692 49.6859 31.2692 48.6887C31.2692 47.6916 31.4492 46.8298 31.8093 46.1035C32.1694 45.3772 32.6633 44.8171 33.2912 44.4231C33.919 44.0292 34.6361 43.8322 35.4425 43.8322C35.9195 43.8322 36.3673 43.9015 36.7858 44.04C37.2075 44.1784 37.5876 44.3816 37.9261 44.6493C38.2647 44.914 38.5478 45.2372 38.7755 45.6188C39.0033 45.9973 39.1603 46.4297 39.2464 46.916ZM43.8294 53.5637C43.1893 53.5637 42.6276 53.4114 42.1444 53.1067C41.6643 52.802 41.2888 52.3758 41.018 51.8279C40.7502 51.2801 40.6164 50.64 40.6164 49.9075C40.6164 49.1689 40.7502 48.5241 41.018 47.9732C41.2888 47.4223 41.6643 46.9945 42.1444 46.6898C42.6276 46.3851 43.1893 46.2328 43.8294 46.2328C44.4696 46.2328 45.0297 46.3851 45.5098 46.6898C45.993 46.9945 46.3685 47.4223 46.6363 47.9732C46.9071 48.5241 47.0425 49.1689 47.0425 49.9075C47.0425 50.64 46.9071 51.2801 46.6363 51.8279C46.3685 52.3758 45.993 52.802 45.5098 53.1067C45.0297 53.4114 44.4696 53.5637 43.8294 53.5637ZM43.8294 52.585C44.3157 52.585 44.7158 52.4604 45.0297 52.2111C45.3436 51.9618 45.576 51.6341 45.7268 51.2278C45.8776 50.8216 45.953 50.3815 45.953 49.9075C45.953 49.4335 45.8776 48.9919 45.7268 48.5826C45.576 48.1732 45.3436 47.8424 45.0297 47.59C44.7158 47.3377 44.3157 47.2115 43.8294 47.2115C43.3432 47.2115 42.9431 47.3377 42.6292 47.59C42.3152 47.8424 42.0829 48.1732 41.9321 48.5826C41.7813 48.9919 41.7059 49.4335 41.7059 49.9075C41.7059 50.3815 41.7813 50.8216 41.9321 51.2278C42.0829 51.6341 42.3152 51.9618 42.6292 52.2111C42.9431 52.4604 43.3432 52.585 43.8294 52.585ZM48.7056 53.416V46.3251H49.7581V47.4331H49.8505C49.9982 47.0545 50.2367 46.7606 50.566 46.5513C50.8953 46.339 51.2908 46.2328 51.7525 46.2328C52.2203 46.2328 52.6096 46.339 52.9204 46.5513C53.2344 46.7606 53.479 47.0545 53.6545 47.4331H53.7283C53.9099 47.0668 54.1823 46.776 54.5454 46.5605C54.9086 46.342 55.3441 46.2328 55.8519 46.2328C56.4859 46.2328 57.0045 46.4313 57.4076 46.8283C57.8108 47.2222 58.0124 47.8362 58.0124 48.6703V53.416H56.9229V48.6703C56.9229 48.1471 56.7798 47.7731 56.4936 47.5485C56.2074 47.3238 55.8704 47.2115 55.4826 47.2115C54.984 47.2115 54.5978 47.3623 54.3238 47.6639C54.0499 47.9624 53.913 48.341 53.913 48.7995V53.416H52.805V48.5595C52.805 48.1563 52.6742 47.8316 52.4126 47.5854C52.151 47.3361 51.814 47.2115 51.4016 47.2115C51.1185 47.2115 50.8538 47.2869 50.6076 47.4377C50.3644 47.5885 50.1675 47.7978 50.0167 48.0655C49.8689 48.3302 49.7951 48.6364 49.7951 48.9842V53.416H48.7056ZM60.0044 56.0751V46.3251H61.057V47.4515H61.1862C61.2663 47.3284 61.3771 47.1715 61.5186 46.9806C61.6633 46.7868 61.8695 46.6144 62.1372 46.4636C62.4081 46.3097 62.7743 46.2328 63.236 46.2328C63.833 46.2328 64.3593 46.382 64.8148 46.6806C65.2703 46.9791 65.6257 47.4023 65.8812 47.9501C66.1366 48.4979 66.2644 49.1442 66.2644 49.889C66.2644 50.64 66.1366 51.2909 65.8812 51.8418C65.6257 52.3896 65.2718 52.8143 64.8194 53.1159C64.367 53.4145 63.8453 53.5637 63.2544 53.5637C62.7989 53.5637 62.4342 53.4883 62.1603 53.3375C61.8864 53.1837 61.6756 53.0098 61.5279 52.8159C61.3801 52.6189 61.2663 52.4558 61.1862 52.3265H61.0939V56.0751H60.0044ZM61.0754 49.8706C61.0754 50.4061 61.1539 50.8785 61.3109 51.2878C61.4678 51.6941 61.6971 52.0126 61.9987 52.2434C62.3003 52.4712 62.6697 52.585 63.1067 52.585C63.5622 52.585 63.9423 52.465 64.247 52.225C64.5547 51.9818 64.7856 51.6556 64.9394 51.2463C65.0964 50.8339 65.1749 50.3753 65.1749 49.8706C65.1749 49.372 65.0979 48.9226 64.944 48.5225C64.7932 48.1194 64.564 47.8008 64.2562 47.5669C63.9515 47.33 63.5683 47.2115 63.1067 47.2115C62.6635 47.2115 62.2911 47.3238 61.9895 47.5485C61.6879 47.7701 61.4601 48.0809 61.3063 48.481C61.1524 48.878 61.0754 49.3412 61.0754 49.8706ZM70.0129 53.5822C69.5636 53.5822 69.1558 53.4976 68.7896 53.3283C68.4233 53.156 68.1325 52.9082 67.9171 52.585C67.7016 52.2588 67.5939 51.8649 67.5939 51.4032C67.5939 50.997 67.6739 50.6677 67.834 50.4153C67.994 50.1599 68.2079 49.9598 68.4757 49.8152C68.7434 49.6705 69.0389 49.5628 69.362 49.492C69.6882 49.4181 70.016 49.3597 70.3453 49.3166C70.7762 49.2612 71.1255 49.2196 71.3933 49.1919C71.6641 49.1612 71.8611 49.1104 71.9842 49.0396C72.1104 48.9688 72.1735 48.8457 72.1735 48.6703V48.6333C72.1735 48.1779 72.0488 47.8239 71.7995 47.5716C71.5533 47.3192 71.1794 47.193 70.6777 47.193C70.1576 47.193 69.7498 47.3069 69.4543 47.5346C69.1589 47.7624 68.9512 48.0055 68.8311 48.264L67.797 47.8947C67.9817 47.4638 68.2279 47.1284 68.5357 46.8883C68.8465 46.6452 69.1851 46.4759 69.5513 46.3805C69.9206 46.282 70.2838 46.2328 70.6408 46.2328C70.8685 46.2328 71.1301 46.2605 71.4256 46.3159C71.7241 46.3682 72.0119 46.4774 72.2889 46.6436C72.5689 46.8098 72.8013 47.0607 72.986 47.3961C73.1706 47.7316 73.2629 48.1809 73.2629 48.7441V53.416H72.1735V52.4558H72.1181C72.0442 52.6097 71.9211 52.7743 71.7487 52.9498C71.5764 53.1252 71.3471 53.2744 71.0609 53.3975C70.7747 53.5207 70.4253 53.5822 70.0129 53.5822ZM70.1791 52.6035C70.61 52.6035 70.9732 52.5189 71.2686 52.3496C71.5672 52.1803 71.7918 51.9618 71.9426 51.6941C72.0965 51.4263 72.1735 51.1447 72.1735 50.8493V49.8521C72.1273 49.9075 72.0257 49.9583 71.8688 50.0044C71.7149 50.0475 71.5364 50.086 71.3333 50.1199C71.1332 50.1506 70.9378 50.1783 70.747 50.2029C70.5592 50.2245 70.4069 50.243 70.2899 50.2583C70.0068 50.2953 69.7421 50.3553 69.4959 50.4384C69.2528 50.5184 69.0558 50.64 68.905 50.8031C68.7573 50.9631 68.6834 51.1816 68.6834 51.4586C68.6834 51.8372 68.8234 52.1234 69.1035 52.3173C69.3866 52.5081 69.7452 52.6035 70.1791 52.6035ZM76.341 49.1504V53.416H75.2515V46.3251H76.304V47.4331H76.3964C76.5626 47.073 76.8149 46.7837 77.1535 46.5652C77.492 46.3436 77.929 46.2328 78.4646 46.2328C78.9447 46.2328 79.3648 46.3313 79.7249 46.5282C80.0849 46.7221 80.365 47.0176 80.5651 47.4146C80.7651 47.8085 80.8651 48.3071 80.8651 48.9103V53.416H79.7756V48.9842C79.7756 48.4271 79.631 47.9932 79.3417 47.6824C79.0524 47.3684 78.6554 47.2115 78.1506 47.2115C77.8029 47.2115 77.492 47.2869 77.2181 47.4377C76.9473 47.5885 76.7334 47.8085 76.5764 48.0978C76.4195 48.3871 76.341 48.738 76.341 49.1504ZM82.856 53.416V46.3251H83.9455V53.416H82.856ZM83.41 45.1433C83.1976 45.1433 83.0145 45.071 82.8606 44.9263C82.7098 44.7817 82.6344 44.6078 82.6344 44.4047C82.6344 44.2015 82.7098 44.0276 82.8606 43.883C83.0145 43.7383 83.1976 43.666 83.41 43.666C83.6223 43.666 83.8039 43.7383 83.9547 43.883C84.1086 44.0276 84.1855 44.2015 84.1855 44.4047C84.1855 44.6078 84.1086 44.7817 83.9547 44.9263C83.8039 45.071 83.6223 45.1433 83.41 45.1433ZM88.914 53.5637C88.2307 53.5637 87.6413 53.4129 87.1458 53.1113C86.6534 52.8066 86.2733 52.3819 86.0056 51.8372C85.7409 51.2894 85.6086 50.6523 85.6086 49.926C85.6086 49.1996 85.7409 48.5595 86.0056 48.0055C86.2733 47.4484 86.6457 47.0145 87.1228 46.7037C87.6029 46.3897 88.163 46.2328 88.8032 46.2328C89.1725 46.2328 89.5372 46.2943 89.8973 46.4174C90.2574 46.5405 90.5851 46.7406 90.8806 47.0176C91.176 47.2915 91.4115 47.6547 91.5869 48.1071C91.7623 48.5595 91.85 49.1165 91.85 49.7782V50.2399H86.3841V49.2981H90.7421C90.7421 48.898 90.6621 48.541 90.502 48.2271C90.3451 47.9132 90.1204 47.6654 89.828 47.4838C89.5387 47.3023 89.1971 47.2115 88.8032 47.2115C88.3692 47.2115 87.9937 47.3192 87.6767 47.5346C87.3628 47.747 87.1212 48.024 86.952 48.3656C86.7827 48.7072 86.698 49.0734 86.698 49.4643V50.0922C86.698 50.6277 86.7904 51.0816 86.975 51.454C87.1628 51.8233 87.4228 52.1049 87.7552 52.2988C88.0876 52.4896 88.4739 52.585 88.914 52.585C89.2002 52.585 89.4587 52.545 89.6895 52.465C89.9234 52.3819 90.125 52.2588 90.2943 52.0957C90.4636 51.9295 90.5944 51.7233 90.6867 51.4771L91.7392 51.7725C91.6284 52.1296 91.4422 52.4435 91.1806 52.7143C90.919 52.9821 90.5959 53.1913 90.2112 53.3422C89.8265 53.4899 89.3941 53.5637 88.914 53.5637ZM98.5301 47.9132L97.5514 48.1902C97.4898 48.027 97.399 47.8685 97.279 47.7147C97.1621 47.5577 97.002 47.4284 96.7989 47.3269C96.5958 47.2253 96.3357 47.1745 96.0187 47.1745C95.5848 47.1745 95.2231 47.2746 94.9338 47.4746C94.6476 47.6716 94.5045 47.9224 94.5045 48.2271C94.5045 48.4979 94.603 48.7118 94.8 48.8688C94.9969 49.0257 95.3047 49.1565 95.7233 49.2612L96.7758 49.5197C97.4098 49.6736 97.8822 49.909 98.1931 50.226C98.5039 50.54 98.6593 50.9447 98.6593 51.4402C98.6593 51.8464 98.5424 52.2096 98.3085 52.5297C98.0777 52.8497 97.7545 53.1021 97.339 53.2868C96.9235 53.4714 96.4404 53.5637 95.8895 53.5637C95.1662 53.5637 94.5676 53.4068 94.0936 53.0929C93.6197 52.7789 93.3196 52.3204 93.1934 51.7172L94.2275 51.4586C94.326 51.8403 94.5122 52.1265 94.7861 52.3173C95.0631 52.5081 95.4247 52.6035 95.871 52.6035C96.3788 52.6035 96.782 52.4958 97.0805 52.2804C97.3821 52.0618 97.5329 51.8002 97.5329 51.4956C97.5329 51.2493 97.4467 51.0431 97.2744 50.877C97.102 50.7077 96.8374 50.5815 96.4804 50.4984L95.2985 50.2214C94.6492 50.0675 94.1721 49.829 93.8674 49.5059C93.5658 49.1796 93.415 48.7718 93.415 48.2825C93.415 47.8824 93.5274 47.5285 93.752 47.2207C93.9798 46.9129 94.2891 46.6713 94.6799 46.4959C95.0739 46.3205 95.5201 46.2328 96.0187 46.2328C96.7204 46.2328 97.2713 46.3867 97.6714 46.6944C98.0746 47.0022 98.3608 47.4084 98.5301 47.9132ZM49.8805 69.416V68.585L53.0012 65.1689C53.3675 64.7688 53.6691 64.421 53.9061 64.1255C54.143 63.827 54.3185 63.5469 54.4323 63.2853C54.5493 63.0207 54.6078 62.7437 54.6078 62.4544C54.6078 62.122 54.5277 61.8342 54.3677 61.5911C54.2107 61.348 53.9953 61.1602 53.7214 61.0279C53.4475 60.8955 53.1397 60.8294 52.7981 60.8294C52.4349 60.8294 52.1179 60.9048 51.8471 61.0556C51.5793 61.2033 51.3716 61.411 51.2239 61.6788C51.0792 61.9466 51.0069 62.2605 51.0069 62.6206H49.9174C49.9174 62.0666 50.0451 61.5803 50.3006 61.1618C50.556 60.7432 50.9038 60.417 51.3439 60.1831C51.7871 59.9492 52.2841 59.8322 52.835 59.8322C53.389 59.8322 53.8799 59.9492 54.3077 60.1831C54.7355 60.417 55.0709 60.7324 55.3141 61.1294C55.5572 61.5265 55.6788 61.9681 55.6788 62.4544C55.6788 62.8021 55.6157 63.1422 55.4895 63.4746C55.3664 63.8039 55.151 64.1717 54.8432 64.5779C54.5385 64.9811 54.1153 65.4735 53.5737 66.0552L51.4501 68.3265V68.4004H55.845V69.416H49.8805ZM60.8354 69.5453C60.1398 69.5453 59.5474 69.356 59.058 68.9775C58.5687 68.5958 58.1948 68.0434 57.9362 67.3201C57.6777 66.5938 57.5485 65.7167 57.5485 64.6887C57.5485 63.667 57.6777 62.7944 57.9362 62.0712C58.1978 61.3449 58.5733 60.7909 59.0627 60.4093C59.5551 60.0246 60.146 59.8322 60.8354 59.8322C61.5248 59.8322 62.1141 60.0246 62.6035 60.4093C63.0959 60.7909 63.4714 61.3449 63.7299 62.0712C63.9915 62.7944 64.1223 63.667 64.1223 64.6887C64.1223 65.7167 63.9931 66.5938 63.7345 67.3201C63.476 68.0434 63.1021 68.5958 62.6127 68.9775C62.1234 69.356 61.5309 69.5453 60.8354 69.5453ZM60.8354 68.5297C61.5248 68.5297 62.0603 68.1973 62.4419 67.5325C62.8235 66.8677 63.0144 65.9198 63.0144 64.6887C63.0144 63.8701 62.9266 63.173 62.7512 62.5975C62.5789 62.022 62.3296 61.5834 62.0034 61.2818C61.6802 60.9802 61.2909 60.8294 60.8354 60.8294C60.1521 60.8294 59.6182 61.1664 59.2335 61.8404C58.8488 62.5113 58.6564 63.4608 58.6564 64.6887C58.6564 65.5074 58.7426 66.2029 58.9149 66.7754C59.0873 67.3478 59.335 67.7833 59.6582 68.0819C59.9844 68.3804 60.3768 68.5297 60.8354 68.5297ZM65.8766 69.416V68.585L68.9973 65.1689C69.3636 64.7688 69.6652 64.421 69.9021 64.1255C70.1391 63.827 70.3146 63.5469 70.4284 63.2853C70.5454 63.0207 70.6039 62.7437 70.6039 62.4544C70.6039 62.122 70.5238 61.8342 70.3638 61.5911C70.2068 61.348 69.9914 61.1602 69.7175 61.0279C69.4436 60.8955 69.1358 60.8294 68.7942 60.8294C68.431 60.8294 68.114 60.9048 67.8432 61.0556C67.5754 61.2033 67.3677 61.411 67.22 61.6788C67.0753 61.9466 67.003 62.2605 67.003 62.6206H65.9135C65.9135 62.0666 66.0412 61.5803 66.2967 61.1618C66.5521 60.7432 66.8999 60.417 67.34 60.1831C67.7832 59.9492 68.2802 59.8322 68.8311 59.8322C69.3851 59.8322 69.876 59.9492 70.3038 60.1831C70.7316 60.417 71.067 60.7324 71.3102 61.1294C71.5533 61.5265 71.6749 61.9681 71.6749 62.4544C71.6749 62.8021 71.6118 63.1422 71.4856 63.4746C71.3625 63.8039 71.1471 64.1717 70.8393 64.5779C70.5346 64.9811 70.1114 65.4735 69.5698 66.0552L67.4462 68.3265V68.4004H71.8411V69.416H65.8766ZM76.8315 69.5453C76.1359 69.5453 75.5435 69.356 75.0541 68.9775C74.5648 68.5958 74.1909 68.0434 73.9323 67.3201C73.6738 66.5938 73.5445 65.7167 73.5445 64.6887C73.5445 63.667 73.6738 62.7944 73.9323 62.0712C74.1939 61.3449 74.5694 60.7909 75.0588 60.4093C75.5512 60.0246 76.1421 59.8322 76.8315 59.8322C77.5209 59.8322 78.1102 60.0246 78.5996 60.4093C79.092 60.7909 79.4675 61.3449 79.726 62.0712C79.9876 62.7944 80.1184 63.667 80.1184 64.6887C80.1184 65.7167 79.9891 66.5938 79.7306 67.3201C79.4721 68.0434 79.0982 68.5958 78.6088 68.9775C78.1195 69.356 77.527 69.5453 76.8315 69.5453ZM76.8315 68.5297C77.5209 68.5297 78.0564 68.1973 78.438 67.5325C78.8196 66.8677 79.0105 65.9198 79.0105 64.6887C79.0105 63.8701 78.9227 63.173 78.7473 62.5975C78.575 62.022 78.3257 61.5834 77.9994 61.2818C77.6763 60.9802 77.287 60.8294 76.8315 60.8294C76.1482 60.8294 75.6143 61.1664 75.2296 61.8404C74.8449 62.5113 74.6525 63.4608 74.6525 64.6887C74.6525 65.5074 74.7387 66.2029 74.911 66.7754C75.0834 67.3478 75.3311 67.7833 75.6543 68.0819C75.9805 68.3804 76.3729 68.5297 76.8315 68.5297Z" fill="black"/>
<path d="M30.2017 77.2977C30.8746 77.1505 31.499 76.8345 32.0162 76.3794C32.5333 75.9243 32.9262 75.3451 33.1577 74.6964C32.6255 74.2665 32.0264 73.9269 31.3841 73.6913C30.7896 73.4747 30.1641 73.3549 29.5316 73.3366C28.1611 73.3162 26.7945 73.4887 25.472 73.849C24.1319 74.184 22.8313 74.5781 21.8853 74.9131C20.9394 75.2482 20.2891 75.4846 20.2891 75.4846C20.2891 75.4846 20.9197 75.8394 21.8853 76.2532C23.1137 76.7739 24.3959 77.1572 25.7085 77.3962" fill="#5EA82F"/>
<path d="M29.0766 68.705C29.5742 69.9021 30.3594 70.9581 31.3626 71.7793C31.8496 72.1566 32.4154 72.4193 33.018 72.5479C33.6453 72.6844 34.2996 72.6224 34.8902 72.3705C34.9223 71.1314 34.5862 69.9107 33.9245 68.8627C33.2796 67.8924 32.4808 67.0337 31.5597 66.3204C30.765 65.6904 29.936 65.1048 29.0766 64.5665C28.3868 64.133 27.9336 63.8965 27.9336 63.8965C27.9336 63.8965 27.9336 64.0344 27.9336 64.3103C27.9336 64.5862 27.9336 64.941 28.0912 65.3942C28.2726 66.5364 28.6039 67.6496 29.0766 68.705Z" fill="#5EA82F"/>
<path d="M19.3235 71.8582C19.981 71.8456 20.6272 71.6849 21.2141 71.3881C21.8009 71.0912 22.3133 70.6659 22.7131 70.1437C22.4007 69.5963 21.9816 69.1171 21.4806 68.7346C20.9796 68.3521 20.4069 68.074 19.7965 67.9168C18.477 67.5736 17.12 67.3949 15.7565 67.3848C14.3573 67.3848 12.9779 67.3848 11.9334 67.3848H10.1992L10.5736 67.7592C10.8101 67.976 11.1648 68.311 11.5984 68.6657C12.6626 69.5413 13.8349 70.2765 15.0865 70.8532C16.4025 71.5104 17.8526 71.8544 19.3235 71.8582V71.8582Z" fill="#5EA82F"/>
<path d="M21.8845 66.5179C22.2453 67.0162 22.7238 67.4174 23.2775 67.6856C23.8311 67.9539 24.4426 68.0808 25.0573 68.055C25.5181 66.8698 25.5181 65.555 25.0573 64.3698C24.6688 63.2652 24.1103 62.2279 23.4019 61.2955C22.7319 60.389 22.0619 59.6007 21.5692 59.0489C21.0765 58.4971 21.1159 58.5563 20.9583 58.3986C20.8953 58.3117 20.8225 58.2324 20.7415 58.1621L20.6232 58.5562C20.5393 58.9007 20.4735 59.2494 20.4261 59.6007C20.2564 60.7176 20.2564 61.8537 20.4261 62.9706C20.5996 64.2586 21.1019 65.4803 21.8845 66.5179V66.5179Z" fill="#5EA82F"/>
<path d="M5.43005 56.8228L3.85352 56.3301L4.03087 56.7636C4.14911 57.0198 4.34614 57.3942 4.60233 57.8475C4.85852 58.3008 5.15417 58.7934 5.50889 59.3255C5.86362 59.8576 5.86362 59.8576 6.06069 60.1335L6.21832 60.3503L6.4154 60.6065L6.82923 61.1189C7.85271 62.4048 9.21913 63.375 10.7706 63.9173C11.399 64.1575 12.0784 64.233 12.7441 64.1364C13.4099 64.0398 14.0399 63.7744 14.5741 63.3655C14.27 62.1177 13.52 61.0243 12.4655 60.2912C12.2079 60.0785 11.9381 59.8811 11.6575 59.7C11.372 59.5002 11.0759 59.316 10.7706 59.1482C10.475 58.9511 10.1597 58.7737 9.84439 58.5964C9.52908 58.419 9.23349 58.2811 8.93789 58.1431C7.80277 57.6171 6.6303 57.1758 5.43005 56.8228Z" fill="#5EA82F"/>
<path d="M14.7117 59.2856C14.8726 59.8739 15.1875 60.4087 15.624 60.8348C16.0604 61.2609 16.6027 61.5628 17.1948 61.7095C17.9751 60.7406 18.4178 59.5436 18.456 58.3002C18.4897 57.2642 18.4171 56.2274 18.2393 55.2062C18.1719 54.6916 18.0598 54.1839 17.9042 53.6888C17.7663 53.1764 17.6086 52.7034 17.4707 52.3093C17.3327 51.9151 17.1751 51.5998 17.0963 51.383L16.9583 51.0283L16.7218 51.383C16.5642 51.6195 16.3868 51.9546 16.17 52.3487C15.6242 53.3705 15.1882 54.4472 14.8694 55.5609C14.8694 55.8762 14.7117 56.1915 14.6526 56.5069C14.5875 56.8191 14.5414 57.135 14.5146 57.4528C14.4951 57.7612 14.4951 58.0706 14.5146 58.379C14.5593 58.6854 14.6251 58.9883 14.7117 59.2856V59.2856Z" fill="#5EA82F"/>
<path d="M3.85359 52.0731C4.08325 52.3359 4.33363 52.5797 4.60241 52.8023C4.85338 53.0291 5.12375 53.2335 5.4104 53.4132C5.9429 53.7857 6.55143 54.0355 7.19208 54.1445C7.83273 54.2536 8.48957 54.2192 9.11532 54.0438C9.24373 53.3875 9.20305 52.7093 8.99709 52.0731C8.91611 51.7889 8.79678 51.5171 8.64238 51.2651C8.50443 50.9892 8.30736 50.733 8.1497 50.4769C7.31028 49.4385 6.30475 48.5462 5.17393 47.8361C4.16696 47.1214 3.12086 46.4635 2.04052 45.8654L0.5625 45.0771L0.680737 45.5501C0.680737 45.826 0.877792 46.2399 1.03545 46.7325C1.41897 47.9543 1.94834 49.1255 2.61204 50.2207C2.97522 50.8707 3.39043 51.4901 3.85359 52.0731V52.0731Z" fill="#5EA82F"/>
<path d="M11.1439 51.5408C11.4194 52.0903 11.8254 52.564 12.3263 52.9203C13.4329 52.2803 14.2566 51.2454 14.632 50.0234C14.725 49.74 14.7975 49.4502 14.8488 49.1563C14.8488 49.0184 14.8488 48.8607 14.8488 48.7227V48.2695C14.8971 47.6727 14.8971 47.073 14.8488 46.4762C14.8069 45.4598 14.7082 44.4466 14.5532 43.4413C14.5035 43.1228 14.4377 42.8071 14.3561 42.4954C14.3561 42.2786 14.3561 42.1406 14.3561 42.1406L14.0605 42.4362C13.8635 42.6333 13.627 42.9092 13.3314 43.2639C12.6068 44.1466 11.9791 45.1046 11.4592 46.1214C10.9062 47.2802 10.604 48.5427 10.5723 49.8263C10.5702 50.126 10.6101 50.4245 10.6906 50.7132C10.8159 51.0024 10.9676 51.2795 11.1439 51.5408V51.5408Z" fill="#5EA82F"/>
<path d="M1.48774 40.9579C1.65505 41.2678 1.84614 41.5643 2.05926 41.8447C2.26129 42.1188 2.48537 42.3758 2.72929 42.6133C3.17915 43.0869 3.72978 43.4533 4.34041 43.6852C4.95103 43.9172 5.60602 44.0088 6.25686 43.9534C6.4876 43.3649 6.56884 42.7285 6.49333 42.1009C6.46533 41.8046 6.39908 41.5131 6.29625 41.2338C6.21734 40.9423 6.11179 40.6586 5.98093 40.3864C5.70631 39.7959 5.36232 39.2402 4.95619 38.731C4.73941 38.4551 4.52262 38.199 4.32555 37.9231L3.65552 37.1545C2.749 36.1494 1.68479 35.1838 1.03446 34.5335C0.384128 33.8831 -0.207031 33.4102 -0.207031 33.4102C-0.207031 33.4102 -0.207031 34.1196 -0.207031 35.1641C-0.207031 35.6765 -0.0691329 36.2874 0.049109 36.9574C0.049109 37.2727 0.187089 37.6077 0.265917 37.9625C0.344745 38.3172 0.443268 38.6522 0.56151 38.9872C0.825702 39.6642 1.13515 40.3225 1.48774 40.9579V40.9579Z" fill="#5EA82F"/>
<path d="M9.60777 43.2049C10.8103 42.7977 11.8161 41.9537 12.4259 40.84C12.5704 40.5871 12.6955 40.3236 12.8003 40.0518C12.9351 39.7832 13.0536 39.5069 13.1551 39.2241C13.3392 38.6782 13.4776 38.1179 13.5689 37.549C13.6871 37.0169 13.7856 36.4848 13.8448 35.9921C13.9039 35.4995 13.8448 35.4995 13.8448 35.2827C13.8335 35.0726 13.8335 34.8621 13.8448 34.6521C13.8768 34.2257 13.8768 33.7975 13.8448 33.3711C13.8448 33.3711 13.3324 33.6667 12.5835 34.1988L11.9923 34.6323L11.3814 35.1841C10.9334 35.5909 10.5183 36.0324 10.1399 36.5045C9.92312 36.7607 9.74572 37.0169 9.54865 37.2928L9.29245 37.6869C9.21237 37.8274 9.14004 37.9721 9.0757 38.1205C8.7995 38.6773 8.59426 39.2665 8.46479 39.8744C8.4258 40.1753 8.4258 40.48 8.46479 40.7809C8.47207 41.0748 8.51842 41.3664 8.60269 41.648C8.79884 42.2445 9.14494 42.7806 9.60777 43.2049V43.2049Z" fill="#5EA82F"/>
<path d="M4.75874 26.3359C4.44343 25.725 4.10843 25.1535 3.79312 24.6017L2.88656 23.1433C2.35447 22.2959 1.98005 21.7441 1.98005 21.7441C1.98005 21.7441 1.783 22.4142 1.56622 23.4389C1.56622 23.971 1.42826 24.582 1.36914 25.2323V26.257C1.36914 26.6118 1.36914 26.9862 1.36914 27.3409C1.41993 28.0651 1.53197 28.7837 1.70413 29.489C1.90355 30.1754 2.1813 30.8367 2.53185 31.4597C2.85125 32.0308 3.29861 32.5202 3.83883 32.8894C4.37905 33.2587 4.99741 33.4978 5.64552 33.588C5.81863 33.3241 5.95773 33.0394 6.05941 32.7406C6.16559 32.4598 6.24476 32.1694 6.29589 31.8735C6.41324 31.2815 6.41324 30.6722 6.29589 30.0802C6.16612 29.4456 5.9747 28.8252 5.72437 28.2277C5.42876 27.5577 5.05435 26.9271 4.75874 26.3359Z" fill="#5EA82F"/>
<path d="M12.3073 31.6961C12.7116 31.2911 13.0686 30.8415 13.3715 30.356C13.698 29.8899 13.9816 29.3952 14.2189 28.878C14.3569 28.6415 14.4357 28.3853 14.554 28.1488C14.6722 27.9124 14.7707 27.6759 14.8693 27.4591C14.9678 27.2423 15.1846 26.592 15.3225 26.2176C15.4766 25.8333 15.6018 25.4381 15.6969 25.0352C15.2162 25.1606 14.7425 25.3119 14.278 25.4884C13.2299 25.8867 12.2366 26.4164 11.322 27.065C11.0855 27.262 10.8096 27.4591 10.5731 27.6759C10.3417 27.8845 10.1244 28.1084 9.92281 28.3459C9.49781 28.8017 9.14553 29.3201 8.87834 29.8831C8.63796 30.4231 8.51054 31.0065 8.50391 31.5976C8.50439 31.8841 8.54417 32.1692 8.62214 32.445C8.72383 32.7437 8.86286 33.0285 9.03597 33.2924C10.2826 33.1698 11.4436 32.6033 12.3073 31.6961V31.6961Z" fill="#5EA82F"/>
<path d="M8.20698 22.6499C8.38667 22.4116 8.53875 22.1538 8.66026 21.8813C8.77529 21.6086 8.86111 21.3246 8.9164 21.0339C8.9164 20.7383 8.9164 20.4427 9.03464 20.1273C9.07391 19.4688 9.04089 18.808 8.93613 18.1567C8.8421 17.4928 8.71048 16.8349 8.54196 16.186C8.20694 14.8656 7.83253 13.6043 7.51722 12.6584C7.20191 11.7125 6.96543 11.1016 6.96543 11.1016C6.87918 11.2283 6.80024 11.3599 6.72895 11.4957C6.59101 11.7716 6.39394 12.146 6.17716 12.619C5.65016 13.7921 5.26003 15.0221 5.01446 16.2845C4.89029 16.9939 4.82437 17.7124 4.81738 18.4325C4.79785 18.7804 4.79785 19.1291 4.81738 19.477C4.86661 19.8101 4.93902 20.1394 5.03412 20.4624C5.20911 21.0827 5.51112 21.6598 5.92096 22.1572C6.34944 22.6615 6.88909 23.0595 7.4975 23.3199C7.75994 23.1257 7.99816 22.9008 8.20698 22.6499V22.6499Z" fill="#5EA82F"/>
<path d="M19.2247 17.5856L19.4021 17.29H18.9882H17.9043C17.4708 17.29 16.9584 17.4477 16.3869 17.5659L15.5198 17.8024L14.6527 18.098C14.0592 18.3274 13.4912 18.618 12.9579 18.9651C12.4494 19.3139 11.986 19.7243 11.5784 20.187C11.3853 20.4092 11.2199 20.6541 11.0857 20.9161C10.9667 21.1775 10.8679 21.4476 10.7901 21.7241C10.7108 22.0063 10.6711 22.2981 10.6719 22.5912C10.6953 22.8993 10.7548 23.2035 10.8492 23.4977C11.5003 23.6218 12.1689 23.6218 12.8199 23.4977C13.3946 23.3638 13.9459 23.1446 14.4556 22.8474C14.7102 22.7084 14.954 22.5502 15.1848 22.3744L15.5198 22.0985L15.8548 21.8226C16.2783 21.4519 16.6736 21.0501 17.0373 20.6205C17.392 20.2067 17.727 19.7928 18.0226 19.3987L18.2196 19.1031L18.4167 18.8272C18.5436 18.6625 18.662 18.4915 18.7714 18.3148C18.9882 18.0586 19.2247 17.7827 19.2247 17.5856Z" fill="#5EA82F"/>
<path d="M12.0111 14.0777C12.5568 13.7964 13.0292 13.3915 13.3906 12.8953C13.7572 12.4211 14.0252 11.8784 14.1789 11.299C14.5098 10.0129 14.6428 8.68384 14.5731 7.35764C14.5731 7.02263 14.5731 6.6876 14.5731 6.35258C14.5731 6.01756 14.5731 5.70226 14.5731 5.40666C14.5731 4.77603 14.4548 4.20453 14.3956 3.71186C14.2971 2.72651 14.1986 2.07617 14.1986 2.07617L13.8833 2.4309C13.6085 2.73059 13.3518 3.04646 13.1147 3.37682C12.7678 3.83911 12.4455 4.31932 12.1491 4.81544C11.8023 5.40285 11.4866 6.00803 11.2031 6.62848C10.9297 7.2653 10.7121 7.92468 10.5528 8.59918C10.4064 9.24548 10.3402 9.90737 10.3557 10.5699C10.3464 11.242 10.4906 11.9074 10.7775 12.5154C11.0644 13.1233 11.4863 13.6576 12.0111 14.0777Z" fill="#5EA82F"/>
<path d="M21.7868 13.3688C22.2401 13.0338 22.6737 12.6988 23.0481 12.3638C23.4225 12.0288 23.7575 11.7332 24.0334 11.4573L24.7035 10.8069L24.94 10.5507C24.4527 10.4451 23.9589 10.3727 23.4619 10.334C22.9435 10.3014 22.4235 10.3014 21.9051 10.334C21.298 10.349 20.6926 10.4017 20.092 10.4916C18.8376 10.6346 17.6387 11.0885 16.6039 11.812C16.1438 12.1634 15.7613 12.6063 15.4806 13.1126C15.2117 13.6499 15.0829 14.2465 15.1062 14.8468C16.2606 15.3426 17.555 15.4055 18.752 15.0242C19.3091 14.8659 19.8451 14.641 20.3483 14.3542C20.8543 14.0662 21.3355 13.7366 21.7868 13.3688Z" fill="#5EA82F"/>
<path d="M46.8142 78.638C39.0744 76.08 31.5762 72.842 24.4073 68.9618C21.3401 67.2793 18.592 65.0715 16.2881 62.4388C14.0509 59.7139 12.2675 56.6463 11.0066 53.3539C8.32562 47.3209 7.05199 40.7572 7.28197 34.1593C7.94104 26.378 10.6247 18.9046 15.0663 12.4816C16.1734 10.807 17.3639 9.18903 18.6332 7.63372C19.0776 7.64951 19.522 7.60308 19.9535 7.49577C20.51 7.34249 21.0364 7.09593 21.5104 6.7666L22.1804 6.21481C22.4053 6.01277 22.6161 5.79548 22.8111 5.56448C23.2114 5.11071 23.5801 4.63006 23.9147 4.12587C24.6044 3.12082 25.1759 2.15518 25.6094 1.30778L26.1021 0.361834L26.2401 0.0859375H25.9445L24.8606 0.283004C23.7409 0.557182 22.6614 0.974473 21.6484 1.52455C20.4848 2.12271 19.4787 2.98695 18.712 4.04705C18.3638 4.5512 18.1224 5.12124 18.0026 5.72214C17.8853 6.23446 17.8853 6.76667 18.0026 7.27899C15.0353 10.8898 12.5388 14.8631 10.573 19.1032C8.19968 24.2096 6.86016 29.7351 6.63161 35.3614C6.59451 41.7736 7.93878 48.1186 10.573 53.9648C12.4093 58.7628 15.4094 63.0291 19.3032 66.3802C23.1252 69.3171 27.3712 71.6561 31.896 73.3171C35.5023 74.7754 40.1138 77.2585 44.8435 79.3671" fill="#5EA82F"/>
<path d="M100.501 77.2977C99.8285 77.1505 99.2041 76.8345 98.6869 76.3794C98.1698 75.9243 97.777 75.3451 97.5454 74.6964C98.0776 74.2665 98.6768 73.9269 99.319 73.6913C99.9135 73.4747 100.539 73.3549 101.171 73.3366C102.542 73.3162 103.909 73.4887 105.231 73.849C106.571 74.184 107.872 74.5781 108.818 74.9131C109.764 75.2482 110.414 75.4846 110.414 75.4846C110.414 75.4846 109.783 75.8394 108.818 76.2532C107.589 76.7739 106.307 77.1572 104.995 77.3962" fill="#5EA82F"/>
<path d="M101.625 68.705C101.127 69.9021 100.342 70.9581 99.3386 71.7793C98.8516 72.1566 98.2857 72.4193 97.6832 72.5479C97.0559 72.6844 96.4016 72.6224 95.811 72.3705C95.7789 71.1314 96.115 69.9107 96.7767 68.8627C97.4216 67.8924 98.2203 67.0337 99.1415 66.3204C99.9361 65.6904 100.765 65.1048 101.625 64.5665C102.314 64.133 102.768 63.8965 102.768 63.8965C102.768 63.8965 102.768 64.0344 102.768 64.3103C102.768 64.5862 102.768 64.941 102.61 65.3942C102.429 66.5364 102.097 67.6496 101.625 68.705Z" fill="#5EA82F"/>
<path d="M111.38 71.8582C110.722 71.8456 110.076 71.6849 109.489 71.3881C108.902 71.0912 108.39 70.6659 107.99 70.1437C108.302 69.5963 108.722 69.1171 109.223 68.7346C109.724 68.3521 110.296 68.074 110.907 67.9168C112.226 67.5736 113.583 67.3949 114.947 67.3848C116.346 67.3848 117.725 67.3848 118.77 67.3848H120.504L120.13 67.7592C119.893 67.976 119.538 68.311 119.105 68.6657C118.041 69.5413 116.868 70.2765 115.617 70.8532C114.301 71.5104 112.851 71.8544 111.38 71.8582V71.8582Z" fill="#5EA82F"/>
<path d="M108.819 66.5179C108.458 67.0162 107.979 67.4174 107.426 67.6856C106.872 67.9539 106.26 68.0808 105.646 68.055C105.185 66.8698 105.185 65.555 105.646 64.3698C106.034 63.2652 106.593 62.2279 107.301 61.2955C107.971 60.389 108.641 59.6007 109.134 59.0489C109.627 58.4971 109.587 58.5563 109.745 58.3986C109.808 58.3117 109.881 58.2324 109.962 58.1621L110.08 58.5562C110.164 58.9007 110.23 59.2494 110.277 59.6007C110.447 60.7176 110.447 61.8537 110.277 62.9706C110.104 64.2586 109.601 65.4803 108.819 66.5179V66.5179Z" fill="#5EA82F"/>
<path d="M125.273 56.8228L126.85 56.3301L126.672 56.7636C126.554 57.0198 126.357 57.3942 126.101 57.8475C125.845 58.3008 125.549 58.7934 125.194 59.3255C124.84 59.8576 124.84 59.8576 124.642 60.1335L124.485 60.3503L124.288 60.6065L123.874 61.1189C122.85 62.4048 121.484 63.375 119.933 63.9173C119.304 64.1575 118.625 64.233 117.959 64.1364C117.293 64.0398 116.663 63.7744 116.129 63.3655C116.433 62.1177 117.183 61.0243 118.238 60.2912C118.495 60.0785 118.765 59.8811 119.046 59.7C119.331 59.5002 119.627 59.316 119.933 59.1482C120.228 58.9511 120.543 58.7737 120.859 58.5964C121.174 58.419 121.47 58.2811 121.765 58.1431C122.9 57.6171 124.073 57.1758 125.273 56.8228Z" fill="#5EA82F"/>
<path d="M115.991 59.2856C115.831 59.8739 115.516 60.4087 115.079 60.8348C114.643 61.2609 114.1 61.5628 113.508 61.7095C112.728 60.7406 112.285 59.5436 112.247 58.3002C112.213 57.2642 112.286 56.2274 112.464 55.2062C112.531 54.6916 112.643 54.1839 112.799 53.6888C112.937 53.1764 113.095 52.7034 113.232 52.3093C113.37 51.9151 113.528 51.5998 113.607 51.383L113.745 51.0283L113.981 51.383C114.139 51.6195 114.316 51.9546 114.533 52.3487C115.079 53.3705 115.515 54.4472 115.834 55.5609C115.834 55.8762 115.991 56.1915 116.051 56.5069C116.116 56.8191 116.162 57.135 116.189 57.4528C116.208 57.7612 116.208 58.0706 116.189 58.379C116.144 58.6854 116.078 58.9883 115.991 59.2856V59.2856Z" fill="#5EA82F"/>
<path d="M126.85 52.0731C126.62 52.3359 126.369 52.5797 126.101 52.8023C125.85 53.0291 125.579 53.2335 125.293 53.4132C124.76 53.7857 124.152 54.0355 123.511 54.1445C122.87 54.2536 122.214 54.2192 121.588 54.0438C121.459 53.3875 121.5 52.7093 121.706 52.0731C121.787 51.7889 121.906 51.5171 122.061 51.2651C122.199 50.9892 122.396 50.733 122.553 50.4769C123.393 49.4385 124.398 48.5462 125.529 47.8361C126.536 47.1214 127.582 46.4635 128.663 45.8654L130.141 45.0771L130.022 45.5501C130.022 45.826 129.825 46.2399 129.668 46.7325C129.284 47.9543 128.755 49.1255 128.091 50.2207C127.728 50.8707 127.313 51.4901 126.85 52.0731V52.0731Z" fill="#5EA82F"/>
<path d="M119.557 51.5408C119.282 52.0903 118.876 52.564 118.375 52.9203C117.268 52.2803 116.445 51.2454 116.069 50.0234C115.976 49.74 115.904 49.4502 115.852 49.1563C115.852 49.0184 115.852 48.8607 115.852 48.7227V48.2695C115.804 47.6727 115.804 47.073 115.852 46.4762C115.894 45.4598 115.993 44.4466 116.148 43.4413C116.198 43.1228 116.263 42.8071 116.345 42.4954C116.345 42.2786 116.345 42.1406 116.345 42.1406L116.641 42.4362C116.838 42.6333 117.074 42.9092 117.37 43.2639C118.094 44.1466 118.722 45.1046 119.242 46.1214C119.795 47.2802 120.097 48.5427 120.129 49.8263C120.131 50.126 120.091 50.4245 120.011 50.7132C119.885 51.0024 119.734 51.2795 119.557 51.5408V51.5408Z" fill="#5EA82F"/>
<path d="M129.215 40.9579C129.048 41.2678 128.857 41.5643 128.644 41.8447C128.442 42.1188 128.218 42.3758 127.974 42.6133C127.524 43.0869 126.973 43.4533 126.363 43.6852C125.752 43.9172 125.097 44.0088 124.446 43.9534C124.216 43.3649 124.134 42.7285 124.21 42.1009C124.238 41.8046 124.304 41.5131 124.407 41.2338C124.486 40.9423 124.591 40.6586 124.722 40.3864C124.997 39.7959 125.341 39.2402 125.747 38.731C125.964 38.4551 126.181 38.199 126.378 37.9231L127.048 37.1545C127.954 36.1494 129.018 35.1838 129.669 34.5335C130.319 33.8831 130.91 33.4102 130.91 33.4102C130.91 33.4102 130.91 34.1196 130.91 35.1641C130.91 35.6765 130.772 36.2874 130.654 36.9574C130.654 37.2727 130.516 37.6077 130.437 37.9625C130.358 38.3172 130.26 38.6522 130.142 38.9872C129.877 39.6642 129.568 40.3225 129.215 40.9579V40.9579Z" fill="#5EA82F"/>
<path d="M121.095 43.2049C119.893 42.7977 118.887 41.9537 118.277 40.84C118.133 40.5871 118.008 40.3236 117.903 40.0518C117.768 39.7832 117.65 39.5069 117.548 39.2241C117.364 38.6782 117.225 38.1179 117.134 37.549C117.016 37.0169 116.917 36.4848 116.858 35.9921C116.799 35.4995 116.858 35.4995 116.858 35.2827C116.87 35.0726 116.87 34.8621 116.858 34.6521C116.826 34.2257 116.826 33.7975 116.858 33.3711C116.858 33.3711 117.371 33.6667 118.12 34.1988L118.711 34.6323L119.322 35.1841C119.77 35.5909 120.185 36.0324 120.563 36.5045C120.78 36.7607 120.957 37.0169 121.154 37.2928L121.411 37.6869C121.491 37.8274 121.563 37.9721 121.627 38.1205C121.904 38.6773 122.109 39.2665 122.238 39.8744C122.277 40.1753 122.277 40.48 122.238 40.7809C122.231 41.0748 122.185 41.3664 122.1 41.648C121.904 42.2445 121.558 42.7806 121.095 43.2049V43.2049Z" fill="#5EA82F"/>
<path d="M125.942 26.3359C126.258 25.725 126.593 25.1535 126.908 24.6017L127.815 23.1433C128.347 22.2959 128.721 21.7441 128.721 21.7441C128.721 21.7441 128.918 22.4142 129.135 23.4389C129.135 23.971 129.273 24.582 129.332 25.2323V26.257C129.332 26.6118 129.332 26.9862 129.332 27.3409C129.281 28.0651 129.169 28.7837 128.997 29.489C128.798 30.1754 128.52 30.8367 128.169 31.4597C127.85 32.0308 127.403 32.5202 126.862 32.8894C126.322 33.2587 125.704 33.4978 125.056 33.588C124.883 33.3241 124.743 33.0394 124.642 32.7406C124.536 32.4598 124.456 32.1694 124.405 31.8735C124.288 31.2815 124.288 30.6722 124.405 30.0802C124.535 29.4456 124.726 28.8252 124.977 28.2277C125.272 27.5577 125.647 26.9271 125.942 26.3359Z" fill="#5EA82F"/>
<path d="M118.396 31.6961C117.992 31.2911 117.635 30.8415 117.332 30.356C117.005 29.8899 116.722 29.3952 116.484 28.878C116.346 28.6415 116.267 28.3853 116.149 28.1488C116.031 27.9124 115.932 27.6759 115.834 27.4591C115.735 27.2423 115.519 26.592 115.381 26.2176C115.226 25.8333 115.101 25.4381 115.006 25.0352C115.487 25.1606 115.961 25.3119 116.425 25.4884C117.473 25.8867 118.466 26.4164 119.381 27.065C119.618 27.262 119.894 27.4591 120.13 27.6759C120.361 27.8845 120.579 28.1084 120.78 28.3459C121.205 28.8017 121.558 29.3201 121.825 29.8831C122.065 30.4231 122.193 31.0065 122.199 31.5976C122.199 31.8841 122.159 32.1692 122.081 32.445C121.979 32.7437 121.84 33.0285 121.667 33.2924C120.421 33.1698 119.26 32.6033 118.396 31.6961V31.6961Z" fill="#5EA82F"/>
<path d="M122.494 22.6499C122.315 22.4116 122.162 22.1538 122.041 21.8813C121.926 21.6086 121.84 21.3246 121.785 21.0339C121.785 20.7383 121.785 20.4427 121.667 20.1273C121.627 19.4688 121.66 18.808 121.765 18.1567C121.859 17.4928 121.991 16.8349 122.159 16.186C122.494 14.8656 122.869 13.6043 123.184 12.6584C123.499 11.7125 123.736 11.1016 123.736 11.1016C123.822 11.2283 123.901 11.3599 123.972 11.4957C124.11 11.7716 124.307 12.146 124.524 12.619C125.051 13.7921 125.441 15.0221 125.687 16.2845C125.811 16.9939 125.877 17.7124 125.884 18.4325C125.903 18.7804 125.903 19.1291 125.884 19.477C125.835 19.8101 125.762 20.1394 125.667 20.4624C125.492 21.0827 125.19 21.6598 124.78 22.1572C124.352 22.6615 123.812 23.0595 123.204 23.3199C122.941 23.1257 122.703 22.9008 122.494 22.6499V22.6499Z" fill="#5EA82F"/>
<path d="M111.478 17.5856L111.301 17.29H111.715H112.799C113.232 17.29 113.745 17.4477 114.316 17.5659L115.183 17.8024L116.05 18.098C116.644 18.3274 117.212 18.618 117.745 18.9651C118.254 19.3139 118.717 19.7243 119.125 20.187C119.318 20.4092 119.483 20.6541 119.617 20.9161C119.736 21.1775 119.835 21.4476 119.913 21.7241C119.992 22.0063 120.032 22.2981 120.031 22.5912C120.008 22.8993 119.948 23.2035 119.854 23.4977C119.203 23.6218 118.534 23.6218 117.883 23.4977C117.309 23.3638 116.757 23.1446 116.248 22.8474C115.993 22.7084 115.749 22.5502 115.518 22.3744L115.183 22.0985L114.848 21.8226C114.425 21.4519 114.03 21.0501 113.666 20.6205C113.311 20.2067 112.976 19.7928 112.681 19.3987L112.483 19.1031L112.286 18.8272C112.16 18.6625 112.041 18.4915 111.932 18.3148C111.715 18.0586 111.478 17.7827 111.478 17.5856Z" fill="#5EA82F"/>
<path d="M118.69 14.0777C118.144 13.7964 117.672 13.3915 117.311 12.8953C116.944 12.4211 116.676 11.8784 116.522 11.299C116.191 10.0129 116.058 8.68384 116.128 7.35764C116.128 7.02263 116.128 6.6876 116.128 6.35258C116.128 6.01756 116.128 5.70226 116.128 5.40666C116.128 4.77603 116.246 4.20453 116.306 3.71186C116.404 2.72651 116.503 2.07617 116.503 2.07617L116.818 2.4309C117.093 2.73059 117.349 3.04646 117.586 3.37682C117.933 3.83911 118.256 4.31932 118.552 4.81544C118.899 5.40285 119.215 6.00803 119.498 6.62848C119.772 7.2653 119.989 7.92468 120.148 8.59918C120.295 9.24548 120.361 9.90737 120.345 10.5699C120.355 11.242 120.211 11.9074 119.924 12.5154C119.637 13.1233 119.215 13.6576 118.69 14.0777Z" fill="#5EA82F"/>
<path d="M108.916 13.3688C108.463 13.0338 108.029 12.6988 107.655 12.3638C107.281 12.0288 106.946 11.7332 106.67 11.4573L106 10.8069L105.763 10.5507C106.25 10.4451 106.744 10.3727 107.241 10.334C107.76 10.3014 108.28 10.3014 108.798 10.334C109.405 10.349 110.011 10.4017 110.611 10.4916C111.866 10.6346 113.064 11.0885 114.099 11.812C114.559 12.1634 114.942 12.6063 115.223 13.1126C115.491 13.6499 115.62 14.2465 115.597 14.8468C114.443 15.3426 113.148 15.4055 111.951 15.0242C111.394 14.8659 110.858 14.641 110.355 14.3542C109.849 14.0662 109.368 13.7366 108.916 13.3688Z" fill="#5EA82F"/>
<path d="M83.889 78.638C91.6288 76.08 99.1269 72.842 106.296 68.9618C109.363 67.2793 112.111 65.0715 114.415 62.4388C116.652 59.7139 118.436 56.6463 119.697 53.3539C122.378 47.3209 123.651 40.7572 123.421 34.1593C122.762 26.378 120.078 18.9046 115.637 12.4816C114.53 10.807 113.339 9.18903 112.07 7.63372C111.626 7.64951 111.181 7.60308 110.75 7.49577C110.193 7.34249 109.667 7.09593 109.193 6.7666L108.523 6.21481C108.298 6.01277 108.087 5.79548 107.892 5.56448C107.492 5.11071 107.123 4.63006 106.788 4.12587C106.099 3.12082 105.527 2.15518 105.094 1.30778L104.601 0.361834L104.463 0.0859375H104.759L105.843 0.283004C106.962 0.557182 108.042 0.974473 109.055 1.52455C110.218 2.12271 111.224 2.98695 111.991 4.04705C112.339 4.5512 112.581 5.12124 112.701 5.72214C112.818 6.23446 112.818 6.76667 112.701 7.27899C115.668 10.8898 118.164 14.8631 120.13 19.1032C122.503 24.2096 123.843 29.7351 124.072 35.3614C124.109 41.7736 122.764 48.1186 120.13 53.9648C118.294 58.7628 115.294 63.0291 111.4 66.3802C107.578 69.3171 103.332 71.6561 98.8072 73.3171C95.2008 74.7754 90.5893 77.2585 85.8597 79.3671" fill="#5EA82F"/>
<path d="M44.625 89.4775H49.3844V90.2768H47.3862V96.1262H46.5506V90.2768H44.625V89.4775Z" fill="#202020"/>
<path d="M50.8381 91.2578C52.5093 91.2578 53.018 91.8754 53.018 93.801C53.018 95.5812 52.5093 96.1989 50.8381 96.1989C49.1668 96.1989 48.6582 95.5449 48.6582 93.801C48.6582 91.8028 49.2032 91.2578 50.8381 91.2578ZM50.8381 95.3996C51.7464 95.3996 52.1823 95.2906 52.1823 93.7647C52.1823 92.1298 51.8554 92.0208 50.8381 92.0208C49.8935 92.0208 49.4938 92.1661 49.4938 93.7647C49.4938 95.2906 49.9298 95.3996 50.8381 95.3996Z" fill="#202020"/>
<path d="M54.0344 91.2934H54.6883L54.87 91.802C55.1243 91.6203 55.9963 91.2207 56.5776 91.2207C57.8855 91.2207 58.1762 92.456 58.1762 93.6549C58.1762 94.9265 57.9582 96.1618 56.5776 96.1618C56.1779 96.1618 55.415 96.0528 54.8337 95.7985V98.5233H53.998V91.2934H54.0344ZM56.5049 95.4351C57.0499 95.4351 57.3405 95.1082 57.3405 93.6912C57.3405 92.5286 57.0499 92.02 56.5049 92.02C55.8509 92.02 55.306 92.2016 54.87 92.4196V95.2172C55.415 95.3625 55.8509 95.4351 56.5049 95.4351V95.4351Z" fill="#202020"/>
<path d="M59.4121 89.4775H62.028C64.0625 89.4775 64.4258 91.4031 64.4258 92.82C64.4258 94.4549 63.7719 96.1262 62.028 96.1262H59.4121V89.4775ZM61.9916 95.2906C63.1179 95.2906 63.5539 94.1643 63.5539 92.7837C63.5539 90.8945 62.9726 90.2405 61.9916 90.2405H60.2477V95.2906H61.9916Z" fill="#202020"/>
<path d="M67.2591 91.2578C68.4944 91.2578 69.1847 91.3668 69.1847 92.9654C69.1847 93.692 68.785 94.0917 67.8767 94.0917H65.9875C65.9875 95.1453 66.2418 95.3633 66.9321 95.3633C67.7678 95.3633 68.4217 95.3633 69.112 95.2543V95.8719C68.3854 96.0899 67.5134 96.1262 66.7505 96.1262C65.5152 96.1262 65.1519 95.5086 65.1519 93.6557C65.1156 91.5485 65.7332 91.2578 67.2591 91.2578V91.2578ZM67.8041 93.4014C68.1674 93.4014 68.3491 93.256 68.3491 92.9654C68.3491 92.0934 68.2037 92.0208 67.2954 92.0208C66.3508 92.0208 65.9875 92.0208 65.9875 93.4014H67.8041Z" fill="#202020"/>
<path d="M70.6388 91.2939L72.0557 94.9997L73.4726 91.2939H74.3809L72.4553 96.126H71.5834L69.7305 91.2939H70.6388V91.2939Z" fill="#202020"/>
<path d="M77.0322 91.2578C78.2675 91.2578 78.9578 91.3668 78.9578 92.9654C78.9578 93.692 78.5581 94.0917 77.6499 94.0917H75.7243C75.7243 95.1453 75.9786 95.3633 76.6689 95.3633C77.5045 95.3633 78.1585 95.3633 78.8488 95.2543V95.8719C78.1222 96.0899 77.2502 96.1262 76.4872 96.1262C75.252 96.1262 74.8887 95.5086 74.8887 93.6557C74.8887 91.5485 75.5063 91.2578 77.0322 91.2578V91.2578ZM77.5772 93.4014C77.9405 93.4014 78.1222 93.256 78.1222 92.9654C78.1222 92.0934 77.9768 92.0208 77.0686 92.0208C76.1239 92.0208 75.7606 92.0208 75.7606 93.4014H77.5772Z" fill="#202020"/>
<path d="M79.9023 89.0049H80.738V94.3456C80.738 95.1085 80.956 95.2902 81.2466 95.3629C81.2466 95.3629 81.9369 95.5445 82.0096 95.5445V96.1258H81.1376C80.411 96.1258 79.9023 95.6898 79.9023 94.4183V89.0049Z" fill="#202020"/>
<path d="M84.5178 91.2578C86.189 91.2578 86.6977 91.8754 86.6977 93.801C86.6977 95.5812 86.189 96.1989 84.5178 96.1989C82.8465 96.1989 82.3379 95.5449 82.3379 93.801C82.3379 91.8028 82.9192 91.2578 84.5178 91.2578ZM84.5178 95.3996C85.4261 95.3996 85.862 95.2906 85.862 93.7647C85.862 92.1298 85.535 92.0208 84.5178 92.0208C83.5732 92.0208 83.1735 92.1661 83.1735 93.7647C83.2098 95.2906 83.6458 95.3996 84.5178 95.3996Z" fill="#202020"/>
<path d="M87.7512 91.2934H88.4051L88.5868 91.802C88.8411 91.6203 89.7131 91.2207 90.2944 91.2207C91.6023 91.2207 91.8929 92.456 91.8929 93.6549C91.8929 94.9265 91.675 96.1618 90.2944 96.1618C89.8947 96.1618 89.1318 96.0528 88.5505 95.7985V98.5233H87.7148V91.2934H87.7512ZM90.1854 95.4351C90.7303 95.4351 91.021 95.1082 91.021 93.6912C91.021 92.5286 90.7303 92.02 90.1854 92.02C89.5314 92.02 88.9864 92.2016 88.5505 92.4196V95.2172C89.1318 95.3625 89.5677 95.4351 90.1854 95.4351V95.4351Z" fill="#202020"/>
<path d="M94.9072 91.2578C96.1425 91.2578 96.8328 91.3668 96.8328 92.9654C96.8328 93.692 96.4331 94.0917 95.5249 94.0917H93.5993C93.5993 95.1453 93.8536 95.3633 94.5439 95.3633C95.3795 95.3633 96.0335 95.3633 96.7238 95.2543V95.8719C95.9972 96.0899 95.1252 96.1262 94.3623 96.1262C93.127 96.1262 92.7637 95.5086 92.7637 93.6557C92.7637 91.5485 93.3813 91.2578 94.9072 91.2578V91.2578ZM95.4522 93.4014C95.8155 93.4014 95.9972 93.256 95.9972 92.9654C95.9972 92.0934 95.8518 92.0208 94.9436 92.0208C93.9989 92.0208 93.6356 92.0208 93.6356 93.4014H95.4522Z" fill="#202020"/>
<path d="M97.7773 91.2941H98.4313L98.6493 91.9118C99.1579 91.5848 99.6302 91.2578 100.357 91.2578C100.611 91.2578 100.902 91.2578 101.011 91.3305V92.1661C100.902 92.1298 100.575 92.1298 100.321 92.1298C99.6302 92.1298 99.2669 92.2751 98.6493 92.6747V96.1989H97.8137V91.2941H97.7773Z" fill="#202020"/>
<path d="M101.594 92.4931C101.594 91.7301 101.921 91.2578 102.865 91.2578C103.483 91.2578 104.864 91.3305 105.336 91.4395V92.0208H102.974C102.466 92.0208 102.429 92.2024 102.429 92.4931V92.8564C102.429 93.2924 102.647 93.3287 102.974 93.3287H104.355C105.191 93.3287 105.59 93.8373 105.59 94.5276V94.9999C105.59 95.9809 104.973 96.1989 104.391 96.1989C103.81 96.1989 102.139 96.0899 101.812 96.0172V95.4359H104.282C104.319 95.4359 104.755 95.4722 104.755 94.9999V94.6003C104.755 94.3096 104.646 94.1643 104.282 94.1643H102.902C102.03 94.1643 101.594 93.8737 101.594 92.9291V92.4931V92.4931Z" fill="#202020"/>
<path fill-rule="evenodd" clip-rule="evenodd" d="M37.2863 85.9893H25.406C24.752 85.9893 24.207 86.4252 24.207 86.9702V99.1049C24.207 99.6498 24.752 100.086 25.406 100.086H37.2863C37.9403 100.086 38.4852 99.6498 38.4852 99.1049V86.9702C38.5216 86.4252 37.9766 85.9893 37.2863 85.9893V85.9893Z" fill="#202020"/>
<path fill-rule="evenodd" clip-rule="evenodd" d="M34.5245 89.9858C34.5245 89.9858 33.7253 88.9686 32.0903 88.8232H26.459V90.6398H27.9122L27.8759 96.6345H29.9468V90.6035H32.0903C32.0903 90.6035 32.9623 90.7125 33.2893 91.3664C33.2893 91.3664 33.9796 92.6017 33.2893 94.055C33.2893 94.055 32.9623 94.6726 32.272 94.7453L30.5644 94.7816V96.5981H32.054C32.054 96.5981 32.7806 96.5981 33.4709 96.3075C33.8706 96.1258 34.3429 95.8352 34.5972 95.4355C34.5609 95.4355 36.8134 92.8924 34.5245 89.9858V89.9858Z" fill="white"/>
</svg>
