<svg width="42" height="33" viewBox="0 0 42 33" fill="none" xmlns="http://www.w3.org/2000/svg">
<path d="M30.6681 26.0311C30.3964 26.2551 30.0632 26.3754 29.7225 26.3835C29.5209 26.3877 29.3182 26.3536 29.1256 26.2775C28.8915 26.1846 28.695 26.0314 28.5358 25.8499C26.9757 27.878 24.7688 29.3748 22.2184 30.0353C23.6406 29.0452 24.8168 27.3381 25.6054 25.1796H28.199C28.1892 25.1339 28.1692 25.093 28.1638 25.047L28.0282 24.0171L25.9792 24.0174C26.3794 22.5949 26.6179 21.0171 26.6633 19.339H27.4119L27.2587 18.1766H26.6633C26.6418 17.3978 26.5743 16.6427 26.4749 15.9141C26.1044 16.0174 25.7195 16.1192 25.3382 16.2207C25.4209 16.8561 25.4818 17.505 25.5018 18.1765H21.4065L21.1707 19.339H25.5012C25.4516 21.023 25.1972 22.6131 24.7702 24.0174H19.8747V21.4486L19.2793 21.8648C19.1067 21.987 18.912 22.0547 18.7123 22.096V24.0174H13.8165C13.6077 23.3298 13.4408 22.5958 13.3184 21.8296C13.1915 21.881 13.0607 21.9329 12.9359 21.9861C12.6866 22.0921 12.4641 22.1978 12.2273 22.3038C12.3315 22.8926 12.4543 23.4695 12.6068 24.0175H8.89348V24.0166C8.55905 24.2205 8.23985 24.4241 7.94424 24.6311C7.71073 24.7956 7.49814 24.9574 7.29688 25.1178C9.58231 29.4104 14.0998 32.3421 19.2928 32.3421C24.1629 32.3421 28.429 29.758 30.8269 25.8977L30.6681 26.0311ZM9.56199 25.1798H12.981C13.7711 27.3384 14.9454 29.0451 16.368 30.0356C13.5424 29.3043 11.1309 27.5503 9.56207 25.1798H9.56199ZM18.712 29.7869C16.8652 29.4803 15.2542 27.7313 14.2309 25.1798H18.712V29.7869ZM19.8744 25.1798H24.3555C23.3334 27.7295 21.7203 29.4799 19.8744 29.7869V25.1798Z" fill="#202020"/>
<path d="M41.0761 6.57009C39.1759 5.32043 35.203 6.20252 30.7956 7.9033L23.0514 0.339844L20.4425 0.429127L26.6679 9.66014C24.1065 10.8378 21.5697 12.1487 19.3451 13.36L16.1316 10.9333L14.7969 11.0889L18.1155 15.2693L18.4012 20.6002L19.5034 19.831L20.301 15.8847C22.7695 15.3198 25.5401 14.6196 28.2378 13.8053L29.6899 24.8426L31.7027 23.1803L32.4895 12.3861C36.9216 10.737 40.4807 8.76442 41.0762 6.57033L41.0761 6.57009Z" fill="#7BB4CC"/>
<path d="M22.6014 6.38509L21.9603 5.43432C21.0953 5.26203 20.2061 5.16797 19.2921 5.16797C12.5086 5.16797 6.88648 10.1713 5.88281 16.6777C6.7177 16.0479 7.52836 15.4944 8.27098 15.0124C8.44686 14.4908 8.64632 13.9789 8.89296 13.4932H10.7637C11.4382 13.1047 12.1307 12.7165 12.8593 12.3307H9.56182C11.1295 9.96013 13.5418 8.2065 16.368 7.47496C15.6108 8.00287 14.9258 8.7386 14.3289 9.6335C14.4227 9.60364 14.5158 9.57169 14.6162 9.56064L15.9509 9.40507C15.959 9.40447 15.9685 9.40507 15.9757 9.40447C16.7828 8.49253 17.7102 7.89002 18.7114 7.72453V10.9559L19.4797 11.5367C19.6138 11.4647 19.7407 11.4017 19.8742 11.3298V7.72451C21.0029 7.91143 22.0432 8.64386 22.9163 9.76273L24.4221 9.04699L22.6014 6.38509Z" fill="#202020"/>
<path d="M16.6042 15.841L14.5129 13.207C13.0921 13.9353 11.506 14.7979 9.84843 15.8311C7.99711 16.9945 6.05383 18.3378 4.27153 20.0494C3.3868 20.9117 2.53639 21.8702 1.84659 23.0259C1.5056 23.6049 1.20968 24.2382 1.00605 24.9241C0.951403 25.0919 0.914676 25.2728 0.872871 25.4478C0.850476 25.5347 0.840025 25.6261 0.823303 25.7156L0.77493 26.0396L0.773438 26.4353L0.784486 27.0184C0.835247 27.721 1.02277 28.4687 1.39572 29.1209C1.76 29.7787 2.30705 30.2842 2.85108 30.6088C3.95794 31.257 4.99563 31.363 5.8893 31.4159C7.6839 31.4706 9.06129 31.1782 10.0249 30.9868C10.325 30.9232 10.5776 30.865 10.7917 30.8151C7.99502 30.6682 6.2527 29.9976 5.31721 29.4897C5.04997 29.3541 4.80213 29.2018 4.59043 29.025C4.49279 28.9495 4.43963 28.8999 4.43963 28.8999L4.45785 28.8984C4.40022 28.8438 4.33333 28.7924 4.28466 28.7339C3.86334 28.2302 3.8523 27.7727 4.0016 27.1164C4.02728 27.0489 4.04967 26.9874 4.06818 26.9238L4.18195 26.5437L4.18583 26.5327C4.19628 26.4732 4.17538 26.5998 4.17837 26.5831L4.18464 26.5697L4.19509 26.5398L4.21599 26.4822C4.23182 26.4446 4.24018 26.4067 4.25988 26.3672C4.29751 26.2896 4.32319 26.2123 4.36828 26.1337C4.52623 25.8184 4.74212 25.4974 5.00937 25.1785C5.54535 24.5398 6.27064 23.928 7.06547 23.3693C8.66921 22.2511 10.5418 21.3356 12.3378 20.5703C13.8998 19.9074 15.408 19.3702 16.7694 18.9185L16.6042 15.841Z" fill="#C0C0C0"/>
</svg>
