<svg width="25" height="24" viewBox="0 0 25 24" fill="none" xmlns="http://www.w3.org/2000/svg">
<path d="M22.9842 5.7168H17.0536C16.6461 5.7168 16.3123 6.04083 16.3123 6.44344C16.3123 6.84605 16.6461 7.17008 17.0536 7.17008H21.163L14.3876 14.1515L10.1703 10.0225C10.0279 9.88506 9.84623 9.81141 9.64494 9.81141C9.44856 9.81141 9.262 9.88506 9.11962 10.0225L1.93667 17.0484C1.84339 17.1416 1.73047 17.3037 1.73047 17.5737C1.73047 17.775 1.7992 17.9419 1.93667 18.0745C2.07905 18.2119 2.26071 18.2856 2.462 18.2856C2.65838 18.2856 2.84494 18.2119 2.98732 18.0745L9.64463 11.5594L13.862 15.6884C14.0044 15.8259 14.186 15.8995 14.3873 15.8995C14.5837 15.8995 14.7702 15.8259 14.9126 15.6884L22.2477 8.23074V12.2419C22.2477 12.6395 22.5816 12.9685 22.9891 12.9685C23.3966 12.9685 23.7305 12.6445 23.7305 12.2419V6.44371C23.7256 6.04112 23.3917 5.71707 22.9842 5.71707V5.7168Z" fill="black"/>
</svg>
