<svg width="24" height="24" viewBox="0 0 24 24" fill="none" xmlns="http://www.w3.org/2000/svg">
<path d="M21.2269 1H10.1542V3.44948H6.46344V5.8877H2.77246V23H13.8452V20.5618H17.5362V18.1123H21.2272L21.2269 1ZM19.9967 4.415L17.5362 6.84968V5.02301L19.9967 2.58453V4.415ZM13.1445 2.2415H15.072L13.8418 3.46074L11.9141 3.46049L13.1445 2.2415ZM4.01056 7.118H12.6076V10.7829H4.01056V7.118ZM4.01056 21.7697V12.0058H12.6076V21.7697H4.01056ZM16.3136 19.3353L13.8457 19.335V5.88744H7.69427V4.67946H16.2985L16.3136 19.3353ZM15.5793 3.44935L16.8095 2.24137H18.6065L17.3876 3.44935H15.5793ZM19.9972 15.1487L18.2449 16.8823H17.5367V15.693L19.9972 13.2548V15.1487ZM19.9972 11.5286L17.5367 13.9668V12.1363L19.9972 9.69804V11.5286ZM17.5441 10.4101V8.57957L19.9972 6.14135V7.97188L17.5441 10.4101Z" fill="#202020"/>
<path d="M5.2334 8.33398H11.3849V9.55682H5.2334V8.33398Z" fill="#202020"/>
<path d="M5.2334 14.4434H10.1546V15.6662H5.2334V14.4434Z" fill="#202020"/>
<path d="M10.1546 16.8906H5.2334V20.5108H11.3851V16.8906H10.1546ZM10.1546 19.2954H6.4639V18.1135H10.1549L10.1546 19.2954Z" fill="#202020"/>
</svg>
