<svg width="33" height="25" viewBox="0 0 33 25" fill="none" xmlns="http://www.w3.org/2000/svg">
<g clip-path="url(#clip0_394_5536)">
<path fill-rule="evenodd" clip-rule="evenodd" d="M0.996094 0.158371H46.5961V2.01267H0.996094V0.158371ZM0.996094 3.86693H46.5961V5.72123H0.996094V3.86693ZM0.996094 7.57076H46.5961V9.42973H0.996094V7.57076ZM0.996094 11.2793H46.5961V13.1336H0.996094V11.2793ZM0.996094 14.9879H46.5961V16.8422H0.996094V14.9879ZM0.996094 18.6917H46.5961V20.546H0.996094V18.6917ZM0.996094 22.4003H46.5961V24.2546H0.996094V22.4003Z" fill="#BD3D44"/>
<path fill-rule="evenodd" clip-rule="evenodd" d="M0.996094 2.01268H46.5961V3.86693H0.996094V2.01268ZM0.996094 5.72118H46.5961V7.57077H0.996094V5.72118ZM0.996094 9.42507H46.5961V11.2793H0.996094V9.42507ZM0.996094 13.1336H46.5961V14.9879H0.996094V13.1336ZM0.996094 16.8422H46.5961V18.6964H0.996094V16.8422ZM0.996094 20.546H46.5961V22.4003H0.996094V20.546Z" fill="white"/>
<path fill-rule="evenodd" clip-rule="evenodd" d="M0.996094 0.158371H19.2351V13.1336H0.996094V0.158371Z" fill="#192F5D"/>
<path fill-rule="evenodd" clip-rule="evenodd" d="M2.5156 0.713806L2.68435 1.2267H3.21875L2.78745 1.54206L2.95155 2.05973L2.5156 1.7397L2.08435 2.05501L2.2484 1.54206L1.8125 1.2267H2.35625L2.5156 0.713806ZM5.5578 0.713806L5.72185 1.2267H6.2609L5.82495 1.54206L5.98905 2.05973L5.5578 1.7397L5.12185 2.05501L5.2859 1.54206L4.85465 1.2267H5.38905L5.5578 0.713806ZM8.5953 0.713806L8.76405 1.22675H9.29375L8.8625 1.54211L9.0265 2.05978L8.5906 1.73975L8.15935 2.05506L8.3234 1.54211L7.88745 1.22675H8.42655L8.5953 0.713806ZM11.6375 0.713806L11.8015 1.22675H12.3406L11.9046 1.54211L12.0734 2.05978L11.6374 1.73975L11.2015 2.05506L11.3703 1.54211L10.9343 1.22675H11.4687L11.6375 0.713806ZM14.675 0.713806L14.8437 1.22675H15.3781L14.9468 1.54211L15.1109 2.05978L14.675 1.73975L14.2437 2.05506L14.4078 1.54211L13.9765 1.22675H14.5109L14.675 0.713806ZM17.7171 0.713806L17.8812 1.22675H18.4203L17.9844 1.54211L18.1531 2.05978L17.7171 1.73975L17.2812 2.05506L17.45 1.54211L17.014 1.22675H17.5531L17.7171 0.713806ZM4.03905 2.01264L4.2031 2.52569H4.74215L4.3062 2.84095L4.4656 3.354L4.0437 3.03864L3.6078 3.35395L3.76245 2.841L3.3406 2.52564H3.875L4.03905 2.01264ZM7.07655 2.01264L7.2453 2.52569H7.77965L7.3437 2.84095L7.5125 3.354L7.0765 3.03864L6.6406 3.35395L6.80935 2.841L6.3734 2.52564H6.91245L7.07655 2.01264ZM10.1187 2.01264L10.2827 2.52569H10.8218L10.3859 2.84095L10.5499 3.354L10.1187 3.03864L9.6828 3.35395L9.84685 2.84105L9.4156 2.52569H9.95L10.1187 2.01264ZM13.1562 2.01264L13.325 2.52569H13.8593L13.4234 2.84095L13.5921 3.354L13.1562 3.03864L12.7249 3.35395L12.889 2.841L12.4531 2.52564H12.9968L13.1562 2.01264ZM16.1984 2.01264L16.3625 2.52569H16.9015L16.4656 2.84095L16.6297 3.354L16.1984 3.03864L15.7625 3.35395L15.9265 2.841L15.4953 2.52564H16.0296L16.1984 2.01264ZM2.5156 3.30701L2.68435 3.82939H3.21875L2.78745 4.1447L2.95155 4.6577L2.5156 4.33767L2.08435 4.6577L2.2484 4.13998L1.8125 3.82473H2.35625L2.5156 3.30701ZM5.5578 3.30701L5.72185 3.82457H6.2609L5.82495 4.13988L5.98905 4.65293L5.5578 4.33285L5.12185 4.65288L5.2859 4.13521L4.85465 3.81991H5.38905L5.5578 3.30701ZM8.5953 3.30701L8.76405 3.82468H9.29375L8.8625 4.13998L9.0265 4.65303L8.5906 4.33295L8.15935 4.65298L8.3234 4.13532L7.88745 3.82001H8.42655L8.5953 3.30701ZM11.6375 3.30701L11.8015 3.82468H12.3406L11.9046 4.13998L12.0734 4.65303L11.6374 4.33295L11.2015 4.65298L11.3703 4.13532L10.9343 3.82001H11.4687L11.6375 3.30701ZM14.675 3.30701L14.8437 3.82468H15.3781L14.9468 4.13993L15.1109 4.65298L14.675 4.3329L14.2437 4.65293L14.4078 4.13527L13.9765 3.81996H14.5109L14.675 3.30701ZM17.7171 3.30701L17.8812 3.82468H18.4203L17.9844 4.13998L18.1531 4.65303L17.7171 4.33295L17.2812 4.65298L17.45 4.13532L17.014 3.82001H17.5531L17.7171 3.30701ZM4.03905 4.60589L4.2031 5.11889H4.74215L4.3062 5.43415L4.4703 5.95187L4.03905 5.63184L3.6031 5.94715L3.76715 5.4342L3.3359 5.11889H3.87035L4.03905 4.60589ZM7.07655 4.60589L7.2453 5.11889H7.77965L7.3437 5.43415L7.5125 5.95187L7.0765 5.63184L6.6406 5.94715L6.80935 5.4342L6.3734 5.11889H6.91245L7.07655 4.60589ZM10.1187 4.60589L10.2827 5.11889H10.8218L10.3859 5.43415L10.5499 5.95187L10.1187 5.63184L9.6828 5.94715L9.84685 5.4342L9.4156 5.11889H9.95L10.1187 4.60589ZM13.1562 4.60589L13.325 5.11889H13.8593L13.4281 5.43415L13.5921 5.95187L13.1562 5.63184L12.7249 5.94715L12.889 5.4342L12.4531 5.11889H12.9968L13.1562 4.60589ZM16.1984 4.60589L16.3625 5.11889H16.9015L16.4656 5.43415L16.6297 5.95187L16.1984 5.63184L15.7625 5.94715L15.9265 5.4342L15.4953 5.11889H16.0296L16.1984 4.60589ZM2.5156 5.90483L2.68435 6.41783H3.21875L2.78745 6.73309L2.95155 7.2508L2.5156 6.93078L2.08435 7.24608L2.2484 6.73314L1.8125 6.41783H2.35625L2.5156 5.90483ZM5.5578 5.90483L5.72185 6.41783H6.2609L5.82495 6.73309L5.98905 7.24613L5.5578 6.93078L5.12185 7.24608L5.2859 6.73314L4.85465 6.41783H5.38905L5.5578 5.90483ZM8.5953 5.90483L8.76405 6.41783H9.29375L8.8625 6.73309L9.0265 7.2508L8.5906 6.93078L8.15935 7.24608L8.3234 6.73314L7.88745 6.41783H8.42655L8.5953 5.90483ZM11.6375 5.90483L11.8015 6.41783H12.3406L11.9046 6.73309L12.0734 7.2508L11.6374 6.93078L11.2015 7.24608L11.3703 6.73314L10.9343 6.41783H11.4687L11.6375 5.90483ZM14.675 5.90483L14.8437 6.41783H15.3781L14.9468 6.73309L15.1109 7.2508L14.675 6.93078L14.2437 7.24608L14.4078 6.73314L13.9765 6.41783H14.5109L14.675 5.90483ZM17.7171 5.90483L17.8812 6.41783H18.4203L17.9844 6.73309L18.1531 7.2508L17.7171 6.93078L17.2812 7.24608L17.45 6.73314L17.014 6.41783H17.5531L17.7171 5.90483ZM4.03905 7.20376L4.2031 7.71676H4.74215L4.3062 8.03202L4.4703 8.54507L4.03905 8.22504L3.6031 8.54507L3.76715 8.02735L3.3359 7.71204H3.87035L4.03905 7.20376ZM7.07655 7.20376L7.2453 7.71676H7.77965L7.3437 8.03202L7.5125 8.54507L7.0765 8.22504L6.6406 8.54507L6.80935 8.02735L6.3734 7.71204H6.91245L7.07655 7.20376ZM10.1187 7.20376L10.2827 7.71676H10.8218L10.3859 8.03202L10.5499 8.54507L10.1187 8.22504L9.6828 8.54507L9.84685 8.02735L9.4156 7.71204H9.95L10.1187 7.20376ZM13.1562 7.20376L13.325 7.71676H13.8593L13.4281 8.03202L13.5921 8.54507L13.1562 8.22504L12.7249 8.54507L12.889 8.02735L12.4531 7.71204H12.9968L13.1562 7.20376ZM16.1984 7.20376L16.3625 7.71676H16.9015L16.4656 8.03202L16.6297 8.54507L16.1984 8.22504L15.7625 8.54507L15.9265 8.02735L15.4953 7.71204H16.0296L16.1984 7.20376ZM2.5156 8.49798L2.68435 9.0157H3.21875L2.78745 9.33096L2.95155 9.83929L2.5156 9.52398L2.08435 9.83924L2.2484 9.32629L1.8125 9.01098H2.35625L2.5156 8.49798ZM5.5578 8.49798L5.72185 9.0157H6.2609L5.82495 9.33096L5.99375 9.83929L5.55775 9.52398L5.12185 9.83924L5.2906 9.32629L4.85465 9.01098H5.38905L5.5578 8.49798ZM8.5953 8.49798L8.76405 9.0157H9.29375L8.8625 9.33096L9.0265 9.83929L8.5906 9.52398L8.15935 9.83924L8.3234 9.32629L7.88745 9.01098H8.42655L8.5953 8.49798ZM11.6375 8.49798L11.8015 9.0157H12.3406L11.9046 9.33096L12.0734 9.83929L11.6374 9.52398L11.2015 9.83924L11.3703 9.32629L10.9343 9.01098H11.4687L11.6375 8.49798ZM14.675 8.49798L14.8437 9.0157H15.3781L14.9468 9.33096L15.1109 9.83929L14.675 9.52398L14.2437 9.83924L14.4078 9.32629L13.9765 9.01098H14.5109L14.675 8.49798ZM17.7171 8.49798L17.8812 9.0157H18.4203L17.9844 9.33096L18.1531 9.83929L17.7171 9.52398L17.2812 9.83924L17.45 9.32629L17.014 9.01098H17.5531L17.7171 8.49798ZM4.03905 9.79692L4.2031 10.3099H4.74215L4.3062 10.6252L4.4703 11.1429L4.03905 10.8229L3.6031 11.1382L3.76715 10.6252L3.3359 10.3099H3.87035L4.03905 9.79692ZM7.07655 9.79692L7.2453 10.3099H7.77965L7.3437 10.6252L7.5125 11.1429L7.0765 10.8229L6.6406 11.1382L6.80935 10.6252L6.3734 10.3099H6.91245L7.07655 9.79692ZM10.1187 9.79692L10.2827 10.3099H10.8218L10.3859 10.6252L10.5499 11.1429L10.1187 10.8229L9.6828 11.1382L9.84685 10.6252L9.4156 10.3099H9.95L10.1187 9.79692ZM13.1562 9.79692L13.325 10.3099H13.8593L13.4281 10.6252L13.5921 11.1429L13.1562 10.8229L12.7249 11.1382L12.889 10.6252L12.4531 10.3099H12.9968L13.1562 9.79692ZM16.1984 9.79692L16.3625 10.3099H16.9015L16.4656 10.6252L16.6297 11.1429L16.1984 10.8229L15.7625 11.1382L15.9265 10.6252L15.4953 10.3099H16.0296L16.1984 9.79692ZM2.5156 11.0959L2.68435 11.6089H3.21875L2.78745 11.9242L2.95155 12.4372L2.5156 12.1218L2.08435 12.4371L2.2484 11.9194L1.8125 11.6041H2.35625L2.5156 11.0959ZM5.5578 11.0959L5.72185 11.6089H6.2609L5.82495 11.9242L5.99375 12.4372L5.55775 12.1218L5.12185 12.4371L5.2906 11.9194L4.85465 11.6041H5.38905L5.5578 11.0959ZM8.5953 11.0959L8.76405 11.6089H9.29375L8.87185 11.9242L9.0359 12.4372L8.59995 12.1218L8.1687 12.4371L8.3328 11.9194L7.89685 11.6041H8.4359L8.5953 11.0959ZM11.6375 11.0959L11.8015 11.6089H12.3406L11.9046 11.9242L12.0734 12.4372L11.6374 12.1218L11.2015 12.4371L11.3703 11.9194L10.9343 11.6041H11.4687L11.6375 11.0959ZM14.675 11.0959L14.8437 11.6089H15.3781L14.9468 11.9242L15.1109 12.4372L14.675 12.1218L14.2437 12.4371L14.4078 11.9194L13.9765 11.6041H14.5109L14.675 11.0959ZM17.7171 11.0959L17.8812 11.6089H18.4203L17.9844 11.9242L18.1531 12.4372L17.7171 12.1218L17.2812 12.4371L17.45 11.9194L17.014 11.6041H17.5531L17.7171 11.0959Z" fill="white"/>
</g>
<defs>
<clipPath id="clip0_394_5536">
<rect width="32" height="24.0962" fill="white" transform="translate(0.996094 0.158371)"/>
</clipPath>
</defs>
</svg>
