<svg width="30" height="31" viewBox="0 0 30 31" fill="none" xmlns="http://www.w3.org/2000/svg">
<path d="M28.7799 0.339844C19.5874 0.351791 10.3949 0.351791 1.20181 0.339844C0.627948 0.339844 0.22214 0.51402 0 1.04892V29.6368C0.127645 29.9579 0.381887 30.2122 0.703014 30.3398H29.2818C29.6023 30.2114 29.8563 29.9573 29.985 29.6368V1.05214C29.7595 0.517459 29.3539 0.340112 28.78 0.340112L28.7799 0.339844ZM15.9462 2.23587H18.7225V5.01219H15.9462V2.23587ZM18.5964 15.3158L11.3849 19.4654V11.1663L18.5964 15.3158ZM4.66649 28.4409H1.88095V25.6704H4.66628L4.66649 28.4409ZM4.66649 5.02174H1.89291V2.24225H4.66923V5.02174H4.66649ZM9.34785 28.4591H6.57738V25.6767H9.3537V28.453L9.34785 28.4591ZM9.34785 5.02174H6.57738V2.2364H9.3537V5.01272L9.34785 5.02174ZM11.2558 2.23935H14.0293V5.01278H11.2558V2.23935ZM14.0382 28.4411H11.2619V25.6646H14.0382V28.4411ZM18.7256 28.4411H15.9524V25.6738H18.7288V28.4501L18.7256 28.4411ZM23.4043 28.4411H20.6338V25.6646H23.4043V28.4411ZM23.4043 5.00376H20.6338V2.23646H23.4043V5.01278V5.00376ZM25.3064 2.23646H28.0887V5.01278H25.3122V2.24231L25.3064 2.23646ZM28.0917 28.4441L25.3212 28.4439V25.6705H28.0975V28.45L28.0917 28.4441Z" fill="#D32F2F"/>
</svg>
