<svg width="29" height="28" viewBox="0 0 29 28" fill="none" xmlns="http://www.w3.org/2000/svg">
<path d="M27.3329 6.51281V2.23785C27.3329 1.6483 26.8516 1.16699 26.2621 1.16699H2.73687C2.14732 1.16699 1.66602 1.64835 1.66602 2.23785V6.51707L27.3328 6.51688L27.3329 6.51281ZM13.9661 2.77124C14.5557 2.77124 15.037 3.24854 15.037 3.8421C15.037 4.43571 14.5597 4.91296 13.9661 4.91296C13.3725 4.91277 12.8954 4.43141 12.8954 3.84191C12.8954 3.25241 13.3726 2.77124 13.9661 2.77124ZM9.68709 2.77124C10.2766 2.77124 10.7579 3.24854 10.7579 3.8421C10.7579 4.43571 10.2807 4.91296 9.68709 4.91296C9.09754 4.91296 8.61623 4.43567 8.61623 3.8421C8.61623 3.24835 9.09759 2.77124 9.68709 2.77124ZM5.41193 2.77124C6.00148 2.77124 6.47872 3.25241 6.47872 3.84191C6.47872 4.43141 6.00143 4.91277 5.40787 4.91277C4.81426 4.91277 4.34108 4.43141 4.34108 3.84191C4.34108 3.25241 4.81837 2.77124 5.41193 2.77124Z" fill="#202020"/>
<path d="M5.4082 22.021H23.5876V11.3252H5.4082V22.021ZM18.0452 14.4291C17.8085 14.2526 17.7565 13.9198 17.933 13.6832C18.1095 13.4465 18.4423 13.3945 18.6789 13.571L22.3043 16.2419C22.4406 16.3421 22.5207 16.5026 22.5207 16.671C22.5207 16.8394 22.4406 16.9998 22.3041 17.1001L18.6787 19.775C18.3137 19.9755 18.0371 19.8031 17.9328 19.6628C17.7563 19.4261 17.8085 19.0893 18.045 18.9169L21.085 16.675L18.0452 14.4291ZM12.4187 19.6426L15.627 13.2258C15.7594 12.961 16.0801 12.8569 16.3449 12.9852C16.6097 13.1176 16.7179 13.4383 16.5855 13.7031L13.3771 20.1199C13.2167 20.5691 12.7355 20.3966 12.6593 20.3605C12.3906 20.2281 12.2863 19.9072 12.4187 19.6426ZM6.69573 16.2417L10.3212 13.5708C10.5579 13.3942 10.8946 13.4465 11.0671 13.683C11.2436 13.9197 11.1913 14.2565 10.9548 14.4289L7.91486 16.6707L10.9548 18.9126C11.1915 19.0891 11.2436 19.4219 11.0671 19.6585C10.9628 19.7988 10.686 19.9993 10.3212 19.7707L6.69573 17.0957C6.55928 17.0036 6.47915 16.8432 6.47915 16.6707C6.47915 16.4983 6.55928 16.3419 6.69573 16.2416V16.2417Z" fill="#202020"/>
<path d="M1.66602 7.58301V25.7624C1.66602 26.352 2.14737 26.8333 2.73687 26.8333H26.2621C26.8514 26.8333 27.3327 26.3519 27.3327 25.7624V7.58301H1.66602ZM24.658 22.554C24.658 22.8507 24.4175 23.0874 24.1246 23.0874H4.87466C4.57796 23.0874 4.34127 22.8468 4.34127 22.554V10.7914C4.34127 10.4947 4.58184 10.258 4.87466 10.258H24.1246C24.4214 10.258 24.658 10.4986 24.658 10.7914V22.554Z" fill="#202020"/>
</svg>
