<svg width="28" height="29" viewBox="0 0 28 29" fill="none" xmlns="http://www.w3.org/2000/svg">
<path d="M2.77243 3.76052L16.2203 3.77651H21.1732V3.76052C21.1732 2.88487 20.4582 2.17383 19.5825 2.17383H2.75252C1.87705 2.17383 1.16602 2.88482 1.16602 3.76052V16.0071C1.16602 16.8827 1.87701 17.5936 2.75271 17.5936H10.6815V14.8583L2.75224 14.8585L2.77243 3.76052Z" fill="#202020"/>
<path d="M7.24571 19.0401C6.93238 19.4538 6.88021 20.0042 7.11322 20.4701C7.34622 20.9362 7.8162 21.2253 8.34239 21.2253H10.68V18.3975H7.72371L7.24571 19.0401Z" fill="#202020"/>
<path d="M4.02159 8.51968H10.6811V6.16184C10.6811 5.87668 10.7293 5.60751 10.8136 5.35449H4.02148L4.02159 8.51968Z" fill="#202020"/>
<path d="M3.625 9.59277H10.6823V10.3961H3.625V9.59277Z" fill="#202020"/>
<path d="M3.625 11.3613H10.6823V12.1647H3.625V11.3613Z" fill="#202020"/>
<path d="M3.625 13.1318H10.6823V13.9352H3.625V13.1318Z" fill="#202020"/>
<path d="M25.3947 4.58008H12.9271C12.1338 4.58008 11.4844 5.29181 11.4844 6.16295V26.2336C11.4844 27.1048 12.1338 27.8165 12.9271 27.8165H25.3947C26.188 27.8165 26.8336 27.1048 26.8336 26.2336V6.16295C26.8336 5.29181 26.188 4.58026 25.3947 4.58026V4.58008ZM17.9163 5.94883H20.4051C20.6269 5.94883 20.8095 6.12767 20.8095 6.34941C20.8095 6.57114 20.6267 6.74998 20.4051 6.74998H17.9163C17.6945 6.74998 17.5157 6.57114 17.5157 6.34941C17.5157 6.12786 17.6945 5.94883 17.9163 5.94883ZM20.4051 26.4471H17.9163C17.6945 26.4471 17.5157 26.2643 17.5157 26.0427C17.5157 25.821 17.6945 25.6421 17.9163 25.6421H20.4051C20.6269 25.6421 20.8095 25.821 20.8095 26.0427C20.8095 26.2644 20.6267 26.4471 20.4051 26.4471ZM24.3018 24.2732H14.0197V8.12247H24.3018V24.2732Z" fill="#202020"/>
<path d="M14.918 8.7998H23.4037V14.8549H14.918V8.7998Z" fill="#202020"/>
<path d="M14.8613 15.9277H18.5139V16.7054H14.8613V15.9277Z" fill="#202020"/>
<path d="M19.8027 15.9277H23.4557V16.7054H19.8027V15.9277Z" fill="#202020"/>
<path d="M14.8613 18.0537H18.5139V18.8314H14.8613V18.0537Z" fill="#202020"/>
<path d="M19.8027 18.0537H23.4557V18.8314H19.8027V18.0537Z" fill="#202020"/>
<path d="M14.8613 20.1768H18.5139V20.9545H14.8613V20.1768Z" fill="#202020"/>
<path d="M19.8027 20.1777H23.4557V20.9554H19.8027V20.1777Z" fill="#202020"/>
<path d="M14.8613 22.3008H18.5139V23.0785H14.8613V22.3008Z" fill="#202020"/>
<path d="M19.8027 22.3008H23.4557V23.0785H19.8027V22.3008Z" fill="#202020"/>
</svg>
