<svg width="24" height="24" viewBox="0 0 24 24" fill="none" xmlns="http://www.w3.org/2000/svg">
<path d="M23 5.64062H1V3.23438C1 2.85471 1.30784 2.54688 1.6875 2.54688H22.3125C22.6922 2.54688 23 2.85471 23 3.23438V5.64062ZM23 6.32813V20.7656C23 21.1453 22.6922 21.4531 22.3125 21.4531H1.6875C1.30784 21.4531 1 21.1453 1 20.7656V6.32813H23ZM2.54707 4.78125C2.92673 4.78125 3.23457 4.47341 3.23457 4.09375C3.23457 3.71409 2.92673 3.40625 2.54707 3.40625C2.16741 3.40625 1.85957 3.71409 1.85957 4.09375C1.85957 4.47341 2.16741 4.78125 2.54707 4.78125ZM4.26582 4.78125C4.64548 4.78125 4.95332 4.47341 4.95332 4.09375C4.95332 3.71409 4.64548 3.40625 4.26582 3.40625C3.88616 3.40625 3.57832 3.71409 3.57832 4.09375C3.57832 4.47341 3.88616 4.78125 4.26582 4.78125ZM5.98457 4.78125C6.36423 4.78125 6.67207 4.47341 6.67207 4.09375C6.67207 3.71409 6.36423 3.40625 5.98457 3.40625C5.60491 3.40625 5.29707 3.71409 5.29707 4.09375C5.29707 4.47341 5.60491 4.78125 5.98457 4.78125ZM3.40645 7.70312C3.02679 7.70312 2.71895 8.01096 2.71895 8.39062V19.3906C2.71895 19.7703 3.02679 20.0781 3.40645 20.0781H8.21895C8.59861 20.0781 8.90645 19.7703 8.90645 19.3906V8.39062C8.90645 8.01096 8.59861 7.70312 8.21895 7.70312H3.40645ZM14.4064 13.2031H10.6252C10.2455 13.2031 9.9377 13.511 9.9377 13.8906V16.9844C9.9377 17.364 10.2455 17.6719 10.6252 17.6719H14.4064C14.7861 17.6719 15.0939 17.364 15.0939 16.9844V13.8906C15.0939 13.511 14.7861 13.2031 14.4064 13.2031ZM20.9377 8.04688H10.2814C10.0916 8.04688 9.9377 8.2008 9.9377 8.39062C9.9377 8.58045 10.0916 8.73438 10.2814 8.73438H20.9377C21.1275 8.73438 21.2814 8.58045 21.2814 8.39062C21.2814 8.2008 21.1275 8.04688 20.9377 8.04688ZM14.9223 9.42188H10.1098C10.0148 9.42188 9.93789 9.49876 9.93789 9.59375C9.93789 9.68874 10.0148 9.76563 10.1098 9.76563H14.9223C15.0173 9.76563 15.0941 9.68874 15.0941 9.59375C15.0941 9.49876 15.0173 9.42188 14.9223 9.42188ZM14.9223 10.1094H10.1098C10.0148 10.1094 9.93789 10.1863 9.93789 10.2813C9.93789 10.3762 10.0148 10.4531 10.1098 10.4531H14.9223C15.0173 10.4531 15.0941 10.3762 15.0941 10.2813C15.0941 10.1863 15.0173 10.1094 14.9223 10.1094ZM14.9223 10.7969H10.1098C10.0148 10.7969 9.93789 10.8738 9.93789 10.9688C9.93789 11.0637 10.0148 11.1406 10.1098 11.1406H14.9223C15.0173 11.1406 15.0941 11.0637 15.0941 10.9688C15.0941 10.8738 15.0173 10.7969 14.9223 10.7969ZM21.1098 9.42188H16.2973C16.2023 9.42188 16.1254 9.49876 16.1254 9.59375C16.1254 9.68874 16.2023 9.76563 16.2973 9.76563H21.1098C21.2048 9.76563 21.2816 9.68874 21.2816 9.59375C21.2816 9.49876 21.2048 9.42188 21.1098 9.42188ZM21.1098 10.1094H16.2973C16.2023 10.1094 16.1254 10.1863 16.1254 10.2813C16.1254 10.3762 16.2023 10.4531 16.2973 10.4531H21.1098C21.2048 10.4531 21.2816 10.3762 21.2816 10.2813C21.2816 10.1863 21.2048 10.1094 21.1098 10.1094ZM21.1098 10.7969H16.2973C16.2023 10.7969 16.1254 10.8738 16.1254 10.9688C16.1254 11.0637 16.2023 11.1406 16.2973 11.1406H21.1098C21.2048 11.1406 21.2816 11.0637 21.2816 10.9688C21.2816 10.8738 21.2048 10.7969 21.1098 10.7969ZM14.9223 11.4844H10.1098C10.0148 11.4844 9.93789 11.5613 9.93789 11.6562C9.93789 11.7512 10.0148 11.8281 10.1098 11.8281H14.9223C15.0173 11.8281 15.0941 11.7512 15.0941 11.6562C15.0941 11.5613 15.0173 11.4844 14.9223 11.4844ZM19.391 11.4844H16.2973C16.2023 11.4844 16.1254 11.5613 16.1254 11.6562C16.1254 11.7512 16.2023 11.8281 16.2973 11.8281H19.391C19.486 11.8281 19.5629 11.7512 19.5629 11.6562C19.5629 11.5613 19.486 11.4844 19.391 11.4844ZM14.9223 18.3594H10.1098C10.0148 18.3594 9.93789 18.4363 9.93789 18.5313C9.93789 18.6262 10.0148 18.7031 10.1098 18.7031H14.9223C15.0173 18.7031 15.0941 18.6262 15.0941 18.5313C15.0941 18.4363 15.0173 18.3594 14.9223 18.3594ZM14.9223 19.0469H10.1098C10.0148 19.0469 9.93789 19.1238 9.93789 19.2188C9.93789 19.3137 10.0148 19.3906 10.1098 19.3906H14.9223C15.0173 19.3906 15.0941 19.3137 15.0941 19.2188C15.0941 19.1238 15.0173 19.0469 14.9223 19.0469ZM13.5473 19.7344H10.1098C10.0148 19.7344 9.93789 19.8113 9.93789 19.9062C9.93789 20.0012 10.0148 20.0781 10.1098 20.0781H13.5473C13.6423 20.0781 13.7191 20.0012 13.7191 19.9062C13.7191 19.8113 13.6423 19.7344 13.5473 19.7344ZM20.5943 13.2031H16.8131C16.4334 13.2031 16.1256 13.511 16.1256 13.8906V16.9844C16.1256 17.364 16.4334 17.6719 16.8131 17.6719H20.5943C20.974 17.6719 21.2818 17.364 21.2818 16.9844V13.8906C21.2818 13.511 20.974 13.2031 20.5943 13.2031ZM21.11 18.3594H16.2975C16.2025 18.3594 16.1256 18.4363 16.1256 18.5313C16.1256 18.6262 16.2025 18.7031 16.2975 18.7031H21.11C21.205 18.7031 21.2818 18.6262 21.2818 18.5313C21.2818 18.4363 21.205 18.3594 21.11 18.3594ZM21.11 19.0469H16.2975C16.2025 19.0469 16.1256 19.1238 16.1256 19.2188C16.1256 19.3137 16.2025 19.3906 16.2975 19.3906H21.11C21.205 19.3906 21.2818 19.3137 21.2818 19.2188C21.2818 19.1238 21.205 19.0469 21.11 19.0469ZM19.3912 19.7344H16.2975C16.2025 19.7344 16.1256 19.8113 16.1256 19.9062C16.1256 20.0012 16.2025 20.0781 16.2975 20.0781H19.3912C19.4862 20.0781 19.5631 20.0012 19.5631 19.9062C19.5631 19.8113 19.4862 19.7344 19.3912 19.7344Z" fill="white"/>
</svg>
