<svg width="48" height="48" viewBox="0 0 48 48" fill="none" xmlns="http://www.w3.org/2000/svg">
<path d="M46 11.2813H2V6.46875C2 5.70943 2.61568 5.09375 3.375 5.09375H44.625C45.3843 5.09375 46 5.70943 46 6.46875V11.2813ZM46 12.6563V41.5313C46 42.2906 45.3843 42.9063 44.625 42.9063H3.375C2.61568 42.9063 2 42.2906 2 41.5313V12.6563H46ZM5.09414 9.5625C5.85346 9.5625 6.46914 8.94682 6.46914 8.1875C6.46914 7.42818 5.85346 6.8125 5.09414 6.8125C4.33482 6.8125 3.71914 7.42818 3.71914 8.1875C3.71914 8.94682 4.33482 9.5625 5.09414 9.5625ZM8.53164 9.5625C9.29097 9.5625 9.90664 8.94682 9.90664 8.1875C9.90664 7.42818 9.29097 6.8125 8.53164 6.8125C7.77232 6.8125 7.15664 7.42818 7.15664 8.1875C7.15664 8.94682 7.77232 9.5625 8.53164 9.5625ZM11.9691 9.5625C12.7285 9.5625 13.3441 8.94682 13.3441 8.1875C13.3441 7.42818 12.7285 6.8125 11.9691 6.8125C11.2098 6.8125 10.5941 7.42818 10.5941 8.1875C10.5941 8.94682 11.2098 9.5625 11.9691 9.5625ZM6.81289 15.4063C6.05357 15.4063 5.43789 16.0219 5.43789 16.7813V38.7813C5.43789 39.5406 6.05357 40.1563 6.81289 40.1563H16.4379C17.1972 40.1563 17.8129 39.5406 17.8129 38.7813V16.7813C17.8129 16.0219 17.1972 15.4063 16.4379 15.4063H6.81289ZM28.8129 26.4063H21.2504C20.4911 26.4063 19.8754 27.0219 19.8754 27.7813V33.9688C19.8754 34.7281 20.4911 35.3438 21.2504 35.3438H28.8129C29.5722 35.3438 30.1879 34.7281 30.1879 33.9688V27.7813C30.1879 27.0219 29.5722 26.4063 28.8129 26.4063ZM41.8754 16.0938H20.5629C20.1832 16.0938 19.8754 16.4016 19.8754 16.7813C19.8754 17.1609 20.1832 17.4688 20.5629 17.4688H41.8754C42.2551 17.4688 42.5629 17.1609 42.5629 16.7813C42.5629 16.4016 42.2551 16.0938 41.8754 16.0938ZM29.8445 18.8438H20.2195C20.0296 18.8438 19.8758 18.9975 19.8758 19.1875C19.8758 19.3775 20.0296 19.5313 20.2195 19.5313H29.8445C30.0345 19.5313 30.1883 19.3775 30.1883 19.1875C30.1883 18.9975 30.0345 18.8438 29.8445 18.8438ZM29.8445 20.2188H20.2195C20.0296 20.2188 19.8758 20.3725 19.8758 20.5625C19.8758 20.7525 20.0296 20.9063 20.2195 20.9063H29.8445C30.0345 20.9063 30.1883 20.7525 30.1883 20.5625C30.1883 20.3725 30.0345 20.2188 29.8445 20.2188ZM29.8445 21.5938H20.2195C20.0296 21.5938 19.8758 21.7475 19.8758 21.9375C19.8758 22.1275 20.0296 22.2813 20.2195 22.2813H29.8445C30.0345 22.2813 30.1883 22.1275 30.1883 21.9375C30.1883 21.7475 30.0345 21.5938 29.8445 21.5938ZM42.2195 18.8438H32.5945C32.4046 18.8438 32.2508 18.9975 32.2508 19.1875C32.2508 19.3775 32.4046 19.5313 32.5945 19.5313H42.2195C42.4095 19.5313 42.5633 19.3775 42.5633 19.1875C42.5633 18.9975 42.4095 18.8438 42.2195 18.8438ZM42.2195 20.2188H32.5945C32.4046 20.2188 32.2508 20.3725 32.2508 20.5625C32.2508 20.7525 32.4046 20.9063 32.5945 20.9063H42.2195C42.4095 20.9063 42.5633 20.7525 42.5633 20.5625C42.5633 20.3725 42.4095 20.2188 42.2195 20.2188ZM42.2195 21.5938H32.5945C32.4046 21.5938 32.2508 21.7475 32.2508 21.9375C32.2508 22.1275 32.4046 22.2813 32.5945 22.2813H42.2195C42.4095 22.2813 42.5633 22.1275 42.5633 21.9375C42.5633 21.7475 42.4095 21.5938 42.2195 21.5938ZM29.8445 22.9688H20.2195C20.0296 22.9688 19.8758 23.1225 19.8758 23.3125C19.8758 23.5025 20.0296 23.6563 20.2195 23.6563H29.8445C30.0345 23.6563 30.1883 23.5025 30.1883 23.3125C30.1883 23.1225 30.0345 22.9688 29.8445 22.9688ZM38.782 22.9688H32.5945C32.4046 22.9688 32.2508 23.1225 32.2508 23.3125C32.2508 23.5025 32.4046 23.6563 32.5945 23.6563H38.782C38.972 23.6563 39.1258 23.5025 39.1258 23.3125C39.1258 23.1225 38.972 22.9688 38.782 22.9688ZM29.8445 36.7188H20.2195C20.0296 36.7188 19.8758 36.8725 19.8758 37.0625C19.8758 37.2525 20.0296 37.4063 20.2195 37.4063H29.8445C30.0345 37.4063 30.1883 37.2525 30.1883 37.0625C30.1883 36.8725 30.0345 36.7188 29.8445 36.7188ZM29.8445 38.0938H20.2195C20.0296 38.0938 19.8758 38.2475 19.8758 38.4375C19.8758 38.6275 20.0296 38.7813 20.2195 38.7813H29.8445C30.0345 38.7813 30.1883 38.6275 30.1883 38.4375C30.1883 38.2475 30.0345 38.0938 29.8445 38.0938ZM27.0945 39.4688H20.2195C20.0296 39.4688 19.8758 39.6225 19.8758 39.8125C19.8758 40.0025 20.0296 40.1563 20.2195 40.1563H27.0945C27.2845 40.1563 27.4383 40.0025 27.4383 39.8125C27.4383 39.6225 27.2845 39.4688 27.0945 39.4688ZM41.1887 26.4063H33.6262C32.8669 26.4063 32.2512 27.0219 32.2512 27.7813V33.9688C32.2512 34.7281 32.8669 35.3438 33.6262 35.3438H41.1887C41.948 35.3438 42.5637 34.7281 42.5637 33.9688V27.7813C42.5637 27.0219 41.948 26.4063 41.1887 26.4063ZM42.2199 36.7188H32.5949C32.4049 36.7188 32.2512 36.8725 32.2512 37.0625C32.2512 37.2525 32.4049 37.4063 32.5949 37.4063H42.2199C42.4099 37.4063 42.5637 37.2525 42.5637 37.0625C42.5637 36.8725 42.4099 36.7188 42.2199 36.7188ZM42.2199 38.0938H32.5949C32.4049 38.0938 32.2512 38.2475 32.2512 38.4375C32.2512 38.6275 32.4049 38.7813 32.5949 38.7813H42.2199C42.4099 38.7813 42.5637 38.6275 42.5637 38.4375C42.5637 38.2475 42.4099 38.0938 42.2199 38.0938ZM38.7824 39.4688H32.5949C32.4049 39.4688 32.2512 39.6225 32.2512 39.8125C32.2512 40.0025 32.4049 40.1563 32.5949 40.1563H38.7824C38.9724 40.1563 39.1262 40.0025 39.1262 39.8125C39.1262 39.6225 38.9724 39.4688 38.7824 39.4688Z" fill="#505050"/>
</svg>
