<svg width="48" height="48" viewBox="0 0 48 48" fill="none" xmlns="http://www.w3.org/2000/svg">
<circle cx="24" cy="24" r="18" fill="#028CB0"/>
<path d="M11.7286 24.0003C11.7286 28.8632 14.5572 33.0517 18.6478 35.0426L12.7948 19.0068C12.092 20.5777 11.7287 22.2793 11.7286 24.0003ZM24.0003 36.2719C25.4254 36.2719 26.7962 36.0217 28.0799 35.5757L27.9929 35.4125L24.2179 25.0773L20.5407 35.7715C21.6286 36.0979 22.7927 36.2719 24.0003 36.2719ZM25.6865 18.2452L30.1252 31.4416L31.3546 27.351C31.8768 25.6539 32.2793 24.4354 32.2793 23.3802C32.2793 21.8571 31.7353 20.8127 31.2784 20.0076C30.6474 18.985 30.0708 18.1256 30.0708 17.1247C30.0708 15.9932 30.9194 14.9489 32.1379 14.9489H32.2902C30.029 12.873 27.0698 11.7235 24.0003 11.7286C21.9679 11.7283 19.9672 12.2331 18.1783 13.1978C16.3895 14.1625 14.8684 15.5568 13.7521 17.2552L14.5354 17.277C15.8192 17.277 17.7992 17.1138 17.7992 17.1138C18.4737 17.0812 18.5498 18.0494 17.8862 18.1256C17.8862 18.1256 17.2226 18.2126 16.4719 18.2452L20.9541 31.5395L23.6413 23.489L21.7265 18.2452C21.2977 18.2216 20.8696 18.1853 20.4428 18.1364C19.7792 18.0929 19.8553 17.0812 20.519 17.1138C20.519 17.1138 22.5425 17.277 23.7501 17.277C25.0338 17.277 27.0138 17.1138 27.0138 17.1138C27.6774 17.0812 27.7645 18.0494 27.1008 18.1256C27.1008 18.1256 26.4372 18.2017 25.6865 18.2452ZM30.1687 34.6074C32.0252 33.528 33.5659 31.9803 34.6369 30.1189C35.7079 28.2576 36.2717 26.1478 36.2719 24.0003C36.2719 21.868 35.728 19.8662 34.7706 18.1147C34.965 20.0417 34.6733 21.9867 33.922 23.7718L30.1687 34.6074ZM24.0003 38.1431C20.2494 38.1431 16.6521 36.6531 13.9998 34.0008C11.3475 31.3485 9.85742 27.7512 9.85742 24.0003C9.85742 20.2494 11.3475 16.6521 13.9998 13.9998C16.6521 11.3475 20.2494 9.85742 24.0003 9.85742C27.7512 9.85742 31.3485 11.3475 34.0008 13.9998C36.6531 16.6521 38.1431 20.2494 38.1431 24.0003C38.1431 27.7512 36.6531 31.3485 34.0008 34.0008C31.3485 36.6531 27.7512 38.1431 24.0003 38.1431Z" fill="white"/>
</svg>
